
    <svg width="540" height="160" xmlns="http://www.w3.org/2000/svg">
      <style>.line{fill:none;stroke:#388bfd;stroke-width:1.5}.axis{stroke:#555;stroke-width:1;opacity:0.5}.label{fill:#999;font-family:sans-serif;font-size:10px;text-anchor:middle}</style>
      <line class="axis" x1="30" y1="30" x2="30" y2="130" />
      <line class="axis" x1="30" y1="130" x2="510" y2="130" />
      <text class="label" x="15" y="30">4,937</text>
      <text class="label" x="15" y="134">0</text>
      <text class="label" x="30" y="148">2021</text>
      <text class="label" x="510" y="148">2026</text>
      <polyline class="line" points="30.00,129.96 31.53,129.94 33.05,129.92 34.58,129.92 36.11,129.92 37.64,129.66 39.16,129.66 40.69,129.66 42.22,128.20 43.74,125.79 45.27,125.67 46.80,125.67 48.32,125.67 49.85,125.67 51.38,125.67 52.91,125.67 54.43,125.67 55.96,125.67 57.49,125.67 59.01,125.67 60.54,125.67 62.07,125.67 63.59,125.67 65.12,125.67 66.65,125.67 68.18,125.67 69.70,125.67 71.23,124.29 72.76,124.29 74.28,124.27 75.81,124.27 77.34,124.27 78.87,124.27 80.39,124.19 81.92,124.19 83.45,124.19 84.97,124.19 86.50,124.19 88.03,124.19 89.55,124.19 91.08,124.19 92.61,124.19 94.14,124.19 95.66,124.19 97.19,124.19 98.72,124.19 100.24,124.19 101.77,124.19 103.30,124.19 104.83,124.19 106.35,124.19 107.88,124.11 109.41,122.87 110.93,121.74 112.46,121.27 113.99,119.02 115.51,119.02 117.04,119.02 118.57,119.02 120.10,119.02 121.62,119.02 123.15,119.02 124.68,119.02 126.20,119.02 127.73,119.02 129.26,119.02 130.78,119.02 132.31,118.86 133.84,118.86 135.37,118.86 136.89,118.66 138.42,118.66 139.95,118.66 141.47,118.66 143.00,118.60 144.53,118.60 146.06,118.60 147.58,118.60 149.11,118.56 150.64,118.56 152.16,118.56 153.69,118.56 155.22,118.56 156.74,118.56 158.27,118.56 159.80,118.56 161.33,118.56 162.85,118.56 164.38,118.56 165.91,118.56 167.43,118.56 168.96,118.56 170.49,118.56 172.01,118.56 173.54,118.56 175.07,118.56 176.60,118.56 178.12,118.56 179.65,118.56 181.18,118.56 182.70,118.56 184.23,118.50 185.76,118.50 187.29,118.50 188.81,118.50 190.34,118.50 191.87,118.50 193.39,118.50 194.92,118.50 196.45,118.50 197.97,118.50 199.50,118.50 201.03,118.50 202.56,118.50 204.08,118.50 205.61,118.50 207.14,118.45 208.66,117.93 210.19,117.79 211.72,117.56 213.24,117.28 214.77,117.20 216.30,117.20 217.83,117.20 219.35,116.75 220.88,116.71 222.41,116.43 223.93,116.33 225.46,116.15 226.99,115.44 228.52,115.40 230.04,115.29 231.57,115.27 233.10,115.17 234.62,115.17 236.15,115.13 237.68,115.13 239.20,115.13 240.73,115.13 242.26,115.13 243.79,115.13 245.31,115.13 246.84,114.91 248.37,114.26 249.89,113.78 251.42,113.63 252.95,113.33 254.48,113.31 256.00,113.27 257.53,113.25 259.06,113.25 260.58,113.25 262.11,113.11 263.64,112.97 265.16,112.92 266.69,112.88 268.22,112.84 269.75,112.38 271.27,112.05 272.80,111.57 274.33,111.26 275.85,111.04 277.38,110.94 278.91,110.82 280.43,110.80 281.96,110.70 283.49,110.39 285.02,110.39 286.54,110.39 288.07,110.37 289.60,110.35 291.12,110.35 292.65,110.19 294.18,110.15 295.71,110.13 297.23,110.11 298.76,110.07 300.29,110.07 301.81,110.07 303.34,110.07 304.87,110.07 306.39,110.07 307.92,110.07 309.45,110.07 310.98,110.01 312.50,109.95 314.03,109.95 315.56,109.58 317.08,109.56 318.61,109.54 320.14,109.48 321.66,109.30 323.19,108.85 324.72,108.77 326.25,108.77 327.77,108.77 329.30,108.77 330.83,108.77 332.35,108.77 333.88,108.77 335.41,108.77 336.94,108.77 338.46,108.77 339.99,108.77 341.52,108.77 343.04,108.77 344.57,108.75 346.10,108.63 347.62,108.61 349.15,108.61 350.68,108.61 352.21,108.61 353.73,108.53 355.26,108.53 356.79,108.21 358.31,107.90 359.84,107.90 361.37,107.90 362.90,107.90 364.42,107.90 365.95,107.86 367.48,107.86 369.00,107.82 370.53,107.68 372.06,107.56 373.58,107.01 375.11,106.99 376.64,106.16 378.17,105.67 379.69,105.31 381.22,104.15 382.75,103.85 384.27,103.73 385.80,103.34 387.33,102.76 388.85,102.61 390.38,102.41 391.91,102.09 393.44,101.80 394.96,101.68 396.49,101.48 398.02,101.34 399.54,100.97 401.07,100.65 402.60,100.27 404.13,99.64 405.65,99.27 407.18,97.47 408.71,96.11 410.23,95.24 411.76,94.49 413.29,93.66 414.81,93.66 416.34,93.66 417.87,93.66 419.40,93.14 420.92,92.83 422.45,92.16 423.98,91.39 425.50,90.34 427.03,88.68 428.56,87.75 430.08,86.05 431.61,85.05 433.14,84.43 434.67,83.39 436.19,82.58 437.72,81.21 439.25,79.20 440.77,78.61 442.30,77.76 443.83,77.03 445.36,76.79 446.88,75.86 448.41,75.70 449.94,74.58 451.46,73.57 452.99,72.96 454.52,72.25 456.04,71.28 457.57,71.00 459.10,70.85 460.63,70.71 462.15,70.59 463.68,69.82 465.21,68.95 466.73,67.57 468.26,67.17 469.79,66.46 471.31,65.30 472.84,62.73 474.37,60.79 475.90,58.62 477.42,58.15 478.95,57.20 480.48,55.28 482.00,54.10 483.53,53.46 485.06,52.48 486.59,51.98 488.11,51.27 489.64,50.94 491.17,49.85 492.69,48.21 494.22,46.65 495.75,46.18 497.27,45.37 498.80,43.92 500.33,42.82 501.86,41.20 503.38,40.37 504.91,38.71 506.44,36.50 507.96,34.62 509.49,30.63" />
    </svg>
  