
    <svg width="540" height="160" xmlns="http://www.w3.org/2000/svg">
      <style>.line{fill:none;stroke:#388bfd;stroke-width:1.5}.axis{stroke:#555;stroke-width:1;opacity:0.5}.label{fill:#999;font-family:sans-serif;font-size:10px;text-anchor:middle}</style>
      <line class="axis" x1="30" y1="30" x2="30" y2="130" />
      <line class="axis" x1="30" y1="130" x2="510" y2="130" />
      <text class="label" x="15" y="30">7,800</text>
      <text class="label" x="15" y="134">0</text>
      <text class="label" x="30" y="148">2021</text>
      <text class="label" x="510" y="148">2026</text>
      <polyline class="line" points="30.00,129.97 31.49,129.96 32.99,129.95 34.48,129.95 35.97,129.95 37.47,129.78 38.96,129.78 40.45,129.78 41.94,128.86 43.44,127.33 44.93,127.26 46.42,127.26 47.92,127.26 49.41,127.26 50.90,127.26 52.40,127.26 53.89,127.26 55.38,127.26 56.87,127.26 58.37,127.26 59.86,127.26 61.35,127.26 62.85,127.26 64.34,127.26 65.83,127.26 67.33,127.26 68.82,127.26 70.31,126.38 71.80,126.38 73.30,126.37 74.79,126.37 76.28,126.37 77.78,126.37 79.27,126.32 80.76,126.32 82.26,126.32 83.75,126.32 85.24,126.32 86.73,126.32 88.23,126.32 89.72,126.32 91.21,126.32 92.71,126.32 94.20,126.32 95.69,126.32 97.19,126.32 98.68,126.32 100.17,126.32 101.66,126.32 103.16,126.32 104.65,126.32 106.14,126.27 107.64,125.49 109.13,124.77 110.62,124.47 112.12,123.05 113.61,123.05 115.10,123.05 116.59,123.05 118.09,123.05 119.58,123.05 121.07,123.05 122.57,123.05 124.06,123.05 125.55,123.05 127.05,123.05 128.54,123.05 130.03,122.95 131.52,122.95 133.02,122.95 134.51,122.82 136.00,122.82 137.50,122.82 138.99,122.82 140.48,122.78 141.98,122.78 143.47,122.78 144.96,122.78 146.45,122.76 147.95,122.76 149.44,122.76 150.93,122.76 152.43,122.76 153.92,122.76 155.41,122.76 156.91,122.76 158.40,122.76 159.89,122.76 161.38,122.76 162.88,122.76 164.37,122.76 165.86,122.76 167.36,122.76 168.85,122.76 170.34,122.76 171.84,122.76 173.33,122.76 174.82,122.76 176.31,122.76 177.81,122.76 179.30,122.76 180.79,122.72 182.29,122.72 183.78,122.72 185.27,122.72 186.77,122.72 188.26,122.72 189.75,122.72 191.24,122.72 192.74,122.72 194.23,122.72 195.72,122.72 197.22,122.72 198.71,122.72 200.20,122.72 201.70,122.72 203.19,122.69 204.68,122.36 206.17,122.27 207.67,122.13 209.16,121.95 210.65,121.90 212.15,121.90 213.64,121.90 215.13,121.62 216.63,121.59 218.12,121.41 219.61,121.35 221.10,121.23 222.60,120.78 224.09,120.76 225.58,120.69 227.08,120.68 228.57,120.62 230.06,120.62 231.56,120.59 233.05,120.59 234.54,120.59 236.03,120.59 237.53,120.59 239.02,120.59 240.51,120.59 242.01,120.45 243.50,120.04 244.99,119.73 246.49,119.64 247.98,119.45 249.47,119.44 250.96,119.41 252.46,119.40 253.95,119.40 255.44,119.40 256.94,119.31 258.43,119.22 259.92,119.19 261.42,119.17 262.91,119.14 264.40,118.85 265.89,118.64 267.39,118.33 268.88,118.14 270.37,118.00 271.87,117.94 273.36,117.86 274.85,117.85 276.35,117.78 277.84,117.59 279.33,117.59 280.82,117.59 282.32,117.58 283.81,117.56 285.30,117.56 286.80,117.46 288.29,117.44 289.78,117.42 291.28,117.41 292.77,117.38 294.26,117.38 295.75,117.38 297.25,117.38 298.74,117.38 300.23,117.38 301.73,117.38 303.22,117.38 304.71,117.35 306.21,117.31 307.70,117.31 309.19,117.08 310.68,117.06 312.18,117.05 313.67,117.01 315.16,116.90 316.66,116.62 318.15,116.56 319.64,116.56 321.14,116.56 322.63,116.56 324.12,116.56 325.61,116.56 327.11,116.56 328.60,116.56 330.09,116.56 331.59,116.56 333.08,116.56 334.57,116.56 336.07,116.56 337.56,116.55 339.05,116.47 340.54,116.46 342.04,116.46 343.53,116.46 345.02,116.46 346.52,116.41 348.01,116.41 349.50,116.21 351.00,116.01 352.49,116.01 353.98,116.01 355.47,116.01 356.97,116.01 358.46,115.99 359.95,115.99 361.45,115.96 362.94,115.87 364.43,115.79 365.93,115.45 367.42,115.44 368.91,114.91 370.40,114.60 371.90,114.37 373.39,113.64 374.88,113.45 376.38,113.37 377.87,113.13 379.36,112.76 380.86,112.67 382.35,112.54 383.84,112.33 385.33,112.15 386.83,112.08 388.32,111.95 389.81,111.86 391.31,111.63 392.80,111.42 394.29,111.18 395.79,110.78 397.28,110.55 398.77,109.41 400.26,108.55 401.76,108.00 403.25,107.53 404.74,107.00 406.24,107.00 407.73,107.00 409.22,107.00 410.72,106.67 412.21,106.47 413.70,105.78 415.19,105.00 416.69,104.09 418.18,102.72 419.67,101.76 421.17,99.78 422.66,98.59 424.15,97.79 425.65,96.51 427.14,95.69 428.63,94.06 430.12,91.60 431.62,90.86 433.11,89.90 434.60,88.97 436.10,88.67 437.59,87.49 439.08,87.28 440.58,85.87 442.07,84.59 443.56,83.82 445.05,82.95 446.55,81.79 448.04,81.49 449.53,81.38 451.03,81.26 452.52,81.18 454.01,80.45 455.51,79.50 457.00,78.35 458.49,78.03 459.98,77.09 461.48,75.88 462.97,73.49 464.46,71.72 465.96,69.54 467.45,68.96 468.94,67.81 470.44,65.67 471.93,64.45 473.42,63.78 474.91,62.85 476.41,62.23 477.90,61.35 479.39,60.94 480.89,60.04 482.38,58.33 483.87,56.45 485.37,55.87 486.86,54.90 488.35,53.33 489.84,52.41 491.34,50.54 492.83,49.55 494.32,47.63 495.82,45.68 497.31,43.63 498.80,40.15 500.30,38.04 501.79,36.01 503.28,34.88 504.77,33.22 506.27,31.79 507.76,31.31 509.25,30.53" />
    </svg>
  