
    <svg width="540" height="160" xmlns="http://www.w3.org/2000/svg">
      <style>.line{fill:none;stroke:#388bfd;stroke-width:1.5}.axis{stroke:#555;stroke-width:1;opacity:0.5}.label{fill:#999;font-family:sans-serif;font-size:10px;text-anchor:middle}</style>
      <line class="axis" x1="30" y1="30" x2="30" y2="130" />
      <line class="axis" x1="30" y1="130" x2="510" y2="130" />
      <text class="label" x="15" y="30">7,775</text>
      <text class="label" x="15" y="134">0</text>
      <text class="label" x="30" y="148">2021</text>
      <text class="label" x="510" y="148">2026</text>
      <polyline class="line" points="30.00,129.97 31.49,129.96 32.99,129.95 34.48,129.95 35.98,129.95 37.47,129.78 38.97,129.78 40.46,129.78 41.96,128.86 43.45,127.32 44.95,127.25 46.44,127.25 47.93,127.25 49.43,127.25 50.92,127.25 52.42,127.25 53.91,127.25 55.41,127.25 56.90,127.25 58.40,127.25 59.89,127.25 61.39,127.25 62.88,127.25 64.37,127.25 65.87,127.25 67.36,127.25 68.86,127.25 70.35,126.37 71.85,126.37 73.34,126.36 74.84,126.36 76.33,126.36 77.83,126.36 79.32,126.31 80.81,126.31 82.31,126.31 83.80,126.31 85.30,126.31 86.79,126.31 88.29,126.31 89.78,126.31 91.28,126.31 92.77,126.31 94.27,126.31 95.76,126.31 97.25,126.31 98.75,126.31 100.24,126.31 101.74,126.31 103.23,126.31 104.73,126.31 106.22,126.26 107.72,125.47 109.21,124.75 110.71,124.46 112.20,123.03 113.69,123.03 115.19,123.03 116.68,123.03 118.18,123.03 119.67,123.03 121.17,123.03 122.66,123.03 124.16,123.03 125.65,123.03 127.15,123.03 128.64,123.03 130.13,122.93 131.63,122.93 133.12,122.93 134.62,122.80 136.11,122.80 137.61,122.80 139.10,122.80 140.60,122.76 142.09,122.76 143.59,122.76 145.08,122.76 146.57,122.73 148.07,122.73 149.56,122.73 151.06,122.73 152.55,122.73 154.05,122.73 155.54,122.73 157.04,122.73 158.53,122.73 160.03,122.73 161.52,122.73 163.02,122.73 164.51,122.73 166.00,122.73 167.50,122.73 168.99,122.73 170.49,122.73 171.98,122.73 173.48,122.73 174.97,122.73 176.47,122.73 177.96,122.73 179.46,122.73 180.95,122.69 182.44,122.69 183.94,122.69 185.43,122.69 186.93,122.69 188.42,122.69 189.92,122.69 191.41,122.69 192.91,122.69 194.40,122.69 195.90,122.69 197.39,122.69 198.88,122.69 200.38,122.69 201.87,122.69 203.37,122.67 204.86,122.33 206.36,122.24 207.85,122.10 209.35,121.92 210.84,121.87 212.34,121.87 213.83,121.87 215.32,121.59 216.82,121.56 218.31,121.38 219.81,121.32 221.30,121.20 222.80,120.75 224.29,120.73 225.79,120.66 227.28,120.65 228.78,120.59 230.27,120.59 231.76,120.56 233.26,120.56 234.75,120.56 236.25,120.56 237.74,120.56 239.24,120.56 240.73,120.56 242.23,120.42 243.72,120.01 245.22,119.70 246.71,119.61 248.20,119.41 249.70,119.40 251.19,119.38 252.69,119.36 254.18,119.36 255.68,119.36 257.17,119.27 258.67,119.18 260.16,119.16 261.66,119.13 263.15,119.11 264.64,118.81 266.14,118.60 267.63,118.30 269.13,118.10 270.62,117.96 272.12,117.90 273.61,117.82 275.11,117.81 276.60,117.74 278.10,117.55 279.59,117.55 281.08,117.55 282.58,117.54 284.07,117.52 285.57,117.52 287.06,117.42 288.56,117.40 290.05,117.38 291.55,117.37 293.04,117.34 294.54,117.34 296.03,117.34 297.52,117.34 299.02,117.34 300.51,117.34 302.01,117.34 303.50,117.34 305.00,117.31 306.49,117.27 307.99,117.27 309.48,117.04 310.98,117.02 312.47,117.01 313.96,116.97 315.46,116.86 316.95,116.57 318.45,116.52 319.94,116.52 321.44,116.52 322.93,116.52 324.43,116.52 325.92,116.52 327.42,116.52 328.91,116.52 330.40,116.52 331.90,116.52 333.39,116.52 334.89,116.52 336.38,116.52 337.88,116.51 339.37,116.43 340.87,116.42 342.36,116.42 343.86,116.42 345.35,116.42 346.84,116.37 348.34,116.37 349.83,116.16 351.33,115.97 352.82,115.97 354.32,115.97 355.81,115.97 357.31,115.97 358.80,115.94 360.30,115.94 361.79,115.92 363.28,115.83 364.78,115.75 366.27,115.40 367.77,115.39 369.26,114.86 370.76,114.55 372.25,114.32 373.75,113.59 375.24,113.40 376.74,113.32 378.23,113.07 379.72,112.70 381.22,112.61 382.71,112.48 384.21,112.28 385.70,112.10 387.20,112.02 388.69,111.89 390.19,111.80 391.68,111.57 393.18,111.36 394.67,111.12 396.17,110.72 397.66,110.49 399.15,109.34 400.65,108.48 402.14,107.93 403.64,107.45 405.13,106.93 406.63,106.93 408.12,106.93 409.62,106.93 411.11,106.59 412.61,106.40 414.10,105.70 415.59,104.92 417.09,104.01 418.58,102.63 420.08,101.67 421.57,99.68 423.07,98.49 424.56,97.69 426.06,96.41 427.55,95.58 429.05,93.95 430.54,91.48 432.03,90.73 433.53,89.77 435.02,88.84 436.52,88.53 438.01,87.35 439.51,87.14 441.00,85.73 442.50,84.44 443.99,83.67 445.49,82.80 446.98,81.64 448.47,81.33 449.97,81.23 451.46,81.10 452.96,81.02 454.45,80.29 455.95,79.34 457.44,78.18 458.94,77.86 460.43,76.92 461.93,75.71 463.42,73.31 464.91,71.53 466.41,69.34 467.90,68.77 469.40,67.61 470.89,65.46 472.39,64.24 473.88,63.57 475.38,62.63 476.87,62.01 478.37,61.13 479.86,60.71 481.35,59.81 482.85,58.10 484.34,56.21 485.84,55.63 487.33,54.66 488.83,53.09 490.32,52.16 491.82,50.28 493.31,49.29 494.81,47.36 496.30,45.41 497.79,43.35 499.29,39.86 500.78,37.74 502.28,35.71 503.77,34.58 505.27,32.91 506.76,31.48 508.26,30.99 509.75,30.21" />
    </svg>
  