
    <svg width="540" height="160" xmlns="http://www.w3.org/2000/svg">
      <style>.line{fill:none;stroke:#388bfd;stroke-width:1.5}.axis{stroke:#555;stroke-width:1;opacity:0.5}.label{fill:#999;font-family:sans-serif;font-size:10px;text-anchor:middle}</style>
      <line class="axis" x1="30" y1="30" x2="30" y2="130" />
      <line class="axis" x1="30" y1="130" x2="510" y2="130" />
      <text class="label" x="15" y="30">9,302</text>
      <text class="label" x="15" y="134">0</text>
      <text class="label" x="30" y="148">2021</text>
      <text class="label" x="510" y="148">2026</text>
      <polyline class="line" points="30.00,129.98 31.44,129.97 32.89,129.96 34.33,129.96 35.77,129.96 37.21,129.82 38.66,129.82 40.10,129.82 41.54,129.04 42.99,127.76 44.43,127.70 45.87,127.70 47.31,127.70 48.76,127.70 50.20,127.70 51.64,127.70 53.09,127.70 54.53,127.70 55.97,127.70 57.41,127.70 58.86,127.70 60.30,127.70 61.74,127.70 63.19,127.70 64.63,127.70 66.07,127.70 67.52,127.70 68.96,126.97 70.40,126.97 71.84,126.96 73.29,126.96 74.73,126.96 76.17,126.96 77.62,126.91 79.06,126.91 80.50,126.91 81.94,126.91 83.39,126.91 84.83,126.91 86.27,126.91 87.72,126.91 89.16,126.91 90.60,126.91 92.04,126.91 93.49,126.91 94.93,126.91 96.37,126.91 97.82,126.91 99.26,126.91 100.70,126.91 102.14,126.91 103.59,126.87 105.03,126.22 106.47,125.61 107.92,125.37 109.36,124.17 110.80,124.17 112.24,124.17 113.69,124.17 115.13,124.17 116.57,124.17 118.02,124.17 119.46,124.17 120.90,124.17 122.34,124.17 123.79,124.17 125.23,124.17 126.67,124.09 128.12,124.09 129.56,124.09 131.00,123.98 132.44,123.98 133.89,123.98 135.33,123.98 136.77,123.95 138.22,123.95 139.66,123.95 141.10,123.95 142.55,123.93 143.99,123.93 145.43,123.93 146.87,123.93 148.32,123.93 149.76,123.93 151.20,123.93 152.65,123.93 154.09,123.93 155.53,123.93 156.97,123.93 158.42,123.93 159.86,123.93 161.30,123.93 162.75,123.93 164.19,123.93 165.63,123.93 167.07,123.93 168.52,123.93 169.96,123.93 171.40,123.93 172.85,123.93 174.29,123.93 175.73,123.89 177.17,123.89 178.62,123.89 180.06,123.89 181.50,123.89 182.95,123.89 184.39,123.89 185.83,123.89 187.27,123.89 188.72,123.89 190.16,123.89 191.60,123.89 193.05,123.89 194.49,123.89 195.93,123.89 197.37,123.87 198.82,123.59 200.26,123.52 201.70,123.40 203.15,123.25 204.59,123.21 206.03,123.21 207.47,123.21 208.92,122.97 210.36,122.95 211.80,122.80 213.25,122.74 214.69,122.65 216.13,122.27 217.58,122.25 219.02,122.20 220.46,122.18 221.90,122.13 223.35,122.13 224.79,122.11 226.23,122.11 227.68,122.11 229.12,122.11 230.56,122.11 232.00,122.11 233.45,122.11 234.89,121.99 236.33,121.65 237.78,121.39 239.22,121.31 240.66,121.15 242.10,121.14 243.55,121.12 244.99,121.11 246.43,121.11 247.88,121.11 249.32,121.03 250.76,120.96 252.20,120.94 253.65,120.92 255.09,120.89 256.53,120.65 257.98,120.48 259.42,120.22 260.86,120.06 262.30,119.94 263.75,119.88 265.19,119.82 266.63,119.81 268.08,119.75 269.52,119.59 270.96,119.59 272.40,119.59 273.85,119.58 275.29,119.57 276.73,119.57 278.18,119.49 279.62,119.46 281.06,119.45 282.51,119.44 283.95,119.42 285.39,119.42 286.83,119.42 288.28,119.42 289.72,119.42 291.16,119.42 292.61,119.42 294.05,119.42 295.49,119.39 296.93,119.36 298.38,119.36 299.82,119.16 301.26,119.15 302.71,119.14 304.15,119.11 305.59,119.01 307.03,118.78 308.48,118.73 309.92,118.73 311.36,118.73 312.81,118.73 314.25,118.73 315.69,118.73 317.13,118.73 318.58,118.73 320.02,118.73 321.46,118.73 322.91,118.73 324.35,118.73 325.79,118.73 327.23,118.72 328.68,118.66 330.12,118.65 331.56,118.65 333.01,118.65 334.45,118.65 335.89,118.60 337.33,118.60 338.78,118.43 340.22,118.27 341.66,118.27 343.11,118.27 344.55,118.27 345.99,118.27 347.43,118.25 348.88,118.25 350.32,118.23 351.76,118.15 353.21,118.09 354.65,117.80 356.09,117.79 357.54,117.35 358.98,117.09 360.42,116.90 361.86,116.28 363.31,116.12 364.75,116.06 366.19,115.85 367.64,115.54 369.08,115.47 370.52,115.36 371.96,115.19 373.41,115.04 374.85,114.97 376.29,114.86 377.74,114.79 379.18,114.59 380.62,114.42 382.06,114.22 383.51,113.89 384.95,113.69 386.39,112.73 387.84,112.01 389.28,111.55 390.72,111.15 392.16,110.71 393.61,110.71 395.05,110.71 396.49,110.71 397.94,110.43 399.38,110.27 400.82,109.69 402.26,109.04 403.71,108.27 405.15,107.12 406.59,106.32 408.04,104.66 409.48,103.66 410.92,103.00 412.36,101.92 413.81,101.23 415.25,99.87 416.69,97.80 418.14,97.18 419.58,96.37 421.02,95.60 422.46,95.34 423.91,94.35 425.35,94.18 426.79,93.00 428.24,91.92 429.68,91.28 431.12,90.55 432.57,89.58 434.01,89.32 435.45,89.23 436.89,89.13 438.34,89.06 439.78,88.45 441.22,87.65 442.67,86.69 444.11,86.42 445.55,85.63 446.99,84.62 448.44,82.61 449.88,81.13 451.32,79.30 452.77,78.82 454.21,77.85 455.65,76.05 457.09,75.03 458.54,74.47 459.98,73.69 461.42,73.17 462.87,72.43 464.31,72.09 465.75,71.34 467.19,69.91 468.64,68.33 470.08,67.84 471.52,66.95 472.97,65.31 474.41,64.48 475.85,62.44 477.29,61.48 478.74,59.71 480.18,57.99 481.62,55.92 483.07,52.80 484.51,50.74 485.95,48.96 487.39,47.82 488.84,46.35 490.28,45.03 491.72,44.38 493.17,43.31 494.61,42.01 496.05,41.28 497.49,40.16 498.94,39.31 500.38,38.50 501.82,37.29 503.27,35.07 504.71,33.30 506.15,31.81 507.60,30.57 509.04,30.12" />
    </svg>
  