
    <svg width="540" height="160" xmlns="http://www.w3.org/2000/svg">
      <style>.line{fill:none;stroke:#388bfd;stroke-width:1.5}.axis{stroke:#555;stroke-width:1;opacity:0.5}.label{fill:#999;font-family:sans-serif;font-size:10px;text-anchor:middle}</style>
      <line class="axis" x1="30" y1="30" x2="30" y2="130" />
      <line class="axis" x1="30" y1="130" x2="510" y2="130" />
      <text class="label" x="15" y="30">4,966</text>
      <text class="label" x="15" y="134">0</text>
      <text class="label" x="30" y="148">2021</text>
      <text class="label" x="510" y="148">2026</text>
      <polyline class="line" points="30.00,129.96 31.53,129.94 33.05,129.92 34.58,129.92 36.10,129.92 37.63,129.66 39.16,129.66 40.68,129.66 42.21,128.21 43.74,125.81 45.26,125.69 46.79,125.69 48.31,125.69 49.84,125.69 51.37,125.69 52.89,125.69 54.42,125.69 55.95,125.69 57.47,125.69 59.00,125.69 60.52,125.69 62.05,125.69 63.58,125.69 65.10,125.69 66.63,125.69 68.16,125.69 69.68,125.69 71.21,124.32 72.73,124.32 74.26,124.30 75.79,124.30 77.31,124.30 78.84,124.30 80.37,124.22 81.89,124.22 83.42,124.22 84.94,124.22 86.47,124.22 88.00,124.22 89.52,124.22 91.05,124.22 92.58,124.22 94.10,124.22 95.63,124.22 97.15,124.22 98.68,124.22 100.21,124.22 101.73,124.22 103.26,124.22 104.79,124.22 106.31,124.22 107.84,124.14 109.36,122.91 110.89,121.78 112.42,121.32 113.94,119.09 115.47,119.09 117.00,119.09 118.52,119.09 120.05,119.09 121.57,119.09 123.10,119.09 124.63,119.09 126.15,119.09 127.68,119.09 129.21,119.09 130.73,119.09 132.26,118.92 133.78,118.92 135.31,118.92 136.84,118.72 138.36,118.72 139.89,118.72 141.41,118.72 142.94,118.66 144.47,118.66 145.99,118.66 147.52,118.66 149.05,118.62 150.57,118.62 152.10,118.62 153.62,118.62 155.15,118.62 156.68,118.62 158.20,118.62 159.73,118.62 161.26,118.62 162.78,118.62 164.31,118.62 165.83,118.62 167.36,118.62 168.89,118.62 170.41,118.62 171.94,118.62 173.47,118.62 174.99,118.62 176.52,118.62 178.04,118.62 179.57,118.62 181.10,118.62 182.62,118.62 184.15,118.56 185.68,118.56 187.20,118.56 188.73,118.56 190.25,118.56 191.78,118.56 193.31,118.56 194.83,118.56 196.36,118.56 197.89,118.56 199.41,118.56 200.94,118.56 202.46,118.56 203.99,118.56 205.52,118.56 207.04,118.52 208.57,118.00 210.10,117.86 211.62,117.64 213.15,117.35 214.67,117.27 216.20,117.27 217.73,117.27 219.25,116.83 220.78,116.79 222.31,116.51 223.83,116.41 225.36,116.23 226.88,115.52 228.41,115.48 229.94,115.38 231.46,115.36 232.99,115.26 234.52,115.26 236.04,115.22 237.57,115.22 239.09,115.22 240.62,115.22 242.15,115.22 243.67,115.22 245.20,115.22 246.72,115.00 248.25,114.35 249.78,113.87 251.30,113.73 252.83,113.43 254.36,113.41 255.88,113.37 257.41,113.35 258.93,113.35 260.46,113.35 261.99,113.21 263.51,113.06 265.04,113.02 266.57,112.98 268.09,112.94 269.62,112.48 271.14,112.16 272.67,111.68 274.20,111.37 275.72,111.15 277.25,111.05 278.78,110.93 280.30,110.91 281.83,110.81 283.35,110.51 284.88,110.51 286.41,110.51 287.93,110.49 289.46,110.47 290.99,110.47 292.51,110.31 294.04,110.27 295.56,110.25 297.09,110.23 298.62,110.19 300.14,110.19 301.67,110.19 303.20,110.19 304.72,110.19 306.25,110.19 307.77,110.19 309.30,110.19 310.83,110.12 312.35,110.06 313.88,110.06 315.41,109.70 316.93,109.68 318.46,109.66 319.98,109.60 321.51,109.42 323.04,108.98 324.56,108.90 326.09,108.90 327.62,108.90 329.14,108.90 330.67,108.90 332.19,108.90 333.72,108.90 335.25,108.90 336.77,108.90 338.30,108.90 339.83,108.90 341.35,108.90 342.88,108.90 344.40,108.88 345.93,108.76 347.46,108.74 348.98,108.74 350.51,108.74 352.03,108.74 353.56,108.65 355.09,108.65 356.61,108.33 358.14,108.03 359.67,108.03 361.19,108.03 362.72,108.03 364.24,108.03 365.77,107.99 367.30,107.99 368.82,107.95 370.35,107.81 371.88,107.69 373.40,107.14 374.93,107.12 376.45,106.30 377.98,105.82 379.51,105.45 381.03,104.31 382.56,104.00 384.09,103.88 385.61,103.50 387.14,102.92 388.66,102.77 390.19,102.57 391.72,102.25 393.24,101.97 394.77,101.85 396.30,101.65 397.82,101.51 399.35,101.14 400.87,100.82 402.40,100.44 403.93,99.81 405.45,99.45 406.98,97.66 408.51,96.31 410.03,95.45 411.56,94.70 413.08,93.87 414.61,93.87 416.14,93.87 417.66,93.87 419.19,93.35 420.72,93.05 422.24,92.38 423.77,91.62 425.29,90.57 426.82,88.92 428.35,87.99 429.87,86.30 431.40,85.32 432.93,84.69 434.45,83.66 435.98,82.86 437.50,81.49 439.03,79.50 440.56,78.91 442.08,78.07 443.61,77.34 445.14,77.10 446.66,76.17 448.19,76.01 449.71,74.91 451.24,73.90 452.77,73.29 454.29,72.59 455.82,71.62 457.34,71.34 458.87,71.20 460.40,71.06 461.92,70.94 463.45,70.17 464.98,69.31 466.50,67.94 468.03,67.54 469.55,66.83 471.08,65.68 472.61,63.13 474.13,61.19 475.66,59.04 477.19,58.57 478.71,57.63 480.24,55.71 481.76,54.55 483.29,53.90 484.82,52.94 486.34,52.43 487.87,51.73 489.40,51.41 490.92,50.32 492.45,48.69 493.97,47.14 495.50,46.67 497.03,45.87 498.55,44.42 500.08,43.33 501.61,41.72 503.13,40.89 504.66,39.24 506.18,37.05 507.71,35.18 509.24,31.21" />
    </svg>
  