
    <svg width="540" height="160" xmlns="http://www.w3.org/2000/svg">
      <style>.line{fill:none;stroke:#388bfd;stroke-width:1.5}.axis{stroke:#555;stroke-width:1;opacity:0.5}.label{fill:#999;font-family:sans-serif;font-size:10px;text-anchor:middle}</style>
      <line class="axis" x1="30" y1="30" x2="30" y2="130" />
      <line class="axis" x1="30" y1="130" x2="510" y2="130" />
      <text class="label" x="15" y="30">7,739</text>
      <text class="label" x="15" y="134">0</text>
      <text class="label" x="30" y="148">2021</text>
      <text class="label" x="510" y="148">2026</text>
      <polyline class="line" points="30.00,129.97 31.50,129.96 32.99,129.95 34.49,129.95 35.98,129.95 37.48,129.78 38.98,129.78 40.47,129.78 41.97,128.85 43.46,127.31 44.96,127.23 46.46,127.23 47.95,127.23 49.45,127.23 50.95,127.23 52.44,127.23 53.94,127.23 55.43,127.23 56.93,127.23 58.43,127.23 59.92,127.23 61.42,127.23 62.91,127.23 64.41,127.23 65.91,127.23 67.40,127.23 68.90,127.23 70.39,126.36 71.89,126.36 73.39,126.34 74.88,126.34 76.38,126.34 77.88,126.34 79.37,126.29 80.87,126.29 82.36,126.29 83.86,126.29 85.36,126.29 86.85,126.29 88.35,126.29 89.84,126.29 91.34,126.29 92.84,126.29 94.33,126.29 95.83,126.29 97.32,126.29 98.82,126.29 100.32,126.29 101.81,126.29 103.31,126.29 104.81,126.29 106.30,126.24 107.80,125.45 109.29,124.73 110.79,124.43 112.29,123.00 113.78,123.00 115.28,123.00 116.77,123.00 118.27,123.00 119.77,123.00 121.26,123.00 122.76,123.00 124.25,123.00 125.75,123.00 127.25,123.00 128.74,123.00 130.24,122.89 131.74,122.89 133.23,122.89 134.73,122.76 136.22,122.76 137.72,122.76 139.22,122.76 140.71,122.73 142.21,122.73 143.70,122.73 145.20,122.73 146.70,122.70 148.19,122.70 149.69,122.70 151.18,122.70 152.68,122.70 154.18,122.70 155.67,122.70 157.17,122.70 158.66,122.70 160.16,122.70 161.66,122.70 163.15,122.70 164.65,122.70 166.15,122.70 167.64,122.70 169.14,122.70 170.63,122.70 172.13,122.70 173.63,122.70 175.12,122.70 176.62,122.70 178.11,122.70 179.61,122.70 181.11,122.66 182.60,122.66 184.10,122.66 185.59,122.66 187.09,122.66 188.59,122.66 190.08,122.66 191.58,122.66 193.08,122.66 194.57,122.66 196.07,122.66 197.56,122.66 199.06,122.66 200.56,122.66 202.05,122.66 203.55,122.63 205.04,122.30 206.54,122.21 208.04,122.07 209.53,121.89 211.03,121.83 212.52,121.83 214.02,121.83 215.52,121.55 217.01,121.52 218.51,121.34 220.01,121.28 221.50,121.16 223.00,120.71 224.49,120.68 225.99,120.62 227.49,120.61 228.98,120.54 230.48,120.54 231.97,120.52 233.47,120.52 234.97,120.52 236.46,120.52 237.96,120.52 239.45,120.52 240.95,120.52 242.45,120.37 243.94,119.96 245.44,119.65 246.94,119.56 248.43,119.37 249.93,119.35 251.42,119.33 252.92,119.31 254.42,119.31 255.91,119.31 257.41,119.22 258.90,119.13 260.40,119.11 261.90,119.08 263.39,119.06 264.89,118.76 266.38,118.55 267.88,118.24 269.38,118.05 270.87,117.91 272.37,117.84 273.86,117.76 275.36,117.75 276.86,117.69 278.35,117.49 279.85,117.49 281.35,117.49 282.84,117.48 284.34,117.47 285.83,117.47 287.33,117.36 288.83,117.34 290.32,117.32 291.82,117.31 293.31,117.29 294.81,117.29 296.31,117.29 297.80,117.29 299.30,117.29 300.79,117.29 302.29,117.29 303.79,117.29 305.28,117.25 306.78,117.21 308.28,117.21 309.77,116.98 311.27,116.96 312.76,116.95 314.26,116.91 315.76,116.79 317.25,116.51 318.75,116.46 320.24,116.46 321.74,116.46 323.24,116.46 324.73,116.46 326.23,116.46 327.72,116.46 329.22,116.46 330.72,116.46 332.21,116.46 333.71,116.46 335.21,116.46 336.70,116.46 338.20,116.45 339.69,116.37 341.19,116.35 342.69,116.35 344.18,116.35 345.68,116.35 347.17,116.30 348.67,116.30 350.17,116.10 351.66,115.90 353.16,115.90 354.65,115.90 356.15,115.90 357.65,115.90 359.14,115.88 360.64,115.88 362.14,115.85 363.63,115.76 365.13,115.68 366.62,115.33 368.12,115.32 369.62,114.79 371.11,114.48 372.61,114.25 374.10,113.51 375.60,113.32 377.10,113.24 378.59,113.00 380.09,112.62 381.58,112.53 383.08,112.40 384.58,112.19 386.07,112.01 387.57,111.94 389.06,111.81 390.56,111.72 392.06,111.48 393.55,111.28 395.05,111.03 396.55,110.63 398.04,110.40 399.54,109.25 401.03,108.38 402.53,107.83 404.03,107.35 405.52,106.82 407.02,106.82 408.51,106.82 410.01,106.82 411.51,106.48 413.00,106.29 414.50,105.59 415.99,104.80 417.49,103.89 418.99,102.50 420.48,101.53 421.98,99.54 423.48,98.34 424.97,97.54 426.47,96.25 427.96,95.42 429.46,93.78 430.96,91.30 432.45,90.55 433.95,89.58 435.44,88.65 436.94,88.34 438.44,87.15 439.93,86.95 441.43,85.52 442.92,84.23 444.42,83.46 445.92,82.58 447.41,81.41 448.91,81.10 450.41,81.00 451.90,80.87 453.40,80.79 454.89,80.06 456.39,79.10 457.89,77.94 459.38,77.62 460.88,76.67 462.37,75.46 463.87,73.04 465.37,71.26 466.86,69.06 468.36,68.48 469.85,67.32 471.35,65.16 472.85,63.93 474.34,63.26 475.84,62.32 477.34,61.70 478.83,60.81 480.33,60.39 481.82,59.49 483.32,57.77 484.82,55.87 486.31,55.29 487.81,54.31 489.30,52.73 490.80,51.80 492.30,49.91 493.79,48.92 495.29,46.98 496.78,45.01 498.28,42.95 499.78,39.45 501.27,37.31 502.77,35.27 504.26,34.13 505.76,32.46 507.26,31.02 508.75,30.53" />
    </svg>
  