
    <svg width="540" height="160" xmlns="http://www.w3.org/2000/svg">
      <style>.line{fill:none;stroke:#388bfd;stroke-width:1.5}.axis{stroke:#555;stroke-width:1;opacity:0.5}.label{fill:#999;font-family:sans-serif;font-size:10px;text-anchor:middle}</style>
      <line class="axis" x1="30" y1="30" x2="30" y2="130" />
      <line class="axis" x1="30" y1="130" x2="510" y2="130" />
      <text class="label" x="15" y="30">8,513</text>
      <text class="label" x="15" y="134">0</text>
      <text class="label" x="30" y="148">2021</text>
      <text class="label" x="510" y="148">2026</text>
      <polyline class="line" points="30.00,129.98 31.47,129.96 32.94,129.95 34.41,129.95 35.88,129.95 37.35,129.80 38.83,129.80 40.30,129.80 41.77,128.95 43.24,127.56 44.71,127.49 46.18,127.49 47.65,127.49 49.12,127.49 50.59,127.49 52.06,127.49 53.53,127.49 55.01,127.49 56.48,127.49 57.95,127.49 59.42,127.49 60.89,127.49 62.36,127.49 63.83,127.49 65.30,127.49 66.77,127.49 68.24,127.49 69.71,126.69 71.18,126.69 72.66,126.68 74.13,126.68 75.60,126.68 77.07,126.68 78.54,126.63 80.01,126.63 81.48,126.63 82.95,126.63 84.42,126.63 85.89,126.63 87.36,126.63 88.84,126.63 90.31,126.63 91.78,126.63 93.25,126.63 94.72,126.63 96.19,126.63 97.66,126.63 99.13,126.63 100.60,126.63 102.07,126.63 103.54,126.63 105.02,126.58 106.49,125.87 107.96,125.21 109.43,124.94 110.90,123.63 112.37,123.63 113.84,123.63 115.31,123.63 116.78,123.63 118.25,123.63 119.72,123.63 121.20,123.63 122.67,123.63 124.14,123.63 125.61,123.63 127.08,123.63 128.55,123.54 130.02,123.54 131.49,123.54 132.96,123.42 134.43,123.42 135.90,123.42 137.37,123.42 138.85,123.39 140.32,123.39 141.79,123.39 143.26,123.39 144.73,123.36 146.20,123.36 147.67,123.36 149.14,123.36 150.61,123.36 152.08,123.36 153.55,123.36 155.03,123.36 156.50,123.36 157.97,123.36 159.44,123.36 160.91,123.36 162.38,123.36 163.85,123.36 165.32,123.36 166.79,123.36 168.26,123.36 169.73,123.36 171.21,123.36 172.68,123.36 174.15,123.36 175.62,123.36 177.09,123.36 178.56,123.33 180.03,123.33 181.50,123.33 182.97,123.33 184.44,123.33 185.91,123.33 187.39,123.33 188.86,123.33 190.33,123.33 191.80,123.33 193.27,123.33 194.74,123.33 196.21,123.33 197.68,123.33 199.15,123.33 200.62,123.30 202.09,123.00 203.56,122.92 205.04,122.79 206.51,122.62 207.98,122.58 209.45,122.58 210.92,122.58 212.39,122.32 213.86,122.29 215.33,122.13 216.80,122.07 218.27,121.97 219.74,121.55 221.22,121.53 222.69,121.47 224.16,121.46 225.63,121.40 227.10,121.40 228.57,121.38 230.04,121.38 231.51,121.38 232.98,121.38 234.45,121.38 235.92,121.38 237.40,121.38 238.87,121.25 240.34,120.87 241.81,120.59 243.28,120.51 244.75,120.33 246.22,120.32 247.69,120.30 249.16,120.29 250.63,120.29 252.10,120.29 253.58,120.20 255.05,120.12 256.52,120.10 257.99,120.07 259.46,120.05 260.93,119.78 262.40,119.59 263.87,119.31 265.34,119.13 266.81,119.01 268.28,118.95 269.75,118.88 271.23,118.86 272.70,118.81 274.17,118.63 275.64,118.63 277.11,118.63 278.58,118.62 280.05,118.61 281.52,118.61 282.99,118.51 284.46,118.49 285.93,118.48 287.41,118.46 288.88,118.44 290.35,118.44 291.82,118.44 293.29,118.44 294.76,118.44 296.23,118.44 297.70,118.44 299.17,118.44 300.64,118.41 302.11,118.37 303.59,118.37 305.06,118.16 306.53,118.15 308.00,118.14 309.47,118.10 310.94,117.99 312.41,117.74 313.88,117.69 315.35,117.69 316.82,117.69 318.29,117.69 319.77,117.69 321.24,117.69 322.71,117.69 324.18,117.69 325.65,117.69 327.12,117.69 328.59,117.69 330.06,117.69 331.53,117.69 333.00,117.68 334.47,117.61 335.94,117.60 337.42,117.60 338.89,117.60 340.36,117.60 341.83,117.55 343.30,117.55 344.77,117.36 346.24,117.18 347.71,117.18 349.18,117.18 350.65,117.18 352.12,117.18 353.60,117.16 355.07,117.16 356.54,117.14 358.01,117.06 359.48,116.98 360.95,116.67 362.42,116.66 363.89,116.17 365.36,115.89 366.83,115.68 368.30,115.01 369.78,114.83 371.25,114.76 372.72,114.54 374.19,114.20 375.66,114.12 377.13,114.00 378.60,113.81 380.07,113.65 381.54,113.58 383.01,113.46 384.48,113.38 385.96,113.17 387.43,112.98 388.90,112.76 390.37,112.39 391.84,112.18 393.31,111.13 394.78,110.35 396.25,109.84 397.72,109.41 399.19,108.93 400.66,108.93 402.13,108.93 403.61,108.93 405.08,108.62 406.55,108.44 408.02,107.81 409.49,107.09 410.96,106.26 412.43,105.00 413.90,104.12 415.37,102.31 416.84,101.22 418.31,100.49 419.79,99.32 421.26,98.57 422.73,97.07 424.20,94.82 425.67,94.14 427.14,93.26 428.61,92.41 430.08,92.13 431.55,91.05 433.02,90.86 434.49,89.57 435.97,88.39 437.44,87.69 438.91,86.89 440.38,85.83 441.85,85.55 443.32,85.46 444.79,85.34 446.26,85.27 447.73,84.60 449.20,83.73 450.67,82.67 452.15,82.38 453.62,81.52 455.09,80.42 456.56,78.22 458.03,76.60 459.50,74.60 460.97,74.07 462.44,73.02 463.91,71.05 465.38,69.94 466.85,69.33 468.32,68.47 469.80,67.91 471.27,67.10 472.74,66.72 474.21,65.90 475.68,64.34 477.15,62.61 478.62,62.08 480.09,61.11 481.56,59.32 483.03,58.40 484.50,56.18 485.98,55.13 487.45,53.20 488.92,51.32 490.39,49.05 491.86,45.65 493.33,43.39 494.80,41.45 496.27,40.21 497.74,38.60 499.21,37.15 500.68,36.45 502.16,35.27 503.63,33.85 505.10,33.30 506.57,32.26 508.04,31.36 509.51,30.48" />
    </svg>
  