
    <svg width="540" height="160" xmlns="http://www.w3.org/2000/svg">
      <style>.line{fill:none;stroke:#388bfd;stroke-width:1.5}.axis{stroke:#555;stroke-width:1;opacity:0.5}.label{fill:#999;font-family:sans-serif;font-size:10px;text-anchor:middle}</style>
      <line class="axis" x1="30" y1="30" x2="30" y2="130" />
      <line class="axis" x1="30" y1="130" x2="510" y2="130" />
      <text class="label" x="15" y="30">7,861</text>
      <text class="label" x="15" y="134">0</text>
      <text class="label" x="30" y="148">2021</text>
      <text class="label" x="510" y="148">2026</text>
      <polyline class="line" points="30.00,129.97 31.48,129.96 32.97,129.95 34.45,129.95 35.94,129.95 37.42,129.78 38.90,129.78 40.39,129.78 41.87,128.87 43.35,127.35 44.84,127.28 46.32,127.28 47.81,127.28 49.29,127.28 50.77,127.28 52.26,127.28 53.74,127.28 55.22,127.28 56.71,127.28 58.19,127.28 59.68,127.28 61.16,127.28 62.64,127.28 64.13,127.28 65.61,127.28 67.09,127.28 68.58,127.28 70.06,126.41 71.55,126.41 73.03,126.40 74.51,126.40 76.00,126.40 77.48,126.40 78.96,126.35 80.45,126.35 81.93,126.35 83.42,126.35 84.90,126.35 86.38,126.35 87.87,126.35 89.35,126.35 90.83,126.35 92.32,126.35 93.80,126.35 95.29,126.35 96.77,126.35 98.25,126.35 99.74,126.35 101.22,126.35 102.70,126.35 104.19,126.35 105.67,126.30 107.16,125.52 108.64,124.81 110.12,124.52 111.61,123.11 113.09,123.11 114.57,123.11 116.06,123.11 117.54,123.11 119.03,123.11 120.51,123.11 121.99,123.11 123.48,123.11 124.96,123.11 126.45,123.11 127.93,123.11 129.41,123.00 130.90,123.00 132.38,123.00 133.86,122.88 135.35,122.88 136.83,122.88 138.32,122.88 139.80,122.84 141.28,122.84 142.77,122.84 144.25,122.84 145.73,122.81 147.22,122.81 148.70,122.81 150.19,122.81 151.67,122.81 153.15,122.81 154.64,122.81 156.12,122.81 157.60,122.81 159.09,122.81 160.57,122.81 162.06,122.81 163.54,122.81 165.02,122.81 166.51,122.81 167.99,122.81 169.47,122.81 170.96,122.81 172.44,122.81 173.93,122.81 175.41,122.81 176.89,122.81 178.38,122.81 179.86,122.77 181.34,122.77 182.83,122.77 184.31,122.77 185.80,122.77 187.28,122.77 188.76,122.77 190.25,122.77 191.73,122.77 193.21,122.77 194.70,122.77 196.18,122.77 197.67,122.77 199.15,122.77 200.63,122.77 202.12,122.75 203.60,122.42 205.09,122.33 206.57,122.19 208.05,122.01 209.54,121.96 211.02,121.96 212.50,121.96 213.99,121.68 215.47,121.66 216.96,121.48 218.44,121.41 219.92,121.30 221.41,120.85 222.89,120.83 224.37,120.76 225.86,120.75 227.34,120.69 228.83,120.69 230.31,120.66 231.79,120.66 233.28,120.66 234.76,120.66 236.24,120.66 237.73,120.66 239.21,120.66 240.70,120.52 242.18,120.12 243.66,119.81 245.15,119.72 246.63,119.53 248.11,119.52 249.60,119.49 251.08,119.48 252.57,119.48 254.05,119.48 255.53,119.39 257.02,119.30 258.50,119.28 259.98,119.25 261.47,119.23 262.95,118.93 264.44,118.73 265.92,118.42 267.40,118.23 268.89,118.09 270.37,118.03 271.85,117.95 273.34,117.94 274.82,117.88 276.31,117.69 277.79,117.69 279.27,117.69 280.76,117.67 282.24,117.66 283.72,117.66 285.21,117.56 286.69,117.53 288.18,117.52 289.66,117.51 291.14,117.48 292.63,117.48 294.11,117.48 295.60,117.48 297.08,117.48 298.56,117.48 300.05,117.48 301.53,117.48 303.01,117.44 304.50,117.41 305.98,117.41 307.47,117.18 308.95,117.16 310.43,117.15 311.92,117.11 313.40,117.00 314.88,116.72 316.37,116.67 317.85,116.67 319.34,116.67 320.82,116.67 322.30,116.67 323.79,116.67 325.27,116.67 326.75,116.67 328.24,116.67 329.72,116.67 331.21,116.67 332.69,116.67 334.17,116.67 335.66,116.66 337.14,116.58 338.62,116.57 340.11,116.57 341.59,116.57 343.08,116.57 344.56,116.52 346.04,116.52 347.53,116.31 349.01,116.12 350.49,116.12 351.98,116.12 353.46,116.12 354.95,116.12 356.43,116.10 357.91,116.10 359.40,116.07 360.88,115.98 362.36,115.91 363.85,115.56 365.33,115.55 366.82,115.03 368.30,114.72 369.78,114.49 371.27,113.77 372.75,113.58 374.23,113.50 375.72,113.26 377.20,112.89 378.69,112.80 380.17,112.67 381.65,112.47 383.14,112.29 384.62,112.22 386.11,112.09 387.59,112.00 389.07,111.77 390.56,111.57 392.04,111.33 393.52,110.93 395.01,110.70 396.49,109.57 397.98,108.72 399.46,108.17 400.94,107.70 402.43,107.18 403.91,107.18 405.39,107.18 406.88,107.18 408.36,106.85 409.85,106.66 411.33,105.97 412.81,105.19 414.30,104.29 415.78,102.93 417.26,101.98 418.75,100.02 420.23,98.83 421.72,98.04 423.20,96.77 424.68,95.96 426.17,94.34 427.65,91.90 429.13,91.16 430.62,90.21 432.10,89.29 433.59,88.99 435.07,87.82 436.55,87.61 438.04,86.21 439.52,84.94 441.00,84.18 442.49,83.31 443.97,82.17 445.46,81.86 446.94,81.76 448.42,81.63 449.91,81.56 451.39,80.83 452.87,79.89 454.36,78.75 455.84,78.43 457.33,77.50 458.81,76.30 460.29,73.93 461.78,72.17 463.26,70.01 464.74,69.44 466.23,68.29 467.71,66.17 469.20,64.96 470.68,64.30 472.16,63.37 473.65,62.76 475.13,61.88 476.62,61.47 478.10,60.58 479.58,58.89 481.07,57.02 482.55,56.45 484.03,55.48 485.52,53.93 487.00,53.01 488.49,51.16 489.97,50.18 491.45,48.27 492.94,46.33 494.42,44.30 495.90,40.85 497.39,38.75 498.87,36.74 500.36,35.62 501.84,33.97 503.32,32.56 504.81,32.07 506.29,31.27 507.77,30.33 509.26,30.13" />
    </svg>
  