
    <svg width="540" height="160" xmlns="http://www.w3.org/2000/svg">
      <style>.line{fill:none;stroke:#388bfd;stroke-width:1.5}.axis{stroke:#555;stroke-width:1;opacity:0.5}.label{fill:#999;font-family:sans-serif;font-size:10px;text-anchor:middle}</style>
      <line class="axis" x1="30" y1="30" x2="30" y2="130" />
      <line class="axis" x1="30" y1="130" x2="510" y2="130" />
      <text class="label" x="15" y="30">4,969</text>
      <text class="label" x="15" y="134">0</text>
      <text class="label" x="30" y="148">2021</text>
      <text class="label" x="510" y="148">2026</text>
      <polyline class="line" points="30.00,129.96 31.53,129.94 33.05,129.92 34.58,129.92 36.10,129.92 37.63,129.66 39.16,129.66 40.68,129.66 42.21,128.21 43.74,125.81 45.26,125.69 46.79,125.69 48.31,125.69 49.84,125.69 51.37,125.69 52.89,125.69 54.42,125.69 55.95,125.69 57.47,125.69 59.00,125.69 60.52,125.69 62.05,125.69 63.58,125.69 65.10,125.69 66.63,125.69 68.16,125.69 69.68,125.69 71.21,124.32 72.73,124.32 74.26,124.30 75.79,124.30 77.31,124.30 78.84,124.30 80.37,124.22 81.89,124.22 83.42,124.22 84.94,124.22 86.47,124.22 88.00,124.22 89.52,124.22 91.05,124.22 92.58,124.22 94.10,124.22 95.63,124.22 97.15,124.22 98.68,124.22 100.21,124.22 101.73,124.22 103.26,124.22 104.79,124.22 106.31,124.22 107.84,124.14 109.36,122.92 110.89,121.79 112.42,121.33 113.94,119.09 115.47,119.09 117.00,119.09 118.52,119.09 120.05,119.09 121.57,119.09 123.10,119.09 124.63,119.09 126.15,119.09 127.68,119.09 129.21,119.09 130.73,119.09 132.26,118.93 133.78,118.93 135.31,118.93 136.84,118.73 138.36,118.73 139.89,118.73 141.41,118.73 142.94,118.67 144.47,118.67 145.99,118.67 147.52,118.67 149.05,118.63 150.57,118.63 152.10,118.63 153.62,118.63 155.15,118.63 156.68,118.63 158.20,118.63 159.73,118.63 161.26,118.63 162.78,118.63 164.31,118.63 165.83,118.63 167.36,118.63 168.89,118.63 170.41,118.63 171.94,118.63 173.47,118.63 174.99,118.63 176.52,118.63 178.04,118.63 179.57,118.63 181.10,118.63 182.62,118.63 184.15,118.57 185.68,118.57 187.20,118.57 188.73,118.57 190.25,118.57 191.78,118.57 193.31,118.57 194.83,118.57 196.36,118.57 197.89,118.57 199.41,118.57 200.94,118.57 202.46,118.57 203.99,118.57 205.52,118.57 207.04,118.53 208.57,118.01 210.10,117.86 211.62,117.64 213.15,117.36 214.67,117.28 216.20,117.28 217.73,117.28 219.25,116.84 220.78,116.80 222.31,116.52 223.83,116.42 225.36,116.23 226.88,115.53 228.41,115.49 229.94,115.39 231.46,115.37 232.99,115.27 234.52,115.27 236.04,115.23 237.57,115.23 239.09,115.23 240.62,115.23 242.15,115.23 243.67,115.23 245.20,115.23 246.72,115.01 248.25,114.36 249.78,113.88 251.30,113.74 252.83,113.44 254.36,113.42 255.88,113.38 257.41,113.36 258.93,113.36 260.46,113.36 261.99,113.22 263.51,113.08 265.04,113.03 266.57,112.99 268.09,112.95 269.62,112.49 271.14,112.17 272.67,111.69 274.20,111.38 275.72,111.16 277.25,111.06 278.78,110.94 280.30,110.92 281.83,110.82 283.35,110.52 284.88,110.52 286.41,110.52 287.93,110.50 289.46,110.48 290.99,110.48 292.51,110.32 294.04,110.28 295.56,110.26 297.09,110.24 298.62,110.20 300.14,110.20 301.67,110.20 303.20,110.20 304.72,110.20 306.25,110.20 307.77,110.20 309.30,110.20 310.83,110.14 312.35,110.08 313.88,110.08 315.41,109.71 316.93,109.69 318.46,109.67 319.98,109.61 321.51,109.43 323.04,108.99 324.56,108.91 326.09,108.91 327.62,108.91 329.14,108.91 330.67,108.91 332.19,108.91 333.72,108.91 335.25,108.91 336.77,108.91 338.30,108.91 339.83,108.91 341.35,108.91 342.88,108.91 344.40,108.89 345.93,108.77 347.46,108.75 348.98,108.75 350.51,108.75 352.03,108.75 353.56,108.67 355.09,108.67 356.61,108.35 358.14,108.04 359.67,108.04 361.19,108.04 362.72,108.04 364.24,108.04 365.77,108.00 367.30,108.00 368.82,107.96 370.35,107.82 371.88,107.70 373.40,107.16 374.93,107.14 376.45,106.31 377.98,105.83 379.51,105.47 381.03,104.32 382.56,104.02 384.09,103.90 385.61,103.52 387.14,102.93 388.66,102.79 390.19,102.59 391.72,102.27 393.24,101.99 394.77,101.87 396.30,101.66 397.82,101.52 399.35,101.16 400.87,100.84 402.40,100.46 403.93,99.83 405.45,99.47 406.98,97.68 408.51,96.33 410.03,95.47 411.56,94.72 413.08,93.90 414.61,93.90 416.14,93.90 417.66,93.90 419.19,93.37 420.72,93.07 422.24,92.41 423.77,91.64 425.29,90.60 426.82,88.95 428.35,88.02 429.87,86.33 431.40,85.34 432.93,84.72 434.45,83.69 435.98,82.89 437.50,81.52 439.03,79.53 440.56,78.94 442.08,78.10 443.61,77.37 445.14,77.13 446.66,76.21 448.19,76.05 449.71,74.94 451.24,73.93 452.77,73.33 454.29,72.62 455.82,71.66 457.34,71.38 458.87,71.24 460.40,71.09 461.92,70.97 463.45,70.21 464.98,69.34 466.50,67.98 468.03,67.57 469.55,66.87 471.08,65.72 472.61,63.17 474.13,61.23 475.66,59.08 477.19,58.62 478.71,57.67 480.24,55.76 481.76,54.59 483.29,53.95 484.82,52.98 486.34,52.48 487.87,51.78 489.40,51.45 490.92,50.37 492.45,48.74 493.97,47.19 495.50,46.72 497.03,45.92 498.55,44.47 500.08,43.38 501.61,41.77 503.13,40.95 504.66,39.30 506.18,37.10 507.71,35.23 509.24,31.27" />
    </svg>
  