
    <svg width="540" height="160" xmlns="http://www.w3.org/2000/svg">
      <style>.line{fill:none;stroke:#388bfd;stroke-width:1.5}.axis{stroke:#555;stroke-width:1;opacity:0.5}.label{fill:#999;font-family:sans-serif;font-size:10px;text-anchor:middle}</style>
      <line class="axis" x1="30" y1="30" x2="30" y2="130" />
      <line class="axis" x1="30" y1="130" x2="510" y2="130" />
      <text class="label" x="15" y="30">8,458</text>
      <text class="label" x="15" y="134">0</text>
      <text class="label" x="30" y="148">2021</text>
      <text class="label" x="510" y="148">2026</text>
      <polyline class="line" points="30.00,129.98 31.47,129.96 32.94,129.95 34.42,129.95 35.89,129.95 37.36,129.80 38.83,129.80 40.31,129.80 41.78,128.95 43.25,127.54 44.72,127.47 46.20,127.47 47.67,127.47 49.14,127.47 50.61,127.47 52.09,127.47 53.56,127.47 55.03,127.47 56.50,127.47 57.98,127.47 59.45,127.47 60.92,127.47 62.39,127.47 63.87,127.47 65.34,127.47 66.81,127.47 68.28,127.47 69.75,126.67 71.23,126.67 72.70,126.65 74.17,126.65 75.64,126.65 77.12,126.65 78.59,126.61 80.06,126.61 81.53,126.61 83.01,126.61 84.48,126.61 85.95,126.61 87.42,126.61 88.90,126.61 90.37,126.61 91.84,126.61 93.31,126.61 94.79,126.61 96.26,126.61 97.73,126.61 99.20,126.61 100.67,126.61 102.15,126.61 103.62,126.61 105.09,126.56 106.56,125.84 108.04,125.18 109.51,124.90 110.98,123.59 112.45,123.59 113.93,123.59 115.40,123.59 116.87,123.59 118.34,123.59 119.82,123.59 121.29,123.59 122.76,123.59 124.23,123.59 125.71,123.59 127.18,123.59 128.65,123.50 130.12,123.50 131.60,123.50 133.07,123.38 134.54,123.38 136.01,123.38 137.48,123.38 138.96,123.34 140.43,123.34 141.90,123.34 143.37,123.34 144.85,123.32 146.32,123.32 147.79,123.32 149.26,123.32 150.74,123.32 152.21,123.32 153.68,123.32 155.15,123.32 156.63,123.32 158.10,123.32 159.57,123.32 161.04,123.32 162.52,123.32 163.99,123.32 165.46,123.32 166.93,123.32 168.40,123.32 169.88,123.32 171.35,123.32 172.82,123.32 174.29,123.32 175.77,123.32 177.24,123.32 178.71,123.28 180.18,123.28 181.66,123.28 183.13,123.28 184.60,123.28 186.07,123.28 187.55,123.28 189.02,123.28 190.49,123.28 191.96,123.28 193.44,123.28 194.91,123.28 196.38,123.28 197.85,123.28 199.33,123.28 200.80,123.26 202.27,122.95 203.74,122.87 205.21,122.74 206.69,122.58 208.16,122.53 209.63,122.53 211.10,122.53 212.58,122.27 214.05,122.24 215.52,122.08 216.99,122.02 218.47,121.91 219.94,121.50 221.41,121.48 222.88,121.42 224.36,121.40 225.83,121.35 227.30,121.35 228.77,121.32 230.25,121.32 231.72,121.32 233.19,121.32 234.66,121.32 236.13,121.32 237.61,121.32 239.08,121.19 240.55,120.81 242.02,120.53 243.50,120.45 244.97,120.27 246.44,120.26 247.91,120.23 249.39,120.22 250.86,120.22 252.33,120.22 253.80,120.14 255.28,120.06 256.75,120.03 258.22,120.01 259.69,119.99 261.17,119.71 262.64,119.52 264.11,119.24 265.58,119.06 267.06,118.93 268.53,118.87 270.00,118.80 271.47,118.79 272.94,118.73 274.42,118.56 275.89,118.56 277.36,118.56 278.83,118.54 280.31,118.53 281.78,118.53 283.25,118.44 284.72,118.41 286.20,118.40 287.67,118.39 289.14,118.37 290.61,118.37 292.09,118.37 293.56,118.37 295.03,118.37 296.50,118.37 297.98,118.37 299.45,118.37 300.92,118.33 302.39,118.30 303.87,118.30 305.34,118.08 306.81,118.07 308.28,118.06 309.75,118.02 311.23,117.92 312.70,117.66 314.17,117.61 315.64,117.61 317.12,117.61 318.59,117.61 320.06,117.61 321.53,117.61 323.01,117.61 324.48,117.61 325.95,117.61 327.42,117.61 328.90,117.61 330.37,117.61 331.84,117.61 333.31,117.60 334.79,117.53 336.26,117.51 337.73,117.51 339.20,117.51 340.67,117.51 342.15,117.47 343.62,117.47 345.09,117.28 346.56,117.10 348.04,117.10 349.51,117.10 350.98,117.10 352.45,117.10 353.93,117.08 355.40,117.08 356.87,117.05 358.34,116.97 359.82,116.90 361.29,116.58 362.76,116.57 364.23,116.08 365.71,115.80 367.18,115.59 368.65,114.91 370.12,114.74 371.60,114.67 373.07,114.44 374.54,114.10 376.01,114.02 377.48,113.90 378.96,113.71 380.43,113.54 381.90,113.47 383.37,113.35 384.85,113.27 386.32,113.06 387.79,112.87 389.26,112.64 390.74,112.28 392.21,112.06 393.68,111.01 395.15,110.22 396.63,109.71 398.10,109.27 399.57,108.79 401.04,108.79 402.52,108.79 403.99,108.79 405.46,108.48 406.93,108.30 408.40,107.67 409.88,106.94 411.35,106.11 412.82,104.84 414.29,103.95 415.77,102.13 417.24,101.03 418.71,100.30 420.18,99.12 421.66,98.36 423.13,96.86 424.60,94.59 426.07,93.90 427.55,93.02 429.02,92.17 430.49,91.88 431.96,90.79 433.44,90.61 434.91,89.30 436.38,88.12 437.85,87.41 439.33,86.61 440.80,85.55 442.27,85.26 443.74,85.17 445.21,85.05 446.69,84.98 448.16,84.30 449.63,83.43 451.10,82.36 452.58,82.07 454.05,81.21 455.52,80.09 456.99,77.88 458.47,76.25 459.94,74.24 461.41,73.71 462.88,72.65 464.36,70.67 465.83,69.55 467.30,68.93 468.77,68.07 470.25,67.50 471.72,66.69 473.19,66.31 474.66,65.48 476.13,63.91 477.61,62.17 479.08,61.64 480.55,60.66 482.02,58.86 483.50,57.94 484.97,55.70 486.44,54.64 487.91,52.70 489.39,50.81 490.86,48.53 492.33,45.10 493.80,42.83 495.28,40.88 496.75,39.62 498.22,38.00 499.69,36.55 501.17,35.84 502.64,34.66 504.11,33.23 505.58,32.67 507.06,31.62 508.53,30.72 510.00,30.00" />
    </svg>
  