
    <svg width="540" height="160" xmlns="http://www.w3.org/2000/svg">
      <style>.line{fill:none;stroke:#388bfd;stroke-width:1.5}.axis{stroke:#555;stroke-width:1;opacity:0.5}.label{fill:#999;font-family:sans-serif;font-size:10px;text-anchor:middle}</style>
      <line class="axis" x1="30" y1="30" x2="30" y2="130" />
      <line class="axis" x1="30" y1="130" x2="510" y2="130" />
      <text class="label" x="15" y="30">8,438</text>
      <text class="label" x="15" y="134">0</text>
      <text class="label" x="30" y="148">2021</text>
      <text class="label" x="510" y="148">2026</text>
      <polyline class="line" points="30.00,129.98 31.47,129.96 32.95,129.95 34.42,129.95 35.90,129.95 37.37,129.80 38.84,129.80 40.32,129.80 41.79,128.95 43.27,127.53 44.74,127.46 46.21,127.46 47.69,127.46 49.16,127.46 50.63,127.46 52.11,127.46 53.58,127.46 55.06,127.46 56.53,127.46 58.00,127.46 59.48,127.46 60.95,127.46 62.43,127.46 63.90,127.46 65.37,127.46 66.85,127.46 68.32,127.46 69.80,126.66 71.27,126.66 72.74,126.65 74.22,126.65 75.69,126.65 77.16,126.65 78.64,126.60 80.11,126.60 81.59,126.60 83.06,126.60 84.53,126.60 86.01,126.60 87.48,126.60 88.96,126.60 90.43,126.60 91.90,126.60 93.38,126.60 94.85,126.60 96.33,126.60 97.80,126.60 99.27,126.60 100.75,126.60 102.22,126.60 103.69,126.60 105.17,126.55 106.64,125.83 108.12,125.16 109.59,124.89 111.06,123.58 112.54,123.58 114.01,123.58 115.49,123.58 116.96,123.58 118.43,123.58 119.91,123.58 121.38,123.58 122.86,123.58 124.33,123.58 125.80,123.58 127.28,123.58 128.75,123.48 130.23,123.48 131.70,123.48 133.17,123.36 134.65,123.36 136.12,123.36 137.59,123.36 139.07,123.33 140.54,123.33 142.02,123.33 143.49,123.33 144.96,123.30 146.44,123.30 147.91,123.30 149.39,123.30 150.86,123.30 152.33,123.30 153.81,123.30 155.28,123.30 156.76,123.30 158.23,123.30 159.70,123.30 161.18,123.30 162.65,123.30 164.12,123.30 165.60,123.30 167.07,123.30 168.55,123.30 170.02,123.30 171.49,123.30 172.97,123.30 174.44,123.30 175.92,123.30 177.39,123.30 178.86,123.27 180.34,123.27 181.81,123.27 183.29,123.27 184.76,123.27 186.23,123.27 187.71,123.27 189.18,123.27 190.66,123.27 192.13,123.27 193.60,123.27 195.08,123.27 196.55,123.27 198.02,123.27 199.50,123.27 200.97,123.24 202.45,122.94 203.92,122.85 205.39,122.72 206.87,122.56 208.34,122.51 209.82,122.51 211.29,122.51 212.76,122.25 214.24,122.23 215.71,122.06 217.19,122.00 218.66,121.89 220.13,121.48 221.61,121.46 223.08,121.40 224.55,121.38 226.03,121.32 227.50,121.32 228.98,121.30 230.45,121.30 231.92,121.30 233.40,121.30 234.87,121.30 236.35,121.30 237.82,121.30 239.29,121.17 240.77,120.79 242.24,120.51 243.72,120.42 245.19,120.25 246.66,120.23 248.14,120.21 249.61,120.20 251.08,120.20 252.56,120.20 254.03,120.12 255.51,120.03 256.98,120.01 258.45,119.99 259.93,119.96 261.40,119.69 262.88,119.50 264.35,119.22 265.82,119.04 267.30,118.91 268.77,118.85 270.25,118.78 271.72,118.77 273.19,118.71 274.67,118.53 276.14,118.53 277.62,118.53 279.09,118.52 280.56,118.50 282.04,118.50 283.51,118.41 284.98,118.39 286.46,118.37 287.93,118.36 289.41,118.34 290.88,118.34 292.35,118.34 293.83,118.34 295.30,118.34 296.78,118.34 298.25,118.34 299.72,118.34 301.20,118.30 302.67,118.27 304.15,118.27 305.62,118.05 307.09,118.04 308.57,118.03 310.04,117.99 311.51,117.89 312.99,117.63 314.46,117.58 315.94,117.58 317.41,117.58 318.88,117.58 320.36,117.58 321.83,117.58 323.31,117.58 324.78,117.58 326.25,117.58 327.73,117.58 329.20,117.58 330.68,117.58 332.15,117.58 333.62,117.57 335.10,117.50 336.57,117.49 338.05,117.49 339.52,117.49 340.99,117.49 342.47,117.44 343.94,117.44 345.41,117.25 346.89,117.07 348.36,117.07 349.84,117.07 351.31,117.07 352.78,117.07 354.26,117.05 355.73,117.05 357.21,117.02 358.68,116.94 360.15,116.87 361.63,116.55 363.10,116.54 364.58,116.05 366.05,115.77 367.52,115.55 369.00,114.88 370.47,114.70 371.94,114.63 373.42,114.40 374.89,114.06 376.37,113.98 377.84,113.86 379.31,113.67 380.79,113.50 382.26,113.43 383.74,113.31 385.21,113.23 386.68,113.02 388.16,112.83 389.63,112.60 391.11,112.24 392.58,112.02 394.05,110.97 395.53,110.17 397.00,109.66 398.47,109.22 399.95,108.74 401.42,108.74 402.90,108.74 404.37,108.74 405.84,108.43 407.32,108.25 408.79,107.61 410.27,106.89 411.74,106.05 413.21,104.78 414.69,103.89 416.16,102.07 417.64,100.96 419.11,100.23 420.58,99.04 422.06,98.29 423.53,96.78 425.01,94.51 426.48,93.82 427.95,92.93 429.43,92.08 430.90,91.79 432.37,90.70 433.85,90.51 435.32,89.21 436.80,88.02 438.27,87.31 439.74,86.51 441.22,85.44 442.69,85.16 444.17,85.06 445.64,84.94 447.11,84.87 448.59,84.20 450.06,83.32 451.54,82.25 453.01,81.96 454.48,81.09 455.96,79.98 457.43,77.76 458.90,76.12 460.38,74.11 461.85,73.58 463.33,72.51 464.80,70.53 466.27,69.41 467.75,68.79 469.22,67.92 470.70,67.35 472.17,66.54 473.64,66.16 475.12,65.33 476.59,63.75 478.07,62.01 479.54,61.48 481.01,60.49 482.49,58.69 483.96,57.77 485.44,55.53 486.91,54.46 488.38,52.52 489.86,50.62 491.33,48.33 492.80,44.90 494.28,42.62 495.75,40.67 497.23,39.41 498.70,37.79 500.17,36.33 501.65,35.62 503.12,34.43 504.60,33.00 506.07,32.44 507.54,31.39 509.02,30.49" />
    </svg>
  