
    <svg width="540" height="160" xmlns="http://www.w3.org/2000/svg">
      <style>.line{fill:none;stroke:#388bfd;stroke-width:1.5}.axis{stroke:#555;stroke-width:1;opacity:0.5}.label{fill:#999;font-family:sans-serif;font-size:10px;text-anchor:middle}</style>
      <line class="axis" x1="30" y1="30" x2="30" y2="130" />
      <line class="axis" x1="30" y1="130" x2="510" y2="130" />
      <text class="label" x="15" y="30">8,461</text>
      <text class="label" x="15" y="134">0</text>
      <text class="label" x="30" y="148">2021</text>
      <text class="label" x="510" y="148">2026</text>
      <polyline class="line" points="30.00,129.98 31.47,129.96 32.94,129.95 34.42,129.95 35.89,129.95 37.36,129.80 38.83,129.80 40.31,129.80 41.78,128.95 43.25,127.54 44.72,127.47 46.20,127.47 47.67,127.47 49.14,127.47 50.61,127.47 52.09,127.47 53.56,127.47 55.03,127.47 56.50,127.47 57.98,127.47 59.45,127.47 60.92,127.47 62.39,127.47 63.87,127.47 65.34,127.47 66.81,127.47 68.28,127.47 69.75,126.67 71.23,126.67 72.70,126.66 74.17,126.66 75.64,126.66 77.12,126.66 78.59,126.61 80.06,126.61 81.53,126.61 83.01,126.61 84.48,126.61 85.95,126.61 87.42,126.61 88.90,126.61 90.37,126.61 91.84,126.61 93.31,126.61 94.79,126.61 96.26,126.61 97.73,126.61 99.20,126.61 100.67,126.61 102.15,126.61 103.62,126.61 105.09,126.56 106.56,125.84 108.04,125.18 109.51,124.91 110.98,123.59 112.45,123.59 113.93,123.59 115.40,123.59 116.87,123.59 118.34,123.59 119.82,123.59 121.29,123.59 122.76,123.59 124.23,123.59 125.71,123.59 127.18,123.59 128.65,123.50 130.12,123.50 131.60,123.50 133.07,123.38 134.54,123.38 136.01,123.38 137.48,123.38 138.96,123.35 140.43,123.35 141.90,123.35 143.37,123.35 144.85,123.32 146.32,123.32 147.79,123.32 149.26,123.32 150.74,123.32 152.21,123.32 153.68,123.32 155.15,123.32 156.63,123.32 158.10,123.32 159.57,123.32 161.04,123.32 162.52,123.32 163.99,123.32 165.46,123.32 166.93,123.32 168.40,123.32 169.88,123.32 171.35,123.32 172.82,123.32 174.29,123.32 175.77,123.32 177.24,123.32 178.71,123.29 180.18,123.29 181.66,123.29 183.13,123.29 184.60,123.29 186.07,123.29 187.55,123.29 189.02,123.29 190.49,123.29 191.96,123.29 193.44,123.29 194.91,123.29 196.38,123.29 197.85,123.29 199.33,123.29 200.80,123.26 202.27,122.96 203.74,122.87 205.21,122.74 206.69,122.58 208.16,122.53 209.63,122.53 211.10,122.53 212.58,122.27 214.05,122.25 215.52,122.08 216.99,122.02 218.47,121.92 219.94,121.50 221.41,121.48 222.88,121.42 224.36,121.41 225.83,121.35 227.30,121.35 228.77,121.32 230.25,121.32 231.72,121.32 233.19,121.32 234.66,121.32 236.13,121.32 237.61,121.32 239.08,121.19 240.55,120.82 242.02,120.53 243.50,120.45 244.97,120.27 246.44,120.26 247.91,120.24 249.39,120.23 250.86,120.23 252.33,120.23 253.80,120.14 255.28,120.06 256.75,120.04 258.22,120.01 259.69,119.99 261.17,119.72 262.64,119.53 264.11,119.24 265.58,119.07 267.06,118.94 268.53,118.88 270.00,118.81 271.47,118.80 272.94,118.74 274.42,118.56 275.89,118.56 277.36,118.56 278.83,118.55 280.31,118.54 281.78,118.54 283.25,118.44 284.72,118.42 286.20,118.41 287.67,118.39 289.14,118.37 290.61,118.37 292.09,118.37 293.56,118.37 295.03,118.37 296.50,118.37 297.98,118.37 299.45,118.37 300.92,118.33 302.39,118.30 303.87,118.30 305.34,118.09 306.81,118.07 308.28,118.06 309.75,118.03 311.23,117.92 312.70,117.66 314.17,117.61 315.64,117.61 317.12,117.61 318.59,117.61 320.06,117.61 321.53,117.61 323.01,117.61 324.48,117.61 325.95,117.61 327.42,117.61 328.90,117.61 330.37,117.61 331.84,117.61 333.31,117.60 334.79,117.53 336.26,117.52 337.73,117.52 339.20,117.52 340.67,117.52 342.15,117.47 343.62,117.47 345.09,117.28 346.56,117.11 348.04,117.11 349.51,117.11 350.98,117.11 352.45,117.11 353.93,117.08 355.40,117.08 356.87,117.06 358.34,116.98 359.82,116.90 361.29,116.59 362.76,116.57 364.23,116.09 365.71,115.81 367.18,115.59 368.65,114.92 370.12,114.74 371.60,114.67 373.07,114.45 374.54,114.10 376.01,114.02 377.48,113.90 378.96,113.71 380.43,113.55 381.90,113.48 383.37,113.36 384.85,113.28 386.32,113.06 387.79,112.87 389.26,112.65 390.74,112.28 392.21,112.07 393.68,111.02 395.15,110.23 396.63,109.72 398.10,109.28 399.57,108.80 401.04,108.80 402.52,108.80 403.99,108.80 405.46,108.49 406.93,108.31 408.40,107.67 409.88,106.95 411.35,106.11 412.82,104.85 414.29,103.96 415.77,102.14 417.24,101.04 418.71,100.31 420.18,99.13 421.66,98.37 423.13,96.87 424.60,94.60 426.07,93.92 427.55,93.03 429.02,92.18 430.49,91.90 431.96,90.81 433.44,90.62 434.91,89.32 436.38,88.14 437.85,87.43 439.33,86.62 440.80,85.56 442.27,85.28 443.74,85.18 445.21,85.06 446.69,84.99 448.16,84.32 449.63,83.45 451.10,82.38 452.58,82.09 454.05,81.22 455.52,80.11 456.99,77.90 458.47,76.27 459.94,74.26 461.41,73.73 462.88,72.67 464.36,70.69 465.83,69.57 467.30,68.96 468.77,68.09 470.25,67.53 471.72,66.71 473.19,66.33 474.66,65.50 476.13,63.93 477.61,62.19 479.08,61.66 480.55,60.68 482.02,58.89 483.50,57.96 484.97,55.73 486.44,54.67 487.91,52.73 489.39,50.84 490.86,48.56 492.33,45.13 493.80,42.86 495.28,40.91 496.75,39.66 498.22,38.04 499.69,36.58 501.17,35.87 502.64,34.69 504.11,33.26 505.58,32.71 507.06,31.65 508.53,30.76 510.00,30.00" />
    </svg>
  