
    <svg width="540" height="160" xmlns="http://www.w3.org/2000/svg">
      <style>.line{fill:none;stroke:#388bfd;stroke-width:1.5}.axis{stroke:#555;stroke-width:1;opacity:0.5}.label{fill:#999;font-family:sans-serif;font-size:10px;text-anchor:middle}</style>
      <line class="axis" x1="30" y1="30" x2="30" y2="130" />
      <line class="axis" x1="30" y1="130" x2="510" y2="130" />
      <text class="label" x="15" y="30">7,845</text>
      <text class="label" x="15" y="134">0</text>
      <text class="label" x="30" y="148">2021</text>
      <text class="label" x="510" y="148">2026</text>
      <polyline class="line" points="30.00,129.97 31.48,129.96 32.97,129.95 34.45,129.95 35.94,129.95 37.42,129.78 38.90,129.78 40.39,129.78 41.87,128.87 43.35,127.35 44.84,127.27 46.32,127.27 47.81,127.27 49.29,127.27 50.77,127.27 52.26,127.27 53.74,127.27 55.22,127.27 56.71,127.27 58.19,127.27 59.68,127.27 61.16,127.27 62.64,127.27 64.13,127.27 65.61,127.27 67.09,127.27 68.58,127.27 70.06,126.41 71.55,126.41 73.03,126.39 74.51,126.39 76.00,126.39 77.48,126.39 78.96,126.34 80.45,126.34 81.93,126.34 83.42,126.34 84.90,126.34 86.38,126.34 87.87,126.34 89.35,126.34 90.83,126.34 92.32,126.34 93.80,126.34 95.29,126.34 96.77,126.34 98.25,126.34 99.74,126.34 101.22,126.34 102.70,126.34 104.19,126.34 105.67,126.29 107.16,125.51 108.64,124.80 110.12,124.51 111.61,123.09 113.09,123.09 114.57,123.09 116.06,123.09 117.54,123.09 119.03,123.09 120.51,123.09 121.99,123.09 123.48,123.09 124.96,123.09 126.45,123.09 127.93,123.09 129.41,122.99 130.90,122.99 132.38,122.99 133.86,122.86 135.35,122.86 136.83,122.86 138.32,122.86 139.80,122.82 141.28,122.82 142.77,122.82 144.25,122.82 145.73,122.80 147.22,122.80 148.70,122.80 150.19,122.80 151.67,122.80 153.15,122.80 154.64,122.80 156.12,122.80 157.60,122.80 159.09,122.80 160.57,122.80 162.06,122.80 163.54,122.80 165.02,122.80 166.51,122.80 167.99,122.80 169.47,122.80 170.96,122.80 172.44,122.80 173.93,122.80 175.41,122.80 176.89,122.80 178.38,122.80 179.86,122.76 181.34,122.76 182.83,122.76 184.31,122.76 185.80,122.76 187.28,122.76 188.76,122.76 190.25,122.76 191.73,122.76 193.21,122.76 194.70,122.76 196.18,122.76 197.67,122.76 199.15,122.76 200.63,122.76 202.12,122.73 203.60,122.40 205.09,122.31 206.57,122.17 208.05,121.99 209.54,121.94 211.02,121.94 212.50,121.94 213.99,121.66 215.47,121.64 216.96,121.46 218.44,121.40 219.92,121.28 221.41,120.83 222.89,120.81 224.37,120.75 225.86,120.73 227.34,120.67 228.83,120.67 230.31,120.64 231.79,120.64 233.28,120.64 234.76,120.64 236.24,120.64 237.73,120.64 239.21,120.64 240.70,120.50 242.18,120.10 243.66,119.79 245.15,119.70 246.63,119.51 248.11,119.50 249.60,119.47 251.08,119.46 252.57,119.46 254.05,119.46 255.53,119.37 257.02,119.28 258.50,119.25 259.98,119.23 261.47,119.20 262.95,118.91 264.44,118.71 265.92,118.40 267.40,118.21 268.89,118.07 270.37,118.01 271.85,117.93 273.34,117.92 274.82,117.85 276.31,117.66 277.79,117.66 279.27,117.66 280.76,117.65 282.24,117.64 283.72,117.64 285.21,117.53 286.69,117.51 288.18,117.50 289.66,117.48 291.14,117.46 292.63,117.46 294.11,117.46 295.60,117.46 297.08,117.46 298.56,117.46 300.05,117.46 301.53,117.46 303.01,117.42 304.50,117.38 305.98,117.38 307.47,117.15 308.95,117.14 310.43,117.13 311.92,117.09 313.40,116.97 314.88,116.69 316.37,116.64 317.85,116.64 319.34,116.64 320.82,116.64 322.30,116.64 323.79,116.64 325.27,116.64 326.75,116.64 328.24,116.64 329.72,116.64 331.21,116.64 332.69,116.64 334.17,116.64 335.66,116.63 337.14,116.55 338.62,116.54 340.11,116.54 341.59,116.54 343.08,116.54 344.56,116.49 346.04,116.49 347.53,116.28 349.01,116.09 350.49,116.09 351.98,116.09 353.46,116.09 354.95,116.09 356.43,116.07 357.91,116.07 359.40,116.04 360.88,115.95 362.36,115.88 363.85,115.53 365.33,115.52 366.82,115.00 368.30,114.69 369.78,114.46 371.27,113.73 372.75,113.54 374.23,113.47 375.72,113.22 377.20,112.86 378.69,112.77 380.17,112.64 381.65,112.43 383.14,112.26 384.62,112.18 386.11,112.05 387.59,111.96 389.07,111.73 390.56,111.53 392.04,111.29 393.52,110.89 395.01,110.66 396.49,109.53 397.98,108.67 399.46,108.13 400.94,107.65 402.43,107.13 403.91,107.13 405.39,107.13 406.88,107.13 408.36,106.80 409.85,106.61 411.33,105.92 412.81,105.14 414.30,104.24 415.78,102.87 417.26,101.92 418.75,99.96 420.23,98.77 421.72,97.98 423.20,96.70 424.68,95.89 426.17,94.27 427.65,91.82 429.13,91.08 430.62,90.13 432.10,89.21 433.59,88.90 435.07,87.73 436.55,87.53 438.04,86.12 439.52,84.85 441.00,84.09 442.49,83.22 443.97,82.07 445.46,81.77 446.94,81.66 448.42,81.54 449.91,81.46 451.39,80.73 452.87,79.79 454.36,78.64 455.84,78.32 457.33,77.39 458.81,76.20 460.29,73.81 461.78,72.05 463.26,69.89 464.74,69.31 466.23,68.16 467.71,66.04 469.20,64.82 470.68,64.16 472.16,63.23 473.65,62.62 475.13,61.74 476.62,61.33 478.10,60.44 479.58,58.74 481.07,56.87 482.55,56.30 484.03,55.33 485.52,53.77 487.00,52.86 488.49,50.99 489.97,50.01 491.45,48.10 492.94,46.16 494.42,44.12 495.90,40.67 497.39,38.57 498.87,36.55 500.36,35.43 501.84,33.77 503.32,32.36 504.81,31.87 506.29,31.10 507.77,30.20 509.26,30.00" />
    </svg>
  