
    <svg width="540" height="160" xmlns="http://www.w3.org/2000/svg">
      <style>.line{fill:none;stroke:#388bfd;stroke-width:1.5}.axis{stroke:#555;stroke-width:1;opacity:0.5}.label{fill:#999;font-family:sans-serif;font-size:10px;text-anchor:middle}</style>
      <line class="axis" x1="30" y1="30" x2="30" y2="130" />
      <line class="axis" x1="30" y1="130" x2="510" y2="130" />
      <text class="label" x="15" y="30">9,125</text>
      <text class="label" x="15" y="134">0</text>
      <text class="label" x="30" y="148">2021</text>
      <text class="label" x="510" y="148">2026</text>
      <polyline class="line" points="30.00,129.98 31.46,129.97 32.91,129.96 34.37,129.96 35.82,129.96 37.28,129.81 38.73,129.81 40.19,129.81 41.64,129.02 43.10,127.72 44.55,127.65 46.01,127.65 47.46,127.65 48.92,127.65 50.37,127.65 51.83,127.65 53.28,127.65 54.74,127.65 56.20,127.65 57.65,127.65 59.11,127.65 60.56,127.65 62.02,127.65 63.47,127.65 64.93,127.65 66.38,127.65 67.84,127.65 69.29,126.91 70.75,126.91 72.20,126.90 73.66,126.90 75.11,126.90 76.57,126.90 78.02,126.85 79.48,126.85 80.93,126.85 82.39,126.85 83.85,126.85 85.30,126.85 86.76,126.85 88.21,126.85 89.67,126.85 91.12,126.85 92.58,126.85 94.03,126.85 95.49,126.85 96.94,126.85 98.40,126.85 99.85,126.85 101.31,126.85 102.76,126.85 104.22,126.81 105.67,126.14 107.13,125.53 108.59,125.28 110.04,124.06 111.50,124.06 112.95,124.06 114.41,124.06 115.86,124.06 117.32,124.06 118.77,124.06 120.23,124.06 121.68,124.06 123.14,124.06 124.59,124.06 126.05,124.06 127.50,123.97 128.96,123.97 130.41,123.97 131.87,123.86 133.32,123.86 134.78,123.86 136.24,123.86 137.69,123.83 139.15,123.83 140.60,123.83 142.06,123.83 143.51,123.81 144.97,123.81 146.42,123.81 147.88,123.81 149.33,123.81 150.79,123.81 152.24,123.81 153.70,123.81 155.15,123.81 156.61,123.81 158.06,123.81 159.52,123.81 160.98,123.81 162.43,123.81 163.89,123.81 165.34,123.81 166.80,123.81 168.25,123.81 169.71,123.81 171.16,123.81 172.62,123.81 174.07,123.81 175.53,123.81 176.98,123.78 178.44,123.78 179.89,123.78 181.35,123.78 182.80,123.78 184.26,123.78 185.72,123.78 187.17,123.78 188.63,123.78 190.08,123.78 191.54,123.78 192.99,123.78 194.45,123.78 195.90,123.78 197.36,123.78 198.81,123.75 200.27,123.47 201.72,123.39 203.18,123.27 204.63,123.12 206.09,123.07 207.54,123.07 209.00,123.07 210.45,122.83 211.91,122.81 213.37,122.66 214.82,122.60 216.28,122.50 217.73,122.12 219.19,122.10 220.64,122.04 222.10,122.03 223.55,121.98 225.01,121.98 226.46,121.96 227.92,121.96 229.37,121.96 230.83,121.96 232.28,121.96 233.74,121.96 235.19,121.96 236.65,121.84 238.11,121.48 239.56,121.22 241.02,121.15 242.47,120.98 243.93,120.97 245.38,120.95 246.84,120.94 248.29,120.94 249.75,120.94 251.20,120.86 252.66,120.78 254.11,120.76 255.57,120.74 257.02,120.72 258.48,120.47 259.93,120.29 261.39,120.03 262.84,119.86 264.30,119.74 265.76,119.69 267.21,119.62 268.67,119.61 270.12,119.56 271.58,119.39 273.03,119.39 274.49,119.39 275.94,119.38 277.40,119.37 278.85,119.37 280.31,119.28 281.76,119.26 283.22,119.25 284.67,119.24 286.13,119.22 287.58,119.22 289.04,119.22 290.50,119.22 291.95,119.22 293.41,119.22 294.86,119.22 296.32,119.22 297.77,119.18 299.23,119.15 300.68,119.15 302.14,118.95 303.59,118.94 305.05,118.93 306.50,118.90 307.96,118.80 309.41,118.56 310.87,118.52 312.32,118.52 313.78,118.52 315.23,118.52 316.69,118.52 318.15,118.52 319.60,118.52 321.06,118.52 322.51,118.52 323.97,118.52 325.42,118.52 326.88,118.52 328.33,118.52 329.79,118.50 331.24,118.44 332.70,118.43 334.15,118.43 335.61,118.43 337.06,118.43 338.52,118.38 339.97,118.38 341.43,118.21 342.89,118.04 344.34,118.04 345.80,118.04 347.25,118.04 348.71,118.04 350.16,118.02 351.62,118.02 353.07,118.00 354.53,117.92 355.98,117.86 357.44,117.56 358.89,117.55 360.35,117.10 361.80,116.84 363.26,116.64 364.71,116.02 366.17,115.85 367.63,115.79 369.08,115.58 370.54,115.26 371.99,115.18 373.45,115.07 374.90,114.90 376.36,114.75 377.81,114.68 379.27,114.57 380.72,114.49 382.18,114.30 383.63,114.12 385.09,113.91 386.54,113.57 388.00,113.38 389.45,112.40 390.91,111.67 392.36,111.19 393.82,110.79 395.28,110.34 396.73,110.34 398.19,110.34 399.64,110.34 401.10,110.05 402.55,109.89 404.01,109.30 405.46,108.63 406.92,107.85 408.37,106.68 409.83,105.86 411.28,104.17 412.74,103.15 414.19,102.47 415.65,101.38 417.10,100.67 418.56,99.28 420.02,97.18 421.47,96.54 422.93,95.72 424.38,94.93 425.84,94.67 427.29,93.66 428.75,93.48 430.20,92.28 431.66,91.18 433.11,90.53 434.57,89.78 436.02,88.79 437.48,88.53 438.93,88.44 440.39,88.33 441.84,88.27 443.30,87.64 444.75,86.83 446.21,85.85 447.67,85.57 449.12,84.77 450.58,83.74 452.03,81.69 453.49,80.18 454.94,78.32 456.40,77.82 457.85,76.84 459.31,75.01 460.76,73.97 462.22,73.40 463.67,72.60 465.13,72.07 466.58,71.32 468.04,70.96 469.49,70.20 470.95,68.74 472.41,67.13 473.86,66.64 475.32,65.73 476.77,64.06 478.23,63.21 479.68,61.13 481.14,60.15 482.59,58.35 484.05,56.60 485.50,54.48 486.96,51.30 488.41,49.20 489.87,47.39 491.32,46.23 492.78,44.73 494.23,43.38 495.69,42.72 497.15,41.63 498.60,40.30 500.06,39.56 501.51,38.42 502.97,37.55 504.42,36.73 505.88,35.49 507.33,33.23 508.79,31.48" />
    </svg>
  