
    <svg width="540" height="160" xmlns="http://www.w3.org/2000/svg">
      <style>.line{fill:none;stroke:#388bfd;stroke-width:1.5}.axis{stroke:#555;stroke-width:1;opacity:0.5}.label{fill:#999;font-family:sans-serif;font-size:10px;text-anchor:middle}</style>
      <line class="axis" x1="30" y1="30" x2="30" y2="130" />
      <line class="axis" x1="30" y1="130" x2="510" y2="130" />
      <text class="label" x="15" y="30">8,397</text>
      <text class="label" x="15" y="134">0</text>
      <text class="label" x="30" y="148">2021</text>
      <text class="label" x="510" y="148">2026</text>
      <polyline class="line" points="30.00,129.98 31.48,129.96 32.95,129.95 34.43,129.95 35.90,129.95 37.38,129.80 38.86,129.80 40.33,129.80 41.81,128.94 43.29,127.52 44.76,127.45 46.24,127.45 47.71,127.45 49.19,127.45 50.67,127.45 52.14,127.45 53.62,127.45 55.09,127.45 56.57,127.45 58.05,127.45 59.52,127.45 61.00,127.45 62.48,127.45 63.95,127.45 65.43,127.45 66.90,127.45 68.38,127.45 69.86,126.64 71.33,126.64 72.81,126.63 74.28,126.63 75.76,126.63 77.24,126.63 78.71,126.58 80.19,126.58 81.67,126.58 83.14,126.58 84.62,126.58 86.09,126.58 87.57,126.58 89.05,126.58 90.52,126.58 92.00,126.58 93.48,126.58 94.95,126.58 96.43,126.58 97.90,126.58 99.38,126.58 100.86,126.58 102.33,126.58 103.81,126.58 105.28,126.53 106.76,125.81 108.24,125.14 109.71,124.87 111.19,123.55 112.67,123.55 114.14,123.55 115.62,123.55 117.09,123.55 118.57,123.55 120.05,123.55 121.52,123.55 123.00,123.55 124.47,123.55 125.95,123.55 127.43,123.55 128.90,123.45 130.38,123.45 131.86,123.45 133.33,123.33 134.81,123.33 136.28,123.33 137.76,123.33 139.24,123.30 140.71,123.30 142.19,123.30 143.66,123.30 145.14,123.27 146.62,123.27 148.09,123.27 149.57,123.27 151.05,123.27 152.52,123.27 154.00,123.27 155.47,123.27 156.95,123.27 158.43,123.27 159.90,123.27 161.38,123.27 162.85,123.27 164.33,123.27 165.81,123.27 167.28,123.27 168.76,123.27 170.24,123.27 171.71,123.27 173.19,123.27 174.66,123.27 176.14,123.27 177.62,123.27 179.09,123.24 180.57,123.24 182.05,123.24 183.52,123.24 185.00,123.24 186.47,123.24 187.95,123.24 189.43,123.24 190.90,123.24 192.38,123.24 193.85,123.24 195.33,123.24 196.81,123.24 198.28,123.24 199.76,123.24 201.24,123.21 202.71,122.90 204.19,122.82 205.66,122.69 207.14,122.52 208.62,122.47 210.09,122.47 211.57,122.47 213.04,122.21 214.52,122.19 216.00,122.02 217.47,121.96 218.95,121.85 220.43,121.44 221.90,121.41 223.38,121.35 224.85,121.34 226.33,121.28 227.81,121.28 229.28,121.26 230.76,121.26 232.23,121.26 233.71,121.26 235.19,121.26 236.66,121.26 238.14,121.26 239.62,121.13 241.09,120.75 242.57,120.46 244.04,120.38 245.52,120.20 247.00,120.19 248.47,120.16 249.95,120.15 251.42,120.15 252.90,120.15 254.38,120.07 255.85,119.98 257.33,119.96 258.81,119.94 260.28,119.91 261.76,119.64 263.23,119.45 264.71,119.16 266.19,118.98 267.66,118.85 269.14,118.79 270.62,118.72 272.09,118.71 273.57,118.65 275.04,118.47 276.52,118.47 278.00,118.47 279.47,118.46 280.95,118.45 282.42,118.45 283.90,118.35 285.38,118.33 286.85,118.32 288.33,118.31 289.81,118.28 291.28,118.28 292.76,118.28 294.23,118.28 295.71,118.28 297.19,118.28 298.66,118.28 300.14,118.28 301.61,118.25 303.09,118.21 304.57,118.21 306.04,118.00 307.52,117.98 309.00,117.97 310.47,117.94 311.95,117.83 313.42,117.57 314.90,117.52 316.38,117.52 317.85,117.52 319.33,117.52 320.80,117.52 322.28,117.52 323.76,117.52 325.23,117.52 326.71,117.52 328.19,117.52 329.66,117.52 331.14,117.52 332.61,117.52 334.09,117.51 335.57,117.44 337.04,117.42 338.52,117.42 339.99,117.42 341.47,117.42 342.95,117.38 344.42,117.38 345.90,117.19 347.38,117.01 348.85,117.01 350.33,117.01 351.80,117.01 353.28,117.01 354.76,116.98 356.23,116.98 357.71,116.96 359.19,116.88 360.66,116.80 362.14,116.48 363.61,116.47 365.09,115.98 366.57,115.70 368.04,115.48 369.52,114.80 370.99,114.63 372.47,114.55 373.95,114.33 375.42,113.98 376.90,113.90 378.38,113.78 379.85,113.59 381.33,113.42 382.80,113.35 384.28,113.23 385.76,113.15 387.23,112.93 388.71,112.74 390.18,112.52 391.66,112.15 393.14,111.93 394.61,110.87 396.09,110.08 397.57,109.56 399.04,109.12 400.52,108.64 401.99,108.64 403.47,108.64 404.95,108.64 406.42,108.33 407.90,108.15 409.37,107.50 410.85,106.78 412.33,105.93 413.80,104.66 415.28,103.76 416.76,101.93 418.23,100.82 419.71,100.08 421.18,98.89 422.66,98.13 424.14,96.62 425.61,94.33 427.09,93.64 428.56,92.75 430.04,91.89 431.52,91.61 432.99,90.51 434.47,90.32 435.95,89.01 437.42,87.82 438.90,87.10 440.37,86.29 441.85,85.22 443.33,84.94 444.80,84.84 446.28,84.72 447.75,84.65 449.23,83.97 450.71,83.09 452.18,82.02 453.66,81.72 455.14,80.85 456.61,79.73 458.09,77.51 459.56,75.86 461.04,73.84 462.52,73.30 463.99,72.23 465.47,70.24 466.95,69.11 468.42,68.49 469.90,67.62 471.37,67.05 472.85,66.23 474.33,65.85 475.80,65.01 477.28,63.43 478.75,61.68 480.23,61.14 481.71,60.15 483.18,58.34 484.66,57.41 486.14,55.16 487.61,54.09 489.09,52.14 490.56,50.23 492.04,47.93 493.52,44.48 494.99,42.19 496.47,40.23 497.94,38.97 499.42,37.34 500.90,35.87 502.37,35.16 503.85,33.97 505.33,32.52 506.80,31.96 508.28,30.91 509.75,30.00" />
    </svg>
  