
    <svg width="540" height="160" xmlns="http://www.w3.org/2000/svg">
      <style>.line{fill:none;stroke:#388bfd;stroke-width:1.5}.axis{stroke:#555;stroke-width:1;opacity:0.5}.label{fill:#999;font-family:sans-serif;font-size:10px;text-anchor:middle}</style>
      <line class="axis" x1="30" y1="30" x2="30" y2="130" />
      <line class="axis" x1="30" y1="130" x2="510" y2="130" />
      <text class="label" x="15" y="30">4,976</text>
      <text class="label" x="15" y="134">0</text>
      <text class="label" x="30" y="148">2021</text>
      <text class="label" x="510" y="148">2026</text>
      <polyline class="line" points="30.00,129.96 31.53,129.94 33.05,129.92 34.58,129.92 36.10,129.92 37.63,129.66 39.15,129.66 40.68,129.66 42.20,128.21 43.73,125.82 45.25,125.70 46.78,125.70 48.31,125.70 49.83,125.70 51.36,125.70 52.88,125.70 54.41,125.70 55.93,125.70 57.46,125.70 58.98,125.70 60.51,125.70 62.03,125.70 63.56,125.70 65.08,125.70 66.61,125.70 68.14,125.70 69.66,125.70 71.19,124.33 72.71,124.33 74.24,124.31 75.76,124.31 77.29,124.31 78.81,124.31 80.34,124.23 81.86,124.23 83.39,124.23 84.92,124.23 86.44,124.23 87.97,124.23 89.49,124.23 91.02,124.23 92.54,124.23 94.07,124.23 95.59,124.23 97.12,124.23 98.64,124.23 100.17,124.23 101.69,124.23 103.22,124.23 104.75,124.23 106.27,124.23 107.80,124.15 109.32,122.93 110.85,121.80 112.37,121.34 113.90,119.11 115.42,119.11 116.95,119.11 118.47,119.11 120.00,119.11 121.53,119.11 123.05,119.11 124.58,119.11 126.10,119.11 127.63,119.11 129.15,119.11 130.68,119.11 132.20,118.95 133.73,118.95 135.25,118.95 136.78,118.75 138.31,118.75 139.83,118.75 141.36,118.75 142.88,118.69 144.41,118.69 145.93,118.69 147.46,118.69 148.98,118.65 150.51,118.65 152.03,118.65 153.56,118.65 155.08,118.65 156.61,118.65 158.14,118.65 159.66,118.65 161.19,118.65 162.71,118.65 164.24,118.65 165.76,118.65 167.29,118.65 168.81,118.65 170.34,118.65 171.86,118.65 173.39,118.65 174.92,118.65 176.44,118.65 177.97,118.65 179.49,118.65 181.02,118.65 182.54,118.65 184.07,118.59 185.59,118.59 187.12,118.59 188.64,118.59 190.17,118.59 191.69,118.59 193.22,118.59 194.75,118.59 196.27,118.59 197.80,118.59 199.32,118.59 200.85,118.59 202.37,118.59 203.90,118.59 205.42,118.59 206.95,118.55 208.47,118.02 210.00,117.88 211.53,117.66 213.05,117.38 214.58,117.30 216.10,117.30 217.63,117.30 219.15,116.86 220.68,116.82 222.20,116.54 223.73,116.43 225.25,116.25 226.78,115.55 228.31,115.51 229.83,115.41 231.36,115.39 232.88,115.29 234.41,115.29 235.93,115.25 237.46,115.25 238.98,115.25 240.51,115.25 242.03,115.25 243.56,115.25 245.08,115.25 246.61,115.03 248.14,114.39 249.66,113.90 251.19,113.76 252.71,113.46 254.24,113.44 255.76,113.40 257.29,113.38 258.81,113.38 260.34,113.38 261.86,113.24 263.39,113.10 264.92,113.06 266.44,113.02 267.97,112.98 269.49,112.52 271.02,112.19 272.54,111.71 274.07,111.41 275.59,111.19 277.12,111.09 278.64,110.97 280.17,110.95 281.69,110.85 283.22,110.55 284.75,110.55 286.27,110.55 287.80,110.53 289.32,110.51 290.85,110.51 292.37,110.35 293.90,110.31 295.42,110.29 296.95,110.27 298.47,110.23 300.00,110.23 301.53,110.23 303.05,110.23 304.58,110.23 306.10,110.23 307.63,110.23 309.15,110.23 310.68,110.16 312.20,110.10 313.73,110.10 315.25,109.74 316.78,109.72 318.31,109.70 319.83,109.64 321.36,109.46 322.88,109.02 324.41,108.94 325.93,108.94 327.46,108.94 328.98,108.94 330.51,108.94 332.03,108.94 333.56,108.94 335.08,108.94 336.61,108.94 338.14,108.94 339.66,108.94 341.19,108.94 342.71,108.94 344.24,108.92 345.76,108.80 347.29,108.78 348.81,108.78 350.34,108.78 351.86,108.78 353.39,108.70 354.92,108.70 356.44,108.38 357.97,108.07 359.49,108.07 361.02,108.07 362.54,108.07 364.07,108.07 365.59,108.03 367.12,108.03 368.64,107.99 370.17,107.85 371.69,107.73 373.22,107.19 374.75,107.17 376.27,106.35 377.80,105.86 379.32,105.50 380.85,104.36 382.37,104.06 383.90,103.93 385.42,103.55 386.95,102.97 388.47,102.83 390.00,102.63 391.53,102.31 393.05,102.03 394.58,101.91 396.10,101.70 397.63,101.56 399.15,101.20 400.68,100.88 402.20,100.50 403.73,99.88 405.25,99.51 406.78,97.73 408.31,96.38 409.83,95.51 411.36,94.77 412.88,93.95 414.41,93.95 415.93,93.95 417.46,93.95 418.98,93.42 420.51,93.12 422.03,92.46 423.56,91.70 425.08,90.65 426.61,89.00 428.14,88.08 429.66,86.39 431.19,85.41 432.71,84.78 434.24,83.76 435.76,82.95 437.29,81.59 438.81,79.60 440.34,79.02 441.86,78.17 443.39,77.45 444.92,77.21 446.44,76.28 447.97,76.12 449.49,75.02 451.02,74.01 452.54,73.41 454.07,72.70 455.59,71.74 457.12,71.46 458.64,71.32 460.17,71.18 461.69,71.06 463.22,70.29 464.75,69.43 466.27,68.06 467.80,67.66 469.32,66.96 470.85,65.81 472.37,63.26 473.90,61.33 475.42,59.18 476.95,58.72 478.47,57.77 480.00,55.86 481.53,54.70 483.05,54.06 484.58,53.09 486.10,52.59 487.63,51.89 489.15,51.56 490.68,50.48 492.20,48.85 493.73,47.30 495.25,46.84 496.78,46.04 498.31,44.59 499.83,43.50 501.36,41.90 502.88,41.07 504.41,39.43 505.93,37.23 507.46,35.37 508.98,31.41" />
    </svg>
  