
    <svg width="540" height="160" xmlns="http://www.w3.org/2000/svg">
      <style>.line{fill:none;stroke:#388bfd;stroke-width:1.5}.axis{stroke:#555;stroke-width:1;opacity:0.5}.label{fill:#999;font-family:sans-serif;font-size:10px;text-anchor:middle}</style>
      <line class="axis" x1="30" y1="30" x2="30" y2="130" />
      <line class="axis" x1="30" y1="130" x2="510" y2="130" />
      <text class="label" x="15" y="30">4,145</text>
      <text class="label" x="15" y="134">0</text>
      <text class="label" x="30" y="148">2021</text>
      <text class="label" x="510" y="148">2026</text>
      <polyline class="line" points="30.00,129.95 31.53,129.93 33.06,129.90 34.59,129.90 36.12,129.90 37.65,129.59 39.18,129.59 40.71,129.59 42.24,127.85 43.77,124.98 45.30,124.84 46.83,124.84 48.36,124.84 49.89,124.84 51.42,124.84 52.95,124.84 54.48,124.84 56.01,124.84 57.55,124.84 59.08,124.84 60.61,124.84 62.14,124.84 63.67,124.84 65.20,124.84 66.73,124.84 68.26,124.84 69.79,124.84 71.32,123.20 72.85,123.20 74.38,123.17 75.91,123.17 77.44,123.17 78.97,123.17 80.50,123.08 82.03,123.08 83.56,123.08 85.09,123.08 86.62,123.08 88.15,123.08 89.68,123.08 91.21,123.08 92.74,123.08 94.27,123.08 95.80,123.08 97.33,123.08 98.86,123.08 100.39,123.08 101.92,123.08 103.45,123.08 104.98,123.08 106.51,123.08 108.04,122.98 109.57,121.51 111.11,120.16 112.64,119.60 114.17,116.92 115.70,116.92 117.23,116.92 118.76,116.92 120.29,116.92 121.82,116.92 123.35,116.92 124.88,116.92 126.41,116.92 127.94,116.92 129.47,116.92 131.00,116.92 132.53,116.73 134.06,116.73 135.59,116.73 137.12,116.49 138.65,116.49 140.18,116.49 141.71,116.49 143.24,116.42 144.77,116.42 146.30,116.42 147.83,116.42 149.36,116.37 150.89,116.37 152.42,116.37 153.95,116.37 155.48,116.37 157.01,116.37 158.54,116.37 160.07,116.37 161.60,116.37 163.13,116.37 164.67,116.37 166.20,116.37 167.73,116.37 169.26,116.37 170.79,116.37 172.32,116.37 173.85,116.37 175.38,116.37 176.91,116.37 178.44,116.37 179.97,116.37 181.50,116.37 183.03,116.37 184.56,116.30 186.09,116.30 187.62,116.30 189.15,116.30 190.68,116.30 192.21,116.30 193.74,116.30 195.27,116.30 196.80,116.30 198.33,116.30 199.86,116.30 201.39,116.30 202.92,116.30 204.45,116.30 205.98,116.30 207.51,116.25 209.04,115.62 210.57,115.45 212.10,115.19 213.63,114.85 215.16,114.75 216.70,114.75 218.23,114.75 219.76,114.22 221.29,114.17 222.82,113.84 224.35,113.72 225.88,113.50 227.41,112.65 228.94,112.61 230.47,112.48 232.00,112.46 233.53,112.34 235.06,112.34 236.59,112.29 238.12,112.29 239.65,112.29 241.18,112.29 242.71,112.29 244.24,112.29 245.77,112.29 247.30,112.03 248.83,111.25 250.36,110.68 251.89,110.51 253.42,110.14 254.95,110.12 256.48,110.07 258.01,110.05 259.54,110.05 261.07,110.05 262.60,109.88 264.13,109.71 265.66,109.66 267.19,109.61 268.72,109.57 270.26,109.01 271.79,108.62 273.32,108.05 274.85,107.68 276.38,107.42 277.91,107.30 279.44,107.15 280.97,107.13 282.50,107.01 284.03,106.65 285.56,106.65 287.09,106.65 288.62,106.62 290.15,106.60 291.68,106.60 293.21,106.41 294.74,106.36 296.27,106.33 297.80,106.31 299.33,106.26 300.86,106.26 302.39,106.26 303.92,106.26 305.45,106.26 306.98,106.26 308.51,106.26 310.04,106.26 311.57,106.19 313.10,106.12 314.63,106.12 316.16,105.68 317.69,105.66 319.22,105.63 320.75,105.56 322.28,105.34 323.82,104.81 325.35,104.72 326.88,104.72 328.41,104.72 329.94,104.72 331.47,104.72 333.00,104.72 334.53,104.72 336.06,104.72 337.59,104.72 339.12,104.72 340.65,104.72 342.18,104.72 343.71,104.72 345.24,104.69 346.77,104.55 348.30,104.52 349.83,104.52 351.36,104.52 352.89,104.52 354.42,104.43 355.95,104.43 357.48,104.04 359.01,103.68 360.54,103.68 362.07,103.68 363.60,103.68 365.13,103.68 366.66,103.63 368.19,103.63 369.72,103.58 371.25,103.41 372.78,103.27 374.31,102.62 375.84,102.59 377.38,101.60 378.91,101.03 380.44,100.59 381.97,99.22 383.50,99.00 385.03,98.95 386.56,98.95 388.09,98.95 389.62,98.95 391.15,98.90 392.68,98.78 394.21,98.78 395.74,98.78 397.27,98.78 398.80,98.78 400.33,98.78 401.86,98.73 403.39,98.69 404.92,98.69 406.45,98.69 407.98,98.64 409.51,98.64 411.04,98.44 412.57,98.35 414.10,98.35 415.63,98.35 417.16,98.35 418.69,98.35 420.22,98.35 421.75,98.35 423.28,97.82 424.81,97.26 426.34,96.80 427.87,96.18 429.40,95.45 430.94,93.74 432.47,92.68 434.00,91.93 435.53,90.70 437.06,89.73 438.59,88.09 440.12,85.73 441.65,85.03 443.18,84.02 444.71,83.15 446.24,82.86 447.77,81.75 449.30,81.56 450.83,80.23 452.36,79.02 453.89,78.30 455.42,77.45 456.95,76.30 458.48,75.96 460.01,75.79 461.54,75.62 463.07,75.48 464.60,74.56 466.13,73.52 467.66,71.88 469.19,71.40 470.72,70.55 472.25,69.18 473.78,66.12 475.31,63.80 476.84,61.22 478.37,60.66 479.90,59.53 481.43,57.24 482.96,55.84 484.50,55.07 486.03,53.91 487.56,53.31 489.09,52.46 490.62,52.07 492.15,50.77 493.68,48.82 495.21,46.96 496.74,46.41 498.27,45.44 499.80,43.70 501.33,42.40 502.86,40.47 504.39,39.48 505.92,37.50 507.45,34.87 508.98,32.63" />
    </svg>
  