
    <svg width="540" height="160" xmlns="http://www.w3.org/2000/svg">
      <style>.line{fill:none;stroke:#388bfd;stroke-width:1.5}.axis{stroke:#555;stroke-width:1;opacity:0.5}.label{fill:#999;font-family:sans-serif;font-size:10px;text-anchor:middle}</style>
      <line class="axis" x1="30" y1="30" x2="30" y2="130" />
      <line class="axis" x1="30" y1="130" x2="510" y2="130" />
      <text class="label" x="15" y="30">9,501</text>
      <text class="label" x="15" y="134">0</text>
      <text class="label" x="30" y="148">2021</text>
      <text class="label" x="510" y="148">2026</text>
      <polyline class="line" points="30.00,129.98 31.43,129.97 32.86,129.96 34.29,129.96 35.72,129.96 37.15,129.82 38.58,129.82 40.01,129.82 41.45,129.06 42.88,127.81 44.31,127.75 45.74,127.75 47.17,127.75 48.60,127.75 50.03,127.75 51.46,127.75 52.89,127.75 54.32,127.75 55.75,127.75 57.18,127.75 58.61,127.75 60.04,127.75 61.48,127.75 62.91,127.75 64.34,127.75 65.77,127.75 67.20,127.75 68.63,127.03 70.06,127.03 71.49,127.02 72.92,127.02 74.35,127.02 75.78,127.02 77.21,126.98 78.64,126.98 80.07,126.98 81.51,126.98 82.94,126.98 84.37,126.98 85.80,126.98 87.23,126.98 88.66,126.98 90.09,126.98 91.52,126.98 92.95,126.98 94.38,126.98 95.81,126.98 97.24,126.98 98.67,126.98 100.10,126.98 101.54,126.98 102.97,126.94 104.40,126.30 105.83,125.71 107.26,125.46 108.69,124.30 110.12,124.30 111.55,124.30 112.98,124.30 114.41,124.30 115.84,124.30 117.27,124.30 118.70,124.30 120.13,124.30 121.56,124.30 123.00,124.30 124.43,124.30 125.86,124.21 127.29,124.21 128.72,124.21 130.15,124.11 131.58,124.11 133.01,124.11 134.44,124.11 135.87,124.07 137.30,124.07 138.73,124.07 140.16,124.07 141.59,124.05 143.03,124.05 144.46,124.05 145.89,124.05 147.32,124.05 148.75,124.05 150.18,124.05 151.61,124.05 153.04,124.05 154.47,124.05 155.90,124.05 157.33,124.05 158.76,124.05 160.19,124.05 161.62,124.05 163.06,124.05 164.49,124.05 165.92,124.05 167.35,124.05 168.78,124.05 170.21,124.05 171.64,124.05 173.07,124.05 174.50,124.02 175.93,124.02 177.36,124.02 178.79,124.02 180.22,124.02 181.65,124.02 183.08,124.02 184.52,124.02 185.95,124.02 187.38,124.02 188.81,124.02 190.24,124.02 191.67,124.02 193.10,124.02 194.53,124.02 195.96,124.00 197.39,123.73 198.82,123.65 200.25,123.54 201.68,123.39 203.11,123.35 204.55,123.35 205.98,123.35 207.41,123.12 208.84,123.10 210.27,122.95 211.70,122.90 213.13,122.80 214.56,122.43 215.99,122.41 217.42,122.36 218.85,122.35 220.28,122.30 221.71,122.30 223.14,122.27 224.58,122.27 226.01,122.27 227.44,122.27 228.87,122.27 230.30,122.27 231.73,122.27 233.16,122.16 234.59,121.82 236.02,121.57 237.45,121.50 238.88,121.34 240.31,121.33 241.74,121.31 243.17,121.30 244.61,121.30 246.04,121.30 247.47,121.22 248.90,121.15 250.33,121.13 251.76,121.11 253.19,121.09 254.62,120.84 256.05,120.67 257.48,120.42 258.91,120.26 260.34,120.15 261.77,120.10 263.20,120.03 264.63,120.02 266.07,119.97 267.50,119.81 268.93,119.81 270.36,119.81 271.79,119.80 273.22,119.79 274.65,119.79 276.08,119.71 277.51,119.69 278.94,119.67 280.37,119.66 281.80,119.64 283.23,119.64 284.66,119.64 286.10,119.64 287.53,119.64 288.96,119.64 290.39,119.64 291.82,119.64 293.25,119.61 294.68,119.58 296.11,119.58 297.54,119.39 298.97,119.38 300.40,119.37 301.83,119.34 303.26,119.24 304.69,119.01 306.13,118.97 307.56,118.97 308.99,118.97 310.42,118.97 311.85,118.97 313.28,118.97 314.71,118.97 316.14,118.97 317.57,118.97 319.00,118.97 320.43,118.97 321.86,118.97 323.29,118.97 324.72,118.96 326.15,118.90 327.59,118.89 329.02,118.89 330.45,118.89 331.88,118.89 333.31,118.84 334.74,118.84 336.17,118.67 337.60,118.52 339.03,118.52 340.46,118.52 341.89,118.52 343.32,118.52 344.75,118.50 346.18,118.50 347.62,118.47 349.05,118.40 350.48,118.34 351.91,118.05 353.34,118.04 354.77,117.61 356.20,117.36 357.63,117.17 359.06,116.57 360.49,116.41 361.92,116.35 363.35,116.15 364.78,115.84 366.21,115.77 367.65,115.66 369.08,115.50 370.51,115.35 371.94,115.29 373.37,115.18 374.80,115.11 376.23,114.92 377.66,114.75 379.09,114.55 380.52,114.22 381.95,114.03 383.38,113.10 384.81,112.39 386.24,111.94 387.68,111.55 389.11,111.12 390.54,111.12 391.97,111.12 393.40,111.12 394.83,110.84 396.26,110.69 397.69,110.12 399.12,109.48 400.55,108.73 401.98,107.60 403.41,106.81 404.84,105.19 406.27,104.21 407.70,103.56 409.14,102.51 410.57,101.83 412.00,100.50 413.43,98.48 414.86,97.87 416.29,97.08 417.72,96.32 419.15,96.07 420.58,95.10 422.01,94.93 423.44,93.77 424.87,92.72 426.30,92.09 427.73,91.37 429.17,90.43 430.60,90.17 432.03,90.09 433.46,89.98 434.89,89.92 436.32,89.32 437.75,88.54 439.18,87.59 440.61,87.33 442.04,86.56 443.47,85.57 444.90,83.60 446.33,82.15 447.76,80.36 449.20,79.89 450.63,78.94 452.06,77.18 453.49,76.18 454.92,75.64 456.35,74.87 457.78,74.36 459.21,73.64 460.64,73.30 462.07,72.56 463.50,71.16 464.93,69.62 466.36,69.14 467.79,68.27 469.23,66.67 470.66,65.85 472.09,63.86 473.52,62.91 474.95,61.19 476.38,59.50 477.81,57.47 479.24,54.42 480.67,52.40 482.10,50.66 483.53,49.55 484.96,48.10 486.39,46.81 487.82,46.18 489.25,45.12 490.69,43.85 492.12,43.14 493.55,42.04 494.98,41.21 496.41,40.42 497.84,39.23 499.27,37.06 500.70,35.33 502.13,33.86 503.56,32.65 504.99,32.21 506.42,31.64 507.85,31.18 509.28,30.65" />
    </svg>
  