
    <svg width="540" height="160" xmlns="http://www.w3.org/2000/svg">
      <style>.line{fill:none;stroke:#388bfd;stroke-width:1.5}.axis{stroke:#555;stroke-width:1;opacity:0.5}.label{fill:#999;font-family:sans-serif;font-size:10px;text-anchor:middle}</style>
      <line class="axis" x1="30" y1="30" x2="30" y2="130" />
      <line class="axis" x1="30" y1="130" x2="510" y2="130" />
      <text class="label" x="15" y="30">8,423</text>
      <text class="label" x="15" y="134">0</text>
      <text class="label" x="30" y="148">2021</text>
      <text class="label" x="510" y="148">2026</text>
      <polyline class="line" points="30.00,129.98 31.47,129.96 32.95,129.95 34.42,129.95 35.90,129.95 37.37,129.80 38.84,129.80 40.32,129.80 41.79,128.94 43.27,127.53 44.74,127.46 46.21,127.46 47.69,127.46 49.16,127.46 50.63,127.46 52.11,127.46 53.58,127.46 55.06,127.46 56.53,127.46 58.00,127.46 59.48,127.46 60.95,127.46 62.43,127.46 63.90,127.46 65.37,127.46 66.85,127.46 68.32,127.46 69.80,126.65 71.27,126.65 72.74,126.64 74.22,126.64 75.69,126.64 77.16,126.64 78.64,126.59 80.11,126.59 81.59,126.59 83.06,126.59 84.53,126.59 86.01,126.59 87.48,126.59 88.96,126.59 90.43,126.59 91.90,126.59 93.38,126.59 94.85,126.59 96.33,126.59 97.80,126.59 99.27,126.59 100.75,126.59 102.22,126.59 103.69,126.59 105.17,126.55 106.64,125.82 108.12,125.16 109.59,124.88 111.06,123.57 112.54,123.57 114.01,123.57 115.49,123.57 116.96,123.57 118.43,123.57 119.91,123.57 121.38,123.57 122.86,123.57 124.33,123.57 125.80,123.57 127.28,123.57 128.75,123.47 130.23,123.47 131.70,123.47 133.17,123.35 134.65,123.35 136.12,123.35 137.59,123.35 139.07,123.32 140.54,123.32 142.02,123.32 143.49,123.32 144.96,123.29 146.44,123.29 147.91,123.29 149.39,123.29 150.86,123.29 152.33,123.29 153.81,123.29 155.28,123.29 156.76,123.29 158.23,123.29 159.70,123.29 161.18,123.29 162.65,123.29 164.12,123.29 165.60,123.29 167.07,123.29 168.55,123.29 170.02,123.29 171.49,123.29 172.97,123.29 174.44,123.29 175.92,123.29 177.39,123.29 178.86,123.26 180.34,123.26 181.81,123.26 183.29,123.26 184.76,123.26 186.23,123.26 187.71,123.26 189.18,123.26 190.66,123.26 192.13,123.26 193.60,123.26 195.08,123.26 196.55,123.26 198.02,123.26 199.50,123.26 200.97,123.23 202.45,122.92 203.92,122.84 205.39,122.71 206.87,122.54 208.34,122.50 209.82,122.50 211.29,122.50 212.76,122.24 214.24,122.21 215.71,122.05 217.19,121.99 218.66,121.88 220.13,121.46 221.61,121.44 223.08,121.38 224.55,121.37 226.03,121.31 227.50,121.31 228.98,121.29 230.45,121.29 231.92,121.29 233.40,121.29 234.87,121.29 236.35,121.29 237.82,121.29 239.29,121.16 240.77,120.78 242.24,120.49 243.72,120.41 245.19,120.23 246.66,120.22 248.14,120.19 249.61,120.18 251.08,120.18 252.56,120.18 254.03,120.10 255.51,120.02 256.98,119.99 258.45,119.97 259.93,119.94 261.40,119.67 262.88,119.48 264.35,119.20 265.82,119.02 267.30,118.89 268.77,118.83 270.25,118.76 271.72,118.75 273.19,118.69 274.67,118.51 276.14,118.51 277.62,118.51 279.09,118.50 280.56,118.48 282.04,118.48 283.51,118.39 284.98,118.37 286.46,118.35 287.93,118.34 289.41,118.32 290.88,118.32 292.35,118.32 293.83,118.32 295.30,118.32 296.78,118.32 298.25,118.32 299.72,118.32 301.20,118.28 302.67,118.25 304.15,118.25 305.62,118.03 307.09,118.02 308.57,118.01 310.04,117.97 311.51,117.87 312.99,117.61 314.46,117.56 315.94,117.56 317.41,117.56 318.88,117.56 320.36,117.56 321.83,117.56 323.31,117.56 324.78,117.56 326.25,117.56 327.73,117.56 329.20,117.56 330.68,117.56 332.15,117.56 333.62,117.55 335.10,117.47 336.57,117.46 338.05,117.46 339.52,117.46 340.99,117.46 342.47,117.42 343.94,117.42 345.41,117.23 346.89,117.05 348.36,117.05 349.84,117.05 351.31,117.05 352.78,117.05 354.26,117.02 355.73,117.02 357.21,117.00 358.68,116.92 360.15,116.85 361.63,116.52 363.10,116.51 364.58,116.03 366.05,115.74 367.52,115.53 369.00,114.85 370.47,114.67 371.94,114.60 373.42,114.38 374.89,114.03 376.37,113.95 377.84,113.83 379.31,113.64 380.79,113.47 382.26,113.40 383.74,113.28 385.21,113.20 386.68,112.99 388.16,112.80 389.63,112.57 391.11,112.20 392.58,111.99 394.05,110.93 395.53,110.14 397.00,109.63 398.47,109.19 399.95,108.70 401.42,108.70 402.90,108.70 404.37,108.70 405.84,108.39 407.32,108.21 408.79,107.57 410.27,106.85 411.74,106.01 413.21,104.74 414.69,103.85 416.16,102.02 417.64,100.91 419.11,100.18 420.58,98.99 422.06,98.23 423.53,96.72 425.01,94.44 426.48,93.75 427.95,92.86 429.43,92.01 430.90,91.72 432.37,90.63 433.85,90.44 435.32,89.14 436.80,87.95 438.27,87.24 439.74,86.43 441.22,85.36 442.69,85.08 444.17,84.98 445.64,84.86 447.11,84.79 448.59,84.11 450.06,83.24 451.54,82.17 453.01,81.87 454.48,81.00 455.96,79.89 457.43,77.67 458.90,76.03 460.38,74.01 461.85,73.48 463.33,72.41 464.80,70.43 466.27,69.30 467.75,68.68 469.22,67.81 470.70,67.24 472.17,66.42 473.64,66.04 475.12,65.21 476.59,63.63 478.07,61.89 479.54,61.35 481.01,60.37 482.49,58.56 483.96,57.64 485.44,55.39 486.91,54.33 488.38,52.38 489.86,50.48 491.33,48.19 492.80,44.75 494.28,42.47 495.75,40.51 497.23,39.25 498.70,37.62 500.17,36.16 501.65,35.45 503.12,34.26 504.60,32.83 506.07,32.27 507.54,31.21 509.02,30.31" />
    </svg>
  