
    <svg width="540" height="160" xmlns="http://www.w3.org/2000/svg">
      <style>.line{fill:none;stroke:#388bfd;stroke-width:1.5}.axis{stroke:#555;stroke-width:1;opacity:0.5}.label{fill:#999;font-family:sans-serif;font-size:10px;text-anchor:middle}</style>
      <line class="axis" x1="30" y1="30" x2="30" y2="130" />
      <line class="axis" x1="30" y1="130" x2="510" y2="130" />
      <text class="label" x="15" y="30">7,450</text>
      <text class="label" x="15" y="134">0</text>
      <text class="label" x="30" y="148">2021</text>
      <text class="label" x="510" y="148">2026</text>
      <polyline class="line" points="30.00,129.97 31.50,129.96 33.01,129.95 34.51,129.95 36.02,129.95 37.52,129.77 39.02,129.77 40.53,129.77 42.03,128.81 43.54,127.21 45.04,127.13 46.54,127.13 48.05,127.13 49.55,127.13 51.05,127.13 52.56,127.13 54.06,127.13 55.57,127.13 57.07,127.13 58.57,127.13 60.08,127.13 61.58,127.13 63.09,127.13 64.59,127.13 66.09,127.13 67.60,127.13 69.10,127.13 70.61,126.21 72.11,126.21 73.61,126.20 75.12,126.20 76.62,126.20 78.13,126.20 79.63,126.15 81.13,126.15 82.64,126.15 84.14,126.15 85.64,126.15 87.15,126.15 88.65,126.15 90.16,126.15 91.66,126.15 93.16,126.15 94.67,126.15 96.17,126.15 97.68,126.15 99.18,126.15 100.68,126.15 102.19,126.15 103.69,126.15 105.20,126.15 106.70,126.09 108.20,125.28 109.71,124.52 111.21,124.21 112.72,122.72 114.22,122.72 115.72,122.72 117.23,122.72 118.73,122.72 120.23,122.72 121.74,122.72 123.24,122.72 124.75,122.72 126.25,122.72 127.75,122.72 129.26,122.72 130.76,122.62 132.27,122.62 133.77,122.62 135.27,122.48 136.78,122.48 138.28,122.48 139.79,122.48 141.29,122.44 142.79,122.44 144.30,122.44 145.80,122.44 147.31,122.42 148.81,122.42 150.31,122.42 151.82,122.42 153.32,122.42 154.83,122.42 156.33,122.42 157.83,122.42 159.34,122.42 160.84,122.42 162.34,122.42 163.85,122.42 165.35,122.42 166.86,122.42 168.36,122.42 169.86,122.42 171.37,122.42 172.87,122.42 174.38,122.42 175.88,122.42 177.38,122.42 178.89,122.42 180.39,122.42 181.90,122.38 183.40,122.38 184.90,122.38 186.41,122.38 187.91,122.38 189.42,122.38 190.92,122.38 192.42,122.38 193.93,122.38 195.43,122.38 196.93,122.38 198.44,122.38 199.94,122.38 201.45,122.38 202.95,122.38 204.45,122.35 205.96,122.00 207.46,121.91 208.97,121.76 210.47,121.57 211.97,121.52 213.48,121.52 214.98,121.52 216.49,121.22 217.99,121.19 219.49,121.01 221.00,120.94 222.50,120.82 224.01,120.35 225.51,120.32 227.01,120.26 228.52,120.24 230.02,120.17 231.52,120.17 233.03,120.15 234.53,120.15 236.04,120.15 237.54,120.15 239.04,120.15 240.55,120.15 242.05,120.15 243.56,120.00 245.06,119.57 246.56,119.25 248.07,119.15 249.57,118.95 251.08,118.94 252.58,118.91 254.08,118.90 255.59,118.90 257.09,118.90 258.60,118.81 260.10,118.71 261.60,118.68 263.11,118.66 264.61,118.63 266.11,118.32 267.62,118.11 269.12,117.79 270.63,117.58 272.13,117.44 273.63,117.37 275.14,117.29 276.64,117.28 278.15,117.21 279.65,117.01 281.15,117.01 282.66,117.01 284.16,116.99 285.67,116.98 287.17,116.98 288.67,116.87 290.18,116.85 291.68,116.83 293.19,116.82 294.69,116.79 296.19,116.79 297.70,116.79 299.20,116.79 300.70,116.79 302.21,116.79 303.71,116.79 305.22,116.79 306.72,116.75 308.22,116.71 309.73,116.71 311.23,116.47 312.74,116.46 314.24,116.44 315.74,116.40 317.25,116.28 318.75,115.99 320.26,115.93 321.76,115.93 323.26,115.93 324.77,115.93 326.27,115.93 327.78,115.93 329.28,115.93 330.78,115.93 332.29,115.93 333.79,115.93 335.30,115.93 336.80,115.93 338.30,115.93 339.81,115.92 341.31,115.84 342.81,115.83 344.32,115.83 345.82,115.83 347.33,115.83 348.83,115.77 350.33,115.77 351.84,115.56 353.34,115.36 354.85,115.36 356.35,115.36 357.85,115.36 359.36,115.36 360.86,115.33 362.37,115.33 363.87,115.30 365.37,115.21 366.88,115.13 368.38,114.77 369.89,114.75 371.39,114.20 372.89,113.88 374.40,113.64 375.90,112.87 377.40,112.67 378.91,112.59 380.41,112.34 381.92,111.95 383.42,111.85 384.92,111.72 386.43,111.50 387.93,111.32 389.44,111.23 390.94,111.10 392.44,111.01 393.95,110.77 395.45,110.55 396.96,110.30 398.46,109.88 399.96,109.64 401.47,108.44 402.97,107.54 404.48,106.97 405.98,106.47 407.48,105.92 408.99,105.92 410.49,105.92 411.99,105.92 413.50,105.57 415.00,105.37 416.51,104.64 418.01,103.83 419.51,102.87 421.02,101.44 422.52,100.43 424.03,98.36 425.53,97.11 427.03,96.28 428.54,94.94 430.04,94.08 431.55,92.38 433.05,89.80 434.55,89.02 436.06,88.01 437.56,87.05 439.07,86.72 440.57,85.49 442.07,85.28 443.58,83.80 445.08,82.46 446.58,81.65 448.09,80.74 449.59,79.53 451.10,79.21 452.60,79.10 454.10,78.97 455.61,78.89 457.11,78.12 458.62,77.13 460.12,75.92 461.62,75.58 463.13,74.60 464.63,73.34 466.14,70.83 467.64,68.98 469.14,66.70 470.65,66.09 472.15,64.89 473.66,62.64 475.16,61.37 476.66,60.67 478.17,59.69 479.67,59.05 481.17,58.12 482.68,57.69 484.18,56.75 485.69,54.97 487.19,52.99 488.69,52.39 490.20,51.46 491.70,50.23 493.21,49.34 494.71,47.96 496.21,47.10 497.72,45.28 499.22,43.34 500.73,41.64 502.23,38.26 503.73,36.16 505.24,34.13 506.74,33.01 508.25,31.36 509.75,30.00" />
    </svg>
  