
    <svg width="540" height="160" xmlns="http://www.w3.org/2000/svg">
      <style>.line{fill:none;stroke:#388bfd;stroke-width:1.5}.axis{stroke:#555;stroke-width:1;opacity:0.5}.label{fill:#999;font-family:sans-serif;font-size:10px;text-anchor:middle}</style>
      <line class="axis" x1="30" y1="30" x2="30" y2="130" />
      <line class="axis" x1="30" y1="130" x2="510" y2="130" />
      <text class="label" x="15" y="30">9,345</text>
      <text class="label" x="15" y="134">0</text>
      <text class="label" x="30" y="148">2021</text>
      <text class="label" x="510" y="148">2026</text>
      <polyline class="line" points="30.00,129.98 31.44,129.97 32.88,129.96 34.32,129.96 35.77,129.96 37.21,129.82 38.65,129.82 40.09,129.82 41.53,129.05 42.97,127.77 44.41,127.71 45.86,127.71 47.30,127.71 48.74,127.71 50.18,127.71 51.62,127.71 53.06,127.71 54.50,127.71 55.95,127.71 57.39,127.71 58.83,127.71 60.27,127.71 61.71,127.71 63.15,127.71 64.59,127.71 66.04,127.71 67.48,127.71 68.92,126.98 70.36,126.98 71.80,126.97 73.24,126.97 74.68,126.97 76.13,126.97 77.57,126.93 79.01,126.93 80.45,126.93 81.89,126.93 83.33,126.93 84.77,126.93 86.22,126.93 87.66,126.93 89.10,126.93 90.54,126.93 91.98,126.93 93.42,126.93 94.86,126.93 96.31,126.93 97.75,126.93 99.19,126.93 100.63,126.93 102.07,126.93 103.51,126.89 104.95,126.23 106.40,125.63 107.84,125.39 109.28,124.20 110.72,124.20 112.16,124.20 113.60,124.20 115.05,124.20 116.49,124.20 117.93,124.20 119.37,124.20 120.81,124.20 122.25,124.20 123.69,124.20 125.14,124.20 126.58,124.11 128.02,124.11 129.46,124.11 130.90,124.01 132.34,124.01 133.78,124.01 135.23,124.01 136.67,123.98 138.11,123.98 139.55,123.98 140.99,123.98 142.43,123.95 143.87,123.95 145.32,123.95 146.76,123.95 148.20,123.95 149.64,123.95 151.08,123.95 152.52,123.95 153.96,123.95 155.41,123.95 156.85,123.95 158.29,123.95 159.73,123.95 161.17,123.95 162.61,123.95 164.05,123.95 165.50,123.95 166.94,123.95 168.38,123.95 169.82,123.95 171.26,123.95 172.70,123.95 174.14,123.95 175.59,123.92 177.03,123.92 178.47,123.92 179.91,123.92 181.35,123.92 182.79,123.92 184.23,123.92 185.68,123.92 187.12,123.92 188.56,123.92 190.00,123.92 191.44,123.92 192.88,123.92 194.32,123.92 195.77,123.92 197.21,123.90 198.65,123.62 200.09,123.55 201.53,123.43 202.97,123.28 204.41,123.24 205.86,123.24 207.30,123.24 208.74,123.00 210.18,122.98 211.62,122.83 213.06,122.78 214.50,122.68 215.95,122.31 217.39,122.28 218.83,122.23 220.27,122.22 221.71,122.17 223.15,122.17 224.59,122.15 226.04,122.15 227.48,122.15 228.92,122.15 230.36,122.15 231.80,122.15 233.24,122.15 234.68,122.03 236.13,121.69 237.57,121.43 239.01,121.35 240.45,121.19 241.89,121.18 243.33,121.16 244.77,121.15 246.22,121.15 247.66,121.15 249.10,121.08 250.54,121.00 251.98,120.98 253.42,120.96 254.86,120.94 256.31,120.69 257.75,120.52 259.19,120.26 260.63,120.10 262.07,119.98 263.51,119.93 264.95,119.87 266.40,119.86 267.84,119.80 269.28,119.64 270.72,119.64 272.16,119.64 273.60,119.63 275.05,119.62 276.49,119.62 277.93,119.53 279.37,119.51 280.81,119.50 282.25,119.49 283.69,119.47 285.14,119.47 286.58,119.47 288.02,119.47 289.46,119.47 290.90,119.47 292.34,119.47 293.78,119.47 295.23,119.44 296.67,119.41 298.11,119.41 299.55,119.21 300.99,119.20 302.43,119.19 303.87,119.16 305.32,119.06 306.76,118.83 308.20,118.79 309.64,118.79 311.08,118.79 312.52,118.79 313.96,118.79 315.41,118.79 316.85,118.79 318.29,118.79 319.73,118.79 321.17,118.79 322.61,118.79 324.05,118.79 325.50,118.79 326.94,118.77 328.38,118.71 329.82,118.70 331.26,118.70 332.70,118.70 334.14,118.70 335.59,118.66 337.03,118.66 338.47,118.49 339.91,118.33 341.35,118.33 342.79,118.33 344.23,118.33 345.68,118.33 347.12,118.30 348.56,118.30 350.00,118.28 351.44,118.21 352.88,118.14 354.32,117.85 355.77,117.84 357.21,117.41 358.65,117.15 360.09,116.96 361.53,116.35 362.97,116.19 364.41,116.12 365.86,115.92 367.30,115.61 368.74,115.53 370.18,115.43 371.62,115.25 373.06,115.10 374.50,115.04 375.95,114.93 377.39,114.86 378.83,114.67 380.27,114.49 381.71,114.29 383.15,113.96 384.59,113.77 386.04,112.81 387.48,112.10 388.92,111.64 390.36,111.24 391.80,110.80 393.24,110.80 394.68,110.80 396.13,110.80 397.57,110.52 399.01,110.36 400.45,109.79 401.89,109.13 403.33,108.37 404.77,107.23 406.22,106.43 407.66,104.78 409.10,103.78 410.54,103.12 411.98,102.05 413.42,101.36 414.86,100.01 416.31,97.95 417.75,97.33 419.19,96.53 420.63,95.76 422.07,95.50 423.51,94.52 424.95,94.34 426.40,93.17 427.84,92.10 429.28,91.46 430.72,90.73 432.16,89.76 433.60,89.51 435.05,89.42 436.49,89.32 437.93,89.25 439.37,88.64 440.81,87.85 442.25,86.89 443.69,86.62 445.14,85.84 446.58,84.83 448.02,82.83 449.46,81.35 450.90,79.53 452.34,79.05 453.78,78.09 455.23,76.30 456.67,75.29 458.11,74.73 459.55,73.95 460.99,73.43 462.43,72.70 463.87,72.35 465.32,71.61 466.76,70.18 468.20,68.61 469.64,68.13 471.08,67.24 472.52,65.61 473.96,64.78 475.41,62.76 476.85,61.79 478.29,60.04 479.73,58.33 481.17,56.26 482.61,53.16 484.05,51.10 485.50,49.34 486.94,48.20 488.38,46.74 489.82,45.42 491.26,44.78 492.70,43.71 494.14,42.41 495.59,41.69 497.03,40.57 498.47,39.73 499.91,38.92 501.35,37.72 502.79,35.51 504.23,33.75 505.68,32.26 507.12,31.03 508.56,30.58 510.00,30.00" />
    </svg>
  