
    <svg width="540" height="160" xmlns="http://www.w3.org/2000/svg">
      <style>.line{fill:none;stroke:#388bfd;stroke-width:1.5}.axis{stroke:#555;stroke-width:1;opacity:0.5}.label{fill:#999;font-family:sans-serif;font-size:10px;text-anchor:middle}</style>
      <line class="axis" x1="30" y1="30" x2="30" y2="130" />
      <line class="axis" x1="30" y1="130" x2="510" y2="130" />
      <text class="label" x="15" y="30">7,787</text>
      <text class="label" x="15" y="134">0</text>
      <text class="label" x="30" y="148">2021</text>
      <text class="label" x="510" y="148">2026</text>
      <polyline class="line" points="30.00,129.97 31.49,129.96 32.99,129.95 34.48,129.95 35.98,129.95 37.47,129.78 38.96,129.78 40.46,129.78 41.95,128.86 43.44,127.33 44.94,127.25 46.43,127.25 47.93,127.25 49.42,127.25 50.91,127.25 52.41,127.25 53.90,127.25 55.39,127.25 56.89,127.25 58.38,127.25 59.88,127.25 61.37,127.25 62.86,127.25 64.36,127.25 65.85,127.25 67.34,127.25 68.84,127.25 70.33,126.38 71.83,126.38 73.32,126.37 74.81,126.37 76.31,126.37 77.80,126.37 79.29,126.31 80.79,126.31 82.28,126.31 83.78,126.31 85.27,126.31 86.76,126.31 88.26,126.31 89.75,126.31 91.24,126.31 92.74,126.31 94.23,126.31 95.73,126.31 97.22,126.31 98.71,126.31 100.21,126.31 101.70,126.31 103.20,126.31 104.69,126.31 106.18,126.26 107.68,125.48 109.17,124.76 110.66,124.47 112.16,123.04 113.65,123.04 115.15,123.04 116.64,123.04 118.13,123.04 119.63,123.04 121.12,123.04 122.61,123.04 124.11,123.04 125.60,123.04 127.10,123.04 128.59,123.04 130.08,122.94 131.58,122.94 133.07,122.94 134.56,122.81 136.06,122.81 137.55,122.81 139.05,122.81 140.54,122.77 142.03,122.77 143.53,122.77 145.02,122.77 146.51,122.74 148.01,122.74 149.50,122.74 151.00,122.74 152.49,122.74 153.98,122.74 155.48,122.74 156.97,122.74 158.46,122.74 159.96,122.74 161.45,122.74 162.95,122.74 164.44,122.74 165.93,122.74 167.43,122.74 168.92,122.74 170.41,122.74 171.91,122.74 173.40,122.74 174.90,122.74 176.39,122.74 177.88,122.74 179.38,122.74 180.87,122.71 182.37,122.71 183.86,122.71 185.35,122.71 186.85,122.71 188.34,122.71 189.83,122.71 191.33,122.71 192.82,122.71 194.32,122.71 195.81,122.71 197.30,122.71 198.80,122.71 200.29,122.71 201.78,122.71 203.28,122.68 204.77,122.35 206.27,122.26 207.76,122.12 209.25,121.94 210.75,121.88 212.24,121.88 213.73,121.88 215.23,121.60 216.72,121.58 218.22,121.40 219.71,121.33 221.20,121.22 222.70,120.77 224.19,120.74 225.68,120.68 227.18,120.66 228.67,120.60 230.17,120.60 231.66,120.57 233.15,120.57 234.65,120.57 236.14,120.57 237.63,120.57 239.13,120.57 240.62,120.57 242.12,120.43 243.61,120.02 245.10,119.71 246.60,119.62 248.09,119.43 249.59,119.42 251.08,119.39 252.57,119.38 254.07,119.38 255.56,119.38 257.05,119.29 258.55,119.20 260.04,119.17 261.54,119.15 263.03,119.12 264.52,118.83 266.02,118.62 267.51,118.31 269.00,118.12 270.50,117.98 271.99,117.92 273.49,117.84 274.98,117.83 276.47,117.76 277.97,117.57 279.46,117.57 280.95,117.57 282.45,117.56 283.94,117.54 285.44,117.54 286.93,117.44 288.42,117.41 289.92,117.40 291.41,117.39 292.90,117.36 294.40,117.36 295.89,117.36 297.39,117.36 298.88,117.36 300.37,117.36 301.87,117.36 303.36,117.36 304.85,117.33 306.35,117.29 307.84,117.29 309.34,117.06 310.83,117.04 312.32,117.03 313.82,116.99 315.31,116.88 316.80,116.59 318.30,116.54 319.79,116.54 321.29,116.54 322.78,116.54 324.27,116.54 325.77,116.54 327.26,116.54 328.76,116.54 330.25,116.54 331.74,116.54 333.24,116.54 334.73,116.54 336.22,116.54 337.72,116.53 339.21,116.45 340.71,116.44 342.20,116.44 343.69,116.44 345.19,116.44 346.68,116.39 348.17,116.39 349.67,116.18 351.16,115.99 352.66,115.99 354.15,115.99 355.64,115.99 357.14,115.99 358.63,115.96 360.12,115.96 361.62,115.94 363.11,115.85 364.61,115.77 366.10,115.42 367.59,115.41 369.09,114.89 370.58,114.58 372.07,114.35 373.57,113.61 375.06,113.42 376.56,113.34 378.05,113.10 379.54,112.73 381.04,112.64 382.53,112.51 384.02,112.30 385.52,112.12 387.01,112.05 388.51,111.92 390.00,111.83 391.49,111.60 392.99,111.39 394.48,111.15 395.98,110.75 397.47,110.52 398.96,109.38 400.46,108.52 401.95,107.96 403.44,107.49 404.94,106.96 406.43,106.96 407.93,106.96 409.42,106.96 410.91,106.63 412.41,106.44 413.90,105.74 415.39,104.96 416.89,104.05 418.38,102.67 419.88,101.71 421.37,99.73 422.86,98.54 424.36,97.74 425.85,96.46 427.34,95.64 428.84,94.00 430.33,91.54 431.83,90.79 433.32,89.83 434.81,88.91 436.31,88.60 437.80,87.42 439.29,87.21 440.79,85.80 442.28,84.51 443.78,83.74 445.27,82.87 446.76,81.71 448.26,81.41 449.75,81.30 451.24,81.18 452.74,81.10 454.23,80.37 455.73,79.42 457.22,78.26 458.71,77.94 460.21,77.00 461.70,75.79 463.20,73.39 464.69,71.62 466.18,69.44 467.68,68.86 469.17,67.70 470.66,65.56 472.16,64.34 473.65,63.67 475.15,62.73 476.64,62.12 478.13,61.23 479.63,60.82 481.12,59.92 482.61,58.21 484.11,56.33 485.60,55.75 487.10,54.77 488.59,53.21 490.08,52.28 491.58,50.41 493.07,49.42 494.56,47.49 496.06,45.54 497.55,43.48 499.05,40.00 500.54,37.88 502.03,35.86 503.53,34.73 505.02,33.06 506.51,31.63 508.01,31.14 509.50,30.36" />
    </svg>
  