
    <svg width="540" height="160" xmlns="http://www.w3.org/2000/svg">
      <style>.line{fill:none;stroke:#388bfd;stroke-width:1.5}.axis{stroke:#555;stroke-width:1;opacity:0.5}.label{fill:#999;font-family:sans-serif;font-size:10px;text-anchor:middle}</style>
      <line class="axis" x1="30" y1="30" x2="30" y2="130" />
      <line class="axis" x1="30" y1="130" x2="510" y2="130" />
      <text class="label" x="15" y="30">9,291</text>
      <text class="label" x="15" y="134">0</text>
      <text class="label" x="30" y="148">2021</text>
      <text class="label" x="510" y="148">2026</text>
      <polyline class="line" points="30.00,129.98 31.44,129.97 32.89,129.96 34.33,129.96 35.78,129.96 37.22,129.82 38.67,129.82 40.11,129.82 41.55,129.04 43.00,127.76 44.44,127.70 45.89,127.70 47.33,127.70 48.78,127.70 50.22,127.70 51.66,127.70 53.11,127.70 54.55,127.70 56.00,127.70 57.44,127.70 58.89,127.70 60.33,127.70 61.78,127.70 63.22,127.70 64.66,127.70 66.11,127.70 67.55,127.70 69.00,126.96 70.44,126.96 71.89,126.95 73.33,126.95 74.77,126.95 76.22,126.95 77.66,126.91 79.11,126.91 80.55,126.91 82.00,126.91 83.44,126.91 84.88,126.91 86.33,126.91 87.77,126.91 89.22,126.91 90.66,126.91 92.11,126.91 93.55,126.91 94.99,126.91 96.44,126.91 97.88,126.91 99.33,126.91 100.77,126.91 102.22,126.91 103.66,126.87 105.11,126.21 106.55,125.61 107.99,125.36 109.44,124.17 110.88,124.17 112.33,124.17 113.77,124.17 115.22,124.17 116.66,124.17 118.10,124.17 119.55,124.17 120.99,124.17 122.44,124.17 123.88,124.17 125.33,124.17 126.77,124.08 128.21,124.08 129.66,124.08 131.10,123.97 132.55,123.97 133.99,123.97 135.44,123.97 136.88,123.94 138.32,123.94 139.77,123.94 141.21,123.94 142.66,123.92 144.10,123.92 145.55,123.92 146.99,123.92 148.44,123.92 149.88,123.92 151.32,123.92 152.77,123.92 154.21,123.92 155.66,123.92 157.10,123.92 158.55,123.92 159.99,123.92 161.43,123.92 162.88,123.92 164.32,123.92 165.77,123.92 167.21,123.92 168.66,123.92 170.10,123.92 171.54,123.92 172.99,123.92 174.43,123.92 175.88,123.89 177.32,123.89 178.77,123.89 180.21,123.89 181.65,123.89 183.10,123.89 184.54,123.89 185.99,123.89 187.43,123.89 188.88,123.89 190.32,123.89 191.77,123.89 193.21,123.89 194.65,123.89 196.10,123.89 197.54,123.87 198.99,123.59 200.43,123.51 201.88,123.39 203.32,123.24 204.76,123.20 206.21,123.20 207.65,123.20 209.10,122.96 210.54,122.94 211.99,122.79 213.43,122.73 214.87,122.64 216.32,122.26 217.76,122.24 219.21,122.19 220.65,122.18 222.10,122.12 223.54,122.12 224.98,122.10 226.43,122.10 227.87,122.10 229.32,122.10 230.76,122.10 232.21,122.10 233.65,122.10 235.10,121.98 236.54,121.64 237.98,121.38 239.43,121.30 240.87,121.14 242.32,121.13 243.76,121.11 245.21,121.10 246.65,121.10 248.09,121.10 249.54,121.02 250.98,120.95 252.43,120.93 253.87,120.91 255.32,120.88 256.76,120.64 258.20,120.46 259.65,120.21 261.09,120.04 262.54,119.93 263.98,119.87 265.43,119.81 266.87,119.80 268.31,119.74 269.76,119.58 271.20,119.58 272.65,119.58 274.09,119.57 275.54,119.56 276.98,119.56 278.43,119.47 279.87,119.45 281.31,119.44 282.76,119.43 284.20,119.41 285.65,119.41 287.09,119.41 288.54,119.41 289.98,119.41 291.42,119.41 292.87,119.41 294.31,119.41 295.76,119.38 297.20,119.34 298.65,119.34 300.09,119.15 301.53,119.14 302.98,119.13 304.42,119.10 305.87,119.00 307.31,118.76 308.76,118.72 310.20,118.72 311.64,118.72 313.09,118.72 314.53,118.72 315.98,118.72 317.42,118.72 318.87,118.72 320.31,118.72 321.76,118.72 323.20,118.72 324.64,118.72 326.09,118.72 327.53,118.71 328.98,118.64 330.42,118.63 331.87,118.63 333.31,118.63 334.75,118.63 336.20,118.59 337.64,118.59 339.09,118.42 340.53,118.26 341.98,118.26 343.42,118.26 344.86,118.26 346.31,118.26 347.75,118.24 349.20,118.24 350.64,118.21 352.09,118.14 353.53,118.07 354.97,117.78 356.42,117.77 357.86,117.33 359.31,117.07 360.75,116.88 362.20,116.27 363.64,116.10 365.09,116.04 366.53,115.84 367.97,115.52 369.42,115.45 370.86,115.34 372.31,115.17 373.75,115.02 375.20,114.95 376.64,114.85 378.08,114.77 379.53,114.58 380.97,114.40 382.42,114.20 383.86,113.87 385.31,113.67 386.75,112.71 388.19,111.99 389.64,111.53 391.08,111.13 392.53,110.69 393.97,110.69 395.42,110.69 396.86,110.69 398.30,110.41 399.75,110.25 401.19,109.67 402.64,109.01 404.08,108.25 405.53,107.10 406.97,106.29 408.42,104.63 409.86,103.63 411.30,102.96 412.75,101.89 414.19,101.20 415.64,99.83 417.08,97.76 418.53,97.14 419.97,96.33 421.41,95.56 422.86,95.30 424.30,94.31 425.75,94.14 427.19,92.95 428.64,91.88 430.08,91.23 431.52,90.50 432.97,89.53 434.41,89.27 435.86,89.19 437.30,89.08 438.75,89.01 440.19,88.40 441.63,87.60 443.08,86.64 444.52,86.37 445.97,85.58 447.41,84.57 448.86,82.56 450.30,81.07 451.75,79.24 453.19,78.76 454.63,77.79 456.08,75.99 457.52,74.97 458.97,74.41 460.41,73.62 461.86,73.11 463.30,72.36 464.74,72.02 466.19,71.27 467.63,69.83 469.08,68.25 470.52,67.77 471.97,66.87 473.41,65.24 474.85,64.40 476.30,62.36 477.74,61.40 479.19,59.63 480.63,57.91 482.08,55.83 483.52,52.71 484.96,50.64 486.41,48.87 487.85,47.73 489.30,46.25 490.74,44.93 492.19,44.28 493.63,43.21 495.08,41.90 496.52,41.17 497.96,40.05 499.41,39.20 500.85,38.40 502.30,37.18 503.74,34.96 505.19,33.19 506.63,31.69 508.07,30.45 509.52,30.00" />
    </svg>
  