
    <svg width="540" height="160" xmlns="http://www.w3.org/2000/svg">
      <style>.line{fill:none;stroke:#388bfd;stroke-width:1.5}.axis{stroke:#555;stroke-width:1;opacity:0.5}.label{fill:#999;font-family:sans-serif;font-size:10px;text-anchor:middle}</style>
      <line class="axis" x1="30" y1="30" x2="30" y2="130" />
      <line class="axis" x1="30" y1="130" x2="510" y2="130" />
      <text class="label" x="15" y="30">5,215</text>
      <text class="label" x="15" y="134">0</text>
      <text class="label" x="30" y="148">2021</text>
      <text class="label" x="510" y="148">2026</text>
      <polyline class="line" points="30.00,129.96 31.51,129.94 33.03,129.92 34.54,129.92 36.05,129.92 37.56,129.67 39.08,129.67 40.59,129.67 42.10,128.29 43.61,126.01 45.13,125.90 46.64,125.90 48.15,125.90 49.66,125.90 51.18,125.90 52.69,125.90 54.20,125.90 55.71,125.90 57.23,125.90 58.74,125.90 60.25,125.90 61.76,125.90 63.28,125.90 64.79,125.90 66.30,125.90 67.82,125.90 69.33,125.90 70.84,124.59 72.35,124.59 73.87,124.57 75.38,124.57 76.89,124.57 78.40,124.57 79.92,124.50 81.43,124.50 82.94,124.50 84.45,124.50 85.97,124.50 87.48,124.50 88.99,124.50 90.50,124.50 92.02,124.50 93.53,124.50 95.04,124.50 96.55,124.50 98.07,124.50 99.58,124.50 101.09,124.50 102.61,124.50 104.12,124.50 105.63,124.50 107.14,124.42 108.66,123.25 110.17,122.18 111.68,121.74 113.19,119.61 114.71,119.61 116.22,119.61 117.73,119.61 119.24,119.61 120.76,119.61 122.27,119.61 123.78,119.61 125.29,119.61 126.81,119.61 128.32,119.61 129.83,119.61 131.34,119.45 132.86,119.45 134.37,119.45 135.88,119.26 137.39,119.26 138.91,119.26 140.42,119.26 141.93,119.20 143.45,119.20 144.96,119.20 146.47,119.20 147.98,119.17 149.50,119.17 151.01,119.17 152.52,119.17 154.03,119.17 155.55,119.17 157.06,119.17 158.57,119.17 160.08,119.17 161.60,119.17 163.11,119.17 164.62,119.17 166.13,119.17 167.65,119.17 169.16,119.17 170.67,119.17 172.18,119.17 173.70,119.17 175.21,119.17 176.72,119.17 178.24,119.17 179.75,119.17 181.26,119.17 182.77,119.11 184.29,119.11 185.80,119.11 187.31,119.11 188.82,119.11 190.34,119.11 191.85,119.11 193.36,119.11 194.87,119.11 196.39,119.11 197.90,119.11 199.41,119.11 200.92,119.11 202.44,119.11 203.95,119.11 205.46,119.07 206.97,118.57 208.49,118.44 210.00,118.23 211.51,117.96 213.03,117.88 214.54,117.88 216.05,117.88 217.56,117.46 219.08,117.42 220.59,117.15 222.10,117.06 223.61,116.88 225.13,116.21 226.64,116.17 228.15,116.08 229.66,116.06 231.18,115.96 232.69,115.96 234.20,115.93 235.71,115.93 237.23,115.93 238.74,115.93 240.25,115.93 241.76,115.93 243.28,115.93 244.79,115.71 246.30,115.10 247.82,114.64 249.33,114.51 250.84,114.22 252.35,114.20 253.87,114.16 255.38,114.14 256.89,114.14 258.40,114.14 259.92,114.01 261.43,113.87 262.94,113.84 264.45,113.80 265.97,113.76 267.48,113.32 268.99,113.01 270.50,112.55 272.02,112.26 273.53,112.05 275.04,111.96 276.55,111.84 278.07,111.82 279.58,111.73 281.09,111.44 282.61,111.44 284.12,111.44 285.63,111.42 287.14,111.40 288.66,111.40 290.17,111.25 291.68,111.21 293.19,111.19 294.71,111.17 296.22,111.13 297.73,111.13 299.24,111.13 300.76,111.13 302.27,111.13 303.78,111.13 305.29,111.13 306.81,111.13 308.32,111.07 309.83,111.02 311.34,111.02 312.86,110.67 314.37,110.65 315.88,110.63 317.39,110.58 318.91,110.40 320.42,109.98 321.93,109.90 323.45,109.90 324.96,109.90 326.47,109.90 327.98,109.90 329.50,109.90 331.01,109.90 332.52,109.90 334.03,109.90 335.55,109.90 337.06,109.90 338.57,109.90 340.08,109.90 341.60,109.88 343.11,109.77 344.62,109.75 346.13,109.75 347.65,109.75 349.16,109.75 350.67,109.67 352.18,109.67 353.70,109.37 355.21,109.08 356.72,109.08 358.24,109.08 359.75,109.08 361.26,109.08 362.77,109.04 364.29,109.04 365.80,109.00 367.31,108.87 368.82,108.75 370.34,108.24 371.85,108.22 373.36,107.43 374.87,106.97 376.39,106.63 377.90,105.53 379.41,105.24 380.92,105.13 382.44,104.77 383.95,104.21 385.46,104.07 386.97,103.88 388.49,103.58 390.00,103.31 391.51,103.19 393.03,103.00 394.54,102.87 396.05,102.52 397.56,102.21 399.08,101.85 400.59,101.26 402.10,100.91 403.61,99.20 405.13,97.92 406.64,97.09 408.15,96.39 409.66,95.60 411.18,95.60 412.69,95.60 414.20,95.60 415.71,95.10 417.23,94.81 418.74,94.18 420.25,93.45 421.76,92.45 423.28,90.88 424.79,90.00 426.30,88.39 427.82,87.45 429.33,86.86 430.84,85.88 432.35,85.11 433.87,83.81 435.38,81.91 436.89,81.35 438.40,80.55 439.92,79.86 441.43,79.63 442.94,78.74 444.45,78.59 445.97,77.54 447.48,76.58 448.99,76.00 450.50,75.33 452.02,74.41 453.53,74.14 455.04,74.01 456.55,73.87 458.07,73.76 459.58,73.03 461.09,72.21 462.61,70.90 464.12,70.52 465.63,69.85 467.14,68.75 468.66,66.32 470.17,64.48 471.68,62.43 473.19,61.98 474.71,61.08 476.22,59.26 477.73,58.15 479.24,57.54 480.76,56.62 482.27,56.14 483.78,55.47 485.29,55.16 486.81,54.12 488.32,52.57 489.83,51.09 491.34,50.65 492.86,49.88 494.37,48.50 495.88,47.47 497.39,45.93 498.91,45.15 500.42,43.58 501.93,41.49 503.45,39.70 504.96,35.93 506.47,33.26 507.98,31.42 509.50,30.12" />
    </svg>
  