
    <svg width="540" height="160" xmlns="http://www.w3.org/2000/svg">
      <style>.line{fill:none;stroke:#388bfd;stroke-width:1.5}.axis{stroke:#555;stroke-width:1;opacity:0.5}.label{fill:#999;font-family:sans-serif;font-size:10px;text-anchor:middle}</style>
      <line class="axis" x1="30" y1="30" x2="30" y2="130" />
      <line class="axis" x1="30" y1="130" x2="510" y2="130" />
      <text class="label" x="15" y="30">8,044</text>
      <text class="label" x="15" y="134">0</text>
      <text class="label" x="30" y="148">2021</text>
      <text class="label" x="510" y="148">2026</text>
      <polyline class="line" points="30.00,129.98 31.48,129.96 32.96,129.95 34.45,129.95 35.93,129.95 37.41,129.79 38.89,129.79 40.38,129.79 41.86,128.89 43.34,127.41 44.82,127.34 46.30,127.34 47.79,127.34 49.27,127.34 50.75,127.34 52.23,127.34 53.72,127.34 55.20,127.34 56.68,127.34 58.16,127.34 59.64,127.34 61.13,127.34 62.61,127.34 64.09,127.34 65.57,127.34 67.06,127.34 68.54,127.34 70.02,126.49 71.50,126.49 72.99,126.48 74.47,126.48 75.95,126.48 77.43,126.48 78.91,126.43 80.40,126.43 81.88,126.43 83.36,126.43 84.84,126.43 86.33,126.43 87.81,126.43 89.29,126.43 90.77,126.43 92.25,126.43 93.74,126.43 95.22,126.43 96.70,126.43 98.18,126.43 99.67,126.43 101.15,126.43 102.63,126.43 104.11,126.43 105.59,126.38 107.08,125.62 108.56,124.93 110.04,124.64 111.52,123.26 113.01,123.26 114.49,123.26 115.97,123.26 117.45,123.26 118.93,123.26 120.42,123.26 121.90,123.26 123.38,123.26 124.86,123.26 126.35,123.26 127.83,123.26 129.31,123.16 130.79,123.16 132.27,123.16 133.76,123.04 135.24,123.04 136.72,123.04 138.20,123.04 139.69,123.00 141.17,123.00 142.65,123.00 144.13,123.00 145.62,122.98 147.10,122.98 148.58,122.98 150.06,122.98 151.54,122.98 153.03,122.98 154.51,122.98 155.99,122.98 157.47,122.98 158.96,122.98 160.44,122.98 161.92,122.98 163.40,122.98 164.88,122.98 166.37,122.98 167.85,122.98 169.33,122.98 170.81,122.98 172.30,122.98 173.78,122.98 175.26,122.98 176.74,122.98 178.22,122.98 179.71,122.94 181.19,122.94 182.67,122.94 184.15,122.94 185.64,122.94 187.12,122.94 188.60,122.94 190.08,122.94 191.56,122.94 193.05,122.94 194.53,122.94 196.01,122.94 197.49,122.94 198.98,122.94 200.46,122.94 201.94,122.91 203.42,122.59 204.90,122.50 206.39,122.37 207.87,122.19 209.35,122.14 210.83,122.14 212.32,122.14 213.80,121.87 215.28,121.84 216.76,121.67 218.24,121.61 219.73,121.50 221.21,121.06 222.69,121.04 224.17,120.97 225.66,120.96 227.14,120.90 228.62,120.90 230.10,120.88 231.59,120.88 233.07,120.88 234.55,120.88 236.03,120.88 237.51,120.88 239.00,120.88 240.48,120.74 241.96,120.34 243.44,120.04 244.93,119.96 246.41,119.77 247.89,119.76 249.37,119.73 250.85,119.72 252.34,119.72 253.82,119.72 255.30,119.63 256.78,119.55 258.27,119.52 259.75,119.50 261.23,119.47 262.71,119.18 264.19,118.99 265.68,118.69 267.16,118.50 268.64,118.36 270.12,118.30 271.61,118.23 273.09,118.21 274.57,118.15 276.05,117.97 277.53,117.97 279.02,117.97 280.50,117.95 281.98,117.94 283.46,117.94 284.95,117.84 286.43,117.82 287.91,117.80 289.39,117.79 290.87,117.77 292.36,117.77 293.84,117.77 295.32,117.77 296.80,117.77 298.29,117.77 299.77,117.77 301.25,117.77 302.73,117.73 304.22,117.69 305.70,117.69 307.18,117.47 308.66,117.46 310.14,117.44 311.63,117.41 313.11,117.29 314.59,117.02 316.07,116.97 317.56,116.97 319.04,116.97 320.52,116.97 322.00,116.97 323.48,116.97 324.97,116.97 326.45,116.97 327.93,116.97 329.41,116.97 330.90,116.97 332.38,116.97 333.86,116.97 335.34,116.96 336.82,116.88 338.31,116.87 339.79,116.87 341.27,116.87 342.75,116.87 344.24,116.82 345.72,116.82 347.20,116.62 348.68,116.44 350.16,116.44 351.65,116.44 353.13,116.44 354.61,116.44 356.09,116.41 357.58,116.41 359.06,116.39 360.54,116.30 362.02,116.23 363.50,115.89 364.99,115.88 366.47,115.37 367.95,115.07 369.43,114.85 370.92,114.14 372.40,113.95 373.88,113.88 375.36,113.64 376.85,113.28 378.33,113.19 379.81,113.07 381.29,112.87 382.77,112.70 384.26,112.62 385.74,112.50 387.22,112.41 388.70,112.19 390.19,111.99 391.67,111.75 393.15,111.36 394.63,111.14 396.11,110.03 397.60,109.20 399.08,108.67 400.56,108.21 402.04,107.70 403.53,107.70 405.01,107.70 406.49,107.70 407.97,107.37 409.45,107.19 410.94,106.52 412.42,105.76 413.90,104.88 415.38,103.55 416.87,102.61 418.35,100.70 419.83,99.54 421.31,98.77 422.79,97.53 424.28,96.73 425.76,95.15 427.24,92.77 428.72,92.05 430.21,91.11 431.69,90.22 433.17,89.92 434.65,88.78 436.13,88.58 437.62,87.21 439.10,85.97 440.58,85.22 442.06,84.38 443.55,83.26 445.03,82.96 446.51,82.86 447.99,82.73 449.48,82.66 450.96,81.95 452.44,81.03 453.92,79.91 455.40,79.60 456.89,78.69 458.37,77.53 459.85,75.20 461.33,73.49 462.82,71.37 464.30,70.81 465.78,69.69 467.26,67.62 468.74,66.44 470.23,65.79 471.71,64.88 473.19,64.29 474.67,63.43 476.16,63.03 477.64,62.16 479.12,60.51 480.60,58.68 482.08,58.12 483.57,57.18 485.05,55.66 486.53,54.76 488.01,52.95 489.50,51.99 490.98,50.13 492.46,48.24 493.94,46.25 495.42,42.88 496.91,40.60 498.39,38.64 499.87,37.37 501.35,35.76 502.84,34.31 504.32,33.63 505.80,32.41 507.28,30.96 508.76,30.63" />
    </svg>
  