
    <svg width="540" height="160" xmlns="http://www.w3.org/2000/svg">
      <style>.line{fill:none;stroke:#388bfd;stroke-width:1.5}.axis{stroke:#555;stroke-width:1;opacity:0.5}.label{fill:#999;font-family:sans-serif;font-size:10px;text-anchor:middle}</style>
      <line class="axis" x1="30" y1="30" x2="30" y2="130" />
      <line class="axis" x1="30" y1="130" x2="510" y2="130" />
      <text class="label" x="15" y="30">9,395</text>
      <text class="label" x="15" y="134">0</text>
      <text class="label" x="30" y="148">2021</text>
      <text class="label" x="510" y="148">2026</text>
      <polyline class="line" points="30.00,129.98 31.44,129.97 32.87,129.96 34.31,129.96 35.75,129.96 37.18,129.82 38.62,129.82 40.05,129.82 41.49,129.05 42.93,127.79 44.36,127.72 45.80,127.72 47.24,127.72 48.67,127.72 50.11,127.72 51.55,127.72 52.98,127.72 54.42,127.72 55.86,127.72 57.29,127.72 58.73,127.72 60.16,127.72 61.60,127.72 63.04,127.72 64.47,127.72 65.91,127.72 67.35,127.72 68.78,127.00 70.22,127.00 71.66,126.99 73.09,126.99 74.53,126.99 75.97,126.99 77.40,126.95 78.84,126.95 80.27,126.95 81.71,126.95 83.15,126.95 84.58,126.95 86.02,126.95 87.46,126.95 88.89,126.95 90.33,126.95 91.77,126.95 93.20,126.95 94.64,126.95 96.07,126.95 97.51,126.95 98.95,126.95 100.38,126.95 101.82,126.95 103.26,126.90 104.69,126.25 106.13,125.66 107.57,125.41 109.00,124.23 110.44,124.23 111.88,124.23 113.31,124.23 114.75,124.23 116.18,124.23 117.62,124.23 119.06,124.23 120.49,124.23 121.93,124.23 123.37,124.23 124.80,124.23 126.24,124.15 127.68,124.15 129.11,124.15 130.55,124.04 131.99,124.04 133.42,124.04 134.86,124.04 136.29,124.01 137.73,124.01 139.17,124.01 140.60,124.01 142.04,123.99 143.48,123.99 144.91,123.99 146.35,123.99 147.79,123.99 149.22,123.99 150.66,123.99 152.09,123.99 153.53,123.99 154.97,123.99 156.40,123.99 157.84,123.99 159.28,123.99 160.71,123.99 162.15,123.99 163.59,123.99 165.02,123.99 166.46,123.99 167.90,123.99 169.33,123.99 170.77,123.99 172.20,123.99 173.64,123.99 175.08,123.95 176.51,123.95 177.95,123.95 179.39,123.95 180.82,123.95 182.26,123.95 183.70,123.95 185.13,123.95 186.57,123.95 188.00,123.95 189.44,123.95 190.88,123.95 192.31,123.95 193.75,123.95 195.19,123.95 196.62,123.93 198.06,123.66 199.50,123.58 200.93,123.46 202.37,123.32 203.81,123.27 205.24,123.27 206.68,123.27 208.11,123.04 209.55,123.02 210.99,122.87 212.42,122.82 213.86,122.72 215.30,122.35 216.73,122.33 218.17,122.27 219.61,122.26 221.04,122.21 222.48,122.21 223.92,122.19 225.35,122.19 226.79,122.19 228.22,122.19 229.66,122.19 231.10,122.19 232.53,122.19 233.97,122.07 235.41,121.73 236.84,121.47 238.28,121.40 239.72,121.24 241.15,121.23 242.59,121.21 244.02,121.20 245.46,121.20 246.90,121.20 248.33,121.12 249.77,121.05 251.21,121.03 252.64,121.01 254.08,120.98 255.52,120.74 256.95,120.57 258.39,120.31 259.83,120.15 261.26,120.04 262.70,119.98 264.13,119.92 265.57,119.91 267.01,119.86 268.44,119.70 269.88,119.70 271.32,119.70 272.75,119.69 274.19,119.68 275.63,119.68 277.06,119.59 278.50,119.57 279.94,119.56 281.37,119.55 282.81,119.53 284.24,119.53 285.68,119.53 287.12,119.53 288.55,119.53 289.99,119.53 291.43,119.53 292.86,119.53 294.30,119.49 295.74,119.46 297.17,119.46 298.61,119.27 300.04,119.26 301.48,119.25 302.92,119.22 304.35,119.12 305.79,118.89 307.23,118.85 308.66,118.85 310.10,118.85 311.54,118.85 312.97,118.85 314.41,118.85 315.85,118.85 317.28,118.85 318.72,118.85 320.15,118.85 321.59,118.85 323.03,118.85 324.46,118.85 325.90,118.83 327.34,118.77 328.77,118.76 330.21,118.76 331.65,118.76 333.08,118.76 334.52,118.72 335.96,118.72 337.39,118.55 338.83,118.39 340.26,118.39 341.70,118.39 343.14,118.39 344.57,118.39 346.01,118.37 347.45,118.37 348.88,118.34 350.32,118.27 351.76,118.21 353.19,117.92 354.63,117.91 356.06,117.47 357.50,117.22 358.94,117.03 360.37,116.42 361.81,116.26 363.25,116.19 364.68,115.99 366.12,115.68 367.56,115.61 368.99,115.50 370.43,115.33 371.87,115.18 373.30,115.12 374.74,115.01 376.17,114.94 377.61,114.75 379.05,114.58 380.48,114.37 381.92,114.04 383.36,113.85 384.79,112.91 386.23,112.19 387.67,111.73 389.10,111.34 390.54,110.90 391.98,110.90 393.41,110.90 394.85,110.90 396.28,110.63 397.72,110.47 399.16,109.89 400.59,109.24 402.03,108.49 403.47,107.35 404.90,106.55 406.34,104.91 407.78,103.92 409.21,103.26 410.65,102.20 412.08,101.52 413.52,100.16 414.96,98.12 416.39,97.50 417.83,96.71 419.27,95.94 420.70,95.68 422.14,94.70 423.58,94.53 425.01,93.36 426.45,92.30 427.89,91.66 429.32,90.94 430.76,89.98 432.19,89.72 433.63,89.64 435.07,89.53 436.50,89.47 437.94,88.86 439.38,88.07 440.81,87.12 442.25,86.85 443.69,86.07 445.12,85.07 446.56,83.08 448.00,81.61 449.43,79.80 450.87,79.32 452.30,78.37 453.74,76.59 455.18,75.58 456.61,75.02 458.05,74.25 459.49,73.74 460.92,73.00 462.36,72.66 463.80,71.92 465.23,70.50 466.67,68.94 468.10,68.46 469.54,67.57 470.98,65.96 472.41,65.13 473.85,63.11 475.29,62.16 476.72,60.41 478.16,58.71 479.60,56.65 481.03,53.57 482.47,51.52 483.91,49.77 485.34,48.64 486.78,47.18 488.21,45.87 489.65,45.23 491.09,44.17 492.52,42.88 493.96,42.16 495.40,41.05 496.83,40.21 498.27,39.41 499.71,38.21 501.14,36.01 502.58,34.26 504.01,32.78 505.45,31.55 506.89,31.11 508.32,30.53 509.76,30.06" />
    </svg>
  