
    <svg width="540" height="160" xmlns="http://www.w3.org/2000/svg">
      <style>.line{fill:none;stroke:#388bfd;stroke-width:1.5}.axis{stroke:#555;stroke-width:1;opacity:0.5}.label{fill:#999;font-family:sans-serif;font-size:10px;text-anchor:middle}</style>
      <line class="axis" x1="30" y1="30" x2="30" y2="130" />
      <line class="axis" x1="30" y1="130" x2="510" y2="130" />
      <text class="label" x="15" y="30">7,388</text>
      <text class="label" x="15" y="134">0</text>
      <text class="label" x="30" y="148">2021</text>
      <text class="label" x="510" y="148">2026</text>
      <polyline class="line" points="30.00,129.97 31.51,129.96 33.01,129.95 34.52,129.95 36.03,129.95 37.54,129.77 39.04,129.77 40.55,129.77 42.06,128.80 43.56,127.18 45.07,127.10 46.58,127.10 48.08,127.10 49.59,127.10 51.10,127.10 52.61,127.10 54.11,127.10 55.62,127.10 57.13,127.10 58.63,127.10 60.14,127.10 61.65,127.10 63.16,127.10 64.66,127.10 66.17,127.10 67.68,127.10 69.18,127.10 70.69,126.18 72.20,126.18 73.70,126.17 75.21,126.17 76.72,126.17 78.23,126.17 79.73,126.12 81.24,126.12 82.75,126.12 84.25,126.12 85.76,126.12 87.27,126.12 88.78,126.12 90.28,126.12 91.79,126.12 93.30,126.12 94.80,126.12 96.31,126.12 97.82,126.12 99.32,126.12 100.83,126.12 102.34,126.12 103.85,126.12 105.35,126.12 106.86,126.06 108.37,125.24 109.87,124.48 111.38,124.17 112.89,122.66 114.40,122.66 115.90,122.66 117.41,122.66 118.92,122.66 120.42,122.66 121.93,122.66 123.44,122.66 124.95,122.66 126.45,122.66 127.96,122.66 129.47,122.66 130.97,122.56 132.48,122.56 133.99,122.56 135.49,122.42 137.00,122.42 138.51,122.42 140.02,122.42 141.52,122.38 143.03,122.38 144.54,122.38 146.04,122.38 147.55,122.35 149.06,122.35 150.57,122.35 152.07,122.35 153.58,122.35 155.09,122.35 156.59,122.35 158.10,122.35 159.61,122.35 161.11,122.35 162.62,122.35 164.13,122.35 165.64,122.35 167.14,122.35 168.65,122.35 170.16,122.35 171.66,122.35 173.17,122.35 174.68,122.35 176.19,122.35 177.69,122.35 179.20,122.35 180.71,122.35 182.21,122.31 183.72,122.31 185.23,122.31 186.73,122.31 188.24,122.31 189.75,122.31 191.26,122.31 192.76,122.31 194.27,122.31 195.78,122.31 197.28,122.31 198.79,122.31 200.30,122.31 201.81,122.31 203.31,122.31 204.82,122.28 206.33,121.93 207.83,121.84 209.34,121.69 210.85,121.50 212.35,121.45 213.86,121.45 215.37,121.45 216.88,121.15 218.38,121.12 219.89,120.93 221.40,120.86 222.90,120.74 224.41,120.27 225.92,120.24 227.43,120.17 228.93,120.16 230.44,120.09 231.95,120.09 233.45,120.06 234.96,120.06 236.47,120.06 237.97,120.06 239.48,120.06 240.99,120.06 242.50,120.06 244.00,119.92 245.51,119.48 247.02,119.16 248.52,119.06 250.03,118.86 251.54,118.85 253.05,118.82 254.55,118.81 256.06,118.81 257.57,118.81 259.07,118.71 260.58,118.62 262.09,118.59 263.59,118.56 265.10,118.54 266.61,118.22 268.12,118.01 269.62,117.68 271.13,117.48 272.64,117.33 274.14,117.26 275.65,117.18 277.16,117.17 278.67,117.10 280.17,116.90 281.68,116.90 283.19,116.90 284.69,116.88 286.20,116.87 287.71,116.87 289.22,116.76 290.72,116.74 292.23,116.72 293.74,116.71 295.24,116.68 296.75,116.68 298.26,116.68 299.76,116.68 301.27,116.68 302.78,116.68 304.29,116.68 305.79,116.68 307.30,116.64 308.81,116.60 310.31,116.60 311.82,116.36 313.33,116.34 314.84,116.33 316.34,116.29 317.85,116.17 319.36,115.87 320.86,115.81 322.37,115.81 323.88,115.81 325.38,115.81 326.89,115.81 328.40,115.81 329.91,115.81 331.41,115.81 332.92,115.81 334.43,115.81 335.93,115.81 337.44,115.81 338.95,115.81 340.46,115.80 341.96,115.72 343.47,115.71 344.98,115.71 346.48,115.71 347.99,115.71 349.50,115.65 351.00,115.65 352.51,115.44 354.02,115.23 355.53,115.23 357.03,115.23 358.54,115.23 360.05,115.23 361.55,115.21 363.06,115.21 364.57,115.18 366.08,115.08 367.58,115.00 369.09,114.64 370.60,114.62 372.10,114.07 373.61,113.74 375.12,113.50 376.62,112.73 378.13,112.53 379.64,112.44 381.15,112.19 382.65,111.79 384.16,111.70 385.67,111.56 387.17,111.35 388.68,111.16 390.19,111.08 391.70,110.94 393.20,110.85 394.71,110.60 396.22,110.39 397.72,110.13 399.23,109.71 400.74,109.47 402.24,108.26 403.75,107.36 405.26,106.77 406.77,106.27 408.27,105.72 409.78,105.72 411.29,105.72 412.79,105.72 414.30,105.37 415.81,105.16 417.32,104.43 418.82,103.61 420.33,102.64 421.84,101.20 423.34,100.18 424.85,98.10 426.36,96.84 427.86,96.00 429.37,94.65 430.88,93.78 432.39,92.06 433.89,89.46 435.40,88.68 436.91,87.66 438.41,86.69 439.92,86.36 441.43,85.12 442.94,84.90 444.44,83.41 445.95,82.06 447.46,81.25 448.96,80.32 450.47,79.11 451.98,78.78 453.49,78.67 454.99,78.54 456.50,78.46 458.01,77.69 459.51,76.68 461.02,75.47 462.53,75.13 464.03,74.14 465.54,72.87 467.05,70.34 468.56,68.47 470.06,66.17 471.57,65.56 473.08,64.34 474.58,62.08 476.09,60.79 477.60,60.09 479.11,59.10 480.61,58.45 482.12,57.52 483.63,57.08 485.13,56.14 486.64,54.34 488.15,52.35 489.65,51.74 491.16,50.80 492.67,49.56 494.18,48.67 495.68,47.27 497.19,46.40 498.70,44.56 500.20,42.62 501.71,40.90 503.22,37.49 504.73,35.37 506.23,33.33 507.74,32.19 509.25,30.53" />
    </svg>
  