
    <svg width="540" height="160" xmlns="http://www.w3.org/2000/svg">
      <style>.line{fill:none;stroke:#388bfd;stroke-width:1.5}.axis{stroke:#555;stroke-width:1;opacity:0.5}.label{fill:#999;font-family:sans-serif;font-size:10px;text-anchor:middle}</style>
      <line class="axis" x1="30" y1="30" x2="30" y2="130" />
      <line class="axis" x1="30" y1="130" x2="510" y2="130" />
      <text class="label" x="15" y="30">8,905</text>
      <text class="label" x="15" y="134">0</text>
      <text class="label" x="30" y="148">2021</text>
      <text class="label" x="510" y="148">2026</text>
      <polyline class="line" points="30.00,129.98 31.46,129.97 32.92,129.96 34.39,129.96 35.85,129.96 37.31,129.81 38.77,129.81 40.23,129.81 41.70,129.00 43.16,127.66 44.62,127.60 46.08,127.60 47.54,127.60 49.01,127.60 50.47,127.60 51.93,127.60 53.39,127.60 54.85,127.60 56.31,127.60 57.78,127.60 59.24,127.60 60.70,127.60 62.16,127.60 63.62,127.60 65.09,127.60 66.55,127.60 68.01,127.60 69.47,126.83 70.93,126.83 72.40,126.82 73.86,126.82 75.32,126.82 76.78,126.82 78.24,126.78 79.71,126.78 81.17,126.78 82.63,126.78 84.09,126.78 85.55,126.78 87.02,126.78 88.48,126.78 89.94,126.78 91.40,126.78 92.86,126.78 94.32,126.78 95.79,126.78 97.25,126.78 98.71,126.78 100.17,126.78 101.63,126.78 103.10,126.78 104.56,126.73 106.02,126.05 107.48,125.42 108.94,125.16 110.41,123.91 111.87,123.91 113.33,123.91 114.79,123.91 116.25,123.91 117.72,123.91 119.18,123.91 120.64,123.91 122.10,123.91 123.56,123.91 125.03,123.91 126.49,123.91 127.95,123.82 129.41,123.82 130.87,123.82 132.34,123.71 133.80,123.71 135.26,123.71 136.72,123.71 138.18,123.68 139.64,123.68 141.11,123.68 142.57,123.68 144.03,123.66 145.49,123.66 146.95,123.66 148.42,123.66 149.88,123.66 151.34,123.66 152.80,123.66 154.26,123.66 155.73,123.66 157.19,123.66 158.65,123.66 160.11,123.66 161.57,123.66 163.04,123.66 164.50,123.66 165.96,123.66 167.42,123.66 168.88,123.66 170.35,123.66 171.81,123.66 173.27,123.66 174.73,123.66 176.19,123.66 177.65,123.62 179.12,123.62 180.58,123.62 182.04,123.62 183.50,123.62 184.96,123.62 186.43,123.62 187.89,123.62 189.35,123.62 190.81,123.62 192.27,123.62 193.74,123.62 195.20,123.62 196.66,123.62 198.12,123.62 199.58,123.60 201.05,123.31 202.51,123.23 203.97,123.10 205.43,122.95 206.89,122.90 208.36,122.90 209.82,122.90 211.28,122.66 212.74,122.63 214.20,122.48 215.66,122.42 217.13,122.32 218.59,121.93 220.05,121.90 221.51,121.85 222.97,121.84 224.44,121.78 225.90,121.78 227.36,121.76 228.82,121.76 230.28,121.76 231.75,121.76 233.21,121.76 234.67,121.76 236.13,121.76 237.59,121.63 239.06,121.27 240.52,121.01 241.98,120.93 243.44,120.76 244.90,120.75 246.37,120.72 247.83,120.71 249.29,120.71 250.75,120.71 252.21,120.63 253.68,120.56 255.14,120.53 256.60,120.51 258.06,120.49 259.52,120.23 260.98,120.05 262.45,119.78 263.91,119.61 265.37,119.49 266.83,119.43 268.29,119.37 269.76,119.35 271.22,119.30 272.68,119.13 274.14,119.13 275.60,119.13 277.07,119.12 278.53,119.11 279.99,119.11 281.45,119.02 282.91,118.99 284.38,118.98 285.84,118.97 287.30,118.95 288.76,118.95 290.22,118.95 291.69,118.95 293.15,118.95 294.61,118.95 296.07,118.95 297.53,118.95 298.99,118.92 300.46,118.88 301.92,118.88 303.38,118.68 304.84,118.67 306.30,118.66 307.77,118.62 309.23,118.52 310.69,118.28 312.15,118.23 313.61,118.23 315.08,118.23 316.54,118.23 318.00,118.23 319.46,118.23 320.92,118.23 322.39,118.23 323.85,118.23 325.31,118.23 326.77,118.23 328.23,118.23 329.70,118.23 331.16,118.22 332.62,118.15 334.08,118.14 335.54,118.14 337.01,118.14 338.47,118.14 339.93,118.10 341.39,118.10 342.85,117.92 344.31,117.75 345.78,117.75 347.24,117.75 348.70,117.75 350.16,117.75 351.62,117.73 353.09,117.73 354.55,117.70 356.01,117.62 357.47,117.56 358.93,117.25 360.40,117.24 361.86,116.78 363.32,116.51 364.78,116.31 366.24,115.67 367.71,115.50 369.17,115.44 370.63,115.22 372.09,114.90 373.55,114.82 375.02,114.71 376.48,114.53 377.94,114.37 379.40,114.30 380.86,114.19 382.32,114.11 383.79,113.91 385.25,113.73 386.71,113.51 388.17,113.17 389.63,112.96 391.10,111.97 392.56,111.21 394.02,110.73 395.48,110.31 396.94,109.85 398.41,109.85 399.87,109.85 401.33,109.85 402.79,109.56 404.25,109.39 405.72,108.79 407.18,108.10 408.64,107.30 410.10,106.10 411.56,105.26 413.03,103.53 414.49,102.49 415.95,101.79 417.41,100.67 418.87,99.95 420.34,98.52 421.80,96.37 423.26,95.72 424.72,94.87 426.18,94.07 427.64,93.80 429.11,92.76 430.57,92.58 432.03,91.35 433.49,90.22 434.95,89.55 436.42,88.79 437.88,87.78 439.34,87.51 440.80,87.42 442.26,87.30 443.73,87.24 445.19,86.60 446.65,85.77 448.11,84.76 449.57,84.48 451.04,83.66 452.50,82.60 453.96,80.50 455.42,78.95 456.88,77.04 458.35,76.54 459.81,75.52 461.27,73.65 462.73,72.58 464.19,72.00 465.65,71.18 467.12,70.64 468.58,69.87 470.04,69.51 471.50,68.72 472.96,67.23 474.43,65.58 475.89,65.07 477.35,64.14 478.81,62.43 480.27,61.56 481.74,59.43 483.20,58.42 484.66,56.58 486.12,54.78 487.58,52.62 489.05,49.36 490.51,47.20 491.97,45.35 493.43,44.16 494.89,42.62 496.36,41.24 497.82,40.57 499.28,39.44 500.74,38.09 502.20,37.32 503.66,36.15 505.13,35.27 506.59,34.42 508.05,33.16 509.51,30.84" />
    </svg>
  