
    <svg width="540" height="160" xmlns="http://www.w3.org/2000/svg">
      <style>.line{fill:none;stroke:#388bfd;stroke-width:1.5}.axis{stroke:#555;stroke-width:1;opacity:0.5}.label{fill:#999;font-family:sans-serif;font-size:10px;text-anchor:middle}</style>
      <line class="axis" x1="30" y1="30" x2="30" y2="130" />
      <line class="axis" x1="30" y1="130" x2="510" y2="130" />
      <text class="label" x="15" y="30">9,253</text>
      <text class="label" x="15" y="134">0</text>
      <text class="label" x="30" y="148">2021</text>
      <text class="label" x="510" y="148">2026</text>
      <polyline class="line" points="30.00,129.98 31.45,129.97 32.90,129.96 34.34,129.96 35.79,129.96 37.24,129.82 38.69,129.82 40.14,129.82 41.58,129.04 43.03,127.75 44.48,127.69 45.93,127.69 47.38,127.69 48.82,127.69 50.27,127.69 51.72,127.69 53.17,127.69 54.62,127.69 56.06,127.69 57.51,127.69 58.96,127.69 60.41,127.69 61.86,127.69 63.30,127.69 64.75,127.69 66.20,127.69 67.65,127.69 69.10,126.95 70.54,126.95 71.99,126.94 73.44,126.94 74.89,126.94 76.33,126.94 77.78,126.90 79.23,126.90 80.68,126.90 82.13,126.90 83.57,126.90 85.02,126.90 86.47,126.90 87.92,126.90 89.37,126.90 90.81,126.90 92.26,126.90 93.71,126.90 95.16,126.90 96.61,126.90 98.05,126.90 99.50,126.90 100.95,126.90 102.40,126.90 103.85,126.86 105.29,126.20 106.74,125.59 108.19,125.34 109.64,124.14 111.09,124.14 112.53,124.14 113.98,124.14 115.43,124.14 116.88,124.14 118.33,124.14 119.77,124.14 121.22,124.14 122.67,124.14 124.12,124.14 125.57,124.14 127.01,124.06 128.46,124.06 129.91,124.06 131.36,123.95 132.81,123.95 134.25,123.95 135.70,123.95 137.15,123.92 138.60,123.92 140.05,123.92 141.49,123.92 142.94,123.89 144.39,123.89 145.84,123.89 147.29,123.89 148.73,123.89 150.18,123.89 151.63,123.89 153.08,123.89 154.52,123.89 155.97,123.89 157.42,123.89 158.87,123.89 160.32,123.89 161.76,123.89 163.21,123.89 164.66,123.89 166.11,123.89 167.56,123.89 169.00,123.89 170.45,123.89 171.90,123.89 173.35,123.89 174.80,123.89 176.24,123.86 177.69,123.86 179.14,123.86 180.59,123.86 182.04,123.86 183.48,123.86 184.93,123.86 186.38,123.86 187.83,123.86 189.28,123.86 190.72,123.86 192.17,123.86 193.62,123.86 195.07,123.86 196.52,123.86 197.96,123.84 199.41,123.56 200.86,123.48 202.31,123.36 203.76,123.21 205.20,123.17 206.65,123.17 208.10,123.17 209.55,122.93 211.00,122.91 212.44,122.76 213.89,122.71 215.34,122.61 216.79,122.23 218.24,122.21 219.68,122.15 221.13,122.14 222.58,122.09 224.03,122.09 225.48,122.07 226.92,122.07 228.37,122.07 229.82,122.07 231.27,122.07 232.71,122.07 234.16,122.07 235.61,121.95 237.06,121.60 238.51,121.34 239.95,121.27 241.40,121.11 242.85,121.09 244.30,121.07 245.75,121.06 247.19,121.06 248.64,121.06 250.09,120.99 251.54,120.91 252.99,120.89 254.43,120.87 255.88,120.85 257.33,120.60 258.78,120.42 260.23,120.17 261.67,120.00 263.12,119.88 264.57,119.83 266.02,119.77 267.47,119.75 268.91,119.70 270.36,119.54 271.81,119.54 273.26,119.54 274.71,119.53 276.15,119.52 277.60,119.52 279.05,119.43 280.50,119.41 281.95,119.40 283.39,119.39 284.84,119.37 286.29,119.37 287.74,119.37 289.19,119.37 290.63,119.37 292.08,119.37 293.53,119.37 294.98,119.37 296.43,119.33 297.87,119.30 299.32,119.30 300.77,119.11 302.22,119.10 303.67,119.08 305.11,119.05 306.56,118.95 308.01,118.72 309.46,118.67 310.90,118.67 312.35,118.67 313.80,118.67 315.25,118.67 316.70,118.67 318.14,118.67 319.59,118.67 321.04,118.67 322.49,118.67 323.94,118.67 325.38,118.67 326.83,118.67 328.28,118.66 329.73,118.60 331.18,118.59 332.62,118.59 334.07,118.59 335.52,118.59 336.97,118.54 338.42,118.54 339.86,118.37 341.31,118.21 342.76,118.21 344.21,118.21 345.66,118.21 347.10,118.21 348.55,118.19 350.00,118.19 351.45,118.17 352.90,118.09 354.34,118.03 355.79,117.73 357.24,117.72 358.69,117.28 360.14,117.02 361.58,116.83 363.03,116.21 364.48,116.05 365.93,115.98 367.38,115.78 368.82,115.46 370.27,115.39 371.72,115.28 373.17,115.11 374.62,114.96 376.06,114.89 377.51,114.78 378.96,114.71 380.41,114.51 381.86,114.34 383.30,114.13 384.75,113.80 386.20,113.61 387.65,112.64 389.10,111.92 390.54,111.45 391.99,111.05 393.44,110.61 394.89,110.61 396.33,110.61 397.78,110.61 399.23,110.33 400.68,110.17 402.13,109.58 403.57,108.93 405.02,108.16 406.47,107.00 407.92,106.19 409.37,104.53 410.81,103.52 412.26,102.85 413.71,101.77 415.16,101.08 416.61,99.71 418.05,97.63 419.50,97.01 420.95,96.19 422.40,95.42 423.85,95.16 425.29,94.16 426.74,93.99 428.19,92.80 429.64,91.72 431.09,91.07 432.53,90.34 433.98,89.36 435.43,89.11 436.88,89.02 438.33,88.91 439.77,88.85 441.22,88.23 442.67,87.43 444.12,86.46 445.57,86.19 447.01,85.40 448.46,84.38 449.91,82.36 451.36,80.87 452.81,79.03 454.25,78.55 455.70,77.57 457.15,75.77 458.60,74.74 460.05,74.18 461.49,73.39 462.94,72.87 464.39,72.13 465.84,71.78 467.29,71.02 468.73,69.59 470.18,68.00 471.63,67.51 473.08,66.62 474.52,64.97 475.97,64.13 477.42,62.09 478.87,61.11 480.32,59.34 481.76,57.61 483.21,55.53 484.66,52.39 486.11,50.32 487.56,48.53 489.00,47.39 490.45,45.91 491.90,44.58 493.35,43.93 494.80,42.85 496.24,41.54 497.69,40.81 499.14,39.68 500.59,38.83 502.04,38.02 503.48,36.80 504.93,34.57 506.38,32.84 507.83,31.34 509.28,30.11" />
    </svg>
  