
    <svg width="540" height="160" xmlns="http://www.w3.org/2000/svg">
      <style>.line{fill:none;stroke:#388bfd;stroke-width:1.5}.axis{stroke:#555;stroke-width:1;opacity:0.5}.label{fill:#999;font-family:sans-serif;font-size:10px;text-anchor:middle}</style>
      <line class="axis" x1="30" y1="30" x2="30" y2="130" />
      <line class="axis" x1="30" y1="130" x2="510" y2="130" />
      <text class="label" x="15" y="30">9,546</text>
      <text class="label" x="15" y="134">0</text>
      <text class="label" x="30" y="148">2021</text>
      <text class="label" x="510" y="148">2026</text>
      <polyline class="line" points="30.00,129.98 31.43,129.97 32.85,129.96 34.28,129.96 35.70,129.96 37.13,129.82 38.55,129.82 39.98,129.82 41.41,129.07 42.83,127.82 44.26,127.76 45.68,127.76 47.11,127.76 48.53,127.76 49.96,127.76 51.39,127.76 52.81,127.76 54.24,127.76 55.66,127.76 57.09,127.76 58.51,127.76 59.94,127.76 61.37,127.76 62.79,127.76 64.22,127.76 65.64,127.76 67.07,127.76 68.50,127.05 69.92,127.05 71.35,127.04 72.77,127.04 74.20,127.04 75.62,127.04 77.05,126.99 78.48,126.99 79.90,126.99 81.33,126.99 82.75,126.99 84.18,126.99 85.60,126.99 87.03,126.99 88.46,126.99 89.88,126.99 91.31,126.99 92.73,126.99 94.16,126.99 95.58,126.99 97.01,126.99 98.44,126.99 99.86,126.99 101.29,126.99 102.71,126.95 104.14,126.31 105.56,125.73 106.99,125.49 108.42,124.32 109.84,124.32 111.27,124.32 112.69,124.32 114.12,124.32 115.54,124.32 116.97,124.32 118.40,124.32 119.82,124.32 121.25,124.32 122.67,124.32 124.10,124.32 125.52,124.24 126.95,124.24 128.38,124.24 129.80,124.13 131.23,124.13 132.65,124.13 134.08,124.13 135.50,124.10 136.93,124.10 138.36,124.10 139.78,124.10 141.21,124.08 142.63,124.08 144.06,124.08 145.49,124.08 146.91,124.08 148.34,124.08 149.76,124.08 151.19,124.08 152.61,124.08 154.04,124.08 155.47,124.08 156.89,124.08 158.32,124.08 159.74,124.08 161.17,124.08 162.59,124.08 164.02,124.08 165.45,124.08 166.87,124.08 168.30,124.08 169.72,124.08 171.15,124.08 172.57,124.08 174.00,124.05 175.43,124.05 176.85,124.05 178.28,124.05 179.70,124.05 181.13,124.05 182.55,124.05 183.98,124.05 185.41,124.05 186.83,124.05 188.26,124.05 189.68,124.05 191.11,124.05 192.53,124.05 193.96,124.05 195.39,124.03 196.81,123.76 198.24,123.68 199.66,123.57 201.09,123.42 202.51,123.38 203.94,123.38 205.37,123.38 206.79,123.15 208.22,123.13 209.64,122.98 211.07,122.93 212.50,122.83 213.92,122.47 215.35,122.45 216.77,122.39 218.20,122.38 219.62,122.33 221.05,122.33 222.48,122.31 223.90,122.31 225.33,122.31 226.75,122.31 228.18,122.31 229.60,122.31 231.03,122.31 232.46,122.20 233.88,121.86 235.31,121.61 236.73,121.54 238.16,121.38 239.58,121.37 241.01,121.35 242.44,121.34 243.86,121.34 245.29,121.34 246.71,121.26 248.14,121.19 249.56,121.17 250.99,121.15 252.42,121.13 253.84,120.89 255.27,120.72 256.69,120.47 258.12,120.31 259.54,120.19 260.97,120.14 262.40,120.08 263.82,120.07 265.25,120.02 266.67,119.86 268.10,119.86 269.52,119.86 270.95,119.85 272.38,119.84 273.80,119.84 275.23,119.75 276.65,119.73 278.08,119.72 279.50,119.71 280.93,119.69 282.36,119.69 283.78,119.69 285.21,119.69 286.63,119.69 288.06,119.69 289.49,119.69 290.91,119.69 292.34,119.66 293.76,119.63 295.19,119.63 296.61,119.44 298.04,119.43 299.47,119.42 300.89,119.39 302.32,119.29 303.74,119.06 305.17,119.02 306.59,119.02 308.02,119.02 309.45,119.02 310.87,119.02 312.30,119.02 313.72,119.02 315.15,119.02 316.57,119.02 318.00,119.02 319.43,119.02 320.85,119.02 322.28,119.02 323.70,119.01 325.13,118.95 326.55,118.94 327.98,118.94 329.41,118.94 330.83,118.94 332.26,118.90 333.68,118.90 335.11,118.73 336.53,118.57 337.96,118.57 339.39,118.57 340.81,118.57 342.24,118.57 343.66,118.55 345.09,118.55 346.51,118.53 347.94,118.46 349.37,118.39 350.79,118.11 352.22,118.10 353.64,117.67 355.07,117.42 356.50,117.23 357.92,116.63 359.35,116.48 360.77,116.41 362.20,116.21 363.62,115.91 365.05,115.84 366.48,115.73 367.90,115.56 369.33,115.42 370.75,115.36 372.18,115.25 373.60,115.18 375.03,114.99 376.46,114.82 377.88,114.62 379.31,114.30 380.73,114.11 382.16,113.18 383.58,112.47 385.01,112.02 386.44,111.64 387.86,111.21 389.29,111.21 390.71,111.21 392.14,111.21 393.56,110.93 394.99,110.78 396.42,110.21 397.84,109.57 399.27,108.83 400.69,107.71 402.12,106.92 403.54,105.31 404.97,104.33 406.40,103.69 407.82,102.64 409.25,101.97 410.67,100.64 412.10,98.63 413.52,98.02 414.95,97.23 416.38,96.48 417.80,96.23 419.23,95.26 420.65,95.10 422.08,93.94 423.50,92.90 424.93,92.27 426.36,91.55 427.78,90.61 429.21,90.36 430.63,90.28 432.06,90.17 433.49,90.11 434.91,89.51 436.34,88.74 437.76,87.79 439.19,87.53 440.61,86.77 442.04,85.78 443.47,83.82 444.89,82.38 446.32,80.60 447.74,80.13 449.17,79.18 450.59,77.43 452.02,76.44 453.45,75.89 454.87,75.13 456.30,74.63 457.72,73.90 459.15,73.57 460.57,72.83 462.00,71.44 463.43,69.90 464.85,69.43 466.28,68.56 467.70,66.97 469.13,66.15 470.55,64.17 471.98,63.23 473.41,61.51 474.83,59.83 476.26,57.81 477.68,54.77 479.11,52.76 480.53,51.03 481.96,49.92 483.39,48.49 484.81,47.20 486.24,46.57 487.66,45.52 489.09,44.26 490.51,43.54 491.94,42.46 493.37,41.63 494.79,40.84 496.22,39.66 497.64,37.50 499.07,35.77 500.50,34.32 501.92,33.11 503.35,32.67 504.77,32.11 506.20,31.64 507.62,31.12 509.05,30.39" />
    </svg>
  