
    <svg width="540" height="160" xmlns="http://www.w3.org/2000/svg">
      <style>.line{fill:none;stroke:#388bfd;stroke-width:1.5}.axis{stroke:#555;stroke-width:1;opacity:0.5}.label{fill:#999;font-family:sans-serif;font-size:10px;text-anchor:middle}</style>
      <line class="axis" x1="30" y1="30" x2="30" y2="130" />
      <line class="axis" x1="30" y1="130" x2="510" y2="130" />
      <text class="label" x="15" y="30">8,702</text>
      <text class="label" x="15" y="134">0</text>
      <text class="label" x="30" y="148">2021</text>
      <text class="label" x="510" y="148">2026</text>
      <polyline class="line" points="30.00,129.98 31.46,129.97 32.93,129.95 34.39,129.95 35.86,129.95 37.32,129.80 38.78,129.80 40.25,129.80 41.71,128.98 43.18,127.61 44.64,127.54 46.11,127.54 47.57,127.54 49.03,127.54 50.50,127.54 51.96,127.54 53.43,127.54 54.89,127.54 56.35,127.54 57.82,127.54 59.28,127.54 60.75,127.54 62.21,127.54 63.68,127.54 65.14,127.54 66.60,127.54 68.07,127.54 69.53,126.76 71.00,126.76 72.46,126.75 73.92,126.75 75.39,126.75 76.85,126.75 78.32,126.70 79.78,126.70 81.25,126.70 82.71,126.70 84.17,126.70 85.64,126.70 87.10,126.70 88.57,126.70 90.03,126.70 91.49,126.70 92.96,126.70 94.42,126.70 95.89,126.70 97.35,126.70 98.82,126.70 100.28,126.70 101.74,126.70 103.21,126.70 104.67,126.66 106.14,125.95 107.60,125.31 109.06,125.05 110.53,123.77 111.99,123.77 113.46,123.77 114.92,123.77 116.39,123.77 117.85,123.77 119.31,123.77 120.78,123.77 122.24,123.77 123.71,123.77 125.17,123.77 126.63,123.77 128.10,123.68 129.56,123.68 131.03,123.68 132.49,123.56 133.96,123.56 135.42,123.56 136.88,123.56 138.35,123.53 139.81,123.53 141.28,123.53 142.74,123.53 144.20,123.51 145.67,123.51 147.13,123.51 148.60,123.51 150.06,123.51 151.53,123.51 152.99,123.51 154.45,123.51 155.92,123.51 157.38,123.51 158.85,123.51 160.31,123.51 161.77,123.51 163.24,123.51 164.70,123.51 166.17,123.51 167.63,123.51 169.10,123.51 170.56,123.51 172.02,123.51 173.49,123.51 174.95,123.51 176.42,123.51 177.88,123.47 179.34,123.47 180.81,123.47 182.27,123.47 183.74,123.47 185.20,123.47 186.66,123.47 188.13,123.47 189.59,123.47 191.06,123.47 192.52,123.47 193.99,123.47 195.45,123.47 196.91,123.47 198.38,123.47 199.84,123.45 201.31,123.15 202.77,123.07 204.23,122.94 205.70,122.78 207.16,122.74 208.63,122.74 210.09,122.74 211.56,122.48 213.02,122.46 214.48,122.30 215.95,122.24 217.41,122.14 218.88,121.74 220.34,121.71 221.80,121.66 223.27,121.65 224.73,121.59 226.20,121.59 227.66,121.57 229.13,121.57 230.59,121.57 232.05,121.57 233.52,121.57 234.98,121.57 236.45,121.57 237.91,121.44 239.37,121.07 240.84,120.80 242.30,120.71 243.77,120.54 245.23,120.53 246.70,120.51 248.16,120.50 249.62,120.50 251.09,120.50 252.55,120.42 254.02,120.34 255.48,120.31 256.94,120.29 258.41,120.27 259.87,120.00 261.34,119.82 262.80,119.54 264.27,119.37 265.73,119.24 267.19,119.19 268.66,119.12 270.12,119.11 271.59,119.05 273.05,118.88 274.51,118.88 275.98,118.88 277.44,118.86 278.91,118.85 280.37,118.85 281.84,118.76 283.30,118.74 284.76,118.73 286.23,118.72 287.69,118.69 289.16,118.69 290.62,118.69 292.08,118.69 293.55,118.69 295.01,118.69 296.48,118.69 297.94,118.69 299.41,118.66 300.87,118.62 302.33,118.62 303.80,118.42 305.26,118.40 306.73,118.39 308.19,118.36 309.65,118.26 311.12,118.00 312.58,117.96 314.05,117.96 315.51,117.96 316.98,117.96 318.44,117.96 319.90,117.96 321.37,117.96 322.83,117.96 324.30,117.96 325.76,117.96 327.22,117.96 328.69,117.96 330.15,117.96 331.62,117.95 333.08,117.88 334.54,117.86 336.01,117.86 337.47,117.86 338.94,117.86 340.40,117.82 341.87,117.82 343.33,117.64 344.79,117.46 346.26,117.46 347.72,117.46 349.19,117.46 350.65,117.46 352.11,117.44 353.58,117.44 355.04,117.42 356.51,117.34 357.97,117.27 359.44,116.96 360.90,116.95 362.36,116.47 363.83,116.20 365.29,115.99 366.76,115.34 368.22,115.16 369.68,115.10 371.15,114.88 372.61,114.54 374.08,114.46 375.54,114.35 377.01,114.16 378.47,114.00 379.93,113.93 381.40,113.82 382.86,113.74 384.33,113.53 385.79,113.35 387.25,113.13 388.72,112.77 390.18,112.57 391.65,111.54 393.11,110.77 394.58,110.28 396.04,109.86 397.50,109.38 398.97,109.38 400.43,109.38 401.90,109.38 403.36,109.09 404.82,108.91 406.29,108.29 407.75,107.59 409.22,106.78 410.68,105.55 412.15,104.68 413.61,102.91 415.07,101.85 416.54,101.13 418.00,99.98 419.47,99.25 420.93,97.79 422.39,95.58 423.86,94.92 425.32,94.05 426.79,93.23 428.25,92.95 429.72,91.89 431.18,91.71 432.64,90.45 434.11,89.30 435.57,88.61 437.04,87.83 438.50,86.79 439.96,86.52 441.43,86.42 442.89,86.31 444.36,86.24 445.82,85.58 447.29,84.73 448.75,83.70 450.21,83.41 451.68,82.57 453.14,81.49 454.61,79.34 456.07,77.76 457.53,75.81 459.00,75.29 460.46,74.25 461.93,72.34 463.39,71.24 464.86,70.65 466.32,69.81 467.78,69.26 469.25,68.46 470.71,68.09 472.18,67.29 473.64,65.76 475.10,64.07 476.57,63.56 478.03,62.60 479.50,60.85 480.96,59.96 482.43,57.79 483.89,56.75 485.35,54.87 486.82,53.03 488.28,50.81 489.75,47.48 491.21,45.27 492.67,43.38 494.14,42.16 495.60,40.58 497.07,39.17 498.53,38.48 499.99,37.33 501.46,35.94 502.92,35.40 504.39,34.38 505.85,33.50 507.32,32.64 508.78,31.53" />
    </svg>
  