
    <svg width="540" height="160" xmlns="http://www.w3.org/2000/svg">
      <style>.line{fill:none;stroke:#388bfd;stroke-width:1.5}.axis{stroke:#555;stroke-width:1;opacity:0.5}.label{fill:#999;font-family:sans-serif;font-size:10px;text-anchor:middle}</style>
      <line class="axis" x1="30" y1="30" x2="30" y2="130" />
      <line class="axis" x1="30" y1="130" x2="510" y2="130" />
      <text class="label" x="15" y="30">8,490</text>
      <text class="label" x="15" y="134">0</text>
      <text class="label" x="30" y="148">2021</text>
      <text class="label" x="510" y="148">2026</text>
      <polyline class="line" points="30.00,129.98 31.47,129.96 32.94,129.95 34.41,129.95 35.88,129.95 37.35,129.80 38.83,129.80 40.30,129.80 41.77,128.95 43.24,127.55 44.71,127.48 46.18,127.48 47.65,127.48 49.12,127.48 50.59,127.48 52.06,127.48 53.53,127.48 55.01,127.48 56.48,127.48 57.95,127.48 59.42,127.48 60.89,127.48 62.36,127.48 63.83,127.48 65.30,127.48 66.77,127.48 68.24,127.48 69.71,126.68 71.18,126.68 72.66,126.67 74.13,126.67 75.60,126.67 77.07,126.67 78.54,126.62 80.01,126.62 81.48,126.62 82.95,126.62 84.42,126.62 85.89,126.62 87.36,126.62 88.84,126.62 90.31,126.62 91.78,126.62 93.25,126.62 94.72,126.62 96.19,126.62 97.66,126.62 99.13,126.62 100.60,126.62 102.07,126.62 103.54,126.62 105.02,126.57 106.49,125.85 107.96,125.19 109.43,124.92 110.90,123.62 112.37,123.62 113.84,123.62 115.31,123.62 116.78,123.62 118.25,123.62 119.72,123.62 121.20,123.62 122.67,123.62 124.14,123.62 125.61,123.62 127.08,123.62 128.55,123.52 130.02,123.52 131.49,123.52 132.96,123.40 134.43,123.40 135.90,123.40 137.37,123.40 138.85,123.37 140.32,123.37 141.79,123.37 143.26,123.37 144.73,123.35 146.20,123.35 147.67,123.35 149.14,123.35 150.61,123.35 152.08,123.35 153.55,123.35 155.03,123.35 156.50,123.35 157.97,123.35 159.44,123.35 160.91,123.35 162.38,123.35 163.85,123.35 165.32,123.35 166.79,123.35 168.26,123.35 169.73,123.35 171.21,123.35 172.68,123.35 174.15,123.35 175.62,123.35 177.09,123.35 178.56,123.31 180.03,123.31 181.50,123.31 182.97,123.31 184.44,123.31 185.91,123.31 187.39,123.31 188.86,123.31 190.33,123.31 191.80,123.31 193.27,123.31 194.74,123.31 196.21,123.31 197.68,123.31 199.15,123.31 200.62,123.29 202.09,122.98 203.56,122.90 205.04,122.77 206.51,122.60 207.98,122.56 209.45,122.56 210.92,122.56 212.39,122.30 213.86,122.27 215.33,122.11 216.80,122.05 218.27,121.94 219.74,121.53 221.22,121.51 222.69,121.45 224.16,121.44 225.63,121.38 227.10,121.38 228.57,121.35 230.04,121.35 231.51,121.35 232.98,121.35 234.45,121.35 235.92,121.35 237.40,121.35 238.87,121.22 240.34,120.85 241.81,120.57 243.28,120.48 244.75,120.31 246.22,120.29 247.69,120.27 249.16,120.26 250.63,120.26 252.10,120.26 253.58,120.18 255.05,120.09 256.52,120.07 257.99,120.05 259.46,120.02 260.93,119.75 262.40,119.56 263.87,119.28 265.34,119.10 266.81,118.98 268.28,118.92 269.75,118.85 271.23,118.83 272.70,118.78 274.17,118.60 275.64,118.60 277.11,118.60 278.58,118.59 280.05,118.57 281.52,118.57 282.99,118.48 284.46,118.46 285.93,118.45 287.41,118.43 288.88,118.41 290.35,118.41 291.82,118.41 293.29,118.41 294.76,118.41 296.23,118.41 297.70,118.41 299.17,118.41 300.64,118.37 302.11,118.34 303.59,118.34 305.06,118.13 306.53,118.12 308.00,118.10 309.47,118.07 310.94,117.96 312.41,117.70 313.88,117.66 315.35,117.66 316.82,117.66 318.29,117.66 319.77,117.66 321.24,117.66 322.71,117.66 324.18,117.66 325.65,117.66 327.12,117.66 328.59,117.66 330.06,117.66 331.53,117.66 333.00,117.64 334.47,117.57 335.94,117.56 337.42,117.56 338.89,117.56 340.36,117.56 341.83,117.51 343.30,117.51 344.77,117.33 346.24,117.15 347.71,117.15 349.18,117.15 350.65,117.15 352.12,117.15 353.60,117.13 355.07,117.13 356.54,117.10 358.01,117.02 359.48,116.95 360.95,116.63 362.42,116.62 363.89,116.14 365.36,115.85 366.83,115.64 368.30,114.97 369.78,114.79 371.25,114.72 372.72,114.50 374.19,114.16 375.66,114.08 377.13,113.96 378.60,113.77 380.07,113.60 381.54,113.53 383.01,113.42 384.48,113.33 385.96,113.12 387.43,112.93 388.90,112.71 390.37,112.34 391.84,112.13 393.31,111.08 394.78,110.29 396.25,109.79 397.72,109.35 399.19,108.87 400.66,108.87 402.13,108.87 403.61,108.87 405.08,108.56 406.55,108.39 408.02,107.75 409.49,107.03 410.96,106.20 412.43,104.94 413.90,104.05 415.37,102.24 416.84,101.14 418.31,100.41 419.79,99.23 421.26,98.48 422.73,96.98 424.20,94.72 425.67,94.04 427.14,93.16 428.61,92.31 430.08,92.03 431.55,90.94 433.02,90.75 434.49,89.46 435.97,88.28 437.44,87.57 438.91,86.77 440.38,85.71 441.85,85.43 443.32,85.34 444.79,85.22 446.26,85.15 447.73,84.48 449.20,83.60 450.67,82.54 452.15,82.25 453.62,81.39 455.09,80.28 456.56,78.08 458.03,76.45 459.50,74.45 460.97,73.92 462.44,72.86 463.91,70.90 465.38,69.78 466.85,69.16 468.32,68.30 469.80,67.74 471.27,66.93 472.74,66.55 474.21,65.72 475.68,64.16 477.15,62.43 478.62,61.90 480.09,60.92 481.56,59.13 483.03,58.21 484.50,55.98 485.98,54.92 487.45,52.99 488.92,51.11 490.39,48.83 491.86,45.42 493.33,43.16 494.80,41.21 496.27,39.96 497.74,38.35 499.21,36.90 500.68,36.20 502.16,35.02 503.63,33.59 505.10,33.04 506.57,31.99 508.04,31.10 509.51,30.21" />
    </svg>
  