
    <svg width="540" height="160" xmlns="http://www.w3.org/2000/svg">
      <style>.line{fill:none;stroke:#388bfd;stroke-width:1.5}.axis{stroke:#555;stroke-width:1;opacity:0.5}.label{fill:#999;font-family:sans-serif;font-size:10px;text-anchor:middle}</style>
      <line class="axis" x1="30" y1="30" x2="30" y2="130" />
      <line class="axis" x1="30" y1="130" x2="510" y2="130" />
      <text class="label" x="15" y="30">8,713</text>
      <text class="label" x="15" y="134">0</text>
      <text class="label" x="30" y="148">2021</text>
      <text class="label" x="510" y="148">2026</text>
      <polyline class="line" points="30.00,129.98 31.46,129.97 32.93,129.95 34.39,129.95 35.85,129.95 37.32,129.80 38.78,129.80 40.24,129.80 41.71,128.98 43.17,127.61 44.63,127.54 46.10,127.54 47.56,127.54 49.02,127.54 50.49,127.54 51.95,127.54 53.41,127.54 54.88,127.54 56.34,127.54 57.80,127.54 59.27,127.54 60.73,127.54 62.20,127.54 63.66,127.54 65.12,127.54 66.59,127.54 68.05,127.54 69.51,126.76 70.98,126.76 72.44,126.75 73.90,126.75 75.37,126.75 76.83,126.75 78.29,126.71 79.76,126.71 81.22,126.71 82.68,126.71 84.15,126.71 85.61,126.71 87.07,126.71 88.54,126.71 90.00,126.71 91.46,126.71 92.93,126.71 94.39,126.71 95.85,126.71 97.32,126.71 98.78,126.71 100.24,126.71 101.71,126.71 103.17,126.71 104.63,126.66 106.10,125.96 107.56,125.32 109.02,125.05 110.49,123.78 111.95,123.78 113.41,123.78 114.88,123.78 116.34,123.78 117.80,123.78 119.27,123.78 120.73,123.78 122.20,123.78 123.66,123.78 125.12,123.78 126.59,123.78 128.05,123.69 129.51,123.69 130.98,123.69 132.44,123.57 133.90,123.57 135.37,123.57 136.83,123.57 138.29,123.54 139.76,123.54 141.22,123.54 142.68,123.54 144.15,123.52 145.61,123.52 147.07,123.52 148.54,123.52 150.00,123.52 151.46,123.52 152.93,123.52 154.39,123.52 155.85,123.52 157.32,123.52 158.78,123.52 160.24,123.52 161.71,123.52 163.17,123.52 164.63,123.52 166.10,123.52 167.56,123.52 169.02,123.52 170.49,123.52 171.95,123.52 173.41,123.52 174.88,123.52 176.34,123.52 177.80,123.48 179.27,123.48 180.73,123.48 182.20,123.48 183.66,123.48 185.12,123.48 186.59,123.48 188.05,123.48 189.51,123.48 190.98,123.48 192.44,123.48 193.90,123.48 195.37,123.48 196.83,123.48 198.29,123.48 199.76,123.46 201.22,123.16 202.68,123.08 204.15,122.95 205.61,122.79 207.07,122.75 208.54,122.75 210.00,122.75 211.46,122.49 212.93,122.47 214.39,122.31 215.85,122.25 217.32,122.15 218.78,121.75 220.24,121.73 221.71,121.67 223.17,121.66 224.63,121.60 226.10,121.60 227.56,121.58 229.02,121.58 230.49,121.58 231.95,121.58 233.41,121.58 234.88,121.58 236.34,121.58 237.80,121.45 239.27,121.08 240.73,120.81 242.20,120.73 243.66,120.55 245.12,120.54 246.59,120.52 248.05,120.51 249.51,120.51 250.98,120.51 252.44,120.43 253.90,120.35 255.37,120.32 256.83,120.30 258.29,120.28 259.76,120.01 261.22,119.83 262.68,119.56 264.15,119.38 265.61,119.26 267.07,119.20 268.54,119.13 270.00,119.12 271.46,119.06 272.93,118.89 274.39,118.89 275.85,118.89 277.32,118.88 278.78,118.87 280.24,118.87 281.71,118.78 283.17,118.75 284.63,118.74 286.10,118.73 287.56,118.71 289.02,118.71 290.49,118.71 291.95,118.71 293.41,118.71 294.88,118.71 296.34,118.71 297.80,118.71 299.27,118.67 300.73,118.64 302.20,118.64 303.66,118.43 305.12,118.42 306.59,118.41 308.05,118.37 309.51,118.27 310.98,118.02 312.44,117.97 313.90,117.97 315.37,117.97 316.83,117.97 318.29,117.97 319.76,117.97 321.22,117.97 322.68,117.97 324.15,117.97 325.61,117.97 327.07,117.97 328.54,117.97 330.00,117.97 331.46,117.96 332.93,117.89 334.39,117.88 335.85,117.88 337.32,117.88 338.78,117.88 340.24,117.83 341.71,117.83 343.17,117.65 344.63,117.48 346.10,117.48 347.56,117.48 349.02,117.48 350.49,117.48 351.95,117.46 353.41,117.46 354.88,117.43 356.34,117.35 357.80,117.28 359.27,116.97 360.73,116.96 362.20,116.49 363.66,116.22 365.12,116.01 366.59,115.36 368.05,115.18 369.51,115.11 370.98,114.90 372.44,114.56 373.90,114.48 375.37,114.37 376.83,114.18 378.29,114.02 379.76,113.96 381.22,113.84 382.68,113.76 384.15,113.55 385.61,113.37 387.07,113.15 388.54,112.80 390.00,112.59 391.46,111.57 392.93,110.80 394.39,110.31 395.85,109.88 397.32,109.41 398.78,109.41 400.24,109.41 401.71,109.41 403.17,109.11 404.63,108.94 406.10,108.32 407.56,107.62 409.02,106.80 410.49,105.58 411.95,104.72 413.41,102.95 414.88,101.88 416.34,101.17 417.80,100.02 419.27,99.29 420.73,97.83 422.20,95.63 423.66,94.96 425.12,94.10 426.59,93.27 428.05,93.00 429.51,91.94 430.98,91.76 432.44,90.50 433.90,89.35 435.37,88.66 436.83,87.88 438.29,86.85 439.76,86.57 441.22,86.48 442.68,86.36 444.15,86.30 445.61,85.64 447.07,84.79 448.54,83.76 450.00,83.47 451.46,82.63 452.93,81.56 454.39,79.41 455.85,77.83 457.32,75.87 458.78,75.36 460.24,74.32 461.71,72.41 463.17,71.32 464.63,70.72 466.10,69.88 467.56,69.33 469.02,68.54 470.49,68.17 471.95,67.37 473.41,65.84 474.88,64.16 476.34,63.64 477.80,62.69 479.27,60.94 480.73,60.05 482.20,57.88 483.66,56.84 485.12,54.96 486.59,53.13 488.05,50.91 489.51,47.58 490.98,45.38 492.44,43.49 493.90,42.27 495.37,40.70 496.83,39.28 498.29,38.60 499.76,37.45 501.22,36.06 502.68,35.52 504.15,34.50 505.61,33.63 507.07,32.77 508.54,31.65 510.00,30.00" />
    </svg>
  