
    <svg width="540" height="160" xmlns="http://www.w3.org/2000/svg">
      <style>.line{fill:none;stroke:#388bfd;stroke-width:1.5}.axis{stroke:#555;stroke-width:1;opacity:0.5}.label{fill:#999;font-family:sans-serif;font-size:10px;text-anchor:middle}</style>
      <line class="axis" x1="30" y1="30" x2="30" y2="130" />
      <line class="axis" x1="30" y1="130" x2="510" y2="130" />
      <text class="label" x="15" y="30">5,209</text>
      <text class="label" x="15" y="134">0</text>
      <text class="label" x="30" y="148">2021</text>
      <text class="label" x="510" y="148">2026</text>
      <polyline class="line" points="30.00,129.96 31.51,129.94 33.03,129.92 34.54,129.92 36.05,129.92 37.57,129.67 39.08,129.67 40.59,129.67 42.11,128.29 43.62,126.01 45.13,125.89 46.65,125.89 48.16,125.89 49.67,125.89 51.19,125.89 52.70,125.89 54.21,125.89 55.73,125.89 57.24,125.89 58.75,125.89 60.27,125.89 61.78,125.89 63.29,125.89 64.81,125.89 66.32,125.89 67.83,125.89 69.35,125.89 70.86,124.59 72.38,124.59 73.89,124.57 75.40,124.57 76.92,124.57 78.43,124.57 79.94,124.49 81.46,124.49 82.97,124.49 84.48,124.49 86.00,124.49 87.51,124.49 89.02,124.49 90.54,124.49 92.05,124.49 93.56,124.49 95.08,124.49 96.59,124.49 98.10,124.49 99.62,124.49 101.13,124.49 102.64,124.49 104.16,124.49 105.67,124.49 107.18,124.41 108.70,123.24 110.21,122.17 111.72,121.73 113.24,119.59 114.75,119.59 116.26,119.59 117.78,119.59 119.29,119.59 120.80,119.59 122.32,119.59 123.83,119.59 125.34,119.59 126.86,119.59 128.37,119.59 129.88,119.59 131.40,119.44 132.91,119.44 134.42,119.44 135.94,119.25 137.45,119.25 138.96,119.25 140.48,119.25 141.99,119.19 143.50,119.19 145.02,119.19 146.53,119.19 148.05,119.15 149.56,119.15 151.07,119.15 152.59,119.15 154.10,119.15 155.61,119.15 157.13,119.15 158.64,119.15 160.15,119.15 161.67,119.15 163.18,119.15 164.69,119.15 166.21,119.15 167.72,119.15 169.23,119.15 170.75,119.15 172.26,119.15 173.77,119.15 175.29,119.15 176.80,119.15 178.31,119.15 179.83,119.15 181.34,119.15 182.85,119.10 184.37,119.10 185.88,119.10 187.39,119.10 188.91,119.10 190.42,119.10 191.93,119.10 193.45,119.10 194.96,119.10 196.47,119.10 197.99,119.10 199.50,119.10 201.01,119.10 202.53,119.10 204.04,119.10 205.55,119.06 207.07,118.56 208.58,118.42 210.09,118.21 211.61,117.94 213.12,117.87 214.63,117.87 216.15,117.87 217.66,117.44 219.17,117.41 220.69,117.14 222.20,117.04 223.72,116.87 225.23,116.20 226.74,116.16 228.26,116.06 229.77,116.04 231.28,115.95 232.80,115.95 234.31,115.91 235.82,115.91 237.34,115.91 238.85,115.91 240.36,115.91 241.88,115.91 243.39,115.91 244.90,115.70 246.42,115.08 247.93,114.62 249.44,114.49 250.96,114.20 252.47,114.18 253.98,114.14 255.50,114.12 257.01,114.12 258.52,114.12 260.04,113.99 261.55,113.85 263.06,113.82 264.58,113.78 266.09,113.74 267.60,113.30 269.12,112.99 270.63,112.53 272.14,112.24 273.66,112.03 275.17,111.94 276.68,111.82 278.20,111.80 279.71,111.70 281.22,111.42 282.74,111.42 284.25,111.42 285.76,111.40 287.28,111.38 288.79,111.38 290.30,111.22 291.82,111.19 293.33,111.17 294.84,111.15 296.36,111.11 297.87,111.11 299.39,111.11 300.90,111.11 302.41,111.11 303.93,111.11 305.44,111.11 306.95,111.11 308.47,111.05 309.98,110.99 311.49,110.99 313.01,110.65 314.52,110.63 316.03,110.61 317.55,110.55 319.06,110.38 320.57,109.96 322.09,109.88 323.60,109.88 325.11,109.88 326.63,109.88 328.14,109.88 329.65,109.88 331.17,109.88 332.68,109.88 334.19,109.88 335.71,109.88 337.22,109.88 338.73,109.88 340.25,109.88 341.76,109.86 343.27,109.75 344.79,109.73 346.30,109.73 347.81,109.73 349.33,109.73 350.84,109.65 352.35,109.65 353.87,109.34 355.38,109.06 356.89,109.06 358.41,109.06 359.92,109.06 361.43,109.06 362.95,109.02 364.46,109.02 365.97,108.98 367.49,108.84 369.00,108.73 370.51,108.21 372.03,108.19 373.54,107.40 375.06,106.94 376.57,106.60 378.08,105.50 379.60,105.22 381.11,105.10 382.62,104.74 384.14,104.18 385.65,104.04 387.16,103.85 388.68,103.55 390.19,103.28 391.70,103.16 393.22,102.97 394.73,102.84 396.24,102.49 397.76,102.18 399.27,101.82 400.78,101.22 402.30,100.88 403.81,99.17 405.32,97.88 406.84,97.06 408.35,96.35 409.86,95.56 411.38,95.56 412.89,95.56 414.40,95.56 415.92,95.06 417.43,94.77 418.94,94.14 420.46,93.41 421.97,92.41 423.48,90.84 425.00,89.95 426.51,88.34 428.02,87.40 429.54,86.81 431.05,85.83 432.56,85.06 434.08,83.75 435.59,81.85 437.10,81.30 438.62,80.49 440.13,79.80 441.64,79.57 443.16,78.68 444.67,78.53 446.18,77.48 447.70,76.52 449.21,75.94 450.73,75.27 452.24,74.35 453.75,74.08 455.27,73.94 456.78,73.81 458.29,73.69 459.81,72.96 461.32,72.14 462.83,70.83 464.35,70.45 465.86,69.78 467.37,68.68 468.89,66.24 470.40,64.40 471.91,62.35 473.43,61.91 474.94,61.00 476.45,59.18 477.97,58.07 479.48,57.45 480.99,56.53 482.51,56.05 484.02,55.38 485.53,55.07 487.05,54.04 488.56,52.48 490.07,51.00 491.59,50.56 493.10,49.79 494.61,48.41 496.13,47.37 497.64,45.84 499.15,45.05 500.67,43.48 502.18,41.38 503.69,39.60 505.21,35.82 506.72,33.15 508.23,31.31 509.75,30.00" />
    </svg>
  