
    <svg width="540" height="160" xmlns="http://www.w3.org/2000/svg">
      <style>.line{fill:none;stroke:#388bfd;stroke-width:1.5}.axis{stroke:#555;stroke-width:1;opacity:0.5}.label{fill:#999;font-family:sans-serif;font-size:10px;text-anchor:middle}</style>
      <line class="axis" x1="30" y1="30" x2="30" y2="130" />
      <line class="axis" x1="30" y1="130" x2="510" y2="130" />
      <text class="label" x="15" y="30">7,390</text>
      <text class="label" x="15" y="134">0</text>
      <text class="label" x="30" y="148">2021</text>
      <text class="label" x="510" y="148">2026</text>
      <polyline class="line" points="30.00,129.97 31.51,129.96 33.01,129.95 34.52,129.95 36.03,129.95 37.53,129.77 39.04,129.77 40.54,129.77 42.05,128.80 43.56,127.19 45.06,127.10 46.57,127.10 48.08,127.10 49.58,127.10 51.09,127.10 52.59,127.10 54.10,127.10 55.61,127.10 57.11,127.10 58.62,127.10 60.13,127.10 61.63,127.10 63.14,127.10 64.64,127.10 66.15,127.10 67.66,127.10 69.16,127.10 70.67,126.18 72.18,126.18 73.68,126.17 75.19,126.17 76.69,126.17 78.20,126.17 79.71,126.12 81.21,126.12 82.72,126.12 84.23,126.12 85.73,126.12 87.24,126.12 88.74,126.12 90.25,126.12 91.76,126.12 93.26,126.12 94.77,126.12 96.28,126.12 97.78,126.12 99.29,126.12 100.79,126.12 102.30,126.12 103.81,126.12 105.31,126.12 106.82,126.06 108.33,125.24 109.83,124.48 111.34,124.17 112.85,122.67 114.35,122.67 115.86,122.67 117.36,122.67 118.87,122.67 120.38,122.67 121.88,122.67 123.39,122.67 124.90,122.67 126.40,122.67 127.91,122.67 129.41,122.67 130.92,122.56 132.43,122.56 133.93,122.56 135.44,122.42 136.95,122.42 138.45,122.42 139.96,122.42 141.46,122.38 142.97,122.38 144.48,122.38 145.98,122.38 147.49,122.35 149.00,122.35 150.50,122.35 152.01,122.35 153.51,122.35 155.02,122.35 156.53,122.35 158.03,122.35 159.54,122.35 161.05,122.35 162.55,122.35 164.06,122.35 165.56,122.35 167.07,122.35 168.58,122.35 170.08,122.35 171.59,122.35 173.10,122.35 174.60,122.35 176.11,122.35 177.62,122.35 179.12,122.35 180.63,122.35 182.13,122.31 183.64,122.31 185.15,122.31 186.65,122.31 188.16,122.31 189.67,122.31 191.17,122.31 192.68,122.31 194.18,122.31 195.69,122.31 197.20,122.31 198.70,122.31 200.21,122.31 201.72,122.31 203.22,122.31 204.73,122.29 206.23,121.94 207.74,121.84 209.25,121.69 210.75,121.50 212.26,121.45 213.77,121.45 215.27,121.45 216.78,121.15 218.28,121.12 219.79,120.93 221.30,120.87 222.80,120.74 224.31,120.27 225.82,120.24 227.32,120.18 228.83,120.16 230.33,120.09 231.84,120.09 233.35,120.07 234.85,120.07 236.36,120.07 237.87,120.07 239.37,120.07 240.88,120.07 242.38,120.07 243.89,119.92 245.40,119.49 246.90,119.16 248.41,119.07 249.92,118.86 251.42,118.85 252.93,118.82 254.44,118.81 255.94,118.81 257.45,118.81 258.95,118.71 260.46,118.62 261.97,118.59 263.47,118.57 264.98,118.54 266.49,118.23 267.99,118.01 269.50,117.69 271.00,117.48 272.51,117.33 274.02,117.27 275.52,117.19 277.03,117.17 278.54,117.10 280.04,116.90 281.55,116.90 283.05,116.90 284.56,116.89 286.07,116.87 287.57,116.87 289.08,116.77 290.59,116.74 292.09,116.73 293.60,116.71 295.10,116.68 296.61,116.68 298.12,116.68 299.62,116.68 301.13,116.68 302.64,116.68 304.14,116.68 305.65,116.68 307.15,116.64 308.66,116.60 310.17,116.60 311.67,116.36 313.18,116.35 314.69,116.33 316.19,116.29 317.70,116.17 319.21,115.87 320.71,115.82 322.22,115.82 323.72,115.82 325.23,115.82 326.74,115.82 328.24,115.82 329.75,115.82 331.26,115.82 332.76,115.82 334.27,115.82 335.77,115.82 337.28,115.82 338.79,115.82 340.29,115.81 341.80,115.72 343.31,115.71 344.81,115.71 346.32,115.71 347.82,115.71 349.33,115.66 350.84,115.66 352.34,115.44 353.85,115.24 355.36,115.24 356.86,115.24 358.37,115.24 359.87,115.24 361.38,115.21 362.89,115.21 364.39,115.18 365.90,115.09 367.41,115.01 368.91,114.64 370.42,114.63 371.92,114.07 373.43,113.75 374.94,113.50 376.44,112.73 377.95,112.53 379.46,112.45 380.96,112.19 382.47,111.80 383.97,111.71 385.48,111.57 386.99,111.35 388.49,111.16 390.00,111.08 391.51,110.95 393.01,110.85 394.52,110.61 396.03,110.39 397.53,110.14 399.04,109.72 400.54,109.47 402.05,108.27 403.56,107.36 405.06,106.78 406.57,106.28 408.08,105.72 409.58,105.72 411.09,105.72 412.59,105.72 414.10,105.37 415.61,105.17 417.11,104.44 418.62,103.61 420.13,102.65 421.63,101.20 423.14,100.19 424.64,98.11 426.15,96.85 427.66,96.01 429.16,94.65 430.67,93.79 432.18,92.07 433.68,89.47 435.19,88.69 436.69,87.67 438.20,86.70 439.71,86.37 441.21,85.13 442.72,84.91 444.23,83.42 445.73,82.07 447.24,81.26 448.74,80.34 450.25,79.12 451.76,78.80 453.26,78.69 454.77,78.55 456.28,78.47 457.78,77.70 459.29,76.70 460.79,75.48 462.30,75.14 463.81,74.15 465.31,72.88 466.82,70.35 468.33,68.48 469.83,66.18 471.34,65.58 472.85,64.36 474.35,62.10 475.86,60.81 477.36,60.11 478.87,59.12 480.38,58.47 481.88,57.54 483.39,57.10 484.90,56.16 486.40,54.36 487.91,52.37 489.41,51.76 490.92,50.83 492.43,49.58 493.93,48.69 495.44,47.29 496.95,46.43 498.45,44.59 499.96,42.64 501.46,40.92 502.97,37.51 504.48,35.40 505.98,33.36 507.49,32.22 509.00,30.55" />
    </svg>
  