
    <svg width="540" height="160" xmlns="http://www.w3.org/2000/svg">
      <style>.line{fill:none;stroke:#388bfd;stroke-width:1.5}.axis{stroke:#555;stroke-width:1;opacity:0.5}.label{fill:#999;font-family:sans-serif;font-size:10px;text-anchor:middle}</style>
      <line class="axis" x1="30" y1="30" x2="30" y2="130" />
      <line class="axis" x1="30" y1="130" x2="510" y2="130" />
      <text class="label" x="15" y="30">8,560</text>
      <text class="label" x="15" y="134">0</text>
      <text class="label" x="30" y="148">2021</text>
      <text class="label" x="510" y="148">2026</text>
      <polyline class="line" points="30.00,129.98 31.47,129.96 32.94,129.95 34.40,129.95 35.87,129.95 37.34,129.80 38.81,129.80 40.28,129.80 41.74,128.96 43.21,127.57 44.68,127.50 46.15,127.50 47.61,127.50 49.08,127.50 50.55,127.50 52.02,127.50 53.49,127.50 54.95,127.50 56.42,127.50 57.89,127.50 59.36,127.50 60.83,127.50 62.29,127.50 63.76,127.50 65.23,127.50 66.70,127.50 68.17,127.50 69.63,126.71 71.10,126.71 72.57,126.69 74.04,126.69 75.50,126.69 76.97,126.69 78.44,126.65 79.91,126.65 81.38,126.65 82.84,126.65 84.31,126.65 85.78,126.65 87.25,126.65 88.72,126.65 90.18,126.65 91.65,126.65 93.12,126.65 94.59,126.65 96.06,126.65 97.52,126.65 98.99,126.65 100.46,126.65 101.93,126.65 103.39,126.65 104.86,126.60 106.33,125.89 107.80,125.23 109.27,124.96 110.73,123.67 112.20,123.67 113.67,123.67 115.14,123.67 116.61,123.67 118.07,123.67 119.54,123.67 121.01,123.67 122.48,123.67 123.94,123.67 125.41,123.67 126.88,123.67 128.35,123.57 129.82,123.57 131.28,123.57 132.75,123.46 134.22,123.46 135.69,123.46 137.16,123.46 138.62,123.42 140.09,123.42 141.56,123.42 143.03,123.42 144.50,123.40 145.96,123.40 147.43,123.40 148.90,123.40 150.37,123.40 151.83,123.40 153.30,123.40 154.77,123.40 156.24,123.40 157.71,123.40 159.17,123.40 160.64,123.40 162.11,123.40 163.58,123.40 165.05,123.40 166.51,123.40 167.98,123.40 169.45,123.40 170.92,123.40 172.39,123.40 173.85,123.40 175.32,123.40 176.79,123.40 178.26,123.36 179.72,123.36 181.19,123.36 182.66,123.36 184.13,123.36 185.60,123.36 187.06,123.36 188.53,123.36 190.00,123.36 191.47,123.36 192.94,123.36 194.40,123.36 195.87,123.36 197.34,123.36 198.81,123.36 200.28,123.34 201.74,123.04 203.21,122.96 204.68,122.83 206.15,122.66 207.61,122.62 209.08,122.62 210.55,122.62 212.02,122.36 213.49,122.34 214.95,122.17 216.42,122.11 217.89,122.01 219.36,121.60 220.83,121.58 222.29,121.52 223.76,121.51 225.23,121.45 226.70,121.45 228.17,121.43 229.63,121.43 231.10,121.43 232.57,121.43 234.04,121.43 235.50,121.43 236.97,121.43 238.44,121.30 239.91,120.92 241.38,120.64 242.84,120.56 244.31,120.39 245.78,120.37 247.25,120.35 248.72,120.34 250.18,120.34 251.65,120.34 253.12,120.26 254.59,120.18 256.06,120.15 257.52,120.13 258.99,120.11 260.46,119.84 261.93,119.65 263.39,119.37 264.86,119.19 266.33,119.07 267.80,119.01 269.27,118.94 270.73,118.93 272.20,118.87 273.67,118.69 275.14,118.69 276.61,118.69 278.07,118.68 279.54,118.67 281.01,118.67 282.48,118.57 283.94,118.55 285.41,118.54 286.88,118.53 288.35,118.50 289.82,118.50 291.28,118.50 292.75,118.50 294.22,118.50 295.69,118.50 297.16,118.50 298.62,118.50 300.09,118.47 301.56,118.43 303.03,118.43 304.50,118.22 305.96,118.21 307.43,118.20 308.90,118.17 310.37,118.06 311.83,117.80 313.30,117.76 314.77,117.76 316.24,117.76 317.71,117.76 319.17,117.76 320.64,117.76 322.11,117.76 323.58,117.76 325.05,117.76 326.51,117.76 327.98,117.76 329.45,117.76 330.92,117.76 332.39,117.75 333.85,117.68 335.32,117.66 336.79,117.66 338.26,117.66 339.72,117.66 341.19,117.62 342.66,117.62 344.13,117.43 345.60,117.25 347.06,117.25 348.53,117.25 350.00,117.25 351.47,117.25 352.94,117.23 354.40,117.23 355.87,117.21 357.34,117.13 358.81,117.06 360.28,116.74 361.74,116.73 363.21,116.25 364.68,115.97 366.15,115.76 367.61,115.09 369.08,114.92 370.55,114.85 372.02,114.63 373.49,114.29 374.95,114.21 376.42,114.09 377.89,113.90 379.36,113.74 380.83,113.67 382.29,113.55 383.76,113.47 385.23,113.26 386.70,113.07 388.17,112.85 389.63,112.49 391.10,112.28 392.57,111.24 394.04,110.46 395.50,109.95 396.97,109.52 398.44,109.04 399.91,109.04 401.38,109.04 402.84,109.04 404.31,108.74 405.78,108.56 407.25,107.93 408.72,107.22 410.18,106.39 411.65,105.14 413.12,104.26 414.59,102.46 416.06,101.38 417.52,100.65 418.99,99.49 420.46,98.74 421.93,97.25 423.39,95.01 424.86,94.33 426.33,93.46 427.80,92.62 429.27,92.34 430.73,91.26 432.20,91.07 433.67,89.79 435.14,88.62 436.61,87.92 438.07,87.13 439.54,86.07 441.01,85.79 442.48,85.70 443.94,85.58 445.41,85.51 446.88,84.85 448.35,83.98 449.82,82.93 451.28,82.64 452.75,81.79 454.22,80.69 455.69,78.50 457.16,76.89 458.62,74.91 460.09,74.38 461.56,73.33 463.03,71.38 464.50,70.27 465.96,69.66 467.43,68.81 468.90,68.25 470.37,67.44 471.83,67.07 473.30,66.25 474.77,64.70 476.24,62.98 477.71,62.45 479.17,61.48 480.64,59.71 482.11,58.80 483.58,56.59 485.05,55.54 486.51,53.62 487.98,51.75 489.45,49.50 490.92,46.11 492.39,43.87 493.85,41.94 495.32,40.70 496.79,39.10 498.26,37.66 499.72,36.96 501.19,35.79 502.66,34.38 504.13,33.83 505.60,32.79 507.06,31.90 508.53,31.03 510.00,30.00" />
    </svg>
  