
    <svg width="540" height="160" xmlns="http://www.w3.org/2000/svg">
      <style>.line{fill:none;stroke:#388bfd;stroke-width:1.5}.axis{stroke:#555;stroke-width:1;opacity:0.5}.label{fill:#999;font-family:sans-serif;font-size:10px;text-anchor:middle}</style>
      <line class="axis" x1="30" y1="30" x2="30" y2="130" />
      <line class="axis" x1="30" y1="130" x2="510" y2="130" />
      <text class="label" x="15" y="30">5,204</text>
      <text class="label" x="15" y="134">0</text>
      <text class="label" x="30" y="148">2021</text>
      <text class="label" x="510" y="148">2026</text>
      <polyline class="line" points="30.00,129.96 31.52,129.94 33.03,129.92 34.55,129.92 36.06,129.92 37.58,129.67 39.09,129.67 40.61,129.67 42.13,128.29 43.64,126.00 45.16,125.89 46.67,125.89 48.19,125.89 49.71,125.89 51.22,125.89 52.74,125.89 54.25,125.89 55.77,125.89 57.28,125.89 58.80,125.89 60.32,125.89 61.83,125.89 63.35,125.89 64.86,125.89 66.38,125.89 67.89,125.89 69.41,125.89 70.93,124.58 72.44,124.58 73.96,124.56 75.47,124.56 76.99,124.56 78.51,124.56 80.02,124.49 81.54,124.49 83.05,124.49 84.57,124.49 86.08,124.49 87.60,124.49 89.12,124.49 90.63,124.49 92.15,124.49 93.66,124.49 95.18,124.49 96.69,124.49 98.21,124.49 99.73,124.49 101.24,124.49 102.76,124.49 104.27,124.49 105.79,124.49 107.31,124.41 108.82,123.24 110.34,122.16 111.85,121.72 113.37,119.58 114.88,119.58 116.40,119.58 117.92,119.58 119.43,119.58 120.95,119.58 122.46,119.58 123.98,119.58 125.49,119.58 127.01,119.58 128.53,119.58 130.04,119.58 131.56,119.43 133.07,119.43 134.59,119.43 136.11,119.24 137.62,119.24 139.14,119.24 140.65,119.24 142.17,119.18 143.68,119.18 145.20,119.18 146.72,119.18 148.23,119.14 149.75,119.14 151.26,119.14 152.78,119.14 154.29,119.14 155.81,119.14 157.33,119.14 158.84,119.14 160.36,119.14 161.87,119.14 163.39,119.14 164.91,119.14 166.42,119.14 167.94,119.14 169.45,119.14 170.97,119.14 172.48,119.14 174.00,119.14 175.52,119.14 177.03,119.14 178.55,119.14 180.06,119.14 181.58,119.14 183.09,119.09 184.61,119.09 186.13,119.09 187.64,119.09 189.16,119.09 190.67,119.09 192.19,119.09 193.71,119.09 195.22,119.09 196.74,119.09 198.25,119.09 199.77,119.09 201.28,119.09 202.80,119.09 204.32,119.09 205.83,119.05 207.35,118.55 208.86,118.41 210.38,118.20 211.89,117.93 213.41,117.86 214.93,117.86 216.44,117.86 217.96,117.43 219.47,117.39 220.99,117.13 222.51,117.03 224.02,116.86 225.54,116.18 227.05,116.15 228.57,116.05 230.08,116.03 231.60,115.93 233.12,115.93 234.63,115.90 236.15,115.90 237.66,115.90 239.18,115.90 240.69,115.90 242.21,115.90 243.73,115.90 245.24,115.68 246.76,115.07 248.27,114.61 249.79,114.47 251.31,114.19 252.82,114.17 254.34,114.13 255.85,114.11 257.37,114.11 258.88,114.11 260.40,113.97 261.92,113.84 263.43,113.80 264.95,113.76 266.46,113.72 267.98,113.28 269.49,112.97 271.01,112.51 272.53,112.23 274.04,112.01 275.56,111.92 277.07,111.80 278.59,111.78 280.11,111.69 281.62,111.40 283.14,111.40 284.65,111.40 286.17,111.38 287.68,111.36 289.20,111.36 290.72,111.21 292.23,111.17 293.75,111.15 295.26,111.13 296.78,111.09 298.29,111.09 299.81,111.09 301.33,111.09 302.84,111.09 304.36,111.09 305.87,111.09 307.39,111.09 308.91,111.03 310.42,110.98 311.94,110.98 313.45,110.63 314.97,110.61 316.48,110.59 318.00,110.53 319.52,110.36 321.03,109.94 322.55,109.86 324.06,109.86 325.58,109.86 327.09,109.86 328.61,109.86 330.13,109.86 331.64,109.86 333.16,109.86 334.67,109.86 336.19,109.86 337.71,109.86 339.22,109.86 340.74,109.86 342.25,109.84 343.77,109.73 345.28,109.71 346.80,109.71 348.32,109.71 349.83,109.71 351.35,109.63 352.86,109.63 354.38,109.32 355.89,109.04 357.41,109.04 358.93,109.04 360.44,109.04 361.96,109.04 363.47,109.00 364.99,109.00 366.51,108.96 368.02,108.82 369.54,108.71 371.05,108.19 372.57,108.17 374.08,107.38 375.60,106.92 377.12,106.58 378.63,105.48 380.15,105.19 381.66,105.08 383.18,104.71 384.69,104.15 386.21,104.02 387.73,103.83 389.24,103.52 390.76,103.25 392.27,103.14 393.79,102.94 395.31,102.81 396.82,102.46 398.34,102.16 399.85,101.79 401.37,101.20 402.88,100.85 404.40,99.14 405.92,97.85 407.43,97.03 408.95,96.31 410.46,95.53 411.98,95.53 413.49,95.53 415.01,95.53 416.53,95.03 418.04,94.74 419.56,94.10 421.07,93.37 422.59,92.38 424.11,90.80 425.62,89.92 427.14,88.30 428.65,87.36 430.17,86.76 431.68,85.78 433.20,85.02 434.72,83.71 436.23,81.81 437.75,81.25 439.26,80.44 440.78,79.75 442.29,79.52 443.81,78.64 445.33,78.48 446.84,77.43 448.36,76.46 449.87,75.89 451.39,75.22 452.91,74.29 454.42,74.02 455.94,73.89 457.45,73.75 458.97,73.64 460.48,72.91 462.00,72.08 463.52,70.78 465.03,70.39 466.55,69.72 468.06,68.62 469.58,66.18 471.09,64.34 472.61,62.28 474.13,61.84 475.64,60.94 477.16,59.11 478.67,58.00 480.19,57.38 481.71,56.46 483.22,55.98 484.74,55.31 486.25,55.00 487.77,53.96 489.28,52.41 490.80,50.93 492.32,50.48 493.83,49.72 495.35,48.33 496.86,47.29 498.38,45.76 499.89,44.97 501.41,43.39 502.93,41.30 504.44,39.51 505.96,35.73 507.47,33.06 508.99,31.21" />
    </svg>
  