
    <svg width="540" height="160" xmlns="http://www.w3.org/2000/svg">
      <style>.line{fill:none;stroke:#388bfd;stroke-width:1.5}.axis{stroke:#555;stroke-width:1;opacity:0.5}.label{fill:#999;font-family:sans-serif;font-size:10px;text-anchor:middle}</style>
      <line class="axis" x1="30" y1="30" x2="30" y2="130" />
      <line class="axis" x1="30" y1="130" x2="510" y2="130" />
      <text class="label" x="15" y="30">5,062</text>
      <text class="label" x="15" y="134">0</text>
      <text class="label" x="30" y="148">2021</text>
      <text class="label" x="510" y="148">2026</text>
      <polyline class="line" points="30.00,129.96 31.52,129.94 33.04,129.92 34.57,129.92 36.09,129.92 37.61,129.66 39.13,129.66 40.66,129.66 42.18,128.24 43.70,125.89 45.22,125.77 46.74,125.77 48.27,125.77 49.79,125.77 51.31,125.77 52.83,125.77 54.36,125.77 55.88,125.77 57.40,125.77 58.92,125.77 60.44,125.77 61.97,125.77 63.49,125.77 65.01,125.77 66.53,125.77 68.05,125.77 69.58,125.77 71.10,124.43 72.62,124.43 74.14,124.41 75.67,124.41 77.19,124.41 78.71,124.41 80.23,124.33 81.75,124.33 83.28,124.33 84.80,124.33 86.32,124.33 87.84,124.33 89.37,124.33 90.89,124.33 92.41,124.33 93.93,124.33 95.45,124.33 96.98,124.33 98.50,124.33 100.02,124.33 101.54,124.33 103.07,124.33 104.59,124.33 106.11,124.33 107.63,124.25 109.15,123.05 110.68,121.94 112.20,121.49 113.72,119.29 115.24,119.29 116.77,119.29 118.29,119.29 119.81,119.29 121.33,119.29 122.85,119.29 124.38,119.29 125.90,119.29 127.42,119.29 128.94,119.29 130.47,119.29 131.99,119.13 133.51,119.13 135.03,119.13 136.55,118.94 138.08,118.94 139.60,118.94 141.12,118.94 142.64,118.88 144.16,118.88 145.69,118.88 147.21,118.88 148.73,118.84 150.25,118.84 151.78,118.84 153.30,118.84 154.82,118.84 156.34,118.84 157.86,118.84 159.39,118.84 160.91,118.84 162.43,118.84 163.95,118.84 165.48,118.84 167.00,118.84 168.52,118.84 170.04,118.84 171.56,118.84 173.09,118.84 174.61,118.84 176.13,118.84 177.65,118.84 179.18,118.84 180.70,118.84 182.22,118.84 183.74,118.78 185.26,118.78 186.79,118.78 188.31,118.78 189.83,118.78 191.35,118.78 192.88,118.78 194.40,118.78 195.92,118.78 197.44,118.78 198.96,118.78 200.49,118.78 202.01,118.78 203.53,118.78 205.05,118.78 206.58,118.74 208.10,118.23 209.62,118.09 211.14,117.87 212.66,117.59 214.19,117.51 215.71,117.51 217.23,117.51 218.75,117.08 220.27,117.04 221.80,116.76 223.32,116.67 224.84,116.49 226.36,115.80 227.89,115.76 229.41,115.66 230.93,115.64 232.45,115.54 233.97,115.54 235.50,115.50 237.02,115.50 238.54,115.50 240.06,115.50 241.59,115.50 243.11,115.50 244.63,115.50 246.15,115.28 247.67,114.65 249.20,114.18 250.72,114.04 252.24,113.74 253.76,113.72 255.29,113.68 256.81,113.66 258.33,113.66 259.85,113.66 261.37,113.52 262.90,113.39 264.42,113.35 265.94,113.31 267.46,113.27 268.99,112.81 270.51,112.50 272.03,112.02 273.55,111.73 275.07,111.51 276.60,111.41 278.12,111.29 279.64,111.27 281.16,111.17 282.68,110.88 284.21,110.88 285.73,110.88 287.25,110.86 288.77,110.84 290.30,110.84 291.82,110.68 293.34,110.64 294.86,110.62 296.38,110.60 297.91,110.56 299.43,110.56 300.95,110.56 302.47,110.56 304.00,110.56 305.52,110.56 307.04,110.56 308.56,110.56 310.08,110.50 311.61,110.44 313.13,110.44 314.65,110.09 316.17,110.07 317.70,110.05 319.22,109.99 320.74,109.81 322.26,109.38 323.78,109.30 325.31,109.30 326.83,109.30 328.35,109.30 329.87,109.30 331.40,109.30 332.92,109.30 334.44,109.30 335.96,109.30 337.48,109.30 339.01,109.30 340.53,109.30 342.05,109.30 343.57,109.28 345.10,109.16 346.62,109.14 348.14,109.14 349.66,109.14 351.18,109.14 352.71,109.06 354.23,109.06 355.75,108.74 357.27,108.45 358.79,108.45 360.32,108.45 361.84,108.45 363.36,108.45 364.88,108.41 366.41,108.41 367.93,108.37 369.45,108.23 370.97,108.11 372.49,107.58 374.02,107.56 375.54,106.75 377.06,106.27 378.58,105.92 380.11,104.79 381.63,104.50 383.15,104.38 384.67,104.00 386.19,103.43 387.72,103.29 389.24,103.09 390.76,102.78 392.28,102.50 393.81,102.38 395.33,102.18 396.85,102.05 398.37,101.69 399.89,101.37 401.42,101.00 402.94,100.39 404.46,100.03 405.98,98.27 407.51,96.95 409.03,96.10 410.55,95.37 412.07,94.56 413.59,94.56 415.12,94.56 416.64,94.56 418.16,94.05 419.68,93.75 421.21,93.10 422.73,92.35 424.25,91.32 425.77,89.70 427.29,88.79 428.82,87.13 430.34,86.16 431.86,85.55 433.38,84.54 434.90,83.75 436.43,82.41 437.95,80.45 439.47,79.88 440.99,79.05 442.52,78.34 444.04,78.10 445.56,77.19 447.08,77.04 448.60,75.95 450.13,74.96 451.65,74.37 453.17,73.68 454.69,72.73 456.22,72.45 457.74,72.32 459.26,72.18 460.78,72.06 462.30,71.31 463.83,70.46 465.35,69.11 466.87,68.72 468.39,68.03 469.92,66.90 471.44,64.39 472.96,62.50 474.48,60.38 476.00,59.93 477.53,59.00 479.05,57.12 480.57,55.98 482.09,55.35 483.62,54.40 485.14,53.90 486.66,53.21 488.18,52.90 489.70,51.83 491.23,50.23 492.75,48.71 494.27,48.25 495.79,47.46 497.32,46.04 498.84,44.97 500.36,43.39 501.88,42.58 503.40,40.96 504.93,38.81 506.45,36.97 507.97,33.08 509.49,30.34" />
    </svg>
  