
    <svg width="540" height="160" xmlns="http://www.w3.org/2000/svg">
      <style>.line{fill:none;stroke:#388bfd;stroke-width:1.5}.axis{stroke:#555;stroke-width:1;opacity:0.5}.label{fill:#999;font-family:sans-serif;font-size:10px;text-anchor:middle}</style>
      <line class="axis" x1="30" y1="30" x2="30" y2="130" />
      <line class="axis" x1="30" y1="130" x2="510" y2="130" />
      <text class="label" x="15" y="30">4,151</text>
      <text class="label" x="15" y="134">0</text>
      <text class="label" x="30" y="148">2021</text>
      <text class="label" x="510" y="148">2026</text>
      <polyline class="line" points="30.00,129.95 31.53,129.93 33.06,129.90 34.59,129.90 36.12,129.90 37.65,129.59 39.18,129.59 40.71,129.59 42.24,127.86 43.77,124.99 45.29,124.84 46.82,124.84 48.35,124.84 49.88,124.84 51.41,124.84 52.94,124.84 54.47,124.84 56.00,124.84 57.53,124.84 59.06,124.84 60.59,124.84 62.12,124.84 63.65,124.84 65.18,124.84 66.71,124.84 68.24,124.84 69.77,124.84 71.30,123.21 72.83,123.21 74.35,123.18 75.88,123.18 77.41,123.18 78.94,123.18 80.47,123.09 82.00,123.09 83.53,123.09 85.06,123.09 86.59,123.09 88.12,123.09 89.65,123.09 91.18,123.09 92.71,123.09 94.24,123.09 95.77,123.09 97.30,123.09 98.83,123.09 100.36,123.09 101.89,123.09 103.41,123.09 104.94,123.09 106.47,123.09 108.00,122.99 109.53,121.52 111.06,120.17 112.59,119.62 114.12,116.94 115.65,116.94 117.18,116.94 118.71,116.94 120.24,116.94 121.77,116.94 123.30,116.94 124.83,116.94 126.36,116.94 127.89,116.94 129.42,116.94 130.95,116.94 132.47,116.75 134.00,116.75 135.53,116.75 137.06,116.51 138.59,116.51 140.12,116.51 141.65,116.51 143.18,116.44 144.71,116.44 146.24,116.44 147.77,116.44 149.30,116.39 150.83,116.39 152.36,116.39 153.89,116.39 155.42,116.39 156.95,116.39 158.48,116.39 160.01,116.39 161.53,116.39 163.06,116.39 164.59,116.39 166.12,116.39 167.65,116.39 169.18,116.39 170.71,116.39 172.24,116.39 173.77,116.39 175.30,116.39 176.83,116.39 178.36,116.39 179.89,116.39 181.42,116.39 182.95,116.39 184.48,116.32 186.01,116.32 187.54,116.32 189.07,116.32 190.59,116.32 192.12,116.32 193.65,116.32 195.18,116.32 196.71,116.32 198.24,116.32 199.77,116.32 201.30,116.32 202.83,116.32 204.36,116.32 205.89,116.32 207.42,116.27 208.95,115.64 210.48,115.47 212.01,115.21 213.54,114.87 215.07,114.77 216.60,114.77 218.13,114.77 219.65,114.24 221.18,114.20 222.71,113.86 224.24,113.74 225.77,113.52 227.30,112.68 228.83,112.63 230.36,112.51 231.89,112.49 233.42,112.37 234.95,112.37 236.48,112.32 238.01,112.32 239.54,112.32 241.07,112.32 242.60,112.32 244.13,112.32 245.66,112.32 247.19,112.05 248.71,111.28 250.24,110.70 251.77,110.53 253.30,110.17 254.83,110.15 256.36,110.10 257.89,110.08 259.42,110.08 260.95,110.08 262.48,109.91 264.01,109.74 265.54,109.69 267.07,109.64 268.60,109.60 270.13,109.04 271.66,108.66 273.19,108.08 274.72,107.72 276.25,107.45 277.77,107.33 279.30,107.19 280.83,107.16 282.36,107.04 283.89,106.68 285.42,106.68 286.95,106.68 288.48,106.66 290.01,106.63 291.54,106.63 293.07,106.44 294.60,106.39 296.13,106.37 297.66,106.34 299.19,106.29 300.72,106.29 302.25,106.29 303.78,106.29 305.31,106.29 306.83,106.29 308.36,106.29 309.89,106.29 311.42,106.22 312.95,106.15 314.48,106.15 316.01,105.72 317.54,105.69 319.07,105.67 320.60,105.60 322.13,105.38 323.66,104.85 325.19,104.75 326.72,104.75 328.25,104.75 329.78,104.75 331.31,104.75 332.84,104.75 334.37,104.75 335.89,104.75 337.42,104.75 338.95,104.75 340.48,104.75 342.01,104.75 343.54,104.75 345.07,104.73 346.60,104.58 348.13,104.56 349.66,104.56 351.19,104.56 352.72,104.56 354.25,104.46 355.78,104.46 357.31,104.08 358.84,103.72 360.37,103.72 361.90,103.72 363.43,103.72 364.95,103.72 366.48,103.67 368.01,103.67 369.54,103.62 371.07,103.45 372.60,103.31 374.13,102.66 375.66,102.63 377.19,101.65 378.72,101.07 380.25,100.63 381.78,99.26 383.31,99.04 384.84,99.00 386.37,99.00 387.90,99.00 389.43,99.00 390.96,98.95 392.49,98.83 394.01,98.83 395.54,98.83 397.07,98.83 398.60,98.83 400.13,98.83 401.66,98.78 403.19,98.73 404.72,98.73 406.25,98.73 407.78,98.68 409.31,98.68 410.84,98.49 412.37,98.39 413.90,98.39 415.43,98.39 416.96,98.39 418.49,98.39 420.02,98.39 421.55,98.39 423.07,97.86 424.60,97.31 426.13,96.85 427.66,96.23 429.19,95.50 430.72,93.79 432.25,92.73 433.78,91.99 435.31,90.76 436.84,89.79 438.37,88.15 439.90,85.79 441.43,85.10 442.96,84.08 444.49,83.22 446.02,82.93 447.55,81.82 449.08,81.63 450.61,80.30 452.13,79.10 453.66,78.37 455.19,77.53 456.72,76.37 458.25,76.04 459.78,75.87 461.31,75.70 462.84,75.56 464.37,74.64 465.90,73.60 467.43,71.97 468.96,71.48 470.49,70.64 472.02,69.27 473.55,66.21 475.08,63.90 476.61,61.32 478.14,60.76 479.67,59.63 481.19,57.34 482.72,55.95 484.25,55.17 485.78,54.02 487.31,53.42 488.84,52.57 490.37,52.19 491.90,50.89 493.43,48.94 494.96,47.08 496.49,46.53 498.02,45.56 499.55,43.83 501.08,42.53 502.61,40.60 504.14,39.61 505.67,37.64 507.20,35.01 508.73,32.77" />
    </svg>
  