
    <svg width="540" height="160" xmlns="http://www.w3.org/2000/svg">
      <style>.line{fill:none;stroke:#388bfd;stroke-width:1.5}.axis{stroke:#555;stroke-width:1;opacity:0.5}.label{fill:#999;font-family:sans-serif;font-size:10px;text-anchor:middle}</style>
      <line class="axis" x1="30" y1="30" x2="30" y2="130" />
      <line class="axis" x1="30" y1="130" x2="510" y2="130" />
      <text class="label" x="15" y="30">4,136</text>
      <text class="label" x="15" y="134">0</text>
      <text class="label" x="30" y="148">2021</text>
      <text class="label" x="510" y="148">2026</text>
      <polyline class="line" points="30.00,129.95 31.53,129.93 33.06,129.90 34.59,129.90 36.12,129.90 37.65,129.59 39.18,129.59 40.71,129.59 42.24,127.85 43.77,124.97 45.30,124.83 46.83,124.83 48.36,124.83 49.89,124.83 51.42,124.83 52.95,124.83 54.48,124.83 56.01,124.83 57.55,124.83 59.08,124.83 60.61,124.83 62.14,124.83 63.67,124.83 65.20,124.83 66.73,124.83 68.26,124.83 69.79,124.83 71.32,123.18 72.85,123.18 74.38,123.16 75.91,123.16 77.44,123.16 78.97,123.16 80.50,123.06 82.03,123.06 83.56,123.06 85.09,123.06 86.62,123.06 88.15,123.06 89.68,123.06 91.21,123.06 92.74,123.06 94.27,123.06 95.80,123.06 97.33,123.06 98.86,123.06 100.39,123.06 101.92,123.06 103.45,123.06 104.98,123.06 106.51,123.06 108.04,122.96 109.57,121.49 111.11,120.14 112.64,119.58 114.17,116.90 115.70,116.90 117.23,116.90 118.76,116.90 120.29,116.90 121.82,116.90 123.35,116.90 124.88,116.90 126.41,116.90 127.94,116.90 129.47,116.90 131.00,116.90 132.53,116.70 134.06,116.70 135.59,116.70 137.12,116.46 138.65,116.46 140.18,116.46 141.71,116.46 143.24,116.39 144.77,116.39 146.30,116.39 147.83,116.39 149.36,116.34 150.89,116.34 152.42,116.34 153.95,116.34 155.48,116.34 157.01,116.34 158.54,116.34 160.07,116.34 161.60,116.34 163.13,116.34 164.67,116.34 166.20,116.34 167.73,116.34 169.26,116.34 170.79,116.34 172.32,116.34 173.85,116.34 175.38,116.34 176.91,116.34 178.44,116.34 179.97,116.34 181.50,116.34 183.03,116.34 184.56,116.27 186.09,116.27 187.62,116.27 189.15,116.27 190.68,116.27 192.21,116.27 193.74,116.27 195.27,116.27 196.80,116.27 198.33,116.27 199.86,116.27 201.39,116.27 202.92,116.27 204.45,116.27 205.98,116.27 207.51,116.22 209.04,115.59 210.57,115.42 212.10,115.15 213.63,114.82 215.16,114.72 216.70,114.72 218.23,114.72 219.76,114.19 221.29,114.14 222.82,113.80 224.35,113.68 225.88,113.46 227.41,112.62 228.94,112.57 230.47,112.45 232.00,112.42 233.53,112.30 235.06,112.30 236.59,112.25 238.12,112.25 239.65,112.25 241.18,112.25 242.71,112.25 244.24,112.25 245.77,112.25 247.30,111.99 248.83,111.21 250.36,110.63 251.89,110.46 253.42,110.10 254.95,110.08 256.48,110.03 258.01,110.00 259.54,110.00 261.07,110.00 262.60,109.84 264.13,109.67 265.66,109.62 267.19,109.57 268.72,109.52 270.26,108.97 271.79,108.58 273.32,108.00 274.85,107.64 276.38,107.37 277.91,107.25 279.44,107.10 280.97,107.08 282.50,106.96 284.03,106.60 285.56,106.60 287.09,106.60 288.62,106.57 290.15,106.55 291.68,106.55 293.21,106.35 294.74,106.31 296.27,106.28 297.80,106.26 299.33,106.21 300.86,106.21 302.39,106.21 303.92,106.21 305.45,106.21 306.98,106.21 308.51,106.21 310.04,106.21 311.57,106.14 313.10,106.06 314.63,106.06 316.16,105.63 317.69,105.60 319.22,105.58 320.75,105.51 322.28,105.29 323.82,104.76 325.35,104.66 326.88,104.66 328.41,104.66 329.94,104.66 331.47,104.66 333.00,104.66 334.53,104.66 336.06,104.66 337.59,104.66 339.12,104.66 340.65,104.66 342.18,104.66 343.71,104.66 345.24,104.64 346.77,104.49 348.30,104.47 349.83,104.47 351.36,104.47 352.89,104.47 354.42,104.37 355.95,104.37 357.48,103.98 359.01,103.62 360.54,103.62 362.07,103.62 363.60,103.62 365.13,103.62 366.66,103.57 368.19,103.57 369.72,103.53 371.25,103.36 372.78,103.21 374.31,102.56 375.84,102.53 377.38,101.54 378.91,100.96 380.44,100.53 381.97,99.15 383.50,98.93 385.03,98.88 386.56,98.88 388.09,98.88 389.62,98.88 391.15,98.83 392.68,98.71 394.21,98.71 395.74,98.71 397.27,98.71 398.80,98.71 400.33,98.71 401.86,98.67 403.39,98.62 404.92,98.62 406.45,98.62 407.98,98.57 409.51,98.57 411.04,98.38 412.57,98.28 414.10,98.28 415.63,98.28 417.16,98.28 418.69,98.28 420.22,98.28 421.75,98.28 423.28,97.75 424.81,97.19 426.34,96.73 427.87,96.10 429.40,95.38 430.94,93.66 432.47,92.60 434.00,91.85 435.53,90.61 437.06,89.65 438.59,88.00 440.12,85.63 441.65,84.93 443.18,83.92 444.71,83.05 446.24,82.76 447.77,81.64 449.30,81.45 450.83,80.12 452.36,78.91 453.89,78.19 455.42,77.34 456.95,76.18 458.48,75.84 460.01,75.67 461.54,75.50 463.07,75.36 464.60,74.44 466.13,73.40 467.66,71.76 469.19,71.27 470.72,70.43 472.25,69.05 473.78,65.98 475.31,63.66 476.84,61.07 478.37,60.51 479.90,59.38 481.43,57.08 482.96,55.68 484.50,54.90 486.03,53.74 487.56,53.14 489.09,52.29 490.62,51.91 492.15,50.60 493.68,48.64 495.21,46.78 496.74,46.22 498.27,45.26 499.80,43.52 501.33,42.21 502.86,40.28 504.39,39.28 505.92,37.30 507.45,34.67 508.98,32.42" />
    </svg>
  