
    <svg width="540" height="160" xmlns="http://www.w3.org/2000/svg">
      <style>.line{fill:none;stroke:#388bfd;stroke-width:1.5}.axis{stroke:#555;stroke-width:1;opacity:0.5}.label{fill:#999;font-family:sans-serif;font-size:10px;text-anchor:middle}</style>
      <line class="axis" x1="30" y1="30" x2="30" y2="130" />
      <line class="axis" x1="30" y1="130" x2="510" y2="130" />
      <text class="label" x="15" y="30">7,343</text>
      <text class="label" x="15" y="134">0</text>
      <text class="label" x="30" y="148">2021</text>
      <text class="label" x="510" y="148">2026</text>
      <polyline class="line" points="30.00,129.97 31.51,129.96 33.02,129.95 34.53,129.95 36.04,129.95 37.55,129.77 39.06,129.77 40.57,129.77 42.08,128.79 43.58,127.17 45.09,127.09 46.60,127.09 48.11,127.09 49.62,127.09 51.13,127.09 52.64,127.09 54.15,127.09 55.66,127.09 57.17,127.09 58.68,127.09 60.19,127.09 61.70,127.09 63.21,127.09 64.72,127.09 66.23,127.09 67.74,127.09 69.25,127.09 70.75,126.16 72.26,126.16 73.77,126.15 75.28,126.15 76.79,126.15 78.30,126.15 79.81,126.09 81.32,126.09 82.83,126.09 84.34,126.09 85.85,126.09 87.36,126.09 88.87,126.09 90.38,126.09 91.89,126.09 93.40,126.09 94.91,126.09 96.42,126.09 97.92,126.09 99.43,126.09 100.94,126.09 102.45,126.09 103.96,126.09 105.47,126.09 106.98,126.04 108.49,125.21 110.00,124.44 111.51,124.13 113.02,122.62 114.53,122.62 116.04,122.62 117.55,122.62 119.06,122.62 120.57,122.62 122.08,122.62 123.58,122.62 125.09,122.62 126.60,122.62 128.11,122.62 129.62,122.62 131.13,122.51 132.64,122.51 134.15,122.51 135.66,122.37 137.17,122.37 138.68,122.37 140.19,122.37 141.70,122.33 143.21,122.33 144.72,122.33 146.23,122.33 147.74,122.31 149.25,122.31 150.75,122.31 152.26,122.31 153.77,122.31 155.28,122.31 156.79,122.31 158.30,122.31 159.81,122.31 161.32,122.31 162.83,122.31 164.34,122.31 165.85,122.31 167.36,122.31 168.87,122.31 170.38,122.31 171.89,122.31 173.40,122.31 174.91,122.31 176.42,122.31 177.92,122.31 179.43,122.31 180.94,122.31 182.45,122.26 183.96,122.26 185.47,122.26 186.98,122.26 188.49,122.26 190.00,122.26 191.51,122.26 193.02,122.26 194.53,122.26 196.04,122.26 197.55,122.26 199.06,122.26 200.57,122.26 202.08,122.26 203.58,122.26 205.09,122.24 206.60,121.88 208.11,121.79 209.62,121.64 211.13,121.45 212.64,121.39 214.15,121.39 215.66,121.39 217.17,121.09 218.68,121.07 220.19,120.88 221.70,120.81 223.21,120.69 224.72,120.21 226.23,120.18 227.74,120.11 229.25,120.10 230.75,120.03 232.26,120.03 233.77,120.00 235.28,120.00 236.79,120.00 238.30,120.00 239.81,120.00 241.32,120.00 242.83,120.00 244.34,119.85 245.85,119.42 247.36,119.09 248.87,119.00 250.38,118.79 251.89,118.78 253.40,118.75 254.91,118.74 256.42,118.74 257.92,118.74 259.43,118.64 260.94,118.55 262.45,118.52 263.96,118.49 265.47,118.47 266.98,118.15 268.49,117.93 270.00,117.61 271.51,117.40 273.02,117.25 274.53,117.19 276.04,117.10 277.55,117.09 279.06,117.02 280.57,116.82 282.08,116.82 283.58,116.82 285.09,116.80 286.60,116.79 288.11,116.79 289.62,116.68 291.13,116.65 292.64,116.64 294.15,116.63 295.66,116.60 297.17,116.60 298.68,116.60 300.19,116.60 301.70,116.60 303.21,116.60 304.72,116.60 306.23,116.60 307.74,116.56 309.25,116.52 310.75,116.52 312.26,116.27 313.77,116.26 315.28,116.25 316.79,116.20 318.30,116.08 319.81,115.78 321.32,115.73 322.83,115.73 324.34,115.73 325.85,115.73 327.36,115.73 328.87,115.73 330.38,115.73 331.89,115.73 333.40,115.73 334.91,115.73 336.42,115.73 337.92,115.73 339.43,115.73 340.94,115.71 342.45,115.63 343.96,115.62 345.47,115.62 346.98,115.62 348.49,115.62 350.00,115.56 351.51,115.56 353.02,115.35 354.53,115.14 356.04,115.14 357.55,115.14 359.06,115.14 360.57,115.14 362.08,115.12 363.58,115.12 365.09,115.09 366.60,114.99 368.11,114.91 369.62,114.54 371.13,114.53 372.64,113.97 374.15,113.64 375.66,113.40 377.17,112.62 378.68,112.42 380.19,112.34 381.70,112.08 383.21,111.68 384.72,111.59 386.23,111.45 387.74,111.23 389.25,111.04 390.75,110.96 392.26,110.83 393.77,110.73 395.28,110.48 396.79,110.27 398.30,110.01 399.81,109.59 401.32,109.34 402.83,108.13 404.34,107.22 405.85,106.63 407.36,106.13 408.87,105.57 410.38,105.57 411.89,105.57 413.40,105.57 414.91,105.21 416.42,105.01 417.92,104.27 419.43,103.44 420.94,102.48 422.45,101.02 423.96,100.00 425.47,97.90 426.98,96.63 428.49,95.79 430.00,94.43 431.51,93.56 433.02,91.83 434.53,89.21 436.04,88.42 437.55,87.40 439.06,86.42 440.57,86.09 442.08,84.84 443.58,84.62 445.09,83.13 446.60,81.76 448.11,80.95 449.62,80.02 451.13,78.79 452.64,78.47 454.15,78.36 455.66,78.22 457.17,78.14 458.68,77.36 460.19,76.36 461.70,75.13 463.21,74.79 464.72,73.80 466.23,72.52 467.74,69.97 469.25,68.09 470.75,65.78 472.26,65.16 473.77,63.94 475.28,61.66 476.79,60.37 478.30,59.66 479.81,58.67 481.32,58.01 482.83,57.07 484.34,56.64 485.85,55.68 487.36,53.87 488.87,51.87 490.38,51.26 491.89,50.32 493.40,49.07 494.91,48.17 496.42,46.76 497.92,45.89 499.43,44.04 500.94,42.08 502.45,40.35 503.96,36.92 505.47,34.79 506.98,32.74 508.49,31.59 510.00,30.00" />
    </svg>
  