
    <svg width="540" height="160" xmlns="http://www.w3.org/2000/svg">
      <style>.line{fill:none;stroke:#388bfd;stroke-width:1.5}.axis{stroke:#555;stroke-width:1;opacity:0.5}.label{fill:#999;font-family:sans-serif;font-size:10px;text-anchor:middle}</style>
      <line class="axis" x1="30" y1="30" x2="30" y2="130" />
      <line class="axis" x1="30" y1="130" x2="510" y2="130" />
      <text class="label" x="15" y="30">4,200</text>
      <text class="label" x="15" y="134">0</text>
      <text class="label" x="30" y="148">2021</text>
      <text class="label" x="510" y="148">2026</text>
      <polyline class="line" points="30.00,129.95 31.53,129.93 33.06,129.90 34.59,129.90 36.11,129.90 37.64,129.60 39.17,129.60 40.70,129.60 42.23,127.88 43.76,125.05 45.29,124.90 46.82,124.90 48.34,124.90 49.87,124.90 51.40,124.90 52.93,124.90 54.46,124.90 55.99,124.90 57.52,124.90 59.04,124.90 60.57,124.90 62.10,124.90 63.63,124.90 65.16,124.90 66.69,124.90 68.22,124.90 69.75,124.90 71.27,123.29 72.80,123.29 74.33,123.26 75.86,123.26 77.39,123.26 78.92,123.26 80.45,123.17 81.97,123.17 83.50,123.17 85.03,123.17 86.56,123.17 88.09,123.17 89.62,123.17 91.15,123.17 92.68,123.17 94.20,123.17 95.73,123.17 97.26,123.17 98.79,123.17 100.32,123.17 101.85,123.17 103.38,123.17 104.90,123.17 106.43,123.17 107.96,123.07 109.49,121.62 111.02,120.29 112.55,119.74 114.08,117.10 115.61,117.10 117.13,117.10 118.66,117.10 120.19,117.10 121.72,117.10 123.25,117.10 124.78,117.10 126.31,117.10 127.83,117.10 129.36,117.10 130.89,117.10 132.42,116.90 133.95,116.90 135.48,116.90 137.01,116.67 138.54,116.67 140.06,116.67 141.59,116.67 143.12,116.60 144.65,116.60 146.18,116.60 147.71,116.60 149.24,116.55 150.76,116.55 152.29,116.55 153.82,116.55 155.35,116.55 156.88,116.55 158.41,116.55 159.94,116.55 161.46,116.55 162.99,116.55 164.52,116.55 166.05,116.55 167.58,116.55 169.11,116.55 170.64,116.55 172.17,116.55 173.69,116.55 175.22,116.55 176.75,116.55 178.28,116.55 179.81,116.55 181.34,116.55 182.87,116.55 184.39,116.48 185.92,116.48 187.45,116.48 188.98,116.48 190.51,116.48 192.04,116.48 193.57,116.48 195.10,116.48 196.62,116.48 198.15,116.48 199.68,116.48 201.21,116.48 202.74,116.48 204.27,116.48 205.80,116.48 207.32,116.43 208.85,115.81 210.38,115.64 211.91,115.38 213.44,115.05 214.97,114.95 216.50,114.95 218.03,114.95 219.55,114.43 221.08,114.38 222.61,114.05 224.14,113.93 225.67,113.71 227.20,112.88 228.73,112.83 230.25,112.71 231.78,112.69 233.31,112.57 234.84,112.57 236.37,112.52 237.90,112.52 239.43,112.52 240.96,112.52 242.48,112.52 244.01,112.52 245.54,112.52 247.07,112.26 248.60,111.50 250.13,110.93 251.66,110.76 253.18,110.40 254.71,110.38 256.24,110.33 257.77,110.31 259.30,110.31 260.83,110.31 262.36,110.14 263.89,109.98 265.41,109.93 266.94,109.88 268.47,109.83 270.00,109.29 271.53,108.90 273.06,108.33 274.59,107.98 276.11,107.71 277.64,107.60 279.17,107.45 280.70,107.43 282.23,107.31 283.76,106.95 285.29,106.95 286.82,106.95 288.34,106.93 289.87,106.90 291.40,106.90 292.93,106.71 294.46,106.67 295.99,106.64 297.52,106.62 299.04,106.57 300.57,106.57 302.10,106.57 303.63,106.57 305.16,106.57 306.69,106.57 308.22,106.57 309.75,106.57 311.27,106.50 312.80,106.43 314.33,106.43 315.86,106.00 317.39,105.98 318.92,105.95 320.45,105.88 321.97,105.67 323.50,105.14 325.03,105.05 326.56,105.05 328.09,105.05 329.62,105.05 331.15,105.05 332.68,105.05 334.20,105.05 335.73,105.05 337.26,105.05 338.79,105.05 340.32,105.05 341.85,105.05 343.38,105.05 344.90,105.02 346.43,104.88 347.96,104.86 349.49,104.86 351.02,104.86 352.55,104.86 354.08,104.76 355.61,104.76 357.13,104.38 358.66,104.02 360.19,104.02 361.72,104.02 363.25,104.02 364.78,104.02 366.31,103.98 367.83,103.98 369.36,103.93 370.89,103.76 372.42,103.62 373.95,102.98 375.48,102.95 377.01,101.98 378.54,101.40 380.06,100.98 381.59,99.62 383.12,99.40 384.65,99.36 386.18,99.36 387.71,99.36 389.24,99.36 390.76,99.31 392.29,99.19 393.82,99.19 395.35,99.19 396.88,99.19 398.41,99.19 399.94,99.19 401.46,99.14 402.99,99.10 404.52,99.10 406.05,99.10 407.58,99.05 409.11,99.05 410.64,98.86 412.17,98.76 413.69,98.76 415.22,98.76 416.75,98.76 418.28,98.76 419.81,98.76 421.34,98.76 422.87,98.24 424.39,97.69 425.92,97.24 427.45,96.62 428.98,95.90 430.51,94.21 432.04,93.17 433.57,92.43 435.10,91.21 436.62,90.26 438.15,88.64 439.68,86.31 441.21,85.62 442.74,84.62 444.27,83.76 445.80,83.48 447.32,82.38 448.85,82.19 450.38,80.88 451.91,79.69 453.44,78.98 454.97,78.14 456.50,77.00 458.03,76.67 459.55,76.50 461.08,76.33 462.61,76.19 464.14,75.29 465.67,74.26 467.20,72.64 468.73,72.17 470.25,71.33 471.78,69.98 473.31,66.95 474.84,64.67 476.37,62.12 477.90,61.57 479.43,60.45 480.96,58.19 482.48,56.81 484.01,56.05 485.54,54.90 487.07,54.31 488.60,53.48 490.13,53.10 491.66,51.81 493.18,49.88 494.71,48.05 496.24,47.50 497.77,46.55 499.30,44.83 500.83,43.55 502.36,41.64 503.89,40.67 505.41,38.71 506.94,36.12 508.47,33.90 510.00,30.00" />
    </svg>
  