
    <svg width="540" height="160" xmlns="http://www.w3.org/2000/svg">
      <style>.line{fill:none;stroke:#388bfd;stroke-width:1.5}.axis{stroke:#555;stroke-width:1;opacity:0.5}.label{fill:#999;font-family:sans-serif;font-size:10px;text-anchor:middle}</style>
      <line class="axis" x1="30" y1="30" x2="30" y2="130" />
      <line class="axis" x1="30" y1="130" x2="510" y2="130" />
      <text class="label" x="15" y="30">9,515</text>
      <text class="label" x="15" y="134">0</text>
      <text class="label" x="30" y="148">2021</text>
      <text class="label" x="510" y="148">2026</text>
      <polyline class="line" points="30.00,129.98 31.43,129.97 32.85,129.96 34.28,129.96 35.71,129.96 37.14,129.82 38.56,129.82 39.99,129.82 41.42,129.06 42.84,127.81 44.27,127.75 45.70,127.75 47.13,127.75 48.55,127.75 49.98,127.75 51.41,127.75 52.83,127.75 54.26,127.75 55.69,127.75 57.12,127.75 58.54,127.75 59.97,127.75 61.40,127.75 62.82,127.75 64.25,127.75 65.68,127.75 67.11,127.75 68.53,127.04 69.96,127.04 71.39,127.03 72.81,127.03 74.24,127.03 75.67,127.03 77.10,126.98 78.52,126.98 79.95,126.98 81.38,126.98 82.80,126.98 84.23,126.98 85.66,126.98 87.09,126.98 88.51,126.98 89.94,126.98 91.37,126.98 92.79,126.98 94.22,126.98 95.65,126.98 97.08,126.98 98.50,126.98 99.93,126.98 101.36,126.98 102.78,126.94 104.21,126.30 105.64,125.71 107.07,125.47 108.49,124.30 109.92,124.30 111.35,124.30 112.78,124.30 114.20,124.30 115.63,124.30 117.06,124.30 118.48,124.30 119.91,124.30 121.34,124.30 122.77,124.30 124.19,124.30 125.62,124.22 127.05,124.22 128.47,124.22 129.90,124.11 131.33,124.11 132.76,124.11 134.18,124.11 135.61,124.08 137.04,124.08 138.46,124.08 139.89,124.08 141.32,124.06 142.75,124.06 144.17,124.06 145.60,124.06 147.03,124.06 148.45,124.06 149.88,124.06 151.31,124.06 152.74,124.06 154.16,124.06 155.59,124.06 157.02,124.06 158.44,124.06 159.87,124.06 161.30,124.06 162.73,124.06 164.15,124.06 165.58,124.06 167.01,124.06 168.43,124.06 169.86,124.06 171.29,124.06 172.72,124.06 174.14,124.03 175.57,124.03 177.00,124.03 178.42,124.03 179.85,124.03 181.28,124.03 182.71,124.03 184.13,124.03 185.56,124.03 186.99,124.03 188.41,124.03 189.84,124.03 191.27,124.03 192.70,124.03 194.12,124.03 195.55,124.01 196.98,123.74 198.40,123.66 199.83,123.55 201.26,123.40 202.69,123.36 204.11,123.36 205.54,123.36 206.97,123.13 208.39,123.11 209.82,122.96 211.25,122.91 212.68,122.81 214.10,122.44 215.53,122.42 216.96,122.37 218.38,122.36 219.81,122.31 221.24,122.31 222.67,122.29 224.09,122.29 225.52,122.29 226.95,122.29 228.37,122.29 229.80,122.29 231.23,122.29 232.66,122.17 234.08,121.83 235.51,121.58 236.94,121.51 238.36,121.35 239.79,121.34 241.22,121.32 242.65,121.31 244.07,121.31 245.50,121.31 246.93,121.23 248.35,121.16 249.78,121.14 251.21,121.12 252.64,121.10 254.06,120.86 255.49,120.69 256.92,120.44 258.34,120.28 259.77,120.16 261.20,120.11 262.63,120.05 264.05,120.04 265.48,119.98 266.91,119.83 268.33,119.83 269.76,119.83 271.19,119.82 272.62,119.81 274.04,119.81 275.47,119.72 276.90,119.70 278.33,119.69 279.75,119.68 281.18,119.66 282.61,119.66 284.03,119.66 285.46,119.66 286.89,119.66 288.32,119.66 289.74,119.66 291.17,119.66 292.60,119.63 294.02,119.60 295.45,119.60 296.88,119.41 298.31,119.40 299.73,119.39 301.16,119.35 302.59,119.26 304.01,119.03 305.44,118.99 306.87,118.99 308.30,118.99 309.72,118.99 311.15,118.99 312.58,118.99 314.00,118.99 315.43,118.99 316.86,118.99 318.29,118.99 319.71,118.99 321.14,118.99 322.57,118.99 323.99,118.98 325.42,118.91 326.85,118.90 328.28,118.90 329.70,118.90 331.13,118.90 332.56,118.86 333.98,118.86 335.41,118.69 336.84,118.53 338.27,118.53 339.69,118.53 341.12,118.53 342.55,118.53 343.97,118.51 345.40,118.51 346.83,118.49 348.26,118.42 349.68,118.36 351.11,118.07 352.54,118.06 353.96,117.63 355.39,117.38 356.82,117.19 358.25,116.59 359.67,116.43 361.10,116.37 362.53,116.17 363.95,115.86 365.38,115.79 366.81,115.69 368.24,115.52 369.66,115.37 371.09,115.31 372.52,115.20 373.94,115.13 375.37,114.94 376.80,114.77 378.23,114.57 379.65,114.25 381.08,114.06 382.51,113.12 383.93,112.42 385.36,111.97 386.79,111.58 388.22,111.15 389.64,111.15 391.07,111.15 392.50,111.15 393.92,110.87 395.35,110.71 396.78,110.15 398.21,109.51 399.63,108.76 401.06,107.64 402.49,106.85 403.91,105.23 405.34,104.25 406.77,103.60 408.20,102.55 409.62,101.88 411.05,100.54 412.48,98.52 413.90,97.91 415.33,97.13 416.76,96.37 418.19,96.12 419.61,95.15 421.04,94.98 422.47,93.83 423.89,92.77 425.32,92.14 426.75,91.43 428.18,90.48 429.60,90.23 431.03,90.15 432.46,90.04 433.89,89.98 435.31,89.38 436.74,88.60 438.17,87.66 439.59,87.39 441.02,86.63 442.45,85.64 443.88,83.67 445.30,82.22 446.73,80.44 448.16,79.96 449.58,79.02 451.01,77.26 452.44,76.26 453.87,75.72 455.29,74.95 456.72,74.45 458.15,73.72 459.57,73.38 461.00,72.65 462.43,71.25 463.86,69.71 465.28,69.23 466.71,68.36 468.14,66.76 469.56,65.94 470.99,63.96 472.42,63.01 473.85,61.29 475.27,59.61 476.70,57.58 478.13,54.53 479.55,52.51 480.98,50.78 482.41,49.66 483.84,48.22 485.26,46.93 486.69,46.30 488.12,45.25 489.54,43.98 490.97,43.26 492.40,42.17 493.83,41.34 495.25,40.55 496.68,39.36 498.11,37.20 499.53,35.47 500.96,34.00 502.39,32.80 503.82,32.35 505.24,31.79 506.67,31.32 508.10,30.80 509.52,30.06" />
    </svg>
  