
    <svg width="540" height="160" xmlns="http://www.w3.org/2000/svg">
      <style>.line{fill:none;stroke:#388bfd;stroke-width:1.5}.axis{stroke:#555;stroke-width:1;opacity:0.5}.label{fill:#999;font-family:sans-serif;font-size:10px;text-anchor:middle}</style>
      <line class="axis" x1="30" y1="30" x2="30" y2="130" />
      <line class="axis" x1="30" y1="130" x2="510" y2="130" />
      <text class="label" x="15" y="30">9,142</text>
      <text class="label" x="15" y="134">0</text>
      <text class="label" x="30" y="148">2021</text>
      <text class="label" x="510" y="148">2026</text>
      <polyline class="line" points="30.00,129.98 31.45,129.97 32.91,129.96 34.36,129.96 35.82,129.96 37.27,129.81 38.72,129.81 40.18,129.81 41.63,129.03 43.08,127.72 44.54,127.66 45.99,127.66 47.45,127.66 48.90,127.66 50.35,127.66 51.81,127.66 53.26,127.66 54.71,127.66 56.17,127.66 57.62,127.66 59.08,127.66 60.53,127.66 61.98,127.66 63.44,127.66 64.89,127.66 66.35,127.66 67.80,127.66 69.25,126.92 70.71,126.92 72.16,126.90 73.61,126.90 75.07,126.90 76.52,126.90 77.98,126.86 79.43,126.86 80.88,126.86 82.34,126.86 83.79,126.86 85.24,126.86 86.70,126.86 88.15,126.86 89.61,126.86 91.06,126.86 92.51,126.86 93.97,126.86 95.42,126.86 96.88,126.86 98.33,126.86 99.78,126.86 101.24,126.86 102.69,126.86 104.14,126.82 105.60,126.15 107.05,125.54 108.51,125.29 109.96,124.07 111.41,124.07 112.87,124.07 114.32,124.07 115.77,124.07 117.23,124.07 118.68,124.07 120.14,124.07 121.59,124.07 123.04,124.07 124.50,124.07 125.95,124.07 127.41,123.98 128.86,123.98 130.31,123.98 131.77,123.87 133.22,123.87 134.67,123.87 136.13,123.87 137.58,123.84 139.04,123.84 140.49,123.84 141.94,123.84 143.40,123.82 144.85,123.82 146.30,123.82 147.76,123.82 149.21,123.82 150.67,123.82 152.12,123.82 153.57,123.82 155.03,123.82 156.48,123.82 157.94,123.82 159.39,123.82 160.84,123.82 162.30,123.82 163.75,123.82 165.20,123.82 166.66,123.82 168.11,123.82 169.57,123.82 171.02,123.82 172.47,123.82 173.93,123.82 175.38,123.82 176.83,123.79 178.29,123.79 179.74,123.79 181.20,123.79 182.65,123.79 184.10,123.79 185.56,123.79 187.01,123.79 188.47,123.79 189.92,123.79 191.37,123.79 192.83,123.79 194.28,123.79 195.73,123.79 197.19,123.79 198.64,123.77 200.10,123.48 201.55,123.40 203.00,123.28 204.46,123.13 205.91,123.09 207.36,123.09 208.82,123.09 210.27,122.85 211.73,122.82 213.18,122.67 214.63,122.62 216.09,122.52 217.54,122.14 219.00,122.11 220.45,122.06 221.90,122.05 223.36,121.99 224.81,121.99 226.26,121.97 227.72,121.97 229.17,121.97 230.63,121.97 232.08,121.97 233.53,121.97 234.99,121.97 236.44,121.85 237.90,121.50 239.35,121.24 240.80,121.16 242.26,121.00 243.71,120.99 245.16,120.96 246.62,120.95 248.07,120.95 249.53,120.95 250.98,120.88 252.43,120.80 253.89,120.78 255.34,120.76 256.79,120.74 258.25,120.48 259.70,120.31 261.16,120.05 262.61,119.88 264.06,119.76 265.52,119.71 266.97,119.64 268.43,119.63 269.88,119.58 271.33,119.41 272.79,119.41 274.24,119.41 275.69,119.40 277.15,119.39 278.60,119.39 280.06,119.30 281.51,119.28 282.96,119.27 284.42,119.26 285.87,119.24 287.32,119.24 288.78,119.24 290.23,119.24 291.69,119.24 293.14,119.24 294.59,119.24 296.05,119.24 297.50,119.20 298.96,119.17 300.41,119.17 301.86,118.97 303.32,118.96 304.77,118.95 306.22,118.92 307.68,118.82 309.13,118.58 310.59,118.54 312.04,118.54 313.49,118.54 314.95,118.54 316.40,118.54 317.85,118.54 319.31,118.54 320.76,118.54 322.22,118.54 323.67,118.54 325.12,118.54 326.58,118.54 328.03,118.54 329.49,118.53 330.94,118.46 332.39,118.45 333.85,118.45 335.30,118.45 336.75,118.45 338.21,118.41 339.66,118.41 341.12,118.23 342.57,118.07 344.02,118.07 345.48,118.07 346.93,118.07 348.38,118.07 349.84,118.04 351.29,118.04 352.75,118.02 354.20,117.95 355.65,117.88 357.11,117.58 358.56,117.57 360.02,117.13 361.47,116.86 362.92,116.67 364.38,116.04 365.83,115.88 367.28,115.81 368.74,115.60 370.19,115.29 371.65,115.21 373.10,115.10 374.55,114.93 376.01,114.77 377.46,114.71 378.91,114.60 380.37,114.52 381.82,114.33 383.28,114.15 384.73,113.94 386.18,113.60 387.64,113.41 389.09,112.43 390.55,111.70 392.00,111.23 393.45,110.82 394.91,110.38 396.36,110.38 397.81,110.38 399.27,110.38 400.72,110.09 402.18,109.93 403.63,109.34 405.08,108.67 406.54,107.89 407.99,106.72 409.44,105.90 410.90,104.22 412.35,103.20 413.81,102.52 415.26,101.43 416.71,100.73 418.17,99.34 419.62,97.24 421.08,96.60 422.53,95.78 423.98,95.00 425.44,94.73 426.89,93.73 428.34,93.55 429.80,92.35 431.25,91.26 432.71,90.60 434.16,89.86 435.61,88.87 437.07,88.61 438.52,88.52 439.97,88.41 441.43,88.35 442.88,87.72 444.34,86.91 445.79,85.93 447.24,85.66 448.70,84.86 450.15,83.83 451.61,81.78 453.06,80.27 454.51,78.41 455.97,77.92 457.42,76.94 458.87,75.11 460.33,74.07 461.78,73.50 463.24,72.70 464.69,72.18 466.14,71.42 467.60,71.07 469.05,70.31 470.50,68.85 471.96,67.25 473.41,66.75 474.87,65.85 476.32,64.18 477.77,63.33 479.23,61.26 480.68,60.28 482.14,58.48 483.59,56.73 485.04,54.62 486.50,51.45 487.95,49.35 489.40,47.55 490.86,46.39 492.31,44.89 493.77,43.54 495.22,42.89 496.67,41.79 498.13,40.47 499.58,39.72 501.03,38.59 502.49,37.72 503.94,36.90 505.40,35.67 506.85,33.41 508.30,31.66 509.76,30.14" />
    </svg>
  