
    <svg width="540" height="160" xmlns="http://www.w3.org/2000/svg">
      <style>.line{fill:none;stroke:#4ec9b0;stroke-width:1.5}.axis{stroke:#555;stroke-width:1;opacity:0.5}.label{fill:#999;font-family:sans-serif;font-size:10px;text-anchor:middle}</style>
      <line class="axis" x1="30" y1="30" x2="30" y2="130" />
      <line class="axis" x1="30" y1="130" x2="510" y2="130" />
      <text class="label" x="15" y="30">4,133</text>
      <text class="label" x="15" y="134">0</text>
      <text class="label" x="30" y="148">2021</text>
      <text class="label" x="510" y="148">2026</text>
      <polyline class="line" points="30.00,129.95 31.53,129.93 33.06,129.90 34.59,129.90 36.12,129.90 37.65,129.59 39.18,129.59 40.71,129.59 42.24,127.85 43.77,124.97 45.30,124.82 46.83,124.82 48.36,124.82 49.89,124.82 51.42,124.82 52.95,124.82 54.48,124.82 56.01,124.82 57.55,124.82 59.08,124.82 60.61,124.82 62.14,124.82 63.67,124.82 65.20,124.82 66.73,124.82 68.26,124.82 69.79,124.82 71.32,123.18 72.85,123.18 74.38,123.15 75.91,123.15 77.44,123.15 78.97,123.15 80.50,123.06 82.03,123.06 83.56,123.06 85.09,123.06 86.62,123.06 88.15,123.06 89.68,123.06 91.21,123.06 92.74,123.06 94.27,123.06 95.80,123.06 97.33,123.06 98.86,123.06 100.39,123.06 101.92,123.06 103.45,123.06 104.98,123.06 106.51,123.06 108.04,122.96 109.57,121.48 111.11,120.13 112.64,119.57 114.17,116.89 115.70,116.89 117.23,116.89 118.76,116.89 120.29,116.89 121.82,116.89 123.35,116.89 124.88,116.89 126.41,116.89 127.94,116.89 129.47,116.89 131.00,116.89 132.53,116.69 134.06,116.69 135.59,116.69 137.12,116.45 138.65,116.45 140.18,116.45 141.71,116.45 143.24,116.38 144.77,116.38 146.30,116.38 147.83,116.38 149.36,116.33 150.89,116.33 152.42,116.33 153.95,116.33 155.48,116.33 157.01,116.33 158.54,116.33 160.07,116.33 161.60,116.33 163.13,116.33 164.67,116.33 166.20,116.33 167.73,116.33 169.26,116.33 170.79,116.33 172.32,116.33 173.85,116.33 175.38,116.33 176.91,116.33 178.44,116.33 179.97,116.33 181.50,116.33 183.03,116.33 184.56,116.26 186.09,116.26 187.62,116.26 189.15,116.26 190.68,116.26 192.21,116.26 193.74,116.26 195.27,116.26 196.80,116.26 198.33,116.26 199.86,116.26 201.39,116.26 202.92,116.26 204.45,116.26 205.98,116.26 207.51,116.21 209.04,115.58 210.57,115.41 212.10,115.14 213.63,114.81 215.16,114.71 216.70,114.71 218.23,114.71 219.76,114.18 221.29,114.13 222.82,113.79 224.35,113.67 225.88,113.45 227.41,112.60 228.94,112.56 230.47,112.43 232.00,112.41 233.53,112.29 235.06,112.29 236.59,112.24 238.12,112.24 239.65,112.24 241.18,112.24 242.71,112.24 244.24,112.24 245.77,112.24 247.30,111.97 248.83,111.20 250.36,110.62 251.89,110.45 253.42,110.09 254.95,110.06 256.48,110.01 258.01,109.99 259.54,109.99 261.07,109.99 262.60,109.82 264.13,109.65 265.66,109.60 267.19,109.55 268.72,109.51 270.26,108.95 271.79,108.56 273.32,107.98 274.85,107.62 276.38,107.35 277.91,107.23 279.44,107.09 280.97,107.06 282.50,106.94 284.03,106.58 285.56,106.58 287.09,106.58 288.62,106.55 290.15,106.53 291.68,106.53 293.21,106.34 294.74,106.29 296.27,106.26 297.80,106.24 299.33,106.19 300.86,106.19 302.39,106.19 303.92,106.19 305.45,106.19 306.98,106.19 308.51,106.19 310.04,106.19 311.57,106.12 313.10,106.05 314.63,106.05 316.16,105.61 317.69,105.59 319.22,105.56 320.75,105.49 322.28,105.27 323.82,104.74 325.35,104.64 326.88,104.64 328.41,104.64 329.94,104.64 331.47,104.64 333.00,104.64 334.53,104.64 336.06,104.64 337.59,104.64 339.12,104.64 340.65,104.64 342.18,104.64 343.71,104.64 345.24,104.62 346.77,104.47 348.30,104.45 349.83,104.45 351.36,104.45 352.89,104.45 354.42,104.35 355.95,104.35 357.48,103.97 359.01,103.60 360.54,103.60 362.07,103.60 363.60,103.60 365.13,103.60 366.66,103.55 368.19,103.55 369.72,103.51 371.25,103.34 372.78,103.19 374.31,102.54 375.84,102.51 377.38,101.52 378.91,100.94 380.44,100.51 381.97,99.13 383.50,98.91 385.03,98.86 386.56,98.86 388.09,98.86 389.62,98.86 391.15,98.81 392.68,98.69 394.21,98.69 395.74,98.69 397.27,98.69 398.80,98.69 400.33,98.69 401.86,98.64 403.39,98.59 404.92,98.59 406.45,98.59 407.98,98.55 409.51,98.55 411.04,98.35 412.57,98.26 414.10,98.26 415.63,98.26 417.16,98.26 418.69,98.26 420.22,98.26 421.75,98.26 423.28,97.72 424.81,97.17 426.34,96.71 427.87,96.08 429.40,95.35 430.94,93.63 432.47,92.57 434.00,91.82 435.53,90.59 437.06,89.62 438.59,87.97 440.12,85.60 441.65,84.90 443.18,83.88 444.71,83.01 446.24,82.72 447.77,81.61 449.30,81.42 450.83,80.08 452.36,78.87 453.89,78.15 455.42,77.30 456.95,76.14 458.48,75.80 460.01,75.63 461.54,75.46 463.07,75.32 464.60,74.40 466.13,73.36 467.66,71.71 469.19,71.23 470.72,70.38 472.25,69.00 473.78,65.93 475.31,63.61 476.84,61.02 478.37,60.46 479.90,59.32 481.43,57.03 482.96,55.62 484.50,54.85 486.03,53.69 487.56,53.08 489.09,52.24 490.62,51.85 492.15,50.54 493.68,48.58 495.21,46.72 496.74,46.16 498.27,45.19 499.80,43.45 501.33,42.15 502.86,40.21 504.39,39.22 505.92,37.23 507.45,34.60 508.98,32.35" />
    </svg>
  