
    <svg width="540" height="160" xmlns="http://www.w3.org/2000/svg">
      <style>.line{fill:none;stroke:#388bfd;stroke-width:1.5}.axis{stroke:#555;stroke-width:1;opacity:0.5}.label{fill:#999;font-family:sans-serif;font-size:10px;text-anchor:middle}</style>
      <line class="axis" x1="30" y1="30" x2="30" y2="130" />
      <line class="axis" x1="30" y1="130" x2="510" y2="130" />
      <text class="label" x="15" y="30">4,197</text>
      <text class="label" x="15" y="134">0</text>
      <text class="label" x="30" y="148">2021</text>
      <text class="label" x="510" y="148">2026</text>
      <polyline class="line" points="30.00,129.95 31.53,129.93 33.06,129.90 34.59,129.90 36.11,129.90 37.64,129.59 39.17,129.59 40.70,129.59 42.23,127.88 43.76,125.04 45.29,124.90 46.82,124.90 48.34,124.90 49.87,124.90 51.40,124.90 52.93,124.90 54.46,124.90 55.99,124.90 57.52,124.90 59.04,124.90 60.57,124.90 62.10,124.90 63.63,124.90 65.16,124.90 66.69,124.90 68.22,124.90 69.75,124.90 71.27,123.28 72.80,123.28 74.33,123.26 75.86,123.26 77.39,123.26 78.92,123.26 80.45,123.16 81.97,123.16 83.50,123.16 85.03,123.16 86.56,123.16 88.09,123.16 89.62,123.16 91.15,123.16 92.68,123.16 94.20,123.16 95.73,123.16 97.26,123.16 98.79,123.16 100.32,123.16 101.85,123.16 103.38,123.16 104.90,123.16 106.43,123.16 107.96,123.07 109.49,121.61 111.02,120.28 112.55,119.73 114.08,117.09 115.61,117.09 117.13,117.09 118.66,117.09 120.19,117.09 121.72,117.09 123.25,117.09 124.78,117.09 126.31,117.09 127.83,117.09 129.36,117.09 130.89,117.09 132.42,116.90 133.95,116.90 135.48,116.90 137.01,116.66 138.54,116.66 140.06,116.66 141.59,116.66 143.12,116.59 144.65,116.59 146.18,116.59 147.71,116.59 149.24,116.54 150.76,116.54 152.29,116.54 153.82,116.54 155.35,116.54 156.88,116.54 158.41,116.54 159.94,116.54 161.46,116.54 162.99,116.54 164.52,116.54 166.05,116.54 167.58,116.54 169.11,116.54 170.64,116.54 172.17,116.54 173.69,116.54 175.22,116.54 176.75,116.54 178.28,116.54 179.81,116.54 181.34,116.54 182.87,116.54 184.39,116.47 185.92,116.47 187.45,116.47 188.98,116.47 190.51,116.47 192.04,116.47 193.57,116.47 195.10,116.47 196.62,116.47 198.15,116.47 199.68,116.47 201.21,116.47 202.74,116.47 204.27,116.47 205.80,116.47 207.32,116.42 208.85,115.80 210.38,115.63 211.91,115.37 213.44,115.04 214.97,114.94 216.50,114.94 218.03,114.94 219.55,114.42 221.08,114.37 222.61,114.04 224.14,113.92 225.67,113.70 227.20,112.87 228.73,112.82 230.25,112.70 231.78,112.68 233.31,112.56 234.84,112.56 236.37,112.51 237.90,112.51 239.43,112.51 240.96,112.51 242.48,112.51 244.01,112.51 245.54,112.51 247.07,112.25 248.60,111.49 250.13,110.91 251.66,110.75 253.18,110.39 254.71,110.37 256.24,110.32 257.77,110.30 259.30,110.30 260.83,110.30 262.36,110.13 263.89,109.96 265.41,109.91 266.94,109.87 268.47,109.82 270.00,109.27 271.53,108.89 273.06,108.32 274.59,107.96 276.11,107.70 277.64,107.58 279.17,107.44 280.70,107.41 282.23,107.29 283.76,106.94 285.29,106.94 286.82,106.94 288.34,106.91 289.87,106.89 291.40,106.89 292.93,106.70 294.46,106.65 295.99,106.63 297.52,106.60 299.04,106.55 300.57,106.55 302.10,106.55 303.63,106.55 305.16,106.55 306.69,106.55 308.22,106.55 309.75,106.55 311.27,106.48 312.80,106.41 314.33,106.41 315.86,105.98 317.39,105.96 318.92,105.94 320.45,105.86 321.97,105.65 323.50,105.13 325.03,105.03 326.56,105.03 328.09,105.03 329.62,105.03 331.15,105.03 332.68,105.03 334.20,105.03 335.73,105.03 337.26,105.03 338.79,105.03 340.32,105.03 341.85,105.03 343.38,105.03 344.90,105.01 346.43,104.86 347.96,104.84 349.49,104.84 351.02,104.84 352.55,104.84 354.08,104.74 355.61,104.74 357.13,104.36 358.66,104.01 360.19,104.01 361.72,104.01 363.25,104.01 364.78,104.01 366.31,103.96 367.83,103.96 369.36,103.91 370.89,103.74 372.42,103.60 373.95,102.96 375.48,102.93 377.01,101.96 378.54,101.38 380.06,100.96 381.59,99.60 383.12,99.38 384.65,99.34 386.18,99.34 387.71,99.34 389.24,99.34 390.76,99.29 392.29,99.17 393.82,99.17 395.35,99.17 396.88,99.17 398.41,99.17 399.94,99.17 401.46,99.12 402.99,99.07 404.52,99.07 406.05,99.07 407.58,99.03 409.11,99.03 410.64,98.83 412.17,98.74 413.69,98.74 415.22,98.74 416.75,98.74 418.28,98.74 419.81,98.74 421.34,98.74 422.87,98.22 424.39,97.67 425.92,97.21 427.45,96.60 428.98,95.88 430.51,94.19 432.04,93.14 433.57,92.40 435.10,91.19 436.62,90.23 438.15,88.61 439.68,86.28 441.21,85.59 442.74,84.59 444.27,83.73 445.80,83.44 447.32,82.35 448.85,82.16 450.38,80.85 451.91,79.65 453.44,78.94 454.97,78.11 456.50,76.96 458.03,76.63 459.55,76.46 461.08,76.29 462.61,76.15 464.14,75.25 465.67,74.22 467.20,72.60 468.73,72.13 470.25,71.29 471.78,69.93 473.31,66.91 474.84,64.62 476.37,62.07 477.90,61.52 479.43,60.40 480.96,58.14 482.48,56.76 484.01,55.99 485.54,54.85 487.07,54.26 488.60,53.42 490.13,53.04 491.66,51.75 493.18,49.82 494.71,47.99 496.24,47.44 497.77,46.49 499.30,44.77 500.83,43.49 502.36,41.58 503.89,40.60 505.41,38.65 506.94,36.05 508.47,33.84 510.00,30.00" />
    </svg>
  