
    <svg width="540" height="160" xmlns="http://www.w3.org/2000/svg">
      <style>.line{fill:none;stroke:#388bfd;stroke-width:1.5}.axis{stroke:#555;stroke-width:1;opacity:0.5}.label{fill:#999;font-family:sans-serif;font-size:10px;text-anchor:middle}</style>
      <line class="axis" x1="30" y1="30" x2="30" y2="130" />
      <line class="axis" x1="30" y1="130" x2="510" y2="130" />
      <text class="label" x="15" y="30">8,867</text>
      <text class="label" x="15" y="134">0</text>
      <text class="label" x="30" y="148">2021</text>
      <text class="label" x="510" y="148">2026</text>
      <polyline class="line" points="30.00,129.98 31.46,129.97 32.92,129.95 34.39,129.95 35.85,129.95 37.31,129.81 38.77,129.81 40.23,129.81 41.70,129.00 43.16,127.65 44.62,127.59 46.08,127.59 47.54,127.59 49.01,127.59 50.47,127.59 51.93,127.59 53.39,127.59 54.85,127.59 56.31,127.59 57.78,127.59 59.24,127.59 60.70,127.59 62.16,127.59 63.62,127.59 65.09,127.59 66.55,127.59 68.01,127.59 69.47,126.82 70.93,126.82 72.40,126.81 73.86,126.81 75.32,126.81 76.78,126.81 78.24,126.76 79.71,126.76 81.17,126.76 82.63,126.76 84.09,126.76 85.55,126.76 87.02,126.76 88.48,126.76 89.94,126.76 91.40,126.76 92.86,126.76 94.32,126.76 95.79,126.76 97.25,126.76 98.71,126.76 100.17,126.76 101.63,126.76 103.10,126.76 104.56,126.72 106.02,126.03 107.48,125.40 108.94,125.14 110.41,123.89 111.87,123.89 113.33,123.89 114.79,123.89 116.25,123.89 117.72,123.89 119.18,123.89 120.64,123.89 122.10,123.89 123.56,123.89 125.03,123.89 126.49,123.89 127.95,123.80 129.41,123.80 130.87,123.80 132.34,123.68 133.80,123.68 135.26,123.68 136.72,123.68 138.18,123.65 139.64,123.65 141.11,123.65 142.57,123.65 144.03,123.63 145.49,123.63 146.95,123.63 148.42,123.63 149.88,123.63 151.34,123.63 152.80,123.63 154.26,123.63 155.73,123.63 157.19,123.63 158.65,123.63 160.11,123.63 161.57,123.63 163.04,123.63 164.50,123.63 165.96,123.63 167.42,123.63 168.88,123.63 170.35,123.63 171.81,123.63 173.27,123.63 174.73,123.63 176.19,123.63 177.65,123.59 179.12,123.59 180.58,123.59 182.04,123.59 183.50,123.59 184.96,123.59 186.43,123.59 187.89,123.59 189.35,123.59 190.81,123.59 192.27,123.59 193.74,123.59 195.20,123.59 196.66,123.59 198.12,123.59 199.58,123.57 201.05,123.28 202.51,123.20 203.97,123.08 205.43,122.92 206.89,122.87 208.36,122.87 209.82,122.87 211.28,122.62 212.74,122.60 214.20,122.44 215.66,122.39 217.13,122.29 218.59,121.89 220.05,121.87 221.51,121.81 222.97,121.80 224.44,121.74 225.90,121.74 227.36,121.72 228.82,121.72 230.28,121.72 231.75,121.72 233.21,121.72 234.67,121.72 236.13,121.72 237.59,121.60 239.06,121.24 240.52,120.97 241.98,120.89 243.44,120.72 244.90,120.71 246.37,120.68 247.83,120.67 249.29,120.67 250.75,120.67 252.21,120.59 253.68,120.52 255.14,120.49 256.60,120.47 258.06,120.45 259.52,120.19 260.98,120.01 262.45,119.74 263.91,119.57 265.37,119.44 266.83,119.39 268.29,119.32 269.76,119.31 271.22,119.25 272.68,119.08 274.14,119.08 275.60,119.08 277.07,119.07 278.53,119.06 279.99,119.06 281.45,118.97 282.91,118.95 284.38,118.94 285.84,118.93 287.30,118.90 288.76,118.90 290.22,118.90 291.69,118.90 293.15,118.90 294.61,118.90 296.07,118.90 297.53,118.90 298.99,118.87 300.46,118.84 301.92,118.84 303.38,118.63 304.84,118.62 306.30,118.61 307.77,118.58 309.23,118.47 310.69,118.23 312.15,118.18 313.61,118.18 315.08,118.18 316.54,118.18 318.00,118.18 319.46,118.18 320.92,118.18 322.39,118.18 323.85,118.18 325.31,118.18 326.77,118.18 328.23,118.18 329.70,118.18 331.16,118.17 332.62,118.10 334.08,118.09 335.54,118.09 337.01,118.09 338.47,118.09 339.93,118.05 341.39,118.05 342.85,117.87 344.31,117.70 345.78,117.70 347.24,117.70 348.70,117.70 350.16,117.70 351.62,117.67 353.09,117.67 354.55,117.65 356.01,117.57 357.47,117.50 358.93,117.20 360.40,117.19 361.86,116.73 363.32,116.46 364.78,116.25 366.24,115.61 367.71,115.44 369.17,115.37 370.63,115.16 372.09,114.83 373.55,114.75 375.02,114.64 376.48,114.46 377.94,114.30 379.40,114.23 380.86,114.12 382.32,114.04 383.79,113.84 385.25,113.66 386.71,113.44 388.17,113.09 389.63,112.89 391.10,111.89 392.56,111.13 394.02,110.65 395.48,110.23 396.94,109.77 398.41,109.77 399.87,109.77 401.33,109.77 402.79,109.47 404.25,109.31 405.72,108.70 407.18,108.01 408.64,107.21 410.10,106.00 411.56,105.16 413.03,103.42 414.49,102.37 415.95,101.67 417.41,100.54 418.87,99.82 420.34,98.39 421.80,96.22 423.26,95.57 424.72,94.72 426.18,93.91 427.64,93.64 429.11,92.60 430.57,92.42 432.03,91.18 433.49,90.05 434.95,89.38 436.42,88.61 437.88,87.60 439.34,87.32 440.80,87.23 442.26,87.12 443.73,87.05 445.19,86.41 446.65,85.58 448.11,84.56 449.57,84.28 451.04,83.46 452.50,82.40 453.96,80.29 455.42,78.73 456.88,76.81 458.35,76.31 459.81,75.29 461.27,73.41 462.73,72.34 464.19,71.75 465.65,70.93 467.12,70.39 468.58,69.61 470.04,69.25 471.50,68.46 472.96,66.96 474.43,65.30 475.89,64.79 477.35,63.86 478.81,62.14 480.27,61.26 481.74,59.13 483.20,58.12 484.66,56.27 486.12,54.46 487.58,52.28 489.05,49.01 490.51,46.85 491.97,44.99 493.43,43.79 494.89,42.25 496.36,40.86 497.82,40.18 499.28,39.06 500.74,37.69 502.20,36.92 503.66,35.75 505.13,34.86 506.59,34.01 508.05,32.74 509.51,30.42" />
    </svg>
  