
    <svg width="540" height="160" xmlns="http://www.w3.org/2000/svg">
      <style>.line{fill:none;stroke:#388bfd;stroke-width:1.5}.axis{stroke:#555;stroke-width:1;opacity:0.5}.label{fill:#999;font-family:sans-serif;font-size:10px;text-anchor:middle}</style>
      <line class="axis" x1="30" y1="30" x2="30" y2="130" />
      <line class="axis" x1="30" y1="130" x2="510" y2="130" />
      <text class="label" x="15" y="30">9,362</text>
      <text class="label" x="15" y="134">0</text>
      <text class="label" x="30" y="148">2021</text>
      <text class="label" x="510" y="148">2026</text>
      <polyline class="line" points="30.00,129.98 31.44,129.97 32.88,129.96 34.32,129.96 35.75,129.96 37.19,129.82 38.63,129.82 40.07,129.82 41.51,129.05 42.95,127.78 44.39,127.71 45.82,127.71 47.26,127.71 48.70,127.71 50.14,127.71 51.58,127.71 53.02,127.71 54.46,127.71 55.89,127.71 57.33,127.71 58.77,127.71 60.21,127.71 61.65,127.71 63.09,127.71 64.53,127.71 65.96,127.71 67.40,127.71 68.84,126.99 70.28,126.99 71.72,126.98 73.16,126.98 74.60,126.98 76.03,126.98 77.47,126.93 78.91,126.93 80.35,126.93 81.79,126.93 83.23,126.93 84.67,126.93 86.10,126.93 87.54,126.93 88.98,126.93 90.42,126.93 91.86,126.93 93.30,126.93 94.74,126.93 96.17,126.93 97.61,126.93 99.05,126.93 100.49,126.93 101.93,126.93 103.37,126.89 104.81,126.24 106.24,125.64 107.68,125.40 109.12,124.21 110.56,124.21 112.00,124.21 113.44,124.21 114.88,124.21 116.31,124.21 117.75,124.21 119.19,124.21 120.63,124.21 122.07,124.21 123.51,124.21 124.95,124.21 126.38,124.13 127.82,124.13 129.26,124.13 130.70,124.02 132.14,124.02 133.58,124.02 135.01,124.02 136.45,123.99 137.89,123.99 139.33,123.99 140.77,123.99 142.21,123.96 143.65,123.96 145.08,123.96 146.52,123.96 147.96,123.96 149.40,123.96 150.84,123.96 152.28,123.96 153.72,123.96 155.15,123.96 156.59,123.96 158.03,123.96 159.47,123.96 160.91,123.96 162.35,123.96 163.79,123.96 165.22,123.96 166.66,123.96 168.10,123.96 169.54,123.96 170.98,123.96 172.42,123.96 173.86,123.96 175.29,123.93 176.73,123.93 178.17,123.93 179.61,123.93 181.05,123.93 182.49,123.93 183.93,123.93 185.36,123.93 186.80,123.93 188.24,123.93 189.68,123.93 191.12,123.93 192.56,123.93 194.00,123.93 195.43,123.93 196.87,123.91 198.31,123.63 199.75,123.56 201.19,123.44 202.63,123.29 204.07,123.25 205.50,123.25 206.94,123.25 208.38,123.01 209.82,122.99 211.26,122.84 212.70,122.79 214.14,122.69 215.57,122.32 217.01,122.30 218.45,122.25 219.89,122.23 221.33,122.18 222.77,122.18 224.21,122.16 225.64,122.16 227.08,122.16 228.52,122.16 229.96,122.16 231.40,122.16 232.84,122.16 234.28,122.04 235.71,121.70 237.15,121.44 238.59,121.37 240.03,121.21 241.47,121.20 242.91,121.18 244.35,121.17 245.78,121.17 247.22,121.17 248.66,121.09 250.10,121.02 251.54,121.00 252.98,120.97 254.42,120.95 255.85,120.71 257.29,120.54 258.73,120.28 260.17,120.12 261.61,120.00 263.05,119.95 264.49,119.88 265.92,119.87 267.36,119.82 268.80,119.66 270.24,119.66 271.68,119.66 273.12,119.65 274.56,119.64 275.99,119.64 277.43,119.55 278.87,119.53 280.31,119.52 281.75,119.51 283.19,119.49 284.63,119.49 286.06,119.49 287.50,119.49 288.94,119.49 290.38,119.49 291.82,119.49 293.26,119.49 294.70,119.46 296.13,119.43 297.57,119.43 299.01,119.23 300.45,119.22 301.89,119.21 303.33,119.18 304.77,119.08 306.20,118.85 307.64,118.81 309.08,118.81 310.52,118.81 311.96,118.81 313.40,118.81 314.84,118.81 316.27,118.81 317.71,118.81 319.15,118.81 320.59,118.81 322.03,118.81 323.47,118.81 324.91,118.81 326.34,118.80 327.78,118.73 329.22,118.72 330.66,118.72 332.10,118.72 333.54,118.72 334.98,118.68 336.41,118.68 337.85,118.51 339.29,118.35 340.73,118.35 342.17,118.35 343.61,118.35 345.04,118.35 346.48,118.33 347.92,118.33 349.36,118.30 350.80,118.23 352.24,118.16 353.68,117.88 355.11,117.87 356.55,117.43 357.99,117.17 359.43,116.98 360.87,116.37 362.31,116.21 363.75,116.15 365.18,115.94 366.62,115.63 368.06,115.56 369.50,115.45 370.94,115.28 372.38,115.13 373.82,115.07 375.25,114.96 376.69,114.89 378.13,114.69 379.57,114.52 381.01,114.32 382.45,113.99 383.89,113.80 385.32,112.85 386.76,112.13 388.20,111.67 389.64,111.28 391.08,110.84 392.52,110.84 393.96,110.84 395.39,110.84 396.83,110.56 398.27,110.40 399.71,109.82 401.15,109.17 402.59,108.41 404.03,107.27 405.46,106.47 406.90,104.82 408.34,103.83 409.78,103.17 411.22,102.10 412.66,101.42 414.10,100.06 415.53,98.01 416.97,97.39 418.41,96.59 419.85,95.82 421.29,95.56 422.73,94.58 424.17,94.41 425.60,93.23 427.04,92.17 428.48,91.53 429.92,90.80 431.36,89.84 432.80,89.58 434.24,89.50 435.67,89.39 437.11,89.32 438.55,88.72 439.99,87.93 441.43,86.96 442.87,86.70 444.31,85.92 445.74,84.91 447.18,82.92 448.62,81.44 450.06,79.63 451.50,79.15 452.94,78.18 454.38,76.40 455.81,75.39 457.25,74.83 458.69,74.05 460.13,73.54 461.57,72.80 463.01,72.46 464.45,71.71 465.88,70.29 467.32,68.72 468.76,68.24 470.20,67.35 471.64,65.73 473.08,64.90 474.52,62.88 475.95,61.92 477.39,60.16 478.83,58.46 480.27,56.39 481.71,53.30 483.15,51.25 484.59,49.48 486.02,48.35 487.46,46.89 488.90,45.57 490.34,44.93 491.78,43.86 493.22,42.57 494.66,41.85 496.09,40.73 497.53,39.89 498.97,39.09 500.41,37.88 501.85,35.68 503.29,33.92 504.73,32.44 506.16,31.21 507.60,30.76 509.04,30.18" />
    </svg>
  