
    <svg width="540" height="160" xmlns="http://www.w3.org/2000/svg">
      <style>.line{fill:none;stroke:#388bfd;stroke-width:1.5}.axis{stroke:#555;stroke-width:1;opacity:0.5}.label{fill:#999;font-family:sans-serif;font-size:10px;text-anchor:middle}</style>
      <line class="axis" x1="30" y1="30" x2="30" y2="130" />
      <line class="axis" x1="30" y1="130" x2="510" y2="130" />
      <text class="label" x="15" y="30">9,291</text>
      <text class="label" x="15" y="134">0</text>
      <text class="label" x="30" y="148">2021</text>
      <text class="label" x="510" y="148">2026</text>
      <polyline class="line" points="30.00,129.98 31.44,129.97 32.89,129.96 34.33,129.96 35.77,129.96 37.22,129.82 38.66,129.82 40.11,129.82 41.55,129.04 42.99,127.76 44.44,127.70 45.88,127.70 47.32,127.70 48.77,127.70 50.21,127.70 51.65,127.70 53.10,127.70 54.54,127.70 55.98,127.70 57.43,127.70 58.87,127.70 60.32,127.70 61.76,127.70 63.20,127.70 64.65,127.70 66.09,127.70 67.53,127.70 68.98,126.96 70.42,126.96 71.86,126.95 73.31,126.95 74.75,126.95 76.20,126.95 77.64,126.91 79.08,126.91 80.53,126.91 81.97,126.91 83.41,126.91 84.86,126.91 86.30,126.91 87.74,126.91 89.19,126.91 90.63,126.91 92.08,126.91 93.52,126.91 94.96,126.91 96.41,126.91 97.85,126.91 99.29,126.91 100.74,126.91 102.18,126.91 103.62,126.87 105.07,126.21 106.51,125.61 107.95,125.36 109.40,124.17 110.84,124.17 112.29,124.17 113.73,124.17 115.17,124.17 116.62,124.17 118.06,124.17 119.50,124.17 120.95,124.17 122.39,124.17 123.83,124.17 125.28,124.17 126.72,124.08 128.17,124.08 129.61,124.08 131.05,123.97 132.50,123.97 133.94,123.97 135.38,123.97 136.83,123.94 138.27,123.94 139.71,123.94 141.16,123.94 142.60,123.92 144.05,123.92 145.49,123.92 146.93,123.92 148.38,123.92 149.82,123.92 151.26,123.92 152.71,123.92 154.15,123.92 155.59,123.92 157.04,123.92 158.48,123.92 159.92,123.92 161.37,123.92 162.81,123.92 164.26,123.92 165.70,123.92 167.14,123.92 168.59,123.92 170.03,123.92 171.47,123.92 172.92,123.92 174.36,123.92 175.80,123.89 177.25,123.89 178.69,123.89 180.14,123.89 181.58,123.89 183.02,123.89 184.47,123.89 185.91,123.89 187.35,123.89 188.80,123.89 190.24,123.89 191.68,123.89 193.13,123.89 194.57,123.89 196.02,123.89 197.46,123.87 198.90,123.59 200.35,123.51 201.79,123.39 203.23,123.24 204.68,123.20 206.12,123.20 207.56,123.20 209.01,122.96 210.45,122.94 211.89,122.79 213.34,122.73 214.78,122.64 216.23,122.26 217.67,122.24 219.11,122.19 220.56,122.18 222.00,122.12 223.44,122.12 224.89,122.10 226.33,122.10 227.77,122.10 229.22,122.10 230.66,122.10 232.11,122.10 233.55,122.10 234.99,121.98 236.44,121.64 237.88,121.38 239.32,121.30 240.77,121.14 242.21,121.13 243.65,121.11 245.10,121.10 246.54,121.10 247.98,121.10 249.43,121.02 250.87,120.95 252.32,120.93 253.76,120.91 255.20,120.88 256.65,120.64 258.09,120.46 259.53,120.21 260.98,120.04 262.42,119.93 263.86,119.87 265.31,119.81 266.75,119.80 268.20,119.74 269.64,119.58 271.08,119.58 272.53,119.58 273.97,119.57 275.41,119.56 276.86,119.56 278.30,119.47 279.74,119.45 281.19,119.44 282.63,119.43 284.08,119.41 285.52,119.41 286.96,119.41 288.41,119.41 289.85,119.41 291.29,119.41 292.74,119.41 294.18,119.41 295.62,119.38 297.07,119.34 298.51,119.34 299.95,119.15 301.40,119.14 302.84,119.13 304.29,119.10 305.73,119.00 307.17,118.76 308.62,118.72 310.06,118.72 311.50,118.72 312.95,118.72 314.39,118.72 315.83,118.72 317.28,118.72 318.72,118.72 320.17,118.72 321.61,118.72 323.05,118.72 324.50,118.72 325.94,118.72 327.38,118.71 328.83,118.64 330.27,118.63 331.71,118.63 333.16,118.63 334.60,118.63 336.05,118.59 337.49,118.59 338.93,118.42 340.38,118.26 341.82,118.26 343.26,118.26 344.71,118.26 346.15,118.26 347.59,118.24 349.04,118.24 350.48,118.21 351.92,118.14 353.37,118.07 354.81,117.78 356.26,117.77 357.70,117.33 359.14,117.07 360.59,116.88 362.03,116.27 363.47,116.10 364.92,116.04 366.36,115.84 367.80,115.52 369.25,115.45 370.69,115.34 372.14,115.17 373.58,115.02 375.02,114.95 376.47,114.85 377.91,114.77 379.35,114.58 380.80,114.40 382.24,114.20 383.68,113.87 385.13,113.67 386.57,112.71 388.02,111.99 389.46,111.53 390.90,111.13 392.35,110.69 393.79,110.69 395.23,110.69 396.68,110.69 398.12,110.41 399.56,110.25 401.01,109.67 402.45,109.01 403.89,108.25 405.34,107.10 406.78,106.29 408.23,104.63 409.67,103.63 411.11,102.96 412.56,101.89 414.00,101.20 415.44,99.83 416.89,97.76 418.33,97.14 419.77,96.33 421.22,95.56 422.66,95.30 424.11,94.31 425.55,94.14 426.99,92.95 428.44,91.88 429.88,91.23 431.32,90.50 432.77,89.53 434.21,89.27 435.65,89.19 437.10,89.08 438.54,89.01 439.98,88.40 441.43,87.60 442.87,86.64 444.32,86.37 445.76,85.58 447.20,84.57 448.65,82.56 450.09,81.07 451.53,79.24 452.98,78.76 454.42,77.79 455.86,75.99 457.31,74.97 458.75,74.41 460.20,73.62 461.64,73.11 463.08,72.36 464.53,72.02 465.97,71.27 467.41,69.83 468.86,68.25 470.30,67.77 471.74,66.87 473.19,65.24 474.63,64.40 476.08,62.36 477.52,61.40 478.96,59.63 480.41,57.91 481.85,55.83 483.29,52.71 484.74,50.64 486.18,48.87 487.62,47.73 489.07,46.25 490.51,44.93 491.95,44.28 493.40,43.21 494.84,41.90 496.29,41.17 497.73,40.05 499.17,39.20 500.62,38.40 502.06,37.18 503.50,34.96 504.95,33.19 506.39,31.69 507.83,30.45 509.28,30.00" />
    </svg>
  