
    <svg width="540" height="160" xmlns="http://www.w3.org/2000/svg">
      <style>.line{fill:none;stroke:#388bfd;stroke-width:1.5}.axis{stroke:#555;stroke-width:1;opacity:0.5}.label{fill:#999;font-family:sans-serif;font-size:10px;text-anchor:middle}</style>
      <line class="axis" x1="30" y1="30" x2="30" y2="130" />
      <line class="axis" x1="30" y1="130" x2="510" y2="130" />
      <text class="label" x="15" y="30">8,556</text>
      <text class="label" x="15" y="134">0</text>
      <text class="label" x="30" y="148">2021</text>
      <text class="label" x="510" y="148">2026</text>
      <polyline class="line" points="30.00,129.98 31.47,129.96 32.94,129.95 34.41,129.95 35.88,129.95 37.35,129.80 38.82,129.80 40.29,129.80 41.76,128.96 43.22,127.57 44.69,127.50 46.16,127.50 47.63,127.50 49.10,127.50 50.57,127.50 52.04,127.50 53.51,127.50 54.98,127.50 56.45,127.50 57.92,127.50 59.39,127.50 60.86,127.50 62.33,127.50 63.80,127.50 65.27,127.50 66.73,127.50 68.20,127.50 69.67,126.70 71.14,126.70 72.61,126.69 74.08,126.69 75.55,126.69 77.02,126.69 78.49,126.65 79.96,126.65 81.43,126.65 82.90,126.65 84.37,126.65 85.84,126.65 87.31,126.65 88.78,126.65 90.24,126.65 91.71,126.65 93.18,126.65 94.65,126.65 96.12,126.65 97.59,126.65 99.06,126.65 100.53,126.65 102.00,126.65 103.47,126.65 104.94,126.60 106.41,125.89 107.88,125.23 109.35,124.96 110.82,123.67 112.29,123.67 113.76,123.67 115.22,123.67 116.69,123.67 118.16,123.67 119.63,123.67 121.10,123.67 122.57,123.67 124.04,123.67 125.51,123.67 126.98,123.67 128.45,123.57 129.92,123.57 131.39,123.57 132.86,123.45 134.33,123.45 135.80,123.45 137.27,123.45 138.73,123.42 140.20,123.42 141.67,123.42 143.14,123.42 144.61,123.40 146.08,123.40 147.55,123.40 149.02,123.40 150.49,123.40 151.96,123.40 153.43,123.40 154.90,123.40 156.37,123.40 157.84,123.40 159.31,123.40 160.78,123.40 162.24,123.40 163.71,123.40 165.18,123.40 166.65,123.40 168.12,123.40 169.59,123.40 171.06,123.40 172.53,123.40 174.00,123.40 175.47,123.40 176.94,123.40 178.41,123.36 179.88,123.36 181.35,123.36 182.82,123.36 184.29,123.36 185.76,123.36 187.22,123.36 188.69,123.36 190.16,123.36 191.63,123.36 193.10,123.36 194.57,123.36 196.04,123.36 197.51,123.36 198.98,123.36 200.45,123.34 201.92,123.03 203.39,122.95 204.86,122.82 206.33,122.66 207.80,122.61 209.27,122.61 210.73,122.61 212.20,122.36 213.67,122.33 215.14,122.17 216.61,122.11 218.08,122.01 219.55,121.60 221.02,121.57 222.49,121.51 223.96,121.50 225.43,121.44 226.90,121.44 228.37,121.42 229.84,121.42 231.31,121.42 232.78,121.42 234.24,121.42 235.71,121.42 237.18,121.42 238.65,121.29 240.12,120.92 241.59,120.64 243.06,120.56 244.53,120.38 246.00,120.37 247.47,120.35 248.94,120.33 250.41,120.33 251.88,120.33 253.35,120.25 254.82,120.17 256.29,120.15 257.76,120.12 259.22,120.10 260.69,119.83 262.16,119.64 263.63,119.36 265.10,119.19 266.57,119.06 268.04,119.00 269.51,118.93 270.98,118.92 272.45,118.86 273.92,118.69 275.39,118.69 276.86,118.69 278.33,118.67 279.80,118.66 281.27,118.66 282.73,118.57 284.20,118.55 285.67,118.53 287.14,118.52 288.61,118.50 290.08,118.50 291.55,118.50 293.02,118.50 294.49,118.50 295.96,118.50 297.43,118.50 298.90,118.50 300.37,118.46 301.84,118.43 303.31,118.43 304.78,118.22 306.24,118.21 307.71,118.20 309.18,118.16 310.65,118.06 312.12,117.80 313.59,117.75 315.06,117.75 316.53,117.75 318.00,117.75 319.47,117.75 320.94,117.75 322.41,117.75 323.88,117.75 325.35,117.75 326.82,117.75 328.29,117.75 329.76,117.75 331.22,117.75 332.69,117.74 334.16,117.67 335.63,117.66 337.10,117.66 338.57,117.66 340.04,117.66 341.51,117.61 342.98,117.61 344.45,117.42 345.92,117.25 347.39,117.25 348.86,117.25 350.33,117.25 351.80,117.25 353.27,117.23 354.73,117.23 356.20,117.20 357.67,117.12 359.14,117.05 360.61,116.73 362.08,116.72 363.55,116.24 365.02,115.96 366.49,115.75 367.96,115.09 369.43,114.91 370.90,114.84 372.37,114.62 373.84,114.28 375.31,114.20 376.78,114.08 378.24,113.89 379.71,113.73 381.18,113.66 382.65,113.54 384.12,113.46 385.59,113.25 387.06,113.06 388.53,112.84 390.00,112.48 391.47,112.27 392.94,111.23 394.41,110.45 395.88,109.94 397.35,109.51 398.82,109.03 400.29,109.03 401.76,109.03 403.22,109.03 404.69,108.73 406.16,108.55 407.63,107.92 409.10,107.21 410.57,106.38 412.04,105.13 413.51,104.25 414.98,102.45 416.45,101.37 417.92,100.64 419.39,99.47 420.86,98.72 422.33,97.24 423.80,95.00 425.27,94.32 426.73,93.44 428.20,92.60 429.67,92.32 431.14,91.24 432.61,91.06 434.08,89.77 435.55,88.60 437.02,87.90 438.49,87.11 439.96,86.05 441.43,85.77 442.90,85.68 444.37,85.56 445.84,85.49 447.31,84.83 448.78,83.96 450.24,82.91 451.71,82.62 453.18,81.76 454.65,80.67 456.12,78.48 457.59,76.87 459.06,74.88 460.53,74.35 462.00,73.30 463.47,71.35 464.94,70.24 466.41,69.63 467.88,68.78 469.35,68.22 470.82,67.41 472.29,67.04 473.76,66.22 475.22,64.67 476.69,62.95 478.16,62.42 479.63,61.45 481.10,59.68 482.57,58.76 484.04,56.55 485.51,55.50 486.98,53.59 488.45,51.72 489.92,49.46 491.39,46.07 492.86,43.83 494.33,41.90 495.80,40.66 497.27,39.06 498.73,37.62 500.20,36.92 501.67,35.75 503.14,34.34 504.61,33.79 506.08,32.75 507.55,31.86 509.02,30.98" />
    </svg>
  