
    <svg width="540" height="160" xmlns="http://www.w3.org/2000/svg">
      <style>.line{fill:none;stroke:#388bfd;stroke-width:1.5}.axis{stroke:#555;stroke-width:1;opacity:0.5}.label{fill:#999;font-family:sans-serif;font-size:10px;text-anchor:middle}</style>
      <line class="axis" x1="30" y1="30" x2="30" y2="130" />
      <line class="axis" x1="30" y1="130" x2="510" y2="130" />
      <text class="label" x="15" y="30">5,190</text>
      <text class="label" x="15" y="134">0</text>
      <text class="label" x="30" y="148">2021</text>
      <text class="label" x="510" y="148">2026</text>
      <polyline class="line" points="30.00,129.96 31.52,129.94 33.03,129.92 34.55,129.92 36.06,129.92 37.58,129.67 39.09,129.67 40.61,129.67 42.13,128.29 43.64,125.99 45.16,125.88 46.67,125.88 48.19,125.88 49.71,125.88 51.22,125.88 52.74,125.88 54.25,125.88 55.77,125.88 57.28,125.88 58.80,125.88 60.32,125.88 61.83,125.88 63.35,125.88 64.86,125.88 66.38,125.88 67.89,125.88 69.41,125.88 70.93,124.57 72.44,124.57 73.96,124.55 75.47,124.55 76.99,124.55 78.51,124.55 80.02,124.47 81.54,124.47 83.05,124.47 84.57,124.47 86.08,124.47 87.60,124.47 89.12,124.47 90.63,124.47 92.15,124.47 93.66,124.47 95.18,124.47 96.69,124.47 98.21,124.47 99.73,124.47 101.24,124.47 102.76,124.47 104.27,124.47 105.79,124.47 107.31,124.39 108.82,123.22 110.34,122.14 111.85,121.70 113.37,119.56 114.88,119.56 116.40,119.56 117.92,119.56 119.43,119.56 120.95,119.56 122.46,119.56 123.98,119.56 125.49,119.56 127.01,119.56 128.53,119.56 130.04,119.56 131.56,119.40 133.07,119.40 134.59,119.40 136.11,119.21 137.62,119.21 139.14,119.21 140.65,119.21 142.17,119.15 143.68,119.15 145.20,119.15 146.72,119.15 148.23,119.11 149.75,119.11 151.26,119.11 152.78,119.11 154.29,119.11 155.81,119.11 157.33,119.11 158.84,119.11 160.36,119.11 161.87,119.11 163.39,119.11 164.91,119.11 166.42,119.11 167.94,119.11 169.45,119.11 170.97,119.11 172.48,119.11 174.00,119.11 175.52,119.11 177.03,119.11 178.55,119.11 180.06,119.11 181.58,119.11 183.09,119.06 184.61,119.06 186.13,119.06 187.64,119.06 189.16,119.06 190.67,119.06 192.19,119.06 193.71,119.06 195.22,119.06 196.74,119.06 198.25,119.06 199.77,119.06 201.28,119.06 202.80,119.06 204.32,119.06 205.83,119.02 207.35,118.52 208.86,118.38 210.38,118.17 211.89,117.90 213.41,117.82 214.93,117.82 216.44,117.82 217.96,117.40 219.47,117.36 220.99,117.09 222.51,116.99 224.02,116.82 225.54,116.15 227.05,116.11 228.57,116.01 230.08,115.99 231.60,115.90 233.12,115.90 234.63,115.86 236.15,115.86 237.66,115.86 239.18,115.86 240.69,115.86 242.21,115.86 243.73,115.86 245.24,115.65 246.76,115.03 248.27,114.57 249.79,114.43 251.31,114.14 252.82,114.12 254.34,114.08 255.85,114.07 257.37,114.07 258.88,114.07 260.40,113.93 261.92,113.80 263.43,113.76 264.95,113.72 266.46,113.68 267.98,113.24 269.49,112.93 271.01,112.47 272.53,112.18 274.04,111.97 275.56,111.87 277.07,111.75 278.59,111.73 280.11,111.64 281.62,111.35 283.14,111.35 284.65,111.35 286.17,111.33 287.68,111.31 289.20,111.31 290.72,111.16 292.23,111.12 293.75,111.10 295.26,111.08 296.78,111.04 298.29,111.04 299.81,111.04 301.33,111.04 302.84,111.04 304.36,111.04 305.87,111.04 307.39,111.04 308.91,110.98 310.42,110.92 311.94,110.92 313.45,110.58 314.97,110.56 316.48,110.54 318.00,110.48 319.52,110.31 321.03,109.88 322.55,109.81 324.06,109.81 325.58,109.81 327.09,109.81 328.61,109.81 330.13,109.81 331.64,109.81 333.16,109.81 334.67,109.81 336.19,109.81 337.71,109.81 339.22,109.81 340.74,109.81 342.25,109.79 343.77,109.67 345.28,109.65 346.80,109.65 348.32,109.65 349.83,109.65 351.35,109.58 352.86,109.58 354.38,109.27 355.89,108.98 357.41,108.98 358.93,108.98 360.44,108.98 361.96,108.98 363.47,108.94 364.99,108.94 366.51,108.90 368.02,108.77 369.54,108.65 371.05,108.13 372.57,108.11 374.08,107.32 375.60,106.86 377.12,106.51 378.63,105.41 380.15,105.13 381.66,105.01 383.18,104.64 384.69,104.08 386.21,103.95 387.73,103.76 389.24,103.45 390.76,103.18 392.27,103.06 393.79,102.87 395.31,102.74 396.82,102.39 398.34,102.08 399.85,101.71 401.37,101.12 402.88,100.77 404.40,99.06 405.92,97.76 407.43,96.94 408.95,96.22 410.46,95.43 411.98,95.43 413.49,95.43 415.01,95.43 416.53,94.93 418.04,94.64 419.56,94.01 421.07,93.28 422.59,92.27 424.11,90.69 425.62,89.81 427.14,88.19 428.65,87.24 430.17,86.65 431.68,85.66 433.20,84.89 434.72,83.58 436.23,81.68 437.75,81.12 439.26,80.31 440.78,79.61 442.29,79.38 443.81,78.50 445.33,78.34 446.84,77.28 448.36,76.32 449.87,75.74 451.39,75.07 452.91,74.14 454.42,73.87 455.94,73.74 457.45,73.60 458.97,73.49 460.48,72.76 462.00,71.93 463.52,70.62 465.03,70.23 466.55,69.56 468.06,68.46 469.58,66.01 471.09,64.16 472.61,62.10 474.13,61.66 475.64,60.75 477.16,58.92 478.67,57.80 480.19,57.19 481.71,56.26 483.22,55.78 484.74,55.11 486.25,54.80 487.77,53.76 489.28,52.20 490.80,50.71 492.32,50.27 493.83,49.50 495.35,48.11 496.86,47.07 498.38,45.53 499.89,44.74 501.41,43.16 502.93,41.06 504.44,39.27 505.96,35.47 507.47,32.79 508.99,30.94" />
    </svg>
  