
    <svg width="540" height="160" xmlns="http://www.w3.org/2000/svg">
      <style>.line{fill:none;stroke:#388bfd;stroke-width:1.5}.axis{stroke:#555;stroke-width:1;opacity:0.5}.label{fill:#999;font-family:sans-serif;font-size:10px;text-anchor:middle}</style>
      <line class="axis" x1="30" y1="30" x2="30" y2="130" />
      <line class="axis" x1="30" y1="130" x2="510" y2="130" />
      <text class="label" x="15" y="30">9,032</text>
      <text class="label" x="15" y="134">0</text>
      <text class="label" x="30" y="148">2021</text>
      <text class="label" x="510" y="148">2026</text>
      <polyline class="line" points="30.00,129.98 31.46,129.97 32.91,129.96 34.37,129.96 35.83,129.96 37.28,129.81 38.74,129.81 40.20,129.81 41.65,129.01 43.11,127.70 44.57,127.63 46.02,127.63 47.48,127.63 48.94,127.63 50.39,127.63 51.85,127.63 53.31,127.63 54.76,127.63 56.22,127.63 57.68,127.63 59.14,127.63 60.59,127.63 62.05,127.63 63.51,127.63 64.96,127.63 66.42,127.63 67.88,127.63 69.33,126.88 70.79,126.88 72.25,126.87 73.70,126.87 75.16,126.87 76.62,126.87 78.07,126.82 79.53,126.82 80.99,126.82 82.44,126.82 83.90,126.82 85.36,126.82 86.81,126.82 88.27,126.82 89.73,126.82 91.18,126.82 92.64,126.82 94.10,126.82 95.55,126.82 97.01,126.82 98.47,126.82 99.92,126.82 101.38,126.82 102.84,126.82 104.29,126.78 105.75,126.10 107.21,125.48 108.66,125.23 110.12,124.00 111.58,124.00 113.03,124.00 114.49,124.00 115.95,124.00 117.41,124.00 118.86,124.00 120.32,124.00 121.78,124.00 123.23,124.00 124.69,124.00 126.15,124.00 127.60,123.91 129.06,123.91 130.52,123.91 131.97,123.80 133.43,123.80 134.89,123.80 136.34,123.80 137.80,123.77 139.26,123.77 140.71,123.77 142.17,123.77 143.63,123.74 145.08,123.74 146.54,123.74 148.00,123.74 149.45,123.74 150.91,123.74 152.37,123.74 153.82,123.74 155.28,123.74 156.74,123.74 158.19,123.74 159.65,123.74 161.11,123.74 162.56,123.74 164.02,123.74 165.48,123.74 166.93,123.74 168.39,123.74 169.85,123.74 171.31,123.74 172.76,123.74 174.22,123.74 175.68,123.74 177.13,123.71 178.59,123.71 180.05,123.71 181.50,123.71 182.96,123.71 184.42,123.71 185.87,123.71 187.33,123.71 188.79,123.71 190.24,123.71 191.70,123.71 193.16,123.71 194.61,123.71 196.07,123.71 197.53,123.71 198.98,123.69 200.44,123.40 201.90,123.32 203.35,123.20 204.81,123.05 206.27,123.00 207.72,123.00 209.18,123.00 210.64,122.76 212.09,122.74 213.55,122.58 215.01,122.53 216.46,122.43 217.92,122.04 219.38,122.02 220.83,121.96 222.29,121.95 223.75,121.90 225.20,121.90 226.66,121.87 228.12,121.87 229.58,121.87 231.03,121.87 232.49,121.87 233.95,121.87 235.40,121.87 236.86,121.75 238.32,121.40 239.77,121.13 241.23,121.05 242.69,120.89 244.14,120.88 245.60,120.85 247.06,120.84 248.51,120.84 249.97,120.84 251.43,120.77 252.88,120.69 254.34,120.67 255.80,120.64 257.25,120.62 258.71,120.37 260.17,120.19 261.62,119.92 263.08,119.76 264.54,119.64 265.99,119.58 267.45,119.52 268.91,119.50 270.36,119.45 271.82,119.28 273.28,119.28 274.73,119.28 276.19,119.27 277.65,119.26 279.10,119.26 280.56,119.17 282.02,119.15 283.47,119.14 284.93,119.13 286.39,119.11 287.85,119.11 289.30,119.11 290.76,119.11 292.22,119.11 293.67,119.11 295.13,119.11 296.59,119.11 298.04,119.07 299.50,119.04 300.96,119.04 302.41,118.84 303.87,118.83 305.33,118.82 306.78,118.78 308.24,118.68 309.70,118.44 311.15,118.40 312.61,118.40 314.07,118.40 315.52,118.40 316.98,118.40 318.44,118.40 319.89,118.40 321.35,118.40 322.81,118.40 324.26,118.40 325.72,118.40 327.18,118.40 328.63,118.40 330.09,118.39 331.55,118.32 333.00,118.31 334.46,118.31 335.92,118.31 337.37,118.31 338.83,118.26 340.29,118.26 341.75,118.09 343.20,117.92 344.66,117.92 346.12,117.92 347.57,117.92 349.03,117.92 350.49,117.90 351.94,117.90 353.40,117.88 354.86,117.80 356.31,117.73 357.77,117.43 359.23,117.42 360.68,116.97 362.14,116.70 363.60,116.50 365.05,115.87 366.51,115.71 367.97,115.64 369.42,115.43 370.88,115.11 372.34,115.03 373.79,114.92 375.25,114.74 376.71,114.59 378.16,114.52 379.62,114.41 381.08,114.33 382.53,114.13 383.99,113.96 385.45,113.75 386.90,113.40 388.36,113.20 389.82,112.22 391.27,111.48 392.73,111.00 394.19,110.59 395.64,110.14 397.10,110.14 398.56,110.14 400.02,110.14 401.47,109.85 402.93,109.68 404.39,109.09 405.84,108.41 407.30,107.62 408.76,106.44 410.21,105.61 411.67,103.90 413.13,102.87 414.58,102.19 416.04,101.08 417.50,100.37 418.95,98.97 420.41,96.84 421.87,96.20 423.32,95.37 424.78,94.57 426.24,94.30 427.69,93.29 429.15,93.11 430.61,91.89 432.06,90.78 433.52,90.12 434.98,89.37 436.43,88.37 437.89,88.10 439.35,88.02 440.80,87.91 442.26,87.84 443.72,87.21 445.17,86.39 446.63,85.39 448.09,85.12 449.54,84.31 451.00,83.27 452.46,81.20 453.92,79.67 455.37,77.79 456.83,77.29 458.29,76.29 459.74,74.44 461.20,73.39 462.66,72.81 464.11,72.01 465.57,71.47 467.03,70.71 468.48,70.36 469.94,69.58 471.40,68.11 472.85,66.48 474.31,65.98 475.77,65.06 477.22,63.38 478.68,62.52 480.14,60.43 481.59,59.43 483.05,57.61 484.51,55.84 485.96,53.70 487.42,50.49 488.88,48.37 490.33,46.54 491.79,45.37 493.25,43.85 494.70,42.49 496.16,41.82 497.62,40.72 499.07,39.38 500.53,38.62 501.99,37.47 503.44,36.60 504.90,35.77 506.36,34.52 507.81,32.24 509.27,30.47" />
    </svg>
  