
    <svg width="540" height="160" xmlns="http://www.w3.org/2000/svg">
      <style>.line{fill:none;stroke:#388bfd;stroke-width:1.5}.axis{stroke:#555;stroke-width:1;opacity:0.5}.label{fill:#999;font-family:sans-serif;font-size:10px;text-anchor:middle}</style>
      <line class="axis" x1="30" y1="30" x2="30" y2="130" />
      <line class="axis" x1="30" y1="130" x2="510" y2="130" />
      <text class="label" x="15" y="30">8,940</text>
      <text class="label" x="15" y="134">0</text>
      <text class="label" x="30" y="148">2021</text>
      <text class="label" x="510" y="148">2026</text>
      <polyline class="line" points="30.00,129.98 31.46,129.97 32.92,129.96 34.38,129.96 35.84,129.96 37.30,129.81 38.76,129.81 40.22,129.81 41.68,129.00 43.14,127.67 44.60,127.61 46.06,127.61 47.52,127.61 48.98,127.61 50.44,127.61 51.90,127.61 53.36,127.61 54.82,127.61 56.27,127.61 57.73,127.61 59.19,127.61 60.65,127.61 62.11,127.61 63.57,127.61 65.03,127.61 66.49,127.61 67.95,127.61 69.41,126.85 70.87,126.85 72.33,126.83 73.79,126.83 75.25,126.83 76.71,126.83 78.17,126.79 79.63,126.79 81.09,126.79 82.55,126.79 84.01,126.79 85.47,126.79 86.93,126.79 88.39,126.79 89.85,126.79 91.31,126.79 92.77,126.79 94.23,126.79 95.69,126.79 97.15,126.79 98.61,126.79 100.07,126.79 101.53,126.79 102.99,126.79 104.45,126.74 105.90,126.06 107.36,125.44 108.82,125.18 110.28,123.94 111.74,123.94 113.20,123.94 114.66,123.94 116.12,123.94 117.58,123.94 119.04,123.94 120.50,123.94 121.96,123.94 123.42,123.94 124.88,123.94 126.34,123.94 127.80,123.85 129.26,123.85 130.72,123.85 132.18,123.74 133.64,123.74 135.10,123.74 136.56,123.74 138.02,123.70 139.48,123.70 140.94,123.70 142.40,123.70 143.86,123.68 145.32,123.68 146.78,123.68 148.24,123.68 149.70,123.68 151.16,123.68 152.62,123.68 154.08,123.68 155.53,123.68 156.99,123.68 158.45,123.68 159.91,123.68 161.37,123.68 162.83,123.68 164.29,123.68 165.75,123.68 167.21,123.68 168.67,123.68 170.13,123.68 171.59,123.68 173.05,123.68 174.51,123.68 175.97,123.68 177.43,123.65 178.89,123.65 180.35,123.65 181.81,123.65 183.27,123.65 184.73,123.65 186.19,123.65 187.65,123.65 189.11,123.65 190.57,123.65 192.03,123.65 193.49,123.65 194.95,123.65 196.41,123.65 197.87,123.65 199.33,123.62 200.79,123.33 202.25,123.26 203.71,123.13 205.16,122.98 206.62,122.93 208.08,122.93 209.54,122.93 211.00,122.68 212.46,122.66 213.92,122.51 215.38,122.45 216.84,122.35 218.30,121.96 219.76,121.94 221.22,121.88 222.68,121.87 224.14,121.81 225.60,121.81 227.06,121.79 228.52,121.79 229.98,121.79 231.44,121.79 232.90,121.79 234.36,121.79 235.82,121.79 237.28,121.67 238.74,121.31 240.20,121.04 241.66,120.96 243.12,120.79 244.58,120.78 246.04,120.76 247.50,120.75 248.96,120.75 250.42,120.75 251.88,120.67 253.34,120.59 254.79,120.57 256.25,120.55 257.71,120.53 259.17,120.27 260.63,120.09 262.09,119.82 263.55,119.65 265.01,119.53 266.47,119.47 267.93,119.41 269.39,119.40 270.85,119.34 272.31,119.17 273.77,119.17 275.23,119.17 276.69,119.16 278.15,119.15 279.61,119.15 281.07,119.06 282.53,119.04 283.99,119.03 285.45,119.02 286.91,118.99 288.37,118.99 289.83,118.99 291.29,118.99 292.75,118.99 294.21,118.99 295.67,118.99 297.13,118.99 298.59,118.96 300.05,118.93 301.51,118.93 302.97,118.72 304.42,118.71 305.88,118.70 307.34,118.67 308.80,118.57 310.26,118.32 311.72,118.28 313.18,118.28 314.64,118.28 316.10,118.28 317.56,118.28 319.02,118.28 320.48,118.28 321.94,118.28 323.40,118.28 324.86,118.28 326.32,118.28 327.78,118.28 329.24,118.28 330.70,118.27 332.16,118.20 333.62,118.19 335.08,118.19 336.54,118.19 338.00,118.19 339.46,118.14 340.92,118.14 342.38,117.96 343.84,117.80 345.30,117.80 346.76,117.80 348.22,117.80 349.68,117.80 351.14,117.77 352.60,117.77 354.05,117.75 355.51,117.67 356.97,117.61 358.43,117.30 359.89,117.29 361.35,116.83 362.81,116.57 364.27,116.36 365.73,115.73 367.19,115.56 368.65,115.49 370.11,115.28 371.57,114.96 373.03,114.88 374.49,114.77 375.95,114.59 377.41,114.43 378.87,114.36 380.33,114.25 381.79,114.17 383.25,113.97 384.71,113.79 386.17,113.58 387.63,113.23 389.09,113.03 390.55,112.04 392.01,111.29 393.47,110.81 394.93,110.39 396.39,109.93 397.85,109.93 399.31,109.93 400.77,109.93 402.23,109.64 403.68,109.47 405.14,108.87 406.60,108.19 408.06,107.39 409.52,106.20 410.98,105.36 412.44,103.64 413.90,102.60 415.36,101.90 416.82,100.78 418.28,100.07 419.74,98.65 421.20,96.50 422.66,95.85 424.12,95.01 425.58,94.21 427.04,93.94 428.50,92.91 429.96,92.73 431.42,91.50 432.88,90.38 434.34,89.71 435.80,88.95 437.26,87.94 438.72,87.67 440.18,87.58 441.64,87.47 443.10,87.40 444.56,86.77 446.02,85.94 447.48,84.93 448.94,84.65 450.40,83.84 451.86,82.79 453.31,80.69 454.77,79.15 456.23,77.25 457.69,76.74 459.15,75.74 460.61,73.87 462.07,72.81 463.53,72.23 464.99,71.41 466.45,70.87 467.91,70.10 469.37,69.74 470.83,68.96 472.29,67.47 473.75,65.83 475.21,65.32 476.67,64.40 478.13,62.70 479.59,61.82 481.05,59.71 482.51,58.70 483.97,56.87 485.43,55.08 486.89,52.92 488.35,49.68 489.81,47.53 491.27,45.68 492.73,44.50 494.19,42.96 495.65,41.59 497.11,40.92 498.57,39.80 500.03,38.45 501.49,37.68 502.94,36.52 504.40,35.64 505.86,34.80 507.32,33.53 508.78,31.23" />
    </svg>
  