
    <svg width="540" height="160" xmlns="http://www.w3.org/2000/svg">
      <style>.line{fill:none;stroke:#388bfd;stroke-width:1.5}.axis{stroke:#555;stroke-width:1;opacity:0.5}.label{fill:#999;font-family:sans-serif;font-size:10px;text-anchor:middle}</style>
      <line class="axis" x1="30" y1="30" x2="30" y2="130" />
      <line class="axis" x1="30" y1="130" x2="510" y2="130" />
      <text class="label" x="15" y="30">5,021</text>
      <text class="label" x="15" y="134">0</text>
      <text class="label" x="30" y="148">2021</text>
      <text class="label" x="510" y="148">2026</text>
      <polyline class="line" points="30.00,129.96 31.52,129.94 33.05,129.92 34.57,129.92 36.10,129.92 37.62,129.66 39.15,129.66 40.67,129.66 42.20,128.23 43.72,125.86 45.25,125.74 46.77,125.74 48.30,125.74 49.82,125.74 51.34,125.74 52.87,125.74 54.39,125.74 55.92,125.74 57.44,125.74 58.97,125.74 60.49,125.74 62.02,125.74 63.54,125.74 65.07,125.74 66.59,125.74 68.12,125.74 69.64,125.74 71.16,124.38 72.69,124.38 74.21,124.36 75.74,124.36 77.26,124.36 78.79,124.36 80.31,124.28 81.84,124.28 83.36,124.28 84.89,124.28 86.41,124.28 87.94,124.28 89.46,124.28 90.98,124.28 92.51,124.28 94.03,124.28 95.56,124.28 97.08,124.28 98.61,124.28 100.13,124.28 101.66,124.28 103.18,124.28 104.71,124.28 106.23,124.28 107.76,124.20 109.28,122.99 110.80,121.87 112.33,121.42 113.85,119.21 115.38,119.21 116.90,119.21 118.43,119.21 119.95,119.21 121.48,119.21 123.00,119.21 124.53,119.21 126.05,119.21 127.58,119.21 129.10,119.21 130.62,119.21 132.15,119.05 133.67,119.05 135.20,119.05 136.72,118.85 138.25,118.85 139.77,118.85 141.30,118.85 142.82,118.79 144.35,118.79 145.87,118.79 147.40,118.79 148.92,118.75 150.44,118.75 151.97,118.75 153.49,118.75 155.02,118.75 156.54,118.75 158.07,118.75 159.59,118.75 161.12,118.75 162.64,118.75 164.17,118.75 165.69,118.75 167.22,118.75 168.74,118.75 170.26,118.75 171.79,118.75 173.31,118.75 174.84,118.75 176.36,118.75 177.89,118.75 179.41,118.75 180.94,118.75 182.46,118.75 183.99,118.69 185.51,118.69 187.04,118.69 188.56,118.69 190.08,118.69 191.61,118.69 193.13,118.69 194.66,118.69 196.18,118.69 197.71,118.69 199.23,118.69 200.76,118.69 202.28,118.69 203.81,118.69 205.33,118.69 206.86,118.65 208.38,118.13 209.90,117.99 211.43,117.77 212.95,117.49 214.48,117.41 216.00,117.41 217.53,117.41 219.05,116.97 220.58,116.93 222.10,116.66 223.63,116.56 225.15,116.38 226.68,115.68 228.20,115.64 229.72,115.54 231.25,115.52 232.77,115.42 234.30,115.42 235.82,115.38 237.35,115.38 238.87,115.38 240.40,115.38 241.92,115.38 243.45,115.38 244.97,115.38 246.50,115.16 248.02,114.52 249.54,114.05 251.07,113.91 252.59,113.61 254.12,113.59 255.64,113.55 257.17,113.53 258.69,113.53 260.22,113.53 261.74,113.39 263.27,113.25 264.79,113.21 266.32,113.17 267.84,113.13 269.36,112.67 270.89,112.35 272.41,111.88 273.94,111.58 275.46,111.36 276.99,111.26 278.51,111.14 280.04,111.12 281.56,111.02 283.09,110.72 284.61,110.72 286.14,110.72 287.66,110.70 289.18,110.68 290.71,110.68 292.23,110.52 293.76,110.48 295.28,110.46 296.81,110.44 298.33,110.40 299.86,110.40 301.38,110.40 302.91,110.40 304.43,110.40 305.96,110.40 307.48,110.40 309.00,110.40 310.53,110.34 312.05,110.28 313.58,110.28 315.10,109.92 316.63,109.90 318.15,109.88 319.68,109.82 321.20,109.65 322.73,109.21 324.25,109.13 325.78,109.13 327.30,109.13 328.82,109.13 330.35,109.13 331.87,109.13 333.40,109.13 334.92,109.13 336.45,109.13 337.97,109.13 339.50,109.13 341.02,109.13 342.55,109.13 344.07,109.11 345.60,108.99 347.12,108.97 348.64,108.97 350.17,108.97 351.69,108.97 353.22,108.89 354.74,108.89 356.27,108.57 357.79,108.27 359.32,108.27 360.84,108.27 362.37,108.27 363.89,108.27 365.42,108.23 366.94,108.23 368.46,108.19 369.99,108.05 371.51,107.93 373.04,107.39 374.56,107.38 376.09,106.56 377.61,106.08 379.14,105.72 380.66,104.59 382.19,104.29 383.71,104.17 385.24,103.79 386.76,103.21 388.28,103.07 389.81,102.87 391.33,102.56 392.86,102.28 394.38,102.16 395.91,101.96 397.43,101.82 398.96,101.46 400.48,101.14 402.01,100.76 403.53,100.15 405.06,99.79 406.58,98.01 408.10,96.68 409.63,95.82 411.15,95.09 412.68,94.27 414.20,94.27 415.73,94.27 417.25,94.27 418.78,93.75 420.30,93.45 421.83,92.80 423.35,92.04 424.88,91.00 426.40,89.37 427.92,88.45 429.45,86.78 430.97,85.81 432.50,85.19 434.02,84.17 435.55,83.38 437.07,82.02 438.60,80.05 440.12,79.47 441.65,78.64 443.17,77.92 444.70,77.68 446.22,76.76 447.74,76.60 449.27,75.51 450.79,74.51 452.32,73.92 453.84,73.22 455.37,72.26 456.89,71.98 458.42,71.84 459.94,71.70 461.47,71.59 462.99,70.83 464.52,69.97 466.04,68.62 467.56,68.22 469.09,67.52 470.61,66.39 472.14,63.86 473.66,61.95 475.19,59.81 476.71,59.36 478.24,58.42 479.76,56.53 481.29,55.37 482.81,54.74 484.34,53.78 485.86,53.28 487.38,52.59 488.91,52.27 490.43,51.19 491.96,49.58 493.48,48.04 495.01,47.59 496.53,46.79 498.06,45.36 499.58,44.28 501.11,42.69 502.63,41.87 504.16,40.24 505.68,38.07 507.20,36.21 508.73,32.29" />
    </svg>
  