
    <svg width="540" height="160" xmlns="http://www.w3.org/2000/svg">
      <style>.line{fill:none;stroke:#388bfd;stroke-width:1.5}.axis{stroke:#555;stroke-width:1;opacity:0.5}.label{fill:#999;font-family:sans-serif;font-size:10px;text-anchor:middle}</style>
      <line class="axis" x1="30" y1="30" x2="30" y2="130" />
      <line class="axis" x1="30" y1="130" x2="510" y2="130" />
      <text class="label" x="15" y="30">7,450</text>
      <text class="label" x="15" y="134">0</text>
      <text class="label" x="30" y="148">2021</text>
      <text class="label" x="510" y="148">2026</text>
      <polyline class="line" points="30.00,129.97 31.50,129.96 33.01,129.95 34.51,129.95 36.01,129.95 37.52,129.77 39.02,129.77 40.52,129.77 42.03,128.81 43.53,127.21 45.03,127.13 46.53,127.13 48.04,127.13 49.54,127.13 51.04,127.13 52.55,127.13 54.05,127.13 55.55,127.13 57.06,127.13 58.56,127.13 60.06,127.13 61.57,127.13 63.07,127.13 64.57,127.13 66.08,127.13 67.58,127.13 69.08,127.13 70.58,126.21 72.09,126.21 73.59,126.20 75.09,126.20 76.60,126.20 78.10,126.20 79.60,126.15 81.11,126.15 82.61,126.15 84.11,126.15 85.62,126.15 87.12,126.15 88.62,126.15 90.13,126.15 91.63,126.15 93.13,126.15 94.63,126.15 96.14,126.15 97.64,126.15 99.14,126.15 100.65,126.15 102.15,126.15 103.65,126.15 105.16,126.15 106.66,126.09 108.16,125.28 109.67,124.52 111.17,124.21 112.67,122.72 114.18,122.72 115.68,122.72 117.18,122.72 118.68,122.72 120.19,122.72 121.69,122.72 123.19,122.72 124.70,122.72 126.20,122.72 127.70,122.72 129.21,122.72 130.71,122.62 132.21,122.62 133.72,122.62 135.22,122.48 136.72,122.48 138.23,122.48 139.73,122.48 141.23,122.44 142.73,122.44 144.24,122.44 145.74,122.44 147.24,122.42 148.75,122.42 150.25,122.42 151.75,122.42 153.26,122.42 154.76,122.42 156.26,122.42 157.77,122.42 159.27,122.42 160.77,122.42 162.28,122.42 163.78,122.42 165.28,122.42 166.78,122.42 168.29,122.42 169.79,122.42 171.29,122.42 172.80,122.42 174.30,122.42 175.80,122.42 177.31,122.42 178.81,122.42 180.31,122.42 181.82,122.38 183.32,122.38 184.82,122.38 186.33,122.38 187.83,122.38 189.33,122.38 190.84,122.38 192.34,122.38 193.84,122.38 195.34,122.38 196.85,122.38 198.35,122.38 199.85,122.38 201.36,122.38 202.86,122.38 204.36,122.35 205.87,122.00 207.37,121.91 208.87,121.76 210.38,121.57 211.88,121.52 213.38,121.52 214.89,121.52 216.39,121.22 217.89,121.19 219.39,121.01 220.90,120.94 222.40,120.82 223.90,120.35 225.41,120.32 226.91,120.26 228.41,120.24 229.92,120.17 231.42,120.17 232.92,120.15 234.43,120.15 235.93,120.15 237.43,120.15 238.94,120.15 240.44,120.15 241.94,120.15 243.44,120.00 244.95,119.57 246.45,119.25 247.95,119.15 249.46,118.95 250.96,118.94 252.46,118.91 253.97,118.90 255.47,118.90 256.97,118.90 258.48,118.81 259.98,118.71 261.48,118.68 262.99,118.66 264.49,118.63 265.99,118.32 267.49,118.11 269.00,117.79 270.50,117.58 272.00,117.44 273.51,117.37 275.01,117.29 276.51,117.28 278.02,117.21 279.52,117.01 281.02,117.01 282.53,117.01 284.03,116.99 285.53,116.98 287.04,116.98 288.54,116.87 290.04,116.85 291.54,116.83 293.05,116.82 294.55,116.79 296.05,116.79 297.56,116.79 299.06,116.79 300.56,116.79 302.07,116.79 303.57,116.79 305.07,116.79 306.58,116.75 308.08,116.71 309.58,116.71 311.09,116.47 312.59,116.46 314.09,116.44 315.59,116.40 317.10,116.28 318.60,115.99 320.10,115.93 321.61,115.93 323.11,115.93 324.61,115.93 326.12,115.93 327.62,115.93 329.12,115.93 330.63,115.93 332.13,115.93 333.63,115.93 335.14,115.93 336.64,115.93 338.14,115.93 339.65,115.92 341.15,115.84 342.65,115.83 344.15,115.83 345.66,115.83 347.16,115.83 348.66,115.77 350.17,115.77 351.67,115.56 353.17,115.36 354.68,115.36 356.18,115.36 357.68,115.36 359.19,115.36 360.69,115.33 362.19,115.33 363.70,115.30 365.20,115.21 366.70,115.13 368.20,114.77 369.71,114.75 371.21,114.20 372.71,113.88 374.22,113.64 375.72,112.87 377.22,112.67 378.73,112.59 380.23,112.34 381.73,111.95 383.24,111.85 384.74,111.72 386.24,111.50 387.75,111.32 389.25,111.23 390.75,111.10 392.25,111.01 393.76,110.77 395.26,110.55 396.76,110.30 398.27,109.88 399.77,109.64 401.27,108.44 402.78,107.54 404.28,106.97 405.78,106.47 407.29,105.92 408.79,105.92 410.29,105.92 411.80,105.92 413.30,105.57 414.80,105.37 416.30,104.64 417.81,103.83 419.31,102.87 420.81,101.44 422.32,100.43 423.82,98.36 425.32,97.11 426.83,96.28 428.33,94.94 429.83,94.08 431.34,92.38 432.84,89.80 434.34,89.02 435.85,88.01 437.35,87.05 438.85,86.72 440.35,85.49 441.86,85.28 443.36,83.80 444.86,82.46 446.37,81.65 447.87,80.74 449.37,79.53 450.88,79.21 452.38,79.10 453.88,78.97 455.39,78.89 456.89,78.12 458.39,77.13 459.90,75.92 461.40,75.58 462.90,74.60 464.41,73.34 465.91,70.83 467.41,68.98 468.91,66.70 470.42,66.09 471.92,64.89 473.42,62.64 474.93,61.37 476.43,60.67 477.93,59.69 479.44,59.05 480.94,58.12 482.44,57.69 483.95,56.75 485.45,54.97 486.95,52.99 488.46,52.39 489.96,51.46 491.46,50.23 492.96,49.34 494.47,47.96 495.97,47.10 497.47,45.28 498.98,43.34 500.48,41.64 501.98,38.26 503.49,36.16 504.99,34.13 506.49,33.01 508.00,31.36 509.50,30.00" />
    </svg>
  