
    <svg width="540" height="160" xmlns="http://www.w3.org/2000/svg">
      <style>.line{fill:none;stroke:#388bfd;stroke-width:1.5}.axis{stroke:#555;stroke-width:1;opacity:0.5}.label{fill:#999;font-family:sans-serif;font-size:10px;text-anchor:middle}</style>
      <line class="axis" x1="30" y1="30" x2="30" y2="130" />
      <line class="axis" x1="30" y1="130" x2="510" y2="130" />
      <text class="label" x="15" y="30">9,509</text>
      <text class="label" x="15" y="134">0</text>
      <text class="label" x="30" y="148">2021</text>
      <text class="label" x="510" y="148">2026</text>
      <polyline class="line" points="30.00,129.98 31.43,129.97 32.86,129.96 34.28,129.96 35.71,129.96 37.14,129.82 38.57,129.82 40.00,129.82 41.42,129.06 42.85,127.81 44.28,127.75 45.71,127.75 47.13,127.75 48.56,127.75 49.99,127.75 51.42,127.75 52.85,127.75 54.27,127.75 55.70,127.75 57.13,127.75 58.56,127.75 59.99,127.75 61.41,127.75 62.84,127.75 64.27,127.75 65.70,127.75 67.12,127.75 68.55,127.03 69.98,127.03 71.41,127.02 72.84,127.02 74.26,127.02 75.69,127.02 77.12,126.98 78.55,126.98 79.98,126.98 81.40,126.98 82.83,126.98 84.26,126.98 85.69,126.98 87.11,126.98 88.54,126.98 89.97,126.98 91.40,126.98 92.83,126.98 94.25,126.98 95.68,126.98 97.11,126.98 98.54,126.98 99.97,126.98 101.39,126.98 102.82,126.94 104.25,126.30 105.68,125.71 107.10,125.47 108.53,124.30 109.96,124.30 111.39,124.30 112.82,124.30 114.24,124.30 115.67,124.30 117.10,124.30 118.53,124.30 119.96,124.30 121.38,124.30 122.81,124.30 124.24,124.30 125.67,124.22 127.09,124.22 128.52,124.22 129.95,124.11 131.38,124.11 132.81,124.11 134.23,124.11 135.66,124.08 137.09,124.08 138.52,124.08 139.95,124.08 141.37,124.06 142.80,124.06 144.23,124.06 145.66,124.06 147.08,124.06 148.51,124.06 149.94,124.06 151.37,124.06 152.80,124.06 154.22,124.06 155.65,124.06 157.08,124.06 158.51,124.06 159.94,124.06 161.36,124.06 162.79,124.06 164.22,124.06 165.65,124.06 167.07,124.06 168.50,124.06 169.93,124.06 171.36,124.06 172.79,124.06 174.21,124.03 175.64,124.03 177.07,124.03 178.50,124.03 179.93,124.03 181.35,124.03 182.78,124.03 184.21,124.03 185.64,124.03 187.06,124.03 188.49,124.03 189.92,124.03 191.35,124.03 192.78,124.03 194.20,124.03 195.63,124.01 197.06,123.73 198.49,123.66 199.92,123.54 201.34,123.40 202.77,123.35 204.20,123.35 205.63,123.35 207.06,123.12 208.48,123.10 209.91,122.95 211.34,122.90 212.77,122.81 214.19,122.44 215.62,122.42 217.05,122.37 218.48,122.35 219.91,122.30 221.33,122.30 222.76,122.28 224.19,122.28 225.62,122.28 227.05,122.28 228.47,122.28 229.90,122.28 231.33,122.28 232.76,122.17 234.18,121.83 235.61,121.58 237.04,121.50 238.47,121.35 239.90,121.33 241.32,121.31 242.75,121.30 244.18,121.30 245.61,121.30 247.04,121.23 248.46,121.16 249.89,121.13 251.32,121.11 252.75,121.09 254.17,120.85 255.60,120.68 257.03,120.43 258.46,120.27 259.89,120.16 261.31,120.10 262.74,120.04 264.17,120.03 265.60,119.98 267.03,119.82 268.45,119.82 269.88,119.82 271.31,119.81 272.74,119.80 274.16,119.80 275.59,119.72 277.02,119.69 278.45,119.68 279.88,119.67 281.30,119.65 282.73,119.65 284.16,119.65 285.59,119.65 287.02,119.65 288.44,119.65 289.87,119.65 291.30,119.65 292.73,119.62 294.15,119.59 295.58,119.59 297.01,119.40 298.44,119.39 299.87,119.38 301.29,119.35 302.72,119.25 304.15,119.02 305.58,118.98 307.01,118.98 308.43,118.98 309.86,118.98 311.29,118.98 312.72,118.98 314.14,118.98 315.57,118.98 317.00,118.98 318.43,118.98 319.86,118.98 321.28,118.98 322.71,118.98 324.14,118.97 325.57,118.91 327.00,118.89 328.42,118.89 329.85,118.89 331.28,118.89 332.71,118.85 334.13,118.85 335.56,118.68 336.99,118.53 338.42,118.53 339.85,118.53 341.27,118.53 342.70,118.53 344.13,118.51 345.56,118.51 346.99,118.48 348.41,118.41 349.84,118.35 351.27,118.06 352.70,118.05 354.12,117.62 355.55,117.37 356.98,117.18 358.41,116.58 359.84,116.42 361.26,116.36 362.69,116.16 364.12,115.86 365.55,115.78 366.98,115.68 368.40,115.51 369.83,115.36 371.26,115.30 372.69,115.19 374.12,115.12 375.54,114.93 376.97,114.76 378.40,114.56 379.83,114.24 381.25,114.05 382.68,113.11 384.11,112.41 385.54,111.95 386.97,111.56 388.39,111.13 389.82,111.13 391.25,111.13 392.68,111.13 394.11,110.86 395.53,110.70 396.96,110.13 398.39,109.49 399.82,108.75 401.24,107.62 402.67,106.83 404.10,105.21 405.53,104.23 406.96,103.58 408.38,102.53 409.81,101.86 411.24,100.52 412.67,98.50 414.10,97.89 415.52,97.10 416.95,96.35 418.38,96.10 419.81,95.13 421.23,94.96 422.66,93.80 424.09,92.75 425.52,92.12 426.95,91.40 428.37,90.46 429.80,90.21 431.23,90.12 432.66,90.02 434.09,89.95 435.51,89.35 436.94,88.58 438.37,87.63 439.80,87.37 441.22,86.60 442.65,85.61 444.08,83.64 445.51,82.19 446.94,80.40 448.36,79.93 449.79,78.99 451.22,77.23 452.65,76.23 454.08,75.68 455.50,74.92 456.93,74.41 458.36,73.68 459.79,73.35 461.21,72.61 462.64,71.21 464.07,69.67 465.50,69.19 466.93,68.32 468.35,66.72 469.78,65.90 471.21,63.92 472.64,62.97 474.07,61.24 475.49,59.56 476.92,57.53 478.35,54.48 479.78,52.46 481.20,50.73 482.63,49.61 484.06,48.17 485.49,46.88 486.92,46.25 488.34,45.20 489.77,43.92 491.20,43.21 492.63,42.11 494.06,41.28 495.48,40.50 496.91,39.31 498.34,37.14 499.77,35.41 501.19,33.94 502.62,32.73 504.05,32.29 505.48,31.72 506.91,31.26 508.33,30.74 509.76,30.00" />
    </svg>
  