
    <svg width="540" height="160" xmlns="http://www.w3.org/2000/svg">
      <style>.line{fill:none;stroke:#388bfd;stroke-width:1.5}.axis{stroke:#555;stroke-width:1;opacity:0.5}.label{fill:#999;font-family:sans-serif;font-size:10px;text-anchor:middle}</style>
      <line class="axis" x1="30" y1="30" x2="30" y2="130" />
      <line class="axis" x1="30" y1="130" x2="510" y2="130" />
      <text class="label" x="15" y="30">9,424</text>
      <text class="label" x="15" y="134">0</text>
      <text class="label" x="30" y="148">2021</text>
      <text class="label" x="510" y="148">2026</text>
      <polyline class="line" points="30.00,129.98 31.43,129.97 32.87,129.96 34.30,129.96 35.74,129.96 37.17,129.82 38.61,129.82 40.04,129.82 41.48,129.06 42.91,127.79 44.35,127.73 45.78,127.73 47.22,127.73 48.65,127.73 50.09,127.73 51.52,127.73 52.96,127.73 54.39,127.73 55.83,127.73 57.26,127.73 58.70,127.73 60.13,127.73 61.57,127.73 63.00,127.73 64.44,127.73 65.87,127.73 67.31,127.73 68.74,127.01 70.18,127.01 71.61,127.00 73.05,127.00 74.48,127.00 75.92,127.00 77.35,126.95 78.79,126.95 80.22,126.95 81.66,126.95 83.09,126.95 84.53,126.95 85.96,126.95 87.40,126.95 88.83,126.95 90.27,126.95 91.70,126.95 93.14,126.95 94.57,126.95 96.01,126.95 97.44,126.95 98.88,126.95 100.31,126.95 101.75,126.95 103.18,126.91 104.62,126.26 106.05,125.67 107.49,125.43 108.92,124.25 110.36,124.25 111.79,124.25 113.23,124.25 114.66,124.25 116.10,124.25 117.53,124.25 118.97,124.25 120.40,124.25 121.84,124.25 123.27,124.25 124.71,124.25 126.14,124.16 127.58,124.16 129.01,124.16 130.45,124.06 131.88,124.06 133.32,124.06 134.75,124.06 136.19,124.03 137.62,124.03 139.06,124.03 140.49,124.03 141.93,124.00 143.36,124.00 144.80,124.00 146.23,124.00 147.67,124.00 149.10,124.00 150.54,124.00 151.97,124.00 153.41,124.00 154.84,124.00 156.28,124.00 157.71,124.00 159.15,124.00 160.58,124.00 162.02,124.00 163.45,124.00 164.89,124.00 166.32,124.00 167.76,124.00 169.19,124.00 170.63,124.00 172.06,124.00 173.50,124.00 174.93,123.97 176.37,123.97 177.80,123.97 179.24,123.97 180.67,123.97 182.11,123.97 183.54,123.97 184.98,123.97 186.41,123.97 187.85,123.97 189.28,123.97 190.72,123.97 192.15,123.97 193.59,123.97 195.02,123.97 196.46,123.95 197.89,123.68 199.33,123.60 200.76,123.48 202.20,123.34 203.63,123.29 205.07,123.29 206.50,123.29 207.94,123.06 209.37,123.04 210.81,122.89 212.24,122.84 213.68,122.74 215.11,122.37 216.55,122.35 217.98,122.30 219.42,122.29 220.85,122.23 222.29,122.23 223.72,122.21 225.16,122.21 226.59,122.21 228.03,122.21 229.46,122.21 230.90,122.21 232.33,122.21 233.77,122.09 235.20,121.76 236.64,121.50 238.07,121.43 239.51,121.27 240.94,121.26 242.38,121.24 243.81,121.22 245.25,121.22 246.68,121.22 248.12,121.15 249.55,121.08 250.99,121.05 252.42,121.03 253.86,121.01 255.29,120.77 256.73,120.60 258.16,120.34 259.60,120.18 261.03,120.07 262.47,120.01 263.90,119.95 265.34,119.94 266.77,119.89 268.21,119.73 269.64,119.73 271.08,119.73 272.51,119.72 273.95,119.71 275.38,119.71 276.82,119.62 278.25,119.60 279.69,119.59 281.12,119.58 282.56,119.56 283.99,119.56 285.43,119.56 286.86,119.56 288.30,119.56 289.73,119.56 291.17,119.56 292.60,119.56 294.04,119.53 295.47,119.49 296.91,119.49 298.34,119.30 299.78,119.29 301.21,119.28 302.65,119.25 304.08,119.16 305.52,118.92 306.95,118.88 308.39,118.88 309.82,118.88 311.26,118.88 312.69,118.88 314.13,118.88 315.56,118.88 317.00,118.88 318.43,118.88 319.87,118.88 321.30,118.88 322.74,118.88 324.17,118.88 325.61,118.87 327.04,118.81 328.48,118.79 329.91,118.79 331.35,118.79 332.78,118.79 334.22,118.75 335.65,118.75 337.09,118.58 338.52,118.42 339.96,118.42 341.39,118.42 342.83,118.42 344.26,118.42 345.70,118.40 347.13,118.40 348.57,118.38 350.00,118.31 351.43,118.24 352.87,117.96 354.30,117.95 355.74,117.51 357.17,117.26 358.61,117.06 360.04,116.46 361.48,116.30 362.91,116.24 364.35,116.04 365.78,115.73 367.22,115.65 368.65,115.55 370.09,115.38 371.52,115.23 372.96,115.17 374.39,115.06 375.83,114.99 377.26,114.79 378.70,114.62 380.13,114.42 381.57,114.09 383.00,113.90 384.44,112.96 385.87,112.25 387.31,111.79 388.74,111.40 390.18,110.96 391.61,110.96 393.05,110.96 394.48,110.96 395.92,110.69 397.35,110.53 398.79,109.96 400.22,109.31 401.66,108.55 403.09,107.42 404.53,106.62 405.96,104.99 407.40,104.00 408.83,103.34 410.27,102.28 411.70,101.60 413.14,100.26 414.57,98.22 416.01,97.60 417.44,96.81 418.88,96.04 420.31,95.79 421.75,94.81 423.18,94.64 424.62,93.48 426.05,92.42 427.49,91.78 428.92,91.06 430.36,90.10 431.79,89.85 433.23,89.76 434.66,89.66 436.10,89.59 437.53,88.99 438.97,88.20 440.40,87.25 441.84,86.98 443.27,86.21 444.71,85.21 446.14,83.23 447.58,81.76 449.01,79.96 450.45,79.48 451.88,78.53 453.32,76.75 454.75,75.74 456.19,75.19 457.62,74.42 459.06,73.91 460.49,73.18 461.93,72.84 463.36,72.09 464.80,70.68 466.23,69.12 467.67,68.65 469.10,67.77 470.54,66.15 471.97,65.32 473.41,63.32 474.84,62.36 476.28,60.62 477.71,58.93 479.15,56.88 480.58,53.80 482.02,51.76 483.45,50.01 484.89,48.89 486.32,47.43 487.76,46.13 489.19,45.49 490.63,44.43 492.06,43.15 493.50,42.43 494.93,41.32 496.37,40.48 497.80,39.69 499.24,38.49 500.67,36.30 502.11,34.55 503.54,33.08 504.98,31.86 506.41,31.41 507.85,30.84 509.28,30.37" />
    </svg>
  