
    <svg width="540" height="160" xmlns="http://www.w3.org/2000/svg">
      <style>.line{fill:none;stroke:#388bfd;stroke-width:1.5}.axis{stroke:#555;stroke-width:1;opacity:0.5}.label{fill:#999;font-family:sans-serif;font-size:10px;text-anchor:middle}</style>
      <line class="axis" x1="30" y1="30" x2="30" y2="130" />
      <line class="axis" x1="30" y1="130" x2="510" y2="130" />
      <text class="label" x="15" y="30">8,697</text>
      <text class="label" x="15" y="134">0</text>
      <text class="label" x="30" y="148">2021</text>
      <text class="label" x="510" y="148">2026</text>
      <polyline class="line" points="30.00,129.98 31.46,129.97 32.93,129.95 34.39,129.95 35.86,129.95 37.32,129.80 38.78,129.80 40.25,129.80 41.71,128.98 43.18,127.61 44.64,127.54 46.11,127.54 47.57,127.54 49.03,127.54 50.50,127.54 51.96,127.54 53.43,127.54 54.89,127.54 56.35,127.54 57.82,127.54 59.28,127.54 60.75,127.54 62.21,127.54 63.68,127.54 65.14,127.54 66.60,127.54 68.07,127.54 69.53,126.76 71.00,126.76 72.46,126.75 73.92,126.75 75.39,126.75 76.85,126.75 78.32,126.70 79.78,126.70 81.25,126.70 82.71,126.70 84.17,126.70 85.64,126.70 87.10,126.70 88.57,126.70 90.03,126.70 91.49,126.70 92.96,126.70 94.42,126.70 95.89,126.70 97.35,126.70 98.82,126.70 100.28,126.70 101.74,126.70 103.21,126.70 104.67,126.65 106.14,125.95 107.60,125.31 109.06,125.04 110.53,123.77 111.99,123.77 113.46,123.77 114.92,123.77 116.39,123.77 117.85,123.77 119.31,123.77 120.78,123.77 122.24,123.77 123.71,123.77 125.17,123.77 126.63,123.77 128.10,123.68 129.56,123.68 131.03,123.68 132.49,123.56 133.96,123.56 135.42,123.56 136.88,123.56 138.35,123.53 139.81,123.53 141.28,123.53 142.74,123.53 144.20,123.50 145.67,123.50 147.13,123.50 148.60,123.50 150.06,123.50 151.53,123.50 152.99,123.50 154.45,123.50 155.92,123.50 157.38,123.50 158.85,123.50 160.31,123.50 161.77,123.50 163.24,123.50 164.70,123.50 166.17,123.50 167.63,123.50 169.10,123.50 170.56,123.50 172.02,123.50 173.49,123.50 174.95,123.50 176.42,123.50 177.88,123.47 179.34,123.47 180.81,123.47 182.27,123.47 183.74,123.47 185.20,123.47 186.66,123.47 188.13,123.47 189.59,123.47 191.06,123.47 192.52,123.47 193.99,123.47 195.45,123.47 196.91,123.47 198.38,123.47 199.84,123.45 201.31,123.15 202.77,123.07 204.23,122.94 205.70,122.78 207.16,122.73 208.63,122.73 210.09,122.73 211.56,122.48 213.02,122.46 214.48,122.30 215.95,122.24 217.41,122.14 218.88,121.73 220.34,121.71 221.80,121.65 223.27,121.64 224.73,121.58 226.20,121.58 227.66,121.56 229.13,121.56 230.59,121.56 232.05,121.56 233.52,121.56 234.98,121.56 236.45,121.56 237.91,121.43 239.37,121.07 240.84,120.79 242.30,120.71 243.77,120.54 245.23,120.53 246.70,120.50 248.16,120.49 249.62,120.49 251.09,120.49 252.55,120.41 254.02,120.33 255.48,120.31 256.94,120.28 258.41,120.26 259.87,120.00 261.34,119.81 262.80,119.54 264.27,119.36 265.73,119.24 267.19,119.18 268.66,119.11 270.12,119.10 271.59,119.04 273.05,118.87 274.51,118.87 275.98,118.87 277.44,118.86 278.91,118.85 280.37,118.85 281.84,118.75 283.30,118.73 284.76,118.72 286.23,118.71 287.69,118.69 289.16,118.69 290.62,118.69 292.08,118.69 293.55,118.69 295.01,118.69 296.48,118.69 297.94,118.69 299.41,118.65 300.87,118.62 302.33,118.62 303.80,118.41 305.26,118.40 306.73,118.39 308.19,118.35 309.65,118.25 311.12,118.00 312.58,117.95 314.05,117.95 315.51,117.95 316.98,117.95 318.44,117.95 319.90,117.95 321.37,117.95 322.83,117.95 324.30,117.95 325.76,117.95 327.22,117.95 328.69,117.95 330.15,117.95 331.62,117.94 333.08,117.87 334.54,117.86 336.01,117.86 337.47,117.86 338.94,117.86 340.40,117.81 341.87,117.81 343.33,117.63 344.79,117.46 346.26,117.46 347.72,117.46 349.19,117.46 350.65,117.46 352.11,117.43 353.58,117.43 355.04,117.41 356.51,117.33 357.97,117.26 359.44,116.95 360.90,116.94 362.36,116.47 363.83,116.19 365.29,115.98 366.76,115.33 368.22,115.16 369.68,115.09 371.15,114.87 372.61,114.53 374.08,114.45 375.54,114.34 377.01,114.16 378.47,113.99 379.93,113.93 381.40,113.81 382.86,113.73 384.33,113.52 385.79,113.34 387.25,113.12 388.72,112.76 390.18,112.56 391.65,111.53 393.11,110.76 394.58,110.27 396.04,109.84 397.50,109.37 398.97,109.37 400.43,109.37 401.90,109.37 403.36,109.07 404.82,108.90 406.29,108.28 407.75,107.58 409.22,106.76 410.68,105.53 412.15,104.67 413.61,102.90 415.07,101.83 416.54,101.12 418.00,99.97 419.47,99.23 420.93,97.77 422.39,95.56 423.86,94.90 425.32,94.03 426.79,93.21 428.25,92.93 429.72,91.87 431.18,91.69 432.64,90.42 434.11,89.27 435.57,88.58 437.04,87.80 438.50,86.77 439.96,86.49 441.43,86.40 442.89,86.28 444.36,86.21 445.82,85.56 447.29,84.71 448.75,83.67 450.21,83.39 451.68,82.55 453.14,81.47 454.61,79.32 456.07,77.73 457.53,75.77 459.00,75.26 460.46,74.22 461.93,72.30 463.39,71.21 464.86,70.61 466.32,69.77 467.78,69.22 469.25,68.43 470.71,68.06 472.18,67.25 473.64,65.72 475.10,64.03 476.57,63.52 478.03,62.56 479.50,60.82 480.96,59.92 482.43,57.75 483.89,56.71 485.35,54.82 486.82,52.98 488.28,50.77 489.75,47.43 491.21,45.22 492.67,43.33 494.14,42.11 495.60,40.53 497.07,39.12 498.53,38.43 499.99,37.28 501.46,35.89 502.92,35.35 504.39,34.32 505.85,33.45 507.32,32.59 508.78,31.47" />
    </svg>
  