
    <svg width="540" height="160" xmlns="http://www.w3.org/2000/svg">
      <style>.line{fill:none;stroke:#4ec9b0;stroke-width:1.5}.axis{stroke:#555;stroke-width:1;opacity:0.5}.label{fill:#999;font-family:sans-serif;font-size:10px;text-anchor:middle}</style>
      <line class="axis" x1="30" y1="30" x2="30" y2="130" />
      <line class="axis" x1="30" y1="130" x2="510" y2="130" />
      <text class="label" x="15" y="30">4,130</text>
      <text class="label" x="15" y="134">0</text>
      <text class="label" x="30" y="148">2021</text>
      <text class="label" x="510" y="148">2026</text>
      <polyline class="line" points="30.00,129.95 31.53,129.93 33.06,129.90 34.59,129.90 36.12,129.90 37.65,129.59 39.18,129.59 40.71,129.59 42.24,127.85 43.77,124.96 45.30,124.82 46.83,124.82 48.36,124.82 49.89,124.82 51.42,124.82 52.95,124.82 54.48,124.82 56.01,124.82 57.55,124.82 59.08,124.82 60.61,124.82 62.14,124.82 63.67,124.82 65.20,124.82 66.73,124.82 68.26,124.82 69.79,124.82 71.32,123.17 72.85,123.17 74.38,123.15 75.91,123.15 77.44,123.15 78.97,123.15 80.50,123.05 82.03,123.05 83.56,123.05 85.09,123.05 86.62,123.05 88.15,123.05 89.68,123.05 91.21,123.05 92.74,123.05 94.27,123.05 95.80,123.05 97.33,123.05 98.86,123.05 100.39,123.05 101.92,123.05 103.45,123.05 104.98,123.05 106.51,123.05 108.04,122.95 109.57,121.48 111.11,120.12 112.64,119.56 114.17,116.88 115.70,116.88 117.23,116.88 118.76,116.88 120.29,116.88 121.82,116.88 123.35,116.88 124.88,116.88 126.41,116.88 127.94,116.88 129.47,116.88 131.00,116.88 132.53,116.68 134.06,116.68 135.59,116.68 137.12,116.44 138.65,116.44 140.18,116.44 141.71,116.44 143.24,116.37 144.77,116.37 146.30,116.37 147.83,116.37 149.36,116.32 150.89,116.32 152.42,116.32 153.95,116.32 155.48,116.32 157.01,116.32 158.54,116.32 160.07,116.32 161.60,116.32 163.13,116.32 164.67,116.32 166.20,116.32 167.73,116.32 169.26,116.32 170.79,116.32 172.32,116.32 173.85,116.32 175.38,116.32 176.91,116.32 178.44,116.32 179.97,116.32 181.50,116.32 183.03,116.32 184.56,116.25 186.09,116.25 187.62,116.25 189.15,116.25 190.68,116.25 192.21,116.25 193.74,116.25 195.27,116.25 196.80,116.25 198.33,116.25 199.86,116.25 201.39,116.25 202.92,116.25 204.45,116.25 205.98,116.25 207.51,116.20 209.04,115.57 210.57,115.40 212.10,115.13 213.63,114.79 215.16,114.70 216.70,114.70 218.23,114.70 219.76,114.16 221.29,114.12 222.82,113.78 224.35,113.66 225.88,113.44 227.41,112.59 228.94,112.54 230.47,112.42 232.00,112.40 233.53,112.28 235.06,112.28 236.59,112.23 238.12,112.23 239.65,112.23 241.18,112.23 242.71,112.23 244.24,112.23 245.77,112.23 247.30,111.96 248.83,111.19 250.36,110.61 251.89,110.44 253.42,110.07 254.95,110.05 256.48,110.00 258.01,109.98 259.54,109.98 261.07,109.98 262.60,109.81 264.13,109.64 265.66,109.59 267.19,109.54 268.72,109.49 270.26,108.93 271.79,108.55 273.32,107.97 274.85,107.60 276.38,107.34 277.91,107.22 279.44,107.07 280.97,107.05 282.50,106.92 284.03,106.56 285.56,106.56 287.09,106.56 288.62,106.54 290.15,106.51 291.68,106.51 293.21,106.32 294.74,106.27 296.27,106.25 297.80,106.22 299.33,106.17 300.86,106.17 302.39,106.17 303.92,106.17 305.45,106.17 306.98,106.17 308.51,106.17 310.04,106.17 311.57,106.10 313.10,106.03 314.63,106.03 316.16,105.59 317.69,105.57 319.22,105.54 320.75,105.47 322.28,105.25 323.82,104.72 325.35,104.62 326.88,104.62 328.41,104.62 329.94,104.62 331.47,104.62 333.00,104.62 334.53,104.62 336.06,104.62 337.59,104.62 339.12,104.62 340.65,104.62 342.18,104.62 343.71,104.62 345.24,104.60 346.77,104.46 348.30,104.43 349.83,104.43 351.36,104.43 352.89,104.43 354.42,104.33 355.95,104.33 357.48,103.95 359.01,103.58 360.54,103.58 362.07,103.58 363.60,103.58 365.13,103.58 366.66,103.54 368.19,103.54 369.72,103.49 371.25,103.32 372.78,103.17 374.31,102.52 375.84,102.49 377.38,101.50 378.91,100.92 380.44,100.48 381.97,99.10 383.50,98.89 385.03,98.84 386.56,98.84 388.09,98.84 389.62,98.84 391.15,98.79 392.68,98.67 394.21,98.67 395.74,98.67 397.27,98.67 398.80,98.67 400.33,98.67 401.86,98.62 403.39,98.57 404.92,98.57 406.45,98.57 407.98,98.52 409.51,98.52 411.04,98.33 412.57,98.23 414.10,98.23 415.63,98.23 417.16,98.23 418.69,98.23 420.22,98.23 421.75,98.23 423.28,97.70 424.81,97.14 426.34,96.68 427.87,96.05 429.40,95.33 430.94,93.61 432.47,92.54 434.00,91.79 435.53,90.56 437.06,89.59 438.59,87.94 440.12,85.57 441.65,84.87 443.18,83.85 444.71,82.98 446.24,82.69 447.77,81.57 449.30,81.38 450.83,80.05 452.36,78.84 453.89,78.11 455.42,77.26 456.95,76.10 458.48,75.76 460.01,75.59 461.54,75.42 463.07,75.28 464.60,74.36 466.13,73.32 467.66,71.67 469.19,71.19 470.72,70.34 472.25,68.96 473.78,65.88 475.31,63.56 476.84,60.97 478.37,60.41 479.90,59.27 481.43,56.97 482.96,55.57 484.50,54.79 486.03,53.63 487.56,53.03 489.09,52.18 490.62,51.79 492.15,50.48 493.68,48.52 495.21,46.66 496.74,46.10 498.27,45.13 499.80,43.39 501.33,42.08 502.86,40.15 504.39,39.15 505.92,37.17 507.45,34.53 508.98,32.28" />
    </svg>
  