
    <svg width="540" height="160" xmlns="http://www.w3.org/2000/svg">
      <style>.line{fill:none;stroke:#388bfd;stroke-width:1.5}.axis{stroke:#555;stroke-width:1;opacity:0.5}.label{fill:#999;font-family:sans-serif;font-size:10px;text-anchor:middle}</style>
      <line class="axis" x1="30" y1="30" x2="30" y2="130" />
      <line class="axis" x1="30" y1="130" x2="510" y2="130" />
      <text class="label" x="15" y="30">9,205</text>
      <text class="label" x="15" y="134">0</text>
      <text class="label" x="30" y="148">2021</text>
      <text class="label" x="510" y="148">2026</text>
      <polyline class="line" points="30.00,129.98 31.45,129.97 32.90,129.96 34.36,129.96 35.81,129.96 37.26,129.82 38.71,129.82 40.17,129.82 41.62,129.03 43.07,127.74 44.52,127.68 45.98,127.68 47.43,127.68 48.88,127.68 50.33,127.68 51.79,127.68 53.24,127.68 54.69,127.68 56.14,127.68 57.59,127.68 59.05,127.68 60.50,127.68 61.95,127.68 63.40,127.68 64.86,127.68 66.31,127.68 67.76,127.68 69.21,126.94 70.67,126.94 72.12,126.93 73.57,126.93 75.02,126.93 76.48,126.93 77.93,126.88 79.38,126.88 80.83,126.88 82.28,126.88 83.74,126.88 85.19,126.88 86.64,126.88 88.09,126.88 89.55,126.88 91.00,126.88 92.45,126.88 93.90,126.88 95.36,126.88 96.81,126.88 98.26,126.88 99.71,126.88 101.16,126.88 102.62,126.88 104.07,126.84 105.52,126.18 106.97,125.57 108.43,125.32 109.88,124.11 111.33,124.11 112.78,124.11 114.24,124.11 115.69,124.11 117.14,124.11 118.59,124.11 120.05,124.11 121.50,124.11 122.95,124.11 124.40,124.11 125.85,124.11 127.31,124.02 128.76,124.02 130.21,124.02 131.66,123.92 133.12,123.92 134.57,123.92 136.02,123.92 137.47,123.88 138.93,123.88 140.38,123.88 141.83,123.88 143.28,123.86 144.74,123.86 146.19,123.86 147.64,123.86 149.09,123.86 150.54,123.86 152.00,123.86 153.45,123.86 154.90,123.86 156.35,123.86 157.81,123.86 159.26,123.86 160.71,123.86 162.16,123.86 163.62,123.86 165.07,123.86 166.52,123.86 167.97,123.86 169.43,123.86 170.88,123.86 172.33,123.86 173.78,123.86 175.23,123.86 176.69,123.83 178.14,123.83 179.59,123.83 181.04,123.83 182.50,123.83 183.95,123.83 185.40,123.83 186.85,123.83 188.31,123.83 189.76,123.83 191.21,123.83 192.66,123.83 194.11,123.83 195.57,123.83 197.02,123.83 198.47,123.81 199.92,123.53 201.38,123.45 202.83,123.33 204.28,123.18 205.73,123.13 207.19,123.13 208.64,123.13 210.09,122.90 211.54,122.87 213.00,122.72 214.45,122.67 215.90,122.57 217.35,122.19 218.80,122.17 220.26,122.11 221.71,122.10 223.16,122.05 224.61,122.05 226.07,122.03 227.52,122.03 228.97,122.03 230.42,122.03 231.88,122.03 233.33,122.03 234.78,122.03 236.23,121.91 237.69,121.56 239.14,121.30 240.59,121.22 242.04,121.06 243.49,121.05 244.95,121.03 246.40,121.02 247.85,121.02 249.30,121.02 250.76,120.94 252.21,120.86 253.66,120.84 255.11,120.82 256.57,120.80 258.02,120.55 259.47,120.37 260.92,120.11 262.38,119.95 263.83,119.83 265.28,119.78 266.73,119.71 268.18,119.70 269.64,119.65 271.09,119.48 272.54,119.48 273.99,119.48 275.45,119.47 276.90,119.46 278.35,119.46 279.80,119.38 281.26,119.35 282.71,119.34 284.16,119.33 285.61,119.31 287.07,119.31 288.52,119.31 289.97,119.31 291.42,119.31 292.87,119.31 294.33,119.31 295.78,119.31 297.23,119.28 298.68,119.24 300.14,119.24 301.59,119.05 303.04,119.04 304.49,119.03 305.95,119.00 307.40,118.90 308.85,118.66 310.30,118.61 311.75,118.61 313.21,118.61 314.66,118.61 316.11,118.61 317.56,118.61 319.02,118.61 320.47,118.61 321.92,118.61 323.37,118.61 324.83,118.61 326.28,118.61 327.73,118.61 329.18,118.60 330.64,118.54 332.09,118.53 333.54,118.53 334.99,118.53 336.44,118.53 337.90,118.48 339.35,118.48 340.80,118.31 342.25,118.15 343.71,118.15 345.16,118.15 346.61,118.15 348.06,118.15 349.52,118.13 350.97,118.13 352.42,118.10 353.87,118.03 355.33,117.96 356.78,117.67 358.23,117.66 359.68,117.21 361.13,116.95 362.59,116.76 364.04,116.14 365.49,115.98 366.94,115.91 368.40,115.70 369.85,115.39 371.30,115.31 372.75,115.20 374.21,115.03 375.66,114.88 377.11,114.81 378.56,114.70 380.02,114.63 381.47,114.43 382.92,114.26 384.37,114.05 385.82,113.72 387.28,113.52 388.73,112.55 390.18,111.83 391.63,111.36 393.09,110.96 394.54,110.51 395.99,110.51 397.44,110.51 398.90,110.51 400.35,110.23 401.80,110.07 403.25,109.48 404.70,108.82 406.16,108.04 407.61,106.88 409.06,106.07 410.51,104.39 411.97,103.38 413.42,102.71 414.87,101.62 416.32,100.93 417.78,99.55 419.23,97.46 420.68,96.83 422.13,96.02 423.59,95.24 425.04,94.98 426.49,93.98 427.94,93.80 429.39,92.61 430.85,91.52 432.30,90.87 433.75,90.13 435.20,89.15 436.66,88.89 438.11,88.80 439.56,88.70 441.01,88.63 442.47,88.01 443.92,87.21 445.37,86.23 446.82,85.96 448.28,85.17 449.73,84.14 451.18,82.11 452.63,80.61 454.08,78.77 455.54,78.28 456.99,77.30 458.44,75.49 459.89,74.45 461.35,73.89 462.80,73.10 464.25,72.57 465.70,71.83 467.16,71.48 468.61,70.72 470.06,69.27 471.51,67.68 472.97,67.19 474.42,66.28 475.87,64.63 477.32,63.79 478.77,61.73 480.23,60.76 481.68,58.97 483.13,57.24 484.58,55.14 486.04,51.99 487.49,49.90 488.94,48.11 490.39,46.96 491.85,45.47 493.30,44.13 494.75,43.48 496.20,42.40 497.66,41.08 499.11,40.34 500.56,39.21 502.01,38.35 503.46,37.54 504.92,36.31 506.37,34.07 507.82,32.34 509.27,30.83" />
    </svg>
  