
    <svg width="540" height="160" xmlns="http://www.w3.org/2000/svg">
      <style>.line{fill:none;stroke:#388bfd;stroke-width:1.5}.axis{stroke:#555;stroke-width:1;opacity:0.5}.label{fill:#999;font-family:sans-serif;font-size:10px;text-anchor:middle}</style>
      <line class="axis" x1="30" y1="30" x2="30" y2="130" />
      <line class="axis" x1="30" y1="130" x2="510" y2="130" />
      <text class="label" x="15" y="30">5,062</text>
      <text class="label" x="15" y="134">0</text>
      <text class="label" x="30" y="148">2021</text>
      <text class="label" x="510" y="148">2026</text>
      <polyline class="line" points="30.00,129.96 31.52,129.94 33.05,129.92 34.57,129.92 36.09,129.92 37.62,129.66 39.14,129.66 40.66,129.66 42.18,128.24 43.71,125.89 45.23,125.77 46.75,125.77 48.28,125.77 49.80,125.77 51.32,125.77 52.85,125.77 54.37,125.77 55.89,125.77 57.41,125.77 58.94,125.77 60.46,125.77 61.98,125.77 63.51,125.77 65.03,125.77 66.55,125.77 68.08,125.77 69.60,125.77 71.12,124.43 72.64,124.43 74.17,124.41 75.69,124.41 77.21,124.41 78.74,124.41 80.26,124.33 81.78,124.33 83.31,124.33 84.83,124.33 86.35,124.33 87.87,124.33 89.40,124.33 90.92,124.33 92.44,124.33 93.97,124.33 95.49,124.33 97.01,124.33 98.54,124.33 100.06,124.33 101.58,124.33 103.10,124.33 104.63,124.33 106.15,124.33 107.67,124.25 109.20,123.05 110.72,121.94 112.24,121.49 113.77,119.29 115.29,119.29 116.81,119.29 118.33,119.29 119.86,119.29 121.38,119.29 122.90,119.29 124.43,119.29 125.95,119.29 127.47,119.29 129.00,119.29 130.52,119.29 132.04,119.13 133.56,119.13 135.09,119.13 136.61,118.94 138.13,118.94 139.66,118.94 141.18,118.94 142.70,118.88 144.23,118.88 145.75,118.88 147.27,118.88 148.79,118.84 150.32,118.84 151.84,118.84 153.36,118.84 154.89,118.84 156.41,118.84 157.93,118.84 159.46,118.84 160.98,118.84 162.50,118.84 164.02,118.84 165.55,118.84 167.07,118.84 168.59,118.84 170.12,118.84 171.64,118.84 173.16,118.84 174.69,118.84 176.21,118.84 177.73,118.84 179.25,118.84 180.78,118.84 182.30,118.84 183.82,118.78 185.35,118.78 186.87,118.78 188.39,118.78 189.92,118.78 191.44,118.78 192.96,118.78 194.48,118.78 196.01,118.78 197.53,118.78 199.05,118.78 200.58,118.78 202.10,118.78 203.62,118.78 205.15,118.78 206.67,118.74 208.19,118.23 209.71,118.09 211.24,117.87 212.76,117.59 214.28,117.51 215.81,117.51 217.33,117.51 218.85,117.08 220.38,117.04 221.90,116.76 223.42,116.67 224.94,116.49 226.47,115.80 227.99,115.76 229.51,115.66 231.04,115.64 232.56,115.54 234.08,115.54 235.61,115.50 237.13,115.50 238.65,115.50 240.17,115.50 241.70,115.50 243.22,115.50 244.74,115.50 246.27,115.28 247.79,114.65 249.31,114.18 250.84,114.04 252.36,113.74 253.88,113.72 255.40,113.68 256.93,113.66 258.45,113.66 259.97,113.66 261.50,113.52 263.02,113.39 264.54,113.35 266.07,113.31 267.59,113.27 269.11,112.81 270.63,112.50 272.16,112.02 273.68,111.73 275.20,111.51 276.73,111.41 278.25,111.29 279.77,111.27 281.30,111.17 282.82,110.88 284.34,110.88 285.86,110.88 287.39,110.86 288.91,110.84 290.43,110.84 291.96,110.68 293.48,110.64 295.00,110.62 296.53,110.60 298.05,110.56 299.57,110.56 301.09,110.56 302.62,110.56 304.14,110.56 305.66,110.56 307.19,110.56 308.71,110.56 310.23,110.50 311.76,110.44 313.28,110.44 314.80,110.09 316.32,110.07 317.85,110.05 319.37,109.99 320.89,109.81 322.42,109.38 323.94,109.30 325.46,109.30 326.99,109.30 328.51,109.30 330.03,109.30 331.55,109.30 333.08,109.30 334.60,109.30 336.12,109.30 337.65,109.30 339.17,109.30 340.69,109.30 342.22,109.30 343.74,109.28 345.26,109.16 346.78,109.14 348.31,109.14 349.83,109.14 351.35,109.14 352.88,109.06 354.40,109.06 355.92,108.74 357.45,108.45 358.97,108.45 360.49,108.45 362.01,108.45 363.54,108.45 365.06,108.41 366.58,108.41 368.11,108.37 369.63,108.23 371.15,108.11 372.68,107.58 374.20,107.56 375.72,106.75 377.24,106.27 378.77,105.92 380.29,104.79 381.81,104.50 383.34,104.38 384.86,104.00 386.38,103.43 387.91,103.29 389.43,103.09 390.95,102.78 392.47,102.50 394.00,102.38 395.52,102.18 397.04,102.05 398.57,101.69 400.09,101.37 401.61,101.00 403.14,100.39 404.66,100.03 406.18,98.27 407.70,96.95 409.23,96.10 410.75,95.37 412.27,94.56 413.80,94.56 415.32,94.56 416.84,94.56 418.37,94.05 419.89,93.75 421.41,93.10 422.93,92.35 424.46,91.32 425.98,89.70 427.50,88.79 429.03,87.13 430.55,86.16 432.07,85.55 433.60,84.54 435.12,83.75 436.64,82.41 438.16,80.45 439.69,79.88 441.21,79.05 442.73,78.34 444.26,78.10 445.78,77.19 447.30,77.04 448.83,75.95 450.35,74.96 451.87,74.37 453.40,73.68 454.92,72.73 456.44,72.45 457.96,72.32 459.49,72.18 461.01,72.06 462.53,71.31 464.06,70.46 465.58,69.11 467.10,68.72 468.63,68.03 470.15,66.90 471.67,64.39 473.19,62.50 474.72,60.38 476.24,59.93 477.76,59.00 479.29,57.12 480.81,55.98 482.33,55.35 483.86,54.40 485.38,53.90 486.90,53.21 488.42,52.90 489.95,51.83 491.47,50.23 492.99,48.71 494.52,48.25 496.04,47.46 497.56,46.04 499.09,44.97 500.61,43.39 502.13,42.58 503.65,40.96 505.18,38.81 506.70,36.97 508.22,33.08 509.75,30.34" />
    </svg>
  