
    <svg width="540" height="160" xmlns="http://www.w3.org/2000/svg">
      <style>.line{fill:none;stroke:#388bfd;stroke-width:1.5}.axis{stroke:#555;stroke-width:1;opacity:0.5}.label{fill:#999;font-family:sans-serif;font-size:10px;text-anchor:middle}</style>
      <line class="axis" x1="30" y1="30" x2="30" y2="130" />
      <line class="axis" x1="30" y1="130" x2="510" y2="130" />
      <text class="label" x="15" y="30">4,195</text>
      <text class="label" x="15" y="134">0</text>
      <text class="label" x="30" y="148">2021</text>
      <text class="label" x="510" y="148">2026</text>
      <polyline class="line" points="30.00,129.95 31.53,129.93 33.06,129.90 34.59,129.90 36.11,129.90 37.64,129.59 39.17,129.59 40.70,129.59 42.23,127.88 43.76,125.04 45.29,124.90 46.82,124.90 48.34,124.90 49.87,124.90 51.40,124.90 52.93,124.90 54.46,124.90 55.99,124.90 57.52,124.90 59.04,124.90 60.57,124.90 62.10,124.90 63.63,124.90 65.16,124.90 66.69,124.90 68.22,124.90 69.75,124.90 71.27,123.28 72.80,123.28 74.33,123.25 75.86,123.25 77.39,123.25 78.92,123.25 80.45,123.16 81.97,123.16 83.50,123.16 85.03,123.16 86.56,123.16 88.09,123.16 89.62,123.16 91.15,123.16 92.68,123.16 94.20,123.16 95.73,123.16 97.26,123.16 98.79,123.16 100.32,123.16 101.85,123.16 103.38,123.16 104.90,123.16 106.43,123.16 107.96,123.06 109.49,121.61 111.02,120.27 112.55,119.73 114.08,117.08 115.61,117.08 117.13,117.08 118.66,117.08 120.19,117.08 121.72,117.08 123.25,117.08 124.78,117.08 126.31,117.08 127.83,117.08 129.36,117.08 130.89,117.08 132.42,116.89 133.95,116.89 135.48,116.89 137.01,116.65 138.54,116.65 140.06,116.65 141.59,116.65 143.12,116.58 144.65,116.58 146.18,116.58 147.71,116.58 149.24,116.53 150.76,116.53 152.29,116.53 153.82,116.53 155.35,116.53 156.88,116.53 158.41,116.53 159.94,116.53 161.46,116.53 162.99,116.53 164.52,116.53 166.05,116.53 167.58,116.53 169.11,116.53 170.64,116.53 172.17,116.53 173.69,116.53 175.22,116.53 176.75,116.53 178.28,116.53 179.81,116.53 181.34,116.53 182.87,116.53 184.39,116.46 185.92,116.46 187.45,116.46 188.98,116.46 190.51,116.46 192.04,116.46 193.57,116.46 195.10,116.46 196.62,116.46 198.15,116.46 199.68,116.46 201.21,116.46 202.74,116.46 204.27,116.46 205.80,116.46 207.32,116.41 208.85,115.79 210.38,115.63 211.91,115.36 213.44,115.03 214.97,114.93 216.50,114.93 218.03,114.93 219.55,114.41 221.08,114.36 222.61,114.03 224.14,113.91 225.67,113.69 227.20,112.86 228.73,112.81 230.25,112.69 231.78,112.67 233.31,112.55 234.84,112.55 236.37,112.50 237.90,112.50 239.43,112.50 240.96,112.50 242.48,112.50 244.01,112.50 245.54,112.50 247.07,112.24 248.60,111.48 250.13,110.91 251.66,110.74 253.18,110.38 254.71,110.36 256.24,110.31 257.77,110.29 259.30,110.29 260.83,110.29 262.36,110.12 263.89,109.95 265.41,109.90 266.94,109.86 268.47,109.81 270.00,109.26 271.53,108.88 273.06,108.31 274.59,107.95 276.11,107.69 277.64,107.57 279.17,107.43 280.70,107.40 282.23,107.28 283.76,106.92 285.29,106.92 286.82,106.92 288.34,106.90 289.87,106.88 291.40,106.88 292.93,106.69 294.46,106.64 295.99,106.62 297.52,106.59 299.04,106.54 300.57,106.54 302.10,106.54 303.63,106.54 305.16,106.54 306.69,106.54 308.22,106.54 309.75,106.54 311.27,106.47 312.80,106.40 314.33,106.40 315.86,105.97 317.39,105.95 318.92,105.92 320.45,105.85 321.97,105.64 323.50,105.11 325.03,105.02 326.56,105.02 328.09,105.02 329.62,105.02 331.15,105.02 332.68,105.02 334.20,105.02 335.73,105.02 337.26,105.02 338.79,105.02 340.32,105.02 341.85,105.02 343.38,105.02 344.90,104.99 346.43,104.85 347.96,104.83 349.49,104.83 351.02,104.83 352.55,104.83 354.08,104.73 355.61,104.73 357.13,104.35 358.66,103.99 360.19,103.99 361.72,103.99 363.25,103.99 364.78,103.99 366.31,103.95 367.83,103.95 369.36,103.90 370.89,103.73 372.42,103.59 373.95,102.94 375.48,102.92 377.01,101.94 378.54,101.37 380.06,100.94 381.59,99.58 383.12,99.37 384.65,99.32 386.18,99.32 387.71,99.32 389.24,99.32 390.76,99.27 392.29,99.15 393.82,99.15 395.35,99.15 396.88,99.15 398.41,99.15 399.94,99.15 401.46,99.11 402.99,99.06 404.52,99.06 406.05,99.06 407.58,99.01 409.11,99.01 410.64,98.82 412.17,98.72 413.69,98.72 415.22,98.72 416.75,98.72 418.28,98.72 419.81,98.72 421.34,98.72 422.87,98.20 424.39,97.65 425.92,97.20 427.45,96.58 428.98,95.86 430.51,94.17 432.04,93.12 433.57,92.38 435.10,91.17 436.62,90.21 438.15,88.59 439.68,86.26 441.21,85.57 442.74,84.56 444.27,83.71 445.80,83.42 447.32,82.32 448.85,82.13 450.38,80.82 451.91,79.63 453.44,78.92 454.97,78.08 456.50,76.94 458.03,76.60 459.55,76.44 461.08,76.27 462.61,76.13 464.14,75.22 465.67,74.20 467.20,72.57 468.73,72.10 470.25,71.26 471.78,69.90 473.31,66.88 474.84,64.59 476.37,62.04 477.90,61.49 479.43,60.37 480.96,58.10 482.48,56.72 484.01,55.96 485.54,54.82 487.07,54.22 488.60,53.38 490.13,53.00 491.66,51.72 493.18,49.79 494.71,47.95 496.24,47.40 497.77,46.45 499.30,44.73 500.83,43.44 502.36,41.54 503.89,40.56 505.41,38.61 506.94,36.01 508.47,33.79 510.00,30.00" />
    </svg>
  