
    <svg width="540" height="160" xmlns="http://www.w3.org/2000/svg">
      <style>.line{fill:none;stroke:#388bfd;stroke-width:1.5}.axis{stroke:#555;stroke-width:1;opacity:0.5}.label{fill:#999;font-family:sans-serif;font-size:10px;text-anchor:middle}</style>
      <line class="axis" x1="30" y1="30" x2="30" y2="130" />
      <line class="axis" x1="30" y1="130" x2="510" y2="130" />
      <text class="label" x="15" y="30">9,142</text>
      <text class="label" x="15" y="134">0</text>
      <text class="label" x="30" y="148">2021</text>
      <text class="label" x="510" y="148">2026</text>
      <polyline class="line" points="30.00,129.98 31.45,129.97 32.91,129.96 34.36,129.96 35.81,129.96 37.27,129.81 38.72,129.81 40.17,129.81 41.62,129.03 43.08,127.72 44.53,127.66 45.98,127.66 47.44,127.66 48.89,127.66 50.34,127.66 51.80,127.66 53.25,127.66 54.70,127.66 56.16,127.66 57.61,127.66 59.06,127.66 60.51,127.66 61.97,127.66 63.42,127.66 64.87,127.66 66.33,127.66 67.78,127.66 69.23,126.92 70.69,126.92 72.14,126.90 73.59,126.90 75.05,126.90 76.50,126.90 77.95,126.86 79.40,126.86 80.86,126.86 82.31,126.86 83.76,126.86 85.22,126.86 86.67,126.86 88.12,126.86 89.58,126.86 91.03,126.86 92.48,126.86 93.94,126.86 95.39,126.86 96.84,126.86 98.29,126.86 99.75,126.86 101.20,126.86 102.65,126.86 104.11,126.82 105.56,126.15 107.01,125.54 108.47,125.29 109.92,124.07 111.37,124.07 112.83,124.07 114.28,124.07 115.73,124.07 117.18,124.07 118.64,124.07 120.09,124.07 121.54,124.07 123.00,124.07 124.45,124.07 125.90,124.07 127.36,123.98 128.81,123.98 130.26,123.98 131.72,123.87 133.17,123.87 134.62,123.87 136.07,123.87 137.53,123.84 138.98,123.84 140.43,123.84 141.89,123.84 143.34,123.82 144.79,123.82 146.25,123.82 147.70,123.82 149.15,123.82 150.61,123.82 152.06,123.82 153.51,123.82 154.96,123.82 156.42,123.82 157.87,123.82 159.32,123.82 160.78,123.82 162.23,123.82 163.68,123.82 165.14,123.82 166.59,123.82 168.04,123.82 169.50,123.82 170.95,123.82 172.40,123.82 173.85,123.82 175.31,123.82 176.76,123.79 178.21,123.79 179.67,123.79 181.12,123.79 182.57,123.79 184.03,123.79 185.48,123.79 186.93,123.79 188.39,123.79 189.84,123.79 191.29,123.79 192.74,123.79 194.20,123.79 195.65,123.79 197.10,123.79 198.56,123.77 200.01,123.48 201.46,123.40 202.92,123.28 204.37,123.13 205.82,123.09 207.28,123.09 208.73,123.09 210.18,122.85 211.63,122.82 213.09,122.67 214.54,122.62 215.99,122.52 217.45,122.14 218.90,122.11 220.35,122.06 221.81,122.05 223.26,121.99 224.71,121.99 226.17,121.97 227.62,121.97 229.07,121.97 230.52,121.97 231.98,121.97 233.43,121.97 234.88,121.97 236.34,121.85 237.79,121.50 239.24,121.24 240.70,121.16 242.15,121.00 243.60,120.99 245.06,120.96 246.51,120.95 247.96,120.95 249.41,120.95 250.87,120.88 252.32,120.80 253.77,120.78 255.23,120.76 256.68,120.74 258.13,120.48 259.59,120.31 261.04,120.05 262.49,119.88 263.95,119.76 265.40,119.71 266.85,119.64 268.30,119.63 269.76,119.58 271.21,119.41 272.66,119.41 274.12,119.41 275.57,119.40 277.02,119.39 278.48,119.39 279.93,119.30 281.38,119.28 282.84,119.27 284.29,119.26 285.74,119.24 287.19,119.24 288.65,119.24 290.10,119.24 291.55,119.24 293.01,119.24 294.46,119.24 295.91,119.24 297.37,119.20 298.82,119.17 300.27,119.17 301.73,118.97 303.18,118.96 304.63,118.95 306.08,118.92 307.54,118.82 308.99,118.58 310.44,118.54 311.90,118.54 313.35,118.54 314.80,118.54 316.26,118.54 317.71,118.54 319.16,118.54 320.62,118.54 322.07,118.54 323.52,118.54 324.97,118.54 326.43,118.54 327.88,118.54 329.33,118.53 330.79,118.46 332.24,118.45 333.69,118.45 335.15,118.45 336.60,118.45 338.05,118.41 339.51,118.41 340.96,118.23 342.41,118.07 343.86,118.07 345.32,118.07 346.77,118.07 348.22,118.07 349.68,118.04 351.13,118.04 352.58,118.02 354.04,117.95 355.49,117.88 356.94,117.58 358.40,117.57 359.85,117.13 361.30,116.86 362.75,116.67 364.21,116.04 365.66,115.88 367.11,115.81 368.57,115.60 370.02,115.29 371.47,115.21 372.93,115.10 374.38,114.93 375.83,114.77 377.29,114.71 378.74,114.60 380.19,114.52 381.64,114.33 383.10,114.15 384.55,113.94 386.00,113.60 387.46,113.41 388.91,112.43 390.36,111.70 391.82,111.23 393.27,110.82 394.72,110.38 396.18,110.38 397.63,110.38 399.08,110.38 400.53,110.09 401.99,109.93 403.44,109.34 404.89,108.67 406.35,107.89 407.80,106.72 409.25,105.90 410.71,104.22 412.16,103.20 413.61,102.52 415.07,101.43 416.52,100.73 417.97,99.34 419.42,97.24 420.88,96.60 422.33,95.78 423.78,95.00 425.24,94.73 426.69,93.73 428.14,93.55 429.60,92.35 431.05,91.26 432.50,90.60 433.96,89.86 435.41,88.87 436.86,88.61 438.31,88.52 439.77,88.41 441.22,88.35 442.67,87.72 444.13,86.91 445.58,85.93 447.03,85.66 448.49,84.86 449.94,83.83 451.39,81.78 452.85,80.27 454.30,78.41 455.75,77.92 457.20,76.94 458.66,75.11 460.11,74.07 461.56,73.50 463.02,72.70 464.47,72.18 465.92,71.42 467.38,71.07 468.83,70.31 470.28,68.85 471.74,67.25 473.19,66.75 474.64,65.85 476.09,64.18 477.55,63.33 479.00,61.26 480.45,60.28 481.91,58.48 483.36,56.73 484.81,54.62 486.27,51.45 487.72,49.35 489.17,47.55 490.63,46.39 492.08,44.89 493.53,43.54 494.98,42.89 496.44,41.79 497.89,40.47 499.34,39.72 500.80,38.59 502.25,37.72 503.70,36.90 505.16,35.67 506.61,33.41 508.06,31.66 509.52,30.14" />
    </svg>
  