
    <svg width="540" height="160" xmlns="http://www.w3.org/2000/svg">
      <style>.line{fill:none;stroke:#388bfd;stroke-width:1.5}.axis{stroke:#555;stroke-width:1;opacity:0.5}.label{fill:#999;font-family:sans-serif;font-size:10px;text-anchor:middle}</style>
      <line class="axis" x1="30" y1="30" x2="30" y2="130" />
      <line class="axis" x1="30" y1="130" x2="510" y2="130" />
      <text class="label" x="15" y="30">8,928</text>
      <text class="label" x="15" y="134">0</text>
      <text class="label" x="30" y="148">2021</text>
      <text class="label" x="510" y="148">2026</text>
      <polyline class="line" points="30.00,129.98 31.46,129.97 32.92,129.96 34.38,129.96 35.84,129.96 37.31,129.81 38.77,129.81 40.23,129.81 41.69,129.00 43.15,127.67 44.61,127.60 46.07,127.60 47.53,127.60 49.00,127.60 50.46,127.60 51.92,127.60 53.38,127.60 54.84,127.60 56.30,127.60 57.76,127.60 59.22,127.60 60.68,127.60 62.15,127.60 63.61,127.60 65.07,127.60 66.53,127.60 67.99,127.60 69.45,126.84 70.91,126.84 72.37,126.83 73.84,126.83 75.30,126.83 76.76,126.83 78.22,126.79 79.68,126.79 81.14,126.79 82.60,126.79 84.06,126.79 85.53,126.79 86.99,126.79 88.45,126.79 89.91,126.79 91.37,126.79 92.83,126.79 94.29,126.79 95.75,126.79 97.21,126.79 98.68,126.79 100.14,126.79 101.60,126.79 103.06,126.79 104.52,126.74 105.98,126.06 107.44,125.43 108.90,125.17 110.37,123.93 111.83,123.93 113.29,123.93 114.75,123.93 116.21,123.93 117.67,123.93 119.13,123.93 120.59,123.93 122.05,123.93 123.52,123.93 124.98,123.93 126.44,123.93 127.90,123.84 129.36,123.84 130.82,123.84 132.28,123.73 133.74,123.73 135.21,123.73 136.67,123.73 138.13,123.69 139.59,123.69 141.05,123.69 142.51,123.69 143.97,123.67 145.43,123.67 146.89,123.67 148.36,123.67 149.82,123.67 151.28,123.67 152.74,123.67 154.20,123.67 155.66,123.67 157.12,123.67 158.58,123.67 160.05,123.67 161.51,123.67 162.97,123.67 164.43,123.67 165.89,123.67 167.35,123.67 168.81,123.67 170.27,123.67 171.74,123.67 173.20,123.67 174.66,123.67 176.12,123.67 177.58,123.64 179.04,123.64 180.50,123.64 181.96,123.64 183.42,123.64 184.89,123.64 186.35,123.64 187.81,123.64 189.27,123.64 190.73,123.64 192.19,123.64 193.65,123.64 195.11,123.64 196.58,123.64 198.04,123.64 199.50,123.62 200.96,123.32 202.42,123.25 203.88,123.12 205.34,122.97 206.80,122.92 208.26,122.92 209.73,122.92 211.19,122.67 212.65,122.65 214.11,122.50 215.57,122.44 217.03,122.34 218.49,121.95 219.95,121.92 221.42,121.87 222.88,121.86 224.34,121.80 225.80,121.80 227.26,121.78 228.72,121.78 230.18,121.78 231.64,121.78 233.11,121.78 234.57,121.78 236.03,121.78 237.49,121.66 238.95,121.30 240.41,121.03 241.87,120.95 243.33,120.78 244.79,120.77 246.26,120.75 247.72,120.74 249.18,120.74 250.64,120.74 252.10,120.66 253.56,120.58 255.02,120.56 256.48,120.54 257.95,120.51 259.41,120.26 260.87,120.08 262.33,119.81 263.79,119.64 265.25,119.52 266.71,119.46 268.17,119.39 269.63,119.38 271.10,119.33 272.56,119.16 274.02,119.16 275.48,119.16 276.94,119.15 278.40,119.14 279.86,119.14 281.32,119.05 282.79,119.02 284.25,119.01 285.71,119.00 287.17,118.98 288.63,118.98 290.09,118.98 291.55,118.98 293.01,118.98 294.47,118.98 295.94,118.98 297.40,118.98 298.86,118.94 300.32,118.91 301.78,118.91 303.24,118.71 304.70,118.70 306.16,118.69 307.63,118.65 309.09,118.55 310.55,118.31 312.01,118.26 313.47,118.26 314.93,118.26 316.39,118.26 317.85,118.26 319.32,118.26 320.78,118.26 322.24,118.26 323.70,118.26 325.16,118.26 326.62,118.26 328.08,118.26 329.54,118.26 331.00,118.25 332.47,118.18 333.93,118.17 335.39,118.17 336.85,118.17 338.31,118.17 339.77,118.13 341.23,118.13 342.69,117.95 344.16,117.78 345.62,117.78 347.08,117.78 348.54,117.78 350.00,117.78 351.46,117.76 352.92,117.76 354.38,117.74 355.84,117.66 357.31,117.59 358.77,117.29 360.23,117.28 361.69,116.82 363.15,116.55 364.61,116.35 366.07,115.71 367.53,115.54 369.00,115.47 370.46,115.26 371.92,114.94 373.38,114.86 374.84,114.74 376.30,114.57 377.76,114.41 379.22,114.34 380.68,114.23 382.15,114.15 383.61,113.95 385.07,113.77 386.53,113.56 387.99,113.21 389.45,113.01 390.91,112.01 392.37,111.26 393.84,110.78 395.30,110.37 396.76,109.91 398.22,109.91 399.68,109.91 401.14,109.91 402.60,109.61 404.06,109.45 405.53,108.84 406.99,108.16 408.45,107.36 409.91,106.16 411.37,105.32 412.83,103.60 414.29,102.56 415.75,101.86 417.21,100.74 418.68,100.03 420.14,98.60 421.60,96.45 423.06,95.80 424.52,94.96 425.98,94.16 427.44,93.89 428.90,92.86 430.37,92.68 431.83,91.45 433.29,90.33 434.75,89.66 436.21,88.89 437.67,87.89 439.13,87.62 440.59,87.53 442.05,87.41 443.52,87.35 444.98,86.71 446.44,85.88 447.90,84.87 449.36,84.59 450.82,83.77 452.28,82.72 453.74,80.63 455.21,79.08 456.67,77.18 458.13,76.67 459.59,75.67 461.05,73.79 462.51,72.73 463.97,72.15 465.43,71.33 466.89,70.79 468.36,70.02 469.82,69.66 471.28,68.88 472.74,67.39 474.20,65.74 475.66,65.24 477.12,64.31 478.58,62.61 480.05,61.73 481.51,59.61 482.97,58.61 484.43,56.77 485.89,54.98 487.35,52.82 488.81,49.57 490.27,47.42 491.74,45.57 493.20,44.38 494.66,42.85 496.12,41.47 497.58,40.80 499.04,39.68 500.50,38.32 501.96,37.56 503.42,36.40 504.89,35.51 506.35,34.67 507.81,33.41 509.27,31.10" />
    </svg>
  