
    <svg width="540" height="160" xmlns="http://www.w3.org/2000/svg">
      <style>.line{fill:none;stroke:#388bfd;stroke-width:1.5}.axis{stroke:#555;stroke-width:1;opacity:0.5}.label{fill:#999;font-family:sans-serif;font-size:10px;text-anchor:middle}</style>
      <line class="axis" x1="30" y1="30" x2="30" y2="130" />
      <line class="axis" x1="30" y1="130" x2="510" y2="130" />
      <text class="label" x="15" y="30">8,635</text>
      <text class="label" x="15" y="134">0</text>
      <text class="label" x="30" y="148">2021</text>
      <text class="label" x="510" y="148">2026</text>
      <polyline class="line" points="30.00,129.98 31.47,129.97 32.93,129.95 34.40,129.95 35.86,129.95 37.33,129.80 38.79,129.80 40.26,129.80 41.73,128.97 43.19,127.59 44.66,127.52 46.12,127.52 47.59,127.52 49.05,127.52 50.52,127.52 51.98,127.52 53.45,127.52 54.92,127.52 56.38,127.52 57.85,127.52 59.31,127.52 60.78,127.52 62.24,127.52 63.71,127.52 65.18,127.52 66.64,127.52 68.11,127.52 69.57,126.73 71.04,126.73 72.50,126.72 73.97,126.72 75.44,126.72 76.90,126.72 78.37,126.68 79.83,126.68 81.30,126.68 82.76,126.68 84.23,126.68 85.69,126.68 87.16,126.68 88.63,126.68 90.09,126.68 91.56,126.68 93.02,126.68 94.49,126.68 95.95,126.68 97.42,126.68 98.89,126.68 100.35,126.68 101.82,126.68 103.28,126.68 104.75,126.63 106.21,125.92 107.68,125.28 109.15,125.01 110.61,123.72 112.08,123.72 113.54,123.72 115.01,123.72 116.47,123.72 117.94,123.72 119.40,123.72 120.87,123.72 122.34,123.72 123.80,123.72 125.27,123.72 126.73,123.72 128.20,123.63 129.66,123.63 131.13,123.63 132.60,123.51 134.06,123.51 135.53,123.51 136.99,123.51 138.46,123.48 139.92,123.48 141.39,123.48 142.85,123.48 144.32,123.46 145.79,123.46 147.25,123.46 148.72,123.46 150.18,123.46 151.65,123.46 153.11,123.46 154.58,123.46 156.05,123.46 157.51,123.46 158.98,123.46 160.44,123.46 161.91,123.46 163.37,123.46 164.84,123.46 166.31,123.46 167.77,123.46 169.24,123.46 170.70,123.46 172.17,123.46 173.63,123.46 175.10,123.46 176.56,123.46 178.03,123.42 179.50,123.42 180.96,123.42 182.43,123.42 183.89,123.42 185.36,123.42 186.82,123.42 188.29,123.42 189.76,123.42 191.22,123.42 192.69,123.42 194.15,123.42 195.62,123.42 197.08,123.42 198.55,123.42 200.02,123.40 201.48,123.10 202.95,123.02 204.41,122.89 205.88,122.73 207.34,122.68 208.81,122.68 210.27,122.68 211.74,122.43 213.21,122.40 214.67,122.24 216.14,122.18 217.60,122.08 219.07,121.67 220.53,121.65 222.00,121.59 223.47,121.58 224.93,121.52 226.40,121.52 227.86,121.50 229.33,121.50 230.79,121.50 232.26,121.50 233.73,121.50 235.19,121.50 236.66,121.50 238.12,121.37 239.59,121.00 241.05,120.72 242.52,120.64 243.98,120.47 245.45,120.46 246.92,120.43 248.38,120.42 249.85,120.42 251.31,120.42 252.78,120.34 254.24,120.26 255.71,120.24 257.18,120.21 258.64,120.19 260.11,119.92 261.57,119.74 263.04,119.46 264.50,119.29 265.97,119.16 267.44,119.10 268.90,119.03 270.37,119.02 271.83,118.96 273.30,118.79 274.76,118.79 276.23,118.79 277.69,118.78 279.16,118.77 280.63,118.77 282.09,118.67 283.56,118.65 285.02,118.64 286.49,118.63 287.95,118.60 289.42,118.60 290.89,118.60 292.35,118.60 293.82,118.60 295.28,118.60 296.75,118.60 298.21,118.60 299.68,118.57 301.15,118.54 302.61,118.54 304.08,118.33 305.54,118.31 307.01,118.30 308.47,118.27 309.94,118.16 311.40,117.91 312.87,117.86 314.34,117.86 315.80,117.86 317.27,117.86 318.73,117.86 320.20,117.86 321.66,117.86 323.13,117.86 324.60,117.86 326.06,117.86 327.53,117.86 328.99,117.86 330.46,117.86 331.92,117.85 333.39,117.78 334.85,117.77 336.32,117.77 337.79,117.77 339.25,117.77 340.72,117.72 342.18,117.72 343.65,117.54 345.11,117.37 346.58,117.37 348.05,117.37 349.51,117.37 350.98,117.37 352.44,117.34 353.91,117.34 355.37,117.32 356.84,117.24 358.31,117.17 359.77,116.86 361.24,116.84 362.70,116.37 364.17,116.09 365.63,115.88 367.10,115.22 368.56,115.05 370.03,114.98 371.50,114.76 372.96,114.42 374.43,114.34 375.89,114.23 377.36,114.04 378.82,113.88 380.29,113.81 381.76,113.69 383.22,113.61 384.69,113.40 386.15,113.22 387.62,113.00 389.08,112.64 390.55,112.43 392.02,111.40 393.48,110.63 394.95,110.13 396.41,109.70 397.88,109.22 399.34,109.22 400.81,109.22 402.27,109.22 403.74,108.92 405.21,108.75 406.67,108.12 408.14,107.42 409.60,106.60 411.07,105.36 412.53,104.49 414.00,102.70 415.47,101.63 416.93,100.91 418.40,99.75 419.86,99.01 421.33,97.54 422.79,95.32 424.26,94.64 425.73,93.78 427.19,92.94 428.66,92.66 430.12,91.60 431.59,91.41 433.05,90.14 434.52,88.98 435.98,88.29 437.45,87.50 438.92,86.46 440.38,86.18 441.85,86.09 443.31,85.97 444.78,85.90 446.24,85.24 447.71,84.38 449.18,83.34 450.64,83.05 452.11,82.21 453.57,81.12 455.04,78.95 456.50,77.35 457.97,75.39 459.44,74.86 460.90,73.82 462.37,71.89 463.83,70.79 465.30,70.19 466.76,69.34 468.23,68.78 469.69,67.98 471.16,67.61 472.63,66.80 474.09,65.26 475.56,63.56 477.02,63.04 478.49,62.08 479.95,60.32 481.42,59.42 482.89,57.23 484.35,56.18 485.82,54.28 487.28,52.43 488.75,50.20 490.21,46.84 491.68,44.61 493.15,42.70 494.61,41.48 496.08,39.89 497.54,38.47 499.01,37.77 500.47,36.61 501.94,35.21 503.40,34.67 504.87,33.64 506.34,32.76 507.80,31.89 509.27,30.76" />
    </svg>
  