
    <svg width="540" height="160" xmlns="http://www.w3.org/2000/svg">
      <style>.line{fill:none;stroke:#388bfd;stroke-width:1.5}.axis{stroke:#555;stroke-width:1;opacity:0.5}.label{fill:#999;font-family:sans-serif;font-size:10px;text-anchor:middle}</style>
      <line class="axis" x1="30" y1="30" x2="30" y2="130" />
      <line class="axis" x1="30" y1="130" x2="510" y2="130" />
      <text class="label" x="15" y="30">7,725</text>
      <text class="label" x="15" y="134">0</text>
      <text class="label" x="30" y="148">2021</text>
      <text class="label" x="510" y="148">2026</text>
      <polyline class="line" points="30.00,129.97 31.50,129.96 33.00,129.95 34.49,129.95 35.99,129.95 37.49,129.78 38.99,129.78 40.48,129.78 41.98,128.85 43.48,127.31 44.98,127.23 46.47,127.23 47.97,127.23 49.47,127.23 50.97,127.23 52.46,127.23 53.96,127.23 55.46,127.23 56.96,127.23 58.46,127.23 59.95,127.23 61.45,127.23 62.95,127.23 64.45,127.23 65.94,127.23 67.44,127.23 68.94,127.23 70.44,126.35 71.93,126.35 73.43,126.34 74.93,126.34 76.43,126.34 77.93,126.34 79.42,126.28 80.92,126.28 82.42,126.28 83.92,126.28 85.41,126.28 86.91,126.28 88.41,126.28 89.91,126.28 91.40,126.28 92.90,126.28 94.40,126.28 95.90,126.28 97.39,126.28 98.89,126.28 100.39,126.28 101.89,126.28 103.39,126.28 104.88,126.28 106.38,126.23 107.88,125.44 109.38,124.72 110.87,124.42 112.37,122.98 113.87,122.98 115.37,122.98 116.86,122.98 118.36,122.98 119.86,122.98 121.36,122.98 122.85,122.98 124.35,122.98 125.85,122.98 127.35,122.98 128.85,122.98 130.34,122.88 131.84,122.88 133.34,122.88 134.84,122.75 136.33,122.75 137.83,122.75 139.33,122.75 140.83,122.71 142.32,122.71 143.82,122.71 145.32,122.71 146.82,122.69 148.32,122.69 149.81,122.69 151.31,122.69 152.81,122.69 154.31,122.69 155.80,122.69 157.30,122.69 158.80,122.69 160.30,122.69 161.79,122.69 163.29,122.69 164.79,122.69 166.29,122.69 167.78,122.69 169.28,122.69 170.78,122.69 172.28,122.69 173.78,122.69 175.27,122.69 176.77,122.69 178.27,122.69 179.77,122.69 181.26,122.65 182.76,122.65 184.26,122.65 185.76,122.65 187.25,122.65 188.75,122.65 190.25,122.65 191.75,122.65 193.24,122.65 194.74,122.65 196.24,122.65 197.74,122.65 199.24,122.65 200.73,122.65 202.23,122.65 203.73,122.62 205.23,122.28 206.72,122.19 208.22,122.05 209.72,121.87 211.22,121.82 212.71,121.82 214.21,121.82 215.71,121.53 217.21,121.51 218.71,121.33 220.20,121.26 221.70,121.15 223.20,120.69 224.70,120.67 226.19,120.60 227.69,120.59 229.19,120.52 230.69,120.52 232.18,120.50 233.68,120.50 235.18,120.50 236.68,120.50 238.17,120.50 239.67,120.50 241.17,120.50 242.67,120.36 244.17,119.94 245.66,119.63 247.16,119.54 248.66,119.35 250.16,119.33 251.65,119.31 253.15,119.29 254.65,119.29 256.15,119.29 257.64,119.20 259.14,119.11 260.64,119.09 262.14,119.06 263.63,119.04 265.13,118.74 266.63,118.53 268.13,118.22 269.63,118.03 271.12,117.88 272.62,117.82 274.12,117.74 275.62,117.73 277.11,117.66 278.61,117.47 280.11,117.47 281.61,117.47 283.10,117.46 284.60,117.44 286.10,117.44 287.60,117.34 289.10,117.31 290.59,117.30 292.09,117.29 293.59,117.26 295.09,117.26 296.58,117.26 298.08,117.26 299.58,117.26 301.08,117.26 302.57,117.26 304.07,117.26 305.57,117.22 307.07,117.18 308.56,117.18 310.06,116.95 311.56,116.94 313.06,116.93 314.56,116.89 316.05,116.77 317.55,116.49 319.05,116.43 320.55,116.43 322.04,116.43 323.54,116.43 325.04,116.43 326.54,116.43 328.03,116.43 329.53,116.43 331.03,116.43 332.53,116.43 334.02,116.43 335.52,116.43 337.02,116.43 338.52,116.42 340.02,116.34 341.51,116.33 343.01,116.33 344.51,116.33 346.01,116.33 347.50,116.28 349.00,116.28 350.50,116.07 352.00,115.88 353.49,115.88 354.99,115.88 356.49,115.88 357.99,115.88 359.49,115.85 360.98,115.85 362.48,115.83 363.98,115.73 365.48,115.66 366.97,115.31 368.47,115.29 369.97,114.76 371.47,114.45 372.96,114.22 374.46,113.48 375.96,113.29 377.46,113.21 378.95,112.96 380.45,112.59 381.95,112.50 383.45,112.37 384.95,112.16 386.44,111.98 387.94,111.90 389.44,111.77 390.94,111.68 392.43,111.45 393.93,111.24 395.43,111.00 396.93,110.60 398.42,110.36 399.92,109.21 401.42,108.34 402.92,107.79 404.41,107.31 405.91,106.78 407.41,106.78 408.91,106.78 410.41,106.78 411.90,106.44 413.40,106.25 414.90,105.55 416.40,104.76 417.89,103.84 419.39,102.45 420.89,101.48 422.39,99.49 423.88,98.28 425.38,97.48 426.88,96.19 428.38,95.36 429.88,93.72 431.37,91.23 432.87,90.48 434.37,89.51 435.87,88.58 437.36,88.27 438.86,87.07 440.36,86.87 441.86,85.44 443.35,84.15 444.85,83.37 446.35,82.49 447.85,81.33 449.34,81.02 450.84,80.91 452.34,80.78 453.84,80.71 455.34,79.97 456.83,79.01 458.33,77.84 459.83,77.52 461.33,76.58 462.82,75.36 464.32,72.94 465.82,71.15 467.32,68.95 468.81,68.37 470.31,67.20 471.81,65.04 473.31,63.81 474.80,63.14 476.30,62.19 477.80,61.57 479.30,60.68 480.80,60.27 482.29,59.36 483.79,57.64 485.29,55.73 486.79,55.15 488.28,54.17 489.78,52.59 491.28,51.66 492.78,49.77 494.27,48.77 495.77,46.83 497.27,44.86 498.77,42.79 500.27,39.28 501.76,37.15 503.26,35.10 504.76,33.96 506.26,32.28 507.75,30.84 509.25,30.35" />
    </svg>
  