
    <svg width="540" height="160" xmlns="http://www.w3.org/2000/svg">
      <style>.line{fill:none;stroke:#388bfd;stroke-width:1.5}.axis{stroke:#555;stroke-width:1;opacity:0.5}.label{fill:#999;font-family:sans-serif;font-size:10px;text-anchor:middle}</style>
      <line class="axis" x1="30" y1="30" x2="30" y2="130" />
      <line class="axis" x1="30" y1="130" x2="510" y2="130" />
      <text class="label" x="15" y="30">5,123</text>
      <text class="label" x="15" y="134">0</text>
      <text class="label" x="30" y="148">2021</text>
      <text class="label" x="510" y="148">2026</text>
      <polyline class="line" points="30.00,129.96 31.52,129.94 33.04,129.92 34.55,129.92 36.07,129.92 37.59,129.67 39.11,129.67 40.63,129.67 42.15,128.26 43.66,125.94 45.18,125.82 46.70,125.82 48.22,125.82 49.74,125.82 51.25,125.82 52.77,125.82 54.29,125.82 55.81,125.82 57.33,125.82 58.85,125.82 60.36,125.82 61.88,125.82 63.40,125.82 64.92,125.82 66.44,125.82 67.95,125.82 69.47,125.82 70.99,124.50 72.51,124.50 74.03,124.48 75.55,124.48 77.06,124.48 78.58,124.48 80.10,124.40 81.62,124.40 83.14,124.40 84.65,124.40 86.17,124.40 87.69,124.40 89.21,124.40 90.73,124.40 92.25,124.40 93.76,124.40 95.28,124.40 96.80,124.40 98.32,124.40 99.84,124.40 101.35,124.40 102.87,124.40 104.39,124.40 105.91,124.40 107.43,124.32 108.95,123.13 110.46,122.04 111.98,121.59 113.50,119.42 115.02,119.42 116.54,119.42 118.05,119.42 119.57,119.42 121.09,119.42 122.61,119.42 124.13,119.42 125.65,119.42 127.16,119.42 128.68,119.42 130.20,119.42 131.72,119.26 133.24,119.26 134.75,119.26 136.27,119.07 137.79,119.07 139.31,119.07 140.83,119.07 142.35,119.01 143.86,119.01 145.38,119.01 146.90,119.01 148.42,118.97 149.94,118.97 151.45,118.97 152.97,118.97 154.49,118.97 156.01,118.97 157.53,118.97 159.05,118.97 160.56,118.97 162.08,118.97 163.60,118.97 165.12,118.97 166.64,118.97 168.15,118.97 169.67,118.97 171.19,118.97 172.71,118.97 174.23,118.97 175.75,118.97 177.26,118.97 178.78,118.97 180.30,118.97 181.82,118.97 183.34,118.91 184.86,118.91 186.37,118.91 187.89,118.91 189.41,118.91 190.93,118.91 192.45,118.91 193.96,118.91 195.48,118.91 197.00,118.91 198.52,118.91 200.04,118.91 201.56,118.91 203.07,118.91 204.59,118.91 206.11,118.87 207.63,118.37 209.15,118.23 210.66,118.01 212.18,117.74 213.70,117.66 215.22,117.66 216.74,117.66 218.26,117.23 219.77,117.20 221.29,116.92 222.81,116.82 224.33,116.65 225.85,115.97 227.36,115.93 228.88,115.83 230.40,115.81 231.92,115.71 233.44,115.71 234.96,115.67 236.47,115.67 237.99,115.67 239.51,115.67 241.03,115.67 242.55,115.67 244.06,115.67 245.58,115.46 247.10,114.83 248.62,114.36 250.14,114.23 251.66,113.94 253.17,113.92 254.69,113.88 256.21,113.86 257.73,113.86 259.25,113.86 260.76,113.72 262.28,113.58 263.80,113.54 265.32,113.51 266.84,113.47 268.36,113.02 269.87,112.71 271.39,112.24 272.91,111.94 274.43,111.73 275.95,111.63 277.46,111.51 278.98,111.50 280.50,111.40 282.02,111.10 283.54,111.10 285.06,111.10 286.57,111.09 288.09,111.07 289.61,111.07 291.13,110.91 292.65,110.87 294.16,110.85 295.68,110.83 297.20,110.79 298.72,110.79 300.24,110.79 301.76,110.79 303.27,110.79 304.79,110.79 306.31,110.79 307.83,110.79 309.35,110.73 310.86,110.68 312.38,110.68 313.90,110.32 315.42,110.30 316.94,110.28 318.46,110.23 319.97,110.05 321.49,109.62 323.01,109.54 324.53,109.54 326.05,109.54 327.56,109.54 329.08,109.54 330.60,109.54 332.12,109.54 333.64,109.54 335.16,109.54 336.67,109.54 338.19,109.54 339.71,109.54 341.23,109.54 342.75,109.52 344.26,109.41 345.78,109.39 347.30,109.39 348.82,109.39 350.34,109.39 351.86,109.31 353.37,109.31 354.89,109.00 356.41,108.70 357.93,108.70 359.45,108.70 360.96,108.70 362.48,108.70 364.00,108.66 365.52,108.66 367.04,108.63 368.56,108.49 370.07,108.37 371.59,107.85 373.11,107.83 374.63,107.03 376.15,106.56 377.66,106.21 379.18,105.09 380.70,104.80 382.22,104.68 383.74,104.31 385.26,103.75 386.77,103.61 388.29,103.41 389.81,103.10 391.33,102.83 392.85,102.71 394.36,102.52 395.88,102.38 397.40,102.03 398.92,101.72 400.44,101.34 401.96,100.74 403.47,100.39 404.99,98.65 406.51,97.34 408.03,96.50 409.55,95.78 411.06,94.98 412.58,94.98 414.10,94.98 415.62,94.98 417.14,94.47 418.66,94.18 420.17,93.54 421.69,92.80 423.21,91.78 424.73,90.18 426.25,89.28 427.76,87.64 429.28,86.69 430.80,86.08 432.32,85.08 433.84,84.30 435.36,82.98 436.87,81.04 438.39,80.48 439.91,79.66 441.43,78.96 442.95,78.72 444.46,77.82 445.98,77.67 447.50,76.59 449.02,75.62 450.54,75.03 452.06,74.35 453.57,73.41 455.09,73.14 456.61,73.00 458.13,72.87 459.65,72.75 461.16,72.01 462.68,71.17 464.20,69.84 465.72,69.45 467.24,68.77 468.76,67.65 470.27,65.17 471.79,63.30 473.31,61.21 474.83,60.76 476.35,59.85 477.87,57.99 479.38,56.86 480.90,56.23 482.42,55.30 483.94,54.81 485.46,54.13 486.97,53.81 488.49,52.76 490.01,51.18 491.53,49.68 493.05,49.23 494.57,48.45 496.08,47.04 497.60,45.99 499.12,44.43 500.64,43.62 502.16,42.02 503.67,39.90 505.19,38.08 506.71,34.24 508.23,31.52 509.75,30.00" />
    </svg>
  