
    <svg width="540" height="160" xmlns="http://www.w3.org/2000/svg">
      <style>.line{fill:none;stroke:#388bfd;stroke-width:1.5}.axis{stroke:#555;stroke-width:1;opacity:0.5}.label{fill:#999;font-family:sans-serif;font-size:10px;text-anchor:middle}</style>
      <line class="axis" x1="30" y1="30" x2="30" y2="130" />
      <line class="axis" x1="30" y1="130" x2="510" y2="130" />
      <text class="label" x="15" y="30">9,384</text>
      <text class="label" x="15" y="134">0</text>
      <text class="label" x="30" y="148">2021</text>
      <text class="label" x="510" y="148">2026</text>
      <polyline class="line" points="30.00,129.98 31.44,129.97 32.88,129.96 34.31,129.96 35.75,129.96 37.19,129.82 38.63,129.82 40.06,129.82 41.50,129.05 42.94,127.78 44.38,127.72 45.82,127.72 47.25,127.72 48.69,127.72 50.13,127.72 51.57,127.72 53.01,127.72 54.44,127.72 55.88,127.72 57.32,127.72 58.76,127.72 60.19,127.72 61.63,127.72 63.07,127.72 64.51,127.72 65.95,127.72 67.38,127.72 68.82,126.99 70.26,126.99 71.70,126.98 73.14,126.98 74.57,126.98 76.01,126.98 77.45,126.94 78.89,126.94 80.32,126.94 81.76,126.94 83.20,126.94 84.64,126.94 86.08,126.94 87.51,126.94 88.95,126.94 90.39,126.94 91.83,126.94 93.27,126.94 94.70,126.94 96.14,126.94 97.58,126.94 99.02,126.94 100.45,126.94 101.89,126.94 103.33,126.90 104.77,126.25 106.21,125.65 107.64,125.41 109.08,124.22 110.52,124.22 111.96,124.22 113.39,124.22 114.83,124.22 116.27,124.22 117.71,124.22 119.15,124.22 120.58,124.22 122.02,124.22 123.46,124.22 124.90,124.22 126.34,124.14 127.77,124.14 129.21,124.14 130.65,124.03 132.09,124.03 133.52,124.03 134.96,124.03 136.40,124.00 137.84,124.00 139.28,124.00 140.71,124.00 142.15,123.98 143.59,123.98 145.03,123.98 146.47,123.98 147.90,123.98 149.34,123.98 150.78,123.98 152.22,123.98 153.65,123.98 155.09,123.98 156.53,123.98 157.97,123.98 159.41,123.98 160.84,123.98 162.28,123.98 163.72,123.98 165.16,123.98 166.60,123.98 168.03,123.98 169.47,123.98 170.91,123.98 172.35,123.98 173.78,123.98 175.22,123.95 176.66,123.95 178.10,123.95 179.54,123.95 180.97,123.95 182.41,123.95 183.85,123.95 185.29,123.95 186.72,123.95 188.16,123.95 189.60,123.95 191.04,123.95 192.48,123.95 193.91,123.95 195.35,123.95 196.79,123.93 198.23,123.65 199.67,123.57 201.10,123.46 202.54,123.31 203.98,123.27 205.42,123.27 206.85,123.27 208.29,123.03 209.73,123.01 211.17,122.86 212.61,122.81 214.04,122.71 215.48,122.34 216.92,122.32 218.36,122.26 219.80,122.25 221.23,122.20 222.67,122.20 224.11,122.18 225.55,122.18 226.98,122.18 228.42,122.18 229.86,122.18 231.30,122.18 232.74,122.18 234.17,122.06 235.61,121.72 237.05,121.46 238.49,121.39 239.93,121.23 241.36,121.22 242.80,121.20 244.24,121.19 245.68,121.19 247.11,121.19 248.55,121.11 249.99,121.04 251.43,121.02 252.87,121.00 254.30,120.97 255.74,120.73 257.18,120.56 258.62,120.30 260.05,120.14 261.49,120.03 262.93,119.97 264.37,119.91 265.81,119.90 267.24,119.84 268.68,119.68 270.12,119.68 271.56,119.68 273.00,119.67 274.43,119.66 275.87,119.66 277.31,119.58 278.75,119.56 280.18,119.55 281.62,119.54 283.06,119.51 284.50,119.51 285.94,119.51 287.37,119.51 288.81,119.51 290.25,119.51 291.69,119.51 293.13,119.51 294.56,119.48 296.00,119.45 297.44,119.45 298.88,119.26 300.31,119.25 301.75,119.24 303.19,119.21 304.63,119.11 306.07,118.87 307.50,118.83 308.94,118.83 310.38,118.83 311.82,118.83 313.26,118.83 314.69,118.83 316.13,118.83 317.57,118.83 319.01,118.83 320.44,118.83 321.88,118.83 323.32,118.83 324.76,118.83 326.20,118.82 327.63,118.76 329.07,118.75 330.51,118.75 331.95,118.75 333.38,118.75 334.82,118.70 336.26,118.70 337.70,118.53 339.14,118.37 340.57,118.37 342.01,118.37 343.45,118.37 344.89,118.37 346.33,118.35 347.76,118.35 349.20,118.33 350.64,118.26 352.08,118.19 353.51,117.90 354.95,117.89 356.39,117.46 357.83,117.20 359.27,117.01 360.70,116.40 362.14,116.24 363.58,116.18 365.02,115.98 366.46,115.67 367.89,115.59 369.33,115.49 370.77,115.32 372.21,115.17 373.64,115.10 375.08,115.00 376.52,114.92 377.96,114.73 379.40,114.56 380.83,114.36 382.27,114.03 383.71,113.83 385.15,112.89 386.59,112.17 388.02,111.71 389.46,111.32 390.90,110.88 392.34,110.88 393.77,110.88 395.21,110.88 396.65,110.61 398.09,110.45 399.53,109.87 400.96,109.22 402.40,108.46 403.84,107.32 405.28,106.52 406.71,104.88 408.15,103.89 409.59,103.23 411.03,102.17 412.47,101.48 413.90,100.13 415.34,98.08 416.78,97.47 418.22,96.67 419.66,95.90 421.09,95.64 422.53,94.66 423.97,94.49 425.41,93.32 426.84,92.25 428.28,91.62 429.72,90.89 431.16,89.93 432.60,89.68 434.03,89.59 435.47,89.48 436.91,89.42 438.35,88.81 439.79,88.02 441.22,87.07 442.66,86.80 444.10,86.02 445.54,85.02 446.97,83.03 448.41,81.56 449.85,79.74 451.29,79.26 452.73,78.31 454.16,76.53 455.60,75.51 457.04,74.96 458.48,74.18 459.92,73.67 461.35,72.93 462.79,72.59 464.23,71.85 465.67,70.43 467.10,68.86 468.54,68.38 469.98,67.50 471.42,65.88 472.86,65.05 474.29,63.03 475.73,62.08 477.17,60.33 478.61,58.62 480.04,56.57 481.48,53.48 482.92,51.43 484.36,49.67 485.80,48.54 487.23,47.08 488.67,45.77 490.11,45.13 491.55,44.07 492.99,42.78 494.42,42.05 495.86,40.94 497.30,40.10 498.74,39.30 500.17,38.10 501.61,35.90 503.05,34.15 504.49,32.66 505.93,31.44 507.36,30.99 508.80,30.42" />
    </svg>
  