
    <svg width="540" height="160" xmlns="http://www.w3.org/2000/svg">
      <style>.line{fill:none;stroke:#388bfd;stroke-width:1.5}.axis{stroke:#555;stroke-width:1;opacity:0.5}.label{fill:#999;font-family:sans-serif;font-size:10px;text-anchor:middle}</style>
      <line class="axis" x1="30" y1="30" x2="30" y2="130" />
      <line class="axis" x1="30" y1="130" x2="510" y2="130" />
      <text class="label" x="15" y="30">7,843</text>
      <text class="label" x="15" y="134">0</text>
      <text class="label" x="30" y="148">2021</text>
      <text class="label" x="510" y="148">2026</text>
      <polyline class="line" points="30.00,129.97 31.49,129.96 32.98,129.95 34.46,129.95 35.95,129.95 37.44,129.78 38.93,129.78 40.41,129.78 41.90,128.87 43.39,127.35 44.88,127.27 46.36,127.27 47.85,127.27 49.34,127.27 50.83,127.27 52.31,127.27 53.80,127.27 55.29,127.27 56.78,127.27 58.26,127.27 59.75,127.27 61.24,127.27 62.73,127.27 64.21,127.27 65.70,127.27 67.19,127.27 68.68,127.27 70.17,126.40 71.65,126.40 73.14,126.39 74.63,126.39 76.12,126.39 77.60,126.39 79.09,126.34 80.58,126.34 82.07,126.34 83.55,126.34 85.04,126.34 86.53,126.34 88.02,126.34 89.50,126.34 90.99,126.34 92.48,126.34 93.97,126.34 95.45,126.34 96.94,126.34 98.43,126.34 99.92,126.34 101.40,126.34 102.89,126.34 104.38,126.34 105.87,126.29 107.36,125.51 108.84,124.80 110.33,124.50 111.82,123.09 113.31,123.09 114.79,123.09 116.28,123.09 117.77,123.09 119.26,123.09 120.74,123.09 122.23,123.09 123.72,123.09 125.21,123.09 126.69,123.09 128.18,123.09 129.67,122.99 131.16,122.99 132.64,122.99 134.13,122.86 135.62,122.86 137.11,122.86 138.60,122.86 140.08,122.82 141.57,122.82 143.06,122.82 144.55,122.82 146.03,122.80 147.52,122.80 149.01,122.80 150.50,122.80 151.98,122.80 153.47,122.80 154.96,122.80 156.45,122.80 157.93,122.80 159.42,122.80 160.91,122.80 162.40,122.80 163.88,122.80 165.37,122.80 166.86,122.80 168.35,122.80 169.83,122.80 171.32,122.80 172.81,122.80 174.30,122.80 175.79,122.80 177.27,122.80 178.76,122.80 180.25,122.76 181.74,122.76 183.22,122.76 184.71,122.76 186.20,122.76 187.69,122.76 189.17,122.76 190.66,122.76 192.15,122.76 193.64,122.76 195.12,122.76 196.61,122.76 198.10,122.76 199.59,122.76 201.07,122.76 202.56,122.73 204.05,122.40 205.54,122.31 207.02,122.17 208.51,121.99 210.00,121.94 211.49,121.94 212.98,121.94 214.46,121.66 215.95,121.64 217.44,121.46 218.93,121.39 220.41,121.28 221.90,120.83 223.39,120.81 224.88,120.74 226.36,120.73 227.85,120.67 229.34,120.67 230.83,120.64 232.31,120.64 233.80,120.64 235.29,120.64 236.78,120.64 238.26,120.64 239.75,120.64 241.24,120.50 242.73,120.09 244.21,119.79 245.70,119.70 247.19,119.51 248.68,119.49 250.17,119.47 251.65,119.46 253.14,119.46 254.63,119.46 256.12,119.37 257.60,119.28 259.09,119.25 260.58,119.23 262.07,119.20 263.55,118.91 265.04,118.70 266.53,118.40 268.02,118.21 269.50,118.07 270.99,118.00 272.48,117.93 273.97,117.91 275.45,117.85 276.94,117.66 278.43,117.66 279.92,117.66 281.40,117.65 282.89,117.63 284.38,117.63 285.87,117.53 287.36,117.50 288.84,117.49 290.33,117.48 291.82,117.45 293.31,117.45 294.79,117.45 296.28,117.45 297.77,117.45 299.26,117.45 300.74,117.45 302.23,117.45 303.72,117.42 305.21,117.38 306.69,117.38 308.18,117.15 309.67,117.14 311.16,117.12 312.64,117.08 314.13,116.97 315.62,116.69 317.11,116.64 318.60,116.64 320.08,116.64 321.57,116.64 323.06,116.64 324.55,116.64 326.03,116.64 327.52,116.64 329.01,116.64 330.50,116.64 331.98,116.64 333.47,116.64 334.96,116.64 336.45,116.63 337.93,116.55 339.42,116.54 340.91,116.54 342.40,116.54 343.88,116.54 345.37,116.48 346.86,116.48 348.35,116.28 349.83,116.09 351.32,116.09 352.81,116.09 354.30,116.09 355.79,116.09 357.27,116.06 358.76,116.06 360.25,116.04 361.74,115.95 363.22,115.87 364.71,115.53 366.20,115.52 367.69,114.99 369.17,114.69 370.66,114.46 372.15,113.73 373.64,113.54 375.12,113.46 376.61,113.22 378.10,112.85 379.59,112.76 381.07,112.63 382.56,112.43 384.05,112.25 385.54,112.18 387.02,112.05 388.51,111.96 390.00,111.73 391.49,111.52 392.98,111.28 394.46,110.89 395.95,110.66 397.44,109.52 398.93,108.67 400.41,108.12 401.90,107.65 403.39,107.13 404.88,107.13 406.36,107.13 407.85,107.13 409.34,106.79 410.83,106.60 412.31,105.91 413.80,105.14 415.29,104.23 416.78,102.87 418.26,101.91 419.75,99.95 421.24,98.76 422.73,97.97 424.21,96.70 425.70,95.88 427.19,94.26 428.68,91.81 430.17,91.07 431.65,90.12 433.14,89.20 434.63,88.89 436.12,87.72 437.60,87.52 439.09,86.11 440.58,84.84 442.07,84.07 443.55,83.21 445.04,82.06 446.53,81.75 448.02,81.65 449.50,81.52 450.99,81.45 452.48,80.72 453.97,79.78 455.45,78.63 456.94,78.31 458.43,77.38 459.92,76.18 461.40,73.80 462.89,72.04 464.38,69.87 465.87,69.30 467.36,68.15 468.84,66.02 470.33,64.81 471.82,64.15 473.31,63.21 474.79,62.60 476.28,61.72 477.77,61.31 479.26,60.42 480.74,58.73 482.23,56.85 483.72,56.28 485.21,55.31 486.69,53.75 488.18,52.84 489.67,50.97 491.16,49.99 492.64,48.08 494.13,46.14 495.62,44.10 497.11,40.65 498.60,38.54 500.08,36.53 501.57,35.41 503.06,33.75 504.55,32.33 506.03,31.85 507.52,31.07 509.01,30.18" />
    </svg>
  