
    <svg width="540" height="160" xmlns="http://www.w3.org/2000/svg">
      <style>.line{fill:none;stroke:#388bfd;stroke-width:1.5}.axis{stroke:#555;stroke-width:1;opacity:0.5}.label{fill:#999;font-family:sans-serif;font-size:10px;text-anchor:middle}</style>
      <line class="axis" x1="30" y1="30" x2="30" y2="130" />
      <line class="axis" x1="30" y1="130" x2="510" y2="130" />
      <text class="label" x="15" y="30">8,597</text>
      <text class="label" x="15" y="134">0</text>
      <text class="label" x="30" y="148">2021</text>
      <text class="label" x="510" y="148">2026</text>
      <polyline class="line" points="30.00,129.98 31.47,129.97 32.93,129.95 34.40,129.95 35.86,129.95 37.33,129.80 38.79,129.80 40.26,129.80 41.73,128.96 43.19,127.58 44.66,127.51 46.12,127.51 47.59,127.51 49.05,127.51 50.52,127.51 51.98,127.51 53.45,127.51 54.92,127.51 56.38,127.51 57.85,127.51 59.31,127.51 60.78,127.51 62.24,127.51 63.71,127.51 65.18,127.51 66.64,127.51 68.11,127.51 69.57,126.72 71.04,126.72 72.50,126.71 73.97,126.71 75.44,126.71 76.90,126.71 78.37,126.66 79.83,126.66 81.30,126.66 82.76,126.66 84.23,126.66 85.69,126.66 87.16,126.66 88.63,126.66 90.09,126.66 91.56,126.66 93.02,126.66 94.49,126.66 95.95,126.66 97.42,126.66 98.89,126.66 100.35,126.66 101.82,126.66 103.28,126.66 104.75,126.62 106.21,125.91 107.68,125.25 109.15,124.99 110.61,123.70 112.08,123.70 113.54,123.70 115.01,123.70 116.47,123.70 117.94,123.70 119.40,123.70 120.87,123.70 122.34,123.70 123.80,123.70 125.27,123.70 126.73,123.70 128.20,123.60 129.66,123.60 131.13,123.60 132.60,123.49 134.06,123.49 135.53,123.49 136.99,123.49 138.46,123.45 139.92,123.45 141.39,123.45 142.85,123.45 144.32,123.43 145.79,123.43 147.25,123.43 148.72,123.43 150.18,123.43 151.65,123.43 153.11,123.43 154.58,123.43 156.05,123.43 157.51,123.43 158.98,123.43 160.44,123.43 161.91,123.43 163.37,123.43 164.84,123.43 166.31,123.43 167.77,123.43 169.24,123.43 170.70,123.43 172.17,123.43 173.63,123.43 175.10,123.43 176.56,123.43 178.03,123.39 179.50,123.39 180.96,123.39 182.43,123.39 183.89,123.39 185.36,123.39 186.82,123.39 188.29,123.39 189.76,123.39 191.22,123.39 192.69,123.39 194.15,123.39 195.62,123.39 197.08,123.39 198.55,123.39 200.02,123.37 201.48,123.07 202.95,122.99 204.41,122.86 205.88,122.70 207.34,122.65 208.81,122.65 210.27,122.65 211.74,122.39 213.21,122.37 214.67,122.21 216.14,122.15 217.60,122.04 219.07,121.64 220.53,121.61 222.00,121.56 223.47,121.54 224.93,121.49 226.40,121.49 227.86,121.46 229.33,121.46 230.79,121.46 232.26,121.46 233.73,121.46 235.19,121.46 236.66,121.46 238.12,121.33 239.59,120.96 241.05,120.68 242.52,120.60 243.98,120.43 245.45,120.42 246.92,120.39 248.38,120.38 249.85,120.38 251.31,120.38 252.78,120.30 254.24,120.22 255.71,120.19 257.18,120.17 258.64,120.15 260.11,119.88 261.57,119.69 263.04,119.41 264.50,119.24 265.97,119.11 267.44,119.05 268.90,118.98 270.37,118.97 271.83,118.91 273.30,118.74 274.76,118.74 276.23,118.74 277.69,118.73 279.16,118.72 280.63,118.72 282.09,118.62 283.56,118.60 285.02,118.59 286.49,118.58 287.95,118.55 289.42,118.55 290.89,118.55 292.35,118.55 293.82,118.55 295.28,118.55 296.75,118.55 298.21,118.55 299.68,118.52 301.15,118.48 302.61,118.48 304.08,118.27 305.54,118.26 307.01,118.25 308.47,118.22 309.94,118.11 311.40,117.86 312.87,117.81 314.34,117.81 315.80,117.81 317.27,117.81 318.73,117.81 320.20,117.81 321.66,117.81 323.13,117.81 324.60,117.81 326.06,117.81 327.53,117.81 328.99,117.81 330.46,117.81 331.92,117.80 333.39,117.73 334.85,117.72 336.32,117.72 337.79,117.72 339.25,117.72 340.72,117.67 342.18,117.67 343.65,117.48 345.11,117.31 346.58,117.31 348.05,117.31 349.51,117.31 350.98,117.31 352.44,117.29 353.91,117.29 355.37,117.26 356.84,117.18 358.31,117.11 359.77,116.80 361.24,116.79 362.70,116.31 364.17,116.03 365.63,115.82 367.10,115.16 368.56,114.98 370.03,114.91 371.50,114.69 372.96,114.36 374.43,114.27 375.89,114.16 377.36,113.97 378.82,113.81 380.29,113.74 381.76,113.62 383.22,113.54 384.69,113.33 386.15,113.15 387.62,112.92 389.08,112.56 390.55,112.35 392.02,111.32 393.48,110.54 394.95,110.04 396.41,109.61 397.88,109.13 399.34,109.13 400.81,109.13 402.27,109.13 403.74,108.83 405.21,108.66 406.67,108.03 408.14,107.32 409.60,106.49 411.07,105.25 412.53,104.37 414.00,102.58 415.47,101.50 416.93,100.78 418.40,99.62 419.86,98.87 421.33,97.40 422.79,95.16 424.26,94.49 425.73,93.62 427.19,92.78 428.66,92.50 430.12,91.43 431.59,91.24 433.05,89.96 434.52,88.80 435.98,88.10 437.45,87.31 438.92,86.26 440.38,85.98 441.85,85.89 443.31,85.78 444.78,85.71 446.24,85.04 447.71,84.18 449.18,83.13 450.64,82.84 452.11,81.99 453.57,80.90 455.04,78.73 456.50,77.12 457.97,75.14 459.44,74.62 460.90,73.57 462.37,71.63 463.83,70.53 465.30,69.92 466.76,69.07 468.23,68.51 469.69,67.71 471.16,67.34 472.63,66.52 474.09,64.98 475.56,63.27 477.02,62.74 478.49,61.78 479.95,60.01 481.42,59.10 482.89,56.90 484.35,55.86 485.82,53.95 487.28,52.09 488.75,49.84 490.21,46.47 491.68,44.24 493.15,42.32 494.61,41.09 496.08,39.49 497.54,38.06 499.01,37.36 500.47,36.20 501.94,34.79 503.40,34.25 504.87,33.21 506.34,32.33 507.80,31.45 509.27,30.33" />
    </svg>
  