
    <svg width="540" height="160" xmlns="http://www.w3.org/2000/svg">
      <style>.line{fill:none;stroke:#388bfd;stroke-width:1.5}.axis{stroke:#555;stroke-width:1;opacity:0.5}.label{fill:#999;font-family:sans-serif;font-size:10px;text-anchor:middle}</style>
      <line class="axis" x1="30" y1="30" x2="30" y2="130" />
      <line class="axis" x1="30" y1="130" x2="510" y2="130" />
      <text class="label" x="15" y="30">9,183</text>
      <text class="label" x="15" y="134">0</text>
      <text class="label" x="30" y="148">2021</text>
      <text class="label" x="510" y="148">2026</text>
      <polyline class="line" points="30.00,129.98 31.45,129.97 32.91,129.96 34.36,129.96 35.81,129.96 37.27,129.81 38.72,129.81 40.17,129.81 41.62,129.03 43.08,127.73 44.53,127.67 45.98,127.67 47.44,127.67 48.89,127.67 50.34,127.67 51.80,127.67 53.25,127.67 54.70,127.67 56.16,127.67 57.61,127.67 59.06,127.67 60.51,127.67 61.97,127.67 63.42,127.67 64.87,127.67 66.33,127.67 67.78,127.67 69.23,126.93 70.69,126.93 72.14,126.92 73.59,126.92 75.05,126.92 76.50,126.92 77.95,126.87 79.40,126.87 80.86,126.87 82.31,126.87 83.76,126.87 85.22,126.87 86.67,126.87 88.12,126.87 89.58,126.87 91.03,126.87 92.48,126.87 93.94,126.87 95.39,126.87 96.84,126.87 98.29,126.87 99.75,126.87 101.20,126.87 102.65,126.87 104.11,126.83 105.56,126.17 107.01,125.56 108.47,125.31 109.92,124.10 111.37,124.10 112.83,124.10 114.28,124.10 115.73,124.10 117.18,124.10 118.64,124.10 120.09,124.10 121.54,124.10 123.00,124.10 124.45,124.10 125.90,124.10 127.36,124.01 128.81,124.01 130.26,124.01 131.72,123.90 133.17,123.90 134.62,123.90 136.07,123.90 137.53,123.87 138.98,123.87 140.43,123.87 141.89,123.87 143.34,123.85 144.79,123.85 146.25,123.85 147.70,123.85 149.15,123.85 150.61,123.85 152.06,123.85 153.51,123.85 154.96,123.85 156.42,123.85 157.87,123.85 159.32,123.85 160.78,123.85 162.23,123.85 163.68,123.85 165.14,123.85 166.59,123.85 168.04,123.85 169.50,123.85 170.95,123.85 172.40,123.85 173.85,123.85 175.31,123.85 176.76,123.81 178.21,123.81 179.67,123.81 181.12,123.81 182.57,123.81 184.03,123.81 185.48,123.81 186.93,123.81 188.39,123.81 189.84,123.81 191.29,123.81 192.74,123.81 194.20,123.81 195.65,123.81 197.10,123.81 198.56,123.79 200.01,123.51 201.46,123.43 202.92,123.31 204.37,123.16 205.82,123.12 207.28,123.12 208.73,123.12 210.18,122.88 211.63,122.86 213.09,122.70 214.54,122.65 215.99,122.55 217.45,122.17 218.90,122.15 220.35,122.09 221.81,122.08 223.26,122.03 224.71,122.03 226.17,122.01 227.62,122.01 229.07,122.01 230.52,122.01 231.98,122.01 233.43,122.01 234.88,122.01 236.34,121.89 237.79,121.54 239.24,121.28 240.70,121.20 242.15,121.04 243.60,121.03 245.06,121.01 246.51,120.99 247.96,120.99 249.41,120.99 250.87,120.92 252.32,120.84 253.77,120.82 255.23,120.80 256.68,120.78 258.13,120.53 259.59,120.35 261.04,120.09 262.49,119.93 263.95,119.81 265.40,119.75 266.85,119.69 268.30,119.68 269.76,119.62 271.21,119.46 272.66,119.46 274.12,119.46 275.57,119.45 277.02,119.44 278.48,119.44 279.93,119.35 281.38,119.33 282.84,119.32 284.29,119.31 285.74,119.28 287.19,119.28 288.65,119.28 290.10,119.28 291.55,119.28 293.01,119.28 294.46,119.28 295.91,119.28 297.37,119.25 298.82,119.22 300.27,119.22 301.73,119.02 303.18,119.01 304.63,119.00 306.08,118.97 307.54,118.87 308.99,118.63 310.44,118.59 311.90,118.59 313.35,118.59 314.80,118.59 316.26,118.59 317.71,118.59 319.16,118.59 320.62,118.59 322.07,118.59 323.52,118.59 324.97,118.59 326.43,118.59 327.88,118.59 329.33,118.58 330.79,118.51 332.24,118.50 333.69,118.50 335.15,118.50 336.60,118.50 338.05,118.46 339.51,118.46 340.96,118.28 342.41,118.12 343.86,118.12 345.32,118.12 346.77,118.12 348.22,118.12 349.68,118.10 351.13,118.10 352.58,118.08 354.04,118.00 355.49,117.93 356.94,117.64 358.40,117.63 359.85,117.18 361.30,116.92 362.75,116.73 364.21,116.10 365.66,115.94 367.11,115.88 368.57,115.67 370.02,115.35 371.47,115.28 372.93,115.17 374.38,114.99 375.83,114.84 377.29,114.78 378.74,114.67 380.19,114.59 381.64,114.40 383.10,114.22 384.55,114.01 386.00,113.68 387.46,113.48 388.91,112.51 390.36,111.78 391.82,111.31 393.27,110.91 394.72,110.46 396.18,110.46 397.63,110.46 399.08,110.46 400.53,110.18 401.99,110.02 403.44,109.43 404.89,108.77 406.35,107.99 407.80,106.83 409.25,106.01 410.71,104.33 412.16,103.32 413.61,102.65 415.07,101.56 416.52,100.86 417.97,99.48 419.42,97.39 420.88,96.75 422.33,95.94 423.78,95.15 425.24,94.89 426.69,93.89 428.14,93.72 429.60,92.52 431.05,91.43 432.50,90.78 433.96,90.03 435.41,89.05 436.86,88.79 438.31,88.71 439.77,88.60 441.22,88.53 442.67,87.91 444.13,87.11 445.58,86.13 447.03,85.85 448.49,85.06 449.94,84.03 451.39,82.00 452.85,80.50 454.30,78.64 455.75,78.15 457.20,77.17 458.66,75.36 460.11,74.32 461.56,73.75 463.02,72.96 464.47,72.44 465.92,71.69 467.38,71.34 468.83,70.57 470.28,69.13 471.74,67.53 473.19,67.04 474.64,66.13 476.09,64.48 477.55,63.63 479.00,61.57 480.45,60.59 481.91,58.80 483.36,57.06 484.81,54.96 486.27,51.80 487.72,49.71 489.17,47.91 490.63,46.76 492.08,45.27 493.53,43.93 494.98,43.27 496.44,42.19 497.89,40.87 499.34,40.13 500.80,38.99 502.25,38.13 503.70,37.32 505.16,36.09 506.61,33.84 508.06,32.10 509.52,30.59" />
    </svg>
  