
    <svg width="540" height="160" xmlns="http://www.w3.org/2000/svg">
      <style>.line{fill:none;stroke:#388bfd;stroke-width:1.5}.axis{stroke:#555;stroke-width:1;opacity:0.5}.label{fill:#999;font-family:sans-serif;font-size:10px;text-anchor:middle}</style>
      <line class="axis" x1="30" y1="30" x2="30" y2="130" />
      <line class="axis" x1="30" y1="130" x2="510" y2="130" />
      <text class="label" x="15" y="30">9,089</text>
      <text class="label" x="15" y="134">0</text>
      <text class="label" x="30" y="148">2021</text>
      <text class="label" x="510" y="148">2026</text>
      <polyline class="line" points="30.00,129.98 31.46,129.97 32.91,129.96 34.37,129.96 35.82,129.96 37.28,129.81 38.74,129.81 40.19,129.81 41.65,129.02 43.10,127.71 44.56,127.65 46.02,127.65 47.47,127.65 48.93,127.65 50.38,127.65 51.84,127.65 53.30,127.65 54.75,127.65 56.21,127.65 57.66,127.65 59.12,127.65 60.58,127.65 62.03,127.65 63.49,127.65 64.94,127.65 66.40,127.65 67.86,127.65 69.31,126.90 70.77,126.90 72.22,126.89 73.68,126.89 75.14,126.89 76.59,126.89 78.05,126.84 79.50,126.84 80.96,126.84 82.42,126.84 83.87,126.84 85.33,126.84 86.78,126.84 88.24,126.84 89.70,126.84 91.15,126.84 92.61,126.84 94.06,126.84 95.52,126.84 96.98,126.84 98.43,126.84 99.89,126.84 101.34,126.84 102.80,126.84 104.26,126.80 105.71,126.13 107.17,125.51 108.62,125.26 110.08,124.04 111.54,124.04 112.99,124.04 114.45,124.04 115.90,124.04 117.36,124.04 118.82,124.04 120.27,124.04 121.73,124.04 123.19,124.04 124.64,124.04 126.10,124.04 127.55,123.95 129.01,123.95 130.47,123.95 131.92,123.84 133.38,123.84 134.83,123.84 136.29,123.84 137.75,123.81 139.20,123.81 140.66,123.81 142.11,123.81 143.57,123.78 145.03,123.78 146.48,123.78 147.94,123.78 149.39,123.78 150.85,123.78 152.31,123.78 153.76,123.78 155.22,123.78 156.67,123.78 158.13,123.78 159.59,123.78 161.04,123.78 162.50,123.78 163.95,123.78 165.41,123.78 166.87,123.78 168.32,123.78 169.78,123.78 171.23,123.78 172.69,123.78 174.15,123.78 175.60,123.78 177.06,123.75 178.51,123.75 179.97,123.75 181.43,123.75 182.88,123.75 184.34,123.75 185.79,123.75 187.25,123.75 188.71,123.75 190.16,123.75 191.62,123.75 193.07,123.75 194.53,123.75 195.99,123.75 197.44,123.75 198.90,123.73 200.35,123.44 201.81,123.37 203.27,123.24 204.72,123.09 206.18,123.05 207.63,123.05 209.09,123.05 210.55,122.80 212.00,122.78 213.46,122.63 214.91,122.57 216.37,122.47 217.83,122.09 219.28,122.07 220.74,122.01 222.19,122.00 223.65,121.95 225.11,121.95 226.56,121.92 228.02,121.92 229.47,121.92 230.93,121.92 232.39,121.92 233.84,121.92 235.30,121.92 236.75,121.80 238.21,121.45 239.67,121.19 241.12,121.11 242.58,120.95 244.03,120.93 245.49,120.91 246.95,120.90 248.40,120.90 249.86,120.90 251.31,120.82 252.77,120.75 254.23,120.73 255.68,120.70 257.14,120.68 258.59,120.43 260.05,120.25 261.51,119.99 262.96,119.82 264.42,119.70 265.87,119.65 267.33,119.58 268.79,119.57 270.24,119.51 271.70,119.35 273.15,119.35 274.61,119.35 276.07,119.34 277.52,119.33 278.98,119.33 280.43,119.24 281.89,119.22 283.35,119.21 284.80,119.20 286.26,119.17 287.71,119.17 289.17,119.17 290.63,119.17 292.08,119.17 293.54,119.17 294.99,119.17 296.45,119.17 297.91,119.14 299.36,119.11 300.82,119.11 302.28,118.91 303.73,118.90 305.19,118.89 306.64,118.85 308.10,118.76 309.56,118.51 311.01,118.47 312.47,118.47 313.92,118.47 315.38,118.47 316.84,118.47 318.29,118.47 319.75,118.47 321.20,118.47 322.66,118.47 324.12,118.47 325.57,118.47 327.03,118.47 328.48,118.47 329.94,118.46 331.40,118.39 332.85,118.38 334.31,118.38 335.76,118.38 337.22,118.38 338.68,118.34 340.13,118.34 341.59,118.16 343.04,118.00 344.50,118.00 345.96,118.00 347.41,118.00 348.87,118.00 350.32,117.97 351.78,117.97 353.24,117.95 354.69,117.88 356.15,117.81 357.60,117.51 359.06,117.50 360.52,117.05 361.97,116.79 363.43,116.59 364.88,115.96 366.34,115.80 367.80,115.73 369.25,115.52 370.71,115.20 372.16,115.12 373.62,115.01 375.08,114.84 376.53,114.68 377.99,114.62 379.44,114.51 380.90,114.43 382.36,114.23 383.81,114.06 385.27,113.85 386.72,113.51 388.18,113.31 389.64,112.33 391.09,111.59 392.55,111.12 394.00,110.71 395.46,110.26 396.92,110.26 398.37,110.26 399.83,110.26 401.28,109.98 402.74,109.81 404.20,109.22 405.65,108.55 407.11,107.76 408.56,106.59 410.02,105.76 411.48,104.07 412.93,103.04 414.39,102.36 415.84,101.26 417.30,100.56 418.76,99.16 420.21,97.05 421.67,96.41 423.12,95.58 424.58,94.79 426.04,94.53 427.49,93.52 428.95,93.34 430.40,92.13 431.86,91.03 433.32,90.37 434.77,89.62 436.23,88.63 437.68,88.37 439.14,88.28 440.60,88.17 442.05,88.10 443.51,87.48 444.96,86.66 446.42,85.67 447.88,85.40 449.33,84.59 450.79,83.56 452.24,81.50 453.70,79.98 455.16,78.11 456.61,77.62 458.07,76.63 459.52,74.79 460.98,73.75 462.44,73.17 463.89,72.37 465.35,71.84 466.80,71.08 468.26,70.73 469.72,69.96 471.17,68.50 472.63,66.88 474.08,66.38 475.54,65.47 477.00,63.80 478.45,62.94 479.91,60.86 481.37,59.87 482.82,58.07 484.28,56.31 485.73,54.18 487.19,50.99 488.65,48.88 490.10,47.06 491.56,45.90 493.01,44.39 494.47,43.04 495.93,42.38 497.38,41.28 498.84,39.95 500.29,39.20 501.75,38.05 503.21,37.18 504.66,36.36 506.12,35.12 507.57,32.85 509.03,31.09" />
    </svg>
  