
    <svg width="540" height="160" xmlns="http://www.w3.org/2000/svg">
      <style>.line{fill:none;stroke:#388bfd;stroke-width:1.5}.axis{stroke:#555;stroke-width:1;opacity:0.5}.label{fill:#999;font-family:sans-serif;font-size:10px;text-anchor:middle}</style>
      <line class="axis" x1="30" y1="30" x2="30" y2="130" />
      <line class="axis" x1="30" y1="130" x2="510" y2="130" />
      <text class="label" x="15" y="30">5,023</text>
      <text class="label" x="15" y="134">0</text>
      <text class="label" x="30" y="148">2021</text>
      <text class="label" x="510" y="148">2026</text>
      <polyline class="line" points="30.00,129.96 31.52,129.94 33.05,129.92 34.57,129.92 36.10,129.92 37.62,129.66 39.14,129.66 40.67,129.66 42.19,128.23 43.71,125.86 45.24,125.74 46.76,125.74 48.29,125.74 49.81,125.74 51.33,125.74 52.86,125.74 54.38,125.74 55.90,125.74 57.43,125.74 58.95,125.74 60.48,125.74 62.00,125.74 63.52,125.74 65.05,125.74 66.57,125.74 68.10,125.74 69.62,125.74 71.14,124.39 72.67,124.39 74.19,124.37 75.71,124.37 77.24,124.37 78.76,124.37 80.29,124.29 81.81,124.29 83.33,124.29 84.86,124.29 86.38,124.29 87.90,124.29 89.43,124.29 90.95,124.29 92.48,124.29 94.00,124.29 95.52,124.29 97.05,124.29 98.57,124.29 100.10,124.29 101.62,124.29 103.14,124.29 104.67,124.29 106.19,124.29 107.71,124.21 109.24,122.99 110.76,121.88 112.29,121.42 113.81,119.21 115.33,119.21 116.86,119.21 118.38,119.21 119.90,119.21 121.43,119.21 122.95,119.21 124.48,119.21 126.00,119.21 127.52,119.21 129.05,119.21 130.57,119.21 132.10,119.05 133.62,119.05 135.14,119.05 136.67,118.85 138.19,118.85 139.71,118.85 141.24,118.85 142.76,118.79 144.29,118.79 145.81,118.79 147.33,118.79 148.86,118.75 150.38,118.75 151.90,118.75 153.43,118.75 154.95,118.75 156.48,118.75 158.00,118.75 159.52,118.75 161.05,118.75 162.57,118.75 164.10,118.75 165.62,118.75 167.14,118.75 168.67,118.75 170.19,118.75 171.71,118.75 173.24,118.75 174.76,118.75 176.29,118.75 177.81,118.75 179.33,118.75 180.86,118.75 182.38,118.75 183.90,118.69 185.43,118.69 186.95,118.69 188.48,118.69 190.00,118.69 191.52,118.69 193.05,118.69 194.57,118.69 196.10,118.69 197.62,118.69 199.14,118.69 200.67,118.69 202.19,118.69 203.71,118.69 205.24,118.69 206.76,118.65 208.29,118.13 209.81,118.00 211.33,117.78 212.86,117.50 214.38,117.42 215.90,117.42 217.43,117.42 218.95,116.98 220.48,116.94 222.00,116.66 223.52,116.56 225.05,116.38 226.57,115.69 228.10,115.65 229.62,115.55 231.14,115.53 232.67,115.43 234.19,115.43 235.71,115.39 237.24,115.39 238.76,115.39 240.29,115.39 241.81,115.39 243.33,115.39 244.86,115.39 246.38,115.17 247.90,114.53 249.43,114.05 250.95,113.91 252.48,113.62 254.00,113.60 255.52,113.56 257.05,113.54 258.57,113.54 260.10,113.54 261.62,113.40 263.14,113.26 264.67,113.22 266.19,113.18 267.71,113.14 269.24,112.68 270.76,112.36 272.29,111.88 273.81,111.58 275.33,111.37 276.86,111.27 278.38,111.15 279.90,111.13 281.43,111.03 282.95,110.73 284.48,110.73 286.00,110.73 287.52,110.71 289.05,110.69 290.57,110.69 292.10,110.53 293.62,110.49 295.14,110.47 296.67,110.45 298.19,110.41 299.71,110.41 301.24,110.41 302.76,110.41 304.29,110.41 305.81,110.41 307.33,110.41 308.86,110.41 310.38,110.35 311.90,110.29 313.43,110.29 314.95,109.93 316.48,109.91 318.00,109.89 319.52,109.83 321.05,109.65 322.57,109.22 324.10,109.14 325.62,109.14 327.14,109.14 328.67,109.14 330.19,109.14 331.71,109.14 333.24,109.14 334.76,109.14 336.29,109.14 337.81,109.14 339.33,109.14 340.86,109.14 342.38,109.14 343.90,109.12 345.43,109.00 346.95,108.98 348.48,108.98 350.00,108.98 351.52,108.98 353.05,108.90 354.57,108.90 356.10,108.58 357.62,108.28 359.14,108.28 360.67,108.28 362.19,108.28 363.71,108.28 365.24,108.24 366.76,108.24 368.29,108.20 369.81,108.06 371.33,107.94 372.86,107.40 374.38,107.38 375.90,106.57 377.43,106.09 378.95,105.73 380.48,104.60 382.00,104.30 383.52,104.18 385.05,103.80 386.57,103.22 388.10,103.08 389.62,102.88 391.14,102.57 392.67,102.29 394.19,102.17 395.71,101.97 397.24,101.83 398.76,101.47 400.29,101.15 401.81,100.77 403.33,100.16 404.86,99.80 406.38,98.03 407.90,96.69 409.43,95.84 410.95,95.10 412.48,94.28 414.00,94.28 415.52,94.28 417.05,94.28 418.57,93.77 420.10,93.47 421.62,92.81 423.14,92.05 424.67,91.02 426.19,89.39 427.71,88.47 429.24,86.80 430.76,85.82 432.29,85.21 433.81,84.19 435.33,83.39 436.86,82.04 438.38,80.07 439.90,79.49 441.43,78.66 442.95,77.94 444.48,77.70 446.00,76.78 447.52,76.63 449.05,75.53 450.57,74.54 452.10,73.94 453.62,73.24 455.14,72.29 456.67,72.01 458.19,71.87 459.71,71.73 461.24,71.61 462.76,70.85 464.29,70.00 465.81,68.64 467.33,68.24 468.86,67.55 470.38,66.41 471.90,63.88 473.43,61.97 474.95,59.84 476.48,59.38 478.00,58.45 479.52,56.56 481.05,55.40 482.57,54.77 484.10,53.81 485.62,53.31 487.14,52.62 488.67,52.30 490.19,51.22 491.71,49.61 493.24,48.08 494.76,47.62 496.29,46.82 497.81,45.39 499.33,44.31 500.86,42.72 502.38,41.91 503.90,40.27 505.43,38.10 506.95,36.25 508.48,32.33 510.00,30.00" />
    </svg>
  