
    <svg width="540" height="160" xmlns="http://www.w3.org/2000/svg">
      <style>.line{fill:none;stroke:#388bfd;stroke-width:1.5}.axis{stroke:#555;stroke-width:1;opacity:0.5}.label{fill:#999;font-family:sans-serif;font-size:10px;text-anchor:middle}</style>
      <line class="axis" x1="30" y1="30" x2="30" y2="130" />
      <line class="axis" x1="30" y1="130" x2="510" y2="130" />
      <text class="label" x="15" y="30">9,237</text>
      <text class="label" x="15" y="134">0</text>
      <text class="label" x="30" y="148">2021</text>
      <text class="label" x="510" y="148">2026</text>
      <polyline class="line" points="30.00,129.98 31.45,129.97 32.90,129.96 34.35,129.96 35.80,129.96 37.25,129.82 38.70,129.82 40.15,129.82 41.60,129.04 43.05,127.75 44.50,127.68 45.95,127.68 47.40,127.68 48.85,127.68 50.30,127.68 51.75,127.68 53.20,127.68 54.65,127.68 56.10,127.68 57.55,127.68 59.00,127.68 60.45,127.68 61.90,127.68 63.35,127.68 64.80,127.68 66.25,127.68 67.70,127.68 69.15,126.95 70.60,126.95 72.05,126.94 73.50,126.94 74.95,126.94 76.40,126.94 77.85,126.89 79.31,126.89 80.76,126.89 82.21,126.89 83.66,126.89 85.11,126.89 86.56,126.89 88.01,126.89 89.46,126.89 90.91,126.89 92.36,126.89 93.81,126.89 95.26,126.89 96.71,126.89 98.16,126.89 99.61,126.89 101.06,126.89 102.51,126.89 103.96,126.85 105.41,126.19 106.86,125.58 108.31,125.33 109.76,124.13 111.21,124.13 112.66,124.13 114.11,124.13 115.56,124.13 117.01,124.13 118.46,124.13 119.91,124.13 121.36,124.13 122.81,124.13 124.26,124.13 125.71,124.13 127.16,124.05 128.61,124.05 130.06,124.05 131.51,123.94 132.96,123.94 134.41,123.94 135.86,123.94 137.31,123.90 138.76,123.90 140.21,123.90 141.66,123.90 143.11,123.88 144.56,123.88 146.01,123.88 147.46,123.88 148.91,123.88 150.36,123.88 151.81,123.88 153.26,123.88 154.71,123.88 156.16,123.88 157.61,123.88 159.06,123.88 160.51,123.88 161.96,123.88 163.41,123.88 164.86,123.88 166.31,123.88 167.76,123.88 169.21,123.88 170.66,123.88 172.11,123.88 173.56,123.88 175.02,123.88 176.47,123.85 177.92,123.85 179.37,123.85 180.82,123.85 182.27,123.85 183.72,123.85 185.17,123.85 186.62,123.85 188.07,123.85 189.52,123.85 190.97,123.85 192.42,123.85 193.87,123.85 195.32,123.85 196.77,123.85 198.22,123.83 199.67,123.55 201.12,123.47 202.57,123.35 204.02,123.20 205.47,123.16 206.92,123.16 208.37,123.16 209.82,122.92 211.27,122.90 212.72,122.75 214.17,122.69 215.62,122.59 217.07,122.22 218.52,122.19 219.97,122.14 221.42,122.13 222.87,122.08 224.32,122.08 225.77,122.05 227.22,122.05 228.67,122.05 230.12,122.05 231.57,122.05 233.02,122.05 234.47,122.05 235.92,121.93 237.37,121.59 238.82,121.33 240.27,121.25 241.72,121.09 243.17,121.08 244.62,121.06 246.07,121.05 247.52,121.05 248.97,121.05 250.42,120.97 251.87,120.90 253.32,120.87 254.77,120.85 256.22,120.83 257.67,120.58 259.12,120.41 260.57,120.15 262.02,119.99 263.47,119.87 264.92,119.81 266.37,119.75 267.82,119.74 269.27,119.68 270.73,119.52 272.18,119.52 273.63,119.52 275.08,119.51 276.53,119.50 277.98,119.50 279.43,119.41 280.88,119.39 282.33,119.38 283.78,119.37 285.23,119.35 286.68,119.35 288.13,119.35 289.58,119.35 291.03,119.35 292.48,119.35 293.93,119.35 295.38,119.35 296.83,119.31 298.28,119.28 299.73,119.28 301.18,119.09 302.63,119.08 304.08,119.07 305.53,119.03 306.98,118.94 308.43,118.70 309.88,118.65 311.33,118.65 312.78,118.65 314.23,118.65 315.68,118.65 317.13,118.65 318.58,118.65 320.03,118.65 321.48,118.65 322.93,118.65 324.38,118.65 325.83,118.65 327.28,118.65 328.73,118.64 330.18,118.58 331.63,118.57 333.08,118.57 334.53,118.57 335.98,118.57 337.43,118.52 338.88,118.52 340.33,118.35 341.78,118.19 343.23,118.19 344.68,118.19 346.13,118.19 347.58,118.19 349.03,118.17 350.48,118.17 351.93,118.15 353.38,118.07 354.83,118.00 356.28,117.71 357.73,117.70 359.18,117.26 360.63,117.00 362.08,116.80 363.53,116.19 364.98,116.02 366.44,115.96 367.89,115.75 369.34,115.44 370.79,115.36 372.24,115.25 373.69,115.08 375.14,114.93 376.59,114.87 378.04,114.76 379.49,114.68 380.94,114.49 382.39,114.31 383.84,114.11 385.29,113.77 386.74,113.58 388.19,112.61 389.64,111.89 391.09,111.42 392.54,111.02 393.99,110.58 395.44,110.58 396.89,110.58 398.34,110.58 399.79,110.30 401.24,110.13 402.69,109.55 404.14,108.89 405.59,108.12 407.04,106.96 408.49,106.15 409.94,104.48 411.39,103.48 412.84,102.81 414.29,101.72 415.74,101.03 417.19,99.65 418.64,97.58 420.09,96.95 421.54,96.14 422.99,95.36 424.44,95.10 425.89,94.10 427.34,93.93 428.79,92.74 430.24,91.65 431.69,91.00 433.14,90.27 434.59,89.29 436.04,89.03 437.49,88.95 438.94,88.84 440.39,88.77 441.84,88.16 443.29,87.36 444.74,86.38 446.19,86.11 447.64,85.32 449.09,84.30 450.54,82.28 451.99,80.78 453.44,78.94 454.89,78.46 456.34,77.48 457.79,75.68 459.24,74.65 460.69,74.08 462.15,73.29 463.60,72.77 465.05,72.03 466.50,71.68 467.95,70.92 469.40,69.48 470.85,67.89 472.30,67.40 473.75,66.51 475.20,64.86 476.65,64.02 478.10,61.97 479.55,60.99 481.00,59.22 482.45,57.49 483.90,55.40 485.35,52.26 486.80,50.18 488.25,48.39 489.70,47.25 491.15,45.76 492.60,44.43 494.05,43.78 495.50,42.70 496.95,41.39 498.40,40.65 499.85,39.53 501.30,38.67 502.75,37.86 504.20,36.64 505.65,34.41 507.10,32.67 508.55,31.17 510.00,30.00" />
    </svg>
  