
    <svg width="540" height="160" xmlns="http://www.w3.org/2000/svg">
      <style>.line{fill:none;stroke:#388bfd;stroke-width:1.5}.axis{stroke:#555;stroke-width:1;opacity:0.5}.label{fill:#999;font-family:sans-serif;font-size:10px;text-anchor:middle}</style>
      <line class="axis" x1="30" y1="30" x2="30" y2="130" />
      <line class="axis" x1="30" y1="130" x2="510" y2="130" />
      <text class="label" x="15" y="30">9,349</text>
      <text class="label" x="15" y="134">0</text>
      <text class="label" x="30" y="148">2021</text>
      <text class="label" x="510" y="148">2026</text>
      <polyline class="line" points="30.00,129.98 31.44,129.97 32.88,129.96 34.32,129.96 35.76,129.96 37.20,129.82 38.64,129.82 40.09,129.82 41.53,129.05 42.97,127.78 44.41,127.71 45.85,127.71 47.29,127.71 48.73,127.71 50.17,127.71 51.61,127.71 53.05,127.71 54.49,127.71 55.93,127.71 57.37,127.71 58.81,127.71 60.26,127.71 61.70,127.71 63.14,127.71 64.58,127.71 66.02,127.71 67.46,127.71 68.90,126.98 70.34,126.98 71.78,126.97 73.22,126.97 74.66,126.97 76.10,126.97 77.54,126.93 78.98,126.93 80.43,126.93 81.87,126.93 83.31,126.93 84.75,126.93 86.19,126.93 87.63,126.93 89.07,126.93 90.51,126.93 91.95,126.93 93.39,126.93 94.83,126.93 96.27,126.93 97.71,126.93 99.15,126.93 100.60,126.93 102.04,126.93 103.48,126.89 104.92,126.23 106.36,125.64 107.80,125.39 109.24,124.20 110.68,124.20 112.12,124.20 113.56,124.20 115.00,124.20 116.44,124.20 117.88,124.20 119.32,124.20 120.77,124.20 122.21,124.20 123.65,124.20 125.09,124.20 126.53,124.12 127.97,124.12 129.41,124.12 130.85,124.01 132.29,124.01 133.73,124.01 135.17,124.01 136.61,123.98 138.05,123.98 139.49,123.98 140.94,123.98 142.38,123.96 143.82,123.96 145.26,123.96 146.70,123.96 148.14,123.96 149.58,123.96 151.02,123.96 152.46,123.96 153.90,123.96 155.34,123.96 156.78,123.96 158.22,123.96 159.66,123.96 161.11,123.96 162.55,123.96 163.99,123.96 165.43,123.96 166.87,123.96 168.31,123.96 169.75,123.96 171.19,123.96 172.63,123.96 174.07,123.96 175.51,123.92 176.95,123.92 178.39,123.92 179.83,123.92 181.28,123.92 182.72,123.92 184.16,123.92 185.60,123.92 187.04,123.92 188.48,123.92 189.92,123.92 191.36,123.92 192.80,123.92 194.24,123.92 195.68,123.92 197.12,123.90 198.56,123.62 200.01,123.55 201.45,123.43 202.89,123.28 204.33,123.24 205.77,123.24 207.21,123.24 208.65,123.00 210.09,122.98 211.53,122.83 212.97,122.78 214.41,122.68 215.85,122.31 217.29,122.29 218.73,122.23 220.18,122.22 221.62,122.17 223.06,122.17 224.50,122.15 225.94,122.15 227.38,122.15 228.82,122.15 230.26,122.15 231.70,122.15 233.14,122.15 234.58,122.03 236.02,121.69 237.46,121.43 238.90,121.36 240.35,121.20 241.79,121.19 243.23,121.16 244.67,121.15 246.11,121.15 247.55,121.15 248.99,121.08 250.43,121.00 251.87,120.98 253.31,120.96 254.75,120.94 256.19,120.69 257.63,120.52 259.07,120.27 260.52,120.11 261.96,119.99 263.40,119.93 264.84,119.87 266.28,119.86 267.72,119.81 269.16,119.65 270.60,119.65 272.04,119.65 273.48,119.64 274.92,119.62 276.36,119.62 277.80,119.54 279.24,119.52 280.69,119.51 282.13,119.50 283.57,119.47 285.01,119.47 286.45,119.47 287.89,119.47 289.33,119.47 290.77,119.47 292.21,119.47 293.65,119.47 295.09,119.44 296.53,119.41 297.97,119.41 299.41,119.22 300.86,119.21 302.30,119.20 303.74,119.16 305.18,119.07 306.62,118.83 308.06,118.79 309.50,118.79 310.94,118.79 312.38,118.79 313.82,118.79 315.26,118.79 316.70,118.79 318.14,118.79 319.58,118.79 321.03,118.79 322.47,118.79 323.91,118.79 325.35,118.79 326.79,118.78 328.23,118.72 329.67,118.70 331.11,118.70 332.55,118.70 333.99,118.70 335.43,118.66 336.87,118.66 338.31,118.49 339.75,118.33 341.20,118.33 342.64,118.33 344.08,118.33 345.52,118.33 346.96,118.31 348.40,118.31 349.84,118.29 351.28,118.21 352.72,118.15 354.16,117.86 355.60,117.85 357.04,117.41 358.48,117.15 359.92,116.96 361.37,116.35 362.81,116.19 364.25,116.13 365.69,115.92 367.13,115.61 368.57,115.54 370.01,115.43 371.45,115.26 372.89,115.11 374.33,115.05 375.77,114.94 377.21,114.86 378.65,114.67 380.10,114.50 381.54,114.30 382.98,113.97 384.42,113.77 385.86,112.82 387.30,112.11 388.74,111.65 390.18,111.25 391.62,110.81 393.06,110.81 394.50,110.81 395.94,110.81 397.38,110.53 398.82,110.37 400.27,109.79 401.71,109.14 403.15,108.38 404.59,107.24 406.03,106.44 407.47,104.79 408.91,103.79 410.35,103.13 411.79,102.06 413.23,101.38 414.67,100.02 416.11,97.96 417.55,97.34 418.99,96.54 420.44,95.77 421.88,95.52 423.32,94.53 424.76,94.36 426.20,93.18 427.64,92.11 429.08,91.47 430.52,90.74 431.96,89.78 433.40,89.53 434.84,89.44 436.28,89.33 437.72,89.27 439.16,88.66 440.61,87.87 442.05,86.90 443.49,86.64 444.93,85.86 446.37,84.85 447.81,82.85 449.25,81.37 450.69,79.56 452.13,79.07 453.57,78.11 455.01,76.33 456.45,75.31 457.89,74.75 459.33,73.97 460.78,73.46 462.22,72.72 463.66,72.38 465.10,71.63 466.54,70.21 467.98,68.64 469.42,68.15 470.86,67.27 472.30,65.64 473.74,64.81 475.18,62.78 476.62,61.82 478.06,60.07 479.50,58.36 480.95,56.29 482.39,53.19 483.83,51.14 485.27,49.37 486.71,48.24 488.15,46.77 489.59,45.46 491.03,44.81 492.47,43.74 493.91,42.45 495.35,41.72 496.79,40.61 498.23,39.77 499.67,38.96 501.12,37.75 502.56,35.55 504.00,33.79 505.44,32.30 506.88,31.07 508.32,30.62 509.76,30.04" />
    </svg>
  