
    <svg width="540" height="160" xmlns="http://www.w3.org/2000/svg">
      <style>.line{fill:none;stroke:#388bfd;stroke-width:1.5}.axis{stroke:#555;stroke-width:1;opacity:0.5}.label{fill:#999;font-family:sans-serif;font-size:10px;text-anchor:middle}</style>
      <line class="axis" x1="30" y1="30" x2="30" y2="130" />
      <line class="axis" x1="30" y1="130" x2="510" y2="130" />
      <text class="label" x="15" y="30">9,389</text>
      <text class="label" x="15" y="134">0</text>
      <text class="label" x="30" y="148">2021</text>
      <text class="label" x="510" y="148">2026</text>
      <polyline class="line" points="30.00,129.98 31.44,129.97 32.87,129.96 34.31,129.96 35.75,129.96 37.19,129.82 38.62,129.82 40.06,129.82 41.50,129.05 42.93,127.78 44.37,127.72 45.81,127.72 47.25,127.72 48.68,127.72 50.12,127.72 51.56,127.72 52.99,127.72 54.43,127.72 55.87,127.72 57.31,127.72 58.74,127.72 60.18,127.72 61.62,127.72 63.05,127.72 64.49,127.72 65.93,127.72 67.37,127.72 68.80,127.00 70.24,127.00 71.68,126.99 73.11,126.99 74.55,126.99 75.99,126.99 77.43,126.94 78.86,126.94 80.30,126.94 81.74,126.94 83.17,126.94 84.61,126.94 86.05,126.94 87.49,126.94 88.92,126.94 90.36,126.94 91.80,126.94 93.23,126.94 94.67,126.94 96.11,126.94 97.54,126.94 98.98,126.94 100.42,126.94 101.86,126.94 103.29,126.90 104.73,126.25 106.17,125.65 107.60,125.41 109.04,124.23 110.48,124.23 111.92,124.23 113.35,124.23 114.79,124.23 116.23,124.23 117.66,124.23 119.10,124.23 120.54,124.23 121.98,124.23 123.41,124.23 124.85,124.23 126.29,124.14 127.72,124.14 129.16,124.14 130.60,124.04 132.04,124.04 133.47,124.04 134.91,124.04 136.35,124.00 137.78,124.00 139.22,124.00 140.66,124.00 142.10,123.98 143.53,123.98 144.97,123.98 146.41,123.98 147.84,123.98 149.28,123.98 150.72,123.98 152.16,123.98 153.59,123.98 155.03,123.98 156.47,123.98 157.90,123.98 159.34,123.98 160.78,123.98 162.22,123.98 163.65,123.98 165.09,123.98 166.53,123.98 167.96,123.98 169.40,123.98 170.84,123.98 172.28,123.98 173.71,123.98 175.15,123.95 176.59,123.95 178.02,123.95 179.46,123.95 180.90,123.95 182.34,123.95 183.77,123.95 185.21,123.95 186.65,123.95 188.08,123.95 189.52,123.95 190.96,123.95 192.40,123.95 193.83,123.95 195.27,123.95 196.71,123.93 198.14,123.65 199.58,123.58 201.02,123.46 202.46,123.31 203.89,123.27 205.33,123.27 206.77,123.27 208.20,123.03 209.64,123.01 211.08,122.86 212.51,122.81 213.95,122.71 215.39,122.34 216.83,122.32 218.26,122.27 219.70,122.26 221.14,122.20 222.57,122.20 224.01,122.18 225.45,122.18 226.89,122.18 228.32,122.18 229.76,122.18 231.20,122.18 232.63,122.18 234.07,122.07 235.51,121.72 236.95,121.47 238.38,121.39 239.82,121.23 241.26,121.22 242.69,121.20 244.13,121.19 245.57,121.19 247.01,121.19 248.44,121.12 249.88,121.04 251.32,121.02 252.75,121.00 254.19,120.98 255.63,120.73 257.07,120.56 258.50,120.31 259.94,120.15 261.38,120.03 262.81,119.98 264.25,119.91 265.69,119.90 267.13,119.85 268.56,119.69 270.00,119.69 271.44,119.69 272.87,119.68 274.31,119.67 275.75,119.67 277.19,119.58 278.62,119.56 280.06,119.55 281.50,119.54 282.93,119.52 284.37,119.52 285.81,119.52 287.25,119.52 288.68,119.52 290.12,119.52 291.56,119.52 292.99,119.52 294.43,119.49 295.87,119.46 297.31,119.46 298.74,119.26 300.18,119.25 301.62,119.24 303.05,119.21 304.49,119.11 305.93,118.88 307.37,118.84 308.80,118.84 310.24,118.84 311.68,118.84 313.11,118.84 314.55,118.84 315.99,118.84 317.43,118.84 318.86,118.84 320.30,118.84 321.74,118.84 323.17,118.84 324.61,118.84 326.05,118.83 327.49,118.76 328.92,118.75 330.36,118.75 331.80,118.75 333.23,118.75 334.67,118.71 336.11,118.71 337.54,118.54 338.98,118.38 340.42,118.38 341.86,118.38 343.29,118.38 344.73,118.38 346.17,118.36 347.60,118.36 349.04,118.34 350.48,118.26 351.92,118.20 353.35,117.91 354.79,117.90 356.23,117.46 357.66,117.21 359.10,117.02 360.54,116.41 361.98,116.25 363.41,116.19 364.85,115.98 366.29,115.67 367.72,115.60 369.16,115.49 370.60,115.32 372.04,115.17 373.47,115.11 374.91,115.00 376.35,114.93 377.78,114.74 379.22,114.57 380.66,114.36 382.10,114.03 383.53,113.84 384.97,112.89 386.41,112.18 387.84,111.72 389.28,111.33 390.72,110.89 392.16,110.89 393.59,110.89 395.03,110.89 396.47,110.62 397.90,110.46 399.34,109.88 400.78,109.23 402.22,108.47 403.65,107.34 405.09,106.54 406.53,104.90 407.96,103.91 409.40,103.25 410.84,102.18 412.28,101.50 413.71,100.15 415.15,98.10 416.59,97.48 418.02,96.68 419.46,95.92 420.90,95.66 422.34,94.68 423.77,94.51 425.21,93.34 426.65,92.28 428.08,91.64 429.52,90.91 430.96,89.95 432.40,89.70 433.83,89.61 435.27,89.51 436.71,89.44 438.14,88.83 439.58,88.05 441.02,87.09 442.46,86.82 443.89,86.04 445.33,85.04 446.77,83.05 448.20,81.58 449.64,79.77 451.08,79.29 452.51,78.33 453.95,76.55 455.39,75.54 456.83,74.99 458.26,74.21 459.70,73.70 461.14,72.97 462.57,72.62 464.01,71.88 465.45,70.46 466.89,68.90 468.32,68.42 469.76,67.53 471.20,65.91 472.63,65.08 474.07,63.07 475.51,62.11 476.95,60.37 478.38,58.66 479.82,56.61 481.26,53.52 482.69,51.47 484.13,49.71 485.57,48.59 487.01,47.13 488.44,45.82 489.88,45.18 491.32,44.11 492.75,42.82 494.19,42.10 495.63,40.99 497.07,40.15 498.50,39.35 499.94,38.15 501.38,35.95 502.81,34.20 504.25,32.72 505.69,31.49 507.13,31.04 508.56,30.47 510.00,30.00" />
    </svg>
  