
    <svg width="540" height="160" xmlns="http://www.w3.org/2000/svg">
      <style>.line{fill:none;stroke:#388bfd;stroke-width:1.5}.axis{stroke:#555;stroke-width:1;opacity:0.5}.label{fill:#999;font-family:sans-serif;font-size:10px;text-anchor:middle}</style>
      <line class="axis" x1="30" y1="30" x2="30" y2="130" />
      <line class="axis" x1="30" y1="130" x2="510" y2="130" />
      <text class="label" x="15" y="30">9,302</text>
      <text class="label" x="15" y="134">0</text>
      <text class="label" x="30" y="148">2021</text>
      <text class="label" x="510" y="148">2026</text>
      <polyline class="line" points="30.00,129.98 31.44,129.97 32.89,129.96 34.33,129.96 35.77,129.96 37.22,129.82 38.66,129.82 40.11,129.82 41.55,129.04 42.99,127.76 44.44,127.70 45.88,127.70 47.32,127.70 48.77,127.70 50.21,127.70 51.65,127.70 53.10,127.70 54.54,127.70 55.98,127.70 57.43,127.70 58.87,127.70 60.32,127.70 61.76,127.70 63.20,127.70 64.65,127.70 66.09,127.70 67.53,127.70 68.98,126.97 70.42,126.97 71.86,126.96 73.31,126.96 74.75,126.96 76.20,126.96 77.64,126.91 79.08,126.91 80.53,126.91 81.97,126.91 83.41,126.91 84.86,126.91 86.30,126.91 87.74,126.91 89.19,126.91 90.63,126.91 92.08,126.91 93.52,126.91 94.96,126.91 96.41,126.91 97.85,126.91 99.29,126.91 100.74,126.91 102.18,126.91 103.62,126.87 105.07,126.22 106.51,125.61 107.95,125.37 109.40,124.17 110.84,124.17 112.29,124.17 113.73,124.17 115.17,124.17 116.62,124.17 118.06,124.17 119.50,124.17 120.95,124.17 122.39,124.17 123.83,124.17 125.28,124.17 126.72,124.09 128.17,124.09 129.61,124.09 131.05,123.98 132.50,123.98 133.94,123.98 135.38,123.98 136.83,123.95 138.27,123.95 139.71,123.95 141.16,123.95 142.60,123.93 144.05,123.93 145.49,123.93 146.93,123.93 148.38,123.93 149.82,123.93 151.26,123.93 152.71,123.93 154.15,123.93 155.59,123.93 157.04,123.93 158.48,123.93 159.92,123.93 161.37,123.93 162.81,123.93 164.26,123.93 165.70,123.93 167.14,123.93 168.59,123.93 170.03,123.93 171.47,123.93 172.92,123.93 174.36,123.93 175.80,123.89 177.25,123.89 178.69,123.89 180.14,123.89 181.58,123.89 183.02,123.89 184.47,123.89 185.91,123.89 187.35,123.89 188.80,123.89 190.24,123.89 191.68,123.89 193.13,123.89 194.57,123.89 196.02,123.89 197.46,123.87 198.90,123.59 200.35,123.52 201.79,123.40 203.23,123.25 204.68,123.21 206.12,123.21 207.56,123.21 209.01,122.97 210.45,122.95 211.89,122.80 213.34,122.74 214.78,122.65 216.23,122.27 217.67,122.25 219.11,122.20 220.56,122.18 222.00,122.13 223.44,122.13 224.89,122.11 226.33,122.11 227.77,122.11 229.22,122.11 230.66,122.11 232.11,122.11 233.55,122.11 234.99,121.99 236.44,121.65 237.88,121.39 239.32,121.31 240.77,121.15 242.21,121.14 243.65,121.12 245.10,121.11 246.54,121.11 247.98,121.11 249.43,121.03 250.87,120.96 252.32,120.94 253.76,120.92 255.20,120.89 256.65,120.65 258.09,120.48 259.53,120.22 260.98,120.06 262.42,119.94 263.86,119.88 265.31,119.82 266.75,119.81 268.20,119.75 269.64,119.59 271.08,119.59 272.53,119.59 273.97,119.58 275.41,119.57 276.86,119.57 278.30,119.49 279.74,119.46 281.19,119.45 282.63,119.44 284.08,119.42 285.52,119.42 286.96,119.42 288.41,119.42 289.85,119.42 291.29,119.42 292.74,119.42 294.18,119.42 295.62,119.39 297.07,119.36 298.51,119.36 299.95,119.16 301.40,119.15 302.84,119.14 304.29,119.11 305.73,119.01 307.17,118.78 308.62,118.73 310.06,118.73 311.50,118.73 312.95,118.73 314.39,118.73 315.83,118.73 317.28,118.73 318.72,118.73 320.17,118.73 321.61,118.73 323.05,118.73 324.50,118.73 325.94,118.73 327.38,118.72 328.83,118.66 330.27,118.65 331.71,118.65 333.16,118.65 334.60,118.65 336.05,118.60 337.49,118.60 338.93,118.43 340.38,118.27 341.82,118.27 343.26,118.27 344.71,118.27 346.15,118.27 347.59,118.25 349.04,118.25 350.48,118.23 351.92,118.15 353.37,118.09 354.81,117.80 356.26,117.79 357.70,117.35 359.14,117.09 360.59,116.90 362.03,116.28 363.47,116.12 364.92,116.06 366.36,115.85 367.80,115.54 369.25,115.47 370.69,115.36 372.14,115.19 373.58,115.04 375.02,114.97 376.47,114.86 377.91,114.79 379.35,114.59 380.80,114.42 382.24,114.22 383.68,113.89 385.13,113.69 386.57,112.73 388.02,112.01 389.46,111.55 390.90,111.15 392.35,110.71 393.79,110.71 395.23,110.71 396.68,110.71 398.12,110.43 399.56,110.27 401.01,109.69 402.45,109.04 403.89,108.27 405.34,107.12 406.78,106.32 408.23,104.66 409.67,103.66 411.11,103.00 412.56,101.92 414.00,101.23 415.44,99.87 416.89,97.80 418.33,97.18 419.77,96.37 421.22,95.60 422.66,95.34 424.11,94.35 425.55,94.18 426.99,93.00 428.44,91.92 429.88,91.28 431.32,90.55 432.77,89.58 434.21,89.32 435.65,89.23 437.10,89.13 438.54,89.06 439.98,88.45 441.43,87.65 442.87,86.69 444.32,86.42 445.76,85.63 447.20,84.62 448.65,82.61 450.09,81.13 451.53,79.30 452.98,78.82 454.42,77.85 455.86,76.05 457.31,75.03 458.75,74.47 460.20,73.69 461.64,73.17 463.08,72.43 464.53,72.09 465.97,71.34 467.41,69.91 468.86,68.33 470.30,67.84 471.74,66.95 473.19,65.31 474.63,64.48 476.08,62.44 477.52,61.48 478.96,59.71 480.41,57.99 481.85,55.92 483.29,52.80 484.74,50.74 486.18,48.96 487.62,47.82 489.07,46.35 490.51,45.03 491.95,44.38 493.40,43.31 494.84,42.01 496.29,41.28 497.73,40.16 499.17,39.31 500.62,38.50 502.06,37.29 503.50,35.07 504.95,33.30 506.39,31.81 507.83,30.57 509.28,30.12" />
    </svg>
  