
    <svg width="540" height="160" xmlns="http://www.w3.org/2000/svg">
      <style>.line{fill:none;stroke:#388bfd;stroke-width:1.5}.axis{stroke:#555;stroke-width:1;opacity:0.5}.label{fill:#999;font-family:sans-serif;font-size:10px;text-anchor:middle}</style>
      <line class="axis" x1="30" y1="30" x2="30" y2="130" />
      <line class="axis" x1="30" y1="130" x2="510" y2="130" />
      <text class="label" x="15" y="30">8,419</text>
      <text class="label" x="15" y="134">0</text>
      <text class="label" x="30" y="148">2021</text>
      <text class="label" x="510" y="148">2026</text>
      <polyline class="line" points="30.00,129.98 31.47,129.96 32.95,129.95 34.42,129.95 35.90,129.95 37.37,129.80 38.85,129.80 40.32,129.80 41.80,128.94 43.27,127.53 44.75,127.46 46.22,127.46 47.70,127.46 49.17,127.46 50.65,127.46 52.12,127.46 53.59,127.46 55.07,127.46 56.54,127.46 58.02,127.46 59.49,127.46 60.97,127.46 62.44,127.46 63.92,127.46 65.39,127.46 66.87,127.46 68.34,127.46 69.82,126.65 71.29,126.65 72.76,126.64 74.24,126.64 75.71,126.64 77.19,126.64 78.66,126.59 80.14,126.59 81.61,126.59 83.09,126.59 84.56,126.59 86.04,126.59 87.51,126.59 88.99,126.59 90.46,126.59 91.94,126.59 93.41,126.59 94.88,126.59 96.36,126.59 97.83,126.59 99.31,126.59 100.78,126.59 102.26,126.59 103.73,126.59 105.21,126.54 106.68,125.82 108.16,125.15 109.63,124.88 111.11,123.56 112.58,123.56 114.06,123.56 115.53,123.56 117.00,123.56 118.48,123.56 119.95,123.56 121.43,123.56 122.90,123.56 124.38,123.56 125.85,123.56 127.33,123.56 128.80,123.47 130.28,123.47 131.75,123.47 133.23,123.35 134.70,123.35 136.18,123.35 137.65,123.35 139.12,123.31 140.60,123.31 142.07,123.31 143.55,123.31 145.02,123.29 146.50,123.29 147.97,123.29 149.45,123.29 150.92,123.29 152.40,123.29 153.87,123.29 155.35,123.29 156.82,123.29 158.29,123.29 159.77,123.29 161.24,123.29 162.72,123.29 164.19,123.29 165.67,123.29 167.14,123.29 168.62,123.29 170.09,123.29 171.57,123.29 173.04,123.29 174.52,123.29 175.99,123.29 177.47,123.29 178.94,123.25 180.41,123.25 181.89,123.25 183.36,123.25 184.84,123.25 186.31,123.25 187.79,123.25 189.26,123.25 190.74,123.25 192.21,123.25 193.69,123.25 195.16,123.25 196.64,123.25 198.11,123.25 199.59,123.25 201.06,123.23 202.53,122.92 204.01,122.84 205.48,122.71 206.96,122.54 208.43,122.49 209.91,122.49 211.38,122.49 212.86,122.23 214.33,122.21 215.81,122.04 217.28,121.98 218.76,121.88 220.23,121.46 221.71,121.44 223.18,121.38 224.65,121.36 226.13,121.31 227.60,121.31 229.08,121.28 230.55,121.28 232.03,121.28 233.50,121.28 234.98,121.28 236.45,121.28 237.93,121.28 239.40,121.15 240.88,120.77 242.35,120.49 243.82,120.40 245.30,120.22 246.77,120.21 248.25,120.19 249.72,120.18 251.20,120.18 252.67,120.18 254.15,120.09 255.62,120.01 257.10,119.99 258.57,119.96 260.05,119.94 261.52,119.67 263.00,119.48 264.47,119.19 265.94,119.01 267.42,118.88 268.89,118.82 270.37,118.75 271.84,118.74 273.32,118.68 274.79,118.50 276.27,118.50 277.74,118.50 279.22,118.49 280.69,118.48 282.17,118.48 283.64,118.38 285.12,118.36 286.59,118.35 288.06,118.34 289.54,118.31 291.01,118.31 292.49,118.31 293.96,118.31 295.44,118.31 296.91,118.31 298.39,118.31 299.86,118.31 301.34,118.28 302.81,118.24 304.29,118.24 305.76,118.03 307.24,118.02 308.71,118.00 310.18,117.97 311.66,117.86 313.13,117.60 314.61,117.55 316.08,117.55 317.56,117.55 319.03,117.55 320.51,117.55 321.98,117.55 323.46,117.55 324.93,117.55 326.41,117.55 327.88,117.55 329.35,117.55 330.83,117.55 332.30,117.55 333.78,117.54 335.25,117.47 336.73,117.46 338.20,117.46 339.68,117.46 341.15,117.46 342.63,117.41 344.10,117.41 345.58,117.22 347.05,117.04 348.53,117.04 350.00,117.04 351.47,117.04 352.95,117.04 354.42,117.02 355.90,117.02 357.37,116.99 358.85,116.91 360.32,116.84 361.80,116.52 363.27,116.51 364.75,116.02 366.22,115.73 367.70,115.52 369.17,114.84 370.65,114.67 372.12,114.59 373.59,114.37 375.07,114.02 376.54,113.94 378.02,113.82 379.49,113.63 380.97,113.47 382.44,113.39 383.92,113.28 385.39,113.19 386.87,112.98 388.34,112.79 389.82,112.56 391.29,112.20 392.76,111.98 394.24,110.92 395.71,110.13 397.19,109.62 398.66,109.18 400.14,108.69 401.61,108.69 403.09,108.69 404.56,108.69 406.04,108.38 407.51,108.20 408.99,107.56 410.46,106.84 411.94,105.99 413.41,104.72 414.88,103.83 416.36,102.00 417.83,100.90 419.31,100.16 420.78,98.97 422.26,98.21 423.73,96.71 425.21,94.43 426.68,93.74 428.16,92.85 429.63,91.99 431.11,91.71 432.58,90.61 434.06,90.42 435.53,89.12 437.00,87.93 438.48,87.22 439.95,86.41 441.43,85.34 442.90,85.05 444.38,84.96 445.85,84.84 447.33,84.77 448.80,84.09 450.28,83.21 451.75,82.14 453.23,81.85 454.70,80.98 456.18,79.86 457.65,77.64 459.12,76.00 460.60,73.98 462.07,73.45 463.55,72.38 465.02,70.40 466.50,69.27 467.97,68.65 469.45,67.78 470.92,67.21 472.40,66.39 473.87,66.01 475.35,65.18 476.82,63.60 478.29,61.86 479.77,61.32 481.24,60.34 482.72,58.53 484.19,57.60 485.67,55.36 487.14,54.29 488.62,52.34 490.09,50.44 491.57,48.15 493.04,44.70 494.52,42.42 495.99,40.46 497.47,39.21 498.94,37.58 500.41,36.12 501.89,35.40 503.36,34.22 504.84,32.78 506.31,32.22 507.79,31.16 509.26,30.26" />
    </svg>
  