
    <svg width="540" height="160" xmlns="http://www.w3.org/2000/svg">
      <style>.line{fill:none;stroke:#388bfd;stroke-width:1.5}.axis{stroke:#555;stroke-width:1;opacity:0.5}.label{fill:#999;font-family:sans-serif;font-size:10px;text-anchor:middle}</style>
      <line class="axis" x1="30" y1="30" x2="30" y2="130" />
      <line class="axis" x1="30" y1="130" x2="510" y2="130" />
      <text class="label" x="15" y="30">4,963</text>
      <text class="label" x="15" y="134">0</text>
      <text class="label" x="30" y="148">2021</text>
      <text class="label" x="510" y="148">2026</text>
      <polyline class="line" points="30.00,129.96 31.53,129.94 33.05,129.92 34.58,129.92 36.10,129.92 37.63,129.66 39.16,129.66 40.68,129.66 42.21,128.21 43.74,125.81 45.26,125.69 46.79,125.69 48.31,125.69 49.84,125.69 51.37,125.69 52.89,125.69 54.42,125.69 55.95,125.69 57.47,125.69 59.00,125.69 60.52,125.69 62.05,125.69 63.58,125.69 65.10,125.69 66.63,125.69 68.16,125.69 69.68,125.69 71.21,124.32 72.73,124.32 74.26,124.30 75.79,124.30 77.31,124.30 78.84,124.30 80.37,124.22 81.89,124.22 83.42,124.22 84.94,124.22 86.47,124.22 88.00,124.22 89.52,124.22 91.05,124.22 92.58,124.22 94.10,124.22 95.63,124.22 97.15,124.22 98.68,124.22 100.21,124.22 101.73,124.22 103.26,124.22 104.79,124.22 106.31,124.22 107.84,124.14 109.36,122.91 110.89,121.78 112.42,121.32 113.94,119.08 115.47,119.08 117.00,119.08 118.52,119.08 120.05,119.08 121.57,119.08 123.10,119.08 124.63,119.08 126.15,119.08 127.68,119.08 129.21,119.08 130.73,119.08 132.26,118.92 133.78,118.92 135.31,118.92 136.84,118.72 138.36,118.72 139.89,118.72 141.41,118.72 142.94,118.66 144.47,118.66 145.99,118.66 147.52,118.66 149.05,118.62 150.57,118.62 152.10,118.62 153.62,118.62 155.15,118.62 156.68,118.62 158.20,118.62 159.73,118.62 161.26,118.62 162.78,118.62 164.31,118.62 165.83,118.62 167.36,118.62 168.89,118.62 170.41,118.62 171.94,118.62 173.47,118.62 174.99,118.62 176.52,118.62 178.04,118.62 179.57,118.62 181.10,118.62 182.62,118.62 184.15,118.56 185.68,118.56 187.20,118.56 188.73,118.56 190.25,118.56 191.78,118.56 193.31,118.56 194.83,118.56 196.36,118.56 197.89,118.56 199.41,118.56 200.94,118.56 202.46,118.56 203.99,118.56 205.52,118.56 207.04,118.52 208.57,117.99 210.10,117.85 211.62,117.63 213.15,117.35 214.67,117.27 216.20,117.27 217.73,117.27 219.25,116.82 220.78,116.78 222.31,116.50 223.83,116.40 225.36,116.22 226.88,115.51 228.41,115.47 229.94,115.37 231.46,115.35 232.99,115.25 234.52,115.25 236.04,115.21 237.57,115.21 239.09,115.21 240.62,115.21 242.15,115.21 243.67,115.21 245.20,115.21 246.72,114.99 248.25,114.34 249.78,113.86 251.30,113.72 252.83,113.42 254.36,113.40 255.88,113.36 257.41,113.34 258.93,113.34 260.46,113.34 261.99,113.20 263.51,113.05 265.04,113.01 266.57,112.97 268.09,112.93 269.62,112.47 271.14,112.15 272.67,111.66 274.20,111.36 275.72,111.14 277.25,111.04 278.78,110.92 280.30,110.90 281.83,110.80 283.35,110.50 284.88,110.50 286.41,110.50 287.93,110.48 289.46,110.46 290.99,110.46 292.51,110.29 294.04,110.25 295.56,110.23 297.09,110.21 298.62,110.17 300.14,110.17 301.67,110.17 303.20,110.17 304.72,110.17 306.25,110.17 307.77,110.17 309.30,110.17 310.83,110.11 312.35,110.05 313.88,110.05 315.41,109.69 316.93,109.67 318.46,109.65 319.98,109.59 321.51,109.41 323.04,108.96 324.56,108.88 326.09,108.88 327.62,108.88 329.14,108.88 330.67,108.88 332.19,108.88 333.72,108.88 335.25,108.88 336.77,108.88 338.30,108.88 339.83,108.88 341.35,108.88 342.88,108.88 344.40,108.86 345.93,108.74 347.46,108.72 348.98,108.72 350.51,108.72 352.03,108.72 353.56,108.64 355.09,108.64 356.61,108.32 358.14,108.02 359.67,108.02 361.19,108.02 362.72,108.02 364.24,108.02 365.77,107.98 367.30,107.98 368.82,107.94 370.35,107.80 371.88,107.67 373.40,107.13 374.93,107.11 376.45,106.28 377.98,105.80 379.51,105.44 381.03,104.29 382.56,103.99 384.09,103.87 385.61,103.48 387.14,102.90 388.66,102.76 390.19,102.56 391.72,102.23 393.24,101.95 394.77,101.83 396.30,101.63 397.82,101.49 399.35,101.13 400.87,100.80 402.40,100.42 403.93,99.80 405.45,99.43 406.98,97.64 408.51,96.29 410.03,95.42 411.56,94.68 413.08,93.85 414.61,93.85 416.14,93.85 417.66,93.85 419.19,93.33 420.72,93.03 422.24,92.36 423.77,91.60 425.29,90.55 426.82,88.90 428.35,87.97 429.87,86.28 431.40,85.29 432.93,84.66 434.45,83.64 435.98,82.83 437.50,81.46 439.03,79.47 440.56,78.88 442.08,78.04 443.61,77.31 445.14,77.07 446.66,76.14 448.19,75.98 449.71,74.87 451.24,73.86 452.77,73.26 454.29,72.55 455.82,71.59 457.34,71.31 458.87,71.16 460.40,71.02 461.92,70.90 463.45,70.14 464.98,69.27 466.50,67.90 468.03,67.50 469.55,66.79 471.08,65.64 472.61,63.08 474.13,61.15 475.66,58.99 477.19,58.53 478.71,57.58 480.24,55.67 481.76,54.50 483.29,53.86 484.82,52.89 486.34,52.39 487.87,51.68 489.40,51.36 490.92,50.27 492.45,48.64 493.97,47.09 495.50,46.62 497.03,45.82 498.55,44.37 500.08,43.28 501.61,41.67 503.13,40.84 504.66,39.19 506.18,36.99 507.71,35.12 509.24,31.15" />
    </svg>
  