
    <svg width="540" height="160" xmlns="http://www.w3.org/2000/svg">
      <style>.line{fill:none;stroke:#388bfd;stroke-width:1.5}.axis{stroke:#555;stroke-width:1;opacity:0.5}.label{fill:#999;font-family:sans-serif;font-size:10px;text-anchor:middle}</style>
      <line class="axis" x1="30" y1="30" x2="30" y2="130" />
      <line class="axis" x1="30" y1="130" x2="510" y2="130" />
      <text class="label" x="15" y="30">9,501</text>
      <text class="label" x="15" y="134">0</text>
      <text class="label" x="30" y="148">2021</text>
      <text class="label" x="510" y="148">2026</text>
      <polyline class="line" points="30.00,129.98 31.43,129.97 32.86,129.96 34.29,129.96 35.72,129.96 37.15,129.82 38.58,129.82 40.01,129.82 41.44,129.06 42.87,127.81 44.30,127.75 45.73,127.75 47.16,127.75 48.59,127.75 50.02,127.75 51.45,127.75 52.88,127.75 54.31,127.75 55.74,127.75 57.17,127.75 58.60,127.75 60.03,127.75 61.46,127.75 62.89,127.75 64.32,127.75 65.75,127.75 67.18,127.75 68.61,127.03 70.04,127.03 71.47,127.02 72.90,127.02 74.33,127.02 75.76,127.02 77.19,126.98 78.62,126.98 80.05,126.98 81.48,126.98 82.91,126.98 84.34,126.98 85.77,126.98 87.20,126.98 88.63,126.98 90.06,126.98 91.49,126.98 92.92,126.98 94.35,126.98 95.78,126.98 97.21,126.98 98.64,126.98 100.07,126.98 101.50,126.98 102.93,126.94 104.36,126.30 105.79,125.71 107.22,125.46 108.65,124.30 110.08,124.30 111.51,124.30 112.94,124.30 114.37,124.30 115.80,124.30 117.23,124.30 118.66,124.30 120.09,124.30 121.52,124.30 122.95,124.30 124.38,124.30 125.81,124.21 127.24,124.21 128.67,124.21 130.10,124.11 131.53,124.11 132.96,124.11 134.39,124.11 135.82,124.07 137.25,124.07 138.68,124.07 140.11,124.07 141.54,124.05 142.97,124.05 144.40,124.05 145.83,124.05 147.26,124.05 148.69,124.05 150.12,124.05 151.55,124.05 152.98,124.05 154.41,124.05 155.84,124.05 157.27,124.05 158.70,124.05 160.13,124.05 161.56,124.05 162.99,124.05 164.42,124.05 165.85,124.05 167.28,124.05 168.71,124.05 170.14,124.05 171.57,124.05 173.00,124.05 174.43,124.02 175.86,124.02 177.29,124.02 178.72,124.02 180.15,124.02 181.58,124.02 183.01,124.02 184.44,124.02 185.87,124.02 187.30,124.02 188.73,124.02 190.16,124.02 191.59,124.02 193.02,124.02 194.45,124.02 195.88,124.00 197.31,123.73 198.74,123.65 200.17,123.54 201.60,123.39 203.03,123.35 204.46,123.35 205.89,123.35 207.32,123.12 208.75,123.10 210.18,122.95 211.61,122.90 213.04,122.80 214.47,122.43 215.90,122.41 217.33,122.36 218.76,122.35 220.19,122.30 221.62,122.30 223.05,122.27 224.48,122.27 225.91,122.27 227.34,122.27 228.77,122.27 230.20,122.27 231.63,122.27 233.06,122.16 234.49,121.82 235.92,121.57 237.35,121.50 238.78,121.34 240.21,121.33 241.64,121.31 243.07,121.30 244.50,121.30 245.93,121.30 247.36,121.22 248.79,121.15 250.22,121.13 251.65,121.11 253.08,121.09 254.51,120.84 255.94,120.67 257.37,120.42 258.80,120.26 260.23,120.15 261.66,120.10 263.09,120.03 264.52,120.02 265.95,119.97 267.38,119.81 268.81,119.81 270.24,119.81 271.67,119.80 273.10,119.79 274.53,119.79 275.96,119.71 277.39,119.69 278.82,119.67 280.25,119.66 281.68,119.64 283.11,119.64 284.54,119.64 285.97,119.64 287.40,119.64 288.83,119.64 290.26,119.64 291.69,119.64 293.12,119.61 294.55,119.58 295.98,119.58 297.41,119.39 298.84,119.38 300.27,119.37 301.70,119.34 303.13,119.24 304.56,119.01 305.99,118.97 307.42,118.97 308.85,118.97 310.28,118.97 311.71,118.97 313.14,118.97 314.57,118.97 316.00,118.97 317.43,118.97 318.86,118.97 320.29,118.97 321.72,118.97 323.15,118.97 324.58,118.96 326.01,118.90 327.44,118.89 328.87,118.89 330.30,118.89 331.73,118.89 333.16,118.84 334.59,118.84 336.02,118.67 337.45,118.52 338.88,118.52 340.31,118.52 341.74,118.52 343.17,118.52 344.60,118.50 346.03,118.50 347.46,118.47 348.89,118.40 350.32,118.34 351.75,118.05 353.18,118.04 354.61,117.61 356.04,117.36 357.47,117.17 358.90,116.57 360.33,116.41 361.76,116.35 363.19,116.15 364.62,115.84 366.05,115.77 367.48,115.66 368.91,115.50 370.34,115.35 371.77,115.29 373.20,115.18 374.63,115.11 376.06,114.92 377.49,114.75 378.92,114.55 380.35,114.22 381.78,114.03 383.21,113.10 384.64,112.39 386.07,111.94 387.50,111.55 388.93,111.12 390.36,111.12 391.79,111.12 393.22,111.12 394.65,110.84 396.08,110.69 397.51,110.12 398.94,109.48 400.37,108.73 401.80,107.60 403.23,106.81 404.66,105.19 406.09,104.21 407.52,103.56 408.95,102.51 410.38,101.83 411.81,100.50 413.24,98.48 414.67,97.87 416.10,97.08 417.53,96.32 418.96,96.07 420.39,95.10 421.82,94.93 423.25,93.77 424.68,92.72 426.11,92.09 427.54,91.37 428.97,90.43 430.40,90.17 431.83,90.09 433.26,89.98 434.69,89.92 436.12,89.32 437.55,88.54 438.98,87.59 440.41,87.33 441.84,86.56 443.27,85.57 444.70,83.60 446.13,82.15 447.56,80.36 448.99,79.89 450.42,78.94 451.85,77.18 453.28,76.18 454.71,75.64 456.14,74.87 457.57,74.36 459.00,73.64 460.43,73.30 461.86,72.56 463.29,71.16 464.72,69.62 466.15,69.14 467.58,68.27 469.01,66.67 470.44,65.85 471.87,63.86 473.30,62.91 474.73,61.19 476.16,59.50 477.59,57.47 479.02,54.42 480.45,52.40 481.88,50.66 483.31,49.55 484.74,48.10 486.17,46.81 487.60,46.18 489.03,45.12 490.46,43.85 491.89,43.14 493.32,42.04 494.75,41.21 496.18,40.42 497.61,39.23 499.04,37.06 500.47,35.33 501.90,33.86 503.33,32.65 504.76,32.21 506.19,31.64 507.62,31.18 509.05,30.65" />
    </svg>
  