
    <svg width="540" height="160" xmlns="http://www.w3.org/2000/svg">
      <style>.line{fill:none;stroke:#388bfd;stroke-width:1.5}.axis{stroke:#555;stroke-width:1;opacity:0.5}.label{fill:#999;font-family:sans-serif;font-size:10px;text-anchor:middle}</style>
      <line class="axis" x1="30" y1="30" x2="30" y2="130" />
      <line class="axis" x1="30" y1="130" x2="510" y2="130" />
      <text class="label" x="15" y="30">11,367</text>
      <text class="label" x="15" y="134">0</text>
      <text class="label" x="30" y="148">2021</text>
      <text class="label" x="510" y="148">2026</text>
      <polyline class="line" points="30.00,129.98 31.39,129.97 32.79,129.96 34.18,129.96 35.57,129.96 36.96,129.85 38.36,129.85 39.75,129.85 41.14,129.22 42.53,128.17 43.93,128.12 45.32,128.12 46.71,128.12 48.10,128.12 49.50,128.12 50.89,128.12 52.28,128.12 53.68,128.12 55.07,128.12 56.46,128.12 57.85,128.12 59.25,128.12 60.64,128.12 62.03,128.12 63.42,128.12 64.82,128.12 66.21,128.12 67.60,127.52 68.99,127.52 70.39,127.51 71.78,127.51 73.17,127.51 74.56,127.51 75.96,127.48 77.35,127.48 78.74,127.48 80.14,127.48 81.53,127.48 82.92,127.48 84.31,127.48 85.71,127.48 87.10,127.48 88.49,127.48 89.88,127.48 91.28,127.48 92.67,127.48 94.06,127.48 95.45,127.48 96.85,127.48 98.24,127.48 99.63,127.48 101.03,127.44 102.42,126.90 103.81,126.41 105.20,126.21 106.60,125.23 107.99,125.23 109.38,125.23 110.77,125.23 112.17,125.23 113.56,125.23 114.95,125.23 116.34,125.23 117.74,125.23 119.13,125.23 120.52,125.23 121.91,125.23 123.31,125.16 124.70,125.16 126.09,125.16 127.49,125.07 128.88,125.07 130.27,125.07 131.66,125.07 133.06,125.05 134.45,125.05 135.84,125.05 137.23,125.05 138.63,125.03 140.02,125.03 141.41,125.03 142.80,125.03 144.20,125.03 145.59,125.03 146.98,125.03 148.38,125.03 149.77,125.03 151.16,125.03 152.55,125.03 153.95,125.03 155.34,125.03 156.73,125.03 158.12,125.03 159.52,125.03 160.91,125.03 162.30,125.03 163.69,125.03 165.09,125.03 166.48,125.03 167.87,125.03 169.26,125.03 170.66,125.00 172.05,125.00 173.44,125.00 174.84,125.00 176.23,125.00 177.62,125.00 179.01,125.00 180.41,125.00 181.80,125.00 183.19,125.00 184.58,125.00 185.98,125.00 187.37,125.00 188.76,125.00 190.15,125.00 191.55,124.99 192.94,124.76 194.33,124.70 195.73,124.60 197.12,124.48 198.51,124.44 199.90,124.44 201.30,124.44 202.69,124.25 204.08,124.23 205.47,124.11 206.87,124.06 208.26,123.98 209.65,123.67 211.04,123.66 212.44,123.61 213.83,123.60 215.22,123.56 216.62,123.56 218.01,123.54 219.40,123.54 220.79,123.54 222.19,123.54 223.58,123.54 224.97,123.54 226.36,123.54 227.76,123.45 229.15,123.16 230.54,122.95 231.93,122.89 233.33,122.76 234.72,122.75 236.11,122.73 237.50,122.72 238.90,122.72 240.29,122.72 241.68,122.66 243.08,122.60 244.47,122.58 245.86,122.57 247.25,122.55 248.65,122.35 250.04,122.21 251.43,121.99 252.82,121.86 254.22,121.77 255.61,121.72 257.00,121.67 258.39,121.66 259.79,121.62 261.18,121.48 262.57,121.48 263.97,121.48 265.36,121.48 266.75,121.47 268.14,121.47 269.54,121.40 270.93,121.38 272.32,121.37 273.71,121.36 275.11,121.34 276.50,121.34 277.89,121.34 279.28,121.34 280.68,121.34 282.07,121.34 283.46,121.34 284.85,121.34 286.25,121.32 287.64,121.29 289.03,121.29 290.43,121.13 291.82,121.12 293.21,121.11 294.60,121.09 296.00,121.01 297.39,120.82 298.78,120.78 300.17,120.78 301.57,120.78 302.96,120.78 304.35,120.78 305.74,120.78 307.14,120.78 308.53,120.78 309.92,120.78 311.32,120.78 312.71,120.78 314.10,120.78 315.49,120.78 316.89,120.77 318.28,120.72 319.67,120.71 321.06,120.71 322.46,120.71 323.85,120.71 325.24,120.67 326.63,120.67 328.03,120.53 329.42,120.40 330.81,120.40 332.21,120.40 333.60,120.40 334.99,120.40 336.38,120.38 337.78,120.38 339.17,120.37 340.56,120.31 341.95,120.25 343.35,120.01 344.74,120.01 346.13,119.65 347.52,119.43 348.92,119.28 350.31,118.77 351.70,118.64 353.09,118.59 354.49,118.42 355.88,118.17 357.27,118.11 358.67,118.02 360.06,117.88 361.45,117.75 362.84,117.70 364.24,117.61 365.63,117.55 367.02,117.39 368.41,117.25 369.81,117.09 371.20,116.81 372.59,116.65 373.98,115.87 375.38,115.28 376.77,114.90 378.16,114.58 379.56,114.22 380.95,114.22 382.34,114.22 383.73,114.22 385.13,113.99 386.52,113.86 387.91,113.38 389.30,112.85 390.70,112.22 392.09,111.28 393.48,110.62 394.87,109.26 396.27,108.45 397.66,107.90 399.05,107.02 400.44,106.46 401.84,105.34 403.23,103.65 404.62,103.14 406.02,102.48 407.41,101.85 408.80,101.64 410.19,100.83 411.59,100.69 412.98,99.72 414.37,98.84 415.76,98.31 417.16,97.71 418.55,96.92 419.94,96.71 421.33,96.64 422.73,96.55 424.12,96.50 425.51,96.00 426.91,95.35 428.30,94.56 429.69,94.34 431.08,93.69 432.48,92.87 433.87,91.22 435.26,90.01 436.65,88.51 438.05,88.12 439.44,87.32 440.83,85.85 442.22,85.02 443.62,84.56 445.01,83.92 446.40,83.50 447.79,82.89 449.19,82.61 450.58,81.99 451.97,80.82 453.37,79.53 454.76,79.13 456.15,78.40 457.54,77.07 458.94,76.38 460.33,74.72 461.72,73.93 463.11,72.48 464.51,71.08 465.90,69.38 467.29,66.83 468.68,64.98 470.08,63.53 471.47,62.47 472.86,61.27 474.26,60.14 475.65,59.46 477.04,58.27 478.43,56.83 479.83,56.15 481.22,54.76 482.61,52.80 484.00,50.96 485.40,49.75 486.79,47.71 488.18,46.06 489.57,44.61 490.97,43.32 492.36,42.62 493.75,41.18 495.15,40.03 496.54,38.73 497.93,36.69 499.32,35.68 500.72,34.55 502.11,33.85 503.50,33.85 504.89,33.01 506.29,32.23 507.68,31.52 509.07,30.48" />
    </svg>
  