
    <svg width="540" height="160" xmlns="http://www.w3.org/2000/svg">
      <style>.line{fill:none;stroke:#388bfd;stroke-width:1.5}.axis{stroke:#555;stroke-width:1;opacity:0.5}.label{fill:#999;font-family:sans-serif;font-size:10px;text-anchor:middle}</style>
      <line class="axis" x1="30" y1="30" x2="30" y2="130" />
      <line class="axis" x1="30" y1="130" x2="510" y2="130" />
      <text class="label" x="15" y="30">5,114</text>
      <text class="label" x="15" y="134">0</text>
      <text class="label" x="30" y="148">2021</text>
      <text class="label" x="510" y="148">2026</text>
      <polyline class="line" points="30.00,129.96 31.52,129.94 33.04,129.92 34.56,129.92 36.08,129.92 37.59,129.67 39.11,129.67 40.63,129.67 42.15,128.26 43.67,125.93 45.19,125.82 46.71,125.82 48.23,125.82 49.75,125.82 51.27,125.82 52.78,125.82 54.30,125.82 55.82,125.82 57.34,125.82 58.86,125.82 60.38,125.82 61.90,125.82 63.42,125.82 64.94,125.82 66.46,125.82 67.97,125.82 69.49,125.82 71.01,124.49 72.53,124.49 74.05,124.47 75.57,124.47 77.09,124.47 78.61,124.47 80.13,124.39 81.65,124.39 83.16,124.39 84.68,124.39 86.20,124.39 87.72,124.39 89.24,124.39 90.76,124.39 92.28,124.39 93.80,124.39 95.32,124.39 96.84,124.39 98.35,124.39 99.87,124.39 101.39,124.39 102.91,124.39 104.43,124.39 105.95,124.39 107.47,124.31 108.99,123.12 110.51,122.02 112.03,121.57 113.54,119.40 115.06,119.40 116.58,119.40 118.10,119.40 119.62,119.40 121.14,119.40 122.66,119.40 124.18,119.40 125.70,119.40 127.22,119.40 128.73,119.40 130.25,119.40 131.77,119.25 133.29,119.25 134.81,119.25 136.33,119.05 137.85,119.05 139.37,119.05 140.89,119.05 142.41,118.99 143.92,118.99 145.44,118.99 146.96,118.99 148.48,118.95 150.00,118.95 151.52,118.95 153.04,118.95 154.56,118.95 156.08,118.95 157.59,118.95 159.11,118.95 160.63,118.95 162.15,118.95 163.67,118.95 165.19,118.95 166.71,118.95 168.23,118.95 169.75,118.95 171.27,118.95 172.78,118.95 174.30,118.95 175.82,118.95 177.34,118.95 178.86,118.95 180.38,118.95 181.90,118.95 183.42,118.89 184.94,118.89 186.46,118.89 187.97,118.89 189.49,118.89 191.01,118.89 192.53,118.89 194.05,118.89 195.57,118.89 197.09,118.89 198.61,118.89 200.13,118.89 201.65,118.89 203.16,118.89 204.68,118.89 206.20,118.85 207.72,118.35 209.24,118.21 210.76,117.99 212.28,117.72 213.80,117.64 215.32,117.64 216.84,117.64 218.35,117.21 219.87,117.17 221.39,116.90 222.91,116.80 224.43,116.62 225.95,115.94 227.47,115.90 228.99,115.80 230.51,115.78 232.03,115.69 233.54,115.69 235.06,115.65 236.58,115.65 238.10,115.65 239.62,115.65 241.14,115.65 242.66,115.65 244.18,115.65 245.70,115.43 247.22,114.81 248.73,114.34 250.25,114.20 251.77,113.91 253.29,113.89 254.81,113.85 256.33,113.83 257.85,113.83 259.37,113.83 260.89,113.69 262.41,113.55 263.92,113.52 265.44,113.48 266.96,113.44 268.48,112.99 270.00,112.68 271.52,112.21 273.04,111.91 274.56,111.70 276.08,111.60 277.59,111.48 279.11,111.46 280.63,111.36 282.15,111.07 283.67,111.07 285.19,111.07 286.71,111.05 288.23,111.03 289.75,111.03 291.27,110.88 292.78,110.84 294.30,110.82 295.82,110.80 297.34,110.76 298.86,110.76 300.38,110.76 301.90,110.76 303.42,110.76 304.94,110.76 306.46,110.76 307.97,110.76 309.49,110.70 311.01,110.64 312.53,110.64 314.05,110.29 315.57,110.27 317.09,110.25 318.61,110.19 320.13,110.02 321.65,109.59 323.16,109.51 324.68,109.51 326.20,109.51 327.72,109.51 329.24,109.51 330.76,109.51 332.28,109.51 333.80,109.51 335.32,109.51 336.84,109.51 338.35,109.51 339.87,109.51 341.39,109.51 342.91,109.49 344.43,109.37 345.95,109.35 347.47,109.35 348.99,109.35 350.51,109.35 352.03,109.27 353.54,109.27 355.06,108.96 356.58,108.67 358.10,108.67 359.62,108.67 361.14,108.67 362.66,108.67 364.18,108.63 365.70,108.63 367.22,108.59 368.73,108.45 370.25,108.33 371.77,107.81 373.29,107.79 374.81,106.98 376.33,106.52 377.85,106.16 379.37,105.05 380.89,104.76 382.41,104.64 383.92,104.27 385.44,103.70 386.96,103.56 388.48,103.37 390.00,103.05 391.52,102.78 393.04,102.66 394.56,102.47 396.08,102.33 397.59,101.98 399.11,101.67 400.63,101.29 402.15,100.69 403.67,100.34 405.19,98.60 406.71,97.29 408.23,96.45 409.75,95.72 411.27,94.92 412.78,94.92 414.30,94.92 415.82,94.92 417.34,94.41 418.86,94.12 420.38,93.47 421.90,92.73 423.42,91.71 424.94,90.11 426.46,89.21 427.97,87.57 429.49,86.61 431.01,86.00 432.53,85.01 434.05,84.22 435.57,82.89 437.09,80.96 438.61,80.39 440.13,79.57 441.65,78.87 443.16,78.63 444.68,77.73 446.20,77.58 447.72,76.50 449.24,75.52 450.76,74.94 452.28,74.25 453.80,73.31 455.32,73.04 456.84,72.90 458.35,72.76 459.87,72.65 461.39,71.90 462.91,71.06 464.43,69.73 465.95,69.34 467.47,68.66 468.99,67.54 470.51,65.06 472.03,63.18 473.54,61.09 475.06,60.64 476.58,59.72 478.10,57.86 479.62,56.73 481.14,56.10 482.66,55.17 484.18,54.68 485.70,53.99 487.22,53.68 488.73,52.62 490.25,51.04 491.77,49.53 493.29,49.08 494.81,48.30 496.33,46.89 497.85,45.84 499.37,44.27 500.89,43.47 502.41,41.87 503.92,39.74 505.44,37.92 506.96,34.07 508.48,31.35 510.00,30.00" />
    </svg>
  