
    <svg width="540" height="160" xmlns="http://www.w3.org/2000/svg">
      <style>.line{fill:none;stroke:#388bfd;stroke-width:1.5}.axis{stroke:#555;stroke-width:1;opacity:0.5}.label{fill:#999;font-family:sans-serif;font-size:10px;text-anchor:middle}</style>
      <line class="axis" x1="30" y1="30" x2="30" y2="130" />
      <line class="axis" x1="30" y1="130" x2="510" y2="130" />
      <text class="label" x="15" y="30">7,812</text>
      <text class="label" x="15" y="134">0</text>
      <text class="label" x="30" y="148">2021</text>
      <text class="label" x="510" y="148">2026</text>
      <polyline class="line" points="30.00,129.97 31.49,129.96 32.98,129.95 34.47,129.95 35.97,129.95 37.46,129.78 38.95,129.78 40.44,129.78 41.93,128.86 43.42,127.34 44.91,127.26 46.41,127.26 47.90,127.26 49.39,127.26 50.88,127.26 52.37,127.26 53.86,127.26 55.35,127.26 56.85,127.26 58.34,127.26 59.83,127.26 61.32,127.26 62.81,127.26 64.30,127.26 65.79,127.26 67.29,127.26 68.78,127.26 70.27,126.39 71.76,126.39 73.25,126.38 74.74,126.38 76.24,126.38 77.73,126.38 79.22,126.33 80.71,126.33 82.20,126.33 83.69,126.33 85.18,126.33 86.68,126.33 88.17,126.33 89.66,126.33 91.15,126.33 92.64,126.33 94.13,126.33 95.62,126.33 97.12,126.33 98.61,126.33 100.10,126.33 101.59,126.33 103.08,126.33 104.57,126.33 106.06,126.27 107.56,125.49 109.05,124.78 110.54,124.48 112.03,123.06 113.52,123.06 115.01,123.06 116.50,123.06 118.00,123.06 119.49,123.06 120.98,123.06 122.47,123.06 123.96,123.06 125.45,123.06 126.94,123.06 128.44,123.06 129.93,122.96 131.42,122.96 132.91,122.96 134.40,122.83 135.89,122.83 137.38,122.83 138.88,122.83 140.37,122.79 141.86,122.79 143.35,122.79 144.84,122.79 146.33,122.77 147.82,122.77 149.32,122.77 150.81,122.77 152.30,122.77 153.79,122.77 155.28,122.77 156.77,122.77 158.27,122.77 159.76,122.77 161.25,122.77 162.74,122.77 164.23,122.77 165.72,122.77 167.21,122.77 168.71,122.77 170.20,122.77 171.69,122.77 173.18,122.77 174.67,122.77 176.16,122.77 177.65,122.77 179.15,122.77 180.64,122.73 182.13,122.73 183.62,122.73 185.11,122.73 186.60,122.73 188.09,122.73 189.59,122.73 191.08,122.73 192.57,122.73 194.06,122.73 195.55,122.73 197.04,122.73 198.53,122.73 200.03,122.73 201.52,122.73 203.01,122.70 204.50,122.37 205.99,122.28 207.48,122.14 208.97,121.96 210.47,121.91 211.96,121.91 213.45,121.91 214.94,121.63 216.43,121.60 217.92,121.42 219.41,121.36 220.91,121.24 222.40,120.80 223.89,120.77 225.38,120.71 226.87,120.69 228.36,120.63 229.85,120.63 231.35,120.60 232.84,120.60 234.33,120.60 235.82,120.60 237.31,120.60 238.80,120.60 240.30,120.60 241.79,120.46 243.28,120.05 244.77,119.75 246.26,119.66 247.75,119.46 249.24,119.45 250.74,119.43 252.23,119.41 253.72,119.41 255.21,119.41 256.70,119.32 258.19,119.23 259.68,119.21 261.18,119.18 262.67,119.16 264.16,118.86 265.65,118.66 267.14,118.35 268.63,118.16 270.12,118.02 271.62,117.95 273.11,117.88 274.60,117.86 276.09,117.80 277.58,117.61 279.07,117.61 280.56,117.61 282.06,117.60 283.55,117.58 285.04,117.58 286.53,117.48 288.02,117.46 289.51,117.44 291.00,117.43 292.50,117.40 293.99,117.40 295.48,117.40 296.97,117.40 298.46,117.40 299.95,117.40 301.44,117.40 302.94,117.40 304.43,117.37 305.92,117.33 307.41,117.33 308.90,117.10 310.39,117.08 311.89,117.07 313.38,117.03 314.87,116.92 316.36,116.64 317.85,116.58 319.34,116.58 320.83,116.58 322.33,116.58 323.82,116.58 325.31,116.58 326.80,116.58 328.29,116.58 329.78,116.58 331.27,116.58 332.77,116.58 334.26,116.58 335.75,116.58 337.24,116.57 338.73,116.50 340.22,116.48 341.71,116.48 343.21,116.48 344.70,116.48 346.19,116.43 347.68,116.43 349.17,116.23 350.66,116.03 352.15,116.03 353.65,116.03 355.14,116.03 356.63,116.03 358.12,116.01 359.61,116.01 361.10,115.98 362.59,115.89 364.09,115.82 365.58,115.47 367.07,115.46 368.56,114.93 370.05,114.63 371.54,114.40 373.03,113.67 374.53,113.47 376.02,113.40 377.51,113.15 379.00,112.78 380.49,112.69 381.98,112.57 383.47,112.36 384.97,112.18 386.46,112.10 387.95,111.98 389.44,111.89 390.93,111.66 392.42,111.45 393.92,111.21 395.41,110.81 396.90,110.58 398.39,109.44 399.88,108.58 401.37,108.03 402.86,107.56 404.36,107.04 405.85,107.04 407.34,107.04 408.83,107.04 410.32,106.70 411.81,106.51 413.30,105.82 414.80,105.04 416.29,104.13 417.78,102.76 419.27,101.80 420.76,99.83 422.25,98.64 423.74,97.84 425.24,96.56 426.73,95.75 428.22,94.12 429.71,91.66 431.20,90.92 432.69,89.96 434.18,89.04 435.68,88.73 437.17,87.55 438.66,87.35 440.15,85.94 441.64,84.66 443.13,83.89 444.62,83.02 446.12,81.87 447.61,81.56 449.10,81.46 450.59,81.33 452.08,81.25 453.57,80.52 455.06,79.58 456.56,78.43 458.05,78.11 459.54,77.17 461.03,75.97 462.52,73.57 464.01,71.81 465.50,69.63 467.00,69.06 468.49,67.90 469.98,65.77 471.47,64.55 472.96,63.88 474.45,62.95 475.95,62.33 477.44,61.45 478.93,61.04 480.42,60.15 481.91,58.44 483.40,56.56 484.89,55.99 486.39,55.01 487.88,53.45 489.37,52.53 490.86,50.66 492.35,49.67 493.84,47.75 495.33,45.81 496.83,43.76 498.32,40.29 499.81,38.18 501.30,36.16 502.79,35.03 504.28,33.37 505.77,31.95 507.27,31.46 508.76,30.68" />
    </svg>
  