
    <svg width="540" height="160" xmlns="http://www.w3.org/2000/svg">
      <style>.line{fill:none;stroke:#388bfd;stroke-width:1.5}.axis{stroke:#555;stroke-width:1;opacity:0.5}.label{fill:#999;font-family:sans-serif;font-size:10px;text-anchor:middle}</style>
      <line class="axis" x1="30" y1="30" x2="30" y2="130" />
      <line class="axis" x1="30" y1="130" x2="510" y2="130" />
      <text class="label" x="15" y="30">5,104</text>
      <text class="label" x="15" y="134">0</text>
      <text class="label" x="30" y="148">2021</text>
      <text class="label" x="510" y="148">2026</text>
      <polyline class="line" points="30.00,129.96 31.52,129.94 33.04,129.92 34.56,129.92 36.09,129.92 37.61,129.67 39.13,129.67 40.65,129.67 42.17,128.26 43.69,125.92 45.21,125.81 46.74,125.81 48.26,125.81 49.78,125.81 51.30,125.81 52.82,125.81 54.34,125.81 55.86,125.81 57.39,125.81 58.91,125.81 60.43,125.81 61.95,125.81 63.47,125.81 64.99,125.81 66.51,125.81 68.03,125.81 69.56,125.81 71.08,124.47 72.60,124.47 74.12,124.46 75.64,124.46 77.16,124.46 78.68,124.46 80.21,124.38 81.73,124.38 83.25,124.38 84.77,124.38 86.29,124.38 87.81,124.38 89.33,124.38 90.86,124.38 92.38,124.38 93.90,124.38 95.42,124.38 96.94,124.38 98.46,124.38 99.98,124.38 101.51,124.38 103.03,124.38 104.55,124.38 106.07,124.38 107.59,124.30 109.11,123.10 110.63,122.01 112.16,121.56 113.68,119.38 115.20,119.38 116.72,119.38 118.24,119.38 119.76,119.38 121.28,119.38 122.81,119.38 124.33,119.38 125.85,119.38 127.37,119.38 128.89,119.38 130.41,119.38 131.93,119.22 133.45,119.22 134.98,119.22 136.50,119.03 138.02,119.03 139.54,119.03 141.06,119.03 142.58,118.97 144.10,118.97 145.63,118.97 147.15,118.97 148.67,118.93 150.19,118.93 151.71,118.93 153.23,118.93 154.75,118.93 156.28,118.93 157.80,118.93 159.32,118.93 160.84,118.93 162.36,118.93 163.88,118.93 165.40,118.93 166.93,118.93 168.45,118.93 169.97,118.93 171.49,118.93 173.01,118.93 174.53,118.93 176.05,118.93 177.58,118.93 179.10,118.93 180.62,118.93 182.14,118.93 183.66,118.87 185.18,118.87 186.70,118.87 188.23,118.87 189.75,118.87 191.27,118.87 192.79,118.87 194.31,118.87 195.83,118.87 197.35,118.87 198.87,118.87 200.40,118.87 201.92,118.87 203.44,118.87 204.96,118.87 206.48,118.83 208.00,118.32 209.52,118.19 211.05,117.97 212.57,117.70 214.09,117.62 215.61,117.62 217.13,117.62 218.65,117.19 220.17,117.15 221.70,116.87 223.22,116.78 224.74,116.60 226.26,115.91 227.78,115.87 229.30,115.78 230.82,115.76 232.35,115.66 233.87,115.66 235.39,115.62 236.91,115.62 238.43,115.62 239.95,115.62 241.47,115.62 243.00,115.62 244.52,115.62 246.04,115.40 247.56,114.78 249.08,114.31 250.60,114.17 252.12,113.88 253.65,113.86 255.17,113.82 256.69,113.80 258.21,113.80 259.73,113.80 261.25,113.66 262.77,113.52 264.29,113.48 265.82,113.44 267.34,113.41 268.86,112.95 270.38,112.64 271.90,112.17 273.42,111.88 274.94,111.66 276.47,111.56 277.99,111.45 279.51,111.43 281.03,111.33 282.55,111.03 284.07,111.03 285.59,111.03 287.12,111.01 288.64,111.00 290.16,111.00 291.68,110.84 293.20,110.80 294.72,110.78 296.24,110.76 297.77,110.72 299.29,110.72 300.81,110.72 302.33,110.72 303.85,110.72 305.37,110.72 306.89,110.72 308.42,110.72 309.94,110.66 311.46,110.60 312.98,110.60 314.50,110.25 316.02,110.23 317.54,110.21 319.06,110.15 320.59,109.98 322.11,109.55 323.63,109.47 325.15,109.47 326.67,109.47 328.19,109.47 329.71,109.47 331.24,109.47 332.76,109.47 334.28,109.47 335.80,109.47 337.32,109.47 338.84,109.47 340.36,109.47 341.89,109.47 343.41,109.45 344.93,109.33 346.45,109.31 347.97,109.31 349.49,109.31 351.01,109.31 352.54,109.23 354.06,109.23 355.58,108.92 357.10,108.62 358.62,108.62 360.14,108.62 361.66,108.62 363.19,108.62 364.71,108.59 366.23,108.59 367.75,108.55 369.27,108.41 370.79,108.29 372.31,107.76 373.84,107.74 375.36,106.94 376.88,106.47 378.40,106.12 379.92,105.00 381.44,104.71 382.96,104.59 384.48,104.22 386.01,103.65 387.53,103.51 389.05,103.32 390.57,103.00 392.09,102.73 393.61,102.61 395.13,102.41 396.66,102.28 398.18,101.92 399.70,101.61 401.22,101.24 402.74,100.63 404.26,100.28 405.78,98.53 407.31,97.22 408.83,96.38 410.35,95.65 411.87,94.85 413.39,94.85 414.91,94.85 416.43,94.85 417.96,94.34 419.48,94.05 421.00,93.40 422.52,92.66 424.04,91.64 425.56,90.03 427.08,89.13 428.61,87.48 430.13,86.52 431.65,85.92 433.17,84.92 434.69,84.13 436.21,82.80 437.73,80.86 439.26,80.29 440.78,79.47 442.30,78.77 443.82,78.53 445.34,77.63 446.86,77.47 448.38,76.39 449.90,75.42 451.43,74.83 452.95,74.14 454.47,73.20 455.99,72.93 457.51,72.79 459.03,72.65 460.55,72.54 462.08,71.79 463.60,70.95 465.12,69.62 466.64,69.22 468.16,68.54 469.68,67.42 471.20,64.93 472.73,63.05 474.25,60.96 475.77,60.51 477.29,59.58 478.81,57.72 480.33,56.59 481.85,55.96 483.38,55.02 484.90,54.53 486.42,53.84 487.94,53.53 489.46,52.47 490.98,50.89 492.50,49.38 494.03,48.93 495.55,48.14 497.07,46.73 498.59,45.67 500.11,44.11 501.63,43.30 503.15,41.70 504.68,39.56 506.20,37.74 507.72,33.88 509.24,31.16" />
    </svg>
  