
    <svg width="540" height="160" xmlns="http://www.w3.org/2000/svg">
      <style>.line{fill:none;stroke:#388bfd;stroke-width:1.5}.axis{stroke:#555;stroke-width:1;opacity:0.5}.label{fill:#999;font-family:sans-serif;font-size:10px;text-anchor:middle}</style>
      <line class="axis" x1="30" y1="30" x2="30" y2="130" />
      <line class="axis" x1="30" y1="130" x2="510" y2="130" />
      <text class="label" x="15" y="30">7,818</text>
      <text class="label" x="15" y="134">0</text>
      <text class="label" x="30" y="148">2021</text>
      <text class="label" x="510" y="148">2026</text>
      <polyline class="line" points="30.00,129.97 31.49,129.96 32.98,129.95 34.47,129.95 35.97,129.95 37.46,129.78 38.95,129.78 40.44,129.78 41.93,128.86 43.42,127.34 44.91,127.26 46.41,127.26 47.90,127.26 49.39,127.26 50.88,127.26 52.37,127.26 53.86,127.26 55.35,127.26 56.85,127.26 58.34,127.26 59.83,127.26 61.32,127.26 62.81,127.26 64.30,127.26 65.79,127.26 67.29,127.26 68.78,127.26 70.27,126.39 71.76,126.39 73.25,126.38 74.74,126.38 76.24,126.38 77.73,126.38 79.22,126.33 80.71,126.33 82.20,126.33 83.69,126.33 85.18,126.33 86.68,126.33 88.17,126.33 89.66,126.33 91.15,126.33 92.64,126.33 94.13,126.33 95.62,126.33 97.12,126.33 98.61,126.33 100.10,126.33 101.59,126.33 103.08,126.33 104.57,126.33 106.06,126.28 107.56,125.50 109.05,124.78 110.54,124.49 112.03,123.07 113.52,123.07 115.01,123.07 116.50,123.07 118.00,123.07 119.49,123.07 120.98,123.07 122.47,123.07 123.96,123.07 125.45,123.07 126.94,123.07 128.44,123.07 129.93,122.96 131.42,122.96 132.91,122.96 134.40,122.84 135.89,122.84 137.38,122.84 138.88,122.84 140.37,122.80 141.86,122.80 143.35,122.80 144.84,122.80 146.33,122.77 147.82,122.77 149.32,122.77 150.81,122.77 152.30,122.77 153.79,122.77 155.28,122.77 156.77,122.77 158.27,122.77 159.76,122.77 161.25,122.77 162.74,122.77 164.23,122.77 165.72,122.77 167.21,122.77 168.71,122.77 170.20,122.77 171.69,122.77 173.18,122.77 174.67,122.77 176.16,122.77 177.65,122.77 179.15,122.77 180.64,122.73 182.13,122.73 183.62,122.73 185.11,122.73 186.60,122.73 188.09,122.73 189.59,122.73 191.08,122.73 192.57,122.73 194.06,122.73 195.55,122.73 197.04,122.73 198.53,122.73 200.03,122.73 201.52,122.73 203.01,122.71 204.50,122.38 205.99,122.29 207.48,122.15 208.97,121.97 210.47,121.92 211.96,121.92 213.45,121.92 214.94,121.63 216.43,121.61 217.92,121.43 219.41,121.37 220.91,121.25 222.40,120.80 223.89,120.78 225.38,120.71 226.87,120.70 228.36,120.64 229.85,120.64 231.35,120.61 232.84,120.61 234.33,120.61 235.82,120.61 237.31,120.61 238.80,120.61 240.30,120.61 241.79,120.47 243.28,120.06 244.77,119.75 246.26,119.66 247.75,119.47 249.24,119.46 250.74,119.43 252.23,119.42 253.72,119.42 255.21,119.42 256.70,119.33 258.19,119.24 259.68,119.22 261.18,119.19 262.67,119.17 264.16,118.87 265.65,118.67 267.14,118.36 268.63,118.17 270.12,118.03 271.62,117.96 273.11,117.89 274.60,117.87 276.09,117.81 277.58,117.62 279.07,117.62 280.56,117.62 282.06,117.61 283.55,117.59 285.04,117.59 286.53,117.49 288.02,117.46 289.51,117.45 291.00,117.44 292.50,117.41 293.99,117.41 295.48,117.41 296.97,117.41 298.46,117.41 299.95,117.41 301.44,117.41 302.94,117.41 304.43,117.38 305.92,117.34 307.41,117.34 308.90,117.11 310.39,117.09 311.89,117.08 313.38,117.04 314.87,116.93 316.36,116.65 317.85,116.60 319.34,116.60 320.83,116.60 322.33,116.60 323.82,116.60 325.31,116.60 326.80,116.60 328.29,116.60 329.78,116.60 331.27,116.60 332.77,116.60 334.26,116.60 335.75,116.60 337.24,116.58 338.73,116.51 340.22,116.49 341.71,116.49 343.21,116.49 344.70,116.49 346.19,116.44 347.68,116.44 349.17,116.24 350.66,116.05 352.15,116.05 353.65,116.05 355.14,116.05 356.63,116.05 358.12,116.02 359.61,116.02 361.10,115.99 362.59,115.90 364.09,115.83 365.58,115.48 367.07,115.47 368.56,114.94 370.05,114.64 371.54,114.41 373.03,113.68 374.53,113.49 376.02,113.41 377.51,113.17 379.00,112.80 380.49,112.71 381.98,112.58 383.47,112.37 384.97,112.19 386.46,112.12 387.95,111.99 389.44,111.90 390.93,111.67 392.42,111.47 393.92,111.22 395.41,110.83 396.90,110.60 398.39,109.46 399.88,108.60 401.37,108.05 402.86,107.58 404.36,107.05 405.85,107.05 407.34,107.05 408.83,107.05 410.32,106.72 411.81,106.53 413.30,105.84 414.80,105.06 416.29,104.15 417.78,102.78 419.27,101.82 420.76,99.85 422.25,98.66 423.74,97.87 425.24,96.59 426.73,95.77 428.22,94.15 429.71,91.69 431.20,90.95 432.69,89.99 434.18,89.07 435.68,88.76 437.17,87.59 438.66,87.38 440.15,85.97 441.64,84.69 443.13,83.93 444.62,83.06 446.12,81.91 447.61,81.60 449.10,81.50 450.59,81.37 452.08,81.29 453.57,80.56 455.06,79.62 456.56,78.47 458.05,78.15 459.54,77.21 461.03,76.01 462.52,73.62 464.01,71.85 465.50,69.68 467.00,69.10 468.49,67.95 469.98,65.81 471.47,64.60 472.96,63.93 474.45,63.00 475.95,62.39 477.44,61.50 478.93,61.09 480.42,60.20 481.91,58.50 483.40,56.62 484.89,56.04 486.39,55.07 487.88,53.51 489.37,52.59 490.86,50.72 492.35,49.74 493.84,47.82 495.33,45.87 496.83,43.83 498.32,40.36 499.81,38.25 501.30,36.23 502.79,35.10 504.28,33.44 505.77,32.02 507.27,31.53 508.76,30.75" />
    </svg>
  