
    <svg width="540" height="160" xmlns="http://www.w3.org/2000/svg">
      <style>.line{fill:none;stroke:#388bfd;stroke-width:1.5}.axis{stroke:#555;stroke-width:1;opacity:0.5}.label{fill:#999;font-family:sans-serif;font-size:10px;text-anchor:middle}</style>
      <line class="axis" x1="30" y1="30" x2="30" y2="130" />
      <line class="axis" x1="30" y1="130" x2="510" y2="130" />
      <text class="label" x="15" y="30">8,409</text>
      <text class="label" x="15" y="134">0</text>
      <text class="label" x="30" y="148">2021</text>
      <text class="label" x="510" y="148">2026</text>
      <polyline class="line" points="30.00,129.98 31.48,129.96 32.95,129.95 34.43,129.95 35.90,129.95 37.38,129.80 38.85,129.80 40.33,129.80 41.80,128.94 43.28,127.53 44.75,127.46 46.23,127.46 47.70,127.46 49.18,127.46 50.66,127.46 52.13,127.46 53.61,127.46 55.08,127.46 56.56,127.46 58.03,127.46 59.51,127.46 60.98,127.46 62.46,127.46 63.93,127.46 65.41,127.46 66.89,127.46 68.36,127.46 69.84,126.65 71.31,126.65 72.79,126.63 74.26,126.63 75.74,126.63 77.21,126.63 78.69,126.59 80.16,126.59 81.64,126.59 83.11,126.59 84.59,126.59 86.07,126.59 87.54,126.59 89.02,126.59 90.49,126.59 91.97,126.59 93.44,126.59 94.92,126.59 96.39,126.59 97.87,126.59 99.34,126.59 100.82,126.59 102.30,126.59 103.77,126.59 105.25,126.54 106.72,125.81 108.20,125.15 109.67,124.87 111.15,123.55 112.62,123.55 114.10,123.55 115.57,123.55 117.05,123.55 118.52,123.55 120.00,123.55 121.48,123.55 122.95,123.55 124.43,123.55 125.90,123.55 127.38,123.55 128.85,123.46 130.33,123.46 131.80,123.46 133.28,123.34 134.75,123.34 136.23,123.34 137.70,123.34 139.18,123.30 140.66,123.30 142.13,123.30 143.61,123.30 145.08,123.28 146.56,123.28 148.03,123.28 149.51,123.28 150.98,123.28 152.46,123.28 153.93,123.28 155.41,123.28 156.89,123.28 158.36,123.28 159.84,123.28 161.31,123.28 162.79,123.28 164.26,123.28 165.74,123.28 167.21,123.28 168.69,123.28 170.16,123.28 171.64,123.28 173.11,123.28 174.59,123.28 176.07,123.28 177.54,123.28 179.02,123.25 180.49,123.25 181.97,123.25 183.44,123.25 184.92,123.25 186.39,123.25 187.87,123.25 189.34,123.25 190.82,123.25 192.30,123.25 193.77,123.25 195.25,123.25 196.72,123.25 198.20,123.25 199.67,123.25 201.15,123.22 202.62,122.91 204.10,122.83 205.57,122.70 207.05,122.53 208.52,122.48 210.00,122.48 211.48,122.48 212.95,122.22 214.43,122.20 215.90,122.03 217.38,121.97 218.85,121.87 220.33,121.45 221.80,121.43 223.28,121.37 224.75,121.35 226.23,121.30 227.70,121.30 229.18,121.27 230.66,121.27 232.13,121.27 233.61,121.27 235.08,121.27 236.56,121.27 238.03,121.27 239.51,121.14 240.98,120.76 242.46,120.47 243.93,120.39 245.41,120.21 246.89,120.20 248.36,120.18 249.84,120.17 251.31,120.17 252.79,120.17 254.26,120.08 255.74,120.00 257.21,119.98 258.69,119.95 260.16,119.93 261.64,119.65 263.11,119.46 264.59,119.18 266.07,119.00 267.54,118.87 269.02,118.81 270.49,118.74 271.97,118.73 273.44,118.67 274.92,118.49 276.39,118.49 277.87,118.49 279.34,118.48 280.82,118.46 282.30,118.46 283.77,118.37 285.25,118.35 286.72,118.33 288.20,118.32 289.67,118.30 291.15,118.30 292.62,118.30 294.10,118.30 295.57,118.30 297.05,118.30 298.52,118.30 300.00,118.30 301.48,118.26 302.95,118.23 304.43,118.23 305.90,118.01 307.38,118.00 308.85,117.99 310.33,117.95 311.80,117.85 313.28,117.58 314.75,117.54 316.23,117.54 317.70,117.54 319.18,117.54 320.66,117.54 322.13,117.54 323.61,117.54 325.08,117.54 326.56,117.54 328.03,117.54 329.51,117.54 330.98,117.54 332.46,117.54 333.93,117.53 335.41,117.45 336.89,117.44 338.36,117.44 339.84,117.44 341.31,117.44 342.79,117.39 344.26,117.39 345.74,117.20 347.21,117.03 348.69,117.03 350.16,117.03 351.64,117.03 353.11,117.03 354.59,117.00 356.07,117.00 357.54,116.98 359.02,116.89 360.49,116.82 361.97,116.50 363.44,116.49 364.92,116.00 366.39,115.72 367.87,115.50 369.34,114.83 370.82,114.65 372.30,114.58 373.77,114.35 375.25,114.01 376.72,113.92 378.20,113.80 379.67,113.61 381.15,113.45 382.62,113.37 384.10,113.26 385.57,113.17 387.05,112.96 388.52,112.77 390.00,112.54 391.48,112.17 392.95,111.96 394.43,110.90 395.90,110.10 397.38,109.59 398.85,109.15 400.33,108.67 401.80,108.67 403.28,108.67 404.75,108.67 406.23,108.36 407.70,108.18 409.18,107.54 410.66,106.81 412.13,105.97 413.61,104.69 415.08,103.80 416.56,101.97 418.03,100.86 419.51,100.13 420.98,98.94 422.46,98.18 423.93,96.67 425.41,94.38 426.89,93.69 428.36,92.80 429.84,91.95 431.31,91.66 432.79,90.57 434.26,90.38 435.74,89.07 437.21,87.88 438.69,87.16 440.16,86.36 441.64,85.29 443.11,85.00 444.59,84.91 446.07,84.79 447.54,84.72 449.02,84.04 450.49,83.16 451.97,82.09 453.44,81.79 454.92,80.92 456.39,79.80 457.87,77.58 459.34,75.94 460.82,73.92 462.30,73.38 463.77,72.31 465.25,70.33 466.72,69.20 468.20,68.58 469.67,67.71 471.15,67.14 472.62,66.32 474.10,65.94 475.57,65.11 477.05,63.52 478.52,61.78 480.00,61.24 481.48,60.25 482.95,58.45 484.43,57.52 485.90,55.27 487.38,54.20 488.85,52.25 490.33,50.35 491.80,48.05 493.28,44.60 494.75,42.32 496.23,40.36 497.70,39.10 499.18,37.47 500.66,36.01 502.13,35.29 503.61,34.10 505.08,32.66 506.56,32.10 508.03,31.05 509.51,30.14" />
    </svg>
  