
    <svg width="540" height="160" xmlns="http://www.w3.org/2000/svg">
      <style>.line{fill:none;stroke:#388bfd;stroke-width:1.5}.axis{stroke:#555;stroke-width:1;opacity:0.5}.label{fill:#999;font-family:sans-serif;font-size:10px;text-anchor:middle}</style>
      <line class="axis" x1="30" y1="30" x2="30" y2="130" />
      <line class="axis" x1="30" y1="130" x2="510" y2="130" />
      <text class="label" x="15" y="30">8,740</text>
      <text class="label" x="15" y="134">0</text>
      <text class="label" x="30" y="148">2021</text>
      <text class="label" x="510" y="148">2026</text>
      <polyline class="line" points="30.00,129.98 31.46,129.97 32.93,129.95 34.39,129.95 35.85,129.95 37.31,129.81 38.78,129.81 40.24,129.81 41.70,128.98 43.16,127.62 44.63,127.55 46.09,127.55 47.55,127.55 49.01,127.55 50.48,127.55 51.94,127.55 53.40,127.55 54.87,127.55 56.33,127.55 57.79,127.55 59.25,127.55 60.72,127.55 62.18,127.55 63.64,127.55 65.10,127.55 66.57,127.55 68.03,127.55 69.49,126.77 70.95,126.77 72.42,126.76 73.88,126.76 75.34,126.76 76.81,126.76 78.27,126.72 79.73,126.72 81.19,126.72 82.66,126.72 84.12,126.72 85.58,126.72 87.04,126.72 88.51,126.72 89.97,126.72 91.43,126.72 92.89,126.72 94.36,126.72 95.82,126.72 97.28,126.72 98.75,126.72 100.21,126.72 101.67,126.72 103.13,126.72 104.60,126.67 106.06,125.97 107.52,125.33 108.98,125.07 110.45,123.80 111.91,123.80 113.37,123.80 114.83,123.80 116.30,123.80 117.76,123.80 119.22,123.80 120.69,123.80 122.15,123.80 123.61,123.80 125.07,123.80 126.54,123.80 128.00,123.71 129.46,123.71 130.92,123.71 132.39,123.59 133.85,123.59 135.31,123.59 136.78,123.59 138.24,123.56 139.70,123.56 141.16,123.56 142.63,123.56 144.09,123.54 145.55,123.54 147.01,123.54 148.48,123.54 149.94,123.54 151.40,123.54 152.86,123.54 154.33,123.54 155.79,123.54 157.25,123.54 158.72,123.54 160.18,123.54 161.64,123.54 163.10,123.54 164.57,123.54 166.03,123.54 167.49,123.54 168.95,123.54 170.42,123.54 171.88,123.54 173.34,123.54 174.80,123.54 176.27,123.54 177.73,123.50 179.19,123.50 180.66,123.50 182.12,123.50 183.58,123.50 185.04,123.50 186.51,123.50 187.97,123.50 189.43,123.50 190.89,123.50 192.36,123.50 193.82,123.50 195.28,123.50 196.74,123.50 198.21,123.50 199.67,123.48 201.13,123.18 202.60,123.10 204.06,122.97 205.52,122.81 206.98,122.77 208.45,122.77 209.91,122.77 211.37,122.52 212.83,122.49 214.30,122.33 215.76,122.28 217.22,122.17 218.68,121.77 220.15,121.75 221.61,121.69 223.07,121.68 224.54,121.62 226.00,121.62 227.46,121.60 228.92,121.60 230.39,121.60 231.85,121.60 233.31,121.60 234.77,121.60 236.24,121.60 237.70,121.48 239.16,121.11 240.62,120.84 242.09,120.76 243.55,120.58 245.01,120.57 246.48,120.55 247.94,120.54 249.40,120.54 250.86,120.54 252.33,120.46 253.79,120.38 255.25,120.35 256.71,120.33 258.18,120.31 259.64,120.05 261.10,119.86 262.56,119.59 264.03,119.42 265.49,119.29 266.95,119.23 268.42,119.16 269.88,119.15 271.34,119.10 272.80,118.92 274.27,118.92 275.73,118.92 277.19,118.91 278.65,118.90 280.12,118.90 281.58,118.81 283.04,118.79 284.50,118.78 285.97,118.76 287.43,118.74 288.89,118.74 290.36,118.74 291.82,118.74 293.28,118.74 294.74,118.74 296.21,118.74 297.67,118.74 299.13,118.71 300.59,118.67 302.06,118.67 303.52,118.47 304.98,118.46 306.44,118.44 307.91,118.41 309.37,118.31 310.83,118.05 312.30,118.01 313.76,118.01 315.22,118.01 316.68,118.01 318.15,118.01 319.61,118.01 321.07,118.01 322.53,118.01 324.00,118.01 325.46,118.01 326.92,118.01 328.38,118.01 329.85,118.01 331.31,118.00 332.77,117.93 334.24,117.92 335.70,117.92 337.16,117.92 338.62,117.92 340.09,117.87 341.55,117.87 343.01,117.69 344.47,117.52 345.94,117.52 347.40,117.52 348.86,117.52 350.33,117.52 351.79,117.49 353.25,117.49 354.71,117.47 356.18,117.39 357.64,117.32 359.10,117.01 360.56,117.00 362.03,116.53 363.49,116.26 364.95,116.05 366.41,115.40 367.88,115.23 369.34,115.16 370.80,114.94 372.27,114.61 373.73,114.53 375.19,114.42 376.65,114.23 378.12,114.07 379.58,114.00 381.04,113.89 382.50,113.81 383.97,113.60 385.43,113.42 386.89,113.20 388.35,112.85 389.82,112.64 391.28,111.62 392.74,110.86 394.21,110.37 395.67,109.94 397.13,109.47 398.59,109.47 400.06,109.47 401.52,109.47 402.98,109.18 404.44,109.00 405.91,108.39 407.37,107.69 408.83,106.88 410.29,105.65 411.76,104.79 413.22,103.03 414.68,101.97 416.15,101.26 417.61,100.11 419.07,99.38 420.53,97.93 422.00,95.73 423.46,95.07 424.92,94.21 426.38,93.39 427.85,93.11 429.31,92.06 430.77,91.88 432.23,90.62 433.70,89.47 435.16,88.79 436.62,88.01 438.09,86.98 439.55,86.70 441.01,86.61 442.47,86.50 443.94,86.43 445.40,85.78 446.86,84.93 448.32,83.90 449.79,83.62 451.25,82.78 452.71,81.70 454.17,79.57 455.64,77.99 457.10,76.04 458.56,75.53 460.03,74.50 461.49,72.59 462.95,71.50 464.41,70.90 465.88,70.07 467.34,69.52 468.80,68.73 470.26,68.36 471.73,67.56 473.19,66.04 474.65,64.36 476.11,63.84 477.58,62.89 479.04,61.16 480.50,60.26 481.97,58.10 483.43,57.07 484.89,55.19 486.35,53.36 487.82,51.16 489.28,47.84 490.74,45.64 492.20,43.75 493.67,42.54 495.13,40.97 496.59,39.57 498.05,38.88 499.52,37.73 500.98,36.35 502.44,35.81 503.91,34.79 505.37,33.92 506.83,33.07 508.29,31.96 509.76,30.00" />
    </svg>
  