
    <svg width="540" height="160" xmlns="http://www.w3.org/2000/svg">
      <style>.line{fill:none;stroke:#388bfd;stroke-width:1.5}.axis{stroke:#555;stroke-width:1;opacity:0.5}.label{fill:#999;font-family:sans-serif;font-size:10px;text-anchor:middle}</style>
      <line class="axis" x1="30" y1="30" x2="30" y2="130" />
      <line class="axis" x1="30" y1="130" x2="510" y2="130" />
      <text class="label" x="15" y="30">4,961</text>
      <text class="label" x="15" y="134">0</text>
      <text class="label" x="30" y="148">2021</text>
      <text class="label" x="510" y="148">2026</text>
      <polyline class="line" points="30.00,129.96 31.53,129.94 33.05,129.92 34.58,129.92 36.11,129.92 37.64,129.66 39.16,129.66 40.69,129.66 42.22,128.21 43.74,125.81 45.27,125.69 46.80,125.69 48.32,125.69 49.85,125.69 51.38,125.69 52.91,125.69 54.43,125.69 55.96,125.69 57.49,125.69 59.01,125.69 60.54,125.69 62.07,125.69 63.59,125.69 65.12,125.69 66.65,125.69 68.18,125.69 69.70,125.69 71.23,124.32 72.76,124.32 74.28,124.30 75.81,124.30 77.34,124.30 78.87,124.30 80.39,124.21 81.92,124.21 83.45,124.21 84.97,124.21 86.50,124.21 88.03,124.21 89.55,124.21 91.08,124.21 92.61,124.21 94.14,124.21 95.66,124.21 97.19,124.21 98.72,124.21 100.24,124.21 101.77,124.21 103.30,124.21 104.83,124.21 106.35,124.21 107.88,124.13 109.41,122.90 110.93,121.78 112.46,121.31 113.99,119.07 115.51,119.07 117.04,119.07 118.57,119.07 120.10,119.07 121.62,119.07 123.15,119.07 124.68,119.07 126.20,119.07 127.73,119.07 129.26,119.07 130.78,119.07 132.31,118.91 133.84,118.91 135.37,118.91 136.89,118.71 138.42,118.71 139.95,118.71 141.47,118.71 143.00,118.65 144.53,118.65 146.06,118.65 147.58,118.65 149.11,118.61 150.64,118.61 152.16,118.61 153.69,118.61 155.22,118.61 156.74,118.61 158.27,118.61 159.80,118.61 161.33,118.61 162.85,118.61 164.38,118.61 165.91,118.61 167.43,118.61 168.96,118.61 170.49,118.61 172.01,118.61 173.54,118.61 175.07,118.61 176.60,118.61 178.12,118.61 179.65,118.61 181.18,118.61 182.70,118.61 184.23,118.55 185.76,118.55 187.29,118.55 188.81,118.55 190.34,118.55 191.87,118.55 193.39,118.55 194.92,118.55 196.45,118.55 197.97,118.55 199.50,118.55 201.03,118.55 202.56,118.55 204.08,118.55 205.61,118.55 207.14,118.51 208.66,117.99 210.19,117.85 211.72,117.62 213.24,117.34 214.77,117.26 216.30,117.26 217.83,117.26 219.35,116.82 220.88,116.78 222.41,116.49 223.93,116.39 225.46,116.21 226.99,115.51 228.52,115.47 230.04,115.37 231.57,115.35 233.10,115.24 234.62,115.24 236.15,115.20 237.68,115.20 239.20,115.20 240.73,115.20 242.26,115.20 243.79,115.20 245.31,115.20 246.84,114.98 248.37,114.34 249.89,113.85 251.42,113.71 252.95,113.41 254.48,113.39 256.00,113.35 257.53,113.33 259.06,113.33 260.58,113.33 262.11,113.19 263.64,113.05 265.16,113.01 266.69,112.97 268.22,112.93 269.75,112.46 271.27,112.14 272.80,111.66 274.33,111.35 275.85,111.13 277.38,111.03 278.91,110.91 280.43,110.89 281.96,110.79 283.49,110.49 285.02,110.49 286.54,110.49 288.07,110.47 289.60,110.45 291.12,110.45 292.65,110.29 294.18,110.25 295.71,110.23 297.23,110.21 298.76,110.17 300.29,110.17 301.81,110.17 303.34,110.17 304.87,110.17 306.39,110.17 307.92,110.17 309.45,110.17 310.98,110.10 312.50,110.04 314.03,110.04 315.56,109.68 317.08,109.66 318.61,109.64 320.14,109.58 321.66,109.40 323.19,108.96 324.72,108.88 326.25,108.88 327.77,108.88 329.30,108.88 330.83,108.88 332.35,108.88 333.88,108.88 335.41,108.88 336.94,108.88 338.46,108.88 339.99,108.88 341.52,108.88 343.04,108.88 344.57,108.86 346.10,108.73 347.62,108.71 349.15,108.71 350.68,108.71 352.21,108.71 353.73,108.63 355.26,108.63 356.79,108.31 358.31,108.01 359.84,108.01 361.37,108.01 362.90,108.01 364.42,108.01 365.95,107.97 367.48,107.97 369.00,107.93 370.53,107.79 372.06,107.67 373.58,107.12 375.11,107.10 376.64,106.27 378.17,105.79 379.69,105.43 381.22,104.28 382.75,103.98 384.27,103.86 385.80,103.47 387.33,102.89 388.85,102.75 390.38,102.55 391.91,102.22 393.44,101.94 394.96,101.82 396.49,101.62 398.02,101.48 399.54,101.11 401.07,100.79 402.60,100.41 404.13,99.78 405.65,99.42 407.18,97.63 408.71,96.28 410.23,95.41 411.76,94.66 413.29,93.84 414.81,93.84 416.34,93.84 417.87,93.84 419.40,93.31 420.92,93.01 422.45,92.35 423.98,91.58 425.50,90.53 427.03,88.88 428.56,87.95 430.08,86.26 431.61,85.27 433.14,84.65 434.67,83.62 436.19,82.81 437.72,81.44 439.25,79.45 440.77,78.86 442.30,78.01 443.83,77.29 445.36,77.05 446.88,76.12 448.41,75.96 449.94,74.85 451.46,73.84 452.99,73.24 454.52,72.53 456.04,71.56 457.57,71.28 459.10,71.14 460.63,71.00 462.15,70.88 463.68,70.11 465.21,69.25 466.73,67.88 468.26,67.47 469.79,66.77 471.31,65.62 472.84,63.06 474.37,61.12 475.90,58.97 477.42,58.50 478.95,57.55 480.48,55.64 482.00,54.47 483.53,53.83 485.06,52.86 486.59,52.35 488.11,51.65 489.64,51.33 491.17,50.24 492.69,48.61 494.22,47.05 495.75,46.59 497.27,45.78 498.80,44.33 500.33,43.24 501.86,41.63 503.38,40.80 504.91,39.15 506.44,36.95 507.96,35.08 509.49,31.11" />
    </svg>
  