
    <svg width="540" height="160" xmlns="http://www.w3.org/2000/svg">
      <style>.line{fill:none;stroke:#388bfd;stroke-width:1.5}.axis{stroke:#555;stroke-width:1;opacity:0.5}.label{fill:#999;font-family:sans-serif;font-size:10px;text-anchor:middle}</style>
      <line class="axis" x1="30" y1="30" x2="30" y2="130" />
      <line class="axis" x1="30" y1="130" x2="510" y2="130" />
      <text class="label" x="15" y="30">9,297</text>
      <text class="label" x="15" y="134">0</text>
      <text class="label" x="30" y="148">2021</text>
      <text class="label" x="510" y="148">2026</text>
      <polyline class="line" points="30.00,129.98 31.44,129.97 32.89,129.96 34.33,129.96 35.77,129.96 37.22,129.82 38.66,129.82 40.11,129.82 41.55,129.04 42.99,127.76 44.44,127.70 45.88,127.70 47.32,127.70 48.77,127.70 50.21,127.70 51.65,127.70 53.10,127.70 54.54,127.70 55.98,127.70 57.43,127.70 58.87,127.70 60.32,127.70 61.76,127.70 63.20,127.70 64.65,127.70 66.09,127.70 67.53,127.70 68.98,126.97 70.42,126.97 71.86,126.96 73.31,126.96 74.75,126.96 76.20,126.96 77.64,126.91 79.08,126.91 80.53,126.91 81.97,126.91 83.41,126.91 84.86,126.91 86.30,126.91 87.74,126.91 89.19,126.91 90.63,126.91 92.08,126.91 93.52,126.91 94.96,126.91 96.41,126.91 97.85,126.91 99.29,126.91 100.74,126.91 102.18,126.91 103.62,126.87 105.07,126.21 106.51,125.61 107.95,125.36 109.40,124.17 110.84,124.17 112.29,124.17 113.73,124.17 115.17,124.17 116.62,124.17 118.06,124.17 119.50,124.17 120.95,124.17 122.39,124.17 123.83,124.17 125.28,124.17 126.72,124.08 128.17,124.08 129.61,124.08 131.05,123.98 132.50,123.98 133.94,123.98 135.38,123.98 136.83,123.94 138.27,123.94 139.71,123.94 141.16,123.94 142.60,123.92 144.05,123.92 145.49,123.92 146.93,123.92 148.38,123.92 149.82,123.92 151.26,123.92 152.71,123.92 154.15,123.92 155.59,123.92 157.04,123.92 158.48,123.92 159.92,123.92 161.37,123.92 162.81,123.92 164.26,123.92 165.70,123.92 167.14,123.92 168.59,123.92 170.03,123.92 171.47,123.92 172.92,123.92 174.36,123.92 175.80,123.89 177.25,123.89 178.69,123.89 180.14,123.89 181.58,123.89 183.02,123.89 184.47,123.89 185.91,123.89 187.35,123.89 188.80,123.89 190.24,123.89 191.68,123.89 193.13,123.89 194.57,123.89 196.02,123.89 197.46,123.87 198.90,123.59 200.35,123.51 201.79,123.40 203.23,123.25 204.68,123.20 206.12,123.20 207.56,123.20 209.01,122.97 210.45,122.94 211.89,122.79 213.34,122.74 214.78,122.64 216.23,122.27 217.67,122.24 219.11,122.19 220.56,122.18 222.00,122.13 223.44,122.13 224.89,122.10 226.33,122.10 227.77,122.10 229.22,122.10 230.66,122.10 232.11,122.10 233.55,122.10 234.99,121.99 236.44,121.64 237.88,121.38 239.32,121.31 240.77,121.15 242.21,121.14 243.65,121.12 245.10,121.10 246.54,121.10 247.98,121.10 249.43,121.03 250.87,120.95 252.32,120.93 253.76,120.91 255.20,120.89 256.65,120.64 258.09,120.47 259.53,120.21 260.98,120.05 262.42,119.93 263.86,119.88 265.31,119.81 266.75,119.80 268.20,119.75 269.64,119.59 271.08,119.59 272.53,119.59 273.97,119.58 275.41,119.57 276.86,119.57 278.30,119.48 279.74,119.46 281.19,119.45 282.63,119.44 284.08,119.42 285.52,119.42 286.96,119.42 288.41,119.42 289.85,119.42 291.29,119.42 292.74,119.42 294.18,119.42 295.62,119.38 297.07,119.35 298.51,119.35 299.95,119.16 301.40,119.15 302.84,119.14 304.29,119.10 305.73,119.01 307.17,118.77 308.62,118.73 310.06,118.73 311.50,118.73 312.95,118.73 314.39,118.73 315.83,118.73 317.28,118.73 318.72,118.73 320.17,118.73 321.61,118.73 323.05,118.73 324.50,118.73 325.94,118.73 327.38,118.72 328.83,118.65 330.27,118.64 331.71,118.64 333.16,118.64 334.60,118.64 336.05,118.60 337.49,118.60 338.93,118.43 340.38,118.27 341.82,118.27 343.26,118.27 344.71,118.27 346.15,118.27 347.59,118.24 349.04,118.24 350.48,118.22 351.92,118.15 353.37,118.08 354.81,117.79 356.26,117.78 357.70,117.34 359.14,117.08 360.59,116.89 362.03,116.28 363.47,116.11 364.92,116.05 366.36,115.84 367.80,115.53 369.25,115.46 370.69,115.35 372.14,115.18 373.58,115.03 375.02,114.96 376.47,114.86 377.91,114.78 379.35,114.59 380.80,114.41 382.24,114.21 383.68,113.88 385.13,113.68 386.57,112.73 388.02,112.00 389.46,111.54 390.90,111.14 392.35,110.70 393.79,110.70 395.23,110.70 396.68,110.70 398.12,110.42 399.56,110.26 401.01,109.68 402.45,109.03 403.89,108.26 405.34,107.11 406.78,106.30 408.23,104.65 409.67,103.65 411.11,102.98 412.56,101.90 414.00,101.22 415.44,99.85 416.89,97.79 418.33,97.16 419.77,96.35 421.22,95.58 422.66,95.32 424.11,94.33 425.55,94.16 426.99,92.98 428.44,91.90 429.88,91.26 431.32,90.52 432.77,89.56 434.21,89.30 435.65,89.21 437.10,89.11 438.54,89.04 439.98,88.43 441.43,87.63 442.87,86.66 444.32,86.39 445.76,85.61 447.20,84.60 448.65,82.59 450.09,81.10 451.53,79.27 452.98,78.79 454.42,77.82 455.86,76.03 457.31,75.00 458.75,74.44 460.20,73.66 461.64,73.14 463.08,72.40 464.53,72.06 465.97,71.30 467.41,69.87 468.86,68.29 470.30,67.81 471.74,66.92 473.19,65.28 474.63,64.44 476.08,62.41 477.52,61.44 478.96,59.68 480.41,57.96 481.85,55.88 483.29,52.76 484.74,50.69 486.18,48.92 487.62,47.78 489.07,46.31 490.51,44.98 491.95,44.34 493.40,43.26 494.84,41.96 496.29,41.23 497.73,40.11 499.17,39.26 500.62,38.45 502.06,37.24 503.50,35.02 504.95,33.25 506.39,31.75 507.83,30.52 509.28,30.06" />
    </svg>
  