
    <svg width="540" height="160" xmlns="http://www.w3.org/2000/svg">
      <style>.line{fill:none;stroke:#388bfd;stroke-width:1.5}.axis{stroke:#555;stroke-width:1;opacity:0.5}.label{fill:#999;font-family:sans-serif;font-size:10px;text-anchor:middle}</style>
      <line class="axis" x1="30" y1="30" x2="30" y2="130" />
      <line class="axis" x1="30" y1="130" x2="510" y2="130" />
      <text class="label" x="15" y="30">9,064</text>
      <text class="label" x="15" y="134">0</text>
      <text class="label" x="30" y="148">2021</text>
      <text class="label" x="510" y="148">2026</text>
      <polyline class="line" points="30.00,129.98 31.46,129.97 32.91,129.96 34.37,129.96 35.83,129.96 37.28,129.81 38.74,129.81 40.20,129.81 41.65,129.02 43.11,127.71 44.57,127.64 46.02,127.64 47.48,127.64 48.94,127.64 50.39,127.64 51.85,127.64 53.31,127.64 54.76,127.64 56.22,127.64 57.68,127.64 59.14,127.64 60.59,127.64 62.05,127.64 63.51,127.64 64.96,127.64 66.42,127.64 67.88,127.64 69.33,126.89 70.79,126.89 72.25,126.88 73.70,126.88 75.16,126.88 76.62,126.88 78.07,126.83 79.53,126.83 80.99,126.83 82.44,126.83 83.90,126.83 85.36,126.83 86.81,126.83 88.27,126.83 89.73,126.83 91.18,126.83 92.64,126.83 94.10,126.83 95.55,126.83 97.01,126.83 98.47,126.83 99.92,126.83 101.38,126.83 102.84,126.83 104.29,126.79 105.75,126.12 107.21,125.50 108.66,125.24 110.12,124.02 111.58,124.02 113.03,124.02 114.49,124.02 115.95,124.02 117.41,124.02 118.86,124.02 120.32,124.02 121.78,124.02 123.23,124.02 124.69,124.02 126.15,124.02 127.60,123.93 129.06,123.93 130.52,123.93 131.97,123.82 133.43,123.82 134.89,123.82 136.34,123.82 137.80,123.79 139.26,123.79 140.71,123.79 142.17,123.79 143.63,123.77 145.08,123.77 146.54,123.77 148.00,123.77 149.45,123.77 150.91,123.77 152.37,123.77 153.82,123.77 155.28,123.77 156.74,123.77 158.19,123.77 159.65,123.77 161.11,123.77 162.56,123.77 164.02,123.77 165.48,123.77 166.93,123.77 168.39,123.77 169.85,123.77 171.31,123.77 172.76,123.77 174.22,123.77 175.68,123.77 177.13,123.73 178.59,123.73 180.05,123.73 181.50,123.73 182.96,123.73 184.42,123.73 185.87,123.73 187.33,123.73 188.79,123.73 190.24,123.73 191.70,123.73 193.16,123.73 194.61,123.73 196.07,123.73 197.53,123.73 198.98,123.71 200.44,123.42 201.90,123.35 203.35,123.23 204.81,123.07 206.27,123.03 207.72,123.03 209.18,123.03 210.64,122.78 212.09,122.76 213.55,122.61 215.01,122.55 216.46,122.45 217.92,122.07 219.38,122.05 220.83,121.99 222.29,121.98 223.75,121.92 225.20,121.92 226.66,121.90 228.12,121.90 229.58,121.90 231.03,121.90 232.49,121.90 233.95,121.90 235.40,121.90 236.86,121.78 238.32,121.43 239.77,121.16 241.23,121.09 242.69,120.92 244.14,120.91 245.60,120.89 247.06,120.88 248.51,120.88 249.97,120.88 251.43,120.80 252.88,120.72 254.34,120.70 255.80,120.68 257.25,120.66 258.71,120.40 260.17,120.23 261.62,119.96 263.08,119.79 264.54,119.67 265.99,119.62 267.45,119.55 268.91,119.54 270.36,119.49 271.82,119.32 273.28,119.32 274.73,119.32 276.19,119.31 277.65,119.30 279.10,119.30 280.56,119.21 282.02,119.19 283.47,119.18 284.93,119.17 286.39,119.14 287.85,119.14 289.30,119.14 290.76,119.14 292.22,119.14 293.67,119.14 295.13,119.14 296.59,119.14 298.04,119.11 299.50,119.08 300.96,119.08 302.41,118.88 303.87,118.87 305.33,118.86 306.78,118.82 308.24,118.72 309.70,118.48 311.15,118.44 312.61,118.44 314.07,118.44 315.52,118.44 316.98,118.44 318.44,118.44 319.89,118.44 321.35,118.44 322.81,118.44 324.26,118.44 325.72,118.44 327.18,118.44 328.63,118.44 330.09,118.43 331.55,118.36 333.00,118.35 334.46,118.35 335.92,118.35 337.37,118.35 338.83,118.31 340.29,118.31 341.75,118.13 343.20,117.96 344.66,117.96 346.12,117.96 347.57,117.96 349.03,117.96 350.49,117.94 351.94,117.94 353.40,117.92 354.86,117.84 356.31,117.78 357.77,117.48 359.23,117.47 360.68,117.01 362.14,116.75 363.60,116.55 365.05,115.92 366.51,115.76 367.97,115.69 369.42,115.48 370.88,115.16 372.34,115.08 373.79,114.97 375.25,114.80 376.71,114.64 378.16,114.58 379.62,114.47 381.08,114.39 382.53,114.19 383.99,114.01 385.45,113.80 386.90,113.46 388.36,113.26 389.82,112.28 391.27,111.54 392.73,111.07 394.19,110.66 395.64,110.21 397.10,110.21 398.56,110.21 400.02,110.21 401.47,109.92 402.93,109.76 404.39,109.16 405.84,108.49 407.30,107.70 408.76,106.52 410.21,105.70 411.67,104.00 413.13,102.97 414.58,102.29 416.04,101.18 417.50,100.48 418.95,99.08 420.41,96.96 421.87,96.32 423.32,95.49 424.78,94.70 426.24,94.43 427.69,93.42 429.15,93.24 430.61,92.03 432.06,90.92 433.52,90.26 434.98,89.51 436.43,88.52 437.89,88.25 439.35,88.16 440.80,88.05 442.26,87.99 443.72,87.36 445.17,86.54 446.63,85.55 448.09,85.27 449.54,84.47 451.00,83.43 452.46,81.37 453.92,79.85 455.37,77.97 456.83,77.47 458.29,76.48 459.74,74.64 461.20,73.59 462.66,73.02 464.11,72.21 465.57,71.68 467.03,70.92 468.48,70.57 469.94,69.79 471.40,68.33 472.85,66.71 474.31,66.21 475.77,65.29 477.22,63.62 478.68,62.76 480.14,60.67 481.59,59.68 483.05,57.87 484.51,56.10 485.96,53.97 487.42,50.77 488.88,48.66 490.33,46.84 491.79,45.67 493.25,44.15 494.70,42.80 496.16,42.14 497.62,41.03 499.07,39.70 500.53,38.95 501.99,37.80 503.44,36.93 504.90,36.10 506.36,34.85 507.81,32.58 509.27,30.82" />
    </svg>
  