
    <svg width="540" height="160" xmlns="http://www.w3.org/2000/svg">
      <style>.line{fill:none;stroke:#388bfd;stroke-width:1.5}.axis{stroke:#555;stroke-width:1;opacity:0.5}.label{fill:#999;font-family:sans-serif;font-size:10px;text-anchor:middle}</style>
      <line class="axis" x1="30" y1="30" x2="30" y2="130" />
      <line class="axis" x1="30" y1="130" x2="510" y2="130" />
      <text class="label" x="15" y="30">4,180</text>
      <text class="label" x="15" y="134">0</text>
      <text class="label" x="30" y="148">2021</text>
      <text class="label" x="510" y="148">2026</text>
      <polyline class="line" points="30.00,129.95 31.53,129.93 33.06,129.90 34.59,129.90 36.12,129.90 37.65,129.59 39.18,129.59 40.71,129.59 42.24,127.87 43.77,125.02 45.29,124.88 46.82,124.88 48.35,124.88 49.88,124.88 51.41,124.88 52.94,124.88 54.47,124.88 56.00,124.88 57.53,124.88 59.06,124.88 60.59,124.88 62.12,124.88 63.65,124.88 65.18,124.88 66.71,124.88 68.24,124.88 69.77,124.88 71.30,123.25 72.83,123.25 74.35,123.23 75.88,123.23 77.41,123.23 78.94,123.23 80.47,123.13 82.00,123.13 83.53,123.13 85.06,123.13 86.59,123.13 88.12,123.13 89.65,123.13 91.18,123.13 92.71,123.13 94.24,123.13 95.77,123.13 97.30,123.13 98.83,123.13 100.36,123.13 101.89,123.13 103.41,123.13 104.94,123.13 106.47,123.13 108.00,123.04 109.53,121.58 111.06,120.24 112.59,119.69 114.12,117.03 115.65,117.03 117.18,117.03 118.71,117.03 120.24,117.03 121.77,117.03 123.30,117.03 124.83,117.03 126.36,117.03 127.89,117.03 129.42,117.03 130.95,117.03 132.47,116.84 134.00,116.84 135.53,116.84 137.06,116.60 138.59,116.60 140.12,116.60 141.65,116.60 143.18,116.53 144.71,116.53 146.24,116.53 147.77,116.53 149.30,116.48 150.83,116.48 152.36,116.48 153.89,116.48 155.42,116.48 156.95,116.48 158.48,116.48 160.01,116.48 161.53,116.48 163.06,116.48 164.59,116.48 166.12,116.48 167.65,116.48 169.18,116.48 170.71,116.48 172.24,116.48 173.77,116.48 175.30,116.48 176.83,116.48 178.36,116.48 179.89,116.48 181.42,116.48 182.95,116.48 184.48,116.41 186.01,116.41 187.54,116.41 189.07,116.41 190.59,116.41 192.12,116.41 193.65,116.41 195.18,116.41 196.71,116.41 198.24,116.41 199.77,116.41 201.30,116.41 202.83,116.41 204.36,116.41 205.89,116.41 207.42,116.36 208.95,115.74 210.48,115.57 212.01,115.31 213.54,114.98 215.07,114.88 216.60,114.88 218.13,114.88 219.65,114.35 221.18,114.31 222.71,113.97 224.24,113.85 225.77,113.64 227.30,112.80 228.83,112.75 230.36,112.63 231.89,112.61 233.42,112.49 234.95,112.49 236.48,112.44 238.01,112.44 239.54,112.44 241.07,112.44 242.60,112.44 244.13,112.44 245.66,112.44 247.19,112.18 248.71,111.41 250.24,110.84 251.77,110.67 253.30,110.31 254.83,110.29 256.36,110.24 257.89,110.22 259.42,110.22 260.95,110.22 262.48,110.05 264.01,109.88 265.54,109.83 267.07,109.78 268.60,109.74 270.13,109.19 271.66,108.80 273.19,108.23 274.72,107.87 276.25,107.61 277.77,107.49 279.30,107.34 280.83,107.32 282.36,107.20 283.89,106.84 285.42,106.84 286.95,106.84 288.48,106.82 290.01,106.79 291.54,106.79 293.07,106.60 294.60,106.56 296.13,106.53 297.66,106.51 299.19,106.46 300.72,106.46 302.25,106.46 303.78,106.46 305.31,106.46 306.83,106.46 308.36,106.46 309.89,106.46 311.42,106.39 312.95,106.32 314.48,106.32 316.01,105.89 317.54,105.86 319.07,105.84 320.60,105.77 322.13,105.55 323.66,105.02 325.19,104.93 326.72,104.93 328.25,104.93 329.78,104.93 331.31,104.93 332.84,104.93 334.37,104.93 335.89,104.93 337.42,104.93 338.95,104.93 340.48,104.93 342.01,104.93 343.54,104.93 345.07,104.90 346.60,104.76 348.13,104.74 349.66,104.74 351.19,104.74 352.72,104.74 354.25,104.64 355.78,104.64 357.31,104.26 358.84,103.90 360.37,103.90 361.90,103.90 363.43,103.90 364.95,103.90 366.48,103.85 368.01,103.85 369.54,103.80 371.07,103.64 372.60,103.49 374.13,102.85 375.66,102.82 377.19,101.84 378.72,101.27 380.25,100.84 381.78,99.47 383.31,99.26 384.84,99.21 386.37,99.21 387.90,99.21 389.43,99.21 390.96,99.16 392.49,99.04 394.01,99.04 395.54,99.04 397.07,99.04 398.60,99.04 400.13,99.04 401.66,99.00 403.19,98.95 404.72,98.95 406.25,98.95 407.78,98.90 409.31,98.90 410.84,98.71 412.37,98.61 413.90,98.61 415.43,98.61 416.96,98.61 418.49,98.61 420.02,98.61 421.55,98.61 423.07,98.09 424.60,97.54 426.13,97.08 427.66,96.46 429.19,95.74 430.72,94.04 432.25,92.99 433.78,92.25 435.31,91.03 436.84,90.07 438.37,88.44 439.90,86.10 441.43,85.41 442.96,84.40 444.49,83.54 446.02,83.25 447.55,82.15 449.08,81.96 450.61,80.65 452.13,79.45 453.66,78.73 455.19,77.89 456.72,76.75 458.25,76.41 459.78,76.24 461.31,76.08 462.84,75.93 464.37,75.02 465.90,74.00 467.43,72.37 468.96,71.89 470.49,71.05 472.02,69.69 473.55,66.65 475.08,64.35 476.61,61.79 478.14,61.24 479.67,60.12 481.19,57.85 482.72,56.46 484.25,55.69 485.78,54.55 487.31,53.95 488.84,53.11 490.37,52.73 491.90,51.44 493.43,49.50 494.96,47.66 496.49,47.11 498.02,46.15 499.55,44.43 501.08,43.13 502.61,41.22 504.14,40.24 505.67,38.28 507.20,35.67 508.73,33.44" />
    </svg>
  