
    <svg width="540" height="160" xmlns="http://www.w3.org/2000/svg">
      <style>.line{fill:none;stroke:#388bfd;stroke-width:1.5}.axis{stroke:#555;stroke-width:1;opacity:0.5}.label{fill:#999;font-family:sans-serif;font-size:10px;text-anchor:middle}</style>
      <line class="axis" x1="30" y1="30" x2="30" y2="130" />
      <line class="axis" x1="30" y1="130" x2="510" y2="130" />
      <text class="label" x="15" y="30">9,244</text>
      <text class="label" x="15" y="134">0</text>
      <text class="label" x="30" y="148">2021</text>
      <text class="label" x="510" y="148">2026</text>
      <polyline class="line" points="30.00,129.98 31.45,129.97 32.90,129.96 34.34,129.96 35.79,129.96 37.24,129.82 38.69,129.82 40.14,129.82 41.58,129.04 43.03,127.75 44.48,127.68 45.93,127.68 47.38,127.68 48.82,127.68 50.27,127.68 51.72,127.68 53.17,127.68 54.62,127.68 56.06,127.68 57.51,127.68 58.96,127.68 60.41,127.68 61.86,127.68 63.30,127.68 64.75,127.68 66.20,127.68 67.65,127.68 69.10,126.95 70.54,126.95 71.99,126.94 73.44,126.94 74.89,126.94 76.33,126.94 77.78,126.90 79.23,126.90 80.68,126.90 82.13,126.90 83.57,126.90 85.02,126.90 86.47,126.90 87.92,126.90 89.37,126.90 90.81,126.90 92.26,126.90 93.71,126.90 95.16,126.90 96.61,126.90 98.05,126.90 99.50,126.90 100.95,126.90 102.40,126.90 103.85,126.85 105.29,126.19 106.74,125.59 108.19,125.34 109.64,124.14 111.09,124.14 112.53,124.14 113.98,124.14 115.43,124.14 116.88,124.14 118.33,124.14 119.77,124.14 121.22,124.14 122.67,124.14 124.12,124.14 125.57,124.14 127.01,124.05 128.46,124.05 129.91,124.05 131.36,123.94 132.81,123.94 134.25,123.94 135.70,123.94 137.15,123.91 138.60,123.91 140.05,123.91 141.49,123.91 142.94,123.89 144.39,123.89 145.84,123.89 147.29,123.89 148.73,123.89 150.18,123.89 151.63,123.89 153.08,123.89 154.52,123.89 155.97,123.89 157.42,123.89 158.87,123.89 160.32,123.89 161.76,123.89 163.21,123.89 164.66,123.89 166.11,123.89 167.56,123.89 169.00,123.89 170.45,123.89 171.90,123.89 173.35,123.89 174.80,123.89 176.24,123.86 177.69,123.86 179.14,123.86 180.59,123.86 182.04,123.86 183.48,123.86 184.93,123.86 186.38,123.86 187.83,123.86 189.28,123.86 190.72,123.86 192.17,123.86 193.62,123.86 195.07,123.86 196.52,123.86 197.96,123.83 199.41,123.55 200.86,123.48 202.31,123.36 203.76,123.21 205.20,123.16 206.65,123.16 208.10,123.16 209.55,122.93 211.00,122.90 212.44,122.75 213.89,122.70 215.34,122.60 216.79,122.22 218.24,122.20 219.68,122.15 221.13,122.14 222.58,122.08 224.03,122.08 225.48,122.06 226.92,122.06 228.37,122.06 229.82,122.06 231.27,122.06 232.71,122.06 234.16,122.06 235.61,121.94 237.06,121.59 238.51,121.33 239.95,121.26 241.40,121.10 242.85,121.09 244.30,121.06 245.75,121.05 247.19,121.05 248.64,121.05 250.09,120.98 251.54,120.90 252.99,120.88 254.43,120.86 255.88,120.84 257.33,120.59 258.78,120.42 260.23,120.16 261.67,119.99 263.12,119.87 264.57,119.82 266.02,119.76 267.47,119.74 268.91,119.69 270.36,119.53 271.81,119.53 273.26,119.53 274.71,119.52 276.15,119.51 277.60,119.51 279.05,119.42 280.50,119.40 281.95,119.39 283.39,119.38 284.84,119.36 286.29,119.36 287.74,119.36 289.19,119.36 290.63,119.36 292.08,119.36 293.53,119.36 294.98,119.36 296.43,119.32 297.87,119.29 299.32,119.29 300.77,119.10 302.22,119.08 303.67,119.07 305.11,119.04 306.56,118.94 308.01,118.71 309.46,118.66 310.90,118.66 312.35,118.66 313.80,118.66 315.25,118.66 316.70,118.66 318.14,118.66 319.59,118.66 321.04,118.66 322.49,118.66 323.94,118.66 325.38,118.66 326.83,118.66 328.28,118.65 329.73,118.59 331.18,118.58 332.62,118.58 334.07,118.58 335.52,118.58 336.97,118.53 338.42,118.53 339.86,118.36 341.31,118.20 342.76,118.20 344.21,118.20 345.66,118.20 347.10,118.20 348.55,118.18 350.00,118.18 351.45,118.15 352.90,118.08 354.34,118.01 355.79,117.72 357.24,117.71 358.69,117.27 360.14,117.01 361.58,116.81 363.03,116.20 364.48,116.03 365.93,115.97 367.38,115.76 368.82,115.45 370.27,115.37 371.72,115.27 373.17,115.09 374.62,114.94 376.06,114.88 377.51,114.77 378.96,114.69 380.41,114.50 381.86,114.32 383.30,114.12 384.75,113.78 386.20,113.59 387.65,112.63 389.10,111.90 390.54,111.44 391.99,111.04 393.44,110.59 394.89,110.59 396.33,110.59 397.78,110.59 399.23,110.31 400.68,110.15 402.13,109.57 403.57,108.91 405.02,108.14 406.47,106.98 407.92,106.17 409.37,104.50 410.81,103.50 412.26,102.83 413.71,101.74 415.16,101.05 416.61,99.68 418.05,97.60 419.50,96.97 420.95,96.16 422.40,95.38 423.85,95.12 425.29,94.13 426.74,93.95 428.19,92.77 429.64,91.68 431.09,91.03 432.53,90.30 433.98,89.32 435.43,89.07 436.88,88.98 438.33,88.87 439.77,88.81 441.22,88.19 442.67,87.39 444.12,86.41 445.57,86.14 447.01,85.35 448.46,84.34 449.91,82.32 451.36,80.82 452.81,78.98 454.25,78.50 455.70,77.52 457.15,75.72 458.60,74.69 460.05,74.13 461.49,73.34 462.94,72.82 464.39,72.07 465.84,71.72 467.29,70.97 468.73,69.53 470.18,67.94 471.63,67.45 473.08,66.55 474.52,64.91 475.97,64.07 477.42,62.02 478.87,61.05 480.32,59.27 481.76,57.54 483.21,55.45 484.66,52.32 486.11,50.24 487.56,48.46 489.00,47.31 490.45,45.83 491.90,44.50 493.35,43.85 494.80,42.77 496.24,41.46 497.69,40.72 499.14,39.60 500.59,38.74 502.04,37.93 503.48,36.71 504.93,34.48 506.38,32.75 507.83,31.24 509.28,30.08" />
    </svg>
  