
    <svg width="540" height="160" xmlns="http://www.w3.org/2000/svg">
      <style>.line{fill:none;stroke:#388bfd;stroke-width:1.5}.axis{stroke:#555;stroke-width:1;opacity:0.5}.label{fill:#999;font-family:sans-serif;font-size:10px;text-anchor:middle}</style>
      <line class="axis" x1="30" y1="30" x2="30" y2="130" />
      <line class="axis" x1="30" y1="130" x2="510" y2="130" />
      <text class="label" x="15" y="30">9,506</text>
      <text class="label" x="15" y="134">0</text>
      <text class="label" x="30" y="148">2021</text>
      <text class="label" x="510" y="148">2026</text>
      <polyline class="line" points="30.00,129.98 31.43,129.97 32.86,129.96 34.29,129.96 35.72,129.96 37.15,129.82 38.58,129.82 40.00,129.82 41.43,129.06 42.86,127.81 44.29,127.75 45.72,127.75 47.15,127.75 48.58,127.75 50.01,127.75 51.44,127.75 52.87,127.75 54.30,127.75 55.73,127.75 57.16,127.75 58.59,127.75 60.01,127.75 61.44,127.75 62.87,127.75 64.30,127.75 65.73,127.75 67.16,127.75 68.59,127.03 70.02,127.03 71.45,127.02 72.88,127.02 74.31,127.02 75.74,127.02 77.17,126.98 78.60,126.98 80.02,126.98 81.45,126.98 82.88,126.98 84.31,126.98 85.74,126.98 87.17,126.98 88.60,126.98 90.03,126.98 91.46,126.98 92.89,126.98 94.32,126.98 95.75,126.98 97.18,126.98 98.61,126.98 100.03,126.98 101.46,126.98 102.89,126.94 104.32,126.30 105.75,125.71 107.18,125.47 108.61,124.30 110.04,124.30 111.47,124.30 112.90,124.30 114.33,124.30 115.76,124.30 117.19,124.30 118.62,124.30 120.04,124.30 121.47,124.30 122.90,124.30 124.33,124.30 125.76,124.21 127.19,124.21 128.62,124.21 130.05,124.11 131.48,124.11 132.91,124.11 134.34,124.11 135.77,124.08 137.20,124.08 138.63,124.08 140.05,124.08 141.48,124.06 142.91,124.06 144.34,124.06 145.77,124.06 147.20,124.06 148.63,124.06 150.06,124.06 151.49,124.06 152.92,124.06 154.35,124.06 155.78,124.06 157.21,124.06 158.64,124.06 160.06,124.06 161.49,124.06 162.92,124.06 164.35,124.06 165.78,124.06 167.21,124.06 168.64,124.06 170.07,124.06 171.50,124.06 172.93,124.06 174.36,124.02 175.79,124.02 177.22,124.02 178.65,124.02 180.07,124.02 181.50,124.02 182.93,124.02 184.36,124.02 185.79,124.02 187.22,124.02 188.65,124.02 190.08,124.02 191.51,124.02 192.94,124.02 194.37,124.02 195.80,124.00 197.23,123.73 198.66,123.66 200.08,123.54 201.51,123.39 202.94,123.35 204.37,123.35 205.80,123.35 207.23,123.12 208.66,123.10 210.09,122.95 211.52,122.90 212.95,122.80 214.38,122.44 215.81,122.42 217.24,122.36 218.67,122.35 220.09,122.30 221.52,122.30 222.95,122.28 224.38,122.28 225.81,122.28 227.24,122.28 228.67,122.28 230.10,122.28 231.53,122.28 232.96,122.16 234.39,121.83 235.82,121.57 237.25,121.50 238.67,121.34 240.10,121.33 241.53,121.31 242.96,121.30 244.39,121.30 245.82,121.30 247.25,121.23 248.68,121.15 250.11,121.13 251.54,121.11 252.97,121.09 254.40,120.85 255.83,120.68 257.26,120.43 258.68,120.27 260.11,120.15 261.54,120.10 262.97,120.04 264.40,120.03 265.83,119.97 267.26,119.82 268.69,119.82 270.12,119.82 271.55,119.81 272.98,119.80 274.41,119.80 275.84,119.71 277.27,119.69 278.69,119.68 280.12,119.67 281.55,119.65 282.98,119.65 284.41,119.65 285.84,119.65 287.27,119.65 288.70,119.65 290.13,119.65 291.56,119.65 292.99,119.62 294.42,119.59 295.85,119.59 297.28,119.40 298.70,119.39 300.13,119.38 301.56,119.34 302.99,119.25 304.42,119.02 305.85,118.98 307.28,118.98 308.71,118.98 310.14,118.98 311.57,118.98 313.00,118.98 314.43,118.98 315.86,118.98 317.29,118.98 318.71,118.98 320.14,118.98 321.57,118.98 323.00,118.98 324.43,118.96 325.86,118.90 327.29,118.89 328.72,118.89 330.15,118.89 331.58,118.89 333.01,118.85 334.44,118.85 335.87,118.68 337.30,118.52 338.72,118.52 340.15,118.52 341.58,118.52 343.01,118.52 344.44,118.50 345.87,118.50 347.30,118.48 348.73,118.41 350.16,118.34 351.59,118.06 353.02,118.05 354.45,117.62 355.88,117.37 357.31,117.18 358.73,116.58 360.16,116.42 361.59,116.36 363.02,116.16 364.45,115.85 365.88,115.78 367.31,115.67 368.74,115.50 370.17,115.36 371.60,115.29 373.03,115.19 374.46,115.11 375.89,114.93 377.32,114.76 378.74,114.56 380.17,114.23 381.60,114.04 383.03,113.11 384.46,112.40 385.89,111.95 387.32,111.56 388.75,111.13 390.18,111.13 391.61,111.13 393.04,111.13 394.47,110.85 395.90,110.70 397.33,110.13 398.75,109.49 400.18,108.74 401.61,107.61 403.04,106.83 404.47,105.21 405.90,104.23 407.33,103.57 408.76,102.52 410.19,101.85 411.62,100.51 413.05,98.49 414.48,97.88 415.91,97.09 417.33,96.34 418.76,96.08 420.19,95.12 421.62,94.95 423.05,93.79 424.48,92.74 425.91,92.11 427.34,91.39 428.77,90.45 430.20,90.19 431.63,90.11 433.06,90.00 434.49,89.94 435.92,89.34 437.34,88.56 438.77,87.62 440.20,87.35 441.63,86.59 443.06,85.60 444.49,83.63 445.92,82.18 447.35,80.39 448.78,79.92 450.21,78.97 451.64,77.21 453.07,76.21 454.50,75.67 455.93,74.90 457.35,74.39 458.78,73.67 460.21,73.33 461.64,72.59 463.07,71.20 464.50,69.65 465.93,69.18 467.36,68.30 468.79,66.70 470.22,65.88 471.65,63.89 473.08,62.95 474.51,61.22 475.94,59.54 477.36,57.51 478.79,54.46 480.22,52.44 481.65,50.70 483.08,49.59 484.51,48.15 485.94,46.85 487.37,46.22 488.80,45.17 490.23,43.90 491.66,43.18 493.09,42.09 494.52,41.26 495.95,40.47 497.37,39.28 498.80,37.11 500.23,35.38 501.66,33.91 503.09,32.70 504.52,32.26 505.95,31.69 507.38,31.23 508.81,30.70" />
    </svg>
  