
    <svg width="540" height="160" xmlns="http://www.w3.org/2000/svg">
      <style>.line{fill:none;stroke:#388bfd;stroke-width:1.5}.axis{stroke:#555;stroke-width:1;opacity:0.5}.label{fill:#999;font-family:sans-serif;font-size:10px;text-anchor:middle}</style>
      <line class="axis" x1="30" y1="30" x2="30" y2="130" />
      <line class="axis" x1="30" y1="130" x2="510" y2="130" />
      <text class="label" x="15" y="30">5,250</text>
      <text class="label" x="15" y="134">0</text>
      <text class="label" x="30" y="148">2021</text>
      <text class="label" x="510" y="148">2026</text>
      <polyline class="line" points="30.00,129.96 31.51,129.94 33.02,129.92 34.54,129.92 36.05,129.92 37.56,129.68 39.07,129.68 40.58,129.68 42.09,128.30 43.61,126.04 45.12,125.92 46.63,125.92 48.14,125.92 49.65,125.92 51.17,125.92 52.68,125.92 54.19,125.92 55.70,125.92 57.21,125.92 58.72,125.92 60.24,125.92 61.75,125.92 63.26,125.92 64.77,125.92 66.28,125.92 67.80,125.92 69.31,125.92 70.82,124.63 72.33,124.63 73.84,124.61 75.35,124.61 76.87,124.61 78.38,124.61 79.89,124.53 81.40,124.53 82.91,124.53 84.43,124.53 85.94,124.53 87.45,124.53 88.96,124.53 90.47,124.53 91.98,124.53 93.50,124.53 95.01,124.53 96.52,124.53 98.03,124.53 99.54,124.53 101.06,124.53 102.57,124.53 104.08,124.53 105.59,124.53 107.10,124.46 108.61,123.30 110.13,122.23 111.64,121.79 113.15,119.68 114.66,119.68 116.17,119.68 117.69,119.68 119.20,119.68 120.71,119.68 122.22,119.68 123.73,119.68 125.24,119.68 126.76,119.68 128.27,119.68 129.78,119.68 131.29,119.52 132.80,119.52 134.31,119.52 135.83,119.33 137.34,119.33 138.85,119.33 140.36,119.33 141.87,119.28 143.39,119.28 144.90,119.28 146.41,119.28 147.92,119.24 149.43,119.24 150.94,119.24 152.46,119.24 153.97,119.24 155.48,119.24 156.99,119.24 158.50,119.24 160.02,119.24 161.53,119.24 163.04,119.24 164.55,119.24 166.06,119.24 167.57,119.24 169.09,119.24 170.60,119.24 172.11,119.24 173.62,119.24 175.13,119.24 176.65,119.24 178.16,119.24 179.67,119.24 181.18,119.24 182.69,119.18 184.20,119.18 185.72,119.18 187.23,119.18 188.74,119.18 190.25,119.18 191.76,119.18 193.28,119.18 194.79,119.18 196.30,119.18 197.81,119.18 199.32,119.18 200.83,119.18 202.35,119.18 203.86,119.18 205.37,119.14 206.88,118.65 208.39,118.51 209.91,118.30 211.42,118.04 212.93,117.96 214.44,117.96 215.95,117.96 217.46,117.54 218.98,117.50 220.49,117.24 222.00,117.14 223.51,116.97 225.02,116.30 226.54,116.27 228.05,116.17 229.56,116.15 231.07,116.06 232.58,116.06 234.09,116.02 235.61,116.02 237.12,116.02 238.63,116.02 240.14,116.02 241.65,116.02 243.17,116.02 244.68,115.81 246.19,115.20 247.70,114.74 249.21,114.61 250.72,114.32 252.24,114.30 253.75,114.27 255.26,114.25 256.77,114.25 258.28,114.25 259.80,114.11 261.31,113.98 262.82,113.94 264.33,113.90 265.84,113.87 267.35,113.43 268.87,113.12 270.38,112.67 271.89,112.38 273.40,112.17 274.91,112.08 276.43,111.96 277.94,111.94 279.45,111.85 280.96,111.56 282.47,111.56 283.98,111.56 285.50,111.54 287.01,111.52 288.52,111.52 290.03,111.37 291.54,111.33 293.06,111.31 294.57,111.30 296.08,111.26 297.59,111.26 299.10,111.26 300.61,111.26 302.13,111.26 303.64,111.26 305.15,111.26 306.66,111.26 308.17,111.20 309.69,111.14 311.20,111.14 312.71,110.80 314.22,110.78 315.73,110.76 317.24,110.70 318.76,110.53 320.27,110.11 321.78,110.04 323.29,110.04 324.80,110.04 326.31,110.04 327.83,110.04 329.34,110.04 330.85,110.04 332.36,110.04 333.87,110.04 335.39,110.04 336.90,110.04 338.41,110.04 339.92,110.04 341.43,110.02 342.94,109.90 344.46,109.89 345.97,109.89 347.48,109.89 348.99,109.89 350.50,109.81 352.02,109.81 353.53,109.50 355.04,109.22 356.55,109.22 358.06,109.22 359.57,109.22 361.09,109.22 362.60,109.18 364.11,109.18 365.62,109.14 367.13,109.01 368.65,108.90 370.16,108.38 371.67,108.36 373.18,107.58 374.69,107.12 376.20,106.78 377.72,105.70 379.23,105.41 380.74,105.30 382.25,104.93 383.76,104.38 385.28,104.25 386.79,104.06 388.30,103.75 389.81,103.49 391.32,103.37 392.83,103.18 394.35,103.05 395.86,102.70 397.37,102.40 398.88,102.04 400.39,101.45 401.91,101.10 403.42,99.41 404.93,98.13 406.44,97.31 407.95,96.61 409.46,95.83 410.98,95.83 412.49,95.83 414.00,95.83 415.51,95.33 417.02,95.05 418.54,94.42 420.05,93.70 421.56,92.70 423.07,91.14 424.58,90.27 426.09,88.67 427.61,87.73 429.12,87.14 430.63,86.17 432.14,85.41 433.65,84.11 435.17,82.23 436.68,81.68 438.19,80.88 439.70,80.19 441.21,79.96 442.72,79.09 444.24,78.93 445.75,77.89 447.26,76.93 448.77,76.36 450.28,75.70 451.80,74.78 453.31,74.51 454.82,74.38 456.33,74.25 457.84,74.13 459.35,73.41 460.87,72.59 462.38,71.30 463.89,70.91 465.40,70.25 466.91,69.16 468.43,66.74 469.94,64.91 471.45,62.88 472.96,62.44 474.47,61.54 475.98,59.73 477.50,58.63 479.01,58.02 480.52,57.10 482.03,56.63 483.54,55.96 485.06,55.66 486.57,54.63 488.08,53.09 489.59,51.62 491.10,51.18 492.61,50.42 494.13,49.05 495.64,48.02 497.15,46.50 498.66,45.71 500.17,44.15 501.69,42.08 503.20,40.30 504.71,36.55 506.22,33.90 507.73,32.02 509.24,30.72" />
    </svg>
  