
    <svg width="540" height="160" xmlns="http://www.w3.org/2000/svg">
      <style>.line{fill:none;stroke:#388bfd;stroke-width:1.5}.axis{stroke:#555;stroke-width:1;opacity:0.5}.label{fill:#999;font-family:sans-serif;font-size:10px;text-anchor:middle}</style>
      <line class="axis" x1="30" y1="30" x2="30" y2="130" />
      <line class="axis" x1="30" y1="130" x2="510" y2="130" />
      <text class="label" x="15" y="30">7,720</text>
      <text class="label" x="15" y="134">0</text>
      <text class="label" x="30" y="148">2021</text>
      <text class="label" x="510" y="148">2026</text>
      <polyline class="line" points="30.00,129.97 31.50,129.96 33.00,129.95 34.50,129.95 35.99,129.95 37.49,129.78 38.99,129.78 40.49,129.78 41.99,128.85 43.49,127.31 44.98,127.23 46.48,127.23 47.98,127.23 49.48,127.23 50.98,127.23 52.48,127.23 53.98,127.23 55.47,127.23 56.97,127.23 58.47,127.23 59.97,127.23 61.47,127.23 62.97,127.23 64.46,127.23 65.96,127.23 67.46,127.23 68.96,127.23 70.46,126.35 71.96,126.35 73.45,126.33 74.95,126.33 76.45,126.33 77.95,126.33 79.45,126.28 80.95,126.28 82.45,126.28 83.94,126.28 85.44,126.28 86.94,126.28 88.44,126.28 89.94,126.28 91.44,126.28 92.93,126.28 94.43,126.28 95.93,126.28 97.43,126.28 98.93,126.28 100.43,126.28 101.93,126.28 103.42,126.28 104.92,126.28 106.42,126.23 107.92,125.44 109.42,124.72 110.92,124.42 112.41,122.98 113.91,122.98 115.41,122.98 116.91,122.98 118.41,122.98 119.91,122.98 121.40,122.98 122.90,122.98 124.40,122.98 125.90,122.98 127.40,122.98 128.90,122.98 130.40,122.88 131.89,122.88 133.39,122.88 134.89,122.75 136.39,122.75 137.89,122.75 139.39,122.75 140.88,122.71 142.38,122.71 143.88,122.71 145.38,122.71 146.88,122.68 148.38,122.68 149.88,122.68 151.37,122.68 152.87,122.68 154.37,122.68 155.87,122.68 157.37,122.68 158.87,122.68 160.36,122.68 161.86,122.68 163.36,122.68 164.86,122.68 166.36,122.68 167.86,122.68 169.35,122.68 170.85,122.68 172.35,122.68 173.85,122.68 175.35,122.68 176.85,122.68 178.35,122.68 179.84,122.68 181.34,122.64 182.84,122.64 184.34,122.64 185.84,122.64 187.34,122.64 188.83,122.64 190.33,122.64 191.83,122.64 193.33,122.64 194.83,122.64 196.33,122.64 197.83,122.64 199.32,122.64 200.82,122.64 202.32,122.64 203.82,122.62 205.32,122.28 206.82,122.19 208.31,122.05 209.81,121.87 211.31,121.81 212.81,121.81 214.31,121.81 215.81,121.53 217.30,121.50 218.80,121.32 220.30,121.26 221.80,121.14 223.30,120.69 224.80,120.66 226.30,120.60 227.79,120.58 229.29,120.52 230.79,120.52 232.29,120.49 233.79,120.49 235.29,120.49 236.78,120.49 238.28,120.49 239.78,120.49 241.28,120.49 242.78,120.35 244.28,119.94 245.78,119.62 247.27,119.53 248.77,119.34 250.27,119.33 251.77,119.30 253.27,119.29 254.77,119.29 256.26,119.29 257.76,119.20 259.26,119.11 260.76,119.08 262.26,119.05 263.76,119.03 265.25,118.73 266.75,118.52 268.25,118.21 269.75,118.02 271.25,117.88 272.75,117.81 274.25,117.73 275.74,117.72 277.24,117.66 278.74,117.46 280.24,117.46 281.74,117.46 283.24,117.45 284.73,117.44 286.23,117.44 287.73,117.33 289.23,117.31 290.73,117.29 292.23,117.28 293.73,117.25 295.22,117.25 296.72,117.25 298.22,117.25 299.72,117.25 301.22,117.25 302.72,117.25 304.21,117.25 305.71,117.22 307.21,117.18 308.71,117.18 310.21,116.94 311.71,116.93 313.20,116.92 314.70,116.88 316.20,116.76 317.70,116.48 319.20,116.42 320.70,116.42 322.20,116.42 323.69,116.42 325.19,116.42 326.69,116.42 328.19,116.42 329.69,116.42 331.19,116.42 332.68,116.42 334.18,116.42 335.68,116.42 337.18,116.42 338.68,116.41 340.18,116.33 341.68,116.32 343.17,116.32 344.67,116.32 346.17,116.32 347.67,116.27 349.17,116.27 350.67,116.06 352.16,115.87 353.66,115.87 355.16,115.87 356.66,115.87 358.16,115.87 359.66,115.84 361.16,115.84 362.65,115.82 364.15,115.73 365.65,115.65 367.15,115.30 368.65,115.28 370.15,114.75 371.64,114.44 373.14,114.21 374.64,113.47 376.14,113.28 377.64,113.20 379.14,112.95 380.63,112.58 382.13,112.49 383.63,112.36 385.13,112.15 386.63,111.97 388.13,111.89 389.63,111.76 391.12,111.67 392.62,111.44 394.12,111.23 395.62,110.98 397.12,110.58 398.62,110.35 400.11,109.20 401.61,108.33 403.11,107.77 404.61,107.29 406.11,106.76 407.61,106.76 409.11,106.76 410.60,106.76 412.10,106.42 413.60,106.23 415.10,105.53 416.60,104.74 418.10,103.82 419.59,102.44 421.09,101.46 422.59,99.47 424.09,98.26 425.59,97.46 427.09,96.17 428.58,95.34 430.08,93.69 431.58,91.20 433.08,90.45 434.58,89.48 436.08,88.55 437.58,88.24 439.07,87.05 440.57,86.84 442.07,85.41 443.57,84.12 445.07,83.34 446.57,82.46 448.06,81.30 449.56,80.98 451.06,80.88 452.56,80.75 454.06,80.67 455.56,79.94 457.06,78.98 458.55,77.81 460.05,77.49 461.55,76.54 463.05,75.32 464.55,72.90 466.05,71.11 467.54,68.91 469.04,68.33 470.54,67.16 472.04,65.00 473.54,63.77 475.04,63.10 476.53,62.15 478.03,61.53 479.53,60.63 481.03,60.22 482.53,59.31 484.03,57.59 485.53,55.69 487.02,55.10 488.52,54.12 490.02,52.54 491.52,51.61 493.02,49.72 494.52,48.72 496.01,46.77 497.51,44.81 499.01,42.73 500.51,39.22 502.01,37.09 503.51,35.04 505.01,33.90 506.50,32.22 508.00,30.78 509.50,30.28" />
    </svg>
  