
    <svg width="540" height="160" xmlns="http://www.w3.org/2000/svg">
      <style>.line{fill:none;stroke:#388bfd;stroke-width:1.5}.axis{stroke:#555;stroke-width:1;opacity:0.5}.label{fill:#999;font-family:sans-serif;font-size:10px;text-anchor:middle}</style>
      <line class="axis" x1="30" y1="30" x2="30" y2="130" />
      <line class="axis" x1="30" y1="130" x2="510" y2="130" />
      <text class="label" x="15" y="30">8,553</text>
      <text class="label" x="15" y="134">0</text>
      <text class="label" x="30" y="148">2021</text>
      <text class="label" x="510" y="148">2026</text>
      <polyline class="line" points="30.00,129.98 31.47,129.96 32.94,129.95 34.41,129.95 35.88,129.95 37.35,129.80 38.82,129.80 40.29,129.80 41.76,128.96 43.23,127.57 44.70,127.50 46.17,127.50 47.64,127.50 49.11,127.50 50.58,127.50 52.05,127.50 53.52,127.50 54.99,127.50 56.46,127.50 57.93,127.50 59.40,127.50 60.87,127.50 62.34,127.50 63.81,127.50 65.28,127.50 66.75,127.50 68.22,127.50 69.69,126.70 71.16,126.70 72.63,126.69 74.10,126.69 75.57,126.69 77.04,126.69 78.51,126.64 79.98,126.64 81.45,126.64 82.92,126.64 84.40,126.64 85.87,126.64 87.34,126.64 88.81,126.64 90.28,126.64 91.75,126.64 93.22,126.64 94.69,126.64 96.16,126.64 97.63,126.64 99.10,126.64 100.57,126.64 102.04,126.64 103.51,126.64 104.98,126.60 106.45,125.88 107.92,125.23 109.39,124.96 110.86,123.66 112.33,123.66 113.80,123.66 115.27,123.66 116.74,123.66 118.21,123.66 119.68,123.66 121.15,123.66 122.62,123.66 124.09,123.66 125.56,123.66 127.03,123.66 128.50,123.57 129.97,123.57 131.44,123.57 132.91,123.45 134.38,123.45 135.85,123.45 137.32,123.45 138.79,123.42 140.26,123.42 141.73,123.42 143.20,123.42 144.67,123.39 146.14,123.39 147.61,123.39 149.08,123.39 150.55,123.39 152.02,123.39 153.49,123.39 154.96,123.39 156.43,123.39 157.90,123.39 159.37,123.39 160.84,123.39 162.31,123.39 163.78,123.39 165.25,123.39 166.72,123.39 168.19,123.39 169.66,123.39 171.13,123.39 172.60,123.39 174.07,123.39 175.54,123.39 177.01,123.39 178.48,123.36 179.95,123.36 181.42,123.36 182.89,123.36 184.36,123.36 185.83,123.36 187.30,123.36 188.77,123.36 190.25,123.36 191.72,123.36 193.19,123.36 194.66,123.36 196.13,123.36 197.60,123.36 199.07,123.36 200.54,123.34 202.01,123.03 203.48,122.95 204.95,122.82 206.42,122.66 207.89,122.61 209.36,122.61 210.83,122.61 212.30,122.35 213.77,122.33 215.24,122.17 216.71,122.11 218.18,122.00 219.65,121.59 221.12,121.57 222.59,121.51 224.06,121.50 225.53,121.44 227.00,121.44 228.47,121.42 229.94,121.42 231.41,121.42 232.88,121.42 234.35,121.42 235.82,121.42 237.29,121.42 238.76,121.29 240.23,120.92 241.70,120.63 243.17,120.55 244.64,120.38 246.11,120.37 247.58,120.34 249.05,120.33 250.52,120.33 251.99,120.33 253.46,120.25 254.93,120.17 256.40,120.14 257.87,120.12 259.34,120.10 260.81,119.83 262.28,119.64 263.75,119.36 265.22,119.19 266.69,119.06 268.16,119.00 269.63,118.93 271.10,118.92 272.57,118.86 274.04,118.68 275.51,118.68 276.98,118.68 278.45,118.67 279.92,118.66 281.39,118.66 282.86,118.57 284.33,118.54 285.80,118.53 287.27,118.52 288.74,118.50 290.21,118.50 291.68,118.50 293.15,118.50 294.62,118.50 296.09,118.50 297.57,118.50 299.04,118.50 300.51,118.46 301.98,118.43 303.45,118.43 304.92,118.21 306.39,118.20 307.86,118.19 309.33,118.16 310.80,118.05 312.27,117.79 313.74,117.75 315.21,117.75 316.68,117.75 318.15,117.75 319.62,117.75 321.09,117.75 322.56,117.75 324.03,117.75 325.50,117.75 326.97,117.75 328.44,117.75 329.91,117.75 331.38,117.75 332.85,117.74 334.32,117.67 335.79,117.65 337.26,117.65 338.73,117.65 340.20,117.65 341.67,117.61 343.14,117.61 344.61,117.42 346.08,117.24 347.55,117.24 349.02,117.24 350.49,117.24 351.96,117.24 353.43,117.22 354.90,117.22 356.37,117.20 357.84,117.12 359.31,117.05 360.78,116.73 362.25,116.72 363.72,116.24 365.19,115.96 366.66,115.75 368.13,115.08 369.60,114.91 371.07,114.84 372.54,114.61 374.01,114.27 375.48,114.19 376.95,114.08 378.42,113.89 379.89,113.73 381.36,113.65 382.83,113.54 384.30,113.46 385.77,113.25 387.24,113.06 388.71,112.84 390.18,112.47 391.65,112.26 393.12,111.22 394.59,110.44 396.06,109.94 397.53,109.50 399.00,109.02 400.47,109.02 401.94,109.02 403.42,109.02 404.89,108.72 406.36,108.55 407.83,107.91 409.30,107.20 410.77,106.37 412.24,105.12 413.71,104.24 415.18,102.44 416.65,101.36 418.12,100.63 419.59,99.46 421.06,98.71 422.53,97.23 424.00,94.98 425.47,94.30 426.94,93.43 428.41,92.59 429.88,92.31 431.35,91.23 432.82,91.04 434.29,89.76 435.76,88.59 437.23,87.89 438.70,87.09 440.17,86.04 441.64,85.76 443.11,85.66 444.58,85.55 446.05,85.48 447.52,84.81 448.99,83.95 450.46,82.89 451.93,82.60 453.40,81.75 454.87,80.65 456.34,78.46 457.81,76.85 459.28,74.86 460.75,74.34 462.22,73.28 463.69,71.33 465.16,70.22 466.63,69.61 468.10,68.76 469.57,68.20 471.04,67.39 472.51,67.02 473.98,66.20 475.45,64.64 476.92,62.92 478.39,62.40 479.86,61.43 481.33,59.65 482.80,58.74 484.27,56.53 485.74,55.48 487.21,53.56 488.68,51.69 490.15,49.43 491.62,46.04 493.09,43.80 494.56,41.87 496.03,40.63 497.50,39.03 498.97,37.59 500.44,36.89 501.91,35.72 503.38,34.30 504.85,33.75 506.32,32.71 507.79,31.82 509.26,30.95" />
    </svg>
  