
    <svg width="540" height="160" xmlns="http://www.w3.org/2000/svg">
      <style>.line{fill:none;stroke:#388bfd;stroke-width:1.5}.axis{stroke:#555;stroke-width:1;opacity:0.5}.label{fill:#999;font-family:sans-serif;font-size:10px;text-anchor:middle}</style>
      <line class="axis" x1="30" y1="30" x2="30" y2="130" />
      <line class="axis" x1="30" y1="130" x2="510" y2="130" />
      <text class="label" x="15" y="30">5,175</text>
      <text class="label" x="15" y="134">0</text>
      <text class="label" x="30" y="148">2021</text>
      <text class="label" x="510" y="148">2026</text>
      <polyline class="line" points="30.00,129.96 31.52,129.94 33.03,129.92 34.55,129.92 36.07,129.92 37.58,129.67 39.10,129.67 40.62,129.67 42.13,128.28 43.65,125.98 45.17,125.86 46.68,125.86 48.20,125.86 49.72,125.86 51.23,125.86 52.75,125.86 54.27,125.86 55.78,125.86 57.30,125.86 58.82,125.86 60.33,125.86 61.85,125.86 63.36,125.86 64.88,125.86 66.40,125.86 67.91,125.86 69.43,125.86 70.95,124.55 72.46,124.55 73.98,124.53 75.50,124.53 77.01,124.53 78.53,124.53 80.05,124.45 81.56,124.45 83.08,124.45 84.60,124.45 86.11,124.45 87.63,124.45 89.15,124.45 90.66,124.45 92.18,124.45 93.70,124.45 95.21,124.45 96.73,124.45 98.25,124.45 99.76,124.45 101.28,124.45 102.80,124.45 104.31,124.45 105.83,124.45 107.35,124.38 108.86,123.20 110.38,122.12 111.90,121.67 113.41,119.53 114.93,119.53 116.45,119.53 117.96,119.53 119.48,119.53 121.00,119.53 122.51,119.53 124.03,119.53 125.55,119.53 127.06,119.53 128.58,119.53 130.09,119.53 131.61,119.37 133.13,119.37 134.64,119.37 136.16,119.18 137.68,119.18 139.19,119.18 140.71,119.18 142.23,119.12 143.74,119.12 145.26,119.12 146.78,119.12 148.29,119.08 149.81,119.08 151.33,119.08 152.84,119.08 154.36,119.08 155.88,119.08 157.39,119.08 158.91,119.08 160.43,119.08 161.94,119.08 163.46,119.08 164.98,119.08 166.49,119.08 168.01,119.08 169.53,119.08 171.04,119.08 172.56,119.08 174.08,119.08 175.59,119.08 177.11,119.08 178.63,119.08 180.14,119.08 181.66,119.08 183.18,119.02 184.69,119.02 186.21,119.02 187.73,119.02 189.24,119.02 190.76,119.02 192.27,119.02 193.79,119.02 195.31,119.02 196.82,119.02 198.34,119.02 199.86,119.02 201.37,119.02 202.89,119.02 204.41,119.02 205.92,118.99 207.44,118.48 208.96,118.35 210.47,118.14 211.99,117.86 213.51,117.79 215.02,117.79 216.54,117.79 218.06,117.36 219.57,117.32 221.09,117.05 222.61,116.96 224.12,116.78 225.64,116.11 227.16,116.07 228.67,115.97 230.19,115.95 231.71,115.86 233.22,115.86 234.74,115.82 236.26,115.82 237.77,115.82 239.29,115.82 240.81,115.82 242.32,115.82 243.84,115.82 245.36,115.60 246.87,114.99 248.39,114.52 249.91,114.39 251.42,114.10 252.94,114.08 254.45,114.04 255.97,114.02 257.49,114.02 259.00,114.02 260.52,113.88 262.04,113.75 263.55,113.71 265.07,113.67 266.59,113.63 268.10,113.19 269.62,112.88 271.14,112.42 272.65,112.13 274.17,111.91 275.69,111.82 277.20,111.70 278.72,111.68 280.24,111.58 281.75,111.29 283.27,111.29 284.79,111.29 286.30,111.28 287.82,111.26 289.34,111.26 290.85,111.10 292.37,111.06 293.89,111.04 295.40,111.02 296.92,110.99 298.44,110.99 299.95,110.99 301.47,110.99 302.99,110.99 304.50,110.99 306.02,110.99 307.54,110.99 309.05,110.93 310.57,110.87 312.09,110.87 313.60,110.52 315.12,110.50 316.64,110.48 318.15,110.43 319.67,110.25 321.18,109.83 322.70,109.75 324.22,109.75 325.73,109.75 327.25,109.75 328.77,109.75 330.28,109.75 331.80,109.75 333.32,109.75 334.83,109.75 336.35,109.75 337.87,109.75 339.38,109.75 340.90,109.75 342.42,109.73 343.93,109.61 345.45,109.59 346.97,109.59 348.48,109.59 350.00,109.59 351.52,109.52 353.03,109.52 354.55,109.21 356.07,108.92 357.58,108.92 359.10,108.92 360.62,108.92 362.13,108.92 363.65,108.88 365.17,108.88 366.68,108.84 368.20,108.71 369.72,108.59 371.23,108.07 372.75,108.05 374.27,107.26 375.78,106.79 377.30,106.44 378.82,105.34 380.33,105.05 381.85,104.94 383.36,104.57 384.88,104.01 386.40,103.87 387.91,103.68 389.43,103.37 390.95,103.10 392.46,102.99 393.98,102.79 395.50,102.66 397.01,102.31 398.53,102.00 400.05,101.63 401.56,101.03 403.08,100.69 404.60,98.97 406.11,97.67 407.63,96.84 409.15,96.13 410.66,95.33 412.18,95.33 413.70,95.33 415.21,95.33 416.73,94.83 418.25,94.54 419.76,93.90 421.28,93.17 422.80,92.16 424.31,90.58 425.83,89.69 427.35,88.07 428.86,87.12 430.38,86.52 431.90,85.54 433.41,84.76 434.93,83.45 436.45,81.54 437.96,80.98 439.48,80.16 441.00,79.47 442.51,79.24 444.03,78.35 445.55,78.19 447.06,77.13 448.58,76.16 450.09,75.58 451.61,74.91 453.13,73.98 454.64,73.71 456.16,73.57 457.68,73.44 459.19,73.32 460.71,72.59 462.23,71.76 463.74,70.44 465.26,70.06 466.78,69.38 468.29,68.28 469.81,65.83 471.33,63.97 472.84,61.90 474.36,61.46 475.88,60.55 477.39,58.71 478.91,57.59 480.43,56.98 481.94,56.05 483.46,55.57 484.98,54.89 486.49,54.58 488.01,53.54 489.53,51.97 491.04,50.48 492.56,50.04 494.08,49.27 495.59,47.87 497.11,46.83 498.63,45.29 500.14,44.49 501.66,42.91 503.18,40.80 504.69,39.00 506.21,35.20 507.73,32.51 509.24,30.66" />
    </svg>
  