
    <svg width="540" height="160" xmlns="http://www.w3.org/2000/svg">
      <style>.line{fill:none;stroke:#388bfd;stroke-width:1.5}.axis{stroke:#555;stroke-width:1;opacity:0.5}.label{fill:#999;font-family:sans-serif;font-size:10px;text-anchor:middle}</style>
      <line class="axis" x1="30" y1="30" x2="30" y2="130" />
      <line class="axis" x1="30" y1="130" x2="510" y2="130" />
      <text class="label" x="15" y="30">8,080</text>
      <text class="label" x="15" y="134">0</text>
      <text class="label" x="30" y="148">2021</text>
      <text class="label" x="510" y="148">2026</text>
      <polyline class="line" points="30.00,129.98 31.48,129.96 32.96,129.95 34.44,129.95 35.92,129.95 37.40,129.79 38.88,129.79 40.35,129.79 41.83,128.90 43.31,127.43 44.79,127.35 46.27,127.35 47.75,127.35 49.23,127.35 50.71,127.35 52.19,127.35 53.67,127.35 55.15,127.35 56.63,127.35 58.10,127.35 59.58,127.35 61.06,127.35 62.54,127.35 64.02,127.35 65.50,127.35 66.98,127.35 68.46,127.35 69.94,126.51 71.42,126.51 72.90,126.50 74.38,126.50 75.86,126.50 77.33,126.50 78.81,126.45 80.29,126.45 81.77,126.45 83.25,126.45 84.73,126.45 86.21,126.45 87.69,126.45 89.17,126.45 90.65,126.45 92.13,126.45 93.61,126.45 95.08,126.45 96.56,126.45 98.04,126.45 99.52,126.45 101.00,126.45 102.48,126.45 103.96,126.45 105.44,126.40 106.92,125.64 108.40,124.95 109.88,124.67 111.36,123.29 112.84,123.29 114.31,123.29 115.79,123.29 117.27,123.29 118.75,123.29 120.23,123.29 121.71,123.29 123.19,123.29 124.67,123.29 126.15,123.29 127.63,123.29 129.11,123.19 130.59,123.19 132.06,123.19 133.54,123.07 135.02,123.07 136.50,123.07 137.98,123.07 139.46,123.03 140.94,123.03 142.42,123.03 143.90,123.03 145.38,123.01 146.86,123.01 148.34,123.01 149.82,123.01 151.29,123.01 152.77,123.01 154.25,123.01 155.73,123.01 157.21,123.01 158.69,123.01 160.17,123.01 161.65,123.01 163.13,123.01 164.61,123.01 166.09,123.01 167.57,123.01 169.04,123.01 170.52,123.01 172.00,123.01 173.48,123.01 174.96,123.01 176.44,123.01 177.92,123.01 179.40,122.97 180.88,122.97 182.36,122.97 183.84,122.97 185.32,122.97 186.80,122.97 188.27,122.97 189.75,122.97 191.23,122.97 192.71,122.97 194.19,122.97 195.67,122.97 197.15,122.97 198.63,122.97 200.11,122.97 201.59,122.95 203.07,122.62 204.55,122.54 206.02,122.40 207.50,122.23 208.98,122.18 210.46,122.18 211.94,122.18 213.42,121.91 214.90,121.88 216.38,121.71 217.86,121.65 219.34,121.53 220.82,121.10 222.30,121.08 223.78,121.01 225.25,121.00 226.73,120.94 228.21,120.94 229.69,120.92 231.17,120.92 232.65,120.92 234.13,120.92 235.61,120.92 237.09,120.92 238.57,120.92 240.05,120.78 241.53,120.38 243.00,120.09 244.48,120.00 245.96,119.81 247.44,119.80 248.92,119.78 250.40,119.76 251.88,119.76 253.36,119.76 254.84,119.68 256.32,119.59 257.80,119.57 259.28,119.54 260.76,119.52 262.23,119.23 263.71,119.03 265.19,118.74 266.67,118.55 268.15,118.42 269.63,118.35 271.11,118.28 272.59,118.27 274.07,118.21 275.55,118.02 277.03,118.02 278.51,118.02 279.98,118.01 281.46,118.00 282.94,118.00 284.42,117.90 285.90,117.87 287.38,117.86 288.86,117.85 290.34,117.82 291.82,117.82 293.30,117.82 294.78,117.82 296.26,117.82 297.73,117.82 299.21,117.82 300.69,117.82 302.17,117.78 303.65,117.75 305.13,117.75 306.61,117.52 308.09,117.51 309.57,117.50 311.05,117.46 312.53,117.35 314.01,117.08 315.49,117.03 316.96,117.03 318.44,117.03 319.92,117.03 321.40,117.03 322.88,117.03 324.36,117.03 325.84,117.03 327.32,117.03 328.80,117.03 330.28,117.03 331.76,117.03 333.24,117.03 334.71,117.02 336.19,116.94 337.67,116.93 339.15,116.93 340.63,116.93 342.11,116.93 343.59,116.88 345.07,116.88 346.55,116.68 348.03,116.50 349.51,116.50 350.99,116.50 352.47,116.50 353.94,116.50 355.42,116.47 356.90,116.47 358.38,116.45 359.86,116.36 361.34,116.29 362.82,115.95 364.30,115.94 365.78,115.43 367.26,115.14 368.74,114.91 370.22,114.21 371.69,114.02 373.17,113.95 374.65,113.71 376.13,113.35 377.61,113.27 379.09,113.14 380.57,112.95 382.05,112.77 383.53,112.70 385.01,112.57 386.49,112.49 387.97,112.26 389.45,112.07 390.92,111.83 392.40,111.45 393.88,111.23 395.36,110.12 396.84,109.29 398.32,108.76 399.80,108.30 401.28,107.80 402.76,107.80 404.24,107.80 405.72,107.80 407.20,107.48 408.67,107.29 410.15,106.62 411.63,105.87 413.11,104.99 414.59,103.66 416.07,102.74 417.55,100.83 419.03,99.68 420.51,98.91 421.99,97.67 423.47,96.88 424.95,95.31 426.43,92.93 427.90,92.22 429.38,91.29 430.86,90.40 432.34,90.10 433.82,88.96 435.30,88.76 436.78,87.40 438.26,86.16 439.74,85.42 441.22,84.58 442.70,83.47 444.18,83.17 445.65,83.07 447.13,82.95 448.61,82.87 450.09,82.17 451.57,81.25 453.05,80.14 454.53,79.83 456.01,78.92 457.49,77.76 458.97,75.45 460.45,73.74 461.93,71.63 463.41,71.08 464.88,69.96 466.36,67.90 467.84,66.72 469.32,66.08 470.80,65.17 472.28,64.58 473.76,63.73 475.24,63.33 476.72,62.46 478.20,60.82 479.68,59.00 481.16,58.44 482.63,57.50 484.11,55.99 485.59,55.10 487.07,53.29 488.55,52.34 490.03,50.48 491.51,48.60 492.99,46.62 494.47,43.27 495.95,41.00 497.43,39.05 498.91,37.78 500.39,36.18 501.86,34.74 503.34,34.06 504.82,32.85 506.30,31.40 507.78,31.08 509.26,30.16" />
    </svg>
  