
    <svg width="540" height="160" xmlns="http://www.w3.org/2000/svg">
      <style>.line{fill:none;stroke:#388bfd;stroke-width:1.5}.axis{stroke:#555;stroke-width:1;opacity:0.5}.label{fill:#999;font-family:sans-serif;font-size:10px;text-anchor:middle}</style>
      <line class="axis" x1="30" y1="30" x2="30" y2="130" />
      <line class="axis" x1="30" y1="130" x2="510" y2="130" />
      <text class="label" x="15" y="30">8,687</text>
      <text class="label" x="15" y="134">0</text>
      <text class="label" x="30" y="148">2021</text>
      <text class="label" x="510" y="148">2026</text>
      <polyline class="line" points="30.00,129.98 31.46,129.97 32.93,129.95 34.39,129.95 35.86,129.95 37.32,129.80 38.79,129.80 40.25,129.80 41.72,128.98 43.18,127.61 44.65,127.54 46.11,127.54 47.58,127.54 49.04,127.54 50.51,127.54 51.97,127.54 53.44,127.54 54.90,127.54 56.37,127.54 57.83,127.54 59.30,127.54 60.76,127.54 62.23,127.54 63.69,127.54 65.16,127.54 66.62,127.54 68.09,127.54 69.55,126.75 71.02,126.75 72.48,126.74 73.95,126.74 75.41,126.74 76.88,126.74 78.34,126.70 79.81,126.70 81.27,126.70 82.74,126.70 84.20,126.70 85.67,126.70 87.13,126.70 88.60,126.70 90.06,126.70 91.53,126.70 92.99,126.70 94.46,126.70 95.92,126.70 97.39,126.70 98.85,126.70 100.32,126.70 101.78,126.70 103.25,126.70 104.71,126.65 106.17,125.95 107.64,125.30 109.10,125.04 110.57,123.76 112.03,123.76 113.50,123.76 114.96,123.76 116.43,123.76 117.89,123.76 119.36,123.76 120.82,123.76 122.29,123.76 123.75,123.76 125.22,123.76 126.68,123.76 128.15,123.67 129.61,123.67 131.08,123.67 132.54,123.55 134.01,123.55 135.47,123.55 136.94,123.55 138.40,123.52 139.87,123.52 141.33,123.52 142.80,123.52 144.26,123.50 145.73,123.50 147.19,123.50 148.66,123.50 150.12,123.50 151.59,123.50 153.05,123.50 154.52,123.50 155.98,123.50 157.45,123.50 158.91,123.50 160.38,123.50 161.84,123.50 163.31,123.50 164.77,123.50 166.24,123.50 167.70,123.50 169.17,123.50 170.63,123.50 172.10,123.50 173.56,123.50 175.03,123.50 176.49,123.50 177.96,123.46 179.42,123.46 180.89,123.46 182.35,123.46 183.81,123.46 185.28,123.46 186.74,123.46 188.21,123.46 189.67,123.46 191.14,123.46 192.60,123.46 194.07,123.46 195.53,123.46 197.00,123.46 198.46,123.46 199.93,123.44 201.39,123.14 202.86,123.06 204.32,122.93 205.79,122.77 207.25,122.72 208.72,122.72 210.18,122.72 211.65,122.47 213.11,122.45 214.58,122.29 216.04,122.23 217.51,122.13 218.97,121.72 220.44,121.70 221.90,121.64 223.37,121.63 224.83,121.57 226.30,121.57 227.76,121.55 229.23,121.55 230.69,121.55 232.16,121.55 233.62,121.55 235.09,121.55 236.55,121.55 238.02,121.42 239.48,121.06 240.95,120.78 242.41,120.70 243.88,120.53 245.34,120.51 246.81,120.49 248.27,120.48 249.74,120.48 251.20,120.48 252.67,120.40 254.13,120.32 255.60,120.30 257.06,120.27 258.52,120.25 259.99,119.99 261.45,119.80 262.92,119.52 264.38,119.35 265.85,119.23 267.31,119.17 268.78,119.10 270.24,119.09 271.71,119.03 273.17,118.86 274.64,118.86 276.10,118.86 277.57,118.85 279.03,118.83 280.50,118.83 281.96,118.74 283.43,118.72 284.89,118.71 286.36,118.70 287.82,118.67 289.29,118.67 290.75,118.67 292.22,118.67 293.68,118.67 295.15,118.67 296.61,118.67 298.08,118.67 299.54,118.64 301.01,118.60 302.47,118.60 303.94,118.40 305.40,118.38 306.87,118.37 308.33,118.34 309.80,118.24 311.26,117.98 312.73,117.94 314.19,117.94 315.66,117.94 317.12,117.94 318.59,117.94 320.05,117.94 321.52,117.94 322.98,117.94 324.45,117.94 325.91,117.94 327.38,117.94 328.84,117.94 330.31,117.94 331.77,117.92 333.23,117.86 334.70,117.84 336.16,117.84 337.63,117.84 339.09,117.84 340.56,117.80 342.02,117.80 343.49,117.61 344.95,117.44 346.42,117.44 347.88,117.44 349.35,117.44 350.81,117.44 352.28,117.42 353.74,117.42 355.21,117.39 356.67,117.31 358.14,117.25 359.60,116.93 361.07,116.92 362.53,116.45 364.00,116.17 365.46,115.97 366.93,115.31 368.39,115.14 369.86,115.07 371.32,114.85 372.79,114.52 374.25,114.44 375.72,114.32 377.18,114.14 378.65,113.98 380.11,113.91 381.58,113.79 383.04,113.71 384.51,113.50 385.97,113.32 387.44,113.10 388.90,112.74 390.37,112.54 391.83,111.51 393.30,110.74 394.76,110.25 396.23,109.82 397.69,109.35 399.16,109.35 400.62,109.35 402.09,109.35 403.55,109.05 405.02,108.88 406.48,108.25 407.95,107.55 409.41,106.74 410.87,105.50 412.34,104.64 413.80,102.87 415.27,101.80 416.73,101.08 418.20,99.93 419.66,99.20 421.13,97.73 422.59,95.52 424.06,94.86 425.52,93.99 426.99,93.16 428.45,92.89 429.92,91.83 431.38,91.64 432.85,90.38 434.31,89.23 435.78,88.54 437.24,87.75 438.71,86.72 440.17,86.44 441.64,86.35 443.10,86.23 444.57,86.16 446.03,85.51 447.50,84.66 448.96,83.62 450.43,83.33 451.89,82.49 453.36,81.41 454.82,79.26 456.29,77.67 457.75,75.71 459.22,75.19 460.68,74.16 462.15,72.24 463.61,71.14 465.08,70.54 466.54,69.70 468.01,69.15 469.47,68.36 470.94,67.99 472.40,67.18 473.87,65.65 475.33,63.96 476.80,63.44 478.26,62.49 479.73,60.74 481.19,59.84 482.66,57.66 484.12,56.63 485.58,54.74 487.05,52.90 488.51,50.67 489.98,47.34 491.44,45.13 492.91,43.23 494.37,42.01 495.84,40.43 497.30,39.01 498.77,38.32 500.23,37.17 501.70,35.78 503.16,35.24 504.63,34.21 506.09,33.34 507.56,32.47 509.02,31.36" />
    </svg>
  