
    <svg width="540" height="160" xmlns="http://www.w3.org/2000/svg">
      <style>.line{fill:none;stroke:#388bfd;stroke-width:1.5}.axis{stroke:#555;stroke-width:1;opacity:0.5}.label{fill:#999;font-family:sans-serif;font-size:10px;text-anchor:middle}</style>
      <line class="axis" x1="30" y1="30" x2="30" y2="130" />
      <line class="axis" x1="30" y1="130" x2="510" y2="130" />
      <text class="label" x="15" y="30">4,935</text>
      <text class="label" x="15" y="134">0</text>
      <text class="label" x="30" y="148">2021</text>
      <text class="label" x="510" y="148">2026</text>
      <polyline class="line" points="30.00,129.96 31.53,129.94 33.06,129.92 34.58,129.92 36.11,129.92 37.64,129.66 39.17,129.66 40.69,129.66 42.22,128.20 43.75,125.79 45.28,125.66 46.81,125.66 48.33,125.66 49.86,125.66 51.39,125.66 52.92,125.66 54.45,125.66 55.97,125.66 57.50,125.66 59.03,125.66 60.56,125.66 62.08,125.66 63.61,125.66 65.14,125.66 66.67,125.66 68.20,125.66 69.72,125.66 71.25,124.29 72.78,124.29 74.31,124.27 75.84,124.27 77.36,124.27 78.89,124.27 80.42,124.18 81.95,124.18 83.47,124.18 85.00,124.18 86.53,124.18 88.06,124.18 89.59,124.18 91.11,124.18 92.64,124.18 94.17,124.18 95.70,124.18 97.23,124.18 98.75,124.18 100.28,124.18 101.81,124.18 103.34,124.18 104.86,124.18 106.39,124.18 107.92,124.10 109.45,122.87 110.98,121.73 112.50,121.27 114.03,119.02 115.56,119.02 117.09,119.02 118.62,119.02 120.14,119.02 121.67,119.02 123.20,119.02 124.73,119.02 126.25,119.02 127.78,119.02 129.31,119.02 130.84,119.02 132.37,118.86 133.89,118.86 135.42,118.86 136.95,118.65 138.48,118.65 140.01,118.65 141.53,118.65 143.06,118.59 144.59,118.59 146.12,118.59 147.64,118.59 149.17,118.55 150.70,118.55 152.23,118.55 153.76,118.55 155.28,118.55 156.81,118.55 158.34,118.55 159.87,118.55 161.40,118.55 162.92,118.55 164.45,118.55 165.98,118.55 167.51,118.55 169.03,118.55 170.56,118.55 172.09,118.55 173.62,118.55 175.15,118.55 176.67,118.55 178.20,118.55 179.73,118.55 181.26,118.55 182.79,118.55 184.31,118.49 185.84,118.49 187.37,118.49 188.90,118.49 190.42,118.49 191.95,118.49 193.48,118.49 195.01,118.49 196.54,118.49 198.06,118.49 199.59,118.49 201.12,118.49 202.65,118.49 204.18,118.49 205.70,118.49 207.23,118.45 208.76,117.92 210.29,117.78 211.81,117.56 213.34,117.27 214.87,117.19 216.40,117.19 217.93,117.19 219.45,116.75 220.98,116.71 222.51,116.42 224.04,116.32 225.56,116.14 227.09,115.43 228.62,115.39 230.15,115.29 231.68,115.27 233.20,115.17 234.73,115.17 236.26,115.13 237.79,115.13 239.32,115.13 240.84,115.13 242.37,115.13 243.90,115.13 245.43,115.13 246.95,114.90 248.48,114.26 250.01,113.77 251.54,113.63 253.07,113.32 254.59,113.30 256.12,113.26 257.65,113.24 259.18,113.24 260.71,113.24 262.23,113.10 263.76,112.96 265.29,112.92 266.82,112.88 268.34,112.84 269.87,112.37 271.40,112.05 272.93,111.56 274.46,111.26 275.98,111.03 277.51,110.93 279.04,110.81 280.57,110.79 282.10,110.69 283.62,110.39 285.15,110.39 286.68,110.39 288.21,110.36 289.73,110.34 291.26,110.34 292.79,110.18 294.32,110.14 295.85,110.12 297.37,110.10 298.90,110.06 300.43,110.06 301.96,110.06 303.49,110.06 305.01,110.06 306.54,110.06 308.07,110.06 309.60,110.06 311.12,110.00 312.65,109.94 314.18,109.94 315.71,109.57 317.24,109.55 318.76,109.53 320.29,109.47 321.82,109.29 323.35,108.84 324.88,108.76 326.40,108.76 327.93,108.76 329.46,108.76 330.99,108.76 332.51,108.76 334.04,108.76 335.57,108.76 337.10,108.76 338.63,108.76 340.15,108.76 341.68,108.76 343.21,108.76 344.74,108.74 346.27,108.62 347.79,108.60 349.32,108.60 350.85,108.60 352.38,108.60 353.90,108.52 355.43,108.52 356.96,108.20 358.49,107.89 360.02,107.89 361.54,107.89 363.07,107.89 364.60,107.89 366.13,107.85 367.66,107.85 369.18,107.81 370.71,107.67 372.24,107.55 373.77,107.00 375.29,106.98 376.82,106.15 378.35,105.66 379.88,105.30 381.41,104.14 382.93,103.84 384.46,103.72 385.99,103.33 387.52,102.75 389.05,102.60 390.57,102.40 392.10,102.08 393.63,101.79 395.16,101.67 396.68,101.47 398.21,101.33 399.74,100.96 401.27,100.64 402.80,100.25 404.32,99.63 405.85,99.26 407.38,97.46 408.91,96.10 410.44,95.23 411.96,94.48 413.49,93.65 415.02,93.65 416.55,93.65 418.07,93.65 419.60,93.12 421.13,92.82 422.66,92.15 424.19,91.38 425.71,90.32 427.24,88.66 428.77,87.73 430.30,86.03 431.82,85.04 433.35,84.41 434.88,83.37 436.41,82.56 437.94,81.19 439.46,79.18 440.99,78.59 442.52,77.74 444.05,77.01 445.58,76.77 447.10,75.84 448.63,75.67 450.16,74.56 451.69,73.55 453.21,72.94 454.74,72.23 456.27,71.26 457.80,70.97 459.33,70.83 460.85,70.69 462.38,70.57 463.91,69.80 465.44,68.93 466.97,67.55 468.49,67.14 470.02,66.43 471.55,65.28 473.08,62.71 474.60,60.76 476.13,58.59 477.66,58.13 479.19,57.17 480.72,55.25 482.24,54.07 483.77,53.42 485.30,52.45 486.83,51.95 488.36,51.24 489.88,50.91 491.41,49.82 492.94,48.18 494.47,46.62 495.99,46.15 497.52,45.34 499.05,43.88 500.58,42.79 502.11,41.17 503.63,40.33 505.16,38.67 506.69,36.46 508.22,34.58 509.75,30.59" />
    </svg>
  