
    <svg width="540" height="160" xmlns="http://www.w3.org/2000/svg">
      <style>.line{fill:none;stroke:#388bfd;stroke-width:1.5}.axis{stroke:#555;stroke-width:1;opacity:0.5}.label{fill:#999;font-family:sans-serif;font-size:10px;text-anchor:middle}</style>
      <line class="axis" x1="30" y1="30" x2="30" y2="130" />
      <line class="axis" x1="30" y1="130" x2="510" y2="130" />
      <text class="label" x="15" y="30">7,393</text>
      <text class="label" x="15" y="134">0</text>
      <text class="label" x="30" y="148">2021</text>
      <text class="label" x="510" y="148">2026</text>
      <polyline class="line" points="30.00,129.97 31.51,129.96 33.01,129.95 34.52,129.95 36.02,129.95 37.53,129.77 39.03,129.77 40.54,129.77 42.04,128.80 43.55,127.19 45.05,127.11 46.56,127.11 48.07,127.11 49.57,127.11 51.08,127.11 52.58,127.11 54.09,127.11 55.59,127.11 57.10,127.11 58.60,127.11 60.11,127.11 61.62,127.11 63.12,127.11 64.63,127.11 66.13,127.11 67.64,127.11 69.14,127.11 70.65,126.19 72.15,126.19 73.66,126.17 75.16,126.17 76.67,126.17 78.18,126.17 79.68,126.12 81.19,126.12 82.69,126.12 84.20,126.12 85.70,126.12 87.21,126.12 88.71,126.12 90.22,126.12 91.73,126.12 93.23,126.12 94.74,126.12 96.24,126.12 97.75,126.12 99.25,126.12 100.76,126.12 102.26,126.12 103.77,126.12 105.27,126.12 106.78,126.06 108.29,125.24 109.79,124.48 111.30,124.17 112.80,122.67 114.31,122.67 115.81,122.67 117.32,122.67 118.82,122.67 120.33,122.67 121.83,122.67 123.34,122.67 124.85,122.67 126.35,122.67 127.86,122.67 129.36,122.67 130.87,122.56 132.37,122.56 133.88,122.56 135.38,122.43 136.89,122.43 138.40,122.43 139.90,122.43 141.41,122.38 142.91,122.38 144.42,122.38 145.92,122.38 147.43,122.36 148.93,122.36 150.44,122.36 151.94,122.36 153.45,122.36 154.96,122.36 156.46,122.36 157.97,122.36 159.47,122.36 160.98,122.36 162.48,122.36 163.99,122.36 165.49,122.36 167.00,122.36 168.50,122.36 170.01,122.36 171.52,122.36 173.02,122.36 174.53,122.36 176.03,122.36 177.54,122.36 179.04,122.36 180.55,122.36 182.05,122.32 183.56,122.32 185.07,122.32 186.57,122.32 188.08,122.32 189.58,122.32 191.09,122.32 192.59,122.32 194.10,122.32 195.60,122.32 197.11,122.32 198.61,122.32 200.12,122.32 201.63,122.32 203.13,122.32 204.64,122.29 206.14,121.94 207.65,121.84 209.15,121.69 210.66,121.51 212.16,121.45 213.67,121.45 215.18,121.45 216.68,121.15 218.19,121.13 219.69,120.94 221.20,120.87 222.70,120.75 224.21,120.27 225.71,120.25 227.22,120.18 228.72,120.17 230.23,120.10 231.74,120.10 233.24,120.07 234.75,120.07 236.25,120.07 237.76,120.07 239.26,120.07 240.77,120.07 242.27,120.07 243.78,119.92 245.28,119.49 246.79,119.17 248.30,119.07 249.80,118.87 251.31,118.85 252.81,118.83 254.32,118.81 255.82,118.81 257.33,118.81 258.83,118.72 260.34,118.62 261.85,118.60 263.35,118.57 264.86,118.54 266.36,118.23 267.87,118.02 269.37,117.69 270.88,117.49 272.38,117.34 273.89,117.27 275.39,117.19 276.90,117.18 278.41,117.11 279.91,116.91 281.42,116.91 282.92,116.91 284.43,116.89 285.93,116.88 287.44,116.88 288.94,116.77 290.45,116.74 291.96,116.73 293.46,116.72 294.97,116.69 296.47,116.69 297.98,116.69 299.48,116.69 300.99,116.69 302.49,116.69 304.00,116.69 305.50,116.69 307.01,116.65 308.52,116.61 310.02,116.61 311.53,116.37 313.03,116.35 314.54,116.34 316.04,116.30 317.55,116.18 319.05,115.88 320.56,115.82 322.06,115.82 323.57,115.82 325.08,115.82 326.58,115.82 328.09,115.82 329.59,115.82 331.10,115.82 332.60,115.82 334.11,115.82 335.61,115.82 337.12,115.82 338.63,115.82 340.13,115.81 341.64,115.73 343.14,115.72 344.65,115.72 346.15,115.72 347.66,115.72 349.16,115.66 350.67,115.66 352.17,115.45 353.68,115.24 355.19,115.24 356.69,115.24 358.20,115.24 359.70,115.24 361.21,115.22 362.71,115.22 364.22,115.19 365.72,115.09 367.23,115.01 368.73,114.65 370.24,114.63 371.75,114.08 373.25,113.75 374.76,113.51 376.26,112.74 377.77,112.54 379.27,112.46 380.78,112.20 382.28,111.81 383.79,111.71 385.30,111.58 386.80,111.36 388.31,111.17 389.81,111.09 391.32,110.95 392.82,110.86 394.33,110.62 395.83,110.40 397.34,110.14 398.84,109.72 400.35,109.48 401.86,108.28 403.36,107.37 404.87,106.79 406.37,106.29 407.88,105.73 409.38,105.73 410.89,105.73 412.39,105.73 413.90,105.38 415.41,105.18 416.91,104.45 418.42,103.62 419.92,102.66 421.43,101.22 422.93,100.20 424.44,98.12 425.94,96.86 427.45,96.02 428.95,94.67 430.46,93.80 431.97,92.09 433.47,89.49 434.98,88.70 436.48,87.69 437.99,86.72 439.49,86.39 441.00,85.15 442.50,84.93 444.01,83.44 445.51,82.09 447.02,81.28 448.53,80.36 450.03,79.14 451.54,78.82 453.04,78.71 454.55,78.57 456.05,78.49 457.56,77.72 459.06,76.72 460.57,75.50 462.08,75.16 463.58,74.18 465.09,72.91 466.59,70.38 468.10,68.51 469.60,66.21 471.11,65.60 472.61,64.38 474.12,62.12 475.62,60.84 477.13,60.14 478.64,59.15 480.14,58.50 481.65,57.57 483.15,57.13 484.66,56.19 486.16,54.39 487.67,52.40 489.17,51.79 490.68,50.86 492.19,49.61 493.69,48.72 495.20,47.33 496.70,46.46 498.21,44.62 499.71,42.67 501.22,40.96 502.72,37.55 504.23,35.44 505.73,33.40 507.24,32.26 508.75,30.60" />
    </svg>
  