
    <svg width="540" height="160" xmlns="http://www.w3.org/2000/svg">
      <style>.line{fill:none;stroke:#388bfd;stroke-width:1.5}.axis{stroke:#555;stroke-width:1;opacity:0.5}.label{fill:#999;font-family:sans-serif;font-size:10px;text-anchor:middle}</style>
      <line class="axis" x1="30" y1="30" x2="30" y2="130" />
      <line class="axis" x1="30" y1="130" x2="510" y2="130" />
      <text class="label" x="15" y="30">9,362</text>
      <text class="label" x="15" y="134">0</text>
      <text class="label" x="30" y="148">2021</text>
      <text class="label" x="510" y="148">2026</text>
      <polyline class="line" points="30.00,129.98 31.44,129.97 32.88,129.96 34.32,129.96 35.76,129.96 37.20,129.82 38.64,129.82 40.09,129.82 41.53,129.05 42.97,127.78 44.41,127.71 45.85,127.71 47.29,127.71 48.73,127.71 50.17,127.71 51.61,127.71 53.05,127.71 54.49,127.71 55.93,127.71 57.37,127.71 58.81,127.71 60.26,127.71 61.70,127.71 63.14,127.71 64.58,127.71 66.02,127.71 67.46,127.71 68.90,126.99 70.34,126.99 71.78,126.98 73.22,126.98 74.66,126.98 76.10,126.98 77.54,126.93 78.98,126.93 80.43,126.93 81.87,126.93 83.31,126.93 84.75,126.93 86.19,126.93 87.63,126.93 89.07,126.93 90.51,126.93 91.95,126.93 93.39,126.93 94.83,126.93 96.27,126.93 97.71,126.93 99.15,126.93 100.60,126.93 102.04,126.93 103.48,126.89 104.92,126.24 106.36,125.64 107.80,125.40 109.24,124.21 110.68,124.21 112.12,124.21 113.56,124.21 115.00,124.21 116.44,124.21 117.88,124.21 119.32,124.21 120.77,124.21 122.21,124.21 123.65,124.21 125.09,124.21 126.53,124.13 127.97,124.13 129.41,124.13 130.85,124.02 132.29,124.02 133.73,124.02 135.17,124.02 136.61,123.99 138.05,123.99 139.49,123.99 140.94,123.99 142.38,123.96 143.82,123.96 145.26,123.96 146.70,123.96 148.14,123.96 149.58,123.96 151.02,123.96 152.46,123.96 153.90,123.96 155.34,123.96 156.78,123.96 158.22,123.96 159.66,123.96 161.11,123.96 162.55,123.96 163.99,123.96 165.43,123.96 166.87,123.96 168.31,123.96 169.75,123.96 171.19,123.96 172.63,123.96 174.07,123.96 175.51,123.93 176.95,123.93 178.39,123.93 179.83,123.93 181.28,123.93 182.72,123.93 184.16,123.93 185.60,123.93 187.04,123.93 188.48,123.93 189.92,123.93 191.36,123.93 192.80,123.93 194.24,123.93 195.68,123.93 197.12,123.91 198.56,123.63 200.01,123.56 201.45,123.44 202.89,123.29 204.33,123.25 205.77,123.25 207.21,123.25 208.65,123.01 210.09,122.99 211.53,122.84 212.97,122.79 214.41,122.69 215.85,122.32 217.29,122.30 218.73,122.25 220.18,122.23 221.62,122.18 223.06,122.18 224.50,122.16 225.94,122.16 227.38,122.16 228.82,122.16 230.26,122.16 231.70,122.16 233.14,122.16 234.58,122.04 236.02,121.70 237.46,121.44 238.90,121.37 240.35,121.21 241.79,121.20 243.23,121.18 244.67,121.17 246.11,121.17 247.55,121.17 248.99,121.09 250.43,121.02 251.87,121.00 253.31,120.97 254.75,120.95 256.19,120.71 257.63,120.54 259.07,120.28 260.52,120.12 261.96,120.00 263.40,119.95 264.84,119.88 266.28,119.87 267.72,119.82 269.16,119.66 270.60,119.66 272.04,119.66 273.48,119.65 274.92,119.64 276.36,119.64 277.80,119.55 279.24,119.53 280.69,119.52 282.13,119.51 283.57,119.49 285.01,119.49 286.45,119.49 287.89,119.49 289.33,119.49 290.77,119.49 292.21,119.49 293.65,119.49 295.09,119.46 296.53,119.43 297.97,119.43 299.41,119.23 300.86,119.22 302.30,119.21 303.74,119.18 305.18,119.08 306.62,118.85 308.06,118.81 309.50,118.81 310.94,118.81 312.38,118.81 313.82,118.81 315.26,118.81 316.70,118.81 318.14,118.81 319.58,118.81 321.03,118.81 322.47,118.81 323.91,118.81 325.35,118.81 326.79,118.80 328.23,118.73 329.67,118.72 331.11,118.72 332.55,118.72 333.99,118.72 335.43,118.68 336.87,118.68 338.31,118.51 339.75,118.35 341.20,118.35 342.64,118.35 344.08,118.35 345.52,118.35 346.96,118.33 348.40,118.33 349.84,118.30 351.28,118.23 352.72,118.16 354.16,117.88 355.60,117.87 357.04,117.43 358.48,117.17 359.92,116.98 361.37,116.37 362.81,116.21 364.25,116.15 365.69,115.94 367.13,115.63 368.57,115.56 370.01,115.45 371.45,115.28 372.89,115.13 374.33,115.07 375.77,114.96 377.21,114.89 378.65,114.69 380.10,114.52 381.54,114.32 382.98,113.99 384.42,113.80 385.86,112.85 387.30,112.13 388.74,111.67 390.18,111.28 391.62,110.84 393.06,110.84 394.50,110.84 395.94,110.84 397.38,110.56 398.82,110.40 400.27,109.82 401.71,109.17 403.15,108.41 404.59,107.27 406.03,106.47 407.47,104.82 408.91,103.83 410.35,103.17 411.79,102.10 413.23,101.42 414.67,100.06 416.11,98.01 417.55,97.39 418.99,96.59 420.44,95.82 421.88,95.56 423.32,94.58 424.76,94.41 426.20,93.23 427.64,92.17 429.08,91.53 430.52,90.80 431.96,89.84 433.40,89.58 434.84,89.50 436.28,89.39 437.72,89.32 439.16,88.72 440.61,87.93 442.05,86.96 443.49,86.70 444.93,85.92 446.37,84.91 447.81,82.92 449.25,81.44 450.69,79.63 452.13,79.15 453.57,78.18 455.01,76.40 456.45,75.39 457.89,74.83 459.33,74.05 460.78,73.54 462.22,72.80 463.66,72.46 465.10,71.71 466.54,70.29 467.98,68.72 469.42,68.24 470.86,67.35 472.30,65.73 473.74,64.90 475.18,62.88 476.62,61.92 478.06,60.16 479.50,58.46 480.95,56.39 482.39,53.30 483.83,51.25 485.27,49.48 486.71,48.35 488.15,46.89 489.59,45.57 491.03,44.93 492.47,43.86 493.91,42.57 495.35,41.85 496.79,40.73 498.23,39.89 499.67,39.09 501.12,37.88 502.56,35.68 504.00,33.92 505.44,32.44 506.88,31.21 508.32,30.76 509.76,30.18" />
    </svg>
  