
    <svg width="540" height="160" xmlns="http://www.w3.org/2000/svg">
      <style>.line{fill:none;stroke:#388bfd;stroke-width:1.5}.axis{stroke:#555;stroke-width:1;opacity:0.5}.label{fill:#999;font-family:sans-serif;font-size:10px;text-anchor:middle}</style>
      <line class="axis" x1="30" y1="30" x2="30" y2="130" />
      <line class="axis" x1="30" y1="130" x2="510" y2="130" />
      <text class="label" x="15" y="30">8,673</text>
      <text class="label" x="15" y="134">0</text>
      <text class="label" x="30" y="148">2021</text>
      <text class="label" x="510" y="148">2026</text>
      <polyline class="line" points="30.00,129.98 31.46,129.97 32.93,129.95 34.39,129.95 35.86,129.95 37.32,129.80 38.79,129.80 40.25,129.80 41.72,128.97 43.18,127.60 44.65,127.53 46.11,127.53 47.58,127.53 49.04,127.53 50.51,127.53 51.97,127.53 53.44,127.53 54.90,127.53 56.37,127.53 57.83,127.53 59.30,127.53 60.76,127.53 62.23,127.53 63.69,127.53 65.16,127.53 66.62,127.53 68.09,127.53 69.55,126.75 71.02,126.75 72.48,126.74 73.95,126.74 75.41,126.74 76.88,126.74 78.34,126.69 79.81,126.69 81.27,126.69 82.74,126.69 84.20,126.69 85.67,126.69 87.13,126.69 88.60,126.69 90.06,126.69 91.53,126.69 92.99,126.69 94.46,126.69 95.92,126.69 97.39,126.69 98.85,126.69 100.32,126.69 101.78,126.69 103.25,126.69 104.71,126.64 106.17,125.94 107.64,125.30 109.10,125.03 110.57,123.75 112.03,123.75 113.50,123.75 114.96,123.75 116.43,123.75 117.89,123.75 119.36,123.75 120.82,123.75 122.29,123.75 123.75,123.75 125.22,123.75 126.68,123.75 128.15,123.66 129.61,123.66 131.08,123.66 132.54,123.54 134.01,123.54 135.47,123.54 136.94,123.54 138.40,123.51 139.87,123.51 141.33,123.51 142.80,123.51 144.26,123.49 145.73,123.49 147.19,123.49 148.66,123.49 150.12,123.49 151.59,123.49 153.05,123.49 154.52,123.49 155.98,123.49 157.45,123.49 158.91,123.49 160.38,123.49 161.84,123.49 163.31,123.49 164.77,123.49 166.24,123.49 167.70,123.49 169.17,123.49 170.63,123.49 172.10,123.49 173.56,123.49 175.03,123.49 176.49,123.49 177.96,123.45 179.42,123.45 180.89,123.45 182.35,123.45 183.81,123.45 185.28,123.45 186.74,123.45 188.21,123.45 189.67,123.45 191.14,123.45 192.60,123.45 194.07,123.45 195.53,123.45 197.00,123.45 198.46,123.45 199.93,123.43 201.39,123.13 202.86,123.05 204.32,122.92 205.79,122.76 207.25,122.71 208.72,122.71 210.18,122.71 211.65,122.46 213.11,122.44 214.58,122.27 216.04,122.22 217.51,122.11 218.97,121.71 220.44,121.69 221.90,121.63 223.37,121.62 224.83,121.56 226.30,121.56 227.76,121.54 229.23,121.54 230.69,121.54 232.16,121.54 233.62,121.54 235.09,121.54 236.55,121.54 238.02,121.41 239.48,121.04 240.95,120.76 242.41,120.68 243.88,120.51 245.34,120.50 246.81,120.48 248.27,120.46 249.74,120.46 251.20,120.46 252.67,120.38 254.13,120.30 255.60,120.28 257.06,120.26 258.52,120.23 259.99,119.97 261.45,119.78 262.92,119.51 264.38,119.33 265.85,119.21 267.31,119.15 268.78,119.08 270.24,119.07 271.71,119.01 273.17,118.84 274.64,118.84 276.10,118.84 277.57,118.83 279.03,118.82 280.50,118.82 281.96,118.72 283.43,118.70 284.89,118.69 286.36,118.68 287.82,118.65 289.29,118.65 290.75,118.65 292.22,118.65 293.68,118.65 295.15,118.65 296.61,118.65 298.08,118.65 299.54,118.62 301.01,118.59 302.47,118.59 303.94,118.38 305.40,118.37 306.87,118.35 308.33,118.32 309.80,118.22 311.26,117.96 312.73,117.92 314.19,117.92 315.66,117.92 317.12,117.92 318.59,117.92 320.05,117.92 321.52,117.92 322.98,117.92 324.45,117.92 325.91,117.92 327.38,117.92 328.84,117.92 330.31,117.92 331.77,117.90 333.23,117.84 334.70,117.82 336.16,117.82 337.63,117.82 339.09,117.82 340.56,117.78 342.02,117.78 343.49,117.59 344.95,117.42 346.42,117.42 347.88,117.42 349.35,117.42 350.81,117.42 352.28,117.40 353.74,117.40 355.21,117.37 356.67,117.29 358.14,117.22 359.60,116.91 361.07,116.90 362.53,116.43 364.00,116.15 365.46,115.94 366.93,115.29 368.39,115.11 369.86,115.05 371.32,114.83 372.79,114.49 374.25,114.41 375.72,114.30 377.18,114.11 378.65,113.95 380.11,113.88 381.58,113.77 383.04,113.68 384.51,113.48 385.97,113.29 387.44,113.07 388.90,112.72 390.37,112.51 391.83,111.48 393.30,110.71 394.76,110.21 396.23,109.79 397.69,109.32 399.16,109.32 400.62,109.32 402.09,109.32 403.55,109.02 405.02,108.84 406.48,108.22 407.95,107.52 409.41,106.70 410.87,105.46 412.34,104.60 413.80,102.82 415.27,101.75 416.73,101.04 418.20,99.88 419.66,99.15 421.13,97.68 422.59,95.47 424.06,94.80 425.52,93.93 426.99,93.10 428.45,92.83 429.92,91.77 431.38,91.58 432.85,90.31 434.31,89.16 435.78,88.47 437.24,87.68 438.71,86.65 440.17,86.37 441.64,86.28 443.10,86.16 444.57,86.09 446.03,85.44 447.50,84.58 448.96,83.55 450.43,83.26 451.89,82.42 453.36,81.33 454.82,79.18 456.29,77.58 457.75,75.62 459.22,75.11 460.68,74.07 462.15,72.14 463.61,71.05 465.08,70.45 466.54,69.61 468.01,69.05 469.47,68.26 470.94,67.89 472.40,67.08 473.87,65.55 475.33,63.85 476.80,63.33 478.26,62.38 479.73,60.62 481.19,59.72 482.66,57.55 484.12,56.51 485.58,54.62 487.05,52.77 488.51,50.55 489.98,47.20 491.44,44.99 492.91,43.09 494.37,41.86 495.84,40.28 497.30,38.87 498.77,38.17 500.23,37.02 501.70,35.63 503.16,35.08 504.63,34.06 506.09,33.18 507.56,32.32 509.02,31.20" />
    </svg>
  