
    <svg width="540" height="160" xmlns="http://www.w3.org/2000/svg">
      <style>.line{fill:none;stroke:#388bfd;stroke-width:1.5}.axis{stroke:#555;stroke-width:1;opacity:0.5}.label{fill:#999;font-family:sans-serif;font-size:10px;text-anchor:middle}</style>
      <line class="axis" x1="30" y1="30" x2="30" y2="130" />
      <line class="axis" x1="30" y1="130" x2="510" y2="130" />
      <text class="label" x="15" y="30">8,560</text>
      <text class="label" x="15" y="134">0</text>
      <text class="label" x="30" y="148">2021</text>
      <text class="label" x="510" y="148">2026</text>
      <polyline class="line" points="30.00,129.98 31.47,129.96 32.94,129.95 34.41,129.95 35.87,129.95 37.34,129.80 38.81,129.80 40.28,129.80 41.75,128.96 43.22,127.57 44.69,127.50 46.16,127.50 47.62,127.50 49.09,127.50 50.56,127.50 52.03,127.50 53.50,127.50 54.97,127.50 56.44,127.50 57.90,127.50 59.37,127.50 60.84,127.50 62.31,127.50 63.78,127.50 65.25,127.50 66.72,127.50 68.18,127.50 69.65,126.71 71.12,126.71 72.59,126.69 74.06,126.69 75.53,126.69 77.00,126.69 78.47,126.65 79.93,126.65 81.40,126.65 82.87,126.65 84.34,126.65 85.81,126.65 87.28,126.65 88.75,126.65 90.21,126.65 91.68,126.65 93.15,126.65 94.62,126.65 96.09,126.65 97.56,126.65 99.03,126.65 100.49,126.65 101.96,126.65 103.43,126.65 104.90,126.60 106.37,125.89 107.84,125.23 109.31,124.96 110.78,123.67 112.24,123.67 113.71,123.67 115.18,123.67 116.65,123.67 118.12,123.67 119.59,123.67 121.06,123.67 122.52,123.67 123.99,123.67 125.46,123.67 126.93,123.67 128.40,123.57 129.87,123.57 131.34,123.57 132.80,123.46 134.27,123.46 135.74,123.46 137.21,123.46 138.68,123.42 140.15,123.42 141.62,123.42 143.09,123.42 144.55,123.40 146.02,123.40 147.49,123.40 148.96,123.40 150.43,123.40 151.90,123.40 153.37,123.40 154.83,123.40 156.30,123.40 157.77,123.40 159.24,123.40 160.71,123.40 162.18,123.40 163.65,123.40 165.11,123.40 166.58,123.40 168.05,123.40 169.52,123.40 170.99,123.40 172.46,123.40 173.93,123.40 175.40,123.40 176.86,123.40 178.33,123.36 179.80,123.36 181.27,123.36 182.74,123.36 184.21,123.36 185.68,123.36 187.14,123.36 188.61,123.36 190.08,123.36 191.55,123.36 193.02,123.36 194.49,123.36 195.96,123.36 197.42,123.36 198.89,123.36 200.36,123.34 201.83,123.04 203.30,122.96 204.77,122.83 206.24,122.66 207.71,122.62 209.17,122.62 210.64,122.62 212.11,122.36 213.58,122.34 215.05,122.17 216.52,122.11 217.99,122.01 219.45,121.60 220.92,121.58 222.39,121.52 223.86,121.51 225.33,121.45 226.80,121.45 228.27,121.43 229.73,121.43 231.20,121.43 232.67,121.43 234.14,121.43 235.61,121.43 237.08,121.43 238.55,121.30 240.02,120.92 241.48,120.64 242.95,120.56 244.42,120.39 245.89,120.37 247.36,120.35 248.83,120.34 250.30,120.34 251.76,120.34 253.23,120.26 254.70,120.18 256.17,120.15 257.64,120.13 259.11,120.11 260.58,119.84 262.04,119.65 263.51,119.37 264.98,119.19 266.45,119.07 267.92,119.01 269.39,118.94 270.86,118.93 272.33,118.87 273.79,118.69 275.26,118.69 276.73,118.69 278.20,118.68 279.67,118.67 281.14,118.67 282.61,118.57 284.07,118.55 285.54,118.54 287.01,118.53 288.48,118.50 289.95,118.50 291.42,118.50 292.89,118.50 294.35,118.50 295.82,118.50 297.29,118.50 298.76,118.50 300.23,118.47 301.70,118.43 303.17,118.43 304.64,118.22 306.10,118.21 307.57,118.20 309.04,118.17 310.51,118.06 311.98,117.80 313.45,117.76 314.92,117.76 316.38,117.76 317.85,117.76 319.32,117.76 320.79,117.76 322.26,117.76 323.73,117.76 325.20,117.76 326.66,117.76 328.13,117.76 329.60,117.76 331.07,117.76 332.54,117.75 334.01,117.68 335.48,117.66 336.95,117.66 338.41,117.66 339.88,117.66 341.35,117.62 342.82,117.62 344.29,117.43 345.76,117.25 347.23,117.25 348.69,117.25 350.16,117.25 351.63,117.25 353.10,117.23 354.57,117.23 356.04,117.21 357.51,117.13 358.98,117.06 360.44,116.74 361.91,116.73 363.38,116.25 364.85,115.97 366.32,115.76 367.79,115.09 369.26,114.92 370.72,114.85 372.19,114.63 373.66,114.29 375.13,114.21 376.60,114.09 378.07,113.90 379.54,113.74 381.00,113.67 382.47,113.55 383.94,113.47 385.41,113.26 386.88,113.07 388.35,112.85 389.82,112.49 391.29,112.28 392.75,111.24 394.22,110.46 395.69,109.95 397.16,109.52 398.63,109.04 400.10,109.04 401.57,109.04 403.03,109.04 404.50,108.74 405.97,108.56 407.44,107.93 408.91,107.22 410.38,106.39 411.85,105.14 413.31,104.26 414.78,102.46 416.25,101.38 417.72,100.65 419.19,99.49 420.66,98.74 422.13,97.25 423.60,95.01 425.06,94.33 426.53,93.46 428.00,92.62 429.47,92.34 430.94,91.26 432.41,91.07 433.88,89.79 435.34,88.62 436.81,87.92 438.28,87.13 439.75,86.07 441.22,85.79 442.69,85.70 444.16,85.58 445.62,85.51 447.09,84.85 448.56,83.98 450.03,82.93 451.50,82.64 452.97,81.79 454.44,80.69 455.91,78.50 457.37,76.89 458.84,74.91 460.31,74.38 461.78,73.33 463.25,71.38 464.72,70.27 466.19,69.66 467.65,68.81 469.12,68.25 470.59,67.44 472.06,67.07 473.53,66.25 475.00,64.70 476.47,62.98 477.93,62.45 479.40,61.48 480.87,59.71 482.34,58.80 483.81,56.59 485.28,55.54 486.75,53.62 488.22,51.75 489.68,49.50 491.15,46.11 492.62,43.87 494.09,41.94 495.56,40.70 497.03,39.10 498.50,37.66 499.96,36.96 501.43,35.79 502.90,34.38 504.37,33.83 505.84,32.79 507.31,31.90 508.78,31.03" />
    </svg>
  