
    <svg width="540" height="160" xmlns="http://www.w3.org/2000/svg">
      <style>.line{fill:none;stroke:#388bfd;stroke-width:1.5}.axis{stroke:#555;stroke-width:1;opacity:0.5}.label{fill:#999;font-family:sans-serif;font-size:10px;text-anchor:middle}</style>
      <line class="axis" x1="30" y1="30" x2="30" y2="130" />
      <line class="axis" x1="30" y1="130" x2="510" y2="130" />
      <text class="label" x="15" y="30">8,520</text>
      <text class="label" x="15" y="134">0</text>
      <text class="label" x="30" y="148">2021</text>
      <text class="label" x="510" y="148">2026</text>
      <polyline class="line" points="30.00,129.98 31.47,129.96 32.94,129.95 34.41,129.95 35.88,129.95 37.35,129.80 38.82,129.80 40.29,129.80 41.76,128.96 43.23,127.56 44.70,127.49 46.17,127.49 47.64,127.49 49.11,127.49 50.58,127.49 52.05,127.49 53.52,127.49 54.99,127.49 56.46,127.49 57.93,127.49 59.40,127.49 60.87,127.49 62.34,127.49 63.81,127.49 65.28,127.49 66.75,127.49 68.22,127.49 69.69,126.69 71.16,126.69 72.63,126.68 74.10,126.68 75.57,126.68 77.04,126.68 78.51,126.63 79.98,126.63 81.45,126.63 82.92,126.63 84.40,126.63 85.87,126.63 87.34,126.63 88.81,126.63 90.28,126.63 91.75,126.63 93.22,126.63 94.69,126.63 96.16,126.63 97.63,126.63 99.10,126.63 100.57,126.63 102.04,126.63 103.51,126.63 104.98,126.58 106.45,125.87 107.92,125.21 109.39,124.94 110.86,123.64 112.33,123.64 113.80,123.64 115.27,123.64 116.74,123.64 118.21,123.64 119.68,123.64 121.15,123.64 122.62,123.64 124.09,123.64 125.56,123.64 127.03,123.64 128.50,123.54 129.97,123.54 131.44,123.54 132.91,123.43 134.38,123.43 135.85,123.43 137.32,123.43 138.79,123.39 140.26,123.39 141.73,123.39 143.20,123.39 144.67,123.37 146.14,123.37 147.61,123.37 149.08,123.37 150.55,123.37 152.02,123.37 153.49,123.37 154.96,123.37 156.43,123.37 157.90,123.37 159.37,123.37 160.84,123.37 162.31,123.37 163.78,123.37 165.25,123.37 166.72,123.37 168.19,123.37 169.66,123.37 171.13,123.37 172.60,123.37 174.07,123.37 175.54,123.37 177.01,123.37 178.48,123.33 179.95,123.33 181.42,123.33 182.89,123.33 184.36,123.33 185.83,123.33 187.30,123.33 188.77,123.33 190.25,123.33 191.72,123.33 193.19,123.33 194.66,123.33 196.13,123.33 197.60,123.33 199.07,123.33 200.54,123.31 202.01,123.00 203.48,122.92 204.95,122.79 206.42,122.63 207.89,122.58 209.36,122.58 210.83,122.58 212.30,122.32 213.77,122.30 215.24,122.14 216.71,122.08 218.18,121.97 219.65,121.56 221.12,121.54 222.59,121.48 224.06,121.47 225.53,121.41 227.00,121.41 228.47,121.38 229.94,121.38 231.41,121.38 232.88,121.38 234.35,121.38 235.82,121.38 237.29,121.38 238.76,121.26 240.23,120.88 241.70,120.60 243.17,120.52 244.64,120.34 246.11,120.33 247.58,120.31 249.05,120.29 250.52,120.29 251.99,120.29 253.46,120.21 254.93,120.13 256.40,120.11 257.87,120.08 259.34,120.06 260.81,119.79 262.28,119.60 263.75,119.32 265.22,119.14 266.69,119.01 268.16,118.96 269.63,118.88 271.10,118.87 272.57,118.81 274.04,118.64 275.51,118.64 276.98,118.64 278.45,118.63 279.92,118.62 281.39,118.62 282.86,118.52 284.33,118.50 285.80,118.49 287.27,118.47 288.74,118.45 290.21,118.45 291.68,118.45 293.15,118.45 294.62,118.45 296.09,118.45 297.57,118.45 299.04,118.45 300.51,118.42 301.98,118.38 303.45,118.38 304.92,118.17 306.39,118.16 307.86,118.15 309.33,118.11 310.80,118.00 312.27,117.75 313.74,117.70 315.21,117.70 316.68,117.70 318.15,117.70 319.62,117.70 321.09,117.70 322.56,117.70 324.03,117.70 325.50,117.70 326.97,117.70 328.44,117.70 329.91,117.70 331.38,117.70 332.85,117.69 334.32,117.62 335.79,117.61 337.26,117.61 338.73,117.61 340.20,117.61 341.67,117.56 343.14,117.56 344.61,117.37 346.08,117.19 347.55,117.19 349.02,117.19 350.49,117.19 351.96,117.19 353.43,117.17 354.90,117.17 356.37,117.15 357.84,117.07 359.31,117.00 360.78,116.68 362.25,116.67 363.72,116.19 365.19,115.90 366.66,115.69 368.13,115.02 369.60,114.85 371.07,114.78 372.54,114.55 374.01,114.21 375.48,114.13 376.95,114.01 378.42,113.83 379.89,113.66 381.36,113.59 382.83,113.47 384.30,113.39 385.77,113.18 387.24,112.99 388.71,112.77 390.18,112.41 391.65,112.19 393.12,111.15 394.59,110.36 396.06,109.86 397.53,109.42 399.00,108.94 400.47,108.94 401.94,108.94 403.42,108.94 404.89,108.64 406.36,108.46 407.83,107.83 409.30,107.11 410.77,106.28 412.24,105.02 413.71,104.14 415.18,102.34 416.65,101.24 418.12,100.52 419.59,99.34 421.06,98.59 422.53,97.10 424.00,94.85 425.47,94.17 426.94,93.29 428.41,92.44 429.88,92.16 431.35,91.08 432.82,90.89 434.29,89.60 435.76,88.43 437.23,87.72 438.70,86.92 440.17,85.87 441.64,85.59 443.11,85.49 444.58,85.38 446.05,85.31 447.52,84.64 448.99,83.77 450.46,82.71 451.93,82.42 453.40,81.56 454.87,80.46 456.34,78.26 457.81,76.64 459.28,74.65 460.75,74.12 462.22,73.06 463.69,71.10 465.16,69.99 466.63,69.38 468.10,68.52 469.57,67.96 471.04,67.15 472.51,66.77 473.98,65.95 475.45,64.39 476.92,62.66 478.39,62.14 479.86,61.16 481.33,59.38 482.80,58.46 484.27,56.24 485.74,55.19 487.21,53.26 488.68,51.38 490.15,49.12 491.62,45.72 493.09,43.46 494.56,41.53 496.03,40.28 497.50,38.67 498.97,37.23 500.44,36.53 501.91,35.35 503.38,33.93 504.85,33.38 506.32,32.34 507.79,31.44 509.26,30.56" />
    </svg>
  