
    <svg width="540" height="160" xmlns="http://www.w3.org/2000/svg">
      <style>.line{fill:none;stroke:#388bfd;stroke-width:1.5}.axis{stroke:#555;stroke-width:1;opacity:0.5}.label{fill:#999;font-family:sans-serif;font-size:10px;text-anchor:middle}</style>
      <line class="axis" x1="30" y1="30" x2="30" y2="130" />
      <line class="axis" x1="30" y1="130" x2="510" y2="130" />
      <text class="label" x="15" y="30">4,147</text>
      <text class="label" x="15" y="134">0</text>
      <text class="label" x="30" y="148">2021</text>
      <text class="label" x="510" y="148">2026</text>
      <polyline class="line" points="30.00,129.95 31.53,129.93 33.06,129.90 34.59,129.90 36.12,129.90 37.65,129.59 39.18,129.59 40.71,129.59 42.24,127.85 43.77,124.98 45.30,124.84 46.83,124.84 48.36,124.84 49.89,124.84 51.42,124.84 52.95,124.84 54.48,124.84 56.01,124.84 57.55,124.84 59.08,124.84 60.61,124.84 62.14,124.84 63.67,124.84 65.20,124.84 66.73,124.84 68.26,124.84 69.79,124.84 71.32,123.20 72.85,123.20 74.38,123.18 75.91,123.18 77.44,123.18 78.97,123.18 80.50,123.08 82.03,123.08 83.56,123.08 85.09,123.08 86.62,123.08 88.15,123.08 89.68,123.08 91.21,123.08 92.74,123.08 94.27,123.08 95.80,123.08 97.33,123.08 98.86,123.08 100.39,123.08 101.92,123.08 103.45,123.08 104.98,123.08 106.51,123.08 108.04,122.98 109.57,121.51 111.11,120.16 112.64,119.61 114.17,116.93 115.70,116.93 117.23,116.93 118.76,116.93 120.29,116.93 121.82,116.93 123.35,116.93 124.88,116.93 126.41,116.93 127.94,116.93 129.47,116.93 131.00,116.93 132.53,116.74 134.06,116.74 135.59,116.74 137.12,116.50 138.65,116.50 140.18,116.50 141.71,116.50 143.24,116.42 144.77,116.42 146.30,116.42 147.83,116.42 149.36,116.38 150.89,116.38 152.42,116.38 153.95,116.38 155.48,116.38 157.01,116.38 158.54,116.38 160.07,116.38 161.60,116.38 163.13,116.38 164.67,116.38 166.20,116.38 167.73,116.38 169.26,116.38 170.79,116.38 172.32,116.38 173.85,116.38 175.38,116.38 176.91,116.38 178.44,116.38 179.97,116.38 181.50,116.38 183.03,116.38 184.56,116.30 186.09,116.30 187.62,116.30 189.15,116.30 190.68,116.30 192.21,116.30 193.74,116.30 195.27,116.30 196.80,116.30 198.33,116.30 199.86,116.30 201.39,116.30 202.92,116.30 204.45,116.30 205.98,116.30 207.51,116.26 209.04,115.63 210.57,115.46 212.10,115.19 213.63,114.86 215.16,114.76 216.70,114.76 218.23,114.76 219.76,114.23 221.29,114.18 222.82,113.84 224.35,113.72 225.88,113.51 227.41,112.66 228.94,112.61 230.47,112.49 232.00,112.47 233.53,112.35 235.06,112.35 236.59,112.30 238.12,112.30 239.65,112.30 241.18,112.30 242.71,112.30 244.24,112.30 245.77,112.30 247.30,112.04 248.83,111.26 250.36,110.68 251.89,110.52 253.42,110.15 254.95,110.13 256.48,110.08 258.01,110.06 259.54,110.06 261.07,110.06 262.60,109.89 264.13,109.72 265.66,109.67 267.19,109.62 268.72,109.58 270.26,109.02 271.79,108.64 273.32,108.06 274.85,107.69 276.38,107.43 277.91,107.31 279.44,107.16 280.97,107.14 282.50,107.02 284.03,106.66 285.56,106.66 287.09,106.66 288.62,106.63 290.15,106.61 291.68,106.61 293.21,106.42 294.74,106.37 296.27,106.34 297.80,106.32 299.33,106.27 300.86,106.27 302.39,106.27 303.92,106.27 305.45,106.27 306.98,106.27 308.51,106.27 310.04,106.27 311.57,106.20 313.10,106.13 314.63,106.13 316.16,105.69 317.69,105.67 319.22,105.65 320.75,105.57 322.28,105.36 323.82,104.83 325.35,104.73 326.88,104.73 328.41,104.73 329.94,104.73 331.47,104.73 333.00,104.73 334.53,104.73 336.06,104.73 337.59,104.73 339.12,104.73 340.65,104.73 342.18,104.73 343.71,104.73 345.24,104.70 346.77,104.56 348.30,104.54 349.83,104.54 351.36,104.54 352.89,104.54 354.42,104.44 355.95,104.44 357.48,104.05 359.01,103.69 360.54,103.69 362.07,103.69 363.60,103.69 365.13,103.69 366.66,103.64 368.19,103.64 369.72,103.60 371.25,103.43 372.78,103.28 374.31,102.63 375.84,102.61 377.38,101.62 378.91,101.04 380.44,100.61 381.97,99.23 383.50,99.01 385.03,98.97 386.56,98.97 388.09,98.97 389.62,98.97 391.15,98.92 392.68,98.80 394.21,98.80 395.74,98.80 397.27,98.80 398.80,98.80 400.33,98.80 401.86,98.75 403.39,98.70 404.92,98.70 406.45,98.70 407.98,98.65 409.51,98.65 411.04,98.46 412.57,98.36 414.10,98.36 415.63,98.36 417.16,98.36 418.69,98.36 420.22,98.36 421.75,98.36 423.28,97.83 424.81,97.28 426.34,96.82 427.87,96.19 429.40,95.47 430.94,93.76 432.47,92.70 434.00,91.95 435.53,90.72 437.06,89.75 438.59,88.11 440.12,85.75 441.65,85.05 443.18,84.04 444.71,83.17 446.24,82.88 447.77,81.77 449.30,81.58 450.83,80.25 452.36,79.05 453.89,78.32 455.42,77.48 456.95,76.32 458.48,75.99 460.01,75.82 461.54,75.65 463.07,75.50 464.60,74.59 466.13,73.55 467.66,71.91 469.19,71.43 470.72,70.58 472.25,69.21 473.78,66.15 475.31,63.83 476.84,61.25 478.37,60.70 479.90,59.56 481.43,57.27 482.96,55.87 484.50,55.10 486.03,53.95 487.56,53.34 489.09,52.50 490.62,52.11 492.15,50.81 493.68,48.86 495.21,47.00 496.74,46.45 498.27,45.48 499.80,43.74 501.33,42.44 502.86,40.51 504.39,39.52 505.92,37.55 507.45,34.92 508.98,32.68" />
    </svg>
  