
    <svg width="540" height="160" xmlns="http://www.w3.org/2000/svg">
      <style>.line{fill:none;stroke:#388bfd;stroke-width:1.5}.axis{stroke:#555;stroke-width:1;opacity:0.5}.label{fill:#999;font-family:sans-serif;font-size:10px;text-anchor:middle}</style>
      <line class="axis" x1="30" y1="30" x2="30" y2="130" />
      <line class="axis" x1="30" y1="130" x2="510" y2="130" />
      <text class="label" x="15" y="30">9,523</text>
      <text class="label" x="15" y="134">0</text>
      <text class="label" x="30" y="148">2021</text>
      <text class="label" x="510" y="148">2026</text>
      <polyline class="line" points="30.00,129.98 31.43,129.97 32.85,129.96 34.28,129.96 35.71,129.96 37.14,129.82 38.56,129.82 39.99,129.82 41.42,129.07 42.84,127.82 44.27,127.75 45.70,127.75 47.13,127.75 48.55,127.75 49.98,127.75 51.41,127.75 52.83,127.75 54.26,127.75 55.69,127.75 57.12,127.75 58.54,127.75 59.97,127.75 61.40,127.75 62.82,127.75 64.25,127.75 65.68,127.75 67.11,127.75 68.53,127.04 69.96,127.04 71.39,127.03 72.81,127.03 74.24,127.03 75.67,127.03 77.10,126.99 78.52,126.99 79.95,126.99 81.38,126.99 82.80,126.99 84.23,126.99 85.66,126.99 87.09,126.99 88.51,126.99 89.94,126.99 91.37,126.99 92.79,126.99 94.22,126.99 95.65,126.99 97.08,126.99 98.50,126.99 99.93,126.99 101.36,126.99 102.78,126.94 104.21,126.30 105.64,125.72 107.07,125.47 108.49,124.31 109.92,124.31 111.35,124.31 112.78,124.31 114.20,124.31 115.63,124.31 117.06,124.31 118.48,124.31 119.91,124.31 121.34,124.31 122.77,124.31 124.19,124.31 125.62,124.22 127.05,124.22 128.47,124.22 129.90,124.12 131.33,124.12 132.76,124.12 134.18,124.12 135.61,124.09 137.04,124.09 138.46,124.09 139.89,124.09 141.32,124.07 142.75,124.07 144.17,124.07 145.60,124.07 147.03,124.07 148.45,124.07 149.88,124.07 151.31,124.07 152.74,124.07 154.16,124.07 155.59,124.07 157.02,124.07 158.44,124.07 159.87,124.07 161.30,124.07 162.73,124.07 164.15,124.07 165.58,124.07 167.01,124.07 168.43,124.07 169.86,124.07 171.29,124.07 172.72,124.07 174.14,124.04 175.57,124.04 177.00,124.04 178.42,124.04 179.85,124.04 181.28,124.04 182.71,124.04 184.13,124.04 185.56,124.04 186.99,124.04 188.41,124.04 189.84,124.04 191.27,124.04 192.70,124.04 194.12,124.04 195.55,124.01 196.98,123.74 198.40,123.67 199.83,123.55 201.26,123.41 202.69,123.36 204.11,123.36 205.54,123.36 206.97,123.13 208.39,123.11 209.82,122.96 211.25,122.91 212.68,122.82 214.10,122.45 215.53,122.43 216.96,122.38 218.38,122.37 219.81,122.31 221.24,122.31 222.67,122.29 224.09,122.29 225.52,122.29 226.95,122.29 228.37,122.29 229.80,122.29 231.23,122.29 232.66,122.18 234.08,121.84 235.51,121.59 236.94,121.52 238.36,121.36 239.79,121.35 241.22,121.33 242.65,121.32 244.07,121.32 245.50,121.32 246.93,121.24 248.35,121.17 249.78,121.15 251.21,121.13 252.64,121.11 254.06,120.86 255.49,120.70 256.92,120.44 258.34,120.29 259.77,120.17 261.20,120.12 262.63,120.06 264.05,120.05 265.48,119.99 266.91,119.84 268.33,119.84 269.76,119.84 271.19,119.82 272.62,119.81 274.04,119.81 275.47,119.73 276.90,119.71 278.33,119.70 279.75,119.69 281.18,119.67 282.61,119.67 284.03,119.67 285.46,119.67 286.89,119.67 288.32,119.67 289.74,119.67 291.17,119.67 292.60,119.64 294.02,119.60 295.45,119.60 296.88,119.42 298.31,119.40 299.73,119.39 301.16,119.36 302.59,119.27 304.01,119.04 305.44,119.00 306.87,119.00 308.30,119.00 309.72,119.00 311.15,119.00 312.58,119.00 314.00,119.00 315.43,119.00 316.86,119.00 318.29,119.00 319.71,119.00 321.14,119.00 322.57,119.00 323.99,118.98 325.42,118.92 326.85,118.91 328.28,118.91 329.70,118.91 331.13,118.91 332.56,118.87 333.98,118.87 335.41,118.70 336.84,118.54 338.27,118.54 339.69,118.54 341.12,118.54 342.55,118.54 343.97,118.52 345.40,118.52 346.83,118.50 348.26,118.43 349.68,118.37 351.11,118.08 352.54,118.07 353.96,117.64 355.39,117.39 356.82,117.20 358.25,116.60 359.67,116.44 361.10,116.38 362.53,116.18 363.95,115.88 365.38,115.80 366.81,115.70 368.24,115.53 369.66,115.38 371.09,115.32 372.52,115.21 373.94,115.14 375.37,114.95 376.80,114.78 378.23,114.58 379.65,114.26 381.08,114.07 382.51,113.14 383.93,112.43 385.36,111.98 386.79,111.59 388.22,111.16 389.64,111.16 391.07,111.16 392.50,111.16 393.92,110.89 395.35,110.73 396.78,110.16 398.21,109.52 399.63,108.78 401.06,107.65 402.49,106.87 403.91,105.25 405.34,104.27 406.77,103.62 408.20,102.57 409.62,101.90 411.05,100.57 412.48,98.55 413.90,97.94 415.33,97.15 416.76,96.40 418.19,96.15 419.61,95.18 421.04,95.01 422.47,93.86 423.89,92.81 425.32,92.18 426.75,91.46 428.18,90.52 429.60,90.26 431.03,90.18 432.46,90.08 433.89,90.01 435.31,89.41 436.74,88.64 438.17,87.69 439.59,87.43 441.02,86.66 442.45,85.68 443.88,83.71 445.30,82.26 446.73,80.48 448.16,80.01 449.58,79.06 451.01,77.31 452.44,76.31 453.87,75.76 455.29,75.00 456.72,74.49 458.15,73.77 459.57,73.43 461.00,72.70 462.43,71.30 463.86,69.76 465.28,69.28 466.71,68.41 468.14,66.82 469.56,66.00 470.99,64.01 472.42,63.07 473.85,61.35 475.27,59.67 476.70,57.64 478.13,54.59 479.55,52.58 480.98,50.84 482.41,49.73 483.84,48.29 485.26,47.00 486.69,46.37 488.12,45.32 489.54,44.05 490.97,43.34 492.40,42.24 493.83,41.41 495.25,40.63 496.68,39.44 498.11,37.28 499.53,35.54 500.96,34.08 502.39,32.88 503.82,32.44 505.24,31.87 506.67,31.41 508.10,30.88 509.52,30.15" />
    </svg>
  