
    <svg width="540" height="160" xmlns="http://www.w3.org/2000/svg">
      <style>.line{fill:none;stroke:#388bfd;stroke-width:1.5}.axis{stroke:#555;stroke-width:1;opacity:0.5}.label{fill:#999;font-family:sans-serif;font-size:10px;text-anchor:middle}</style>
      <line class="axis" x1="30" y1="30" x2="30" y2="130" />
      <line class="axis" x1="30" y1="130" x2="510" y2="130" />
      <text class="label" x="15" y="30">9,319</text>
      <text class="label" x="15" y="134">0</text>
      <text class="label" x="30" y="148">2021</text>
      <text class="label" x="510" y="148">2026</text>
      <polyline class="line" points="30.00,129.98 31.44,129.97 32.88,129.96 34.33,129.96 35.77,129.96 37.21,129.82 38.65,129.82 40.10,129.82 41.54,129.04 42.98,127.77 44.42,127.70 45.86,127.70 47.31,127.70 48.75,127.70 50.19,127.70 51.63,127.70 53.07,127.70 54.52,127.70 55.96,127.70 57.40,127.70 58.84,127.70 60.29,127.70 61.73,127.70 63.17,127.70 64.61,127.70 66.05,127.70 67.50,127.70 68.94,126.97 70.38,126.97 71.82,126.96 73.26,126.96 74.71,126.96 76.15,126.96 77.59,126.92 79.03,126.92 80.48,126.92 81.92,126.92 83.36,126.92 84.80,126.92 86.24,126.92 87.69,126.92 89.13,126.92 90.57,126.92 92.01,126.92 93.46,126.92 94.90,126.92 96.34,126.92 97.78,126.92 99.22,126.92 100.67,126.92 102.11,126.92 103.55,126.88 104.99,126.22 106.43,125.62 107.88,125.38 109.32,124.18 110.76,124.18 112.20,124.18 113.65,124.18 115.09,124.18 116.53,124.18 117.97,124.18 119.41,124.18 120.86,124.18 122.30,124.18 123.74,124.18 125.18,124.18 126.62,124.10 128.07,124.10 129.51,124.10 130.95,123.99 132.39,123.99 133.84,123.99 135.28,123.99 136.72,123.96 138.16,123.96 139.60,123.96 141.05,123.96 142.49,123.94 143.93,123.94 145.37,123.94 146.82,123.94 148.26,123.94 149.70,123.94 151.14,123.94 152.58,123.94 154.03,123.94 155.47,123.94 156.91,123.94 158.35,123.94 159.79,123.94 161.24,123.94 162.68,123.94 164.12,123.94 165.56,123.94 167.01,123.94 168.45,123.94 169.89,123.94 171.33,123.94 172.77,123.94 174.22,123.94 175.66,123.90 177.10,123.90 178.54,123.90 179.98,123.90 181.43,123.90 182.87,123.90 184.31,123.90 185.75,123.90 187.20,123.90 188.64,123.90 190.08,123.90 191.52,123.90 192.96,123.90 194.41,123.90 195.85,123.90 197.29,123.88 198.73,123.60 200.18,123.53 201.62,123.41 203.06,123.26 204.50,123.22 205.94,123.22 207.39,123.22 208.83,122.98 210.27,122.96 211.71,122.81 213.15,122.76 214.60,122.66 216.04,122.28 217.48,122.26 218.92,122.21 220.37,122.20 221.81,122.15 223.25,122.15 224.69,122.12 226.13,122.12 227.58,122.12 229.02,122.12 230.46,122.12 231.90,122.12 233.35,122.12 234.79,122.01 236.23,121.66 237.67,121.40 239.11,121.33 240.56,121.17 242.00,121.16 243.44,121.14 244.88,121.13 246.32,121.13 247.77,121.13 249.21,121.05 250.65,120.98 252.09,120.95 253.54,120.93 254.98,120.91 256.42,120.66 257.86,120.49 259.30,120.24 260.75,120.07 262.19,119.96 263.63,119.90 265.07,119.84 266.51,119.83 267.96,119.77 269.40,119.61 270.84,119.61 272.28,119.61 273.73,119.60 275.17,119.59 276.61,119.59 278.05,119.51 279.49,119.48 280.94,119.47 282.38,119.46 283.82,119.44 285.26,119.44 286.71,119.44 288.15,119.44 289.59,119.44 291.03,119.44 292.47,119.44 293.92,119.44 295.36,119.41 296.80,119.38 298.24,119.38 299.68,119.18 301.13,119.17 302.57,119.16 304.01,119.13 305.45,119.03 306.90,118.80 308.34,118.75 309.78,118.75 311.22,118.75 312.66,118.75 314.11,118.75 315.55,118.75 316.99,118.75 318.43,118.75 319.87,118.75 321.32,118.75 322.76,118.75 324.20,118.75 325.64,118.75 327.09,118.74 328.53,118.68 329.97,118.67 331.41,118.67 332.85,118.67 334.30,118.67 335.74,118.63 337.18,118.63 338.62,118.45 340.07,118.29 341.51,118.29 342.95,118.29 344.39,118.29 345.83,118.29 347.28,118.27 348.72,118.27 350.16,118.25 351.60,118.17 353.04,118.11 354.49,117.82 355.93,117.81 357.37,117.37 358.81,117.11 360.26,116.92 361.70,116.31 363.14,116.15 364.58,116.08 366.02,115.88 367.47,115.57 368.91,115.49 370.35,115.38 371.79,115.21 373.23,115.06 374.68,115.00 376.12,114.89 377.56,114.82 379.00,114.62 380.45,114.45 381.89,114.25 383.33,113.91 384.77,113.72 386.21,112.77 387.66,112.05 389.10,111.59 390.54,111.19 391.98,110.75 393.43,110.75 394.87,110.75 396.31,110.75 397.75,110.47 399.19,110.31 400.64,109.73 402.08,109.08 403.52,108.31 404.96,107.16 406.40,106.36 407.85,104.71 409.29,103.71 410.73,103.04 412.17,101.97 413.62,101.28 415.06,99.92 416.50,97.86 417.94,97.24 419.38,96.43 420.83,95.66 422.27,95.40 423.71,94.42 425.15,94.25 426.59,93.06 428.04,91.99 429.48,91.35 430.92,90.62 432.36,89.65 433.81,89.39 435.25,89.31 436.69,89.20 438.13,89.14 439.57,88.53 441.02,87.73 442.46,86.77 443.90,86.50 445.34,85.71 446.79,84.71 448.23,82.70 449.67,81.22 451.11,79.39 452.55,78.91 454.00,77.95 455.44,76.15 456.88,75.13 458.32,74.58 459.76,73.79 461.21,73.28 462.65,72.54 464.09,72.19 465.53,71.44 466.98,70.02 468.42,68.44 469.86,67.95 471.30,67.06 472.74,65.43 474.19,64.60 475.63,62.57 477.07,61.60 478.51,59.84 479.95,58.13 481.40,56.05 482.84,52.94 484.28,50.88 485.72,49.11 487.17,47.97 488.61,46.50 490.05,45.18 491.49,44.54 492.93,43.47 494.38,42.17 495.82,41.44 497.26,40.32 498.70,39.48 500.15,38.67 501.59,37.46 503.03,35.25 504.47,33.48 505.91,31.99 507.36,30.75 508.80,30.30" />
    </svg>
  