
    <svg width="540" height="160" xmlns="http://www.w3.org/2000/svg">
      <style>.line{fill:none;stroke:#388bfd;stroke-width:1.5}.axis{stroke:#555;stroke-width:1;opacity:0.5}.label{fill:#999;font-family:sans-serif;font-size:10px;text-anchor:middle}</style>
      <line class="axis" x1="30" y1="30" x2="30" y2="130" />
      <line class="axis" x1="30" y1="130" x2="510" y2="130" />
      <text class="label" x="15" y="30">5,109</text>
      <text class="label" x="15" y="134">0</text>
      <text class="label" x="30" y="148">2021</text>
      <text class="label" x="510" y="148">2026</text>
      <polyline class="line" points="30.00,129.96 31.52,129.94 33.04,129.92 34.56,129.92 36.08,129.92 37.60,129.67 39.12,129.67 40.64,129.67 42.16,128.26 43.69,125.93 45.21,125.81 46.73,125.81 48.25,125.81 49.77,125.81 51.29,125.81 52.81,125.81 54.33,125.81 55.85,125.81 57.37,125.81 58.89,125.81 60.41,125.81 61.93,125.81 63.45,125.81 64.97,125.81 66.49,125.81 68.01,125.81 69.54,125.81 71.06,124.48 72.58,124.48 74.10,124.46 75.62,124.46 77.14,124.46 78.66,124.46 80.18,124.38 81.70,124.38 83.22,124.38 84.74,124.38 86.26,124.38 87.78,124.38 89.30,124.38 90.82,124.38 92.34,124.38 93.86,124.38 95.39,124.38 96.91,124.38 98.43,124.38 99.95,124.38 101.47,124.38 102.99,124.38 104.51,124.38 106.03,124.38 107.55,124.30 109.07,123.11 110.59,122.01 112.11,121.56 113.63,119.39 115.15,119.39 116.67,119.39 118.19,119.39 119.71,119.39 121.24,119.39 122.76,119.39 124.28,119.39 125.80,119.39 127.32,119.39 128.84,119.39 130.36,119.39 131.88,119.23 133.40,119.23 134.92,119.23 136.44,119.04 137.96,119.04 139.48,119.04 141.00,119.04 142.52,118.98 144.04,118.98 145.56,118.98 147.09,118.98 148.61,118.94 150.13,118.94 151.65,118.94 153.17,118.94 154.69,118.94 156.21,118.94 157.73,118.94 159.25,118.94 160.77,118.94 162.29,118.94 163.81,118.94 165.33,118.94 166.85,118.94 168.37,118.94 169.89,118.94 171.41,118.94 172.94,118.94 174.46,118.94 175.98,118.94 177.50,118.94 179.02,118.94 180.54,118.94 182.06,118.94 183.58,118.88 185.10,118.88 186.62,118.88 188.14,118.88 189.66,118.88 191.18,118.88 192.70,118.88 194.22,118.88 195.74,118.88 197.27,118.88 198.79,118.88 200.31,118.88 201.83,118.88 203.35,118.88 204.87,118.88 206.39,118.84 207.91,118.33 209.43,118.20 210.95,117.98 212.47,117.71 213.99,117.63 215.51,117.63 217.03,117.63 218.55,117.20 220.07,117.16 221.59,116.89 223.12,116.79 224.64,116.61 226.16,115.93 227.68,115.89 229.20,115.79 230.72,115.77 232.24,115.67 233.76,115.67 235.28,115.63 236.80,115.63 238.32,115.63 239.84,115.63 241.36,115.63 242.88,115.63 244.40,115.63 245.92,115.42 247.44,114.79 248.97,114.32 250.49,114.18 252.01,113.89 253.53,113.87 255.05,113.83 256.57,113.81 258.09,113.81 259.61,113.81 261.13,113.68 262.65,113.54 264.17,113.50 265.69,113.46 267.21,113.42 268.73,112.97 270.25,112.66 271.77,112.19 273.29,111.89 274.82,111.68 276.34,111.58 277.86,111.46 279.38,111.44 280.90,111.35 282.42,111.05 283.94,111.05 285.46,111.05 286.98,111.03 288.50,111.01 290.02,111.01 291.54,110.86 293.06,110.82 294.58,110.80 296.10,110.78 297.62,110.74 299.14,110.74 300.67,110.74 302.19,110.74 303.71,110.74 305.23,110.74 306.75,110.74 308.27,110.74 309.79,110.68 311.31,110.62 312.83,110.62 314.35,110.27 315.87,110.25 317.39,110.23 318.91,110.17 320.43,110.00 321.95,109.57 323.47,109.49 324.99,109.49 326.52,109.49 328.04,109.49 329.56,109.49 331.08,109.49 332.60,109.49 334.12,109.49 335.64,109.49 337.16,109.49 338.68,109.49 340.20,109.49 341.72,109.49 343.24,109.47 344.76,109.35 346.28,109.33 347.80,109.33 349.32,109.33 350.84,109.33 352.37,109.25 353.89,109.25 355.41,108.94 356.93,108.65 358.45,108.65 359.97,108.65 361.49,108.65 363.01,108.65 364.53,108.61 366.05,108.61 367.57,108.57 369.09,108.43 370.61,108.31 372.13,107.78 373.65,107.76 375.17,106.96 376.69,106.49 378.22,106.14 379.74,105.02 381.26,104.73 382.78,104.61 384.30,104.24 385.82,103.67 387.34,103.54 388.86,103.34 390.38,103.03 391.90,102.75 393.42,102.64 394.94,102.44 396.46,102.30 397.98,101.95 399.50,101.64 401.02,101.27 402.54,100.66 404.07,100.31 405.59,98.57 407.11,97.25 408.63,96.41 410.15,95.69 411.67,94.89 413.19,94.89 414.71,94.89 416.23,94.89 417.75,94.38 419.27,94.08 420.79,93.44 422.31,92.69 423.83,91.68 425.35,90.07 426.87,89.17 428.39,87.53 429.92,86.57 431.44,85.96 432.96,84.96 434.48,84.18 436.00,82.85 437.52,80.91 439.04,80.34 440.56,79.52 442.08,78.82 443.60,78.58 445.12,77.68 446.64,77.52 448.16,76.45 449.68,75.47 451.20,74.88 452.72,74.20 454.24,73.26 455.77,72.98 457.29,72.85 458.81,72.71 460.33,72.59 461.85,71.85 463.37,71.01 464.89,69.68 466.41,69.28 467.93,68.60 469.45,67.48 470.97,65.00 472.49,63.12 474.01,61.02 475.53,60.57 477.05,59.65 478.57,57.79 480.10,56.66 481.62,56.03 483.14,55.09 484.66,54.60 486.18,53.92 487.70,53.61 489.22,52.55 490.74,50.96 492.26,49.46 493.78,49.01 495.30,48.22 496.82,46.81 498.34,45.76 499.86,44.19 501.38,43.39 502.90,41.78 504.42,39.65 505.95,37.83 507.47,33.97 508.99,31.25" />
    </svg>
  