
    <svg width="540" height="160" xmlns="http://www.w3.org/2000/svg">
      <style>.line{fill:none;stroke:#388bfd;stroke-width:1.5}.axis{stroke:#555;stroke-width:1;opacity:0.5}.label{fill:#999;font-family:sans-serif;font-size:10px;text-anchor:middle}</style>
      <line class="axis" x1="30" y1="30" x2="30" y2="130" />
      <line class="axis" x1="30" y1="130" x2="510" y2="130" />
      <text class="label" x="15" y="30">5,109</text>
      <text class="label" x="15" y="134">0</text>
      <text class="label" x="30" y="148">2021</text>
      <text class="label" x="510" y="148">2026</text>
      <polyline class="line" points="30.00,129.96 31.52,129.94 33.04,129.92 34.56,129.92 36.08,129.92 37.59,129.67 39.11,129.67 40.63,129.67 42.15,128.26 43.67,125.93 45.19,125.81 46.71,125.81 48.23,125.81 49.75,125.81 51.27,125.81 52.78,125.81 54.30,125.81 55.82,125.81 57.34,125.81 58.86,125.81 60.38,125.81 61.90,125.81 63.42,125.81 64.94,125.81 66.46,125.81 67.97,125.81 69.49,125.81 71.01,124.48 72.53,124.48 74.05,124.46 75.57,124.46 77.09,124.46 78.61,124.46 80.13,124.38 81.65,124.38 83.16,124.38 84.68,124.38 86.20,124.38 87.72,124.38 89.24,124.38 90.76,124.38 92.28,124.38 93.80,124.38 95.32,124.38 96.84,124.38 98.35,124.38 99.87,124.38 101.39,124.38 102.91,124.38 104.43,124.38 105.95,124.38 107.47,124.30 108.99,123.11 110.51,122.01 112.03,121.56 113.54,119.39 115.06,119.39 116.58,119.39 118.10,119.39 119.62,119.39 121.14,119.39 122.66,119.39 124.18,119.39 125.70,119.39 127.22,119.39 128.73,119.39 130.25,119.39 131.77,119.23 133.29,119.23 134.81,119.23 136.33,119.04 137.85,119.04 139.37,119.04 140.89,119.04 142.41,118.98 143.92,118.98 145.44,118.98 146.96,118.98 148.48,118.94 150.00,118.94 151.52,118.94 153.04,118.94 154.56,118.94 156.08,118.94 157.59,118.94 159.11,118.94 160.63,118.94 162.15,118.94 163.67,118.94 165.19,118.94 166.71,118.94 168.23,118.94 169.75,118.94 171.27,118.94 172.78,118.94 174.30,118.94 175.82,118.94 177.34,118.94 178.86,118.94 180.38,118.94 181.90,118.94 183.42,118.88 184.94,118.88 186.46,118.88 187.97,118.88 189.49,118.88 191.01,118.88 192.53,118.88 194.05,118.88 195.57,118.88 197.09,118.88 198.61,118.88 200.13,118.88 201.65,118.88 203.16,118.88 204.68,118.88 206.20,118.84 207.72,118.33 209.24,118.20 210.76,117.98 212.28,117.71 213.80,117.63 215.32,117.63 216.84,117.63 218.35,117.20 219.87,117.16 221.39,116.89 222.91,116.79 224.43,116.61 225.95,115.93 227.47,115.89 228.99,115.79 230.51,115.77 232.03,115.67 233.54,115.67 235.06,115.63 236.58,115.63 238.10,115.63 239.62,115.63 241.14,115.63 242.66,115.63 244.18,115.63 245.70,115.42 247.22,114.79 248.73,114.32 250.25,114.18 251.77,113.89 253.29,113.87 254.81,113.83 256.33,113.81 257.85,113.81 259.37,113.81 260.89,113.68 262.41,113.54 263.92,113.50 265.44,113.46 266.96,113.42 268.48,112.97 270.00,112.66 271.52,112.19 273.04,111.89 274.56,111.68 276.08,111.58 277.59,111.46 279.11,111.44 280.63,111.35 282.15,111.05 283.67,111.05 285.19,111.05 286.71,111.03 288.23,111.01 289.75,111.01 291.27,110.86 292.78,110.82 294.30,110.80 295.82,110.78 297.34,110.74 298.86,110.74 300.38,110.74 301.90,110.74 303.42,110.74 304.94,110.74 306.46,110.74 307.97,110.74 309.49,110.68 311.01,110.62 312.53,110.62 314.05,110.27 315.57,110.25 317.09,110.23 318.61,110.17 320.13,110.00 321.65,109.57 323.16,109.49 324.68,109.49 326.20,109.49 327.72,109.49 329.24,109.49 330.76,109.49 332.28,109.49 333.80,109.49 335.32,109.49 336.84,109.49 338.35,109.49 339.87,109.49 341.39,109.49 342.91,109.47 344.43,109.35 345.95,109.33 347.47,109.33 348.99,109.33 350.51,109.33 352.03,109.25 353.54,109.25 355.06,108.94 356.58,108.65 358.10,108.65 359.62,108.65 361.14,108.65 362.66,108.65 364.18,108.61 365.70,108.61 367.22,108.57 368.73,108.43 370.25,108.31 371.77,107.78 373.29,107.76 374.81,106.96 376.33,106.49 377.85,106.14 379.37,105.02 380.89,104.73 382.41,104.61 383.92,104.24 385.44,103.67 386.96,103.54 388.48,103.34 390.00,103.03 391.52,102.75 393.04,102.64 394.56,102.44 396.08,102.30 397.59,101.95 399.11,101.64 400.63,101.27 402.15,100.66 403.67,100.31 405.19,98.57 406.71,97.25 408.23,96.41 409.75,95.69 411.27,94.89 412.78,94.89 414.30,94.89 415.82,94.89 417.34,94.38 418.86,94.08 420.38,93.44 421.90,92.69 423.42,91.68 424.94,90.07 426.46,89.17 427.97,87.53 429.49,86.57 431.01,85.96 432.53,84.96 434.05,84.18 435.57,82.85 437.09,80.91 438.61,80.34 440.13,79.52 441.65,78.82 443.16,78.58 444.68,77.68 446.20,77.52 447.72,76.45 449.24,75.47 450.76,74.88 452.28,74.20 453.80,73.26 455.32,72.98 456.84,72.85 458.35,72.71 459.87,72.59 461.39,71.85 462.91,71.01 464.43,69.68 465.95,69.28 467.47,68.60 468.99,67.48 470.51,65.00 472.03,63.12 473.54,61.02 475.06,60.57 476.58,59.65 478.10,57.79 479.62,56.66 481.14,56.03 482.66,55.09 484.18,54.60 485.70,53.92 487.22,53.61 488.73,52.55 490.25,50.96 491.77,49.46 493.29,49.01 494.81,48.22 496.33,46.81 497.85,45.76 499.37,44.19 500.89,43.39 502.41,41.78 503.92,39.65 505.44,37.83 506.96,33.97 508.48,31.25 510.00,30.00" />
    </svg>
  