
    <svg width="540" height="160" xmlns="http://www.w3.org/2000/svg">
      <style>.line{fill:none;stroke:#388bfd;stroke-width:1.5}.axis{stroke:#555;stroke-width:1;opacity:0.5}.label{fill:#999;font-family:sans-serif;font-size:10px;text-anchor:middle}</style>
      <line class="axis" x1="30" y1="30" x2="30" y2="130" />
      <line class="axis" x1="30" y1="130" x2="510" y2="130" />
      <text class="label" x="15" y="30">5,285</text>
      <text class="label" x="15" y="134">0</text>
      <text class="label" x="30" y="148">2021</text>
      <text class="label" x="510" y="148">2026</text>
      <polyline class="line" points="30.00,129.96 31.51,129.94 33.02,129.92 34.53,129.92 36.04,129.92 37.55,129.68 39.06,129.68 40.57,129.68 42.08,128.32 43.59,126.06 45.10,125.95 46.61,125.95 48.12,125.95 49.63,125.95 51.14,125.95 52.65,125.95 54.16,125.95 55.67,125.95 57.18,125.95 58.69,125.95 60.20,125.95 61.71,125.95 63.22,125.95 64.74,125.95 66.25,125.95 67.76,125.95 69.27,125.95 70.78,124.66 72.29,124.66 73.80,124.65 75.31,124.65 76.82,124.65 78.33,124.65 79.84,124.57 81.35,124.57 82.86,124.57 84.37,124.57 85.88,124.57 87.39,124.57 88.90,124.57 90.41,124.57 91.92,124.57 93.43,124.57 94.94,124.57 96.45,124.57 97.96,124.57 99.47,124.57 100.98,124.57 102.49,124.57 104.00,124.57 105.51,124.57 107.02,124.49 108.53,123.34 110.04,122.28 111.55,121.84 113.06,119.74 114.57,119.74 116.08,119.74 117.59,119.74 119.10,119.74 120.61,119.74 122.12,119.74 123.63,119.74 125.14,119.74 126.65,119.74 128.16,119.74 129.67,119.74 131.19,119.59 132.70,119.59 134.21,119.59 135.72,119.40 137.23,119.40 138.74,119.40 140.25,119.40 141.76,119.35 143.27,119.35 144.78,119.35 146.29,119.35 147.80,119.31 149.31,119.31 150.82,119.31 152.33,119.31 153.84,119.31 155.35,119.31 156.86,119.31 158.37,119.31 159.88,119.31 161.39,119.31 162.90,119.31 164.41,119.31 165.92,119.31 167.43,119.31 168.94,119.31 170.45,119.31 171.96,119.31 173.47,119.31 174.98,119.31 176.49,119.31 178.00,119.31 179.51,119.31 181.02,119.31 182.53,119.25 184.04,119.25 185.55,119.25 187.06,119.25 188.57,119.25 190.08,119.25 191.59,119.25 193.10,119.25 194.61,119.25 196.12,119.25 197.64,119.25 199.15,119.25 200.66,119.25 202.17,119.25 203.68,119.25 205.19,119.21 206.70,118.72 208.21,118.59 209.72,118.38 211.23,118.12 212.74,118.04 214.25,118.04 215.76,118.04 217.27,117.63 218.78,117.59 220.29,117.32 221.80,117.23 223.31,117.06 224.82,116.40 226.33,116.36 227.84,116.26 229.35,116.24 230.86,116.15 232.37,116.15 233.88,116.11 235.39,116.11 236.90,116.11 238.41,116.11 239.92,116.11 241.43,116.11 242.94,116.11 244.45,115.90 245.96,115.30 247.47,114.84 248.98,114.71 250.49,114.43 252.00,114.41 253.51,114.37 255.02,114.35 256.53,114.35 258.04,114.35 259.55,114.22 261.06,114.09 262.57,114.05 264.08,114.01 265.60,113.97 267.11,113.54 268.62,113.24 270.13,112.78 271.64,112.50 273.15,112.29 274.66,112.19 276.17,112.08 277.68,112.06 279.19,111.97 280.70,111.68 282.21,111.68 283.72,111.68 285.23,111.67 286.74,111.65 288.25,111.65 289.76,111.49 291.27,111.46 292.78,111.44 294.29,111.42 295.80,111.38 297.31,111.38 298.82,111.38 300.33,111.38 301.84,111.38 303.35,111.38 304.86,111.38 306.37,111.38 307.88,111.32 309.39,111.27 310.90,111.27 312.41,110.93 313.92,110.91 315.43,110.89 316.94,110.83 318.45,110.66 319.96,110.25 321.47,110.17 322.98,110.17 324.49,110.17 326.00,110.17 327.51,110.17 329.02,110.17 330.53,110.17 332.05,110.17 333.56,110.17 335.07,110.17 336.58,110.17 338.09,110.17 339.60,110.17 341.11,110.15 342.62,110.04 344.13,110.02 345.64,110.02 347.15,110.02 348.66,110.02 350.17,109.94 351.68,109.94 353.19,109.64 354.70,109.36 356.21,109.36 357.72,109.36 359.23,109.36 360.74,109.36 362.25,109.32 363.76,109.32 365.27,109.28 366.78,109.15 368.29,109.04 369.80,108.52 371.31,108.51 372.82,107.73 374.33,107.28 375.84,106.93 377.35,105.86 378.86,105.57 380.37,105.46 381.88,105.10 383.39,104.55 384.90,104.42 386.41,104.23 387.92,103.93 389.43,103.66 390.94,103.55 392.45,103.36 393.96,103.23 395.47,102.89 396.98,102.58 398.50,102.22 400.01,101.64 401.52,101.30 403.03,99.61 404.54,98.34 406.05,97.53 407.56,96.83 409.07,96.05 410.58,96.05 412.09,96.05 413.60,96.05 415.11,95.56 416.62,95.28 418.13,94.65 419.64,93.94 421.15,92.95 422.66,91.40 424.17,90.53 425.68,88.94 427.19,88.01 428.70,87.43 430.21,86.46 431.72,85.70 433.23,84.42 434.74,82.54 436.25,82.00 437.76,81.20 439.27,80.52 440.78,80.29 442.29,79.42 443.80,79.27 445.31,78.23 446.82,77.28 448.33,76.72 449.84,76.05 451.35,75.15 452.86,74.88 454.37,74.75 455.88,74.62 457.39,74.50 458.90,73.78 460.41,72.97 461.92,71.68 463.43,71.31 464.94,70.61 466.46,69.53 467.97,67.12 469.48,65.31 470.99,63.28 472.50,62.85 474.01,61.96 475.52,60.16 477.03,59.06 478.54,58.46 480.05,57.55 481.56,57.08 483.07,56.41 484.58,56.11 486.09,55.09 487.60,53.56 489.11,52.10 490.62,51.67 492.13,50.91 493.64,49.55 495.15,48.52 496.66,47.01 498.17,46.23 499.68,44.68 501.19,42.62 502.70,40.86 504.21,37.13 505.72,34.50 507.23,32.63 508.74,31.34" />
    </svg>
  