
    <svg width="540" height="160" xmlns="http://www.w3.org/2000/svg">
      <style>.line{fill:none;stroke:#388bfd;stroke-width:1.5}.axis{stroke:#555;stroke-width:1;opacity:0.5}.label{fill:#999;font-family:sans-serif;font-size:10px;text-anchor:middle}</style>
      <line class="axis" x1="30" y1="30" x2="30" y2="130" />
      <line class="axis" x1="30" y1="130" x2="510" y2="130" />
      <text class="label" x="15" y="30">9,117</text>
      <text class="label" x="15" y="134">0</text>
      <text class="label" x="30" y="148">2021</text>
      <text class="label" x="510" y="148">2026</text>
      <polyline class="line" points="30.00,129.98 31.46,129.97 32.91,129.96 34.37,129.96 35.82,129.96 37.28,129.81 38.74,129.81 40.19,129.81 41.65,129.02 43.10,127.72 44.56,127.65 46.02,127.65 47.47,127.65 48.93,127.65 50.38,127.65 51.84,127.65 53.30,127.65 54.75,127.65 56.21,127.65 57.66,127.65 59.12,127.65 60.58,127.65 62.03,127.65 63.49,127.65 64.94,127.65 66.40,127.65 67.86,127.65 69.31,126.91 70.77,126.91 72.22,126.90 73.68,126.90 75.14,126.90 76.59,126.90 78.05,126.85 79.50,126.85 80.96,126.85 82.42,126.85 83.87,126.85 85.33,126.85 86.78,126.85 88.24,126.85 89.70,126.85 91.15,126.85 92.61,126.85 94.06,126.85 95.52,126.85 96.98,126.85 98.43,126.85 99.89,126.85 101.34,126.85 102.80,126.85 104.26,126.81 105.71,126.14 107.17,125.52 108.62,125.27 110.08,124.06 111.54,124.06 112.99,124.06 114.45,124.06 115.90,124.06 117.36,124.06 118.82,124.06 120.27,124.06 121.73,124.06 123.19,124.06 124.64,124.06 126.10,124.06 127.55,123.97 129.01,123.97 130.47,123.97 131.92,123.86 133.38,123.86 134.83,123.86 136.29,123.86 137.75,123.82 139.20,123.82 140.66,123.82 142.11,123.82 143.57,123.80 145.03,123.80 146.48,123.80 147.94,123.80 149.39,123.80 150.85,123.80 152.31,123.80 153.76,123.80 155.22,123.80 156.67,123.80 158.13,123.80 159.59,123.80 161.04,123.80 162.50,123.80 163.95,123.80 165.41,123.80 166.87,123.80 168.32,123.80 169.78,123.80 171.23,123.80 172.69,123.80 174.15,123.80 175.60,123.80 177.06,123.77 178.51,123.77 179.97,123.77 181.43,123.77 182.88,123.77 184.34,123.77 185.79,123.77 187.25,123.77 188.71,123.77 190.16,123.77 191.62,123.77 193.07,123.77 194.53,123.77 195.99,123.77 197.44,123.77 198.90,123.75 200.35,123.46 201.81,123.39 203.27,123.27 204.72,123.11 206.18,123.07 207.63,123.07 209.09,123.07 210.55,122.83 212.00,122.80 213.46,122.65 214.91,122.60 216.37,122.50 217.83,122.11 219.28,122.09 220.74,122.04 222.19,122.03 223.65,121.97 225.11,121.97 226.56,121.95 228.02,121.95 229.47,121.95 230.93,121.95 232.39,121.95 233.84,121.95 235.30,121.95 236.75,121.83 238.21,121.48 239.67,121.21 241.12,121.14 242.58,120.97 244.03,120.96 245.49,120.94 246.95,120.93 248.40,120.93 249.86,120.93 251.31,120.85 252.77,120.78 254.23,120.75 255.68,120.73 257.14,120.71 258.59,120.46 260.05,120.28 261.51,120.02 262.96,119.85 264.42,119.73 265.87,119.68 267.33,119.61 268.79,119.60 270.24,119.55 271.70,119.38 273.15,119.38 274.61,119.38 276.07,119.37 277.52,119.36 278.98,119.36 280.43,119.27 281.89,119.25 283.35,119.24 284.80,119.23 286.26,119.21 287.71,119.21 289.17,119.21 290.63,119.21 292.08,119.21 293.54,119.21 294.99,119.21 296.45,119.21 297.91,119.17 299.36,119.14 300.82,119.14 302.28,118.94 303.73,118.93 305.19,118.92 306.64,118.89 308.10,118.79 309.56,118.55 311.01,118.50 312.47,118.50 313.92,118.50 315.38,118.50 316.84,118.50 318.29,118.50 319.75,118.50 321.20,118.50 322.66,118.50 324.12,118.50 325.57,118.50 327.03,118.50 328.48,118.50 329.94,118.49 331.40,118.43 332.85,118.42 334.31,118.42 335.76,118.42 337.22,118.42 338.68,118.37 340.13,118.37 341.59,118.20 343.04,118.03 344.50,118.03 345.96,118.03 347.41,118.03 348.87,118.03 350.32,118.01 351.78,118.01 353.24,117.99 354.69,117.91 356.15,117.85 357.60,117.55 359.06,117.54 360.52,117.09 361.97,116.83 363.43,116.63 364.88,116.00 366.34,115.84 367.80,115.77 369.25,115.57 370.71,115.25 372.16,115.17 373.62,115.06 375.08,114.89 376.53,114.73 377.99,114.67 379.44,114.56 380.90,114.48 382.36,114.28 383.81,114.11 385.27,113.90 386.72,113.56 388.18,113.36 389.64,112.38 391.09,111.65 392.55,111.18 394.00,110.77 395.46,110.32 396.92,110.32 398.37,110.32 399.83,110.32 401.28,110.04 402.74,109.87 404.20,109.28 405.65,108.61 407.11,107.83 408.56,106.66 410.02,105.84 411.48,104.15 412.93,103.13 414.39,102.45 415.84,101.35 417.30,100.65 418.76,99.26 420.21,97.15 421.67,96.51 423.12,95.69 424.58,94.90 426.04,94.64 427.49,93.63 428.95,93.45 430.40,92.25 431.86,91.15 433.32,90.49 434.77,89.75 436.23,88.76 437.68,88.50 439.14,88.41 440.60,88.30 442.05,88.23 443.51,87.61 444.96,86.79 446.42,85.81 447.88,85.53 449.33,84.73 450.79,83.70 452.24,81.65 453.70,80.14 455.16,78.27 456.61,77.78 458.07,76.79 459.52,74.96 460.98,73.92 462.44,73.35 463.89,72.55 465.35,72.02 466.80,71.26 468.26,70.91 469.72,70.14 471.17,68.69 472.63,67.07 474.08,66.58 475.54,65.67 477.00,64.00 478.45,63.15 479.91,61.07 481.37,60.09 482.82,58.29 484.28,56.53 485.73,54.42 487.19,51.24 488.65,49.13 490.10,47.32 491.56,46.16 493.01,44.65 494.47,43.30 495.93,42.65 497.38,41.55 498.84,40.22 500.29,39.48 501.75,38.34 503.21,37.47 504.66,36.65 506.12,35.41 507.57,33.15 509.03,31.39" />
    </svg>
  