
    <svg width="540" height="160" xmlns="http://www.w3.org/2000/svg">
      <style>.line{fill:none;stroke:#388bfd;stroke-width:1.5}.axis{stroke:#555;stroke-width:1;opacity:0.5}.label{fill:#999;font-family:sans-serif;font-size:10px;text-anchor:middle}</style>
      <line class="axis" x1="30" y1="30" x2="30" y2="130" />
      <line class="axis" x1="30" y1="130" x2="510" y2="130" />
      <text class="label" x="15" y="30">8,984</text>
      <text class="label" x="15" y="134">0</text>
      <text class="label" x="30" y="148">2021</text>
      <text class="label" x="510" y="148">2026</text>
      <polyline class="line" points="30.00,129.98 31.46,129.97 32.92,129.96 34.38,129.96 35.84,129.96 37.30,129.81 38.76,129.81 40.22,129.81 41.68,129.01 43.14,127.68 44.60,127.62 46.06,127.62 47.52,127.62 48.98,127.62 50.44,127.62 51.90,127.62 53.36,127.62 54.82,127.62 56.27,127.62 57.73,127.62 59.19,127.62 60.65,127.62 62.11,127.62 63.57,127.62 65.03,127.62 66.49,127.62 67.95,127.62 69.41,126.86 70.87,126.86 72.33,126.85 73.79,126.85 75.25,126.85 76.71,126.85 78.17,126.81 79.63,126.81 81.09,126.81 82.55,126.81 84.01,126.81 85.47,126.81 86.93,126.81 88.39,126.81 89.85,126.81 91.31,126.81 92.77,126.81 94.23,126.81 95.69,126.81 97.15,126.81 98.61,126.81 100.07,126.81 101.53,126.81 102.99,126.81 104.45,126.76 105.90,126.08 107.36,125.46 108.82,125.20 110.28,123.97 111.74,123.97 113.20,123.97 114.66,123.97 116.12,123.97 117.58,123.97 119.04,123.97 120.50,123.97 121.96,123.97 123.42,123.97 124.88,123.97 126.34,123.97 127.80,123.88 129.26,123.88 130.72,123.88 132.18,123.77 133.64,123.77 135.10,123.77 136.56,123.77 138.02,123.73 139.48,123.73 140.94,123.73 142.40,123.73 143.86,123.71 145.32,123.71 146.78,123.71 148.24,123.71 149.70,123.71 151.16,123.71 152.62,123.71 154.08,123.71 155.53,123.71 156.99,123.71 158.45,123.71 159.91,123.71 161.37,123.71 162.83,123.71 164.29,123.71 165.75,123.71 167.21,123.71 168.67,123.71 170.13,123.71 171.59,123.71 173.05,123.71 174.51,123.71 175.97,123.71 177.43,123.68 178.89,123.68 180.35,123.68 181.81,123.68 183.27,123.68 184.73,123.68 186.19,123.68 187.65,123.68 189.11,123.68 190.57,123.68 192.03,123.68 193.49,123.68 194.95,123.68 196.41,123.68 197.87,123.68 199.33,123.66 200.79,123.37 202.25,123.29 203.71,123.17 205.16,123.01 206.62,122.97 208.08,122.97 209.54,122.97 211.00,122.72 212.46,122.70 213.92,122.54 215.38,122.49 216.84,122.39 218.30,122.00 219.76,121.97 221.22,121.92 222.68,121.91 224.14,121.85 225.60,121.85 227.06,121.83 228.52,121.83 229.98,121.83 231.44,121.83 232.90,121.83 234.36,121.83 235.82,121.83 237.28,121.71 238.74,121.35 240.20,121.08 241.66,121.01 243.12,120.84 244.58,120.83 246.04,120.81 247.50,120.79 248.96,120.79 250.42,120.79 251.88,120.72 253.34,120.64 254.79,120.62 256.25,120.59 257.71,120.57 259.17,120.32 260.63,120.14 262.09,119.87 263.55,119.70 265.01,119.58 266.47,119.53 267.93,119.46 269.39,119.45 270.85,119.39 272.31,119.23 273.77,119.23 275.23,119.23 276.69,119.21 278.15,119.20 279.61,119.20 281.07,119.11 282.53,119.09 283.99,119.08 285.45,119.07 286.91,119.05 288.37,119.05 289.83,119.05 291.29,119.05 292.75,119.05 294.21,119.05 295.67,119.05 297.13,119.05 298.59,119.01 300.05,118.98 301.51,118.98 302.97,118.78 304.42,118.77 305.88,118.76 307.34,118.72 308.80,118.62 310.26,118.38 311.72,118.33 313.18,118.33 314.64,118.33 316.10,118.33 317.56,118.33 319.02,118.33 320.48,118.33 321.94,118.33 323.40,118.33 324.86,118.33 326.32,118.33 327.78,118.33 329.24,118.33 330.70,118.32 332.16,118.26 333.62,118.25 335.08,118.25 336.54,118.25 338.00,118.25 339.46,118.20 340.92,118.20 342.38,118.02 343.84,117.86 345.30,117.86 346.76,117.86 348.22,117.86 349.68,117.86 351.14,117.83 352.60,117.83 354.05,117.81 355.51,117.73 356.97,117.67 358.43,117.37 359.89,117.36 361.35,116.90 362.81,116.63 364.27,116.43 365.73,115.80 367.19,115.63 368.65,115.56 370.11,115.35 371.57,115.03 373.03,114.95 374.49,114.84 375.95,114.66 377.41,114.51 378.87,114.44 380.33,114.33 381.79,114.25 383.25,114.05 384.71,113.87 386.17,113.66 387.63,113.31 389.09,113.11 390.55,112.12 392.01,111.38 393.47,110.90 394.93,110.49 396.39,110.03 397.85,110.03 399.31,110.03 400.77,110.03 402.23,109.74 403.68,109.57 405.14,108.97 406.60,108.29 408.06,107.50 409.52,106.31 410.98,105.48 412.44,103.76 413.90,102.73 415.36,102.04 416.82,100.93 418.28,100.21 419.74,98.80 421.20,96.66 422.66,96.02 424.12,95.18 425.58,94.38 427.04,94.11 428.50,93.09 429.96,92.91 431.42,91.69 432.88,90.57 434.34,89.91 435.80,89.15 437.26,88.15 438.72,87.88 440.18,87.79 441.64,87.68 443.10,87.61 444.56,86.98 446.02,86.16 447.48,85.15 448.94,84.88 450.40,84.06 451.86,83.02 453.31,80.93 454.77,79.40 456.23,77.51 457.69,77.01 459.15,76.00 460.61,74.15 462.07,73.09 463.53,72.51 464.99,71.70 466.45,71.16 467.91,70.39 469.37,70.04 470.83,69.26 472.29,67.78 473.75,66.14 475.21,65.64 476.67,64.72 478.13,63.03 479.59,62.16 481.05,60.05 482.51,59.05 483.97,57.23 485.43,55.45 486.89,53.30 488.35,50.07 489.81,47.93 491.27,46.10 492.73,44.92 494.19,43.39 495.65,42.02 497.11,41.35 498.57,40.24 500.03,38.89 501.49,38.14 502.94,36.98 504.40,36.10 505.86,35.26 507.32,34.01 508.78,31.71" />
    </svg>
  