
    <svg width="540" height="160" xmlns="http://www.w3.org/2000/svg">
      <style>.line{fill:none;stroke:#388bfd;stroke-width:1.5}.axis{stroke:#555;stroke-width:1;opacity:0.5}.label{fill:#999;font-family:sans-serif;font-size:10px;text-anchor:middle}</style>
      <line class="axis" x1="30" y1="30" x2="30" y2="130" />
      <line class="axis" x1="30" y1="130" x2="510" y2="130" />
      <text class="label" x="15" y="30">8,548</text>
      <text class="label" x="15" y="134">0</text>
      <text class="label" x="30" y="148">2021</text>
      <text class="label" x="510" y="148">2026</text>
      <polyline class="line" points="30.00,129.98 31.47,129.96 32.94,129.95 34.41,129.95 35.88,129.95 37.35,129.80 38.82,129.80 40.29,129.80 41.76,128.96 43.23,127.57 44.70,127.50 46.17,127.50 47.64,127.50 49.11,127.50 50.58,127.50 52.05,127.50 53.52,127.50 54.99,127.50 56.46,127.50 57.93,127.50 59.40,127.50 60.87,127.50 62.34,127.50 63.81,127.50 65.28,127.50 66.75,127.50 68.22,127.50 69.69,126.70 71.16,126.70 72.63,126.69 74.10,126.69 75.57,126.69 77.04,126.69 78.51,126.64 79.98,126.64 81.45,126.64 82.92,126.64 84.40,126.64 85.87,126.64 87.34,126.64 88.81,126.64 90.28,126.64 91.75,126.64 93.22,126.64 94.69,126.64 96.16,126.64 97.63,126.64 99.10,126.64 100.57,126.64 102.04,126.64 103.51,126.64 104.98,126.60 106.45,125.88 107.92,125.23 109.39,124.96 110.86,123.66 112.33,123.66 113.80,123.66 115.27,123.66 116.74,123.66 118.21,123.66 119.68,123.66 121.15,123.66 122.62,123.66 124.09,123.66 125.56,123.66 127.03,123.66 128.50,123.57 129.97,123.57 131.44,123.57 132.91,123.45 134.38,123.45 135.85,123.45 137.32,123.45 138.79,123.41 140.26,123.41 141.73,123.41 143.20,123.41 144.67,123.39 146.14,123.39 147.61,123.39 149.08,123.39 150.55,123.39 152.02,123.39 153.49,123.39 154.96,123.39 156.43,123.39 157.90,123.39 159.37,123.39 160.84,123.39 162.31,123.39 163.78,123.39 165.25,123.39 166.72,123.39 168.19,123.39 169.66,123.39 171.13,123.39 172.60,123.39 174.07,123.39 175.54,123.39 177.01,123.39 178.48,123.36 179.95,123.36 181.42,123.36 182.89,123.36 184.36,123.36 185.83,123.36 187.30,123.36 188.77,123.36 190.25,123.36 191.72,123.36 193.19,123.36 194.66,123.36 196.13,123.36 197.60,123.36 199.07,123.36 200.54,123.33 202.01,123.03 203.48,122.95 204.95,122.82 206.42,122.65 207.89,122.61 209.36,122.61 210.83,122.61 212.30,122.35 213.77,122.33 215.24,122.16 216.71,122.10 218.18,122.00 219.65,121.59 221.12,121.57 222.59,121.51 224.06,121.50 225.53,121.44 227.00,121.44 228.47,121.41 229.94,121.41 231.41,121.41 232.88,121.41 234.35,121.41 235.82,121.41 237.29,121.41 238.76,121.28 240.23,120.91 241.70,120.63 243.17,120.55 244.64,120.37 246.11,120.36 247.58,120.34 249.05,120.33 250.52,120.33 251.99,120.33 253.46,120.24 254.93,120.16 256.40,120.14 257.87,120.11 259.34,120.09 260.81,119.82 262.28,119.64 263.75,119.35 265.22,119.18 266.69,119.05 268.16,118.99 269.63,118.92 271.10,118.91 272.57,118.85 274.04,118.68 275.51,118.68 276.98,118.68 278.45,118.66 279.92,118.65 281.39,118.65 282.86,118.56 284.33,118.54 285.80,118.52 287.27,118.51 288.74,118.49 290.21,118.49 291.68,118.49 293.15,118.49 294.62,118.49 296.09,118.49 297.57,118.49 299.04,118.49 300.51,118.45 301.98,118.42 303.45,118.42 304.92,118.21 306.39,118.20 307.86,118.18 309.33,118.15 310.80,118.04 312.27,117.79 313.74,117.74 315.21,117.74 316.68,117.74 318.15,117.74 319.62,117.74 321.09,117.74 322.56,117.74 324.03,117.74 325.50,117.74 326.97,117.74 328.44,117.74 329.91,117.74 331.38,117.74 332.85,117.73 334.32,117.66 335.79,117.65 337.26,117.65 338.73,117.65 340.20,117.65 341.67,117.60 343.14,117.60 344.61,117.41 346.08,117.24 347.55,117.24 349.02,117.24 350.49,117.24 351.96,117.24 353.43,117.21 354.90,117.21 356.37,117.19 357.84,117.11 359.31,117.04 360.78,116.72 362.25,116.71 363.72,116.23 365.19,115.95 366.66,115.74 368.13,115.07 369.60,114.90 371.07,114.83 372.54,114.60 374.01,114.27 375.48,114.18 376.95,114.07 378.42,113.88 379.89,113.72 381.36,113.65 382.83,113.53 384.30,113.45 385.77,113.24 387.24,113.05 388.71,112.83 390.18,112.46 391.65,112.25 393.12,111.21 394.59,110.43 396.06,109.93 397.53,109.49 399.00,109.01 400.47,109.01 401.94,109.01 403.42,109.01 404.89,108.71 406.36,108.53 407.83,107.90 409.30,107.19 410.77,106.36 412.24,105.11 413.71,104.23 415.18,102.43 416.65,101.34 418.12,100.61 419.59,99.44 421.06,98.69 422.53,97.21 424.00,94.96 425.47,94.28 426.94,93.41 428.41,92.56 429.88,92.28 431.35,91.21 432.82,91.02 434.29,89.73 435.76,88.56 437.23,87.86 438.70,87.07 440.17,86.01 441.64,85.73 443.11,85.64 444.58,85.52 446.05,85.45 447.52,84.78 448.99,83.92 450.46,82.87 451.93,82.57 453.40,81.72 454.87,80.62 456.34,78.43 457.81,76.82 459.28,74.83 460.75,74.30 462.22,73.25 463.69,71.30 465.16,70.18 466.63,69.58 468.10,68.72 469.57,68.16 471.04,67.35 472.51,66.98 473.98,66.16 475.45,64.60 476.92,62.88 478.39,62.36 479.86,61.39 481.33,59.61 482.80,58.70 484.27,56.49 485.74,55.43 487.21,53.51 488.68,51.64 490.15,49.38 491.62,45.99 493.09,43.75 494.56,41.82 496.03,40.58 497.50,38.97 498.97,37.53 500.44,36.83 501.91,35.66 503.38,34.25 504.85,33.70 506.32,32.66 507.79,31.77 509.26,30.89" />
    </svg>
  