
    <svg width="540" height="160" xmlns="http://www.w3.org/2000/svg">
      <style>.line{fill:none;stroke:#388bfd;stroke-width:1.5}.axis{stroke:#555;stroke-width:1;opacity:0.5}.label{fill:#999;font-family:sans-serif;font-size:10px;text-anchor:middle}</style>
      <line class="axis" x1="30" y1="30" x2="30" y2="130" />
      <line class="axis" x1="30" y1="130" x2="510" y2="130" />
      <text class="label" x="15" y="30">8,077</text>
      <text class="label" x="15" y="134">0</text>
      <text class="label" x="30" y="148">2021</text>
      <text class="label" x="510" y="148">2026</text>
      <polyline class="line" points="30.00,129.98 31.48,129.96 32.96,129.95 34.44,129.95 35.92,129.95 37.40,129.79 38.88,129.79 40.35,129.79 41.83,128.90 43.31,127.42 44.79,127.35 46.27,127.35 47.75,127.35 49.23,127.35 50.71,127.35 52.19,127.35 53.67,127.35 55.15,127.35 56.63,127.35 58.10,127.35 59.58,127.35 61.06,127.35 62.54,127.35 64.02,127.35 65.50,127.35 66.98,127.35 68.46,127.35 69.94,126.51 71.42,126.51 72.90,126.50 74.38,126.50 75.86,126.50 77.33,126.50 78.81,126.45 80.29,126.45 81.77,126.45 83.25,126.45 84.73,126.45 86.21,126.45 87.69,126.45 89.17,126.45 90.65,126.45 92.13,126.45 93.61,126.45 95.08,126.45 96.56,126.45 98.04,126.45 99.52,126.45 101.00,126.45 102.48,126.45 103.96,126.45 105.44,126.40 106.92,125.64 108.40,124.95 109.88,124.66 111.36,123.29 112.84,123.29 114.31,123.29 115.79,123.29 117.27,123.29 118.75,123.29 120.23,123.29 121.71,123.29 123.19,123.29 124.67,123.29 126.15,123.29 127.63,123.29 129.11,123.19 130.59,123.19 132.06,123.19 133.54,123.07 135.02,123.07 136.50,123.07 137.98,123.07 139.46,123.03 140.94,123.03 142.42,123.03 143.90,123.03 145.38,123.00 146.86,123.00 148.34,123.00 149.82,123.00 151.29,123.00 152.77,123.00 154.25,123.00 155.73,123.00 157.21,123.00 158.69,123.00 160.17,123.00 161.65,123.00 163.13,123.00 164.61,123.00 166.09,123.00 167.57,123.00 169.04,123.00 170.52,123.00 172.00,123.00 173.48,123.00 174.96,123.00 176.44,123.00 177.92,123.00 179.40,122.97 180.88,122.97 182.36,122.97 183.84,122.97 185.32,122.97 186.80,122.97 188.27,122.97 189.75,122.97 191.23,122.97 192.71,122.97 194.19,122.97 195.67,122.97 197.15,122.97 198.63,122.97 200.11,122.97 201.59,122.94 203.07,122.62 204.55,122.53 206.02,122.40 207.50,122.22 208.98,122.18 210.46,122.18 211.94,122.18 213.42,121.90 214.90,121.88 216.38,121.70 217.86,121.64 219.34,121.53 220.82,121.10 222.30,121.07 223.78,121.01 225.25,121.00 226.73,120.94 228.21,120.94 229.69,120.91 231.17,120.91 232.65,120.91 234.13,120.91 235.61,120.91 237.09,120.91 238.57,120.91 240.05,120.78 241.53,120.38 243.00,120.08 244.48,120.00 245.96,119.81 247.44,119.80 248.92,119.77 250.40,119.76 251.88,119.76 253.36,119.76 254.84,119.67 256.32,119.59 257.80,119.56 259.28,119.54 260.76,119.51 262.23,119.23 263.71,119.03 265.19,118.73 266.67,118.55 268.15,118.41 269.63,118.35 271.11,118.28 272.59,118.26 274.07,118.20 275.55,118.02 277.03,118.02 278.51,118.02 279.98,118.00 281.46,117.99 282.94,117.99 284.42,117.89 285.90,117.87 287.38,117.85 288.86,117.84 290.34,117.82 291.82,117.82 293.30,117.82 294.78,117.82 296.26,117.82 297.73,117.82 299.21,117.82 300.69,117.82 302.17,117.78 303.65,117.74 305.13,117.74 306.61,117.52 308.09,117.51 309.57,117.50 311.05,117.46 312.53,117.35 314.01,117.07 315.49,117.02 316.96,117.02 318.44,117.02 319.92,117.02 321.40,117.02 322.88,117.02 324.36,117.02 325.84,117.02 327.32,117.02 328.80,117.02 330.28,117.02 331.76,117.02 333.24,117.02 334.71,117.01 336.19,116.94 337.67,116.93 339.15,116.93 340.63,116.93 342.11,116.93 343.59,116.88 345.07,116.88 346.55,116.68 348.03,116.49 349.51,116.49 350.99,116.49 352.47,116.49 353.94,116.49 355.42,116.47 356.90,116.47 358.38,116.44 359.86,116.36 361.34,116.28 362.82,115.95 364.30,115.94 365.78,115.43 367.26,115.13 368.74,114.91 370.22,114.20 371.69,114.02 373.17,113.94 374.65,113.71 376.13,113.35 377.61,113.26 379.09,113.14 380.57,112.94 382.05,112.77 383.53,112.69 385.01,112.57 386.49,112.48 387.97,112.26 389.45,112.06 390.92,111.82 392.40,111.44 393.88,111.22 395.36,110.12 396.84,109.29 398.32,108.75 399.80,108.30 401.28,107.79 402.76,107.79 404.24,107.79 405.72,107.79 407.20,107.47 408.67,107.28 410.15,106.61 411.63,105.86 413.11,104.98 414.59,103.65 416.07,102.73 417.55,100.82 419.03,99.67 420.51,98.90 421.99,97.66 423.47,96.87 424.95,95.30 426.43,92.92 427.90,92.20 429.38,91.27 430.86,90.38 432.34,90.08 433.82,88.95 435.30,88.75 436.78,87.39 438.26,86.15 439.74,85.40 441.22,84.56 442.70,83.45 444.18,83.15 445.65,83.05 447.13,82.93 448.61,82.85 450.09,82.15 451.57,81.23 453.05,80.12 454.53,79.81 456.01,78.90 457.49,77.74 458.97,75.43 460.45,73.72 461.93,71.61 463.41,71.05 464.88,69.94 466.36,67.87 467.84,66.70 469.32,66.05 470.80,65.15 472.28,64.55 473.76,63.70 475.24,63.30 476.72,62.44 478.20,60.79 479.68,58.97 481.16,58.41 482.63,57.47 484.11,55.96 485.59,55.07 487.07,53.26 488.55,52.31 490.03,50.45 491.51,48.57 492.99,46.59 494.47,43.24 495.95,40.97 497.43,39.01 498.91,37.75 500.39,36.14 501.86,34.70 503.34,34.02 504.82,32.81 506.30,31.36 507.78,31.04 509.26,30.12" />
    </svg>
  