
    <svg width="540" height="160" xmlns="http://www.w3.org/2000/svg">
      <style>.line{fill:none;stroke:#388bfd;stroke-width:1.5}.axis{stroke:#555;stroke-width:1;opacity:0.5}.label{fill:#999;font-family:sans-serif;font-size:10px;text-anchor:middle}</style>
      <line class="axis" x1="30" y1="30" x2="30" y2="130" />
      <line class="axis" x1="30" y1="130" x2="510" y2="130" />
      <text class="label" x="15" y="30">8,375</text>
      <text class="label" x="15" y="134">0</text>
      <text class="label" x="30" y="148">2021</text>
      <text class="label" x="510" y="148">2026</text>
      <polyline class="line" points="30.00,129.98 31.48,129.96 32.95,129.95 34.43,129.95 35.91,129.95 37.38,129.80 38.86,129.80 40.34,129.80 41.82,128.94 43.29,127.52 44.77,127.44 46.25,127.44 47.72,127.44 49.20,127.44 50.68,127.44 52.15,127.44 53.63,127.44 55.11,127.44 56.58,127.44 58.06,127.44 59.54,127.44 61.02,127.44 62.49,127.44 63.97,127.44 65.45,127.44 66.92,127.44 68.40,127.44 69.88,126.63 71.35,126.63 72.83,126.62 74.31,126.62 75.78,126.62 77.26,126.62 78.74,126.57 80.22,126.57 81.69,126.57 83.17,126.57 84.65,126.57 86.12,126.57 87.60,126.57 89.08,126.57 90.55,126.57 92.03,126.57 93.51,126.57 94.98,126.57 96.46,126.57 97.94,126.57 99.42,126.57 100.89,126.57 102.37,126.57 103.85,126.57 105.32,126.53 106.80,125.80 108.28,125.13 109.75,124.85 111.23,123.53 112.71,123.53 114.18,123.53 115.66,123.53 117.14,123.53 118.62,123.53 120.09,123.53 121.57,123.53 123.05,123.53 124.52,123.53 126.00,123.53 127.48,123.53 128.95,123.43 130.43,123.43 131.91,123.43 133.38,123.31 134.86,123.31 136.34,123.31 137.82,123.31 139.29,123.28 140.77,123.28 142.25,123.28 143.72,123.28 145.20,123.25 146.68,123.25 148.15,123.25 149.63,123.25 151.11,123.25 152.58,123.25 154.06,123.25 155.54,123.25 157.02,123.25 158.49,123.25 159.97,123.25 161.45,123.25 162.92,123.25 164.40,123.25 165.88,123.25 167.35,123.25 168.83,123.25 170.31,123.25 171.78,123.25 173.26,123.25 174.74,123.25 176.22,123.25 177.69,123.25 179.17,123.22 180.65,123.22 182.12,123.22 183.60,123.22 185.08,123.22 186.55,123.22 188.03,123.22 189.51,123.22 190.98,123.22 192.46,123.22 193.94,123.22 195.42,123.22 196.89,123.22 198.37,123.22 199.85,123.22 201.32,123.19 202.80,122.88 204.28,122.80 205.75,122.67 207.23,122.50 208.71,122.45 210.18,122.45 211.66,122.45 213.14,122.19 214.62,122.17 216.09,122.00 217.57,121.94 219.05,121.83 220.52,121.41 222.00,121.39 223.48,121.33 224.95,121.32 226.43,121.26 227.91,121.26 229.38,121.24 230.86,121.24 232.34,121.24 233.82,121.24 235.29,121.24 236.77,121.24 238.25,121.24 239.72,121.10 241.20,120.72 242.68,120.44 244.15,120.35 245.63,120.17 247.11,120.16 248.58,120.14 250.06,120.13 251.54,120.13 253.02,120.13 254.49,120.04 255.97,119.96 257.45,119.93 258.92,119.91 260.40,119.89 261.88,119.61 263.35,119.42 264.83,119.13 266.31,118.96 267.78,118.82 269.26,118.76 270.74,118.69 272.22,118.68 273.69,118.62 275.17,118.44 276.65,118.44 278.12,118.44 279.60,118.43 281.08,118.42 282.55,118.42 284.03,118.32 285.51,118.30 286.98,118.29 288.46,118.27 289.94,118.25 291.42,118.25 292.89,118.25 294.37,118.25 295.85,118.25 297.32,118.25 298.80,118.25 300.28,118.25 301.75,118.21 303.23,118.18 304.71,118.18 306.18,117.96 307.66,117.95 309.14,117.94 310.62,117.90 312.09,117.80 313.57,117.53 315.05,117.49 316.52,117.49 318.00,117.49 319.48,117.49 320.95,117.49 322.43,117.49 323.91,117.49 325.38,117.49 326.86,117.49 328.34,117.49 329.82,117.49 331.29,117.49 332.77,117.49 334.25,117.47 335.72,117.40 337.20,117.39 338.68,117.39 340.15,117.39 341.63,117.39 343.11,117.34 344.58,117.34 346.06,117.15 347.54,116.97 349.02,116.97 350.49,116.97 351.97,116.97 353.45,116.97 354.92,116.95 356.40,116.95 357.88,116.93 359.35,116.84 360.83,116.77 362.31,116.45 363.78,116.44 365.26,115.95 366.74,115.66 368.22,115.44 369.69,114.76 371.17,114.59 372.65,114.51 374.12,114.29 375.60,113.94 377.08,113.86 378.55,113.74 380.03,113.55 381.51,113.38 382.98,113.31 384.46,113.19 385.94,113.10 387.42,112.89 388.89,112.70 390.37,112.47 391.85,112.10 393.32,111.89 394.80,110.82 396.28,110.02 397.75,109.51 399.23,109.07 400.71,108.58 402.18,108.58 403.66,108.58 405.14,108.58 406.62,108.27 408.09,108.09 409.57,107.44 411.05,106.72 412.52,105.87 414.00,104.59 415.48,103.70 416.95,101.86 418.43,100.75 419.91,100.01 421.38,98.81 422.86,98.05 424.34,96.53 425.82,94.24 427.29,93.55 428.77,92.65 430.25,91.79 431.72,91.50 433.20,90.41 434.68,90.21 436.15,88.90 437.63,87.71 439.11,86.99 440.58,86.18 442.06,85.10 443.54,84.82 445.02,84.72 446.49,84.60 447.97,84.53 449.45,83.85 450.92,82.97 452.40,81.89 453.88,81.59 455.35,80.72 456.83,79.60 458.31,77.37 459.78,75.72 461.26,73.69 462.74,73.15 464.22,72.08 465.69,70.08 467.17,68.95 468.65,68.33 470.12,67.46 471.60,66.88 473.08,66.06 474.55,65.68 476.03,64.84 477.51,63.25 478.98,61.50 480.46,60.96 481.94,59.97 483.42,58.16 484.89,57.22 486.37,54.97 487.85,53.89 489.32,51.93 490.80,50.02 492.28,47.72 493.75,44.26 495.23,41.96 496.71,39.99 498.18,38.73 499.66,37.09 501.14,35.62 502.62,34.91 504.09,33.71 505.57,32.27 507.05,31.71 508.52,30.64 510.00,30.00" />
    </svg>
  