
    <svg width="540" height="160" xmlns="http://www.w3.org/2000/svg">
      <style>.line{fill:none;stroke:#388bfd;stroke-width:1.5}.axis{stroke:#555;stroke-width:1;opacity:0.5}.label{fill:#999;font-family:sans-serif;font-size:10px;text-anchor:middle}</style>
      <line class="axis" x1="30" y1="30" x2="30" y2="130" />
      <line class="axis" x1="30" y1="130" x2="510" y2="130" />
      <text class="label" x="15" y="30">8,875</text>
      <text class="label" x="15" y="134">0</text>
      <text class="label" x="30" y="148">2021</text>
      <text class="label" x="510" y="148">2026</text>
      <polyline class="line" points="30.00,129.98 31.46,129.97 32.92,129.95 34.39,129.95 35.85,129.95 37.31,129.81 38.77,129.81 40.23,129.81 41.70,129.00 43.16,127.66 44.62,127.59 46.08,127.59 47.54,127.59 49.01,127.59 50.47,127.59 51.93,127.59 53.39,127.59 54.85,127.59 56.31,127.59 57.78,127.59 59.24,127.59 60.70,127.59 62.16,127.59 63.62,127.59 65.09,127.59 66.55,127.59 68.01,127.59 69.47,126.82 70.93,126.82 72.40,126.81 73.86,126.81 75.32,126.81 76.78,126.81 78.24,126.77 79.71,126.77 81.17,126.77 82.63,126.77 84.09,126.77 85.55,126.77 87.02,126.77 88.48,126.77 89.94,126.77 91.40,126.77 92.86,126.77 94.32,126.77 95.79,126.77 97.25,126.77 98.71,126.77 100.17,126.77 101.63,126.77 103.10,126.77 104.56,126.72 106.02,126.03 107.48,125.40 108.94,125.14 110.41,123.89 111.87,123.89 113.33,123.89 114.79,123.89 116.25,123.89 117.72,123.89 119.18,123.89 120.64,123.89 122.10,123.89 123.56,123.89 125.03,123.89 126.49,123.89 127.95,123.80 129.41,123.80 130.87,123.80 132.34,123.69 133.80,123.69 135.26,123.69 136.72,123.69 138.18,123.66 139.64,123.66 141.11,123.66 142.57,123.66 144.03,123.63 145.49,123.63 146.95,123.63 148.42,123.63 149.88,123.63 151.34,123.63 152.80,123.63 154.26,123.63 155.73,123.63 157.19,123.63 158.65,123.63 160.11,123.63 161.57,123.63 163.04,123.63 164.50,123.63 165.96,123.63 167.42,123.63 168.88,123.63 170.35,123.63 171.81,123.63 173.27,123.63 174.73,123.63 176.19,123.63 177.65,123.60 179.12,123.60 180.58,123.60 182.04,123.60 183.50,123.60 184.96,123.60 186.43,123.60 187.89,123.60 189.35,123.60 190.81,123.60 192.27,123.60 193.74,123.60 195.20,123.60 196.66,123.60 198.12,123.60 199.58,123.58 201.05,123.28 202.51,123.21 203.97,123.08 205.43,122.92 206.89,122.88 208.36,122.88 209.82,122.88 211.28,122.63 212.74,122.61 214.20,122.45 215.66,122.39 217.13,122.29 218.59,121.90 220.05,121.88 221.51,121.82 222.97,121.81 224.44,121.75 225.90,121.75 227.36,121.73 228.82,121.73 230.28,121.73 231.75,121.73 233.21,121.73 234.67,121.73 236.13,121.73 237.59,121.61 239.06,121.25 240.52,120.97 241.98,120.90 243.44,120.73 244.90,120.72 246.37,120.69 247.83,120.68 249.29,120.68 250.75,120.68 252.21,120.60 253.68,120.52 255.14,120.50 256.60,120.48 258.06,120.46 259.52,120.20 260.98,120.02 262.45,119.75 263.91,119.58 265.37,119.45 266.83,119.40 268.29,119.33 269.76,119.32 271.22,119.26 272.68,119.09 274.14,119.09 275.60,119.09 277.07,119.08 278.53,119.07 279.99,119.07 281.45,118.98 282.91,118.96 284.38,118.95 285.84,118.94 287.30,118.91 288.76,118.91 290.22,118.91 291.69,118.91 293.15,118.91 294.61,118.91 296.07,118.91 297.53,118.91 298.99,118.88 300.46,118.85 301.92,118.85 303.38,118.64 304.84,118.63 306.30,118.62 307.77,118.59 309.23,118.48 310.69,118.24 312.15,118.19 313.61,118.19 315.08,118.19 316.54,118.19 318.00,118.19 319.46,118.19 320.92,118.19 322.39,118.19 323.85,118.19 325.31,118.19 326.77,118.19 328.23,118.19 329.70,118.19 331.16,118.18 332.62,118.11 334.08,118.10 335.54,118.10 337.01,118.10 338.47,118.10 339.93,118.06 341.39,118.06 342.85,117.88 344.31,117.71 345.78,117.71 347.24,117.71 348.70,117.71 350.16,117.71 351.62,117.68 353.09,117.68 354.55,117.66 356.01,117.58 357.47,117.52 358.93,117.21 360.40,117.20 361.86,116.74 363.32,116.47 364.78,116.26 366.24,115.62 367.71,115.45 369.17,115.39 370.63,115.17 372.09,114.85 373.55,114.77 375.02,114.65 376.48,114.47 377.94,114.32 379.40,114.25 380.86,114.14 382.32,114.06 383.79,113.85 385.25,113.67 386.71,113.46 388.17,113.11 389.63,112.91 391.10,111.90 392.56,111.15 394.02,110.66 395.48,110.25 396.94,109.79 398.41,109.79 399.87,109.79 401.33,109.79 402.79,109.49 404.25,109.32 405.72,108.72 407.18,108.03 408.64,107.23 410.10,106.02 411.56,105.18 413.03,103.44 414.49,102.39 415.95,101.70 417.41,100.57 418.87,99.85 420.34,98.42 421.80,96.25 423.26,95.60 424.72,94.75 426.18,93.94 427.64,93.67 429.11,92.64 430.57,92.46 432.03,91.22 433.49,90.09 434.95,89.41 436.42,88.65 437.88,87.63 439.34,87.36 440.80,87.27 442.26,87.16 443.73,87.09 445.19,86.45 446.65,85.62 448.11,84.60 449.57,84.32 451.04,83.50 452.50,82.44 453.96,80.33 455.42,78.78 456.88,76.86 458.35,76.35 459.81,75.34 461.27,73.46 462.73,72.39 464.19,71.80 465.65,70.98 467.12,70.44 468.58,69.66 470.04,69.30 471.50,68.51 472.96,67.01 474.43,65.36 475.89,64.85 477.35,63.92 478.81,62.20 480.27,61.32 481.74,59.19 483.20,58.18 484.66,56.33 486.12,54.53 487.58,52.35 489.05,49.09 490.51,46.92 491.97,45.06 493.43,43.87 494.89,42.33 496.36,40.94 497.82,40.26 499.28,39.14 500.74,37.77 502.20,37.01 503.66,35.84 505.13,34.95 506.59,34.10 508.05,32.83 509.51,30.51" />
    </svg>
  