
    <svg width="540" height="160" xmlns="http://www.w3.org/2000/svg">
      <style>.line{fill:none;stroke:#388bfd;stroke-width:1.5}.axis{stroke:#555;stroke-width:1;opacity:0.5}.label{fill:#999;font-family:sans-serif;font-size:10px;text-anchor:middle}</style>
      <line class="axis" x1="30" y1="30" x2="30" y2="130" />
      <line class="axis" x1="30" y1="130" x2="510" y2="130" />
      <text class="label" x="15" y="30">9,186</text>
      <text class="label" x="15" y="134">0</text>
      <text class="label" x="30" y="148">2021</text>
      <text class="label" x="510" y="148">2026</text>
      <polyline class="line" points="30.00,129.98 31.45,129.97 32.90,129.96 34.36,129.96 35.81,129.96 37.26,129.81 38.71,129.81 40.17,129.81 41.62,129.03 43.07,127.74 44.52,127.67 45.98,127.67 47.43,127.67 48.88,127.67 50.33,127.67 51.79,127.67 53.24,127.67 54.69,127.67 56.14,127.67 57.59,127.67 59.05,127.67 60.50,127.67 61.95,127.67 63.40,127.67 64.86,127.67 66.31,127.67 67.76,127.67 69.21,126.93 70.67,126.93 72.12,126.92 73.57,126.92 75.02,126.92 76.48,126.92 77.93,126.88 79.38,126.88 80.83,126.88 82.28,126.88 83.74,126.88 85.19,126.88 86.64,126.88 88.09,126.88 89.55,126.88 91.00,126.88 92.45,126.88 93.90,126.88 95.36,126.88 96.81,126.88 98.26,126.88 99.71,126.88 101.16,126.88 102.62,126.88 104.07,126.83 105.52,126.17 106.97,125.56 108.43,125.31 109.88,124.10 111.33,124.10 112.78,124.10 114.24,124.10 115.69,124.10 117.14,124.10 118.59,124.10 120.05,124.10 121.50,124.10 122.95,124.10 124.40,124.10 125.85,124.10 127.31,124.01 128.76,124.01 130.21,124.01 131.66,123.90 133.12,123.90 134.57,123.90 136.02,123.90 137.47,123.87 138.93,123.87 140.38,123.87 141.83,123.87 143.28,123.85 144.74,123.85 146.19,123.85 147.64,123.85 149.09,123.85 150.54,123.85 152.00,123.85 153.45,123.85 154.90,123.85 156.35,123.85 157.81,123.85 159.26,123.85 160.71,123.85 162.16,123.85 163.62,123.85 165.07,123.85 166.52,123.85 167.97,123.85 169.43,123.85 170.88,123.85 172.33,123.85 173.78,123.85 175.23,123.85 176.69,123.82 178.14,123.82 179.59,123.82 181.04,123.82 182.50,123.82 183.95,123.82 185.40,123.82 186.85,123.82 188.31,123.82 189.76,123.82 191.21,123.82 192.66,123.82 194.11,123.82 195.57,123.82 197.02,123.82 198.47,123.79 199.92,123.51 201.38,123.44 202.83,123.32 204.28,123.16 205.73,123.12 207.19,123.12 208.64,123.12 210.09,122.88 211.54,122.86 213.00,122.71 214.45,122.65 215.90,122.55 217.35,122.17 218.80,122.15 220.26,122.10 221.71,122.09 223.16,122.03 224.61,122.03 226.07,122.01 227.52,122.01 228.97,122.01 230.42,122.01 231.88,122.01 233.33,122.01 234.78,122.01 236.23,121.89 237.69,121.54 239.14,121.28 240.59,121.20 242.04,121.04 243.49,121.03 244.95,121.01 246.40,121.00 247.85,121.00 249.30,121.00 250.76,120.92 252.21,120.84 253.66,120.82 255.11,120.80 256.57,120.78 258.02,120.53 259.47,120.35 260.92,120.09 262.38,119.93 263.83,119.81 265.28,119.76 266.73,119.69 268.18,119.68 269.64,119.63 271.09,119.46 272.54,119.46 273.99,119.46 275.45,119.45 276.90,119.44 278.35,119.44 279.80,119.35 281.26,119.33 282.71,119.32 284.16,119.31 285.61,119.29 287.07,119.29 288.52,119.29 289.97,119.29 291.42,119.29 292.87,119.29 294.33,119.29 295.78,119.29 297.23,119.26 298.68,119.22 300.14,119.22 301.59,119.03 303.04,119.02 304.49,119.01 305.95,118.97 307.40,118.87 308.85,118.63 310.30,118.59 311.75,118.59 313.21,118.59 314.66,118.59 316.11,118.59 317.56,118.59 319.02,118.59 320.47,118.59 321.92,118.59 323.37,118.59 324.83,118.59 326.28,118.59 327.73,118.59 329.18,118.58 330.64,118.52 332.09,118.50 333.54,118.50 334.99,118.50 336.44,118.50 337.90,118.46 339.35,118.46 340.80,118.29 342.25,118.12 343.71,118.12 345.16,118.12 346.61,118.12 348.06,118.12 349.52,118.10 350.97,118.10 352.42,118.08 353.87,118.00 355.33,117.94 356.78,117.64 358.23,117.63 359.68,117.19 361.13,116.93 362.59,116.73 364.04,116.11 365.49,115.95 366.94,115.88 368.40,115.67 369.85,115.36 371.30,115.28 372.75,115.17 374.21,115.00 375.66,114.85 377.11,114.78 378.56,114.67 380.02,114.60 381.47,114.40 382.92,114.23 384.37,114.02 385.82,113.68 387.28,113.49 388.73,112.52 390.18,111.79 391.63,111.32 393.09,110.92 394.54,110.47 395.99,110.47 397.44,110.47 398.90,110.47 400.35,110.19 401.80,110.02 403.25,109.44 404.70,108.77 406.16,108.00 407.61,106.83 409.06,106.02 410.51,104.34 411.97,103.33 413.42,102.65 414.87,101.57 416.32,100.87 417.78,99.49 419.23,97.40 420.68,96.76 422.13,95.95 423.59,95.16 425.04,94.90 426.49,93.90 427.94,93.73 429.39,92.53 430.85,91.44 432.30,90.79 433.75,90.05 435.20,89.07 436.66,88.81 438.11,88.72 439.56,88.61 441.01,88.55 442.47,87.93 443.92,87.12 445.37,86.14 446.82,85.87 448.28,85.07 449.73,84.05 451.18,82.01 452.63,80.51 454.08,78.66 455.54,78.17 456.99,77.19 458.44,75.37 459.89,74.34 461.35,73.77 462.80,72.98 464.25,72.46 465.70,71.70 467.16,71.36 468.61,70.59 470.06,69.15 471.51,67.55 472.97,67.06 474.42,66.15 475.87,64.50 477.32,63.65 478.77,61.59 480.23,60.61 481.68,58.83 483.13,57.08 484.58,54.98 486.04,51.83 487.49,49.74 488.94,47.94 490.39,46.79 491.85,45.30 493.30,43.96 494.75,43.30 496.20,42.21 497.66,40.90 499.11,40.16 500.56,39.02 502.01,38.16 503.46,37.35 504.92,36.12 506.37,33.88 507.82,32.13 509.27,30.62" />
    </svg>
  