
    <svg width="540" height="160" xmlns="http://www.w3.org/2000/svg">
      <style>.line{fill:none;stroke:#388bfd;stroke-width:1.5}.axis{stroke:#555;stroke-width:1;opacity:0.5}.label{fill:#999;font-family:sans-serif;font-size:10px;text-anchor:middle}</style>
      <line class="axis" x1="30" y1="30" x2="30" y2="130" />
      <line class="axis" x1="30" y1="130" x2="510" y2="130" />
      <text class="label" x="15" y="30">4,138</text>
      <text class="label" x="15" y="134">0</text>
      <text class="label" x="30" y="148">2021</text>
      <text class="label" x="510" y="148">2026</text>
      <polyline class="line" points="30.00,129.95 31.53,129.93 33.06,129.90 34.59,129.90 36.12,129.90 37.65,129.59 39.18,129.59 40.71,129.59 42.24,127.85 43.77,124.97 45.30,124.83 46.83,124.83 48.36,124.83 49.89,124.83 51.42,124.83 52.95,124.83 54.48,124.83 56.01,124.83 57.55,124.83 59.08,124.83 60.61,124.83 62.14,124.83 63.67,124.83 65.20,124.83 66.73,124.83 68.26,124.83 69.79,124.83 71.32,123.19 72.85,123.19 74.38,123.16 75.91,123.16 77.44,123.16 78.97,123.16 80.50,123.06 82.03,123.06 83.56,123.06 85.09,123.06 86.62,123.06 88.15,123.06 89.68,123.06 91.21,123.06 92.74,123.06 94.27,123.06 95.80,123.06 97.33,123.06 98.86,123.06 100.39,123.06 101.92,123.06 103.45,123.06 104.98,123.06 106.51,123.06 108.04,122.97 109.57,121.49 111.11,120.14 112.64,119.58 114.17,116.90 115.70,116.90 117.23,116.90 118.76,116.90 120.29,116.90 121.82,116.90 123.35,116.90 124.88,116.90 126.41,116.90 127.94,116.90 129.47,116.90 131.00,116.90 132.53,116.71 134.06,116.71 135.59,116.71 137.12,116.47 138.65,116.47 140.18,116.47 141.71,116.47 143.24,116.39 144.77,116.39 146.30,116.39 147.83,116.39 149.36,116.35 150.89,116.35 152.42,116.35 153.95,116.35 155.48,116.35 157.01,116.35 158.54,116.35 160.07,116.35 161.60,116.35 163.13,116.35 164.67,116.35 166.20,116.35 167.73,116.35 169.26,116.35 170.79,116.35 172.32,116.35 173.85,116.35 175.38,116.35 176.91,116.35 178.44,116.35 179.97,116.35 181.50,116.35 183.03,116.35 184.56,116.27 186.09,116.27 187.62,116.27 189.15,116.27 190.68,116.27 192.21,116.27 193.74,116.27 195.27,116.27 196.80,116.27 198.33,116.27 199.86,116.27 201.39,116.27 202.92,116.27 204.45,116.27 205.98,116.27 207.51,116.23 209.04,115.60 210.57,115.43 212.10,115.16 213.63,114.82 215.16,114.73 216.70,114.73 218.23,114.73 219.76,114.20 221.29,114.15 222.82,113.81 224.35,113.69 225.88,113.47 227.41,112.62 228.94,112.58 230.47,112.46 232.00,112.43 233.53,112.31 235.06,112.31 236.59,112.26 238.12,112.26 239.65,112.26 241.18,112.26 242.71,112.26 244.24,112.26 245.77,112.26 247.30,112.00 248.83,111.22 250.36,110.64 251.89,110.47 253.42,110.11 254.95,110.09 256.48,110.04 258.01,110.01 259.54,110.01 261.07,110.01 262.60,109.85 264.13,109.68 265.66,109.63 267.19,109.58 268.72,109.53 270.26,108.98 271.79,108.59 273.32,108.01 274.85,107.65 276.38,107.38 277.91,107.26 279.44,107.11 280.97,107.09 282.50,106.97 284.03,106.61 285.56,106.61 287.09,106.61 288.62,106.58 290.15,106.56 291.68,106.56 293.21,106.37 294.74,106.32 296.27,106.29 297.80,106.27 299.33,106.22 300.86,106.22 302.39,106.22 303.92,106.22 305.45,106.22 306.98,106.22 308.51,106.22 310.04,106.22 311.57,106.15 313.10,106.08 314.63,106.08 316.16,105.64 317.69,105.62 319.22,105.59 320.75,105.52 322.28,105.30 323.82,104.77 325.35,104.67 326.88,104.67 328.41,104.67 329.94,104.67 331.47,104.67 333.00,104.67 334.53,104.67 336.06,104.67 337.59,104.67 339.12,104.67 340.65,104.67 342.18,104.67 343.71,104.67 345.24,104.65 346.77,104.50 348.30,104.48 349.83,104.48 351.36,104.48 352.89,104.48 354.42,104.38 355.95,104.38 357.48,104.00 359.01,103.63 360.54,103.63 362.07,103.63 363.60,103.63 365.13,103.63 366.66,103.59 368.19,103.59 369.72,103.54 371.25,103.37 372.78,103.22 374.31,102.57 375.84,102.55 377.38,101.56 378.91,100.98 380.44,100.54 381.97,99.16 383.50,98.95 385.03,98.90 386.56,98.90 388.09,98.90 389.62,98.90 391.15,98.85 392.68,98.73 394.21,98.73 395.74,98.73 397.27,98.73 398.80,98.73 400.33,98.73 401.86,98.68 403.39,98.63 404.92,98.63 406.45,98.63 407.98,98.58 409.51,98.58 411.04,98.39 412.57,98.29 414.10,98.29 415.63,98.29 417.16,98.29 418.69,98.29 420.22,98.29 421.75,98.29 423.28,97.76 424.81,97.21 426.34,96.75 427.87,96.12 429.40,95.39 430.94,93.68 432.47,92.61 434.00,91.87 435.53,90.63 437.06,89.67 438.59,88.02 440.12,85.65 441.65,84.95 443.18,83.94 444.71,83.07 446.24,82.78 447.77,81.67 449.30,81.47 450.83,80.14 452.36,78.94 453.89,78.21 455.42,77.37 456.95,76.21 458.48,75.87 460.01,75.70 461.54,75.53 463.07,75.38 464.60,74.47 466.13,73.43 467.66,71.78 469.19,71.30 470.72,70.45 472.25,69.08 473.78,66.01 475.31,63.69 476.84,61.10 478.37,60.55 479.90,59.41 481.43,57.11 482.96,55.71 484.50,54.94 486.03,53.78 487.56,53.18 489.09,52.33 490.62,51.94 492.15,50.64 493.68,48.68 495.21,46.82 496.74,46.26 498.27,45.30 499.80,43.56 501.33,42.25 502.86,40.32 504.39,39.33 505.92,37.35 507.45,34.71 508.98,32.46" />
    </svg>
  