
    <svg width="540" height="160" xmlns="http://www.w3.org/2000/svg">
      <style>.line{fill:none;stroke:#388bfd;stroke-width:1.5}.axis{stroke:#555;stroke-width:1;opacity:0.5}.label{fill:#999;font-family:sans-serif;font-size:10px;text-anchor:middle}</style>
      <line class="axis" x1="30" y1="30" x2="30" y2="130" />
      <line class="axis" x1="30" y1="130" x2="510" y2="130" />
      <text class="label" x="15" y="30">7,777</text>
      <text class="label" x="15" y="134">0</text>
      <text class="label" x="30" y="148">2021</text>
      <text class="label" x="510" y="148">2026</text>
      <polyline class="line" points="30.00,129.97 31.49,129.96 32.99,129.95 34.48,129.95 35.98,129.95 37.47,129.78 38.96,129.78 40.46,129.78 41.95,128.86 43.44,127.33 44.94,127.25 46.43,127.25 47.93,127.25 49.42,127.25 50.91,127.25 52.41,127.25 53.90,127.25 55.39,127.25 56.89,127.25 58.38,127.25 59.88,127.25 61.37,127.25 62.86,127.25 64.36,127.25 65.85,127.25 67.34,127.25 68.84,127.25 70.33,126.37 71.83,126.37 73.32,126.36 74.81,126.36 76.31,126.36 77.80,126.36 79.29,126.31 80.79,126.31 82.28,126.31 83.78,126.31 85.27,126.31 86.76,126.31 88.26,126.31 89.75,126.31 91.24,126.31 92.74,126.31 94.23,126.31 95.73,126.31 97.22,126.31 98.71,126.31 100.21,126.31 101.70,126.31 103.20,126.31 104.69,126.31 106.18,126.26 107.68,125.47 109.17,124.75 110.66,124.46 112.16,123.03 113.65,123.03 115.15,123.03 116.64,123.03 118.13,123.03 119.63,123.03 121.12,123.03 122.61,123.03 124.11,123.03 125.60,123.03 127.10,123.03 128.59,123.03 130.08,122.93 131.58,122.93 133.07,122.93 134.56,122.80 136.06,122.80 137.55,122.80 139.05,122.80 140.54,122.76 142.03,122.76 143.53,122.76 145.02,122.76 146.51,122.73 148.01,122.73 149.50,122.73 151.00,122.73 152.49,122.73 153.98,122.73 155.48,122.73 156.97,122.73 158.46,122.73 159.96,122.73 161.45,122.73 162.95,122.73 164.44,122.73 165.93,122.73 167.43,122.73 168.92,122.73 170.41,122.73 171.91,122.73 173.40,122.73 174.90,122.73 176.39,122.73 177.88,122.73 179.38,122.73 180.87,122.70 182.37,122.70 183.86,122.70 185.35,122.70 186.85,122.70 188.34,122.70 189.83,122.70 191.33,122.70 192.82,122.70 194.32,122.70 195.81,122.70 197.30,122.70 198.80,122.70 200.29,122.70 201.78,122.70 203.28,122.67 204.77,122.34 206.27,122.25 207.76,122.10 209.25,121.92 210.75,121.87 212.24,121.87 213.73,121.87 215.23,121.59 216.72,121.56 218.22,121.38 219.71,121.32 221.20,121.20 222.70,120.75 224.19,120.73 225.68,120.66 227.18,120.65 228.67,120.59 230.17,120.59 231.66,120.56 233.15,120.56 234.65,120.56 236.14,120.56 237.63,120.56 239.13,120.56 240.62,120.56 242.12,120.42 243.61,120.01 245.10,119.70 246.60,119.61 248.09,119.42 249.59,119.40 251.08,119.38 252.57,119.37 254.07,119.37 255.56,119.37 257.05,119.28 258.55,119.19 260.04,119.16 261.54,119.13 263.03,119.11 264.52,118.81 266.02,118.61 267.51,118.30 269.00,118.11 270.50,117.96 271.99,117.90 273.49,117.82 274.98,117.81 276.47,117.75 277.97,117.55 279.46,117.55 280.95,117.55 282.45,117.54 283.94,117.53 285.44,117.53 286.93,117.42 288.42,117.40 289.92,117.39 291.41,117.37 292.90,117.35 294.40,117.35 295.89,117.35 297.39,117.35 298.88,117.35 300.37,117.35 301.87,117.35 303.36,117.35 304.85,117.31 306.35,117.27 307.84,117.27 309.34,117.04 310.83,117.03 312.32,117.01 313.82,116.97 315.31,116.86 316.80,116.58 318.30,116.52 319.79,116.52 321.29,116.52 322.78,116.52 324.27,116.52 325.77,116.52 327.26,116.52 328.76,116.52 330.25,116.52 331.74,116.52 333.24,116.52 334.73,116.52 336.22,116.52 337.72,116.51 339.21,116.43 340.71,116.42 342.20,116.42 343.69,116.42 345.19,116.42 346.68,116.37 348.17,116.37 349.67,116.16 351.16,115.97 352.66,115.97 354.15,115.97 355.64,115.97 357.14,115.97 358.63,115.95 360.12,115.95 361.62,115.92 363.11,115.83 364.61,115.75 366.10,115.41 367.59,115.39 369.09,114.87 370.58,114.56 372.07,114.33 373.57,113.59 375.06,113.40 376.56,113.32 378.05,113.08 379.54,112.71 381.04,112.62 382.53,112.49 384.02,112.28 385.52,112.10 387.01,112.02 388.51,111.90 390.00,111.81 391.49,111.57 392.99,111.37 394.48,111.12 395.98,110.73 397.47,110.49 398.96,109.35 400.46,108.49 401.95,107.93 403.44,107.46 404.94,106.93 406.43,106.93 407.93,106.93 409.42,106.93 410.91,106.60 412.41,106.40 413.90,105.71 415.39,104.93 416.89,104.01 418.38,102.64 419.88,101.67 421.37,99.69 422.86,98.50 424.36,97.70 425.85,96.41 427.34,95.59 428.84,93.96 430.33,91.49 431.83,90.74 433.32,89.78 434.81,88.85 436.31,88.54 437.80,87.36 439.29,87.16 440.79,85.74 442.28,84.46 443.78,83.68 445.27,82.81 446.76,81.65 448.26,81.34 449.75,81.24 451.24,81.11 452.74,81.04 454.23,80.30 455.73,79.35 457.22,78.19 458.71,77.87 460.21,76.93 461.70,75.72 463.20,73.32 464.69,71.55 466.18,69.36 467.68,68.78 469.17,67.62 470.66,65.48 472.16,64.25 473.65,63.59 475.15,62.65 476.64,62.03 478.13,61.14 479.63,60.73 481.12,59.83 482.61,58.12 484.11,56.23 485.60,55.65 487.10,54.68 488.59,53.11 490.08,52.18 491.58,50.30 493.07,49.31 494.56,47.38 496.06,45.43 497.55,43.37 499.05,39.89 500.54,37.77 502.03,35.73 503.53,34.60 505.02,32.93 506.51,31.50 508.01,31.02 509.50,30.23" />
    </svg>
  