
    <svg width="540" height="160" xmlns="http://www.w3.org/2000/svg">
      <style>.line{fill:none;stroke:#388bfd;stroke-width:1.5}.axis{stroke:#555;stroke-width:1;opacity:0.5}.label{fill:#999;font-family:sans-serif;font-size:10px;text-anchor:middle}</style>
      <line class="axis" x1="30" y1="30" x2="30" y2="130" />
      <line class="axis" x1="30" y1="130" x2="510" y2="130" />
      <text class="label" x="15" y="30">8,580</text>
      <text class="label" x="15" y="134">0</text>
      <text class="label" x="30" y="148">2021</text>
      <text class="label" x="510" y="148">2026</text>
      <polyline class="line" points="30.00,129.98 31.47,129.97 32.93,129.95 34.40,129.95 35.86,129.95 37.33,129.80 38.79,129.80 40.26,129.80 41.73,128.96 43.19,127.58 44.66,127.51 46.12,127.51 47.59,127.51 49.05,127.51 50.52,127.51 51.98,127.51 53.45,127.51 54.92,127.51 56.38,127.51 57.85,127.51 59.31,127.51 60.78,127.51 62.24,127.51 63.71,127.51 65.18,127.51 66.64,127.51 68.11,127.51 69.57,126.71 71.04,126.71 72.50,126.70 73.97,126.70 75.44,126.70 76.90,126.70 78.37,126.66 79.83,126.66 81.30,126.66 82.76,126.66 84.23,126.66 85.69,126.66 87.16,126.66 88.63,126.66 90.09,126.66 91.56,126.66 93.02,126.66 94.49,126.66 95.95,126.66 97.42,126.66 98.89,126.66 100.35,126.66 101.82,126.66 103.28,126.66 104.75,126.61 106.21,125.90 107.68,125.24 109.15,124.98 110.61,123.68 112.08,123.68 113.54,123.68 115.01,123.68 116.47,123.68 117.94,123.68 119.40,123.68 120.87,123.68 122.34,123.68 123.80,123.68 125.27,123.68 126.73,123.68 128.20,123.59 129.66,123.59 131.13,123.59 132.60,123.47 134.06,123.47 135.53,123.47 136.99,123.47 138.46,123.44 139.92,123.44 141.39,123.44 142.85,123.44 144.32,123.41 145.79,123.41 147.25,123.41 148.72,123.41 150.18,123.41 151.65,123.41 153.11,123.41 154.58,123.41 156.05,123.41 157.51,123.41 158.98,123.41 160.44,123.41 161.91,123.41 163.37,123.41 164.84,123.41 166.31,123.41 167.77,123.41 169.24,123.41 170.70,123.41 172.17,123.41 173.63,123.41 175.10,123.41 176.56,123.41 178.03,123.38 179.50,123.38 180.96,123.38 182.43,123.38 183.89,123.38 185.36,123.38 186.82,123.38 188.29,123.38 189.76,123.38 191.22,123.38 192.69,123.38 194.15,123.38 195.62,123.38 197.08,123.38 198.55,123.38 200.02,123.36 201.48,123.05 202.95,122.97 204.41,122.84 205.88,122.68 207.34,122.63 208.81,122.63 210.27,122.63 211.74,122.38 213.21,122.35 214.67,122.19 216.14,122.13 217.60,122.03 219.07,121.62 220.53,121.60 222.00,121.54 223.47,121.53 224.93,121.47 226.40,121.47 227.86,121.45 229.33,121.45 230.79,121.45 232.26,121.45 233.73,121.45 235.19,121.45 236.66,121.45 238.12,121.32 239.59,120.94 241.05,120.66 242.52,120.58 243.98,120.41 245.45,120.40 246.92,120.37 248.38,120.36 249.85,120.36 251.31,120.36 252.78,120.28 254.24,120.20 255.71,120.17 257.18,120.15 258.64,120.13 260.11,119.86 261.57,119.67 263.04,119.39 264.50,119.22 265.97,119.09 267.44,119.03 268.90,118.96 270.37,118.95 271.83,118.89 273.30,118.72 274.76,118.72 276.23,118.72 277.69,118.71 279.16,118.69 280.63,118.69 282.09,118.60 283.56,118.58 285.02,118.57 286.49,118.55 287.95,118.53 289.42,118.53 290.89,118.53 292.35,118.53 293.82,118.53 295.28,118.53 296.75,118.53 298.21,118.53 299.68,118.50 301.15,118.46 302.61,118.46 304.08,118.25 305.54,118.24 307.01,118.23 308.47,118.19 309.94,118.09 311.40,117.83 312.87,117.79 314.34,117.79 315.80,117.79 317.27,117.79 318.73,117.79 320.20,117.79 321.66,117.79 323.13,117.79 324.60,117.79 326.06,117.79 327.53,117.79 328.99,117.79 330.46,117.79 331.92,117.77 333.39,117.70 334.85,117.69 336.32,117.69 337.79,117.69 339.25,117.69 340.72,117.65 342.18,117.65 343.65,117.46 345.11,117.28 346.58,117.28 348.05,117.28 349.51,117.28 350.98,117.28 352.44,117.26 353.91,117.26 355.37,117.24 356.84,117.16 358.31,117.09 359.77,116.77 361.24,116.76 362.70,116.28 364.17,116.00 365.63,115.79 367.10,115.13 368.56,114.95 370.03,114.88 371.50,114.66 372.96,114.32 374.43,114.24 375.89,114.13 377.36,113.94 378.82,113.78 380.29,113.71 381.76,113.59 383.22,113.51 384.69,113.30 386.15,113.11 387.62,112.89 389.08,112.53 390.55,112.32 392.02,111.28 393.48,110.50 394.95,110.00 396.41,109.57 397.88,109.09 399.34,109.09 400.81,109.09 402.27,109.09 403.74,108.79 405.21,108.61 406.67,107.98 408.14,107.27 409.60,106.45 411.07,105.20 412.53,104.32 414.00,102.53 415.47,101.45 416.93,100.72 418.40,99.56 419.86,98.81 421.33,97.33 422.79,95.09 424.26,94.42 425.73,93.54 427.19,92.70 428.66,92.42 430.12,91.35 431.59,91.17 433.05,89.88 434.52,88.72 435.98,88.02 437.45,87.23 438.92,86.18 440.38,85.90 441.85,85.80 443.31,85.69 444.78,85.62 446.24,84.95 447.71,84.09 449.18,83.04 450.64,82.75 452.11,81.90 453.57,80.80 455.04,78.62 456.50,77.02 457.97,75.03 459.44,74.51 460.90,73.46 462.37,71.52 463.83,70.41 465.30,69.80 466.76,68.95 468.23,68.39 469.69,67.59 471.16,67.21 472.63,66.40 474.09,64.85 475.56,63.14 477.02,62.61 478.49,61.64 479.95,59.87 481.42,58.96 482.89,56.76 484.35,55.71 485.82,53.80 487.28,51.93 488.75,49.69 490.21,46.31 491.68,44.07 493.15,42.14 494.61,40.91 496.08,39.31 497.54,37.88 499.01,37.18 500.47,36.01 501.94,34.60 503.40,34.06 504.87,33.02 506.34,32.13 507.80,31.26 509.27,30.13" />
    </svg>
  