
    <svg width="540" height="160" xmlns="http://www.w3.org/2000/svg">
      <style>.line{fill:none;stroke:#388bfd;stroke-width:1.5}.axis{stroke:#555;stroke-width:1;opacity:0.5}.label{fill:#999;font-family:sans-serif;font-size:10px;text-anchor:middle}</style>
      <line class="axis" x1="30" y1="30" x2="30" y2="130" />
      <line class="axis" x1="30" y1="130" x2="510" y2="130" />
      <text class="label" x="15" y="30">7,450</text>
      <text class="label" x="15" y="134">0</text>
      <text class="label" x="30" y="148">2021</text>
      <text class="label" x="510" y="148">2026</text>
      <polyline class="line" points="30.00,129.97 31.50,129.96 33.01,129.95 34.51,129.95 36.02,129.95 37.52,129.77 39.03,129.77 40.53,129.77 42.04,128.81 43.54,127.21 45.05,127.13 46.55,127.13 48.06,127.13 49.56,127.13 51.07,127.13 52.57,127.13 54.08,127.13 55.58,127.13 57.08,127.13 58.59,127.13 60.09,127.13 61.60,127.13 63.10,127.13 64.61,127.13 66.11,127.13 67.62,127.13 69.12,127.13 70.63,126.21 72.13,126.21 73.64,126.20 75.14,126.20 76.65,126.20 78.15,126.20 79.66,126.15 81.16,126.15 82.66,126.15 84.17,126.15 85.67,126.15 87.18,126.15 88.68,126.15 90.19,126.15 91.69,126.15 93.20,126.15 94.70,126.15 96.21,126.15 97.71,126.15 99.22,126.15 100.72,126.15 102.23,126.15 103.73,126.15 105.24,126.15 106.74,126.09 108.24,125.28 109.75,124.52 111.25,124.21 112.76,122.72 114.26,122.72 115.77,122.72 117.27,122.72 118.78,122.72 120.28,122.72 121.79,122.72 123.29,122.72 124.80,122.72 126.30,122.72 127.81,122.72 129.31,122.72 130.82,122.62 132.32,122.62 133.82,122.62 135.33,122.48 136.83,122.48 138.34,122.48 139.84,122.48 141.35,122.44 142.85,122.44 144.36,122.44 145.86,122.44 147.37,122.42 148.87,122.42 150.38,122.42 151.88,122.42 153.39,122.42 154.89,122.42 156.39,122.42 157.90,122.42 159.40,122.42 160.91,122.42 162.41,122.42 163.92,122.42 165.42,122.42 166.93,122.42 168.43,122.42 169.94,122.42 171.44,122.42 172.95,122.42 174.45,122.42 175.96,122.42 177.46,122.42 178.97,122.42 180.47,122.42 181.97,122.38 183.48,122.38 184.98,122.38 186.49,122.38 187.99,122.38 189.50,122.38 191.00,122.38 192.51,122.38 194.01,122.38 195.52,122.38 197.02,122.38 198.53,122.38 200.03,122.38 201.54,122.38 203.04,122.38 204.55,122.35 206.05,122.00 207.55,121.91 209.06,121.76 210.56,121.57 212.07,121.52 213.57,121.52 215.08,121.52 216.58,121.22 218.09,121.19 219.59,121.01 221.10,120.94 222.60,120.82 224.11,120.35 225.61,120.32 227.12,120.26 228.62,120.24 230.13,120.17 231.63,120.17 233.13,120.15 234.64,120.15 236.14,120.15 237.65,120.15 239.15,120.15 240.66,120.15 242.16,120.15 243.67,120.00 245.17,119.57 246.68,119.25 248.18,119.15 249.69,118.95 251.19,118.94 252.70,118.91 254.20,118.90 255.71,118.90 257.21,118.90 258.71,118.81 260.22,118.71 261.72,118.68 263.23,118.66 264.73,118.63 266.24,118.32 267.74,118.11 269.25,117.79 270.75,117.58 272.26,117.44 273.76,117.37 275.27,117.29 276.77,117.28 278.28,117.21 279.78,117.01 281.29,117.01 282.79,117.01 284.29,116.99 285.80,116.98 287.30,116.98 288.81,116.87 290.31,116.85 291.82,116.83 293.32,116.82 294.83,116.79 296.33,116.79 297.84,116.79 299.34,116.79 300.85,116.79 302.35,116.79 303.86,116.79 305.36,116.79 306.87,116.75 308.37,116.71 309.87,116.71 311.38,116.47 312.88,116.46 314.39,116.44 315.89,116.40 317.40,116.28 318.90,115.99 320.41,115.93 321.91,115.93 323.42,115.93 324.92,115.93 326.43,115.93 327.93,115.93 329.44,115.93 330.94,115.93 332.45,115.93 333.95,115.93 335.45,115.93 336.96,115.93 338.46,115.93 339.97,115.92 341.47,115.84 342.98,115.83 344.48,115.83 345.99,115.83 347.49,115.83 349.00,115.77 350.50,115.77 352.01,115.56 353.51,115.36 355.02,115.36 356.52,115.36 358.03,115.36 359.53,115.36 361.03,115.33 362.54,115.33 364.04,115.30 365.55,115.21 367.05,115.13 368.56,114.77 370.06,114.75 371.57,114.20 373.07,113.88 374.58,113.64 376.08,112.87 377.59,112.67 379.09,112.59 380.60,112.34 382.10,111.95 383.61,111.85 385.11,111.72 386.61,111.50 388.12,111.32 389.62,111.23 391.13,111.10 392.63,111.01 394.14,110.77 395.64,110.55 397.15,110.30 398.65,109.88 400.16,109.64 401.66,108.44 403.17,107.54 404.67,106.97 406.18,106.47 407.68,105.92 409.18,105.92 410.69,105.92 412.19,105.92 413.70,105.57 415.20,105.37 416.71,104.64 418.21,103.83 419.72,102.87 421.22,101.44 422.73,100.43 424.23,98.36 425.74,97.11 427.24,96.28 428.75,94.94 430.25,94.08 431.76,92.38 433.26,89.80 434.76,89.02 436.27,88.01 437.77,87.05 439.28,86.72 440.78,85.49 442.29,85.28 443.79,83.80 445.30,82.46 446.80,81.65 448.31,80.74 449.81,79.53 451.32,79.21 452.82,79.10 454.33,78.97 455.83,78.89 457.34,78.12 458.84,77.13 460.34,75.92 461.85,75.58 463.35,74.60 464.86,73.34 466.36,70.83 467.87,68.98 469.37,66.70 470.88,66.09 472.38,64.89 473.89,62.64 475.39,61.37 476.90,60.67 478.40,59.69 479.91,59.05 481.41,58.12 482.92,57.69 484.42,56.75 485.92,54.97 487.43,52.99 488.93,52.39 490.44,51.46 491.94,50.23 493.45,49.34 494.95,47.96 496.46,47.10 497.96,45.28 499.47,43.34 500.97,41.64 502.48,38.26 503.98,36.16 505.49,34.13 506.99,33.01 508.50,31.36 510.00,30.00" />
    </svg>
  