
    <svg width="540" height="160" xmlns="http://www.w3.org/2000/svg">
      <style>.line{fill:none;stroke:#388bfd;stroke-width:1.5}.axis{stroke:#555;stroke-width:1;opacity:0.5}.label{fill:#999;font-family:sans-serif;font-size:10px;text-anchor:middle}</style>
      <line class="axis" x1="30" y1="30" x2="30" y2="130" />
      <line class="axis" x1="30" y1="130" x2="510" y2="130" />
      <text class="label" x="15" y="30">5,157</text>
      <text class="label" x="15" y="134">0</text>
      <text class="label" x="30" y="148">2021</text>
      <text class="label" x="510" y="148">2026</text>
      <polyline class="line" points="30.00,129.96 31.52,129.94 33.04,129.92 34.55,129.92 36.07,129.92 37.59,129.67 39.11,129.67 40.63,129.67 42.15,128.27 43.66,125.97 45.18,125.85 46.70,125.85 48.22,125.85 49.74,125.85 51.25,125.85 52.77,125.85 54.29,125.85 55.81,125.85 57.33,125.85 58.85,125.85 60.36,125.85 61.88,125.85 63.40,125.85 64.92,125.85 66.44,125.85 67.95,125.85 69.47,125.85 70.99,124.53 72.51,124.53 74.03,124.51 75.55,124.51 77.06,124.51 78.58,124.51 80.10,124.43 81.62,124.43 83.14,124.43 84.65,124.43 86.17,124.43 87.69,124.43 89.21,124.43 90.73,124.43 92.25,124.43 93.76,124.43 95.28,124.43 96.80,124.43 98.32,124.43 99.84,124.43 101.35,124.43 102.87,124.43 104.39,124.43 105.91,124.43 107.43,124.36 108.95,123.17 110.46,122.09 111.98,121.64 113.50,119.49 115.02,119.49 116.54,119.49 118.05,119.49 119.57,119.49 121.09,119.49 122.61,119.49 124.13,119.49 125.65,119.49 127.16,119.49 128.68,119.49 130.20,119.49 131.72,119.33 133.24,119.33 134.75,119.33 136.27,119.14 137.79,119.14 139.31,119.14 140.83,119.14 142.35,119.08 143.86,119.08 145.38,119.08 146.90,119.08 148.42,119.04 149.94,119.04 151.45,119.04 152.97,119.04 154.49,119.04 156.01,119.04 157.53,119.04 159.05,119.04 160.56,119.04 162.08,119.04 163.60,119.04 165.12,119.04 166.64,119.04 168.15,119.04 169.67,119.04 171.19,119.04 172.71,119.04 174.23,119.04 175.75,119.04 177.26,119.04 178.78,119.04 180.30,119.04 181.82,119.04 183.34,118.99 184.86,118.99 186.37,118.99 187.89,118.99 189.41,118.99 190.93,118.99 192.45,118.99 193.96,118.99 195.48,118.99 197.00,118.99 198.52,118.99 200.04,118.99 201.56,118.99 203.07,118.99 204.59,118.99 206.11,118.95 207.63,118.44 209.15,118.31 210.66,118.09 212.18,117.82 213.70,117.74 215.22,117.74 216.74,117.74 218.26,117.32 219.77,117.28 221.29,117.01 222.81,116.91 224.33,116.74 225.85,116.06 227.36,116.02 228.88,115.92 230.40,115.90 231.92,115.81 233.44,115.81 234.96,115.77 236.47,115.77 237.99,115.77 239.51,115.77 241.03,115.77 242.55,115.77 244.06,115.77 245.58,115.55 247.10,114.93 248.62,114.47 250.14,114.33 251.66,114.04 253.17,114.02 254.69,113.98 256.21,113.96 257.73,113.96 259.25,113.96 260.76,113.83 262.28,113.69 263.80,113.65 265.32,113.61 266.84,113.58 268.36,113.13 269.87,112.82 271.39,112.35 272.91,112.06 274.43,111.85 275.95,111.75 277.46,111.64 278.98,111.62 280.50,111.52 282.02,111.23 283.54,111.23 285.06,111.23 286.57,111.21 288.09,111.19 289.61,111.19 291.13,111.04 292.65,111.00 294.16,110.98 295.68,110.96 297.20,110.92 298.72,110.92 300.24,110.92 301.76,110.92 303.27,110.92 304.79,110.92 306.31,110.92 307.83,110.92 309.35,110.86 310.86,110.80 312.38,110.80 313.90,110.45 315.42,110.43 316.94,110.41 318.46,110.36 319.97,110.18 321.49,109.76 323.01,109.68 324.53,109.68 326.05,109.68 327.56,109.68 329.08,109.68 330.60,109.68 332.12,109.68 333.64,109.68 335.16,109.68 336.67,109.68 338.19,109.68 339.71,109.68 341.23,109.68 342.75,109.66 344.26,109.54 345.78,109.52 347.30,109.52 348.82,109.52 350.34,109.52 351.86,109.45 353.37,109.45 354.89,109.14 356.41,108.84 357.93,108.84 359.45,108.84 360.96,108.84 362.48,108.84 364.00,108.81 365.52,108.81 367.04,108.77 368.56,108.63 370.07,108.51 371.59,107.99 373.11,107.97 374.63,107.18 376.15,106.71 377.66,106.36 379.18,105.26 380.70,104.97 382.22,104.85 383.74,104.48 385.26,103.92 386.77,103.78 388.29,103.59 389.81,103.28 391.33,103.01 392.85,102.89 394.36,102.70 395.88,102.56 397.40,102.21 398.92,101.90 400.44,101.53 401.96,100.93 403.47,100.58 404.99,98.86 406.51,97.56 408.03,96.72 409.55,96.01 411.06,95.21 412.58,95.21 414.10,95.21 415.62,95.21 417.14,94.71 418.66,94.42 420.17,93.78 421.69,93.04 423.21,92.03 424.73,90.44 426.25,89.55 427.76,87.92 429.28,86.97 430.80,86.37 432.32,85.38 433.84,84.61 435.36,83.29 436.87,81.37 438.39,80.80 439.91,79.99 441.43,79.29 442.95,79.06 444.46,78.17 445.98,78.01 447.50,76.95 449.02,75.98 450.54,75.39 452.06,74.72 453.57,73.79 455.09,73.51 456.61,73.38 458.13,73.24 459.65,73.13 461.16,72.39 462.68,71.56 464.20,70.24 465.72,69.85 467.24,69.17 468.76,68.06 470.27,65.60 471.79,63.74 473.31,61.67 474.83,61.22 476.35,60.31 477.87,58.47 479.38,57.34 480.90,56.72 482.42,55.79 483.94,55.31 485.46,54.63 486.97,54.32 488.49,53.27 490.01,51.70 491.53,50.21 493.05,49.76 494.57,48.98 496.08,47.59 497.60,46.54 499.12,44.99 500.64,44.19 502.16,42.60 503.67,40.49 505.19,38.69 506.71,34.87 508.23,32.17 509.75,30.31" />
    </svg>
  