
    <svg width="540" height="160" xmlns="http://www.w3.org/2000/svg">
      <style>.line{fill:none;stroke:#388bfd;stroke-width:1.5}.axis{stroke:#555;stroke-width:1;opacity:0.5}.label{fill:#999;font-family:sans-serif;font-size:10px;text-anchor:middle}</style>
      <line class="axis" x1="30" y1="30" x2="30" y2="130" />
      <line class="axis" x1="30" y1="130" x2="510" y2="130" />
      <text class="label" x="15" y="30">9,234</text>
      <text class="label" x="15" y="134">0</text>
      <text class="label" x="30" y="148">2021</text>
      <text class="label" x="510" y="148">2026</text>
      <polyline class="line" points="30.00,129.98 31.45,129.97 32.90,129.96 34.35,129.96 35.80,129.96 37.25,129.82 38.71,129.82 40.16,129.82 41.61,129.04 43.06,127.75 44.51,127.68 45.96,127.68 47.41,127.68 48.86,127.68 50.31,127.68 51.76,127.68 53.21,127.68 54.66,127.68 56.12,127.68 57.57,127.68 59.02,127.68 60.47,127.68 61.92,127.68 63.37,127.68 64.82,127.68 66.27,127.68 67.72,127.68 69.17,126.95 70.62,126.95 72.08,126.94 73.53,126.94 74.98,126.94 76.43,126.94 77.88,126.89 79.33,126.89 80.78,126.89 82.23,126.89 83.68,126.89 85.13,126.89 86.58,126.89 88.04,126.89 89.49,126.89 90.94,126.89 92.39,126.89 93.84,126.89 95.29,126.89 96.74,126.89 98.19,126.89 99.64,126.89 101.09,126.89 102.54,126.89 103.99,126.85 105.45,126.19 106.90,125.58 108.35,125.33 109.80,124.13 111.25,124.13 112.70,124.13 114.15,124.13 115.60,124.13 117.05,124.13 118.50,124.13 119.95,124.13 121.41,124.13 122.86,124.13 124.31,124.13 125.76,124.13 127.21,124.04 128.66,124.04 130.11,124.04 131.56,123.94 133.01,123.94 134.46,123.94 135.91,123.94 137.37,123.90 138.82,123.90 140.27,123.90 141.72,123.90 143.17,123.88 144.62,123.88 146.07,123.88 147.52,123.88 148.97,123.88 150.42,123.88 151.87,123.88 153.32,123.88 154.78,123.88 156.23,123.88 157.68,123.88 159.13,123.88 160.58,123.88 162.03,123.88 163.48,123.88 164.93,123.88 166.38,123.88 167.83,123.88 169.28,123.88 170.74,123.88 172.19,123.88 173.64,123.88 175.09,123.88 176.54,123.85 177.99,123.85 179.44,123.85 180.89,123.85 182.34,123.85 183.79,123.85 185.24,123.85 186.70,123.85 188.15,123.85 189.60,123.85 191.05,123.85 192.50,123.85 193.95,123.85 195.40,123.85 196.85,123.85 198.30,123.83 199.75,123.55 201.20,123.47 202.65,123.35 204.11,123.20 205.56,123.16 207.01,123.16 208.46,123.16 209.91,122.92 211.36,122.90 212.81,122.74 214.26,122.69 215.71,122.59 217.16,122.21 218.61,122.19 220.07,122.14 221.52,122.13 222.97,122.07 224.42,122.07 225.87,122.05 227.32,122.05 228.77,122.05 230.22,122.05 231.67,122.05 233.12,122.05 234.57,122.05 236.03,121.93 237.48,121.59 238.93,121.33 240.38,121.25 241.83,121.09 243.28,121.08 244.73,121.05 246.18,121.04 247.63,121.04 249.08,121.04 250.53,120.97 251.98,120.89 253.44,120.87 254.89,120.85 256.34,120.83 257.79,120.58 259.24,120.41 260.69,120.15 262.14,119.98 263.59,119.86 265.04,119.81 266.49,119.74 267.94,119.73 269.40,119.68 270.85,119.52 272.30,119.52 273.75,119.52 275.20,119.51 276.65,119.50 278.10,119.50 279.55,119.41 281.00,119.39 282.45,119.38 283.90,119.37 285.36,119.34 286.81,119.34 288.26,119.34 289.71,119.34 291.16,119.34 292.61,119.34 294.06,119.34 295.51,119.34 296.96,119.31 298.41,119.28 299.86,119.28 301.31,119.08 302.77,119.07 304.22,119.06 305.67,119.03 307.12,118.93 308.57,118.69 310.02,118.65 311.47,118.65 312.92,118.65 314.37,118.65 315.82,118.65 317.27,118.65 318.73,118.65 320.18,118.65 321.63,118.65 323.08,118.65 324.53,118.65 325.98,118.65 327.43,118.65 328.88,118.64 330.33,118.57 331.78,118.56 333.23,118.56 334.69,118.56 336.14,118.56 337.59,118.52 339.04,118.52 340.49,118.35 341.94,118.18 343.39,118.18 344.84,118.18 346.29,118.18 347.74,118.18 349.19,118.16 350.64,118.16 352.10,118.14 353.55,118.07 355.00,118.00 356.45,117.71 357.90,117.70 359.35,117.25 360.80,116.99 362.25,116.80 363.70,116.18 365.15,116.02 366.60,115.95 368.06,115.75 369.51,115.43 370.96,115.36 372.41,115.25 373.86,115.08 375.31,114.93 376.76,114.86 378.21,114.75 379.66,114.68 381.11,114.48 382.56,114.31 384.02,114.10 385.47,113.77 386.92,113.57 388.37,112.61 389.82,111.88 391.27,111.42 392.72,111.02 394.17,110.57 395.62,110.57 397.07,110.57 398.52,110.57 399.97,110.29 401.43,110.13 402.88,109.54 404.33,108.88 405.78,108.11 407.23,106.95 408.68,106.14 410.13,104.47 411.58,103.47 413.03,102.80 414.48,101.71 415.93,101.02 417.39,99.64 418.84,97.57 420.29,96.94 421.74,96.13 423.19,95.35 424.64,95.09 426.09,94.09 427.54,93.92 428.99,92.72 430.44,91.64 431.89,90.99 433.35,90.26 434.80,89.28 436.25,89.02 437.70,88.93 439.15,88.83 440.60,88.76 442.05,88.14 443.50,87.34 444.95,86.37 446.40,86.10 447.85,85.31 449.30,84.29 450.76,82.26 452.21,80.77 453.66,78.93 455.11,78.44 456.56,77.47 458.01,75.66 459.46,74.63 460.91,74.07 462.36,73.27 463.81,72.76 465.26,72.01 466.72,71.66 468.17,70.90 469.62,69.46 471.07,67.87 472.52,67.38 473.97,66.48 475.42,64.84 476.87,63.99 478.32,61.95 479.77,60.97 481.22,59.20 482.68,57.46 484.13,55.37 485.58,52.23 487.03,50.15 488.48,48.37 489.93,47.22 491.38,45.74 492.83,44.40 494.28,43.75 495.73,42.67 497.18,41.36 498.63,40.62 500.09,39.50 501.54,38.64 502.99,37.83 504.44,36.61 505.89,34.38 507.34,32.64 508.79,31.14" />
    </svg>
  