
    <svg width="540" height="160" xmlns="http://www.w3.org/2000/svg">
      <style>.line{fill:none;stroke:#388bfd;stroke-width:1.5}.axis{stroke:#555;stroke-width:1;opacity:0.5}.label{fill:#999;font-family:sans-serif;font-size:10px;text-anchor:middle}</style>
      <line class="axis" x1="30" y1="30" x2="30" y2="130" />
      <line class="axis" x1="30" y1="130" x2="510" y2="130" />
      <text class="label" x="15" y="30">9,424</text>
      <text class="label" x="15" y="134">0</text>
      <text class="label" x="30" y="148">2021</text>
      <text class="label" x="510" y="148">2026</text>
      <polyline class="line" points="30.00,129.98 31.43,129.97 32.87,129.96 34.30,129.96 35.74,129.96 37.17,129.82 38.61,129.82 40.04,129.82 41.47,129.06 42.91,127.79 44.34,127.73 45.78,127.73 47.21,127.73 48.65,127.73 50.08,127.73 51.51,127.73 52.95,127.73 54.38,127.73 55.82,127.73 57.25,127.73 58.69,127.73 60.12,127.73 61.55,127.73 62.99,127.73 64.42,127.73 65.86,127.73 67.29,127.73 68.73,127.01 70.16,127.01 71.59,127.00 73.03,127.00 74.46,127.00 75.90,127.00 77.33,126.95 78.76,126.95 80.20,126.95 81.63,126.95 83.07,126.95 84.50,126.95 85.94,126.95 87.37,126.95 88.80,126.95 90.24,126.95 91.67,126.95 93.11,126.95 94.54,126.95 95.98,126.95 97.41,126.95 98.84,126.95 100.28,126.95 101.71,126.95 103.15,126.91 104.58,126.26 106.02,125.67 107.45,125.43 108.88,124.25 110.32,124.25 111.75,124.25 113.19,124.25 114.62,124.25 116.06,124.25 117.49,124.25 118.92,124.25 120.36,124.25 121.79,124.25 123.23,124.25 124.66,124.25 126.10,124.16 127.53,124.16 128.96,124.16 130.40,124.06 131.83,124.06 133.27,124.06 134.70,124.06 136.14,124.03 137.57,124.03 139.00,124.03 140.44,124.03 141.87,124.00 143.31,124.00 144.74,124.00 146.18,124.00 147.61,124.00 149.04,124.00 150.48,124.00 151.91,124.00 153.35,124.00 154.78,124.00 156.22,124.00 157.65,124.00 159.08,124.00 160.52,124.00 161.95,124.00 163.39,124.00 164.82,124.00 166.25,124.00 167.69,124.00 169.12,124.00 170.56,124.00 171.99,124.00 173.43,124.00 174.86,123.97 176.29,123.97 177.73,123.97 179.16,123.97 180.60,123.97 182.03,123.97 183.47,123.97 184.90,123.97 186.33,123.97 187.77,123.97 189.20,123.97 190.64,123.97 192.07,123.97 193.51,123.97 194.94,123.97 196.37,123.95 197.81,123.68 199.24,123.60 200.68,123.48 202.11,123.34 203.55,123.29 204.98,123.29 206.41,123.29 207.85,123.06 209.28,123.04 210.72,122.89 212.15,122.84 213.59,122.74 215.02,122.37 216.45,122.35 217.89,122.30 219.32,122.29 220.76,122.23 222.19,122.23 223.63,122.21 225.06,122.21 226.49,122.21 227.93,122.21 229.36,122.21 230.80,122.21 232.23,122.21 233.67,122.09 235.10,121.76 236.53,121.50 237.97,121.43 239.40,121.27 240.84,121.26 242.27,121.24 243.71,121.22 245.14,121.22 246.57,121.22 248.01,121.15 249.44,121.08 250.88,121.05 252.31,121.03 253.75,121.01 255.18,120.77 256.61,120.60 258.05,120.34 259.48,120.18 260.92,120.07 262.35,120.01 263.78,119.95 265.22,119.94 266.65,119.89 268.09,119.73 269.52,119.73 270.96,119.73 272.39,119.72 273.82,119.71 275.26,119.71 276.69,119.62 278.13,119.60 279.56,119.59 281.00,119.58 282.43,119.56 283.86,119.56 285.30,119.56 286.73,119.56 288.17,119.56 289.60,119.56 291.04,119.56 292.47,119.56 293.90,119.53 295.34,119.49 296.77,119.49 298.21,119.30 299.64,119.29 301.08,119.28 302.51,119.25 303.94,119.16 305.38,118.92 306.81,118.88 308.25,118.88 309.68,118.88 311.12,118.88 312.55,118.88 313.98,118.88 315.42,118.88 316.85,118.88 318.29,118.88 319.72,118.88 321.16,118.88 322.59,118.88 324.02,118.88 325.46,118.87 326.89,118.81 328.33,118.79 329.76,118.79 331.20,118.79 332.63,118.79 334.06,118.75 335.50,118.75 336.93,118.58 338.37,118.42 339.80,118.42 341.24,118.42 342.67,118.42 344.10,118.42 345.54,118.40 346.97,118.40 348.41,118.38 349.84,118.31 351.27,118.24 352.71,117.96 354.14,117.95 355.58,117.51 357.01,117.26 358.45,117.06 359.88,116.46 361.31,116.30 362.75,116.24 364.18,116.04 365.62,115.73 367.05,115.65 368.49,115.55 369.92,115.38 371.35,115.23 372.79,115.17 374.22,115.06 375.66,114.99 377.09,114.79 378.53,114.62 379.96,114.42 381.39,114.09 382.83,113.90 384.26,112.96 385.70,112.25 387.13,111.79 388.57,111.40 390.00,110.96 391.43,110.96 392.87,110.96 394.30,110.96 395.74,110.69 397.17,110.53 398.61,109.96 400.04,109.31 401.47,108.55 402.91,107.42 404.34,106.62 405.78,104.99 407.21,104.00 408.65,103.34 410.08,102.28 411.51,101.60 412.95,100.26 414.38,98.22 415.82,97.60 417.25,96.81 418.69,96.04 420.12,95.79 421.55,94.81 422.99,94.64 424.42,93.48 425.86,92.42 427.29,91.78 428.73,91.06 430.16,90.10 431.59,89.85 433.03,89.76 434.46,89.66 435.90,89.59 437.33,88.99 438.76,88.20 440.20,87.25 441.63,86.98 443.07,86.21 444.50,85.21 445.94,83.23 447.37,81.76 448.80,79.96 450.24,79.48 451.67,78.53 453.11,76.75 454.54,75.74 455.98,75.19 457.41,74.42 458.84,73.91 460.28,73.18 461.71,72.84 463.15,72.09 464.58,70.68 466.02,69.12 467.45,68.65 468.88,67.77 470.32,66.15 471.75,65.32 473.19,63.32 474.62,62.36 476.06,60.62 477.49,58.93 478.92,56.88 480.36,53.80 481.79,51.76 483.23,50.01 484.66,48.89 486.10,47.43 487.53,46.13 488.96,45.49 490.40,44.43 491.83,43.15 493.27,42.43 494.70,41.32 496.14,40.48 497.57,39.69 499.00,38.49 500.44,36.30 501.87,34.55 503.31,33.08 504.74,31.86 506.18,31.41 507.61,30.84 509.04,30.37" />
    </svg>
  