
    <svg width="540" height="160" xmlns="http://www.w3.org/2000/svg">
      <style>.line{fill:none;stroke:#388bfd;stroke-width:1.5}.axis{stroke:#555;stroke-width:1;opacity:0.5}.label{fill:#999;font-family:sans-serif;font-size:10px;text-anchor:middle}</style>
      <line class="axis" x1="30" y1="30" x2="30" y2="130" />
      <line class="axis" x1="30" y1="130" x2="510" y2="130" />
      <text class="label" x="15" y="30">9,484</text>
      <text class="label" x="15" y="134">0</text>
      <text class="label" x="30" y="148">2021</text>
      <text class="label" x="510" y="148">2026</text>
      <polyline class="line" points="30.00,129.98 31.43,129.97 32.86,129.96 34.29,129.96 35.72,129.96 37.15,129.82 38.58,129.82 40.01,129.82 41.45,129.06 42.88,127.81 44.31,127.74 45.74,127.74 47.17,127.74 48.60,127.74 50.03,127.74 51.46,127.74 52.89,127.74 54.32,127.74 55.75,127.74 57.18,127.74 58.61,127.74 60.04,127.74 61.48,127.74 62.91,127.74 64.34,127.74 65.77,127.74 67.20,127.74 68.63,127.03 70.06,127.03 71.49,127.02 72.92,127.02 74.35,127.02 75.78,127.02 77.21,126.97 78.64,126.97 80.07,126.97 81.51,126.97 82.94,126.97 84.37,126.97 85.80,126.97 87.23,126.97 88.66,126.97 90.09,126.97 91.52,126.97 92.95,126.97 94.38,126.97 95.81,126.97 97.24,126.97 98.67,126.97 100.10,126.97 101.54,126.97 102.97,126.93 104.40,126.29 105.83,125.70 107.26,125.46 108.69,124.29 110.12,124.29 111.55,124.29 112.98,124.29 114.41,124.29 115.84,124.29 117.27,124.29 118.70,124.29 120.13,124.29 121.56,124.29 123.00,124.29 124.43,124.29 125.86,124.20 127.29,124.20 128.72,124.20 130.15,124.10 131.58,124.10 133.01,124.10 134.44,124.10 135.87,124.06 137.30,124.06 138.73,124.06 140.16,124.06 141.59,124.04 143.03,124.04 144.46,124.04 145.89,124.04 147.32,124.04 148.75,124.04 150.18,124.04 151.61,124.04 153.04,124.04 154.47,124.04 155.90,124.04 157.33,124.04 158.76,124.04 160.19,124.04 161.62,124.04 163.06,124.04 164.49,124.04 165.92,124.04 167.35,124.04 168.78,124.04 170.21,124.04 171.64,124.04 173.07,124.04 174.50,124.01 175.93,124.01 177.36,124.01 178.79,124.01 180.22,124.01 181.65,124.01 183.08,124.01 184.52,124.01 185.95,124.01 187.38,124.01 188.81,124.01 190.24,124.01 191.67,124.01 193.10,124.01 194.53,124.01 195.96,123.99 197.39,123.72 198.82,123.64 200.25,123.53 201.68,123.38 203.11,123.34 204.55,123.34 205.98,123.34 207.41,123.10 208.84,123.08 210.27,122.94 211.70,122.88 213.13,122.79 214.56,122.42 215.99,122.40 217.42,122.35 218.85,122.33 220.28,122.28 221.71,122.28 223.14,122.26 224.58,122.26 226.01,122.26 227.44,122.26 228.87,122.26 230.30,122.26 231.73,122.26 233.16,122.14 234.59,121.81 236.02,121.55 237.45,121.48 238.88,121.32 240.31,121.31 241.74,121.29 243.17,121.28 244.61,121.28 246.04,121.28 247.47,121.21 248.90,121.13 250.33,121.11 251.76,121.09 253.19,121.07 254.62,120.83 256.05,120.66 257.48,120.40 258.91,120.25 260.34,120.13 261.77,120.08 263.20,120.01 264.63,120.00 266.07,119.95 267.50,119.79 268.93,119.79 270.36,119.79 271.79,119.78 273.22,119.77 274.65,119.77 276.08,119.69 277.51,119.67 278.94,119.66 280.37,119.65 281.80,119.62 283.23,119.62 284.66,119.62 286.10,119.62 287.53,119.62 288.96,119.62 290.39,119.62 291.82,119.62 293.25,119.59 294.68,119.56 296.11,119.56 297.54,119.37 298.97,119.36 300.40,119.35 301.83,119.32 303.26,119.22 304.69,118.99 306.13,118.95 307.56,118.95 308.99,118.95 310.42,118.95 311.85,118.95 313.28,118.95 314.71,118.95 316.14,118.95 317.57,118.95 319.00,118.95 320.43,118.95 321.86,118.95 323.29,118.95 324.72,118.94 326.15,118.88 327.59,118.87 329.02,118.87 330.45,118.87 331.88,118.87 333.31,118.82 334.74,118.82 336.17,118.65 337.60,118.50 339.03,118.50 340.46,118.50 341.89,118.50 343.32,118.50 344.75,118.48 346.18,118.48 347.62,118.45 349.05,118.38 350.48,118.32 351.91,118.03 353.34,118.02 354.77,117.59 356.20,117.34 357.63,117.15 359.06,116.55 360.49,116.39 361.92,116.32 363.35,116.12 364.78,115.82 366.21,115.74 367.65,115.64 369.08,115.47 370.51,115.32 371.94,115.26 373.37,115.15 374.80,115.08 376.23,114.89 377.66,114.72 379.09,114.52 380.52,114.19 381.95,114.00 383.38,113.07 384.81,112.36 386.24,111.91 387.68,111.52 389.11,111.08 390.54,111.08 391.97,111.08 393.40,111.08 394.83,110.81 396.26,110.65 397.69,110.08 399.12,109.44 400.55,108.69 401.98,107.56 403.41,106.77 404.84,105.15 406.27,104.17 407.70,103.51 409.14,102.46 410.57,101.78 412.00,100.44 413.43,98.42 414.86,97.81 416.29,97.02 417.72,96.26 419.15,96.01 420.58,95.04 422.01,94.87 423.44,93.71 424.87,92.65 426.30,92.02 427.73,91.30 429.17,90.35 430.60,90.10 432.03,90.02 433.46,89.91 434.89,89.85 436.32,89.25 437.75,88.47 439.18,87.52 440.61,87.25 442.04,86.48 443.47,85.49 444.90,83.52 446.33,82.07 447.76,80.27 449.20,79.80 450.63,78.85 452.06,77.09 453.49,76.09 454.92,75.54 456.35,74.77 457.78,74.26 459.21,73.54 460.64,73.20 462.07,72.46 463.50,71.06 464.93,69.51 466.36,69.03 467.79,68.16 469.23,66.56 470.66,65.73 472.09,63.74 473.52,62.79 474.95,61.06 476.38,59.38 477.81,57.34 479.24,54.28 480.67,52.26 482.10,50.52 483.53,49.40 484.96,47.96 486.39,46.66 487.82,46.03 489.25,44.97 490.69,43.70 492.12,42.98 493.55,41.88 494.98,41.05 496.41,40.26 497.84,39.07 499.27,36.90 500.70,35.16 502.13,33.69 503.56,32.48 504.99,32.04 506.42,31.47 507.85,31.00 509.28,30.47" />
    </svg>
  