
    <svg width="540" height="160" xmlns="http://www.w3.org/2000/svg">
      <style>.line{fill:none;stroke:#388bfd;stroke-width:1.5}.axis{stroke:#555;stroke-width:1;opacity:0.5}.label{fill:#999;font-family:sans-serif;font-size:10px;text-anchor:middle}</style>
      <line class="axis" x1="30" y1="30" x2="30" y2="130" />
      <line class="axis" x1="30" y1="130" x2="510" y2="130" />
      <text class="label" x="15" y="30">7,435</text>
      <text class="label" x="15" y="134">0</text>
      <text class="label" x="30" y="148">2021</text>
      <text class="label" x="510" y="148">2026</text>
      <polyline class="line" points="30.00,129.97 31.50,129.96 33.01,129.95 34.51,129.95 36.02,129.95 37.52,129.77 39.03,129.77 40.53,129.77 42.04,128.80 43.54,127.20 45.05,127.12 46.55,127.12 48.06,127.12 49.56,127.12 51.07,127.12 52.57,127.12 54.08,127.12 55.58,127.12 57.08,127.12 58.59,127.12 60.09,127.12 61.60,127.12 63.10,127.12 64.61,127.12 66.11,127.12 67.62,127.12 69.12,127.12 70.63,126.21 72.13,126.21 73.64,126.19 75.14,126.19 76.65,126.19 78.15,126.19 79.66,126.14 81.16,126.14 82.66,126.14 84.17,126.14 85.67,126.14 87.18,126.14 88.68,126.14 90.19,126.14 91.69,126.14 93.20,126.14 94.70,126.14 96.21,126.14 97.71,126.14 99.22,126.14 100.72,126.14 102.23,126.14 103.73,126.14 105.24,126.14 106.74,126.09 108.24,125.27 109.75,124.51 111.25,124.20 112.76,122.71 114.26,122.71 115.77,122.71 117.27,122.71 118.78,122.71 120.28,122.71 121.79,122.71 123.29,122.71 124.80,122.71 126.30,122.71 127.81,122.71 129.31,122.71 130.82,122.60 132.32,122.60 133.82,122.60 135.33,122.47 136.83,122.47 138.34,122.47 139.84,122.47 141.35,122.43 142.85,122.43 144.36,122.43 145.86,122.43 147.37,122.40 148.87,122.40 150.38,122.40 151.88,122.40 153.39,122.40 154.89,122.40 156.39,122.40 157.90,122.40 159.40,122.40 160.91,122.40 162.41,122.40 163.92,122.40 165.42,122.40 166.93,122.40 168.43,122.40 169.94,122.40 171.44,122.40 172.95,122.40 174.45,122.40 175.96,122.40 177.46,122.40 178.97,122.40 180.47,122.40 181.97,122.36 183.48,122.36 184.98,122.36 186.49,122.36 187.99,122.36 189.50,122.36 191.00,122.36 192.51,122.36 194.01,122.36 195.52,122.36 197.02,122.36 198.53,122.36 200.03,122.36 201.54,122.36 203.04,122.36 204.55,122.33 206.05,121.98 207.55,121.89 209.06,121.74 210.56,121.55 212.07,121.50 213.57,121.50 215.08,121.50 216.58,121.20 218.09,121.18 219.59,120.99 221.10,120.92 222.60,120.80 224.11,120.33 225.61,120.30 227.12,120.24 228.62,120.22 230.13,120.15 231.63,120.15 233.13,120.13 234.64,120.13 236.14,120.13 237.65,120.13 239.15,120.13 240.66,120.13 242.16,120.13 243.67,119.98 245.17,119.55 246.68,119.23 248.18,119.13 249.69,118.93 251.19,118.92 252.70,118.89 254.20,118.88 255.71,118.88 257.21,118.88 258.71,118.78 260.22,118.69 261.72,118.66 263.23,118.63 264.73,118.61 266.24,118.30 267.74,118.08 269.25,117.76 270.75,117.56 272.26,117.41 273.76,117.34 275.27,117.26 276.77,117.25 278.28,117.18 279.78,116.98 281.29,116.98 282.79,116.98 284.29,116.97 285.80,116.95 287.30,116.95 288.81,116.85 290.31,116.82 291.82,116.81 293.32,116.79 294.83,116.77 296.33,116.77 297.84,116.77 299.34,116.77 300.85,116.77 302.35,116.77 303.86,116.77 305.36,116.77 306.87,116.72 308.37,116.68 309.87,116.68 311.38,116.44 312.88,116.43 314.39,116.42 315.89,116.38 317.40,116.25 318.90,115.96 320.41,115.90 321.91,115.90 323.42,115.90 324.92,115.90 326.43,115.90 327.93,115.90 329.44,115.90 330.94,115.90 332.45,115.90 333.95,115.90 335.45,115.90 336.96,115.90 338.46,115.90 339.97,115.89 341.47,115.81 342.98,115.80 344.48,115.80 345.99,115.80 347.49,115.80 349.00,115.74 350.50,115.74 352.01,115.53 353.51,115.33 355.02,115.33 356.52,115.33 358.03,115.33 359.53,115.33 361.03,115.30 362.54,115.30 364.04,115.27 365.55,115.18 367.05,115.10 368.56,114.73 370.06,114.72 371.57,114.17 373.07,113.85 374.58,113.60 376.08,112.84 377.59,112.64 379.09,112.56 380.60,112.30 382.10,111.91 383.61,111.82 385.11,111.68 386.61,111.47 388.12,111.28 389.62,111.20 391.13,111.06 392.63,110.97 394.14,110.73 395.64,110.51 397.15,110.26 398.65,109.84 400.16,109.60 401.66,108.40 403.17,107.50 404.67,106.92 406.18,106.42 407.68,105.87 409.18,105.87 410.69,105.87 412.19,105.87 413.70,105.52 415.20,105.32 416.71,104.59 418.21,103.77 419.72,102.82 421.22,101.38 422.73,100.37 424.23,98.30 425.74,97.05 427.24,96.21 428.75,94.87 430.25,94.01 431.76,92.30 433.26,89.72 434.76,88.94 436.27,87.93 437.77,86.96 439.28,86.64 440.78,85.40 442.29,85.18 443.79,83.71 445.30,82.36 446.80,81.55 448.31,80.64 449.81,79.43 451.32,79.11 452.82,79.00 454.33,78.86 455.83,78.78 457.34,78.02 458.84,77.02 460.34,75.81 461.85,75.47 463.35,74.49 464.86,73.23 466.36,70.71 467.87,68.86 469.37,66.57 470.88,65.97 472.38,64.75 473.89,62.51 475.39,61.23 476.90,60.53 478.40,59.55 479.91,58.90 481.41,57.98 482.92,57.55 484.42,56.60 485.92,54.82 487.43,52.84 488.93,52.23 490.44,51.30 491.94,50.07 493.45,49.18 494.95,47.79 496.46,46.93 497.96,45.10 499.47,43.17 500.97,41.46 502.48,38.07 503.98,35.97 505.49,33.94 506.99,32.81 508.50,31.16 510.00,30.00" />
    </svg>
  