
    <svg width="540" height="160" xmlns="http://www.w3.org/2000/svg">
      <style>.line{fill:none;stroke:#388bfd;stroke-width:1.5}.axis{stroke:#555;stroke-width:1;opacity:0.5}.label{fill:#999;font-family:sans-serif;font-size:10px;text-anchor:middle}</style>
      <line class="axis" x1="30" y1="30" x2="30" y2="130" />
      <line class="axis" x1="30" y1="130" x2="510" y2="130" />
      <text class="label" x="15" y="30">7,709</text>
      <text class="label" x="15" y="134">0</text>
      <text class="label" x="30" y="148">2021</text>
      <text class="label" x="510" y="148">2026</text>
      <polyline class="line" points="30.00,129.97 31.50,129.96 33.00,129.95 34.50,129.95 35.99,129.95 37.49,129.78 38.99,129.78 40.49,129.78 41.99,128.85 43.49,127.30 44.98,127.22 46.48,127.22 47.98,127.22 49.48,127.22 50.98,127.22 52.48,127.22 53.98,127.22 55.47,127.22 56.97,127.22 58.47,127.22 59.97,127.22 61.47,127.22 62.97,127.22 64.46,127.22 65.96,127.22 67.46,127.22 68.96,127.22 70.46,126.34 71.96,126.34 73.45,126.33 74.95,126.33 76.45,126.33 77.95,126.33 79.45,126.28 80.95,126.28 82.45,126.28 83.94,126.28 85.44,126.28 86.94,126.28 88.44,126.28 89.94,126.28 91.44,126.28 92.93,126.28 94.43,126.28 95.93,126.28 97.43,126.28 98.93,126.28 100.43,126.28 101.93,126.28 103.42,126.28 104.92,126.28 106.42,126.23 107.92,125.43 109.42,124.71 110.92,124.41 112.41,122.97 113.91,122.97 115.41,122.97 116.91,122.97 118.41,122.97 119.91,122.97 121.40,122.97 122.90,122.97 124.40,122.97 125.90,122.97 127.40,122.97 128.90,122.97 130.40,122.87 131.89,122.87 133.39,122.87 134.89,122.74 136.39,122.74 137.89,122.74 139.39,122.74 140.88,122.70 142.38,122.70 143.88,122.70 145.38,122.70 146.88,122.67 148.38,122.67 149.88,122.67 151.37,122.67 152.87,122.67 154.37,122.67 155.87,122.67 157.37,122.67 158.87,122.67 160.36,122.67 161.86,122.67 163.36,122.67 164.86,122.67 166.36,122.67 167.86,122.67 169.35,122.67 170.85,122.67 172.35,122.67 173.85,122.67 175.35,122.67 176.85,122.67 178.35,122.67 179.84,122.67 181.34,122.63 182.84,122.63 184.34,122.63 185.84,122.63 187.34,122.63 188.83,122.63 190.33,122.63 191.83,122.63 193.33,122.63 194.83,122.63 196.33,122.63 197.83,122.63 199.32,122.63 200.82,122.63 202.32,122.63 203.82,122.61 205.32,122.27 206.82,122.18 208.31,122.04 209.81,121.85 211.31,121.80 212.81,121.80 214.31,121.80 215.81,121.52 217.30,121.49 218.80,121.31 220.30,121.24 221.80,121.13 223.30,120.67 224.80,120.65 226.30,120.58 227.79,120.57 229.29,120.50 230.79,120.50 232.29,120.48 233.79,120.48 235.29,120.48 236.78,120.48 238.28,120.48 239.78,120.48 241.28,120.48 242.78,120.34 244.28,119.92 245.78,119.61 247.27,119.52 248.77,119.32 250.27,119.31 251.77,119.29 253.27,119.27 254.77,119.27 256.26,119.27 257.76,119.18 259.26,119.09 260.76,119.06 262.26,119.04 263.76,119.01 265.25,118.71 266.75,118.51 268.25,118.20 269.75,118.00 271.25,117.86 272.75,117.79 274.25,117.72 275.74,117.70 277.24,117.64 278.74,117.44 280.24,117.44 281.74,117.44 283.24,117.43 284.73,117.42 286.23,117.42 287.73,117.31 289.23,117.29 290.73,117.27 292.23,117.26 293.73,117.24 295.22,117.24 296.72,117.24 298.22,117.24 299.72,117.24 301.22,117.24 302.72,117.24 304.21,117.24 305.71,117.20 307.21,117.16 308.71,117.16 310.21,116.92 311.71,116.91 313.20,116.90 314.70,116.86 316.20,116.74 317.70,116.46 319.20,116.41 320.70,116.41 322.20,116.41 323.69,116.41 325.19,116.41 326.69,116.41 328.19,116.41 329.69,116.41 331.19,116.41 332.68,116.41 334.18,116.41 335.68,116.41 337.18,116.41 338.68,116.39 340.18,116.31 341.68,116.30 343.17,116.30 344.67,116.30 346.17,116.30 347.67,116.25 349.17,116.25 350.67,116.04 352.16,115.85 353.66,115.85 355.16,115.85 356.66,115.85 358.16,115.85 359.66,115.82 361.16,115.82 362.65,115.80 364.15,115.71 365.65,115.63 367.15,115.28 368.65,115.26 370.15,114.73 371.64,114.42 373.14,114.19 374.64,113.45 376.14,113.25 377.64,113.18 379.14,112.93 380.63,112.55 382.13,112.46 383.63,112.33 385.13,112.12 386.63,111.94 388.13,111.87 389.63,111.74 391.12,111.64 392.62,111.41 394.12,111.20 395.62,110.96 397.12,110.56 398.62,110.32 400.11,109.17 401.61,108.30 403.11,107.74 404.61,107.26 406.11,106.73 407.61,106.73 409.11,106.73 410.60,106.73 412.10,106.39 413.60,106.20 415.10,105.50 416.60,104.70 418.10,103.78 419.59,102.40 421.09,101.42 422.59,99.43 424.09,98.22 425.59,97.41 427.09,96.12 428.58,95.29 430.08,93.64 431.58,91.15 433.08,90.40 434.58,89.42 436.08,88.49 437.58,88.18 439.07,86.99 440.57,86.78 442.07,85.35 443.57,84.05 445.07,83.28 446.57,82.39 448.06,81.23 449.56,80.91 451.06,80.81 452.56,80.68 454.06,80.60 455.56,79.86 457.06,78.90 458.55,77.74 460.05,77.41 461.55,76.47 463.05,75.25 464.55,72.82 466.05,71.03 467.54,68.82 469.04,68.24 470.54,67.07 472.04,64.91 473.54,63.67 475.04,63.00 476.53,62.05 478.03,61.43 479.53,60.54 481.03,60.12 482.53,59.21 484.03,57.49 485.53,55.58 487.02,55.00 488.52,54.01 490.02,52.43 491.52,51.49 493.02,49.60 494.52,48.60 496.01,46.66 497.51,44.68 499.01,42.61 500.51,39.09 502.01,36.95 503.51,34.90 505.01,33.76 506.50,32.08 508.00,30.64 509.50,30.14" />
    </svg>
  