
    <svg width="540" height="160" xmlns="http://www.w3.org/2000/svg">
      <style>.line{fill:none;stroke:#388bfd;stroke-width:1.5}.axis{stroke:#555;stroke-width:1;opacity:0.5}.label{fill:#999;font-family:sans-serif;font-size:10px;text-anchor:middle}</style>
      <line class="axis" x1="30" y1="30" x2="30" y2="130" />
      <line class="axis" x1="30" y1="130" x2="510" y2="130" />
      <text class="label" x="15" y="30">4,233</text>
      <text class="label" x="15" y="134">0</text>
      <text class="label" x="30" y="148">2021</text>
      <text class="label" x="510" y="148">2026</text>
      <polyline class="line" points="30.00,129.95 31.53,129.93 33.06,129.91 34.58,129.91 36.11,129.91 37.64,129.60 39.17,129.60 40.69,129.60 42.22,127.90 43.75,125.09 45.28,124.94 46.81,124.94 48.33,124.94 49.86,124.94 51.39,124.94 52.92,124.94 54.45,124.94 55.97,124.94 57.50,124.94 59.03,124.94 60.56,124.94 62.08,124.94 63.61,124.94 65.14,124.94 66.67,124.94 68.20,124.94 69.72,124.94 71.25,123.34 72.78,123.34 74.31,123.31 75.84,123.31 77.36,123.31 78.89,123.31 80.42,123.22 81.95,123.22 83.47,123.22 85.00,123.22 86.53,123.22 88.06,123.22 89.59,123.22 91.11,123.22 92.64,123.22 94.17,123.22 95.70,123.22 97.23,123.22 98.75,123.22 100.28,123.22 101.81,123.22 103.34,123.22 104.86,123.22 106.39,123.22 107.92,123.13 109.45,121.68 110.98,120.36 112.50,119.82 114.03,117.20 115.56,117.20 117.09,117.20 118.62,117.20 120.14,117.20 121.67,117.20 123.20,117.20 124.73,117.20 126.25,117.20 127.78,117.20 129.31,117.20 130.84,117.20 132.37,117.01 133.89,117.01 135.42,117.01 136.95,116.77 138.48,116.77 140.01,116.77 141.53,116.77 143.06,116.70 144.59,116.70 146.12,116.70 147.64,116.70 149.17,116.65 150.70,116.65 152.23,116.65 153.76,116.65 155.28,116.65 156.81,116.65 158.34,116.65 159.87,116.65 161.40,116.65 162.92,116.65 164.45,116.65 165.98,116.65 167.51,116.65 169.03,116.65 170.56,116.65 172.09,116.65 173.62,116.65 175.15,116.65 176.67,116.65 178.20,116.65 179.73,116.65 181.26,116.65 182.79,116.65 184.31,116.58 185.84,116.58 187.37,116.58 188.90,116.58 190.42,116.58 191.95,116.58 193.48,116.58 195.01,116.58 196.54,116.58 198.06,116.58 199.59,116.58 201.12,116.58 202.65,116.58 204.18,116.58 205.70,116.58 207.23,116.53 208.76,115.92 210.29,115.75 211.81,115.49 213.34,115.16 214.87,115.07 216.40,115.07 217.93,115.07 219.45,114.55 220.98,114.50 222.51,114.17 224.04,114.05 225.56,113.84 227.09,113.01 228.62,112.97 230.15,112.85 231.68,112.83 233.20,112.71 234.73,112.71 236.26,112.66 237.79,112.66 239.32,112.66 240.84,112.66 242.37,112.66 243.90,112.66 245.43,112.66 246.95,112.40 248.48,111.64 250.01,111.08 251.54,110.91 253.07,110.56 254.59,110.53 256.12,110.49 257.65,110.46 259.18,110.46 260.71,110.46 262.23,110.30 263.76,110.13 265.29,110.09 266.82,110.04 268.34,109.99 269.87,109.45 271.40,109.07 272.93,108.50 274.46,108.15 275.98,107.89 277.51,107.77 279.04,107.63 280.57,107.60 282.10,107.49 283.62,107.13 285.15,107.13 286.68,107.13 288.21,107.11 289.73,107.08 291.26,107.08 292.79,106.90 294.32,106.85 295.85,106.82 297.37,106.80 298.90,106.75 300.43,106.75 301.96,106.75 303.49,106.75 305.01,106.75 306.54,106.75 308.07,106.75 309.60,106.75 311.12,106.68 312.65,106.61 314.18,106.61 315.71,106.19 317.24,106.16 318.76,106.14 320.29,106.07 321.82,105.86 323.35,105.34 324.88,105.24 326.40,105.24 327.93,105.24 329.46,105.24 330.99,105.24 332.51,105.24 334.04,105.24 335.57,105.24 337.10,105.24 338.63,105.24 340.15,105.24 341.68,105.24 343.21,105.24 344.74,105.22 346.27,105.08 347.79,105.05 349.32,105.05 350.85,105.05 352.38,105.05 353.90,104.96 355.43,104.96 356.96,104.58 358.49,104.23 360.02,104.23 361.54,104.23 363.07,104.23 364.60,104.23 366.13,104.18 367.66,104.18 369.18,104.13 370.71,103.97 372.24,103.82 373.77,103.19 375.29,103.16 376.82,102.19 378.35,101.63 379.88,101.20 381.41,99.86 382.93,99.64 384.46,99.60 385.99,99.60 387.52,99.60 389.05,99.60 390.57,99.55 392.10,99.43 393.63,99.43 395.16,99.43 396.68,99.43 398.21,99.43 399.74,99.43 401.27,99.38 402.80,99.34 404.32,99.34 405.85,99.34 407.38,99.29 408.91,99.29 410.44,99.10 411.96,99.01 413.49,99.01 415.02,99.01 416.55,99.01 418.07,99.01 419.60,99.01 421.13,99.01 422.66,98.49 424.19,97.94 425.71,97.49 427.24,96.88 428.77,96.17 430.30,94.49 431.82,93.45 433.35,92.72 434.88,91.52 436.41,90.57 437.94,88.97 439.46,86.65 440.99,85.97 442.52,84.97 444.05,84.12 445.58,83.84 447.10,82.75 448.63,82.56 450.16,81.26 451.69,80.08 453.21,79.37 454.74,78.55 456.27,77.41 457.80,77.08 459.33,76.92 460.85,76.75 462.38,76.61 463.91,75.71 465.44,74.70 466.97,73.09 468.49,72.62 470.02,71.79 471.55,70.44 473.08,67.44 474.60,65.18 476.13,62.65 477.66,62.10 479.19,60.99 480.72,58.75 482.24,57.38 483.77,56.62 485.30,55.49 486.83,54.90 488.36,54.07 489.88,53.69 491.41,52.42 492.94,50.51 494.47,48.69 495.99,48.14 497.52,47.20 499.05,45.50 500.58,44.22 502.11,42.33 503.63,41.36 505.16,39.43 506.69,36.85 508.22,34.65 509.75,30.00" />
    </svg>
  