
    <svg width="540" height="160" xmlns="http://www.w3.org/2000/svg">
      <style>.line{fill:none;stroke:#388bfd;stroke-width:1.5}.axis{stroke:#555;stroke-width:1;opacity:0.5}.label{fill:#999;font-family:sans-serif;font-size:10px;text-anchor:middle}</style>
      <line class="axis" x1="30" y1="30" x2="30" y2="130" />
      <line class="axis" x1="30" y1="130" x2="510" y2="130" />
      <text class="label" x="15" y="30">7,834</text>
      <text class="label" x="15" y="134">0</text>
      <text class="label" x="30" y="148">2021</text>
      <text class="label" x="510" y="148">2026</text>
      <polyline class="line" points="30.00,129.97 31.49,129.96 32.98,129.95 34.46,129.95 35.95,129.95 37.44,129.78 38.93,129.78 40.41,129.78 41.90,128.86 43.39,127.34 44.88,127.27 46.36,127.27 47.85,127.27 49.34,127.27 50.83,127.27 52.31,127.27 53.80,127.27 55.29,127.27 56.78,127.27 58.26,127.27 59.75,127.27 61.24,127.27 62.73,127.27 64.21,127.27 65.70,127.27 67.19,127.27 68.68,127.27 70.17,126.40 71.65,126.40 73.14,126.39 74.63,126.39 76.12,126.39 77.60,126.39 79.09,126.34 80.58,126.34 82.07,126.34 83.55,126.34 85.04,126.34 86.53,126.34 88.02,126.34 89.50,126.34 90.99,126.34 92.48,126.34 93.97,126.34 95.45,126.34 96.94,126.34 98.43,126.34 99.92,126.34 101.40,126.34 102.89,126.34 104.38,126.34 105.87,126.29 107.36,125.51 108.84,124.79 110.33,124.50 111.82,123.08 113.31,123.08 114.79,123.08 116.28,123.08 117.77,123.08 119.26,123.08 120.74,123.08 122.23,123.08 123.72,123.08 125.21,123.08 126.69,123.08 128.18,123.08 129.67,122.98 131.16,122.98 132.64,122.98 134.13,122.85 135.62,122.85 137.11,122.85 138.60,122.85 140.08,122.81 141.57,122.81 143.06,122.81 144.55,122.81 146.03,122.79 147.52,122.79 149.01,122.79 150.50,122.79 151.98,122.79 153.47,122.79 154.96,122.79 156.45,122.79 157.93,122.79 159.42,122.79 160.91,122.79 162.40,122.79 163.88,122.79 165.37,122.79 166.86,122.79 168.35,122.79 169.83,122.79 171.32,122.79 172.81,122.79 174.30,122.79 175.79,122.79 177.27,122.79 178.76,122.79 180.25,122.75 181.74,122.75 183.22,122.75 184.71,122.75 186.20,122.75 187.69,122.75 189.17,122.75 190.66,122.75 192.15,122.75 193.64,122.75 195.12,122.75 196.61,122.75 198.10,122.75 199.59,122.75 201.07,122.75 202.56,122.72 204.05,122.39 205.54,122.30 207.02,122.16 208.51,121.98 210.00,121.93 211.49,121.93 212.98,121.93 214.46,121.65 215.95,121.63 217.44,121.45 218.93,121.38 220.41,121.27 221.90,120.82 223.39,120.80 224.88,120.73 226.36,120.72 227.85,120.66 229.34,120.66 230.83,120.63 232.31,120.63 233.80,120.63 235.29,120.63 236.78,120.63 238.26,120.63 239.75,120.63 241.24,120.49 242.73,120.08 244.21,119.78 245.70,119.69 247.19,119.49 248.68,119.48 250.17,119.46 251.65,119.44 253.14,119.44 254.63,119.44 256.12,119.35 257.60,119.26 259.09,119.24 260.58,119.21 262.07,119.19 263.55,118.89 265.04,118.69 266.53,118.38 268.02,118.19 269.50,118.05 270.99,117.99 272.48,117.91 273.97,117.90 275.45,117.84 276.94,117.64 278.43,117.64 279.92,117.64 281.40,117.63 282.89,117.62 284.38,117.62 285.87,117.52 287.36,117.49 288.84,117.48 290.33,117.46 291.82,117.44 293.31,117.44 294.79,117.44 296.28,117.44 297.77,117.44 299.26,117.44 300.74,117.44 302.23,117.44 303.72,117.40 305.21,117.36 306.69,117.36 308.18,117.13 309.67,117.12 311.16,117.11 312.64,117.07 314.13,116.95 315.62,116.67 317.11,116.62 318.60,116.62 320.08,116.62 321.57,116.62 323.06,116.62 324.55,116.62 326.03,116.62 327.52,116.62 329.01,116.62 330.50,116.62 331.98,116.62 333.47,116.62 334.96,116.62 336.45,116.61 337.93,116.53 339.42,116.52 340.91,116.52 342.40,116.52 343.88,116.52 345.37,116.47 346.86,116.47 348.35,116.26 349.83,116.07 351.32,116.07 352.81,116.07 354.30,116.07 355.79,116.07 357.27,116.05 358.76,116.05 360.25,116.02 361.74,115.93 363.22,115.86 364.71,115.51 366.20,115.50 367.69,114.98 369.17,114.67 370.66,114.44 372.15,113.71 373.64,113.52 375.12,113.44 376.61,113.20 378.10,112.83 379.59,112.74 381.07,112.61 382.56,112.41 384.05,112.23 385.54,112.15 387.02,112.03 388.51,111.94 390.00,111.71 391.49,111.50 392.98,111.26 394.46,110.87 395.95,110.64 397.44,109.50 398.93,108.64 400.41,108.10 401.90,107.62 403.39,107.10 404.88,107.10 406.36,107.10 407.85,107.10 409.34,106.77 410.83,106.58 412.31,105.89 413.80,105.11 415.29,104.20 416.78,102.84 418.26,101.88 419.75,99.91 421.24,98.73 422.73,97.93 424.21,96.66 425.70,95.84 427.19,94.22 428.68,91.77 430.17,91.03 431.65,90.07 433.14,89.15 434.63,88.85 436.12,87.67 437.60,87.47 439.09,86.06 440.58,84.79 442.07,84.02 443.55,83.15 445.04,82.00 446.53,81.70 448.02,81.60 449.50,81.47 450.99,81.39 452.48,80.66 453.97,79.72 455.45,78.57 456.94,78.25 458.43,77.32 459.92,76.12 461.40,73.73 462.89,71.97 464.38,69.80 465.87,69.23 467.36,68.08 468.84,65.95 470.33,64.73 471.82,64.07 473.31,63.14 474.79,62.52 476.28,61.64 477.77,61.24 479.26,60.34 480.74,58.64 482.23,56.77 483.72,56.19 485.21,55.22 486.69,53.67 488.18,52.75 489.67,50.88 491.16,49.90 492.64,47.99 494.13,46.05 495.62,44.00 497.11,40.54 498.60,38.44 500.08,36.42 501.57,35.30 503.06,33.64 504.55,32.22 506.03,31.74 507.52,30.96 509.01,30.06" />
    </svg>
  