
    <svg width="540" height="160" xmlns="http://www.w3.org/2000/svg">
      <style>.line{fill:none;stroke:#388bfd;stroke-width:1.5}.axis{stroke:#555;stroke-width:1;opacity:0.5}.label{fill:#999;font-family:sans-serif;font-size:10px;text-anchor:middle}</style>
      <line class="axis" x1="30" y1="30" x2="30" y2="130" />
      <line class="axis" x1="30" y1="130" x2="510" y2="130" />
      <text class="label" x="15" y="30">7,353</text>
      <text class="label" x="15" y="134">0</text>
      <text class="label" x="30" y="148">2021</text>
      <text class="label" x="510" y="148">2026</text>
      <polyline class="line" points="30.00,129.97 31.51,129.96 33.02,129.95 34.52,129.95 36.03,129.95 37.54,129.77 39.05,129.77 40.55,129.77 42.06,128.79 43.57,127.17 45.08,127.09 46.59,127.09 48.09,127.09 49.60,127.09 51.11,127.09 52.62,127.09 54.13,127.09 55.63,127.09 57.14,127.09 58.65,127.09 60.16,127.09 61.66,127.09 63.17,127.09 64.68,127.09 66.19,127.09 67.70,127.09 69.20,127.09 70.71,126.16 72.22,126.16 73.73,126.15 75.24,126.15 76.74,126.15 78.25,126.15 79.76,126.10 81.27,126.10 82.77,126.10 84.28,126.10 85.79,126.10 87.30,126.10 88.81,126.10 90.31,126.10 91.82,126.10 93.33,126.10 94.84,126.10 96.35,126.10 97.85,126.10 99.36,126.10 100.87,126.10 102.38,126.10 103.88,126.10 105.39,126.10 106.90,126.04 108.41,125.21 109.92,124.45 111.42,124.14 112.93,122.63 114.44,122.63 115.95,122.63 117.46,122.63 118.96,122.63 120.47,122.63 121.98,122.63 123.49,122.63 124.99,122.63 126.50,122.63 128.01,122.63 129.52,122.63 131.03,122.52 132.53,122.52 134.04,122.52 135.55,122.38 137.06,122.38 138.57,122.38 140.07,122.38 141.58,122.34 143.09,122.34 144.60,122.34 146.10,122.34 147.61,122.32 149.12,122.32 150.63,122.32 152.14,122.32 153.64,122.32 155.15,122.32 156.66,122.32 158.17,122.32 159.68,122.32 161.18,122.32 162.69,122.32 164.20,122.32 165.71,122.32 167.21,122.32 168.72,122.32 170.23,122.32 171.74,122.32 173.25,122.32 174.75,122.32 176.26,122.32 177.77,122.32 179.28,122.32 180.79,122.32 182.29,122.28 183.80,122.28 185.31,122.28 186.82,122.28 188.32,122.28 189.83,122.28 191.34,122.28 192.85,122.28 194.36,122.28 195.86,122.28 197.37,122.28 198.88,122.28 200.39,122.28 201.90,122.28 203.40,122.28 204.91,122.25 206.42,121.89 207.93,121.80 209.43,121.65 210.94,121.46 212.45,121.40 213.96,121.40 215.47,121.40 216.97,121.11 218.48,121.08 219.99,120.89 221.50,120.82 223.01,120.70 224.51,120.22 226.02,120.19 227.53,120.13 229.04,120.11 230.54,120.04 232.05,120.04 233.56,120.02 235.07,120.02 236.58,120.02 238.08,120.02 239.59,120.02 241.10,120.02 242.61,120.02 244.12,119.87 245.62,119.43 247.13,119.11 248.64,119.01 250.15,118.81 251.65,118.79 253.16,118.77 254.67,118.75 256.18,118.75 257.69,118.75 259.19,118.66 260.70,118.56 262.21,118.54 263.72,118.51 265.23,118.48 266.73,118.17 268.24,117.95 269.75,117.62 271.26,117.42 272.76,117.27 274.27,117.20 275.78,117.12 277.29,117.11 278.80,117.04 280.30,116.84 281.81,116.84 283.32,116.84 284.83,116.82 286.34,116.81 287.84,116.81 289.35,116.70 290.86,116.67 292.37,116.66 293.87,116.64 295.38,116.62 296.89,116.62 298.40,116.62 299.91,116.62 301.41,116.62 302.92,116.62 304.43,116.62 305.94,116.62 307.45,116.58 308.95,116.54 310.46,116.54 311.97,116.29 313.48,116.28 314.98,116.26 316.49,116.22 318.00,116.10 319.51,115.80 321.02,115.75 322.52,115.75 324.03,115.75 325.54,115.75 327.05,115.75 328.55,115.75 330.06,115.75 331.57,115.75 333.08,115.75 334.59,115.75 336.09,115.75 337.60,115.75 339.11,115.75 340.62,115.73 342.13,115.65 343.63,115.64 345.14,115.64 346.65,115.64 348.16,115.64 349.66,115.58 351.17,115.58 352.68,115.37 354.19,115.16 355.70,115.16 357.20,115.16 358.71,115.16 360.22,115.16 361.73,115.14 363.24,115.14 364.74,115.11 366.25,115.01 367.76,114.93 369.27,114.56 370.77,114.55 372.28,113.99 373.79,113.67 375.30,113.42 376.81,112.65 378.31,112.44 379.82,112.36 381.33,112.10 382.84,111.71 384.35,111.61 385.85,111.48 387.36,111.26 388.87,111.07 390.38,110.99 391.88,110.85 393.39,110.76 394.90,110.51 396.41,110.29 397.92,110.04 399.42,109.61 400.93,109.37 402.44,108.16 403.95,107.25 405.46,106.66 406.96,106.16 408.47,105.60 409.98,105.60 411.49,105.60 412.99,105.60 414.50,105.25 416.01,105.04 417.52,104.31 419.03,103.48 420.53,102.51 422.04,101.06 423.55,100.04 425.06,97.95 426.57,96.68 428.07,95.84 429.58,94.48 431.09,93.61 432.60,91.88 434.10,89.27 435.61,88.48 437.12,87.46 438.63,86.48 440.14,86.15 441.64,84.90 443.15,84.69 444.66,83.19 446.17,81.83 447.68,81.01 449.18,80.09 450.69,78.86 452.20,78.54 453.71,78.43 455.21,78.29 456.72,78.21 458.23,77.44 459.74,76.43 461.25,75.21 462.75,74.87 464.26,73.87 465.77,72.59 467.28,70.05 468.79,68.17 470.29,65.86 471.80,65.25 473.31,64.03 474.82,61.76 476.32,60.46 477.83,59.76 479.34,58.76 480.85,58.11 482.36,57.17 483.86,56.74 485.37,55.79 486.88,53.98 488.39,51.98 489.90,51.37 491.40,50.43 492.91,49.18 494.42,48.28 495.93,46.88 497.43,46.01 498.94,44.16 500.45,42.20 501.96,40.47 503.47,37.04 504.97,34.92 506.48,32.87 507.99,31.73 509.50,30.05" />
    </svg>
  