
    <svg width="540" height="160" xmlns="http://www.w3.org/2000/svg">
      <style>.line{fill:none;stroke:#388bfd;stroke-width:1.5}.axis{stroke:#555;stroke-width:1;opacity:0.5}.label{fill:#999;font-family:sans-serif;font-size:10px;text-anchor:middle}</style>
      <line class="axis" x1="30" y1="30" x2="30" y2="130" />
      <line class="axis" x1="30" y1="130" x2="510" y2="130" />
      <text class="label" x="15" y="30">5,023</text>
      <text class="label" x="15" y="134">0</text>
      <text class="label" x="30" y="148">2021</text>
      <text class="label" x="510" y="148">2026</text>
      <polyline class="line" points="30.00,129.96 31.52,129.94 33.05,129.92 34.57,129.92 36.10,129.92 37.62,129.66 39.15,129.66 40.67,129.66 42.20,128.23 43.72,125.86 45.25,125.74 46.77,125.74 48.30,125.74 49.82,125.74 51.34,125.74 52.87,125.74 54.39,125.74 55.92,125.74 57.44,125.74 58.97,125.74 60.49,125.74 62.02,125.74 63.54,125.74 65.07,125.74 66.59,125.74 68.12,125.74 69.64,125.74 71.16,124.39 72.69,124.39 74.21,124.37 75.74,124.37 77.26,124.37 78.79,124.37 80.31,124.29 81.84,124.29 83.36,124.29 84.89,124.29 86.41,124.29 87.94,124.29 89.46,124.29 90.98,124.29 92.51,124.29 94.03,124.29 95.56,124.29 97.08,124.29 98.61,124.29 100.13,124.29 101.66,124.29 103.18,124.29 104.71,124.29 106.23,124.29 107.76,124.21 109.28,122.99 110.80,121.88 112.33,121.42 113.85,119.21 115.38,119.21 116.90,119.21 118.43,119.21 119.95,119.21 121.48,119.21 123.00,119.21 124.53,119.21 126.05,119.21 127.58,119.21 129.10,119.21 130.62,119.21 132.15,119.05 133.67,119.05 135.20,119.05 136.72,118.85 138.25,118.85 139.77,118.85 141.30,118.85 142.82,118.79 144.35,118.79 145.87,118.79 147.40,118.79 148.92,118.75 150.44,118.75 151.97,118.75 153.49,118.75 155.02,118.75 156.54,118.75 158.07,118.75 159.59,118.75 161.12,118.75 162.64,118.75 164.17,118.75 165.69,118.75 167.22,118.75 168.74,118.75 170.26,118.75 171.79,118.75 173.31,118.75 174.84,118.75 176.36,118.75 177.89,118.75 179.41,118.75 180.94,118.75 182.46,118.75 183.99,118.69 185.51,118.69 187.04,118.69 188.56,118.69 190.08,118.69 191.61,118.69 193.13,118.69 194.66,118.69 196.18,118.69 197.71,118.69 199.23,118.69 200.76,118.69 202.28,118.69 203.81,118.69 205.33,118.69 206.86,118.65 208.38,118.13 209.90,118.00 211.43,117.78 212.95,117.50 214.48,117.42 216.00,117.42 217.53,117.42 219.05,116.98 220.58,116.94 222.10,116.66 223.63,116.56 225.15,116.38 226.68,115.69 228.20,115.65 229.72,115.55 231.25,115.53 232.77,115.43 234.30,115.43 235.82,115.39 237.35,115.39 238.87,115.39 240.40,115.39 241.92,115.39 243.45,115.39 244.97,115.39 246.50,115.17 248.02,114.53 249.54,114.05 251.07,113.91 252.59,113.62 254.12,113.60 255.64,113.56 257.17,113.54 258.69,113.54 260.22,113.54 261.74,113.40 263.27,113.26 264.79,113.22 266.32,113.18 267.84,113.14 269.36,112.68 270.89,112.36 272.41,111.88 273.94,111.58 275.46,111.37 276.99,111.27 278.51,111.15 280.04,111.13 281.56,111.03 283.09,110.73 284.61,110.73 286.14,110.73 287.66,110.71 289.18,110.69 290.71,110.69 292.23,110.53 293.76,110.49 295.28,110.47 296.81,110.45 298.33,110.41 299.86,110.41 301.38,110.41 302.91,110.41 304.43,110.41 305.96,110.41 307.48,110.41 309.00,110.41 310.53,110.35 312.05,110.29 313.58,110.29 315.10,109.93 316.63,109.91 318.15,109.89 319.68,109.83 321.20,109.65 322.73,109.22 324.25,109.14 325.78,109.14 327.30,109.14 328.82,109.14 330.35,109.14 331.87,109.14 333.40,109.14 334.92,109.14 336.45,109.14 337.97,109.14 339.50,109.14 341.02,109.14 342.55,109.14 344.07,109.12 345.60,109.00 347.12,108.98 348.64,108.98 350.17,108.98 351.69,108.98 353.22,108.90 354.74,108.90 356.27,108.58 357.79,108.28 359.32,108.28 360.84,108.28 362.37,108.28 363.89,108.28 365.42,108.24 366.94,108.24 368.46,108.20 369.99,108.06 371.51,107.94 373.04,107.40 374.56,107.38 376.09,106.57 377.61,106.09 379.14,105.73 380.66,104.60 382.19,104.30 383.71,104.18 385.24,103.80 386.76,103.22 388.28,103.08 389.81,102.88 391.33,102.57 392.86,102.29 394.38,102.17 395.91,101.97 397.43,101.83 398.96,101.47 400.48,101.15 402.01,100.77 403.53,100.16 405.06,99.80 406.58,98.03 408.10,96.69 409.63,95.84 411.15,95.10 412.68,94.28 414.20,94.28 415.73,94.28 417.25,94.28 418.78,93.77 420.30,93.47 421.83,92.81 423.35,92.05 424.88,91.02 426.40,89.39 427.92,88.47 429.45,86.80 430.97,85.82 432.50,85.21 434.02,84.19 435.55,83.39 437.07,82.04 438.60,80.07 440.12,79.49 441.65,78.66 443.17,77.94 444.70,77.70 446.22,76.78 447.74,76.63 449.27,75.53 450.79,74.54 452.32,73.94 453.84,73.24 455.37,72.29 456.89,72.01 458.42,71.87 459.94,71.73 461.47,71.61 462.99,70.85 464.52,70.00 466.04,68.64 467.56,68.24 469.09,67.55 470.61,66.41 472.14,63.88 473.66,61.97 475.19,59.84 476.71,59.38 478.24,58.45 479.76,56.56 481.29,55.40 482.81,54.77 484.34,53.81 485.86,53.31 487.38,52.62 488.91,52.30 490.43,51.22 491.96,49.61 493.48,48.08 495.01,47.62 496.53,46.82 498.06,45.39 499.58,44.31 501.11,42.72 502.63,41.91 504.16,40.27 505.68,38.10 507.20,36.25 508.73,32.33" />
    </svg>
  