
    <svg width="540" height="160" xmlns="http://www.w3.org/2000/svg">
      <style>.line{fill:none;stroke:#388bfd;stroke-width:1.5}.axis{stroke:#555;stroke-width:1;opacity:0.5}.label{fill:#999;font-family:sans-serif;font-size:10px;text-anchor:middle}</style>
      <line class="axis" x1="30" y1="30" x2="30" y2="130" />
      <line class="axis" x1="30" y1="130" x2="510" y2="130" />
      <text class="label" x="15" y="30">8,569</text>
      <text class="label" x="15" y="134">0</text>
      <text class="label" x="30" y="148">2021</text>
      <text class="label" x="510" y="148">2026</text>
      <polyline class="line" points="30.00,129.98 31.47,129.96 32.93,129.95 34.40,129.95 35.87,129.95 37.34,129.80 38.80,129.80 40.27,129.80 41.74,128.96 43.20,127.57 44.67,127.50 46.14,127.50 47.61,127.50 49.07,127.50 50.54,127.50 52.01,127.50 53.47,127.50 54.94,127.50 56.41,127.50 57.88,127.50 59.34,127.50 60.81,127.50 62.28,127.50 63.74,127.50 65.21,127.50 66.68,127.50 68.15,127.50 69.61,126.71 71.08,126.71 72.55,126.70 74.01,126.70 75.48,126.70 76.95,126.70 78.42,126.65 79.88,126.65 81.35,126.65 82.82,126.65 84.28,126.65 85.75,126.65 87.22,126.65 88.69,126.65 90.15,126.65 91.62,126.65 93.09,126.65 94.55,126.65 96.02,126.65 97.49,126.65 98.96,126.65 100.42,126.65 101.89,126.65 103.36,126.65 104.82,126.60 106.29,125.89 107.76,125.24 109.23,124.97 110.69,123.67 112.16,123.67 113.63,123.67 115.09,123.67 116.56,123.67 118.03,123.67 119.50,123.67 120.96,123.67 122.43,123.67 123.90,123.67 125.36,123.67 126.83,123.67 128.30,123.58 129.77,123.58 131.23,123.58 132.70,123.46 134.17,123.46 135.63,123.46 137.10,123.46 138.57,123.43 140.04,123.43 141.50,123.43 142.97,123.43 144.44,123.41 145.90,123.41 147.37,123.41 148.84,123.41 150.31,123.41 151.77,123.41 153.24,123.41 154.71,123.41 156.17,123.41 157.64,123.41 159.11,123.41 160.58,123.41 162.04,123.41 163.51,123.41 164.98,123.41 166.44,123.41 167.91,123.41 169.38,123.41 170.85,123.41 172.31,123.41 173.78,123.41 175.25,123.41 176.71,123.41 178.18,123.37 179.65,123.37 181.12,123.37 182.58,123.37 184.05,123.37 185.52,123.37 186.98,123.37 188.45,123.37 189.92,123.37 191.39,123.37 192.85,123.37 194.32,123.37 195.79,123.37 197.25,123.37 198.72,123.37 200.19,123.35 201.66,123.04 203.12,122.96 204.59,122.83 206.06,122.67 207.52,122.62 208.99,122.62 210.46,122.62 211.93,122.37 213.39,122.34 214.86,122.18 216.33,122.12 217.79,122.02 219.26,121.61 220.73,121.59 222.20,121.53 223.66,121.52 225.13,121.46 226.60,121.46 228.06,121.43 229.53,121.43 231.00,121.43 232.47,121.43 233.93,121.43 235.40,121.43 236.87,121.43 238.33,121.31 239.80,120.93 241.27,120.65 242.74,120.57 244.20,120.40 245.67,120.38 247.14,120.36 248.60,120.35 250.07,120.35 251.54,120.35 253.01,120.27 254.47,120.19 255.94,120.16 257.41,120.14 258.87,120.12 260.34,119.85 261.81,119.66 263.28,119.38 264.74,119.21 266.21,119.08 267.68,119.02 269.14,118.95 270.61,118.94 272.08,118.88 273.55,118.70 275.01,118.70 276.48,118.70 277.95,118.69 279.41,118.68 280.88,118.68 282.35,118.59 283.82,118.56 285.28,118.55 286.75,118.54 288.22,118.52 289.68,118.52 291.15,118.52 292.62,118.52 294.09,118.52 295.55,118.52 297.02,118.52 298.49,118.52 299.95,118.48 301.42,118.45 302.89,118.45 304.36,118.24 305.82,118.22 307.29,118.21 308.76,118.18 310.22,118.07 311.69,117.82 313.16,117.77 314.63,117.77 316.09,117.77 317.56,117.77 319.03,117.77 320.49,117.77 321.96,117.77 323.43,117.77 324.90,117.77 326.36,117.77 327.83,117.77 329.30,117.77 330.76,117.77 332.23,117.76 333.70,117.69 335.17,117.68 336.63,117.68 338.10,117.68 339.57,117.68 341.03,117.63 342.50,117.63 343.97,117.44 345.44,117.27 346.90,117.27 348.37,117.27 349.84,117.27 351.30,117.27 352.77,117.24 354.24,117.24 355.71,117.22 357.17,117.14 358.64,117.07 360.11,116.75 361.57,116.74 363.04,116.26 364.51,115.98 365.98,115.77 367.44,115.11 368.91,114.93 370.38,114.86 371.84,114.64 373.31,114.30 374.78,114.22 376.25,114.11 377.71,113.92 379.18,113.76 380.65,113.69 382.11,113.57 383.58,113.49 385.05,113.28 386.52,113.09 387.98,112.87 389.45,112.51 390.92,112.30 392.38,111.26 393.85,110.48 395.32,109.97 396.79,109.54 398.25,109.06 399.72,109.06 401.19,109.06 402.65,109.06 404.12,108.76 405.59,108.59 407.06,107.96 408.52,107.24 409.99,106.41 411.46,105.17 412.92,104.29 414.39,102.49 415.86,101.41 417.33,100.69 418.79,99.52 420.26,98.77 421.73,97.29 423.19,95.05 424.66,94.37 426.13,93.50 427.60,92.66 429.06,92.38 430.53,91.30 432.00,91.12 433.46,89.83 434.93,88.66 436.40,87.96 437.87,87.17 439.33,86.12 440.80,85.84 442.27,85.75 443.73,85.63 445.20,85.56 446.67,84.90 448.14,84.03 449.60,82.98 451.07,82.69 452.54,81.84 454.00,80.74 455.47,78.56 456.94,76.95 458.41,74.96 459.87,74.44 461.34,73.39 462.81,71.44 464.27,70.33 465.74,69.72 467.21,68.87 468.68,68.31 470.14,67.51 471.61,67.13 473.08,66.32 474.54,64.76 476.01,63.05 477.48,62.52 478.95,61.56 480.41,59.78 481.88,58.87 483.35,56.67 484.81,55.62 486.28,53.70 487.75,51.83 489.22,49.58 490.68,46.20 492.15,43.96 493.62,42.03 495.08,40.79 496.55,39.20 498.02,37.76 499.49,37.06 500.95,35.89 502.42,34.48 503.89,33.93 505.35,32.89 506.82,32.01 508.29,31.13 509.76,30.00" />
    </svg>
  