
    <svg width="540" height="160" xmlns="http://www.w3.org/2000/svg">
      <style>.line{fill:none;stroke:#388bfd;stroke-width:1.5}.axis{stroke:#555;stroke-width:1;opacity:0.5}.label{fill:#999;font-family:sans-serif;font-size:10px;text-anchor:middle}</style>
      <line class="axis" x1="30" y1="30" x2="30" y2="130" />
      <line class="axis" x1="30" y1="130" x2="510" y2="130" />
      <text class="label" x="15" y="30">8,341</text>
      <text class="label" x="15" y="134">0</text>
      <text class="label" x="30" y="148">2021</text>
      <text class="label" x="510" y="148">2026</text>
      <polyline class="line" points="30.00,129.98 31.48,129.96 32.96,129.95 34.44,129.95 35.91,129.95 37.39,129.80 38.87,129.80 40.35,129.80 41.83,128.93 43.31,127.51 44.78,127.43 46.26,127.43 47.74,127.43 49.22,127.43 50.70,127.43 52.18,127.43 53.66,127.43 55.13,127.43 56.61,127.43 58.09,127.43 59.57,127.43 61.05,127.43 62.53,127.43 64.00,127.43 65.48,127.43 66.96,127.43 68.44,127.43 69.92,126.62 71.40,126.62 72.87,126.61 74.35,126.61 75.83,126.61 77.31,126.61 78.79,126.56 80.27,126.56 81.75,126.56 83.22,126.56 84.70,126.56 86.18,126.56 87.66,126.56 89.14,126.56 90.62,126.56 92.09,126.56 93.57,126.56 95.05,126.56 96.53,126.56 98.01,126.56 99.49,126.56 100.97,126.56 102.44,126.56 103.92,126.56 105.40,126.51 106.88,125.78 108.36,125.11 109.84,124.83 111.31,123.50 112.79,123.50 114.27,123.50 115.75,123.50 117.23,123.50 118.71,123.50 120.18,123.50 121.66,123.50 123.14,123.50 124.62,123.50 126.10,123.50 127.58,123.50 129.06,123.41 130.53,123.41 132.01,123.41 133.49,123.29 134.97,123.29 136.45,123.29 137.93,123.29 139.40,123.25 140.88,123.25 142.36,123.25 143.84,123.25 145.32,123.23 146.80,123.23 148.28,123.23 149.75,123.23 151.23,123.23 152.71,123.23 154.19,123.23 155.67,123.23 157.15,123.23 158.62,123.23 160.10,123.23 161.58,123.23 163.06,123.23 164.54,123.23 166.02,123.23 167.49,123.23 168.97,123.23 170.45,123.23 171.93,123.23 173.41,123.23 174.89,123.23 176.37,123.23 177.84,123.23 179.32,123.19 180.80,123.19 182.28,123.19 183.76,123.19 185.24,123.19 186.71,123.19 188.19,123.19 189.67,123.19 191.15,123.19 192.63,123.19 194.11,123.19 195.59,123.19 197.06,123.19 198.54,123.19 200.02,123.19 201.50,123.17 202.98,122.85 204.46,122.77 205.93,122.64 207.41,122.47 208.89,122.42 210.37,122.42 211.85,122.42 213.33,122.16 214.80,122.14 216.28,121.97 217.76,121.91 219.24,121.80 220.72,121.38 222.20,121.36 223.68,121.30 225.15,121.28 226.63,121.22 228.11,121.22 229.59,121.20 231.07,121.20 232.55,121.20 234.02,121.20 235.50,121.20 236.98,121.20 238.46,121.20 239.94,121.07 241.42,120.68 242.90,120.40 244.37,120.31 245.85,120.13 247.33,120.12 248.81,120.10 250.29,120.09 251.77,120.09 253.24,120.09 254.72,120.00 256.20,119.92 257.68,119.89 259.16,119.87 260.64,119.85 262.11,119.57 263.59,119.38 265.07,119.09 266.55,118.91 268.03,118.78 269.51,118.72 270.99,118.65 272.46,118.63 273.94,118.57 275.42,118.39 276.90,118.39 278.38,118.39 279.86,118.38 281.33,118.37 282.81,118.37 284.29,118.27 285.77,118.25 287.25,118.24 288.73,118.23 290.21,118.20 291.68,118.20 293.16,118.20 294.64,118.20 296.12,118.20 297.60,118.20 299.08,118.20 300.55,118.20 302.03,118.17 303.51,118.13 304.99,118.13 306.47,117.92 307.95,117.90 309.43,117.89 310.90,117.86 312.38,117.75 313.86,117.48 315.34,117.44 316.82,117.44 318.30,117.44 319.77,117.44 321.25,117.44 322.73,117.44 324.21,117.44 325.69,117.44 327.17,117.44 328.64,117.44 330.12,117.44 331.60,117.44 333.08,117.44 334.56,117.42 336.04,117.35 337.52,117.34 338.99,117.34 340.47,117.34 341.95,117.34 343.43,117.29 344.91,117.29 346.39,117.10 347.86,116.92 349.34,116.92 350.82,116.92 352.30,116.92 353.78,116.92 355.26,116.90 356.74,116.90 358.21,116.87 359.69,116.79 361.17,116.72 362.65,116.39 364.13,116.38 365.61,115.89 367.08,115.60 368.56,115.39 370.04,114.70 371.52,114.52 373.00,114.45 374.48,114.22 375.95,113.87 377.43,113.79 378.91,113.67 380.39,113.48 381.87,113.31 383.35,113.24 384.83,113.12 386.30,113.04 387.78,112.82 389.26,112.63 390.74,112.40 392.22,112.03 393.70,111.81 395.17,110.75 396.65,109.94 398.13,109.43 399.61,108.98 401.09,108.49 402.57,108.49 404.05,108.49 405.52,108.49 407.00,108.18 408.48,108.00 409.96,107.35 411.44,106.62 412.92,105.77 414.39,104.49 415.87,103.59 417.35,101.74 418.83,100.63 420.31,99.88 421.79,98.68 423.26,97.92 424.74,96.39 426.22,94.09 427.70,93.40 429.18,92.50 430.66,91.64 432.14,91.35 433.61,90.24 435.09,90.05 436.57,88.73 438.05,87.54 439.53,86.82 441.01,86.00 442.48,84.92 443.96,84.63 445.44,84.54 446.92,84.42 448.40,84.35 449.88,83.66 451.36,82.78 452.83,81.70 454.31,81.40 455.79,80.52 457.27,79.39 458.75,77.15 460.23,75.50 461.70,73.46 463.18,72.92 464.66,71.84 466.14,69.84 467.62,68.70 469.10,68.08 470.57,67.20 472.05,66.63 473.53,65.80 475.01,65.42 476.49,64.58 477.97,62.98 479.45,61.22 480.92,60.68 482.40,59.68 483.88,57.86 485.36,56.93 486.84,54.66 488.32,53.58 489.79,51.62 491.27,49.70 492.75,47.38 494.23,43.91 495.71,41.61 497.19,39.63 498.67,38.36 500.14,36.71 501.62,35.24 503.10,34.52 504.58,33.32 506.06,31.87 507.54,31.31 509.01,30.24" />
    </svg>
  