
    <svg width="540" height="160" xmlns="http://www.w3.org/2000/svg">
      <style>.line{fill:none;stroke:#388bfd;stroke-width:1.5}.axis{stroke:#555;stroke-width:1;opacity:0.5}.label{fill:#999;font-family:sans-serif;font-size:10px;text-anchor:middle}</style>
      <line class="axis" x1="30" y1="30" x2="30" y2="130" />
      <line class="axis" x1="30" y1="130" x2="510" y2="130" />
      <text class="label" x="15" y="30">7,340</text>
      <text class="label" x="15" y="134">0</text>
      <text class="label" x="30" y="148">2021</text>
      <text class="label" x="510" y="148">2026</text>
      <polyline class="line" points="30.00,129.97 31.51,129.96 33.02,129.95 34.53,129.95 36.04,129.95 37.55,129.77 39.06,129.77 40.57,129.77 42.08,128.79 43.59,127.17 45.10,127.08 46.61,127.08 48.12,127.08 49.63,127.08 51.14,127.08 52.65,127.08 54.16,127.08 55.67,127.08 57.18,127.08 58.69,127.08 60.20,127.08 61.71,127.08 63.22,127.08 64.74,127.08 66.25,127.08 67.76,127.08 69.27,127.08 70.78,126.16 72.29,126.16 73.80,126.14 75.31,126.14 76.82,126.14 78.33,126.14 79.84,126.09 81.35,126.09 82.86,126.09 84.37,126.09 85.88,126.09 87.39,126.09 88.90,126.09 90.41,126.09 91.92,126.09 93.43,126.09 94.94,126.09 96.45,126.09 97.96,126.09 99.47,126.09 100.98,126.09 102.49,126.09 104.00,126.09 105.51,126.09 107.02,126.04 108.53,125.20 110.04,124.44 111.55,124.13 113.06,122.62 114.57,122.62 116.08,122.62 117.59,122.62 119.10,122.62 120.61,122.62 122.12,122.62 123.63,122.62 125.14,122.62 126.65,122.62 128.16,122.62 129.67,122.62 131.19,122.51 132.70,122.51 134.21,122.51 135.72,122.37 137.23,122.37 138.74,122.37 140.25,122.37 141.76,122.33 143.27,122.33 144.78,122.33 146.29,122.33 147.80,122.30 149.31,122.30 150.82,122.30 152.33,122.30 153.84,122.30 155.35,122.30 156.86,122.30 158.37,122.30 159.88,122.30 161.39,122.30 162.90,122.30 164.41,122.30 165.92,122.30 167.43,122.30 168.94,122.30 170.45,122.30 171.96,122.30 173.47,122.30 174.98,122.30 176.49,122.30 178.00,122.30 179.51,122.30 181.02,122.30 182.53,122.26 184.04,122.26 185.55,122.26 187.06,122.26 188.57,122.26 190.08,122.26 191.59,122.26 193.10,122.26 194.61,122.26 196.12,122.26 197.64,122.26 199.15,122.26 200.66,122.26 202.17,122.26 203.68,122.26 205.19,122.23 206.70,121.88 208.21,121.78 209.72,121.63 211.23,121.44 212.74,121.39 214.25,121.39 215.76,121.39 217.27,121.09 218.78,121.06 220.29,120.87 221.80,120.80 223.31,120.68 224.82,120.20 226.33,120.18 227.84,120.11 229.35,120.10 230.86,120.03 232.37,120.03 233.88,120.00 235.39,120.00 236.90,120.00 238.41,120.00 239.92,120.00 241.43,120.00 242.94,120.00 244.45,119.85 245.96,119.41 247.47,119.09 248.98,118.99 250.49,118.79 252.00,118.77 253.51,118.75 255.02,118.73 256.53,118.73 258.04,118.73 259.55,118.64 261.06,118.54 262.57,118.51 264.08,118.49 265.60,118.46 267.11,118.15 268.62,117.93 270.13,117.60 271.64,117.40 273.15,117.25 274.66,117.18 276.17,117.10 277.68,117.08 279.19,117.02 280.70,116.81 282.21,116.81 283.72,116.81 285.23,116.80 286.74,116.78 288.25,116.78 289.76,116.68 291.27,116.65 292.78,116.63 294.29,116.62 295.80,116.59 297.31,116.59 298.82,116.59 300.33,116.59 301.84,116.59 303.35,116.59 304.86,116.59 306.37,116.59 307.88,116.55 309.39,116.51 310.90,116.51 312.41,116.27 313.92,116.25 315.43,116.24 316.94,116.20 318.45,116.08 319.96,115.78 321.47,115.72 322.98,115.72 324.49,115.72 326.00,115.72 327.51,115.72 329.02,115.72 330.53,115.72 332.05,115.72 333.56,115.72 335.07,115.72 336.58,115.72 338.09,115.72 339.60,115.72 341.11,115.71 342.62,115.63 344.13,115.61 345.64,115.61 347.15,115.61 348.66,115.61 350.17,115.56 351.68,115.56 353.19,115.34 354.70,115.14 356.21,115.14 357.72,115.14 359.23,115.14 360.74,115.14 362.25,115.11 363.76,115.11 365.27,115.08 366.78,114.99 368.29,114.90 369.80,114.54 371.31,114.52 372.82,113.96 374.33,113.64 375.84,113.39 377.35,112.62 378.86,112.41 380.37,112.33 381.88,112.07 383.39,111.68 384.90,111.58 386.41,111.44 387.92,111.23 389.43,111.04 390.94,110.95 392.45,110.82 393.96,110.72 395.47,110.48 396.98,110.26 398.50,110.00 400.01,109.58 401.52,109.33 403.03,108.12 404.54,107.21 406.05,106.62 407.56,106.12 409.07,105.56 410.58,105.56 412.09,105.56 413.60,105.56 415.11,105.20 416.62,105.00 418.13,104.26 419.64,103.43 421.15,102.47 422.66,101.01 424.17,99.99 425.68,97.89 427.19,96.62 428.70,95.78 430.21,94.41 431.72,93.54 433.23,91.81 434.74,89.20 436.25,88.41 437.76,87.38 439.27,86.40 440.78,86.08 442.29,84.82 443.80,84.60 445.31,83.11 446.82,81.74 448.33,80.93 449.84,80.00 451.35,78.77 452.86,78.45 454.37,78.34 455.88,78.20 457.39,78.12 458.90,77.34 460.41,76.34 461.92,75.11 463.43,74.77 464.94,73.77 466.46,72.49 467.97,69.95 469.48,68.07 470.99,65.75 472.50,65.14 474.01,63.91 475.52,61.63 477.03,60.34 478.54,59.63 480.05,58.64 481.56,57.98 483.07,57.04 484.58,56.61 486.09,55.65 487.60,53.84 489.11,51.84 490.62,51.23 492.13,50.29 493.64,49.03 495.15,48.13 496.66,46.73 498.17,45.86 499.68,44.01 501.19,42.04 502.70,40.31 504.21,36.88 505.72,34.75 507.23,32.70 508.74,31.55" />
    </svg>
  