
    <svg width="540" height="160" xmlns="http://www.w3.org/2000/svg">
      <style>.line{fill:none;stroke:#388bfd;stroke-width:1.5}.axis{stroke:#555;stroke-width:1;opacity:0.5}.label{fill:#999;font-family:sans-serif;font-size:10px;text-anchor:middle}</style>
      <line class="axis" x1="30" y1="30" x2="30" y2="130" />
      <line class="axis" x1="30" y1="130" x2="510" y2="130" />
      <text class="label" x="15" y="30">7,759</text>
      <text class="label" x="15" y="134">0</text>
      <text class="label" x="30" y="148">2021</text>
      <text class="label" x="510" y="148">2026</text>
      <polyline class="line" points="30.00,129.97 31.49,129.96 32.99,129.95 34.48,129.95 35.98,129.95 37.47,129.78 38.97,129.78 40.46,129.78 41.96,128.85 43.45,127.32 44.95,127.24 46.44,127.24 47.93,127.24 49.43,127.24 50.92,127.24 52.42,127.24 53.91,127.24 55.41,127.24 56.90,127.24 58.40,127.24 59.89,127.24 61.39,127.24 62.88,127.24 64.37,127.24 65.87,127.24 67.36,127.24 68.86,127.24 70.35,126.37 71.85,126.37 73.34,126.35 74.84,126.35 76.33,126.35 77.83,126.35 79.32,126.30 80.81,126.30 82.31,126.30 83.80,126.30 85.30,126.30 86.79,126.30 88.29,126.30 89.78,126.30 91.28,126.30 92.77,126.30 94.27,126.30 95.76,126.30 97.25,126.30 98.75,126.30 100.24,126.30 101.74,126.30 103.23,126.30 104.73,126.30 106.22,126.25 107.72,125.46 109.21,124.74 110.71,124.45 112.20,123.01 113.69,123.01 115.19,123.01 116.68,123.01 118.18,123.01 119.67,123.01 121.17,123.01 122.66,123.01 124.16,123.01 125.65,123.01 127.15,123.01 128.64,123.01 130.13,122.91 131.63,122.91 133.12,122.91 134.62,122.78 136.11,122.78 137.61,122.78 139.10,122.78 140.60,122.74 142.09,122.74 143.59,122.74 145.08,122.74 146.57,122.72 148.07,122.72 149.56,122.72 151.06,122.72 152.55,122.72 154.05,122.72 155.54,122.72 157.04,122.72 158.53,122.72 160.03,122.72 161.52,122.72 163.02,122.72 164.51,122.72 166.00,122.72 167.50,122.72 168.99,122.72 170.49,122.72 171.98,122.72 173.48,122.72 174.97,122.72 176.47,122.72 177.96,122.72 179.46,122.72 180.95,122.68 182.44,122.68 183.94,122.68 185.43,122.68 186.93,122.68 188.42,122.68 189.92,122.68 191.41,122.68 192.91,122.68 194.40,122.68 195.90,122.68 197.39,122.68 198.88,122.68 200.38,122.68 201.87,122.68 203.37,122.65 204.86,122.32 206.36,122.23 207.85,122.09 209.35,121.91 210.84,121.85 212.34,121.85 213.83,121.85 215.32,121.57 216.82,121.55 218.31,121.36 219.81,121.30 221.30,121.18 222.80,120.73 224.29,120.71 225.79,120.64 227.28,120.63 228.78,120.57 230.27,120.57 231.76,120.54 233.26,120.54 234.75,120.54 236.25,120.54 237.74,120.54 239.24,120.54 240.73,120.54 242.23,120.40 243.72,119.99 245.22,119.68 246.71,119.59 248.20,119.39 249.70,119.38 251.19,119.35 252.69,119.34 254.18,119.34 255.68,119.34 257.17,119.25 258.67,119.16 260.16,119.14 261.66,119.11 263.15,119.08 264.64,118.79 266.14,118.58 267.63,118.27 269.13,118.08 270.62,117.94 272.12,117.87 273.61,117.79 275.11,117.78 276.60,117.72 278.10,117.52 279.59,117.52 281.08,117.52 282.58,117.51 284.07,117.50 285.57,117.50 287.06,117.40 288.56,117.37 290.05,117.36 291.55,117.34 293.04,117.32 294.54,117.32 296.03,117.32 297.52,117.32 299.02,117.32 300.51,117.32 302.01,117.32 303.50,117.32 305.00,117.28 306.49,117.24 307.99,117.24 309.48,117.01 310.98,117.00 312.47,116.98 313.96,116.94 315.46,116.83 316.95,116.54 318.45,116.49 319.94,116.49 321.44,116.49 322.93,116.49 324.43,116.49 325.92,116.49 327.42,116.49 328.91,116.49 330.40,116.49 331.90,116.49 333.39,116.49 334.89,116.49 336.38,116.49 337.88,116.48 339.37,116.40 340.87,116.39 342.36,116.39 343.86,116.39 345.35,116.39 346.84,116.34 348.34,116.34 349.83,116.13 351.33,115.94 352.82,115.94 354.32,115.94 355.81,115.94 357.31,115.94 358.80,115.91 360.30,115.91 361.79,115.89 363.28,115.80 364.78,115.72 366.27,115.37 367.77,115.36 369.26,114.83 370.76,114.52 372.25,114.29 373.75,113.55 375.24,113.36 376.74,113.28 378.23,113.04 379.72,112.67 381.22,112.58 382.71,112.45 384.21,112.24 385.70,112.06 387.20,111.98 388.69,111.85 390.19,111.76 391.68,111.53 393.18,111.32 394.67,111.08 396.17,110.68 397.66,110.45 399.15,109.30 400.65,108.44 402.14,107.88 403.64,107.41 405.13,106.88 406.63,106.88 408.12,106.88 409.62,106.88 411.11,106.54 412.61,106.35 414.10,105.65 415.59,104.87 417.09,103.95 418.58,102.57 420.08,101.61 421.57,99.62 423.07,98.42 424.56,97.62 426.06,96.34 427.55,95.51 429.05,93.87 430.54,91.40 432.03,90.65 433.53,89.69 435.02,88.76 436.52,88.45 438.01,87.26 439.51,87.06 441.00,85.64 442.50,84.35 443.99,83.58 445.49,82.70 446.98,81.54 448.47,81.23 449.97,81.13 451.46,81.00 452.96,80.92 454.45,80.19 455.95,79.23 457.44,78.07 458.94,77.75 460.43,76.81 461.93,75.60 463.42,73.19 464.91,71.41 466.41,69.22 467.90,68.64 469.40,67.48 470.89,65.33 472.39,64.10 473.88,63.43 475.38,62.49 476.87,61.87 478.37,60.98 479.86,60.57 481.35,59.67 482.85,57.95 484.34,56.06 485.84,55.48 487.33,54.50 488.83,52.93 490.32,52.00 491.82,50.12 493.31,49.13 494.81,47.19 496.30,45.23 497.79,43.17 499.29,39.68 500.78,37.55 502.28,35.52 503.77,34.38 505.27,32.71 506.76,31.28 508.26,30.79 509.75,30.00" />
    </svg>
  