
    <svg width="540" height="160" xmlns="http://www.w3.org/2000/svg">
      <style>.line{fill:none;stroke:#388bfd;stroke-width:1.5}.axis{stroke:#555;stroke-width:1;opacity:0.5}.label{fill:#999;font-family:sans-serif;font-size:10px;text-anchor:middle}</style>
      <line class="axis" x1="30" y1="30" x2="30" y2="130" />
      <line class="axis" x1="30" y1="130" x2="510" y2="130" />
      <text class="label" x="15" y="30">8,743</text>
      <text class="label" x="15" y="134">0</text>
      <text class="label" x="30" y="148">2021</text>
      <text class="label" x="510" y="148">2026</text>
      <polyline class="line" points="30.00,129.98 31.46,129.97 32.93,129.95 34.39,129.95 35.85,129.95 37.31,129.81 38.78,129.81 40.24,129.81 41.70,128.98 43.16,127.62 44.63,127.55 46.09,127.55 47.55,127.55 49.01,127.55 50.48,127.55 51.94,127.55 53.40,127.55 54.87,127.55 56.33,127.55 57.79,127.55 59.25,127.55 60.72,127.55 62.18,127.55 63.64,127.55 65.10,127.55 66.57,127.55 68.03,127.55 69.49,126.77 70.95,126.77 72.42,126.76 73.88,126.76 75.34,126.76 76.81,126.76 78.27,126.72 79.73,126.72 81.19,126.72 82.66,126.72 84.12,126.72 85.58,126.72 87.04,126.72 88.51,126.72 89.97,126.72 91.43,126.72 92.89,126.72 94.36,126.72 95.82,126.72 97.28,126.72 98.75,126.72 100.21,126.72 101.67,126.72 103.13,126.72 104.60,126.67 106.06,125.97 107.52,125.33 108.98,125.07 110.45,123.80 111.91,123.80 113.37,123.80 114.83,123.80 116.30,123.80 117.76,123.80 119.22,123.80 120.69,123.80 122.15,123.80 123.61,123.80 125.07,123.80 126.54,123.80 128.00,123.71 129.46,123.71 130.92,123.71 132.39,123.59 133.85,123.59 135.31,123.59 136.78,123.59 138.24,123.56 139.70,123.56 141.16,123.56 142.63,123.56 144.09,123.54 145.55,123.54 147.01,123.54 148.48,123.54 149.94,123.54 151.40,123.54 152.86,123.54 154.33,123.54 155.79,123.54 157.25,123.54 158.72,123.54 160.18,123.54 161.64,123.54 163.10,123.54 164.57,123.54 166.03,123.54 167.49,123.54 168.95,123.54 170.42,123.54 171.88,123.54 173.34,123.54 174.80,123.54 176.27,123.54 177.73,123.50 179.19,123.50 180.66,123.50 182.12,123.50 183.58,123.50 185.04,123.50 186.51,123.50 187.97,123.50 189.43,123.50 190.89,123.50 192.36,123.50 193.82,123.50 195.28,123.50 196.74,123.50 198.21,123.50 199.67,123.48 201.13,123.18 202.60,123.10 204.06,122.98 205.52,122.82 206.98,122.77 208.45,122.77 209.91,122.77 211.37,122.52 212.83,122.50 214.30,122.34 215.76,122.28 217.22,122.18 218.68,121.78 220.15,121.75 221.61,121.70 223.07,121.68 224.54,121.63 226.00,121.63 227.46,121.60 228.92,121.60 230.39,121.60 231.85,121.60 233.31,121.60 234.77,121.60 236.24,121.60 237.70,121.48 239.16,121.11 240.62,120.84 242.09,120.76 243.55,120.59 245.01,120.58 246.48,120.55 247.94,120.54 249.40,120.54 250.86,120.54 252.33,120.46 253.79,120.38 255.25,120.36 256.71,120.34 258.18,120.31 259.64,120.05 261.10,119.87 262.56,119.59 264.03,119.42 265.49,119.29 266.95,119.24 268.42,119.17 269.88,119.16 271.34,119.10 272.80,118.93 274.27,118.93 275.73,118.93 277.19,118.92 278.65,118.91 280.12,118.91 281.58,118.81 283.04,118.79 284.50,118.78 285.97,118.77 287.43,118.75 288.89,118.75 290.36,118.75 291.82,118.75 293.28,118.75 294.74,118.75 296.21,118.75 297.67,118.75 299.13,118.71 300.59,118.68 302.06,118.68 303.52,118.47 304.98,118.46 306.44,118.45 307.91,118.41 309.37,118.31 310.83,118.06 312.30,118.01 313.76,118.01 315.22,118.01 316.68,118.01 318.15,118.01 319.61,118.01 321.07,118.01 322.53,118.01 324.00,118.01 325.46,118.01 326.92,118.01 328.38,118.01 329.85,118.01 331.31,118.00 332.77,117.93 334.24,117.92 335.70,117.92 337.16,117.92 338.62,117.92 340.09,117.88 341.55,117.88 343.01,117.69 344.47,117.52 345.94,117.52 347.40,117.52 348.86,117.52 350.33,117.52 351.79,117.50 353.25,117.50 354.71,117.48 356.18,117.40 357.64,117.33 359.10,117.02 360.56,117.01 362.03,116.54 363.49,116.26 364.95,116.06 366.41,115.41 367.88,115.23 369.34,115.17 370.80,114.95 372.27,114.62 373.73,114.54 375.19,114.42 376.65,114.24 378.12,114.08 379.58,114.01 381.04,113.90 382.50,113.82 383.97,113.61 385.43,113.43 386.89,113.21 388.35,112.85 389.82,112.65 391.28,111.63 392.74,110.86 394.21,110.37 395.67,109.95 397.13,109.48 398.59,109.48 400.06,109.48 401.52,109.48 402.98,109.18 404.44,109.01 405.91,108.39 407.37,107.70 408.83,106.88 410.29,105.66 411.76,104.80 413.22,103.04 414.68,101.98 416.15,101.27 417.61,100.12 419.07,99.39 420.53,97.94 422.00,95.74 423.46,95.08 424.92,94.22 426.38,93.40 427.85,93.12 429.31,92.07 430.77,91.89 432.23,90.63 433.70,89.49 435.16,88.80 436.62,88.02 438.09,86.99 439.55,86.72 441.01,86.63 442.47,86.51 443.94,86.45 445.40,85.79 446.86,84.95 448.32,83.92 449.79,83.63 451.25,82.80 452.71,81.72 454.17,79.58 455.64,78.00 457.10,76.06 458.56,75.55 460.03,74.52 461.49,72.61 462.95,71.52 464.41,70.92 465.88,70.09 467.34,69.54 468.80,68.75 470.26,68.38 471.73,67.58 473.19,66.06 474.65,64.38 476.11,63.87 477.58,62.92 479.04,61.18 480.50,60.29 481.97,58.13 483.43,57.10 484.89,55.22 486.35,53.39 487.82,51.18 489.28,47.87 490.74,45.67 492.20,43.78 493.67,42.57 495.13,41.00 496.59,39.60 498.05,38.91 499.52,37.77 500.98,36.38 502.44,35.84 503.91,34.83 505.37,33.96 506.83,33.10 508.29,31.99 509.76,30.02" />
    </svg>
  