
    <svg width="540" height="160" xmlns="http://www.w3.org/2000/svg">
      <style>.line{fill:none;stroke:#388bfd;stroke-width:1.5}.axis{stroke:#555;stroke-width:1;opacity:0.5}.label{fill:#999;font-family:sans-serif;font-size:10px;text-anchor:middle}</style>
      <line class="axis" x1="30" y1="30" x2="30" y2="130" />
      <line class="axis" x1="30" y1="130" x2="510" y2="130" />
      <text class="label" x="15" y="30">9,455</text>
      <text class="label" x="15" y="134">0</text>
      <text class="label" x="30" y="148">2021</text>
      <text class="label" x="510" y="148">2026</text>
      <polyline class="line" points="30.00,129.98 31.43,129.97 32.86,129.96 34.30,129.96 35.73,129.96 37.16,129.82 38.59,129.82 40.02,129.82 41.46,129.06 42.89,127.80 44.32,127.74 45.75,127.74 47.19,127.74 48.62,127.74 50.05,127.74 51.48,127.74 52.91,127.74 54.35,127.74 55.78,127.74 57.21,127.74 58.64,127.74 60.07,127.74 61.51,127.74 62.94,127.74 64.37,127.74 65.80,127.74 67.24,127.74 68.67,127.02 70.10,127.02 71.53,127.01 72.96,127.01 74.40,127.01 75.83,127.01 77.26,126.96 78.69,126.96 80.12,126.96 81.56,126.96 82.99,126.96 84.42,126.96 85.85,126.96 87.28,126.96 88.72,126.96 90.15,126.96 91.58,126.96 93.01,126.96 94.45,126.96 95.88,126.96 97.31,126.96 98.74,126.96 100.17,126.96 101.61,126.96 103.04,126.92 104.47,126.28 105.90,125.68 107.33,125.44 108.77,124.27 110.20,124.27 111.63,124.27 113.06,124.27 114.50,124.27 115.93,124.27 117.36,124.27 118.79,124.27 120.22,124.27 121.66,124.27 123.09,124.27 124.52,124.27 125.95,124.18 127.38,124.18 128.82,124.18 130.25,124.08 131.68,124.08 133.11,124.08 134.55,124.08 135.98,124.05 137.41,124.05 138.84,124.05 140.27,124.05 141.71,124.02 143.14,124.02 144.57,124.02 146.00,124.02 147.43,124.02 148.87,124.02 150.30,124.02 151.73,124.02 153.16,124.02 154.59,124.02 156.03,124.02 157.46,124.02 158.89,124.02 160.32,124.02 161.76,124.02 163.19,124.02 164.62,124.02 166.05,124.02 167.48,124.02 168.92,124.02 170.35,124.02 171.78,124.02 173.21,124.02 174.64,123.99 176.08,123.99 177.51,123.99 178.94,123.99 180.37,123.99 181.81,123.99 183.24,123.99 184.67,123.99 186.10,123.99 187.53,123.99 188.97,123.99 190.40,123.99 191.83,123.99 193.26,123.99 194.69,123.99 196.13,123.97 197.56,123.70 198.99,123.62 200.42,123.51 201.85,123.36 203.29,123.32 204.72,123.32 206.15,123.32 207.58,123.08 209.02,123.06 210.45,122.91 211.88,122.86 213.31,122.77 214.74,122.40 216.18,122.37 217.61,122.32 219.04,122.31 220.47,122.26 221.90,122.26 223.34,122.24 224.77,122.24 226.20,122.24 227.63,122.24 229.07,122.24 230.50,122.24 231.93,122.24 233.36,122.12 234.79,121.78 236.23,121.53 237.66,121.45 239.09,121.30 240.52,121.29 241.95,121.26 243.39,121.25 244.82,121.25 246.25,121.25 247.68,121.18 249.11,121.11 250.55,121.08 251.98,121.06 253.41,121.04 254.84,120.80 256.28,120.63 257.71,120.38 259.14,120.22 260.57,120.10 262.00,120.05 263.44,119.98 264.87,119.97 266.30,119.92 267.73,119.76 269.16,119.76 270.60,119.76 272.03,119.75 273.46,119.74 274.89,119.74 276.33,119.66 277.76,119.64 279.19,119.62 280.62,119.61 282.05,119.59 283.49,119.59 284.92,119.59 286.35,119.59 287.78,119.59 289.21,119.59 290.65,119.59 292.08,119.59 293.51,119.56 294.94,119.53 296.37,119.53 297.81,119.34 299.24,119.33 300.67,119.32 302.10,119.29 303.54,119.19 304.97,118.96 306.40,118.92 307.83,118.92 309.26,118.92 310.70,118.92 312.13,118.92 313.56,118.92 314.99,118.92 316.42,118.92 317.86,118.92 319.29,118.92 320.72,118.92 322.15,118.92 323.59,118.92 325.02,118.91 326.45,118.84 327.88,118.83 329.31,118.83 330.75,118.83 332.18,118.83 333.61,118.79 335.04,118.79 336.47,118.62 337.91,118.46 339.34,118.46 340.77,118.46 342.20,118.46 343.64,118.46 345.07,118.44 346.50,118.44 347.93,118.42 349.36,118.34 350.80,118.28 352.23,118.00 353.66,117.99 355.09,117.55 356.52,117.30 357.96,117.11 359.39,116.50 360.82,116.35 362.25,116.28 363.68,116.08 365.12,115.77 366.55,115.70 367.98,115.59 369.41,115.43 370.85,115.28 372.28,115.21 373.71,115.11 375.14,115.03 376.57,114.84 378.01,114.67 379.44,114.47 380.87,114.15 382.30,113.96 383.73,113.01 385.17,112.31 386.60,111.85 388.03,111.46 389.46,111.03 390.90,111.03 392.33,111.03 393.76,111.03 395.19,110.75 396.62,110.59 398.06,110.02 399.49,109.38 400.92,108.63 402.35,107.49 403.78,106.70 405.22,105.07 406.65,104.09 408.08,103.43 409.51,102.37 410.94,101.70 412.38,100.35 413.81,98.32 415.24,97.71 416.67,96.92 418.11,96.16 419.54,95.90 420.97,94.93 422.40,94.76 423.83,93.60 425.27,92.54 426.70,91.90 428.13,91.18 429.56,90.23 430.99,89.98 432.43,89.89 433.86,89.79 435.29,89.73 436.72,89.12 438.16,88.34 439.59,87.39 441.02,87.12 442.45,86.35 443.88,85.36 445.32,83.38 446.75,81.92 448.18,80.12 449.61,79.65 451.04,78.69 452.48,76.93 453.91,75.92 455.34,75.37 456.77,74.60 458.20,74.09 459.64,73.36 461.07,73.02 462.50,72.28 463.93,70.88 465.37,69.32 466.80,68.85 468.23,67.97 469.66,66.36 471.09,65.54 472.53,63.54 473.96,62.59 475.39,60.85 476.82,59.16 478.25,57.12 479.69,54.05 481.12,52.02 482.55,50.27 483.98,49.15 485.42,47.70 486.85,46.40 488.28,45.77 489.71,44.71 491.14,43.43 492.58,42.71 494.01,41.61 495.44,40.78 496.87,39.98 498.30,38.79 499.74,36.61 501.17,34.87 502.60,33.40 504.03,32.18 505.46,31.73 506.90,31.16 508.33,30.70 509.76,30.17" />
    </svg>
  