
    <svg width="540" height="160" xmlns="http://www.w3.org/2000/svg">
      <style>.line{fill:none;stroke:#388bfd;stroke-width:1.5}.axis{stroke:#555;stroke-width:1;opacity:0.5}.label{fill:#999;font-family:sans-serif;font-size:10px;text-anchor:middle}</style>
      <line class="axis" x1="30" y1="30" x2="30" y2="130" />
      <line class="axis" x1="30" y1="130" x2="510" y2="130" />
      <text class="label" x="15" y="30">5,261</text>
      <text class="label" x="15" y="134">0</text>
      <text class="label" x="30" y="148">2021</text>
      <text class="label" x="510" y="148">2026</text>
      <polyline class="line" points="30.00,129.96 31.51,129.94 33.02,129.92 34.53,129.92 36.04,129.92 37.56,129.68 39.07,129.68 40.58,129.68 42.09,128.31 43.60,126.05 45.11,125.93 46.62,125.93 48.13,125.93 49.64,125.93 51.15,125.93 52.67,125.93 54.18,125.93 55.69,125.93 57.20,125.93 58.71,125.93 60.22,125.93 61.73,125.93 63.24,125.93 64.75,125.93 66.26,125.93 67.78,125.93 69.29,125.93 70.80,124.64 72.31,124.64 73.82,124.62 75.33,124.62 76.84,124.62 78.35,124.62 79.86,124.54 81.37,124.54 82.89,124.54 84.40,124.54 85.91,124.54 87.42,124.54 88.93,124.54 90.44,124.54 91.95,124.54 93.46,124.54 94.97,124.54 96.48,124.54 98.00,124.54 99.51,124.54 101.02,124.54 102.53,124.54 104.04,124.54 105.55,124.54 107.06,124.47 108.57,123.31 110.08,122.24 111.59,121.81 113.11,119.70 114.62,119.70 116.13,119.70 117.64,119.70 119.15,119.70 120.66,119.70 122.17,119.70 123.68,119.70 125.19,119.70 126.71,119.70 128.22,119.70 129.73,119.70 131.24,119.55 132.75,119.55 134.26,119.55 135.77,119.36 137.28,119.36 138.79,119.36 140.30,119.36 141.82,119.30 143.33,119.30 144.84,119.30 146.35,119.30 147.86,119.26 149.37,119.26 150.88,119.26 152.39,119.26 153.90,119.26 155.41,119.26 156.93,119.26 158.44,119.26 159.95,119.26 161.46,119.26 162.97,119.26 164.48,119.26 165.99,119.26 167.50,119.26 169.01,119.26 170.52,119.26 172.04,119.26 173.55,119.26 175.06,119.26 176.57,119.26 178.08,119.26 179.59,119.26 181.10,119.26 182.61,119.20 184.12,119.20 185.63,119.20 187.15,119.20 188.66,119.20 190.17,119.20 191.68,119.20 193.19,119.20 194.70,119.20 196.21,119.20 197.72,119.20 199.23,119.20 200.75,119.20 202.26,119.20 203.77,119.20 205.28,119.17 206.79,118.67 208.30,118.54 209.81,118.33 211.32,118.06 212.83,117.99 214.34,117.99 215.86,117.99 217.37,117.57 218.88,117.53 220.39,117.26 221.90,117.17 223.41,117.00 224.92,116.33 226.43,116.30 227.94,116.20 229.45,116.18 230.97,116.09 232.48,116.09 233.99,116.05 235.50,116.05 237.01,116.05 238.52,116.05 240.03,116.05 241.54,116.05 243.05,116.05 244.56,115.84 246.08,115.23 247.59,114.77 249.10,114.64 250.61,114.36 252.12,114.34 253.63,114.30 255.14,114.28 256.65,114.28 258.16,114.28 259.67,114.15 261.19,114.01 262.70,113.98 264.21,113.94 265.72,113.90 267.23,113.46 268.74,113.16 270.25,112.70 271.76,112.42 273.27,112.21 274.78,112.11 276.30,112.00 277.81,111.98 279.32,111.89 280.83,111.60 282.34,111.60 283.85,111.60 285.36,111.58 286.87,111.56 288.38,111.56 289.90,111.41 291.41,111.37 292.92,111.35 294.43,111.33 295.94,111.30 297.45,111.30 298.96,111.30 300.47,111.30 301.98,111.30 303.49,111.30 305.01,111.30 306.52,111.30 308.03,111.24 309.54,111.18 311.05,111.18 312.56,110.84 314.07,110.82 315.58,110.80 317.09,110.75 318.60,110.57 320.12,110.16 321.63,110.08 323.14,110.08 324.65,110.08 326.16,110.08 327.67,110.08 329.18,110.08 330.69,110.08 332.20,110.08 333.71,110.08 335.23,110.08 336.74,110.08 338.25,110.08 339.76,110.08 341.27,110.06 342.78,109.95 344.29,109.93 345.80,109.93 347.31,109.93 348.82,109.93 350.34,109.85 351.85,109.85 353.36,109.55 354.87,109.26 356.38,109.26 357.89,109.26 359.40,109.26 360.91,109.26 362.42,109.22 363.93,109.22 365.45,109.19 366.96,109.05 368.47,108.94 369.98,108.43 371.49,108.41 373.00,107.63 374.51,107.17 376.02,106.83 377.53,105.75 379.05,105.46 380.56,105.35 382.07,104.99 383.58,104.43 385.09,104.30 386.60,104.11 388.11,103.81 389.62,103.54 391.13,103.43 392.64,103.24 394.16,103.10 395.67,102.76 397.18,102.46 398.69,102.10 400.20,101.51 401.71,101.17 403.22,99.47 404.73,98.20 406.24,97.38 407.75,96.68 409.27,95.90 410.78,95.90 412.29,95.90 413.80,95.90 415.31,95.41 416.82,95.12 418.33,94.49 419.84,93.77 421.35,92.78 422.86,91.22 424.38,90.35 425.89,88.75 427.40,87.82 428.91,87.23 430.42,86.26 431.93,85.50 433.44,84.21 434.95,82.33 436.46,81.78 437.97,80.98 439.49,80.29 441.00,80.07 442.51,79.19 444.02,79.04 445.53,77.99 447.04,77.04 448.55,76.47 450.06,75.81 451.57,74.90 453.08,74.63 454.60,74.50 456.11,74.36 457.62,74.25 459.13,73.53 460.64,72.71 462.15,71.42 463.66,71.04 465.17,70.37 466.68,69.29 468.20,66.88 469.71,65.05 471.22,63.02 472.73,62.58 474.24,61.69 475.75,59.88 477.26,58.78 478.77,58.17 480.28,57.26 481.79,56.78 483.31,56.12 484.82,55.81 486.33,54.79 487.84,53.25 489.35,51.78 490.86,51.35 492.37,50.59 493.88,49.22 495.39,48.19 496.90,46.67 498.42,45.89 499.93,44.33 501.44,42.26 502.95,40.49 504.46,36.75 505.97,34.11 507.48,32.22 508.99,30.93" />
    </svg>
  