
    <svg width="540" height="160" xmlns="http://www.w3.org/2000/svg">
      <style>.line{fill:none;stroke:#388bfd;stroke-width:1.5}.axis{stroke:#555;stroke-width:1;opacity:0.5}.label{fill:#999;font-family:sans-serif;font-size:10px;text-anchor:middle}</style>
      <line class="axis" x1="30" y1="30" x2="30" y2="130" />
      <line class="axis" x1="30" y1="130" x2="510" y2="130" />
      <text class="label" x="15" y="30">7,792</text>
      <text class="label" x="15" y="134">0</text>
      <text class="label" x="30" y="148">2021</text>
      <text class="label" x="510" y="148">2026</text>
      <polyline class="line" points="30.00,129.97 31.49,129.96 32.99,129.95 34.48,129.95 35.98,129.95 37.47,129.78 38.96,129.78 40.46,129.78 41.95,128.86 43.44,127.33 44.94,127.25 46.43,127.25 47.93,127.25 49.42,127.25 50.91,127.25 52.41,127.25 53.90,127.25 55.39,127.25 56.89,127.25 58.38,127.25 59.88,127.25 61.37,127.25 62.86,127.25 64.36,127.25 65.85,127.25 67.34,127.25 68.84,127.25 70.33,126.38 71.83,126.38 73.32,126.37 74.81,126.37 76.31,126.37 77.80,126.37 79.29,126.32 80.79,126.32 82.28,126.32 83.78,126.32 85.27,126.32 86.76,126.32 88.26,126.32 89.75,126.32 91.24,126.32 92.74,126.32 94.23,126.32 95.73,126.32 97.22,126.32 98.71,126.32 100.21,126.32 101.70,126.32 103.20,126.32 104.69,126.32 106.18,126.27 107.68,125.48 109.17,124.76 110.66,124.47 112.16,123.04 113.65,123.04 115.15,123.04 116.64,123.04 118.13,123.04 119.63,123.04 121.12,123.04 122.61,123.04 124.11,123.04 125.60,123.04 127.10,123.04 128.59,123.04 130.08,122.94 131.58,122.94 133.07,122.94 134.56,122.81 136.06,122.81 137.55,122.81 139.05,122.81 140.54,122.77 142.03,122.77 143.53,122.77 145.02,122.77 146.51,122.75 148.01,122.75 149.50,122.75 151.00,122.75 152.49,122.75 153.98,122.75 155.48,122.75 156.97,122.75 158.46,122.75 159.96,122.75 161.45,122.75 162.95,122.75 164.44,122.75 165.93,122.75 167.43,122.75 168.92,122.75 170.41,122.75 171.91,122.75 173.40,122.75 174.90,122.75 176.39,122.75 177.88,122.75 179.38,122.75 180.87,122.71 182.37,122.71 183.86,122.71 185.35,122.71 186.85,122.71 188.34,122.71 189.83,122.71 191.33,122.71 192.82,122.71 194.32,122.71 195.81,122.71 197.30,122.71 198.80,122.71 200.29,122.71 201.78,122.71 203.28,122.68 204.77,122.35 206.27,122.26 207.76,122.12 209.25,121.94 210.75,121.89 212.24,121.89 213.73,121.89 215.23,121.61 216.72,121.58 218.22,121.40 219.71,121.34 221.20,121.22 222.70,120.77 224.19,120.75 225.68,120.68 227.18,120.67 228.67,120.61 230.17,120.61 231.66,120.58 233.15,120.58 234.65,120.58 236.14,120.58 237.63,120.58 239.13,120.58 240.62,120.58 242.12,120.44 243.61,120.03 245.10,119.72 246.60,119.63 248.09,119.44 249.59,119.43 251.08,119.40 252.57,119.39 254.07,119.39 255.56,119.39 257.05,119.30 258.55,119.21 260.04,119.18 261.54,119.16 263.03,119.13 264.52,118.83 266.02,118.63 267.51,118.32 269.00,118.13 270.50,117.99 271.99,117.92 273.49,117.85 274.98,117.83 276.47,117.77 277.97,117.58 279.46,117.58 280.95,117.58 282.45,117.56 283.94,117.55 285.44,117.55 286.93,117.45 288.42,117.42 289.92,117.41 291.41,117.40 292.90,117.37 294.40,117.37 295.89,117.37 297.39,117.37 298.88,117.37 300.37,117.37 301.87,117.37 303.36,117.37 304.85,117.33 306.35,117.29 307.84,117.29 309.34,117.06 310.83,117.05 312.32,117.04 313.82,117.00 315.31,116.88 316.80,116.60 318.30,116.55 319.79,116.55 321.29,116.55 322.78,116.55 324.27,116.55 325.77,116.55 327.26,116.55 328.76,116.55 330.25,116.55 331.74,116.55 333.24,116.55 334.73,116.55 336.22,116.55 337.72,116.54 339.21,116.46 340.71,116.45 342.20,116.45 343.69,116.45 345.19,116.45 346.68,116.40 348.17,116.40 349.67,116.19 351.16,116.00 352.66,116.00 354.15,116.00 355.64,116.00 357.14,116.00 358.63,115.97 360.12,115.97 361.62,115.95 363.11,115.86 364.61,115.78 366.10,115.43 367.59,115.42 369.09,114.89 370.58,114.59 372.07,114.36 373.57,113.62 375.06,113.43 376.56,113.35 378.05,113.11 379.54,112.74 381.04,112.65 382.53,112.52 384.02,112.32 385.52,112.14 387.01,112.06 388.51,111.93 390.00,111.84 391.49,111.61 392.99,111.40 394.48,111.16 395.98,110.76 397.47,110.53 398.96,109.39 400.46,108.53 401.95,107.98 403.44,107.50 404.94,106.98 406.43,106.98 407.93,106.98 409.42,106.98 410.91,106.64 412.41,106.45 413.90,105.76 415.39,104.97 416.89,104.06 418.38,102.69 419.88,101.73 421.37,99.75 422.86,98.56 424.36,97.76 425.85,96.48 427.34,95.66 428.84,94.03 430.33,91.56 431.83,90.82 433.32,89.86 434.81,88.93 436.31,88.62 437.80,87.44 439.29,87.24 440.79,85.83 442.28,84.54 443.78,83.77 445.27,82.90 446.76,81.75 448.26,81.44 449.75,81.33 451.24,81.21 452.74,81.13 454.23,80.40 455.73,79.45 457.22,78.29 458.71,77.97 460.21,77.04 461.70,75.83 463.20,73.43 464.69,71.66 466.18,69.48 467.68,68.90 469.17,67.74 470.66,65.60 472.16,64.38 473.65,63.71 475.15,62.78 476.64,62.16 478.13,61.28 479.63,60.86 481.12,59.97 482.61,58.26 484.11,56.37 485.60,55.80 487.10,54.82 488.59,53.25 490.08,52.33 491.58,50.46 493.07,49.47 494.56,47.54 496.06,45.59 497.55,43.54 499.05,40.06 500.54,37.94 502.03,35.92 503.53,34.79 505.02,33.12 506.51,31.69 508.01,31.21 509.50,30.42" />
    </svg>
  