
    <svg width="540" height="160" xmlns="http://www.w3.org/2000/svg">
      <style>.line{fill:none;stroke:#388bfd;stroke-width:1.5}.axis{stroke:#555;stroke-width:1;opacity:0.5}.label{fill:#999;font-family:sans-serif;font-size:10px;text-anchor:middle}</style>
      <line class="axis" x1="30" y1="30" x2="30" y2="130" />
      <line class="axis" x1="30" y1="130" x2="510" y2="130" />
      <text class="label" x="15" y="30">8,039</text>
      <text class="label" x="15" y="134">0</text>
      <text class="label" x="30" y="148">2021</text>
      <text class="label" x="510" y="148">2026</text>
      <polyline class="line" points="30.00,129.98 31.48,129.96 32.96,129.95 34.45,129.95 35.93,129.95 37.41,129.79 38.89,129.79 40.38,129.79 41.86,128.89 43.34,127.41 44.82,127.34 46.30,127.34 47.79,127.34 49.27,127.34 50.75,127.34 52.23,127.34 53.72,127.34 55.20,127.34 56.68,127.34 58.16,127.34 59.64,127.34 61.13,127.34 62.61,127.34 64.09,127.34 65.57,127.34 67.06,127.34 68.54,127.34 70.02,126.49 71.50,126.49 72.99,126.48 74.47,126.48 75.95,126.48 77.43,126.48 78.91,126.43 80.40,126.43 81.88,126.43 83.36,126.43 84.84,126.43 86.33,126.43 87.81,126.43 89.29,126.43 90.77,126.43 92.25,126.43 93.74,126.43 95.22,126.43 96.70,126.43 98.18,126.43 99.67,126.43 101.15,126.43 102.63,126.43 104.11,126.43 105.59,126.38 107.08,125.62 108.56,124.92 110.04,124.64 111.52,123.26 113.01,123.26 114.49,123.26 115.97,123.26 117.45,123.26 118.93,123.26 120.42,123.26 121.90,123.26 123.38,123.26 124.86,123.26 126.35,123.26 127.83,123.26 129.31,123.16 130.79,123.16 132.27,123.16 133.76,123.03 135.24,123.03 136.72,123.03 138.20,123.03 139.69,123.00 141.17,123.00 142.65,123.00 144.13,123.00 145.62,122.97 147.10,122.97 148.58,122.97 150.06,122.97 151.54,122.97 153.03,122.97 154.51,122.97 155.99,122.97 157.47,122.97 158.96,122.97 160.44,122.97 161.92,122.97 163.40,122.97 164.88,122.97 166.37,122.97 167.85,122.97 169.33,122.97 170.81,122.97 172.30,122.97 173.78,122.97 175.26,122.97 176.74,122.97 178.22,122.97 179.71,122.93 181.19,122.93 182.67,122.93 184.15,122.93 185.64,122.93 187.12,122.93 188.60,122.93 190.08,122.93 191.56,122.93 193.05,122.93 194.53,122.93 196.01,122.93 197.49,122.93 198.98,122.93 200.46,122.93 201.94,122.91 203.42,122.59 204.90,122.50 206.39,122.36 207.87,122.19 209.35,122.14 210.83,122.14 212.32,122.14 213.80,121.86 215.28,121.84 216.76,121.67 218.24,121.60 219.73,121.49 221.21,121.06 222.69,121.03 224.17,120.97 225.66,120.96 227.14,120.89 228.62,120.89 230.10,120.87 231.59,120.87 233.07,120.87 234.55,120.87 236.03,120.87 237.51,120.87 239.00,120.87 240.48,120.73 241.96,120.33 243.44,120.04 244.93,119.95 246.41,119.76 247.89,119.75 249.37,119.73 250.85,119.71 252.34,119.71 253.82,119.71 255.30,119.63 256.78,119.54 258.27,119.51 259.75,119.49 261.23,119.46 262.71,119.18 264.19,118.98 265.68,118.68 267.16,118.49 268.64,118.36 270.12,118.29 271.61,118.22 273.09,118.21 274.57,118.15 276.05,117.96 277.53,117.96 279.02,117.96 280.50,117.95 281.98,117.93 283.46,117.93 284.95,117.83 286.43,117.81 287.91,117.80 289.39,117.78 290.87,117.76 292.36,117.76 293.84,117.76 295.32,117.76 296.80,117.76 298.29,117.76 299.77,117.76 301.25,117.76 302.73,117.72 304.22,117.69 305.70,117.69 307.18,117.46 308.66,117.45 310.14,117.44 311.63,117.40 313.11,117.29 314.59,117.01 316.07,116.96 317.56,116.96 319.04,116.96 320.52,116.96 322.00,116.96 323.48,116.96 324.97,116.96 326.45,116.96 327.93,116.96 329.41,116.96 330.90,116.96 332.38,116.96 333.86,116.96 335.34,116.95 336.82,116.88 338.31,116.86 339.79,116.86 341.27,116.86 342.75,116.86 344.24,116.81 345.72,116.81 347.20,116.62 348.68,116.43 350.16,116.43 351.65,116.43 353.13,116.43 354.61,116.43 356.09,116.40 357.58,116.40 359.06,116.38 360.54,116.29 362.02,116.22 363.50,115.88 364.99,115.87 366.47,115.36 367.95,115.06 369.43,114.84 370.92,114.13 372.40,113.94 373.88,113.87 375.36,113.63 376.85,113.27 378.33,113.18 379.81,113.06 381.29,112.86 382.77,112.68 384.26,112.61 385.74,112.49 387.22,112.40 388.70,112.17 390.19,111.98 391.67,111.74 393.15,111.35 394.63,111.13 396.11,110.02 397.60,109.19 399.08,108.65 400.56,108.19 402.04,107.68 403.53,107.68 405.01,107.68 406.49,107.68 407.97,107.36 409.45,107.17 410.94,106.50 412.42,105.74 413.90,104.86 415.38,103.53 416.87,102.60 418.35,100.68 419.83,99.52 421.31,98.75 422.79,97.51 424.28,96.71 425.76,95.13 427.24,92.74 428.72,92.02 430.21,91.09 431.69,90.19 433.17,89.90 434.65,88.75 436.13,88.55 437.62,87.18 439.10,85.94 440.58,85.19 442.06,84.35 443.55,83.23 445.03,82.93 446.51,82.83 447.99,82.71 449.48,82.63 450.96,81.92 452.44,81.00 453.92,79.88 455.40,79.57 456.89,78.66 458.37,77.49 459.85,75.17 461.33,73.45 462.82,71.34 464.30,70.78 465.78,69.66 467.26,67.58 468.74,66.40 470.23,65.75 471.71,64.84 473.19,64.25 474.67,63.39 476.16,62.99 477.64,62.12 479.12,60.46 480.60,58.64 482.08,58.08 483.57,57.13 485.05,55.61 486.53,54.72 488.01,52.90 489.50,51.94 490.98,50.08 492.46,48.19 493.94,46.20 495.42,42.82 496.91,40.55 498.39,38.58 499.87,37.31 501.35,35.70 502.84,34.25 504.32,33.57 505.80,32.35 507.28,30.90 508.76,30.57" />
    </svg>
  