
    <svg width="540" height="160" xmlns="http://www.w3.org/2000/svg">
      <style>.line{fill:none;stroke:#388bfd;stroke-width:1.5}.axis{stroke:#555;stroke-width:1;opacity:0.5}.label{fill:#999;font-family:sans-serif;font-size:10px;text-anchor:middle}</style>
      <line class="axis" x1="30" y1="30" x2="30" y2="130" />
      <line class="axis" x1="30" y1="130" x2="510" y2="130" />
      <text class="label" x="15" y="30">5,018</text>
      <text class="label" x="15" y="134">0</text>
      <text class="label" x="30" y="148">2021</text>
      <text class="label" x="510" y="148">2026</text>
      <polyline class="line" points="30.00,129.96 31.52,129.94 33.05,129.92 34.57,129.92 36.10,129.92 37.62,129.66 39.15,129.66 40.67,129.66 42.20,128.23 43.72,125.85 45.25,125.74 46.77,125.74 48.30,125.74 49.82,125.74 51.34,125.74 52.87,125.74 54.39,125.74 55.92,125.74 57.44,125.74 58.97,125.74 60.49,125.74 62.02,125.74 63.54,125.74 65.07,125.74 66.59,125.74 68.12,125.74 69.64,125.74 71.16,124.38 72.69,124.38 74.21,124.36 75.74,124.36 77.26,124.36 78.79,124.36 80.31,124.28 81.84,124.28 83.36,124.28 84.89,124.28 86.41,124.28 87.94,124.28 89.46,124.28 90.98,124.28 92.51,124.28 94.03,124.28 95.56,124.28 97.08,124.28 98.61,124.28 100.13,124.28 101.66,124.28 103.18,124.28 104.71,124.28 106.23,124.28 107.76,124.20 109.28,122.99 110.80,121.87 112.33,121.41 113.85,119.20 115.38,119.20 116.90,119.20 118.43,119.20 119.95,119.20 121.48,119.20 123.00,119.20 124.53,119.20 126.05,119.20 127.58,119.20 129.10,119.20 130.62,119.20 132.15,119.04 133.67,119.04 135.20,119.04 136.72,118.84 138.25,118.84 139.77,118.84 141.30,118.84 142.82,118.78 144.35,118.78 145.87,118.78 147.40,118.78 148.92,118.74 150.44,118.74 151.97,118.74 153.49,118.74 155.02,118.74 156.54,118.74 158.07,118.74 159.59,118.74 161.12,118.74 162.64,118.74 164.17,118.74 165.69,118.74 167.22,118.74 168.74,118.74 170.26,118.74 171.79,118.74 173.31,118.74 174.84,118.74 176.36,118.74 177.89,118.74 179.41,118.74 180.94,118.74 182.46,118.74 183.99,118.68 185.51,118.68 187.04,118.68 188.56,118.68 190.08,118.68 191.61,118.68 193.13,118.68 194.66,118.68 196.18,118.68 197.71,118.68 199.23,118.68 200.76,118.68 202.28,118.68 203.81,118.68 205.33,118.68 206.86,118.64 208.38,118.12 209.90,117.98 211.43,117.76 212.95,117.49 214.48,117.41 216.00,117.41 217.53,117.41 219.05,116.97 220.58,116.93 222.10,116.65 223.63,116.55 225.15,116.37 226.68,115.67 228.20,115.63 229.72,115.53 231.25,115.51 232.77,115.41 234.30,115.41 235.82,115.37 237.35,115.37 238.87,115.37 240.40,115.37 241.92,115.37 243.45,115.37 244.97,115.37 246.50,115.15 248.02,114.52 249.54,114.04 251.07,113.90 252.59,113.60 254.12,113.58 255.64,113.54 257.17,113.52 258.69,113.52 260.22,113.52 261.74,113.38 263.27,113.24 264.79,113.20 266.32,113.16 267.84,113.12 269.36,112.66 270.89,112.34 272.41,111.87 273.94,111.57 275.46,111.35 276.99,111.25 278.51,111.13 280.04,111.11 281.56,111.01 283.09,110.71 284.61,110.71 286.14,110.71 287.66,110.69 289.18,110.67 290.71,110.67 292.23,110.51 293.76,110.47 295.28,110.45 296.81,110.43 298.33,110.39 299.86,110.39 301.38,110.39 302.91,110.39 304.43,110.39 305.96,110.39 307.48,110.39 309.00,110.39 310.53,110.33 312.05,110.27 313.58,110.27 315.10,109.91 316.63,109.89 318.15,109.87 319.68,109.81 321.20,109.63 322.73,109.19 324.25,109.12 325.78,109.12 327.30,109.12 328.82,109.12 330.35,109.12 331.87,109.12 333.40,109.12 334.92,109.12 336.45,109.12 337.97,109.12 339.50,109.12 341.02,109.12 342.55,109.12 344.07,109.10 345.60,108.98 347.12,108.96 348.64,108.96 350.17,108.96 351.69,108.96 353.22,108.88 354.74,108.88 356.27,108.56 357.79,108.26 359.32,108.26 360.84,108.26 362.37,108.26 363.89,108.26 365.42,108.22 366.94,108.22 368.46,108.18 369.99,108.04 371.51,107.92 373.04,107.38 374.56,107.36 376.09,106.54 377.61,106.07 379.14,105.71 380.66,104.57 382.19,104.27 383.71,104.15 385.24,103.77 386.76,103.20 388.28,103.06 389.81,102.86 391.33,102.54 392.86,102.26 394.38,102.14 395.91,101.94 397.43,101.80 398.96,101.44 400.48,101.12 402.01,100.75 403.53,100.13 405.06,99.77 406.58,98.00 408.10,96.66 409.63,95.80 411.15,95.07 412.68,94.25 414.20,94.25 415.73,94.25 417.25,94.25 418.78,93.73 420.30,93.43 421.83,92.77 423.35,92.02 424.88,90.98 426.40,89.35 427.92,88.43 429.45,86.76 430.97,85.78 432.50,85.16 434.02,84.15 435.55,83.35 437.07,81.99 438.60,80.02 440.12,79.44 441.65,78.61 443.17,77.89 444.70,77.65 446.22,76.73 447.74,76.57 449.27,75.48 450.79,74.48 452.32,73.88 453.84,73.18 455.37,72.23 456.89,71.95 458.42,71.81 459.94,71.67 461.47,71.55 462.99,70.79 464.52,69.94 466.04,68.58 467.56,68.18 469.09,67.49 470.61,66.35 472.14,63.82 473.66,61.91 475.19,59.77 476.71,59.31 478.24,58.38 479.76,56.48 481.29,55.33 482.81,54.69 484.34,53.73 485.86,53.24 487.38,52.54 488.91,52.22 490.43,51.14 491.96,49.53 493.48,48.00 495.01,47.54 496.53,46.74 498.06,45.30 499.58,44.23 501.11,42.63 502.63,41.82 504.16,40.18 505.68,38.01 507.20,36.16 508.73,32.23" />
    </svg>
  