
    <svg width="540" height="160" xmlns="http://www.w3.org/2000/svg">
      <style>.line{fill:none;stroke:#388bfd;stroke-width:1.5}.axis{stroke:#555;stroke-width:1;opacity:0.5}.label{fill:#999;font-family:sans-serif;font-size:10px;text-anchor:middle}</style>
      <line class="axis" x1="30" y1="30" x2="30" y2="130" />
      <line class="axis" x1="30" y1="130" x2="510" y2="130" />
      <text class="label" x="15" y="30">7,349</text>
      <text class="label" x="15" y="134">0</text>
      <text class="label" x="30" y="148">2021</text>
      <text class="label" x="510" y="148">2026</text>
      <polyline class="line" points="30.00,129.97 31.51,129.96 33.02,129.95 34.53,129.95 36.04,129.95 37.55,129.77 39.06,129.77 40.57,129.77 42.08,128.79 43.58,127.17 45.09,127.09 46.60,127.09 48.11,127.09 49.62,127.09 51.13,127.09 52.64,127.09 54.15,127.09 55.66,127.09 57.17,127.09 58.68,127.09 60.19,127.09 61.70,127.09 63.21,127.09 64.72,127.09 66.23,127.09 67.74,127.09 69.25,127.09 70.75,126.16 72.26,126.16 73.77,126.15 75.28,126.15 76.79,126.15 78.30,126.15 79.81,126.09 81.32,126.09 82.83,126.09 84.34,126.09 85.85,126.09 87.36,126.09 88.87,126.09 90.38,126.09 91.89,126.09 93.40,126.09 94.91,126.09 96.42,126.09 97.92,126.09 99.43,126.09 100.94,126.09 102.45,126.09 103.96,126.09 105.47,126.09 106.98,126.04 108.49,125.21 110.00,124.45 111.51,124.14 113.02,122.62 114.53,122.62 116.04,122.62 117.55,122.62 119.06,122.62 120.57,122.62 122.08,122.62 123.58,122.62 125.09,122.62 126.60,122.62 128.11,122.62 129.62,122.62 131.13,122.52 132.64,122.52 134.15,122.52 135.66,122.38 137.17,122.38 138.68,122.38 140.19,122.38 141.70,122.34 143.21,122.34 144.72,122.34 146.23,122.34 147.74,122.31 149.25,122.31 150.75,122.31 152.26,122.31 153.77,122.31 155.28,122.31 156.79,122.31 158.30,122.31 159.81,122.31 161.32,122.31 162.83,122.31 164.34,122.31 165.85,122.31 167.36,122.31 168.87,122.31 170.38,122.31 171.89,122.31 173.40,122.31 174.91,122.31 176.42,122.31 177.92,122.31 179.43,122.31 180.94,122.31 182.45,122.27 183.96,122.27 185.47,122.27 186.98,122.27 188.49,122.27 190.00,122.27 191.51,122.27 193.02,122.27 194.53,122.27 196.04,122.27 197.55,122.27 199.06,122.27 200.57,122.27 202.08,122.27 203.58,122.27 205.09,122.24 206.60,121.89 208.11,121.79 209.62,121.65 211.13,121.45 212.64,121.40 214.15,121.40 215.66,121.40 217.17,121.10 218.68,121.07 220.19,120.88 221.70,120.82 223.21,120.69 224.72,120.22 226.23,120.19 227.74,120.12 229.25,120.11 230.75,120.04 232.26,120.04 233.77,120.01 235.28,120.01 236.79,120.01 238.30,120.01 239.81,120.01 241.32,120.01 242.83,120.01 244.34,119.86 245.85,119.43 247.36,119.10 248.87,119.01 250.38,118.80 251.89,118.79 253.40,118.76 254.91,118.75 256.42,118.75 257.92,118.75 259.43,118.65 260.94,118.56 262.45,118.53 263.96,118.50 265.47,118.47 266.98,118.16 268.49,117.94 270.00,117.62 271.51,117.41 273.02,117.26 274.53,117.20 276.04,117.11 277.55,117.10 279.06,117.03 280.57,116.83 282.08,116.83 283.58,116.83 285.09,116.81 286.60,116.80 288.11,116.80 289.62,116.69 291.13,116.66 292.64,116.65 294.15,116.64 295.66,116.61 297.17,116.61 298.68,116.61 300.19,116.61 301.70,116.61 303.21,116.61 304.72,116.61 306.23,116.61 307.74,116.57 309.25,116.53 310.75,116.53 312.26,116.28 313.77,116.27 315.28,116.26 316.79,116.22 318.30,116.09 319.81,115.79 321.32,115.74 322.83,115.74 324.34,115.74 325.85,115.74 327.36,115.74 328.87,115.74 330.38,115.74 331.89,115.74 333.40,115.74 334.91,115.74 336.42,115.74 337.92,115.74 339.43,115.74 340.94,115.73 342.45,115.64 343.96,115.63 345.47,115.63 346.98,115.63 348.49,115.63 350.00,115.58 351.51,115.58 353.02,115.36 354.53,115.15 356.04,115.15 357.55,115.15 359.06,115.15 360.57,115.15 362.08,115.13 363.58,115.13 365.09,115.10 366.60,115.00 368.11,114.92 369.62,114.56 371.13,114.54 372.64,113.98 374.15,113.66 375.66,113.41 377.17,112.64 378.68,112.43 380.19,112.35 381.70,112.09 383.21,111.70 384.72,111.60 386.23,111.47 387.74,111.25 389.25,111.06 390.75,110.98 392.26,110.84 393.77,110.75 395.28,110.50 396.79,110.28 398.30,110.02 399.81,109.60 401.32,109.36 402.83,108.15 404.34,107.23 405.85,106.65 407.36,106.15 408.87,105.59 410.38,105.59 411.89,105.59 413.40,105.59 414.91,105.23 416.42,105.03 417.92,104.30 419.43,103.47 420.94,102.50 422.45,101.04 423.96,100.02 425.47,97.93 426.98,96.66 428.49,95.82 430.00,94.46 431.51,93.59 433.02,91.86 434.53,89.25 436.04,88.46 437.55,87.44 439.06,86.46 440.57,86.13 442.08,84.88 443.58,84.66 445.09,83.16 446.60,81.80 448.11,80.99 449.62,80.06 451.13,78.84 452.64,78.51 454.15,78.40 455.66,78.27 457.17,78.18 458.68,77.41 460.19,76.40 461.70,75.18 463.21,74.84 464.72,73.84 466.23,72.56 467.74,70.02 469.25,68.14 470.75,65.83 472.26,65.22 473.77,63.99 475.28,61.72 476.79,60.43 478.30,59.72 479.81,58.72 481.32,58.07 482.83,57.13 484.34,56.70 485.85,55.74 487.36,53.94 488.87,51.93 490.38,51.32 491.89,50.38 493.40,49.13 494.91,48.23 496.42,46.83 497.92,45.96 499.43,44.11 500.94,42.15 502.45,40.42 503.96,36.99 505.47,34.87 506.98,32.82 508.49,31.67 510.00,30.00" />
    </svg>
  