
    <svg width="540" height="160" xmlns="http://www.w3.org/2000/svg">
      <style>.line{fill:none;stroke:#388bfd;stroke-width:1.5}.axis{stroke:#555;stroke-width:1;opacity:0.5}.label{fill:#999;font-family:sans-serif;font-size:10px;text-anchor:middle}</style>
      <line class="axis" x1="30" y1="30" x2="30" y2="130" />
      <line class="axis" x1="30" y1="130" x2="510" y2="130" />
      <text class="label" x="15" y="30">7,452</text>
      <text class="label" x="15" y="134">0</text>
      <text class="label" x="30" y="148">2021</text>
      <text class="label" x="510" y="148">2026</text>
      <polyline class="line" points="30.00,129.97 31.50,129.96 33.00,129.95 34.50,129.95 36.01,129.95 37.51,129.77 39.01,129.77 40.51,129.77 42.01,128.81 43.51,127.21 45.02,127.13 46.52,127.13 48.02,127.13 49.52,127.13 51.02,127.13 52.52,127.13 54.03,127.13 55.53,127.13 57.03,127.13 58.53,127.13 60.03,127.13 61.53,127.13 63.03,127.13 64.54,127.13 66.04,127.13 67.54,127.13 69.04,127.13 70.54,126.22 72.04,126.22 73.55,126.20 75.05,126.20 76.55,126.20 78.05,126.20 79.55,126.15 81.05,126.15 82.55,126.15 84.06,126.15 85.56,126.15 87.06,126.15 88.56,126.15 90.06,126.15 91.56,126.15 93.07,126.15 94.57,126.15 96.07,126.15 97.57,126.15 99.07,126.15 100.57,126.15 102.08,126.15 103.58,126.15 105.08,126.15 106.58,126.10 108.08,125.28 109.58,124.52 111.08,124.22 112.59,122.73 114.09,122.73 115.59,122.73 117.09,122.73 118.59,122.73 120.09,122.73 121.60,122.73 123.10,122.73 124.60,122.73 126.10,122.73 127.60,122.73 129.10,122.73 130.60,122.62 132.11,122.62 133.61,122.62 135.11,122.49 136.61,122.49 138.11,122.49 139.61,122.49 141.12,122.44 142.62,122.44 144.12,122.44 145.62,122.44 147.12,122.42 148.62,122.42 150.13,122.42 151.63,122.42 153.13,122.42 154.63,122.42 156.13,122.42 157.63,122.42 159.13,122.42 160.64,122.42 162.14,122.42 163.64,122.42 165.14,122.42 166.64,122.42 168.14,122.42 169.65,122.42 171.15,122.42 172.65,122.42 174.15,122.42 175.65,122.42 177.15,122.42 178.65,122.42 180.16,122.42 181.66,122.38 183.16,122.38 184.66,122.38 186.16,122.38 187.66,122.38 189.17,122.38 190.67,122.38 192.17,122.38 193.67,122.38 195.17,122.38 196.67,122.38 198.18,122.38 199.68,122.38 201.18,122.38 202.68,122.38 204.18,122.35 205.68,122.00 207.18,121.91 208.69,121.76 210.19,121.57 211.69,121.52 213.19,121.52 214.69,121.52 216.19,121.22 217.70,121.20 219.20,121.01 220.70,120.94 222.20,120.82 223.70,120.35 225.20,120.32 226.70,120.26 228.21,120.24 229.71,120.18 231.21,120.18 232.71,120.15 234.21,120.15 235.71,120.15 237.22,120.15 238.72,120.15 240.22,120.15 241.72,120.15 243.22,120.00 244.72,119.57 246.23,119.25 247.73,119.16 249.23,118.96 250.73,118.94 252.23,118.92 253.73,118.90 255.23,118.90 256.74,118.90 258.24,118.81 259.74,118.71 261.24,118.69 262.74,118.66 264.24,118.63 265.75,118.33 267.25,118.11 268.75,117.79 270.25,117.59 271.75,117.44 273.25,117.37 274.75,117.29 276.26,117.28 277.76,117.21 279.26,117.01 280.76,117.01 282.26,117.01 283.76,117.00 285.27,116.98 286.77,116.98 288.27,116.88 289.77,116.85 291.27,116.84 292.77,116.82 294.28,116.80 295.78,116.80 297.28,116.80 298.78,116.80 300.28,116.80 301.78,116.80 303.28,116.80 304.79,116.80 306.29,116.76 307.79,116.71 309.29,116.71 310.79,116.47 312.29,116.46 313.80,116.45 315.30,116.41 316.80,116.29 318.30,115.99 319.80,115.94 321.30,115.94 322.81,115.94 324.31,115.94 325.81,115.94 327.31,115.94 328.81,115.94 330.31,115.94 331.81,115.94 333.32,115.94 334.82,115.94 336.32,115.94 337.82,115.94 339.32,115.92 340.82,115.84 342.33,115.83 343.83,115.83 345.33,115.83 346.83,115.83 348.33,115.78 349.83,115.78 351.33,115.56 352.84,115.36 354.34,115.36 355.84,115.36 357.34,115.36 358.84,115.36 360.34,115.33 361.85,115.33 363.35,115.31 364.85,115.21 366.35,115.13 367.85,114.77 369.35,114.76 370.86,114.21 372.36,113.88 373.86,113.64 375.36,112.88 376.86,112.68 378.36,112.60 379.86,112.34 381.37,111.95 382.87,111.86 384.37,111.72 385.87,111.51 387.37,111.32 388.87,111.24 390.38,111.11 391.88,111.01 393.38,110.77 394.88,110.56 396.38,110.30 397.88,109.88 399.38,109.64 400.89,108.45 402.39,107.55 403.89,106.97 405.39,106.48 406.89,105.93 408.39,105.93 409.90,105.93 411.40,105.93 412.90,105.58 414.40,105.38 415.90,104.65 417.40,103.83 418.91,102.88 420.41,101.44 421.91,100.44 423.41,98.37 424.91,97.12 426.41,96.29 427.91,94.95 429.42,94.09 430.92,92.39 432.42,89.81 433.92,89.03 435.42,88.02 436.92,87.06 438.43,86.74 439.93,85.50 441.43,85.29 442.93,83.81 444.43,82.47 445.93,81.66 447.43,80.75 448.94,79.54 450.44,79.22 451.94,79.11 453.44,78.98 454.94,78.90 456.44,78.13 457.95,77.14 459.45,75.93 460.95,75.60 462.45,74.62 463.95,73.36 465.45,70.85 466.96,69.00 468.46,66.71 469.96,66.11 471.46,64.90 472.96,62.66 474.46,61.39 475.96,60.69 477.47,59.71 478.97,59.07 480.47,58.14 481.97,57.71 483.47,56.77 484.97,54.99 486.48,53.01 487.98,52.41 489.48,51.48 490.98,50.25 492.48,49.36 493.98,47.98 495.48,47.12 496.99,45.30 498.49,43.37 499.99,41.66 501.49,38.28 502.99,36.19 504.49,34.16 506.00,33.03 507.50,31.38 509.00,30.03" />
    </svg>
  