
    <svg width="540" height="160" xmlns="http://www.w3.org/2000/svg">
      <style>.line{fill:none;stroke:#388bfd;stroke-width:1.5}.axis{stroke:#555;stroke-width:1;opacity:0.5}.label{fill:#999;font-family:sans-serif;font-size:10px;text-anchor:middle}</style>
      <line class="axis" x1="30" y1="30" x2="30" y2="130" />
      <line class="axis" x1="30" y1="130" x2="510" y2="130" />
      <text class="label" x="15" y="30">9,362</text>
      <text class="label" x="15" y="134">0</text>
      <text class="label" x="30" y="148">2021</text>
      <text class="label" x="510" y="148">2026</text>
      <polyline class="line" points="30.00,129.98 31.44,129.97 32.88,129.96 34.32,129.96 35.76,129.96 37.20,129.82 38.64,129.82 40.07,129.82 41.51,129.05 42.95,127.78 44.39,127.71 45.83,127.71 47.27,127.71 48.71,127.71 50.15,127.71 51.59,127.71 53.03,127.71 54.47,127.71 55.91,127.71 57.35,127.71 58.79,127.71 60.22,127.71 61.66,127.71 63.10,127.71 64.54,127.71 65.98,127.71 67.42,127.71 68.86,126.99 70.30,126.99 71.74,126.98 73.18,126.98 74.62,126.98 76.06,126.98 77.50,126.93 78.94,126.93 80.37,126.93 81.81,126.93 83.25,126.93 84.69,126.93 86.13,126.93 87.57,126.93 89.01,126.93 90.45,126.93 91.89,126.93 93.33,126.93 94.77,126.93 96.21,126.93 97.65,126.93 99.09,126.93 100.52,126.93 101.96,126.93 103.40,126.89 104.84,126.24 106.28,125.64 107.72,125.40 109.16,124.21 110.60,124.21 112.04,124.21 113.48,124.21 114.92,124.21 116.36,124.21 117.80,124.21 119.24,124.21 120.67,124.21 122.11,124.21 123.55,124.21 124.99,124.21 126.43,124.13 127.87,124.13 129.31,124.13 130.75,124.02 132.19,124.02 133.63,124.02 135.07,124.02 136.51,123.99 137.95,123.99 139.39,123.99 140.82,123.99 142.26,123.96 143.70,123.96 145.14,123.96 146.58,123.96 148.02,123.96 149.46,123.96 150.90,123.96 152.34,123.96 153.78,123.96 155.22,123.96 156.66,123.96 158.10,123.96 159.54,123.96 160.97,123.96 162.41,123.96 163.85,123.96 165.29,123.96 166.73,123.96 168.17,123.96 169.61,123.96 171.05,123.96 172.49,123.96 173.93,123.96 175.37,123.93 176.81,123.93 178.25,123.93 179.69,123.93 181.12,123.93 182.56,123.93 184.00,123.93 185.44,123.93 186.88,123.93 188.32,123.93 189.76,123.93 191.20,123.93 192.64,123.93 194.08,123.93 195.52,123.93 196.96,123.91 198.40,123.63 199.84,123.56 201.27,123.44 202.71,123.29 204.15,123.25 205.59,123.25 207.03,123.25 208.47,123.01 209.91,122.99 211.35,122.84 212.79,122.79 214.23,122.69 215.67,122.32 217.11,122.30 218.55,122.25 219.99,122.23 221.42,122.18 222.86,122.18 224.30,122.16 225.74,122.16 227.18,122.16 228.62,122.16 230.06,122.16 231.50,122.16 232.94,122.16 234.38,122.04 235.82,121.70 237.26,121.44 238.70,121.37 240.13,121.21 241.57,121.20 243.01,121.18 244.45,121.17 245.89,121.17 247.33,121.17 248.77,121.09 250.21,121.02 251.65,121.00 253.09,120.97 254.53,120.95 255.97,120.71 257.41,120.54 258.85,120.28 260.28,120.12 261.72,120.00 263.16,119.95 264.60,119.88 266.04,119.87 267.48,119.82 268.92,119.66 270.36,119.66 271.80,119.66 273.24,119.65 274.68,119.64 276.12,119.64 277.56,119.55 279.00,119.53 280.43,119.52 281.87,119.51 283.31,119.49 284.75,119.49 286.19,119.49 287.63,119.49 289.07,119.49 290.51,119.49 291.95,119.49 293.39,119.49 294.83,119.46 296.27,119.43 297.71,119.43 299.15,119.23 300.58,119.22 302.02,119.21 303.46,119.18 304.90,119.08 306.34,118.85 307.78,118.81 309.22,118.81 310.66,118.81 312.10,118.81 313.54,118.81 314.98,118.81 316.42,118.81 317.86,118.81 319.30,118.81 320.73,118.81 322.17,118.81 323.61,118.81 325.05,118.81 326.49,118.80 327.93,118.73 329.37,118.72 330.81,118.72 332.25,118.72 333.69,118.72 335.13,118.68 336.57,118.68 338.01,118.51 339.45,118.35 340.88,118.35 342.32,118.35 343.76,118.35 345.20,118.35 346.64,118.33 348.08,118.33 349.52,118.30 350.96,118.23 352.40,118.16 353.84,117.88 355.28,117.87 356.72,117.43 358.16,117.17 359.60,116.98 361.03,116.37 362.47,116.21 363.91,116.15 365.35,115.94 366.79,115.63 368.23,115.56 369.67,115.45 371.11,115.28 372.55,115.13 373.99,115.07 375.43,114.96 376.87,114.89 378.31,114.69 379.75,114.52 381.18,114.32 382.62,113.99 384.06,113.80 385.50,112.85 386.94,112.13 388.38,111.67 389.82,111.28 391.26,110.84 392.70,110.84 394.14,110.84 395.58,110.84 397.02,110.56 398.46,110.40 399.90,109.82 401.33,109.17 402.77,108.41 404.21,107.27 405.65,106.47 407.09,104.82 408.53,103.83 409.97,103.17 411.41,102.10 412.85,101.42 414.29,100.06 415.73,98.01 417.17,97.39 418.61,96.59 420.04,95.82 421.48,95.56 422.92,94.58 424.36,94.41 425.80,93.23 427.24,92.17 428.68,91.53 430.12,90.80 431.56,89.84 433.00,89.58 434.44,89.50 435.88,89.39 437.32,89.32 438.76,88.72 440.19,87.93 441.63,86.96 443.07,86.70 444.51,85.92 445.95,84.91 447.39,82.92 448.83,81.44 450.27,79.63 451.71,79.15 453.15,78.18 454.59,76.40 456.03,75.39 457.47,74.83 458.91,74.05 460.34,73.54 461.78,72.80 463.22,72.46 464.66,71.71 466.10,70.29 467.54,68.72 468.98,68.24 470.42,67.35 471.86,65.73 473.30,64.90 474.74,62.88 476.18,61.92 477.62,60.16 479.06,58.46 480.49,56.39 481.93,53.30 483.37,51.25 484.81,49.48 486.25,48.35 487.69,46.89 489.13,45.57 490.57,44.93 492.01,43.86 493.45,42.57 494.89,41.85 496.33,40.73 497.77,39.89 499.21,39.09 500.64,37.88 502.08,35.68 503.52,33.92 504.96,32.44 506.40,31.21 507.84,30.76 509.28,30.18" />
    </svg>
  