
    <svg width="540" height="160" xmlns="http://www.w3.org/2000/svg">
      <style>.line{fill:none;stroke:#388bfd;stroke-width:1.5}.axis{stroke:#555;stroke-width:1;opacity:0.5}.label{fill:#999;font-family:sans-serif;font-size:10px;text-anchor:middle}</style>
      <line class="axis" x1="30" y1="30" x2="30" y2="130" />
      <line class="axis" x1="30" y1="130" x2="510" y2="130" />
      <text class="label" x="15" y="30">9,447</text>
      <text class="label" x="15" y="134">0</text>
      <text class="label" x="30" y="148">2021</text>
      <text class="label" x="510" y="148">2026</text>
      <polyline class="line" points="30.00,129.98 31.43,129.97 32.86,129.96 34.30,129.96 35.73,129.96 37.16,129.82 38.59,129.82 40.02,129.82 41.46,129.06 42.89,127.80 44.32,127.73 45.75,127.73 47.19,127.73 48.62,127.73 50.05,127.73 51.48,127.73 52.91,127.73 54.35,127.73 55.78,127.73 57.21,127.73 58.64,127.73 60.07,127.73 61.51,127.73 62.94,127.73 64.37,127.73 65.80,127.73 67.24,127.73 68.67,127.01 70.10,127.01 71.53,127.00 72.96,127.00 74.40,127.00 75.83,127.00 77.26,126.96 78.69,126.96 80.12,126.96 81.56,126.96 82.99,126.96 84.42,126.96 85.85,126.96 87.28,126.96 88.72,126.96 90.15,126.96 91.58,126.96 93.01,126.96 94.45,126.96 95.88,126.96 97.31,126.96 98.74,126.96 100.17,126.96 101.61,126.96 103.04,126.92 104.47,126.27 105.90,125.68 107.33,125.44 108.77,124.26 110.20,124.26 111.63,124.26 113.06,124.26 114.50,124.26 115.93,124.26 117.36,124.26 118.79,124.26 120.22,124.26 121.66,124.26 123.09,124.26 124.52,124.26 125.95,124.18 127.38,124.18 128.82,124.18 130.25,124.07 131.68,124.07 133.11,124.07 134.55,124.07 135.98,124.04 137.41,124.04 138.84,124.04 140.27,124.04 141.71,124.02 143.14,124.02 144.57,124.02 146.00,124.02 147.43,124.02 148.87,124.02 150.30,124.02 151.73,124.02 153.16,124.02 154.59,124.02 156.03,124.02 157.46,124.02 158.89,124.02 160.32,124.02 161.76,124.02 163.19,124.02 164.62,124.02 166.05,124.02 167.48,124.02 168.92,124.02 170.35,124.02 171.78,124.02 173.21,124.02 174.64,123.99 176.08,123.99 177.51,123.99 178.94,123.99 180.37,123.99 181.81,123.99 183.24,123.99 184.67,123.99 186.10,123.99 187.53,123.99 188.97,123.99 190.40,123.99 191.83,123.99 193.26,123.99 194.69,123.99 196.13,123.97 197.56,123.69 198.99,123.62 200.42,123.50 201.85,123.35 203.29,123.31 204.72,123.31 206.15,123.31 207.58,123.08 209.02,123.06 210.45,122.91 211.88,122.85 213.31,122.76 214.74,122.39 216.18,122.37 217.61,122.32 219.04,122.30 220.47,122.25 221.90,122.25 223.34,122.23 224.77,122.23 226.20,122.23 227.63,122.23 229.07,122.23 230.50,122.23 231.93,122.23 233.36,122.11 234.79,121.78 236.23,121.52 237.66,121.45 239.09,121.29 240.52,121.28 241.95,121.26 243.39,121.25 244.82,121.25 246.25,121.25 247.68,121.17 249.11,121.10 250.55,121.08 251.98,121.06 253.41,121.03 254.84,120.79 256.28,120.62 257.71,120.37 259.14,120.21 260.57,120.09 262.00,120.04 263.44,119.98 264.87,119.97 266.30,119.91 267.73,119.75 269.16,119.75 270.60,119.75 272.03,119.74 273.46,119.73 274.89,119.73 276.33,119.65 277.76,119.63 279.19,119.62 280.62,119.61 282.05,119.58 283.49,119.58 284.92,119.58 286.35,119.58 287.78,119.58 289.21,119.58 290.65,119.58 292.08,119.58 293.51,119.55 294.94,119.52 296.37,119.52 297.81,119.33 299.24,119.32 300.67,119.31 302.10,119.28 303.54,119.18 304.97,118.95 306.40,118.91 307.83,118.91 309.26,118.91 310.70,118.91 312.13,118.91 313.56,118.91 314.99,118.91 316.42,118.91 317.86,118.91 319.29,118.91 320.72,118.91 322.15,118.91 323.59,118.91 325.02,118.90 326.45,118.83 327.88,118.82 329.31,118.82 330.75,118.82 332.18,118.82 333.61,118.78 335.04,118.78 336.47,118.61 337.91,118.45 339.34,118.45 340.77,118.45 342.20,118.45 343.64,118.45 345.07,118.43 346.50,118.43 347.93,118.41 349.36,118.33 350.80,118.27 352.23,117.99 353.66,117.98 355.09,117.54 356.52,117.29 357.96,117.10 359.39,116.49 360.82,116.33 362.25,116.27 363.68,116.07 365.12,115.76 366.55,115.69 367.98,115.58 369.41,115.41 370.85,115.27 372.28,115.20 373.71,115.10 375.14,115.02 376.57,114.83 378.01,114.66 379.44,114.46 380.87,114.13 382.30,113.94 383.73,113.00 385.17,112.29 386.60,111.84 388.03,111.44 389.46,111.01 390.90,111.01 392.33,111.01 393.76,111.01 395.19,110.73 396.62,110.58 398.06,110.00 399.49,109.36 400.92,108.61 402.35,107.47 403.78,106.68 405.22,105.05 406.65,104.07 408.08,103.41 409.51,102.35 410.94,101.67 412.38,100.33 413.81,98.30 415.24,97.68 416.67,96.89 418.11,96.13 419.54,95.87 420.97,94.90 422.40,94.73 423.83,93.57 425.27,92.51 426.70,91.87 428.13,91.15 429.56,90.20 430.99,89.94 432.43,89.86 433.86,89.75 435.29,89.69 436.72,89.09 438.16,88.30 439.59,87.35 441.02,87.09 442.45,86.31 443.88,85.32 445.32,83.34 446.75,81.88 448.18,80.08 449.61,79.60 451.04,78.65 452.48,76.88 453.91,75.88 455.34,75.33 456.77,74.55 458.20,74.05 459.64,73.32 461.07,72.98 462.50,72.24 463.93,70.83 465.37,69.27 466.80,68.80 468.23,67.92 469.66,66.31 471.09,65.48 472.53,63.48 473.96,62.53 475.39,60.79 476.82,59.10 478.25,57.06 479.69,53.99 481.12,51.95 482.55,50.21 483.98,49.09 485.42,47.64 486.85,46.33 488.28,45.70 489.71,44.64 491.14,43.36 492.58,42.64 494.01,41.54 495.44,40.70 496.87,39.91 498.30,38.71 499.74,36.53 501.17,34.78 502.60,33.31 504.03,32.10 505.46,31.65 506.90,31.08 508.33,30.61 509.76,30.10" />
    </svg>
  