
    <svg width="540" height="160" xmlns="http://www.w3.org/2000/svg">
      <style>.line{fill:none;stroke:#388bfd;stroke-width:1.5}.axis{stroke:#555;stroke-width:1;opacity:0.5}.label{fill:#999;font-family:sans-serif;font-size:10px;text-anchor:middle}</style>
      <line class="axis" x1="30" y1="30" x2="30" y2="130" />
      <line class="axis" x1="30" y1="130" x2="510" y2="130" />
      <text class="label" x="15" y="30">8,940</text>
      <text class="label" x="15" y="134">0</text>
      <text class="label" x="30" y="148">2021</text>
      <text class="label" x="510" y="148">2026</text>
      <polyline class="line" points="30.00,129.98 31.46,129.97 32.92,129.96 34.38,129.96 35.84,129.96 37.30,129.81 38.76,129.81 40.22,129.81 41.68,129.00 43.14,127.67 44.60,127.61 46.06,127.61 47.53,127.61 48.99,127.61 50.45,127.61 51.91,127.61 53.37,127.61 54.83,127.61 56.29,127.61 57.75,127.61 59.21,127.61 60.67,127.61 62.13,127.61 63.59,127.61 65.05,127.61 66.51,127.61 67.97,127.61 69.43,126.85 70.89,126.85 72.35,126.83 73.81,126.83 75.27,126.83 76.73,126.83 78.19,126.79 79.66,126.79 81.12,126.79 82.58,126.79 84.04,126.79 85.50,126.79 86.96,126.79 88.42,126.79 89.88,126.79 91.34,126.79 92.80,126.79 94.26,126.79 95.72,126.79 97.18,126.79 98.64,126.79 100.10,126.79 101.56,126.79 103.02,126.79 104.48,126.74 105.94,126.06 107.40,125.44 108.86,125.18 110.32,123.94 111.78,123.94 113.25,123.94 114.71,123.94 116.17,123.94 117.63,123.94 119.09,123.94 120.55,123.94 122.01,123.94 123.47,123.94 124.93,123.94 126.39,123.94 127.85,123.85 129.31,123.85 130.77,123.85 132.23,123.74 133.69,123.74 135.15,123.74 136.61,123.74 138.07,123.70 139.53,123.70 140.99,123.70 142.45,123.70 143.91,123.68 145.38,123.68 146.84,123.68 148.30,123.68 149.76,123.68 151.22,123.68 152.68,123.68 154.14,123.68 155.60,123.68 157.06,123.68 158.52,123.68 159.98,123.68 161.44,123.68 162.90,123.68 164.36,123.68 165.82,123.68 167.28,123.68 168.74,123.68 170.20,123.68 171.66,123.68 173.12,123.68 174.58,123.68 176.04,123.68 177.51,123.65 178.97,123.65 180.43,123.65 181.89,123.65 183.35,123.65 184.81,123.65 186.27,123.65 187.73,123.65 189.19,123.65 190.65,123.65 192.11,123.65 193.57,123.65 195.03,123.65 196.49,123.65 197.95,123.65 199.41,123.62 200.87,123.33 202.33,123.26 203.79,123.13 205.25,122.98 206.71,122.93 208.17,122.93 209.63,122.93 211.10,122.68 212.56,122.66 214.02,122.51 215.48,122.45 216.94,122.35 218.40,121.96 219.86,121.94 221.32,121.88 222.78,121.87 224.24,121.81 225.70,121.81 227.16,121.79 228.62,121.79 230.08,121.79 231.54,121.79 233.00,121.79 234.46,121.79 235.92,121.79 237.38,121.67 238.84,121.31 240.30,121.04 241.76,120.96 243.23,120.79 244.69,120.78 246.15,120.76 247.61,120.75 249.07,120.75 250.53,120.75 251.99,120.67 253.45,120.59 254.91,120.57 256.37,120.55 257.83,120.53 259.29,120.27 260.75,120.09 262.21,119.82 263.67,119.65 265.13,119.53 266.59,119.47 268.05,119.41 269.51,119.40 270.97,119.34 272.43,119.17 273.89,119.17 275.35,119.17 276.82,119.16 278.28,119.15 279.74,119.15 281.20,119.06 282.66,119.04 284.12,119.03 285.58,119.02 287.04,118.99 288.50,118.99 289.96,118.99 291.42,118.99 292.88,118.99 294.34,118.99 295.80,118.99 297.26,118.99 298.72,118.96 300.18,118.93 301.64,118.93 303.10,118.72 304.56,118.71 306.02,118.70 307.48,118.67 308.95,118.57 310.41,118.32 311.87,118.28 313.33,118.28 314.79,118.28 316.25,118.28 317.71,118.28 319.17,118.28 320.63,118.28 322.09,118.28 323.55,118.28 325.01,118.28 326.47,118.28 327.93,118.28 329.39,118.28 330.85,118.27 332.31,118.20 333.77,118.19 335.23,118.19 336.69,118.19 338.15,118.19 339.61,118.14 341.08,118.14 342.54,117.96 344.00,117.80 345.46,117.80 346.92,117.80 348.38,117.80 349.84,117.80 351.30,117.77 352.76,117.77 354.22,117.75 355.68,117.67 357.14,117.61 358.60,117.30 360.06,117.29 361.52,116.83 362.98,116.57 364.44,116.36 365.90,115.73 367.36,115.56 368.82,115.49 370.28,115.28 371.74,114.96 373.20,114.88 374.67,114.77 376.13,114.59 377.59,114.43 379.05,114.36 380.51,114.25 381.97,114.17 383.43,113.97 384.89,113.79 386.35,113.58 387.81,113.23 389.27,113.03 390.73,112.04 392.19,111.29 393.65,110.81 395.11,110.39 396.57,109.93 398.03,109.93 399.49,109.93 400.95,109.93 402.41,109.64 403.87,109.47 405.33,108.87 406.80,108.19 408.26,107.39 409.72,106.20 411.18,105.36 412.64,103.64 414.10,102.60 415.56,101.90 417.02,100.78 418.48,100.07 419.94,98.65 421.40,96.50 422.86,95.85 424.32,95.01 425.78,94.21 427.24,93.94 428.70,92.91 430.16,92.73 431.62,91.50 433.08,90.38 434.54,89.71 436.00,88.95 437.46,87.94 438.92,87.67 440.39,87.58 441.85,87.47 443.31,87.40 444.77,86.77 446.23,85.94 447.69,84.93 449.15,84.65 450.61,83.84 452.07,82.79 453.53,80.69 454.99,79.15 456.45,77.25 457.91,76.74 459.37,75.74 460.83,73.87 462.29,72.81 463.75,72.23 465.21,71.41 466.67,70.87 468.13,70.10 469.59,69.74 471.05,68.96 472.52,67.47 473.98,65.83 475.44,65.32 476.90,64.40 478.36,62.70 479.82,61.82 481.28,59.71 482.74,58.70 484.20,56.87 485.66,55.08 487.12,52.92 488.58,49.68 490.04,47.53 491.50,45.68 492.96,44.50 494.42,42.96 495.88,41.59 497.34,40.92 498.80,39.80 500.26,38.45 501.72,37.68 503.18,36.52 504.65,35.64 506.11,34.80 507.57,33.53 509.03,31.23" />
    </svg>
  