
    <svg width="540" height="160" xmlns="http://www.w3.org/2000/svg">
      <style>.line{fill:none;stroke:#388bfd;stroke-width:1.5}.axis{stroke:#555;stroke-width:1;opacity:0.5}.label{fill:#999;font-family:sans-serif;font-size:10px;text-anchor:middle}</style>
      <line class="axis" x1="30" y1="30" x2="30" y2="130" />
      <line class="axis" x1="30" y1="130" x2="510" y2="130" />
      <text class="label" x="15" y="30">9,032</text>
      <text class="label" x="15" y="134">0</text>
      <text class="label" x="30" y="148">2021</text>
      <text class="label" x="510" y="148">2026</text>
      <polyline class="line" points="30.00,129.98 31.46,129.97 32.91,129.96 34.37,129.96 35.83,129.96 37.29,129.81 38.74,129.81 40.20,129.81 41.66,129.01 43.12,127.70 44.57,127.63 46.03,127.63 47.49,127.63 48.95,127.63 50.40,127.63 51.86,127.63 53.32,127.63 54.78,127.63 56.23,127.63 57.69,127.63 59.15,127.63 60.61,127.63 62.06,127.63 63.52,127.63 64.98,127.63 66.44,127.63 67.89,127.63 69.35,126.88 70.81,126.88 72.27,126.87 73.72,126.87 75.18,126.87 76.64,126.87 78.10,126.82 79.55,126.82 81.01,126.82 82.47,126.82 83.93,126.82 85.38,126.82 86.84,126.82 88.30,126.82 89.76,126.82 91.21,126.82 92.67,126.82 94.13,126.82 95.59,126.82 97.04,126.82 98.50,126.82 99.96,126.82 101.42,126.82 102.87,126.82 104.33,126.78 105.79,126.10 107.25,125.48 108.70,125.23 110.16,124.00 111.62,124.00 113.08,124.00 114.53,124.00 115.99,124.00 117.45,124.00 118.91,124.00 120.36,124.00 121.82,124.00 123.28,124.00 124.74,124.00 126.19,124.00 127.65,123.91 129.11,123.91 130.57,123.91 132.02,123.80 133.48,123.80 134.94,123.80 136.40,123.80 137.85,123.77 139.31,123.77 140.77,123.77 142.23,123.77 143.68,123.74 145.14,123.74 146.60,123.74 148.06,123.74 149.51,123.74 150.97,123.74 152.43,123.74 153.89,123.74 155.34,123.74 156.80,123.74 158.26,123.74 159.72,123.74 161.17,123.74 162.63,123.74 164.09,123.74 165.55,123.74 167.00,123.74 168.46,123.74 169.92,123.74 171.38,123.74 172.83,123.74 174.29,123.74 175.75,123.74 177.21,123.71 178.66,123.71 180.12,123.71 181.58,123.71 183.04,123.71 184.49,123.71 185.95,123.71 187.41,123.71 188.87,123.71 190.32,123.71 191.78,123.71 193.24,123.71 194.70,123.71 196.15,123.71 197.61,123.71 199.07,123.69 200.53,123.40 201.98,123.32 203.44,123.20 204.90,123.05 206.36,123.00 207.81,123.00 209.27,123.00 210.73,122.76 212.19,122.74 213.64,122.58 215.10,122.53 216.56,122.43 218.02,122.04 219.47,122.02 220.93,121.96 222.39,121.95 223.85,121.90 225.30,121.90 226.76,121.87 228.22,121.87 229.68,121.87 231.13,121.87 232.59,121.87 234.05,121.87 235.51,121.87 236.96,121.75 238.42,121.40 239.88,121.13 241.34,121.05 242.79,120.89 244.25,120.88 245.71,120.85 247.17,120.84 248.62,120.84 250.08,120.84 251.54,120.77 253.00,120.69 254.45,120.67 255.91,120.64 257.37,120.62 258.83,120.37 260.28,120.19 261.74,119.92 263.20,119.76 264.66,119.64 266.11,119.58 267.57,119.52 269.03,119.50 270.49,119.45 271.94,119.28 273.40,119.28 274.86,119.28 276.32,119.27 277.77,119.26 279.23,119.26 280.69,119.17 282.15,119.15 283.60,119.14 285.06,119.13 286.52,119.11 287.98,119.11 289.43,119.11 290.89,119.11 292.35,119.11 293.81,119.11 295.26,119.11 296.72,119.11 298.18,119.07 299.64,119.04 301.09,119.04 302.55,118.84 304.01,118.83 305.47,118.82 306.92,118.78 308.38,118.68 309.84,118.44 311.30,118.40 312.75,118.40 314.21,118.40 315.67,118.40 317.13,118.40 318.58,118.40 320.04,118.40 321.50,118.40 322.96,118.40 324.41,118.40 325.87,118.40 327.33,118.40 328.79,118.40 330.24,118.39 331.70,118.32 333.16,118.31 334.62,118.31 336.07,118.31 337.53,118.31 338.99,118.26 340.45,118.26 341.90,118.09 343.36,117.92 344.82,117.92 346.28,117.92 347.73,117.92 349.19,117.92 350.65,117.90 352.11,117.90 353.56,117.88 355.02,117.80 356.48,117.73 357.94,117.43 359.39,117.42 360.85,116.97 362.31,116.70 363.77,116.50 365.22,115.87 366.68,115.71 368.14,115.64 369.60,115.43 371.05,115.11 372.51,115.03 373.97,114.92 375.43,114.74 376.88,114.59 378.34,114.52 379.80,114.41 381.26,114.33 382.71,114.13 384.17,113.96 385.63,113.75 387.09,113.40 388.54,113.20 390.00,112.22 391.46,111.48 392.91,111.00 394.37,110.59 395.83,110.14 397.29,110.14 398.74,110.14 400.20,110.14 401.66,109.85 403.12,109.68 404.57,109.09 406.03,108.41 407.49,107.62 408.95,106.44 410.40,105.61 411.86,103.90 413.32,102.87 414.78,102.19 416.23,101.08 417.69,100.37 419.15,98.97 420.61,96.84 422.06,96.20 423.52,95.37 424.98,94.57 426.44,94.30 427.89,93.29 429.35,93.11 430.81,91.89 432.27,90.78 433.72,90.12 435.18,89.37 436.64,88.37 438.10,88.10 439.55,88.02 441.01,87.91 442.47,87.84 443.93,87.21 445.38,86.39 446.84,85.39 448.30,85.12 449.76,84.31 451.21,83.27 452.67,81.20 454.13,79.67 455.59,77.79 457.04,77.29 458.50,76.29 459.96,74.44 461.42,73.39 462.87,72.81 464.33,72.01 465.79,71.47 467.25,70.71 468.70,70.36 470.16,69.58 471.62,68.11 473.08,66.48 474.53,65.98 475.99,65.06 477.45,63.38 478.91,62.52 480.36,60.43 481.82,59.43 483.28,57.61 484.74,55.84 486.19,53.70 487.65,50.49 489.11,48.37 490.57,46.54 492.02,45.37 493.48,43.85 494.94,42.49 496.40,41.82 497.85,40.72 499.31,39.38 500.77,38.62 502.23,37.47 503.68,36.60 505.14,35.77 506.60,34.52 508.06,32.24 509.51,30.47" />
    </svg>
  