
    <svg width="540" height="160" xmlns="http://www.w3.org/2000/svg">
      <style>.line{fill:none;stroke:#388bfd;stroke-width:1.5}.axis{stroke:#555;stroke-width:1;opacity:0.5}.label{fill:#999;font-family:sans-serif;font-size:10px;text-anchor:middle}</style>
      <line class="axis" x1="30" y1="30" x2="30" y2="130" />
      <line class="axis" x1="30" y1="130" x2="510" y2="130" />
      <text class="label" x="15" y="30">7,725</text>
      <text class="label" x="15" y="134">0</text>
      <text class="label" x="30" y="148">2021</text>
      <text class="label" x="510" y="148">2026</text>
      <polyline class="line" points="30.00,129.97 31.50,129.96 32.99,129.95 34.49,129.95 35.99,129.95 37.48,129.78 38.98,129.78 40.48,129.78 41.98,128.85 43.47,127.31 44.97,127.23 46.47,127.23 47.96,127.23 49.46,127.23 50.96,127.23 52.45,127.23 53.95,127.23 55.45,127.23 56.94,127.23 58.44,127.23 59.94,127.23 61.43,127.23 62.93,127.23 64.43,127.23 65.93,127.23 67.42,127.23 68.92,127.23 70.42,126.35 71.91,126.35 73.41,126.34 74.91,126.34 76.40,126.34 77.90,126.34 79.40,126.28 80.89,126.28 82.39,126.28 83.89,126.28 85.38,126.28 86.88,126.28 88.38,126.28 89.88,126.28 91.37,126.28 92.87,126.28 94.37,126.28 95.86,126.28 97.36,126.28 98.86,126.28 100.35,126.28 101.85,126.28 103.35,126.28 104.84,126.28 106.34,126.23 107.84,125.44 109.33,124.72 110.83,124.42 112.33,122.98 113.83,122.98 115.32,122.98 116.82,122.98 118.32,122.98 119.81,122.98 121.31,122.98 122.81,122.98 124.30,122.98 125.80,122.98 127.30,122.98 128.79,122.98 130.29,122.88 131.79,122.88 133.28,122.88 134.78,122.75 136.28,122.75 137.78,122.75 139.27,122.75 140.77,122.71 142.27,122.71 143.76,122.71 145.26,122.71 146.76,122.69 148.25,122.69 149.75,122.69 151.25,122.69 152.74,122.69 154.24,122.69 155.74,122.69 157.23,122.69 158.73,122.69 160.23,122.69 161.73,122.69 163.22,122.69 164.72,122.69 166.22,122.69 167.71,122.69 169.21,122.69 170.71,122.69 172.20,122.69 173.70,122.69 175.20,122.69 176.69,122.69 178.19,122.69 179.69,122.69 181.19,122.65 182.68,122.65 184.18,122.65 185.68,122.65 187.17,122.65 188.67,122.65 190.17,122.65 191.66,122.65 193.16,122.65 194.66,122.65 196.15,122.65 197.65,122.65 199.15,122.65 200.64,122.65 202.14,122.65 203.64,122.62 205.14,122.28 206.63,122.19 208.13,122.05 209.63,121.87 211.12,121.82 212.62,121.82 214.12,121.82 215.61,121.53 217.11,121.51 218.61,121.33 220.10,121.26 221.60,121.15 223.10,120.69 224.59,120.67 226.09,120.60 227.59,120.59 229.09,120.52 230.58,120.52 232.08,120.50 233.58,120.50 235.07,120.50 236.57,120.50 238.07,120.50 239.56,120.50 241.06,120.50 242.56,120.36 244.05,119.94 245.55,119.63 247.05,119.54 248.54,119.35 250.04,119.33 251.54,119.31 253.04,119.29 254.53,119.29 256.03,119.29 257.53,119.20 259.02,119.11 260.52,119.09 262.02,119.06 263.51,119.04 265.01,118.74 266.51,118.53 268.00,118.22 269.50,118.03 271.00,117.88 272.49,117.82 273.99,117.74 275.49,117.73 276.99,117.66 278.48,117.47 279.98,117.47 281.48,117.47 282.97,117.46 284.47,117.44 285.97,117.44 287.46,117.34 288.96,117.31 290.46,117.30 291.95,117.29 293.45,117.26 294.95,117.26 296.44,117.26 297.94,117.26 299.44,117.26 300.94,117.26 302.43,117.26 303.93,117.26 305.43,117.22 306.92,117.18 308.42,117.18 309.92,116.95 311.41,116.94 312.91,116.93 314.41,116.89 315.90,116.77 317.40,116.49 318.90,116.43 320.40,116.43 321.89,116.43 323.39,116.43 324.89,116.43 326.38,116.43 327.88,116.43 329.38,116.43 330.87,116.43 332.37,116.43 333.87,116.43 335.36,116.43 336.86,116.43 338.36,116.42 339.85,116.34 341.35,116.33 342.85,116.33 344.35,116.33 345.84,116.33 347.34,116.28 348.84,116.28 350.33,116.07 351.83,115.88 353.33,115.88 354.82,115.88 356.32,115.88 357.82,115.88 359.31,115.85 360.81,115.85 362.31,115.83 363.80,115.73 365.30,115.66 366.80,115.31 368.30,115.29 369.79,114.76 371.29,114.45 372.79,114.22 374.28,113.48 375.78,113.29 377.28,113.21 378.77,112.96 380.27,112.59 381.77,112.50 383.26,112.37 384.76,112.16 386.26,111.98 387.75,111.90 389.25,111.77 390.75,111.68 392.25,111.45 393.74,111.24 395.24,111.00 396.74,110.60 398.23,110.36 399.73,109.21 401.23,108.34 402.72,107.79 404.22,107.31 405.72,106.78 407.21,106.78 408.71,106.78 410.21,106.78 411.70,106.44 413.20,106.25 414.70,105.55 416.20,104.76 417.69,103.84 419.19,102.45 420.69,101.48 422.18,99.49 423.68,98.28 425.18,97.48 426.67,96.19 428.17,95.36 429.67,93.72 431.16,91.23 432.66,90.48 434.16,89.51 435.65,88.58 437.15,88.27 438.65,87.07 440.15,86.87 441.64,85.44 443.14,84.15 444.64,83.37 446.13,82.49 447.63,81.33 449.13,81.02 450.62,80.91 452.12,80.78 453.62,80.71 455.11,79.97 456.61,79.01 458.11,77.84 459.60,77.52 461.10,76.58 462.60,75.36 464.10,72.94 465.59,71.15 467.09,68.95 468.59,68.37 470.08,67.20 471.58,65.04 473.08,63.81 474.57,63.14 476.07,62.19 477.57,61.57 479.06,60.68 480.56,60.27 482.06,59.36 483.56,57.64 485.05,55.73 486.55,55.15 488.05,54.17 489.54,52.59 491.04,51.66 492.54,49.77 494.03,48.77 495.53,46.83 497.03,44.86 498.52,42.79 500.02,39.28 501.52,37.15 503.01,35.10 504.51,33.96 506.01,32.28 507.51,30.84 509.00,30.35" />
    </svg>
  