
    <svg width="540" height="160" xmlns="http://www.w3.org/2000/svg">
      <style>.line{fill:none;stroke:#388bfd;stroke-width:1.5}.axis{stroke:#555;stroke-width:1;opacity:0.5}.label{fill:#999;font-family:sans-serif;font-size:10px;text-anchor:middle}</style>
      <line class="axis" x1="30" y1="30" x2="30" y2="130" />
      <line class="axis" x1="30" y1="130" x2="510" y2="130" />
      <text class="label" x="15" y="30">9,244</text>
      <text class="label" x="15" y="134">0</text>
      <text class="label" x="30" y="148">2021</text>
      <text class="label" x="510" y="148">2026</text>
      <polyline class="line" points="30.00,129.98 31.45,129.97 32.90,129.96 34.35,129.96 35.79,129.96 37.24,129.82 38.69,129.82 40.14,129.82 41.59,129.04 43.04,127.75 44.49,127.68 45.94,127.68 47.38,127.68 48.83,127.68 50.28,127.68 51.73,127.68 53.18,127.68 54.63,127.68 56.08,127.68 57.53,127.68 58.97,127.68 60.42,127.68 61.87,127.68 63.32,127.68 64.77,127.68 66.22,127.68 67.67,127.68 69.11,126.95 70.56,126.95 72.01,126.94 73.46,126.94 74.91,126.94 76.36,126.94 77.81,126.90 79.26,126.90 80.70,126.90 82.15,126.90 83.60,126.90 85.05,126.90 86.50,126.90 87.95,126.90 89.40,126.90 90.85,126.90 92.29,126.90 93.74,126.90 95.19,126.90 96.64,126.90 98.09,126.90 99.54,126.90 100.99,126.90 102.43,126.90 103.88,126.85 105.33,126.19 106.78,125.59 108.23,125.34 109.68,124.14 111.13,124.14 112.58,124.14 114.02,124.14 115.47,124.14 116.92,124.14 118.37,124.14 119.82,124.14 121.27,124.14 122.72,124.14 124.16,124.14 125.61,124.14 127.06,124.05 128.51,124.05 129.96,124.05 131.41,123.94 132.86,123.94 134.31,123.94 135.75,123.94 137.20,123.91 138.65,123.91 140.10,123.91 141.55,123.91 143.00,123.89 144.45,123.89 145.90,123.89 147.34,123.89 148.79,123.89 150.24,123.89 151.69,123.89 153.14,123.89 154.59,123.89 156.04,123.89 157.48,123.89 158.93,123.89 160.38,123.89 161.83,123.89 163.28,123.89 164.73,123.89 166.18,123.89 167.63,123.89 169.07,123.89 170.52,123.89 171.97,123.89 173.42,123.89 174.87,123.89 176.32,123.86 177.77,123.86 179.22,123.86 180.66,123.86 182.11,123.86 183.56,123.86 185.01,123.86 186.46,123.86 187.91,123.86 189.36,123.86 190.80,123.86 192.25,123.86 193.70,123.86 195.15,123.86 196.60,123.86 198.05,123.83 199.50,123.55 200.95,123.48 202.39,123.36 203.84,123.21 205.29,123.16 206.74,123.16 208.19,123.16 209.64,122.93 211.09,122.90 212.54,122.75 213.98,122.70 215.43,122.60 216.88,122.22 218.33,122.20 219.78,122.15 221.23,122.14 222.68,122.08 224.12,122.08 225.57,122.06 227.02,122.06 228.47,122.06 229.92,122.06 231.37,122.06 232.82,122.06 234.27,122.06 235.71,121.94 237.16,121.59 238.61,121.33 240.06,121.26 241.51,121.10 242.96,121.09 244.41,121.06 245.86,121.05 247.30,121.05 248.75,121.05 250.20,120.98 251.65,120.90 253.10,120.88 254.55,120.86 256.00,120.84 257.44,120.59 258.89,120.42 260.34,120.16 261.79,119.99 263.24,119.87 264.69,119.82 266.14,119.76 267.59,119.74 269.03,119.69 270.48,119.53 271.93,119.53 273.38,119.53 274.83,119.52 276.28,119.51 277.73,119.51 279.18,119.42 280.62,119.40 282.07,119.39 283.52,119.38 284.97,119.36 286.42,119.36 287.87,119.36 289.32,119.36 290.76,119.36 292.21,119.36 293.66,119.36 295.11,119.36 296.56,119.32 298.01,119.29 299.46,119.29 300.91,119.10 302.35,119.08 303.80,119.07 305.25,119.04 306.70,118.94 308.15,118.71 309.60,118.66 311.05,118.66 312.49,118.66 313.94,118.66 315.39,118.66 316.84,118.66 318.29,118.66 319.74,118.66 321.19,118.66 322.64,118.66 324.08,118.66 325.53,118.66 326.98,118.66 328.43,118.65 329.88,118.59 331.33,118.58 332.78,118.58 334.23,118.58 335.67,118.58 337.12,118.53 338.57,118.53 340.02,118.36 341.47,118.20 342.92,118.20 344.37,118.20 345.81,118.20 347.26,118.20 348.71,118.18 350.16,118.18 351.61,118.15 353.06,118.08 354.51,118.01 355.96,117.72 357.40,117.71 358.85,117.27 360.30,117.01 361.75,116.81 363.20,116.20 364.65,116.03 366.10,115.97 367.55,115.76 368.99,115.45 370.44,115.37 371.89,115.27 373.34,115.09 374.79,114.94 376.24,114.88 377.69,114.77 379.13,114.69 380.58,114.50 382.03,114.32 383.48,114.12 384.93,113.78 386.38,113.59 387.83,112.63 389.28,111.90 390.72,111.44 392.17,111.04 393.62,110.59 395.07,110.59 396.52,110.59 397.97,110.59 399.42,110.31 400.87,110.15 402.31,109.57 403.76,108.91 405.21,108.14 406.66,106.98 408.11,106.17 409.56,104.50 411.01,103.50 412.45,102.83 413.90,101.74 415.35,101.05 416.80,99.68 418.25,97.60 419.70,96.97 421.15,96.16 422.60,95.38 424.04,95.12 425.49,94.13 426.94,93.95 428.39,92.77 429.84,91.68 431.29,91.03 432.74,90.30 434.19,89.32 435.63,89.07 437.08,88.98 438.53,88.87 439.98,88.81 441.43,88.19 442.88,87.39 444.33,86.41 445.77,86.14 447.22,85.35 448.67,84.34 450.12,82.32 451.57,80.82 453.02,78.98 454.47,78.50 455.92,77.52 457.36,75.72 458.81,74.69 460.26,74.13 461.71,73.34 463.16,72.82 464.61,72.07 466.06,71.72 467.51,70.97 468.95,69.53 470.40,67.94 471.85,67.45 473.30,66.55 474.75,64.91 476.20,64.07 477.65,62.02 479.09,61.05 480.54,59.27 481.99,57.54 483.44,55.45 484.89,52.32 486.34,50.24 487.79,48.46 489.24,47.31 490.68,45.83 492.13,44.50 493.58,43.85 495.03,42.77 496.48,41.46 497.93,40.72 499.38,39.60 500.82,38.74 502.27,37.93 503.72,36.71 505.17,34.48 506.62,32.75 508.07,31.24 509.52,30.08" />
    </svg>
  