
    <svg width="540" height="160" xmlns="http://www.w3.org/2000/svg">
      <style>.line{fill:none;stroke:#388bfd;stroke-width:1.5}.axis{stroke:#555;stroke-width:1;opacity:0.5}.label{fill:#999;font-family:sans-serif;font-size:10px;text-anchor:middle}</style>
      <line class="axis" x1="30" y1="30" x2="30" y2="130" />
      <line class="axis" x1="30" y1="130" x2="510" y2="130" />
      <text class="label" x="15" y="30">9,339</text>
      <text class="label" x="15" y="134">0</text>
      <text class="label" x="30" y="148">2021</text>
      <text class="label" x="510" y="148">2026</text>
      <polyline class="line" points="30.00,129.98 31.44,129.97 32.88,129.96 34.33,129.96 35.77,129.96 37.21,129.82 38.65,129.82 40.10,129.82 41.54,129.05 42.98,127.77 44.42,127.71 45.86,127.71 47.31,127.71 48.75,127.71 50.19,127.71 51.63,127.71 53.07,127.71 54.52,127.71 55.96,127.71 57.40,127.71 58.84,127.71 60.29,127.71 61.73,127.71 63.17,127.71 64.61,127.71 66.05,127.71 67.50,127.71 68.94,126.98 70.38,126.98 71.82,126.97 73.26,126.97 74.71,126.97 76.15,126.97 77.59,126.93 79.03,126.93 80.48,126.93 81.92,126.93 83.36,126.93 84.80,126.93 86.24,126.93 87.69,126.93 89.13,126.93 90.57,126.93 92.01,126.93 93.46,126.93 94.90,126.93 96.34,126.93 97.78,126.93 99.22,126.93 100.67,126.93 102.11,126.93 103.55,126.88 104.99,126.23 106.43,125.63 107.88,125.38 109.32,124.20 110.76,124.20 112.20,124.20 113.65,124.20 115.09,124.20 116.53,124.20 117.97,124.20 119.41,124.20 120.86,124.20 122.30,124.20 123.74,124.20 125.18,124.20 126.62,124.11 128.07,124.11 129.51,124.11 130.95,124.00 132.39,124.00 133.84,124.00 135.28,124.00 136.72,123.97 138.16,123.97 139.60,123.97 141.05,123.97 142.49,123.95 143.93,123.95 145.37,123.95 146.82,123.95 148.26,123.95 149.70,123.95 151.14,123.95 152.58,123.95 154.03,123.95 155.47,123.95 156.91,123.95 158.35,123.95 159.79,123.95 161.24,123.95 162.68,123.95 164.12,123.95 165.56,123.95 167.01,123.95 168.45,123.95 169.89,123.95 171.33,123.95 172.77,123.95 174.22,123.95 175.66,123.92 177.10,123.92 178.54,123.92 179.98,123.92 181.43,123.92 182.87,123.92 184.31,123.92 185.75,123.92 187.20,123.92 188.64,123.92 190.08,123.92 191.52,123.92 192.96,123.92 194.41,123.92 195.85,123.92 197.29,123.90 198.73,123.62 200.18,123.54 201.62,123.43 203.06,123.28 204.50,123.23 205.94,123.23 207.39,123.23 208.83,123.00 210.27,122.98 211.71,122.83 213.15,122.77 214.60,122.68 216.04,122.30 217.48,122.28 218.92,122.23 220.37,122.22 221.81,122.16 223.25,122.16 224.69,122.14 226.13,122.14 227.58,122.14 229.02,122.14 230.46,122.14 231.90,122.14 233.35,122.14 234.79,122.02 236.23,121.68 237.67,121.42 239.11,121.35 240.56,121.19 242.00,121.18 243.44,121.16 244.88,121.14 246.32,121.14 247.77,121.14 249.21,121.07 250.65,120.99 252.09,120.97 253.54,120.95 254.98,120.93 256.42,120.68 257.86,120.51 259.30,120.26 260.75,120.10 262.19,119.98 263.63,119.92 265.07,119.86 266.51,119.85 267.96,119.80 269.40,119.63 270.84,119.63 272.28,119.63 273.73,119.62 275.17,119.61 276.61,119.61 278.05,119.53 279.49,119.51 280.94,119.50 282.38,119.48 283.82,119.46 285.26,119.46 286.71,119.46 288.15,119.46 289.59,119.46 291.03,119.46 292.47,119.46 293.92,119.46 295.36,119.43 296.80,119.40 298.24,119.40 299.68,119.21 301.13,119.20 302.57,119.19 304.01,119.15 305.45,119.06 306.90,118.82 308.34,118.78 309.78,118.78 311.22,118.78 312.66,118.78 314.11,118.78 315.55,118.78 316.99,118.78 318.43,118.78 319.87,118.78 321.32,118.78 322.76,118.78 324.20,118.78 325.64,118.78 327.09,118.77 328.53,118.70 329.97,118.69 331.41,118.69 332.85,118.69 334.30,118.69 335.74,118.65 337.18,118.65 338.62,118.48 340.07,118.32 341.51,118.32 342.95,118.32 344.39,118.32 345.83,118.32 347.28,118.30 348.72,118.30 350.16,118.27 351.60,118.20 353.04,118.14 354.49,117.85 355.93,117.84 357.37,117.40 358.81,117.14 360.26,116.95 361.70,116.34 363.14,116.18 364.58,116.11 366.02,115.91 367.47,115.60 368.91,115.52 370.35,115.42 371.79,115.24 373.23,115.09 374.68,115.03 376.12,114.92 377.56,114.85 379.00,114.66 380.45,114.48 381.89,114.28 383.33,113.95 384.77,113.76 386.21,112.80 387.66,112.09 389.10,111.63 390.54,111.23 391.98,110.79 393.43,110.79 394.87,110.79 396.31,110.79 397.75,110.51 399.19,110.35 400.64,109.77 402.08,109.12 403.52,108.36 404.96,107.21 406.40,106.41 407.85,104.76 409.29,103.77 410.73,103.10 412.17,102.03 413.62,101.35 415.06,99.99 416.50,97.93 417.94,97.31 419.38,96.51 420.83,95.74 422.27,95.48 423.71,94.49 425.15,94.32 426.59,93.14 428.04,92.07 429.48,91.43 430.92,90.70 432.36,89.74 433.81,89.48 435.25,89.40 436.69,89.29 438.13,89.22 439.57,88.61 441.02,87.82 442.46,86.86 443.90,86.59 445.34,85.81 446.79,84.80 448.23,82.80 449.67,81.32 451.11,79.50 452.55,79.02 454.00,78.06 455.44,76.27 456.88,75.25 458.32,74.69 459.76,73.91 461.21,73.40 462.65,72.66 464.09,72.32 465.53,71.57 466.98,70.14 468.42,68.57 469.86,68.09 471.30,67.20 472.74,65.57 474.19,64.74 475.63,62.71 477.07,61.75 478.51,59.99 479.95,58.28 481.40,56.21 482.84,53.11 484.28,51.05 485.72,49.28 487.17,48.15 488.61,46.68 490.05,45.37 491.49,44.72 492.93,43.65 494.38,42.36 495.82,41.63 497.26,40.52 498.70,39.67 500.15,38.87 501.59,37.66 503.03,35.45 504.47,33.68 505.91,32.20 507.36,30.96 508.80,30.51" />
    </svg>
  