
    <svg width="540" height="160" xmlns="http://www.w3.org/2000/svg">
      <style>.line{fill:none;stroke:#388bfd;stroke-width:1.5}.axis{stroke:#555;stroke-width:1;opacity:0.5}.label{fill:#999;font-family:sans-serif;font-size:10px;text-anchor:middle}</style>
      <line class="axis" x1="30" y1="30" x2="30" y2="130" />
      <line class="axis" x1="30" y1="130" x2="510" y2="130" />
      <text class="label" x="15" y="30">8,569</text>
      <text class="label" x="15" y="134">0</text>
      <text class="label" x="30" y="148">2021</text>
      <text class="label" x="510" y="148">2026</text>
      <polyline class="line" points="30.00,129.98 31.47,129.96 32.94,129.95 34.40,129.95 35.87,129.95 37.34,129.80 38.81,129.80 40.28,129.80 41.74,128.96 43.21,127.57 44.68,127.50 46.15,127.50 47.61,127.50 49.08,127.50 50.55,127.50 52.02,127.50 53.49,127.50 54.95,127.50 56.42,127.50 57.89,127.50 59.36,127.50 60.83,127.50 62.29,127.50 63.76,127.50 65.23,127.50 66.70,127.50 68.17,127.50 69.63,126.71 71.10,126.71 72.57,126.70 74.04,126.70 75.50,126.70 76.97,126.70 78.44,126.65 79.91,126.65 81.38,126.65 82.84,126.65 84.31,126.65 85.78,126.65 87.25,126.65 88.72,126.65 90.18,126.65 91.65,126.65 93.12,126.65 94.59,126.65 96.06,126.65 97.52,126.65 98.99,126.65 100.46,126.65 101.93,126.65 103.39,126.65 104.86,126.60 106.33,125.89 107.80,125.24 109.27,124.97 110.73,123.67 112.20,123.67 113.67,123.67 115.14,123.67 116.61,123.67 118.07,123.67 119.54,123.67 121.01,123.67 122.48,123.67 123.94,123.67 125.41,123.67 126.88,123.67 128.35,123.58 129.82,123.58 131.28,123.58 132.75,123.46 134.22,123.46 135.69,123.46 137.16,123.46 138.62,123.43 140.09,123.43 141.56,123.43 143.03,123.43 144.50,123.41 145.96,123.41 147.43,123.41 148.90,123.41 150.37,123.41 151.83,123.41 153.30,123.41 154.77,123.41 156.24,123.41 157.71,123.41 159.17,123.41 160.64,123.41 162.11,123.41 163.58,123.41 165.05,123.41 166.51,123.41 167.98,123.41 169.45,123.41 170.92,123.41 172.39,123.41 173.85,123.41 175.32,123.41 176.79,123.41 178.26,123.37 179.72,123.37 181.19,123.37 182.66,123.37 184.13,123.37 185.60,123.37 187.06,123.37 188.53,123.37 190.00,123.37 191.47,123.37 192.94,123.37 194.40,123.37 195.87,123.37 197.34,123.37 198.81,123.37 200.28,123.35 201.74,123.04 203.21,122.96 204.68,122.83 206.15,122.67 207.61,122.62 209.08,122.62 210.55,122.62 212.02,122.37 213.49,122.34 214.95,122.18 216.42,122.12 217.89,122.02 219.36,121.61 220.83,121.59 222.29,121.53 223.76,121.52 225.23,121.46 226.70,121.46 228.17,121.43 229.63,121.43 231.10,121.43 232.57,121.43 234.04,121.43 235.50,121.43 236.97,121.43 238.44,121.31 239.91,120.93 241.38,120.65 242.84,120.57 244.31,120.40 245.78,120.38 247.25,120.36 248.72,120.35 250.18,120.35 251.65,120.35 253.12,120.27 254.59,120.19 256.06,120.16 257.52,120.14 258.99,120.12 260.46,119.85 261.93,119.66 263.39,119.38 264.86,119.21 266.33,119.08 267.80,119.02 269.27,118.95 270.73,118.94 272.20,118.88 273.67,118.70 275.14,118.70 276.61,118.70 278.07,118.69 279.54,118.68 281.01,118.68 282.48,118.59 283.94,118.56 285.41,118.55 286.88,118.54 288.35,118.52 289.82,118.52 291.28,118.52 292.75,118.52 294.22,118.52 295.69,118.52 297.16,118.52 298.62,118.52 300.09,118.48 301.56,118.45 303.03,118.45 304.50,118.24 305.96,118.22 307.43,118.21 308.90,118.18 310.37,118.07 311.83,117.82 313.30,117.77 314.77,117.77 316.24,117.77 317.71,117.77 319.17,117.77 320.64,117.77 322.11,117.77 323.58,117.77 325.05,117.77 326.51,117.77 327.98,117.77 329.45,117.77 330.92,117.77 332.39,117.76 333.85,117.69 335.32,117.68 336.79,117.68 338.26,117.68 339.72,117.68 341.19,117.63 342.66,117.63 344.13,117.44 345.60,117.27 347.06,117.27 348.53,117.27 350.00,117.27 351.47,117.27 352.94,117.24 354.40,117.24 355.87,117.22 357.34,117.14 358.81,117.07 360.28,116.75 361.74,116.74 363.21,116.26 364.68,115.98 366.15,115.77 367.61,115.11 369.08,114.93 370.55,114.86 372.02,114.64 373.49,114.30 374.95,114.22 376.42,114.11 377.89,113.92 379.36,113.76 380.83,113.69 382.29,113.57 383.76,113.49 385.23,113.28 386.70,113.09 388.17,112.87 389.63,112.51 391.10,112.30 392.57,111.26 394.04,110.48 395.50,109.97 396.97,109.54 398.44,109.06 399.91,109.06 401.38,109.06 402.84,109.06 404.31,108.76 405.78,108.59 407.25,107.96 408.72,107.24 410.18,106.41 411.65,105.17 413.12,104.29 414.59,102.49 416.06,101.41 417.52,100.69 418.99,99.52 420.46,98.77 421.93,97.29 423.39,95.05 424.86,94.37 426.33,93.50 427.80,92.66 429.27,92.38 430.73,91.30 432.20,91.12 433.67,89.83 435.14,88.66 436.61,87.96 438.07,87.17 439.54,86.12 441.01,85.84 442.48,85.75 443.94,85.63 445.41,85.56 446.88,84.90 448.35,84.03 449.82,82.98 451.28,82.69 452.75,81.84 454.22,80.74 455.69,78.56 457.16,76.95 458.62,74.96 460.09,74.44 461.56,73.39 463.03,71.44 464.50,70.33 465.96,69.72 467.43,68.87 468.90,68.31 470.37,67.51 471.83,67.13 473.30,66.32 474.77,64.76 476.24,63.05 477.71,62.52 479.17,61.56 480.64,59.78 482.11,58.87 483.58,56.67 485.05,55.62 486.51,53.70 487.98,51.83 489.45,49.58 490.92,46.20 492.39,43.96 493.85,42.03 495.32,40.79 496.79,39.20 498.26,37.76 499.72,37.06 501.19,35.89 502.66,34.48 504.13,33.93 505.60,32.89 507.06,32.01 508.53,31.13 510.00,30.00" />
    </svg>
  