
    <svg width="540" height="160" xmlns="http://www.w3.org/2000/svg">
      <style>.line{fill:none;stroke:#388bfd;stroke-width:1.5}.axis{stroke:#555;stroke-width:1;opacity:0.5}.label{fill:#999;font-family:sans-serif;font-size:10px;text-anchor:middle}</style>
      <line class="axis" x1="30" y1="30" x2="30" y2="130" />
      <line class="axis" x1="30" y1="130" x2="510" y2="130" />
      <text class="label" x="15" y="30">8,976</text>
      <text class="label" x="15" y="134">0</text>
      <text class="label" x="30" y="148">2021</text>
      <text class="label" x="510" y="148">2026</text>
      <polyline class="line" points="30.00,129.98 31.46,129.97 32.92,129.96 34.38,129.96 35.84,129.96 37.30,129.81 38.76,129.81 40.22,129.81 41.68,129.01 43.14,127.68 44.60,127.62 46.06,127.62 47.52,127.62 48.98,127.62 50.44,127.62 51.90,127.62 53.36,127.62 54.82,127.62 56.27,127.62 57.73,127.62 59.19,127.62 60.65,127.62 62.11,127.62 63.57,127.62 65.03,127.62 66.49,127.62 67.95,127.62 69.41,126.86 70.87,126.86 72.33,126.85 73.79,126.85 75.25,126.85 76.71,126.85 78.17,126.80 79.63,126.80 81.09,126.80 82.55,126.80 84.01,126.80 85.47,126.80 86.93,126.80 88.39,126.80 89.85,126.80 91.31,126.80 92.77,126.80 94.23,126.80 95.69,126.80 97.15,126.80 98.61,126.80 100.07,126.80 101.53,126.80 102.99,126.80 104.45,126.76 105.90,126.08 107.36,125.45 108.82,125.20 110.28,123.96 111.74,123.96 113.20,123.96 114.66,123.96 116.12,123.96 117.58,123.96 119.04,123.96 120.50,123.96 121.96,123.96 123.42,123.96 124.88,123.96 126.34,123.96 127.80,123.87 129.26,123.87 130.72,123.87 132.18,123.76 133.64,123.76 135.10,123.76 136.56,123.76 138.02,123.73 139.48,123.73 140.94,123.73 142.40,123.73 143.86,123.71 145.32,123.71 146.78,123.71 148.24,123.71 149.70,123.71 151.16,123.71 152.62,123.71 154.08,123.71 155.53,123.71 156.99,123.71 158.45,123.71 159.91,123.71 161.37,123.71 162.83,123.71 164.29,123.71 165.75,123.71 167.21,123.71 168.67,123.71 170.13,123.71 171.59,123.71 173.05,123.71 174.51,123.71 175.97,123.71 177.43,123.67 178.89,123.67 180.35,123.67 181.81,123.67 183.27,123.67 184.73,123.67 186.19,123.67 187.65,123.67 189.11,123.67 190.57,123.67 192.03,123.67 193.49,123.67 194.95,123.67 196.41,123.67 197.87,123.67 199.33,123.65 200.79,123.36 202.25,123.28 203.71,123.16 205.16,123.00 206.62,122.96 208.08,122.96 209.54,122.96 211.00,122.71 212.46,122.69 213.92,122.54 215.38,122.48 216.84,122.38 218.30,121.99 219.76,121.97 221.22,121.91 222.68,121.90 224.14,121.84 225.60,121.84 227.06,121.82 228.52,121.82 229.98,121.82 231.44,121.82 232.90,121.82 234.36,121.82 235.82,121.82 237.28,121.70 238.74,121.34 240.20,121.08 241.66,121.00 243.12,120.83 244.58,120.82 246.04,120.80 247.50,120.79 248.96,120.79 250.42,120.79 251.88,120.71 253.34,120.63 254.79,120.61 256.25,120.59 257.71,120.56 259.17,120.31 260.63,120.13 262.09,119.86 263.55,119.69 265.01,119.57 266.47,119.52 267.93,119.45 269.39,119.44 270.85,119.38 272.31,119.22 273.77,119.22 275.23,119.22 276.69,119.20 278.15,119.19 279.61,119.19 281.07,119.10 282.53,119.08 283.99,119.07 285.45,119.06 286.91,119.04 288.37,119.04 289.83,119.04 291.29,119.04 292.75,119.04 294.21,119.04 295.67,119.04 297.13,119.04 298.59,119.00 300.05,118.97 301.51,118.97 302.97,118.77 304.42,118.76 305.88,118.75 307.34,118.71 308.80,118.61 310.26,118.37 311.72,118.32 313.18,118.32 314.64,118.32 316.10,118.32 317.56,118.32 319.02,118.32 320.48,118.32 321.94,118.32 323.40,118.32 324.86,118.32 326.32,118.32 327.78,118.32 329.24,118.32 330.70,118.31 332.16,118.25 333.62,118.24 335.08,118.24 336.54,118.24 338.00,118.24 339.46,118.19 340.92,118.19 342.38,118.01 343.84,117.85 345.30,117.85 346.76,117.85 348.22,117.85 349.68,117.85 351.14,117.82 352.60,117.82 354.05,117.80 355.51,117.72 356.97,117.66 358.43,117.36 359.89,117.34 361.35,116.89 362.81,116.62 364.27,116.42 365.73,115.78 367.19,115.62 368.65,115.55 370.11,115.34 371.57,115.02 373.03,114.94 374.49,114.83 375.95,114.65 377.41,114.49 378.87,114.43 380.33,114.31 381.79,114.24 383.25,114.04 384.71,113.86 386.17,113.65 387.63,113.30 389.09,113.10 390.55,112.11 392.01,111.36 393.47,110.88 394.93,110.47 396.39,110.01 397.85,110.01 399.31,110.01 400.77,110.01 402.23,109.72 403.68,109.56 405.14,108.95 406.60,108.28 408.06,107.48 409.52,106.29 410.98,105.46 412.44,103.74 413.90,102.70 415.36,102.01 416.82,100.90 418.28,100.19 419.74,98.77 421.20,96.63 422.66,95.99 424.12,95.15 425.58,94.35 427.04,94.08 428.50,93.06 429.96,92.88 431.42,91.65 432.88,90.54 434.34,89.87 435.80,89.11 437.26,88.11 438.72,87.84 440.18,87.75 441.64,87.64 443.10,87.58 444.56,86.94 446.02,86.12 447.48,85.11 448.94,84.84 450.40,84.02 451.86,82.97 453.31,80.89 454.77,79.35 456.23,77.46 457.69,76.96 459.15,75.96 460.61,74.10 462.07,73.04 463.53,72.46 464.99,71.64 466.45,71.11 467.91,70.34 469.37,69.98 470.83,69.20 472.29,67.72 473.75,66.09 475.21,65.58 476.67,64.66 478.13,62.97 479.59,62.10 481.05,59.99 482.51,58.99 483.97,57.16 485.43,55.38 486.89,53.23 488.35,50.00 489.81,47.86 491.27,46.02 492.73,44.84 494.19,43.31 495.65,41.94 497.11,41.27 498.57,40.16 500.03,38.81 501.49,38.05 502.94,36.90 504.40,36.02 505.86,35.18 507.32,33.92 508.78,31.63" />
    </svg>
  