
    <svg width="540" height="160" xmlns="http://www.w3.org/2000/svg">
      <style>.line{fill:none;stroke:#388bfd;stroke-width:1.5}.axis{stroke:#555;stroke-width:1;opacity:0.5}.label{fill:#999;font-family:sans-serif;font-size:10px;text-anchor:middle}</style>
      <line class="axis" x1="30" y1="30" x2="30" y2="130" />
      <line class="axis" x1="30" y1="130" x2="510" y2="130" />
      <text class="label" x="15" y="30">9,308</text>
      <text class="label" x="15" y="134">0</text>
      <text class="label" x="30" y="148">2021</text>
      <text class="label" x="510" y="148">2026</text>
      <polyline class="line" points="30.00,129.98 31.44,129.97 32.89,129.96 34.33,129.96 35.77,129.96 37.21,129.82 38.66,129.82 40.10,129.82 41.54,129.04 42.99,127.77 44.43,127.70 45.87,127.70 47.31,127.70 48.76,127.70 50.20,127.70 51.64,127.70 53.09,127.70 54.53,127.70 55.97,127.70 57.41,127.70 58.86,127.70 60.30,127.70 61.74,127.70 63.19,127.70 64.63,127.70 66.07,127.70 67.52,127.70 68.96,126.97 70.40,126.97 71.84,126.96 73.29,126.96 74.73,126.96 76.17,126.96 77.62,126.92 79.06,126.92 80.50,126.92 81.94,126.92 83.39,126.92 84.83,126.92 86.27,126.92 87.72,126.92 89.16,126.92 90.60,126.92 92.04,126.92 93.49,126.92 94.93,126.92 96.37,126.92 97.82,126.92 99.26,126.92 100.70,126.92 102.14,126.92 103.59,126.87 105.03,126.22 106.47,125.62 107.92,125.37 109.36,124.18 110.80,124.18 112.24,124.18 113.69,124.18 115.13,124.18 116.57,124.18 118.02,124.18 119.46,124.18 120.90,124.18 122.34,124.18 123.79,124.18 125.23,124.18 126.67,124.09 128.12,124.09 129.56,124.09 131.00,123.98 132.44,123.98 133.89,123.98 135.33,123.98 136.77,123.95 138.22,123.95 139.66,123.95 141.10,123.95 142.55,123.93 143.99,123.93 145.43,123.93 146.87,123.93 148.32,123.93 149.76,123.93 151.20,123.93 152.65,123.93 154.09,123.93 155.53,123.93 156.97,123.93 158.42,123.93 159.86,123.93 161.30,123.93 162.75,123.93 164.19,123.93 165.63,123.93 167.07,123.93 168.52,123.93 169.96,123.93 171.40,123.93 172.85,123.93 174.29,123.93 175.73,123.90 177.17,123.90 178.62,123.90 180.06,123.90 181.50,123.90 182.95,123.90 184.39,123.90 185.83,123.90 187.27,123.90 188.72,123.90 190.16,123.90 191.60,123.90 193.05,123.90 194.49,123.90 195.93,123.90 197.37,123.88 198.82,123.60 200.26,123.52 201.70,123.40 203.15,123.25 204.59,123.21 206.03,123.21 207.47,123.21 208.92,122.97 210.36,122.95 211.80,122.80 213.25,122.75 214.69,122.65 216.13,122.28 217.58,122.25 219.02,122.20 220.46,122.19 221.90,122.14 223.35,122.14 224.79,122.11 226.23,122.11 227.68,122.11 229.12,122.11 230.56,122.11 232.00,122.11 233.45,122.11 234.89,122.00 236.33,121.65 237.78,121.39 239.22,121.32 240.66,121.16 242.10,121.15 243.55,121.13 244.99,121.12 246.43,121.12 247.88,121.12 249.32,121.04 250.76,120.96 252.20,120.94 253.65,120.92 255.09,120.90 256.53,120.65 257.98,120.48 259.42,120.22 260.86,120.06 262.30,119.94 263.75,119.89 265.19,119.83 266.63,119.82 268.08,119.76 269.52,119.60 270.96,119.60 272.40,119.60 273.85,119.59 275.29,119.58 276.73,119.58 278.18,119.49 279.62,119.47 281.06,119.46 282.51,119.45 283.95,119.43 285.39,119.43 286.83,119.43 288.28,119.43 289.72,119.43 291.16,119.43 292.61,119.43 294.05,119.43 295.49,119.40 296.93,119.36 298.38,119.36 299.82,119.17 301.26,119.16 302.71,119.15 304.15,119.12 305.59,119.02 307.03,118.78 308.48,118.74 309.92,118.74 311.36,118.74 312.81,118.74 314.25,118.74 315.69,118.74 317.13,118.74 318.58,118.74 320.02,118.74 321.46,118.74 322.91,118.74 324.35,118.74 325.79,118.74 327.23,118.73 328.68,118.67 330.12,118.65 331.56,118.65 333.01,118.65 334.45,118.65 335.89,118.61 337.33,118.61 338.78,118.44 340.22,118.28 341.66,118.28 343.11,118.28 344.55,118.28 345.99,118.28 347.43,118.26 348.88,118.26 350.32,118.24 351.76,118.16 353.21,118.10 354.65,117.81 356.09,117.80 357.54,117.35 358.98,117.10 360.42,116.90 361.86,116.29 363.31,116.13 364.75,116.07 366.19,115.86 367.64,115.55 369.08,115.47 370.52,115.37 371.96,115.20 373.41,115.05 374.85,114.98 376.29,114.87 377.74,114.80 379.18,114.60 380.62,114.43 382.06,114.23 383.51,113.90 384.95,113.70 386.39,112.75 387.84,112.03 389.28,111.56 390.72,111.17 392.16,110.73 393.61,110.73 395.05,110.73 396.49,110.73 397.94,110.45 399.38,110.29 400.82,109.71 402.26,109.05 403.71,108.29 405.15,107.14 406.59,106.33 408.04,104.68 409.48,103.68 410.92,103.01 412.36,101.94 413.81,101.25 415.25,99.89 416.69,97.82 418.14,97.20 419.58,96.39 421.02,95.62 422.46,95.36 423.91,94.37 425.35,94.20 426.79,93.02 428.24,91.95 429.68,91.30 431.12,90.57 432.57,89.60 434.01,89.35 435.45,89.26 436.89,89.15 438.34,89.09 439.78,88.48 441.22,87.68 442.67,86.71 444.11,86.45 445.55,85.66 446.99,84.65 448.44,82.64 449.88,81.16 451.32,79.33 452.77,78.85 454.21,77.88 455.65,76.09 457.09,75.07 458.54,74.51 459.98,73.73 461.42,73.21 462.87,72.47 464.31,72.13 465.75,71.37 467.19,69.94 468.64,68.36 470.08,67.88 471.52,66.99 472.97,65.36 474.41,64.52 475.85,62.49 477.29,61.52 478.74,59.76 480.18,58.04 481.62,55.97 483.07,52.85 484.51,50.79 485.95,49.02 487.39,47.88 488.84,46.41 490.28,45.08 491.72,44.44 493.17,43.36 494.61,42.06 496.05,41.33 497.49,40.22 498.94,39.37 500.38,38.56 501.82,37.35 503.27,35.14 504.71,33.36 506.15,31.87 507.60,30.63 509.04,30.18" />
    </svg>
  