
    <svg width="540" height="160" xmlns="http://www.w3.org/2000/svg">
      <style>.line{fill:none;stroke:#388bfd;stroke-width:1.5}.axis{stroke:#555;stroke-width:1;opacity:0.5}.label{fill:#999;font-family:sans-serif;font-size:10px;text-anchor:middle}</style>
      <line class="axis" x1="30" y1="30" x2="30" y2="130" />
      <line class="axis" x1="30" y1="130" x2="510" y2="130" />
      <text class="label" x="15" y="30">9,371</text>
      <text class="label" x="15" y="134">0</text>
      <text class="label" x="30" y="148">2021</text>
      <text class="label" x="510" y="148">2026</text>
      <polyline class="line" points="30.00,129.98 31.44,129.97 32.88,129.96 34.32,129.96 35.75,129.96 37.19,129.82 38.63,129.82 40.07,129.82 41.51,129.05 42.95,127.78 44.39,127.72 45.82,127.72 47.26,127.72 48.70,127.72 50.14,127.72 51.58,127.72 53.02,127.72 54.46,127.72 55.89,127.72 57.33,127.72 58.77,127.72 60.21,127.72 61.65,127.72 63.09,127.72 64.53,127.72 65.96,127.72 67.40,127.72 68.84,126.99 70.28,126.99 71.72,126.98 73.16,126.98 74.60,126.98 76.03,126.98 77.47,126.94 78.91,126.94 80.35,126.94 81.79,126.94 83.23,126.94 84.67,126.94 86.10,126.94 87.54,126.94 88.98,126.94 90.42,126.94 91.86,126.94 93.30,126.94 94.74,126.94 96.17,126.94 97.61,126.94 99.05,126.94 100.49,126.94 101.93,126.94 103.37,126.89 104.81,126.24 106.24,125.65 107.68,125.40 109.12,124.22 110.56,124.22 112.00,124.22 113.44,124.22 114.88,124.22 116.31,124.22 117.75,124.22 119.19,124.22 120.63,124.22 122.07,124.22 123.51,124.22 124.95,124.22 126.38,124.13 127.82,124.13 129.26,124.13 130.70,124.02 132.14,124.02 133.58,124.02 135.01,124.02 136.45,123.99 137.89,123.99 139.33,123.99 140.77,123.99 142.21,123.97 143.65,123.97 145.08,123.97 146.52,123.97 147.96,123.97 149.40,123.97 150.84,123.97 152.28,123.97 153.72,123.97 155.15,123.97 156.59,123.97 158.03,123.97 159.47,123.97 160.91,123.97 162.35,123.97 163.79,123.97 165.22,123.97 166.66,123.97 168.10,123.97 169.54,123.97 170.98,123.97 172.42,123.97 173.86,123.97 175.29,123.94 176.73,123.94 178.17,123.94 179.61,123.94 181.05,123.94 182.49,123.94 183.93,123.94 185.36,123.94 186.80,123.94 188.24,123.94 189.68,123.94 191.12,123.94 192.56,123.94 194.00,123.94 195.43,123.94 196.87,123.92 198.31,123.64 199.75,123.57 201.19,123.45 202.63,123.30 204.07,123.26 205.50,123.26 206.94,123.26 208.38,123.02 209.82,123.00 211.26,122.85 212.70,122.80 214.14,122.70 215.57,122.33 217.01,122.31 218.45,122.25 219.89,122.24 221.33,122.19 222.77,122.19 224.21,122.17 225.64,122.17 227.08,122.17 228.52,122.17 229.96,122.17 231.40,122.17 232.84,122.17 234.28,122.05 235.71,121.71 237.15,121.45 238.59,121.38 240.03,121.22 241.47,121.21 242.91,121.19 244.35,121.17 245.78,121.17 247.22,121.17 248.66,121.10 250.10,121.03 251.54,121.00 252.98,120.98 254.42,120.96 255.85,120.72 257.29,120.55 258.73,120.29 260.17,120.13 261.61,120.01 263.05,119.96 264.49,119.89 265.92,119.88 267.36,119.83 268.80,119.67 270.24,119.67 271.68,119.67 273.12,119.66 274.56,119.65 275.99,119.65 277.43,119.56 278.87,119.54 280.31,119.53 281.75,119.52 283.19,119.50 284.63,119.50 286.06,119.50 287.50,119.50 288.94,119.50 290.38,119.50 291.82,119.50 293.26,119.50 294.70,119.47 296.13,119.44 297.57,119.44 299.01,119.24 300.45,119.23 301.89,119.22 303.33,119.19 304.77,119.09 306.20,118.86 307.64,118.82 309.08,118.82 310.52,118.82 311.96,118.82 313.40,118.82 314.84,118.82 316.27,118.82 317.71,118.82 319.15,118.82 320.59,118.82 322.03,118.82 323.47,118.82 324.91,118.82 326.34,118.81 327.78,118.74 329.22,118.73 330.66,118.73 332.10,118.73 333.54,118.73 334.98,118.69 336.41,118.69 337.85,118.52 339.29,118.36 340.73,118.36 342.17,118.36 343.61,118.36 345.04,118.36 346.48,118.34 347.92,118.34 349.36,118.32 350.80,118.24 352.24,118.18 353.68,117.89 355.11,117.88 356.55,117.44 357.99,117.18 359.43,116.99 360.87,116.38 362.31,116.22 363.75,116.16 365.18,115.96 366.62,115.65 368.06,115.57 369.50,115.47 370.94,115.30 372.38,115.15 373.82,115.08 375.25,114.97 376.69,114.90 378.13,114.71 379.57,114.54 381.01,114.33 382.45,114.00 383.89,113.81 385.32,112.86 386.76,112.15 388.20,111.69 389.64,111.29 391.08,110.86 392.52,110.86 393.96,110.86 395.39,110.86 396.83,110.58 398.27,110.42 399.71,109.84 401.15,109.19 402.59,108.43 404.03,107.29 405.46,106.49 406.90,104.85 408.34,103.86 409.78,103.19 411.22,102.13 412.66,101.44 414.10,100.09 415.53,98.04 416.97,97.42 418.41,96.62 419.85,95.85 421.29,95.60 422.73,94.61 424.17,94.44 425.60,93.27 427.04,92.20 428.48,91.56 429.92,90.84 431.36,89.88 432.80,89.62 434.24,89.53 435.67,89.43 437.11,89.36 438.55,88.76 439.99,87.97 441.43,87.01 442.87,86.74 444.31,85.96 445.74,84.96 447.18,82.96 448.62,81.49 450.06,79.67 451.50,79.19 452.94,78.23 454.38,76.45 455.81,75.44 457.25,74.88 458.69,74.10 460.13,73.59 461.57,72.86 463.01,72.51 464.45,71.77 465.88,70.35 467.32,68.78 468.76,68.30 470.20,67.41 471.64,65.79 473.08,64.96 474.52,62.94 475.95,61.98 477.39,60.23 478.83,58.52 480.27,56.46 481.71,53.37 483.15,51.32 484.59,49.56 486.02,48.43 487.46,46.97 488.90,45.65 490.34,45.01 491.78,43.95 493.22,42.66 494.66,41.93 496.09,40.82 497.53,39.98 498.97,39.18 500.41,37.97 501.85,35.77 503.29,34.01 504.73,32.53 506.16,31.30 507.60,30.85 509.04,30.28" />
    </svg>
  