
    <svg width="540" height="160" xmlns="http://www.w3.org/2000/svg">
      <style>.line{fill:none;stroke:#388bfd;stroke-width:1.5}.axis{stroke:#555;stroke-width:1;opacity:0.5}.label{fill:#999;font-family:sans-serif;font-size:10px;text-anchor:middle}</style>
      <line class="axis" x1="30" y1="30" x2="30" y2="130" />
      <line class="axis" x1="30" y1="130" x2="510" y2="130" />
      <text class="label" x="15" y="30">4,950</text>
      <text class="label" x="15" y="134">0</text>
      <text class="label" x="30" y="148">2021</text>
      <text class="label" x="510" y="148">2026</text>
      <polyline class="line" points="30.00,129.96 31.53,129.94 33.05,129.92 34.58,129.92 36.11,129.92 37.64,129.66 39.16,129.66 40.69,129.66 42.22,128.20 43.74,125.80 45.27,125.68 46.80,125.68 48.32,125.68 49.85,125.68 51.38,125.68 52.91,125.68 54.43,125.68 55.96,125.68 57.49,125.68 59.01,125.68 60.54,125.68 62.07,125.68 63.59,125.68 65.12,125.68 66.65,125.68 68.18,125.68 69.70,125.68 71.23,124.30 72.76,124.30 74.28,124.28 75.81,124.28 77.34,124.28 78.87,124.28 80.39,124.20 81.92,124.20 83.45,124.20 84.97,124.20 86.50,124.20 88.03,124.20 89.55,124.20 91.08,124.20 92.61,124.20 94.14,124.20 95.66,124.20 97.19,124.20 98.72,124.20 100.24,124.20 101.77,124.20 103.30,124.20 104.83,124.20 106.35,124.20 107.88,124.12 109.41,122.89 110.93,121.76 112.46,121.29 113.99,119.05 115.51,119.05 117.04,119.05 118.57,119.05 120.10,119.05 121.62,119.05 123.15,119.05 124.68,119.05 126.20,119.05 127.73,119.05 129.26,119.05 130.78,119.05 132.31,118.89 133.84,118.89 135.37,118.89 136.89,118.69 138.42,118.69 139.95,118.69 141.47,118.69 143.00,118.63 144.53,118.63 146.06,118.63 147.58,118.63 149.11,118.59 150.64,118.59 152.16,118.59 153.69,118.59 155.22,118.59 156.74,118.59 158.27,118.59 159.80,118.59 161.33,118.59 162.85,118.59 164.38,118.59 165.91,118.59 167.43,118.59 168.96,118.59 170.49,118.59 172.01,118.59 173.54,118.59 175.07,118.59 176.60,118.59 178.12,118.59 179.65,118.59 181.18,118.59 182.70,118.59 184.23,118.53 185.76,118.53 187.29,118.53 188.81,118.53 190.34,118.53 191.87,118.53 193.39,118.53 194.92,118.53 196.45,118.53 197.97,118.53 199.50,118.53 201.03,118.53 202.56,118.53 204.08,118.53 205.61,118.53 207.14,118.48 208.66,117.96 210.19,117.82 211.72,117.60 213.24,117.31 214.77,117.23 216.30,117.23 217.83,117.23 219.35,116.79 220.88,116.75 222.41,116.46 223.93,116.36 225.46,116.18 226.99,115.47 228.52,115.43 230.04,115.33 231.57,115.31 233.10,115.21 234.62,115.21 236.15,115.17 237.68,115.17 239.20,115.17 240.73,115.17 242.26,115.17 243.79,115.17 245.31,115.17 246.84,114.95 248.37,114.30 249.89,113.82 251.42,113.68 252.95,113.37 254.48,113.35 256.00,113.31 257.53,113.29 259.06,113.29 260.58,113.29 262.11,113.15 263.64,113.01 265.16,112.97 266.69,112.93 268.22,112.89 269.75,112.42 271.27,112.10 272.80,111.62 274.33,111.31 275.85,111.09 277.38,110.99 278.91,110.87 280.43,110.85 281.96,110.75 283.49,110.44 285.02,110.44 286.54,110.44 288.07,110.42 289.60,110.40 291.12,110.40 292.65,110.24 294.18,110.20 295.71,110.18 297.23,110.16 298.76,110.12 300.29,110.12 301.81,110.12 303.34,110.12 304.87,110.12 306.39,110.12 307.92,110.12 309.45,110.12 310.98,110.06 312.50,110.00 314.03,110.00 315.56,109.64 317.08,109.62 318.61,109.60 320.14,109.54 321.66,109.35 323.19,108.91 324.72,108.83 326.25,108.83 327.77,108.83 329.30,108.83 330.83,108.83 332.35,108.83 333.88,108.83 335.41,108.83 336.94,108.83 338.46,108.83 339.99,108.83 341.52,108.83 343.04,108.83 344.57,108.81 346.10,108.69 347.62,108.67 349.15,108.67 350.68,108.67 352.21,108.67 353.73,108.59 355.26,108.59 356.79,108.26 358.31,107.96 359.84,107.96 361.37,107.96 362.90,107.96 364.42,107.96 365.95,107.92 367.48,107.92 369.00,107.88 370.53,107.74 372.06,107.62 373.58,107.07 375.11,107.05 376.64,106.22 378.17,105.74 379.69,105.37 381.22,104.22 382.75,103.92 384.27,103.80 385.80,103.41 387.33,102.83 388.85,102.69 390.38,102.48 391.91,102.16 393.44,101.88 394.96,101.76 396.49,101.56 398.02,101.41 399.54,101.05 401.07,100.73 402.60,100.34 404.13,99.72 405.65,99.35 407.18,97.56 408.71,96.20 410.23,95.33 411.76,94.59 413.29,93.76 414.81,93.76 416.34,93.76 417.87,93.76 419.40,93.23 420.92,92.93 422.45,92.26 423.98,91.49 425.50,90.44 427.03,88.79 428.56,87.86 430.08,86.16 431.61,85.17 433.14,84.55 434.67,83.52 436.19,82.71 437.72,81.33 439.25,79.33 440.77,78.75 442.30,77.90 443.83,77.17 445.36,76.93 446.88,76.00 448.41,75.84 449.94,74.73 451.46,73.72 452.99,73.11 454.52,72.40 456.04,71.43 457.57,71.15 459.10,71.01 460.63,70.87 462.15,70.75 463.68,69.98 465.21,69.11 466.73,67.74 468.26,67.33 469.79,66.63 471.31,65.47 472.84,62.91 474.37,60.97 475.90,58.81 477.42,58.34 478.95,57.39 480.48,55.47 482.00,54.30 483.53,53.66 485.06,52.69 486.59,52.18 488.11,51.47 489.64,51.15 491.17,50.06 492.69,48.42 494.22,46.87 495.75,46.40 497.27,45.60 498.80,44.14 500.33,43.05 501.86,41.43 503.38,40.61 504.91,38.95 506.44,36.75 507.96,34.87 509.49,30.89" />
    </svg>
  