
    <svg width="540" height="160" xmlns="http://www.w3.org/2000/svg">
      <style>.line{fill:none;stroke:#388bfd;stroke-width:1.5}.axis{stroke:#555;stroke-width:1;opacity:0.5}.label{fill:#999;font-family:sans-serif;font-size:10px;text-anchor:middle}</style>
      <line class="axis" x1="30" y1="30" x2="30" y2="130" />
      <line class="axis" x1="30" y1="130" x2="510" y2="130" />
      <text class="label" x="15" y="30">9,437</text>
      <text class="label" x="15" y="134">0</text>
      <text class="label" x="30" y="148">2021</text>
      <text class="label" x="510" y="148">2026</text>
      <polyline class="line" points="30.00,129.98 31.43,129.97 32.87,129.96 34.30,129.96 35.73,129.96 37.16,129.82 38.60,129.82 40.03,129.82 41.46,129.06 42.90,127.80 44.33,127.73 45.76,127.73 47.19,127.73 48.63,127.73 50.06,127.73 51.49,127.73 52.93,127.73 54.36,127.73 55.79,127.73 57.22,127.73 58.66,127.73 60.09,127.73 61.52,127.73 62.96,127.73 64.39,127.73 65.82,127.73 67.25,127.73 68.69,127.01 70.12,127.01 71.55,127.00 72.99,127.00 74.42,127.00 75.85,127.00 77.28,126.96 78.72,126.96 80.15,126.96 81.58,126.96 83.01,126.96 84.45,126.96 85.88,126.96 87.31,126.96 88.75,126.96 90.18,126.96 91.61,126.96 93.04,126.96 94.48,126.96 95.91,126.96 97.34,126.96 98.78,126.96 100.21,126.96 101.64,126.96 103.07,126.92 104.51,126.27 105.94,125.68 107.37,125.43 108.81,124.26 110.24,124.26 111.67,124.26 113.10,124.26 114.54,124.26 115.97,124.26 117.40,124.26 118.84,124.26 120.27,124.26 121.70,124.26 123.13,124.26 124.57,124.26 126.00,124.17 127.43,124.17 128.87,124.17 130.30,124.07 131.73,124.07 133.16,124.07 134.60,124.07 136.03,124.03 137.46,124.03 138.90,124.03 140.33,124.03 141.76,124.01 143.19,124.01 144.63,124.01 146.06,124.01 147.49,124.01 148.93,124.01 150.36,124.01 151.79,124.01 153.22,124.01 154.66,124.01 156.09,124.01 157.52,124.01 158.96,124.01 160.39,124.01 161.82,124.01 163.25,124.01 164.69,124.01 166.12,124.01 167.55,124.01 168.99,124.01 170.42,124.01 171.85,124.01 173.28,124.01 174.72,123.98 176.15,123.98 177.58,123.98 179.01,123.98 180.45,123.98 181.88,123.98 183.31,123.98 184.75,123.98 186.18,123.98 187.61,123.98 189.04,123.98 190.48,123.98 191.91,123.98 193.34,123.98 194.78,123.98 196.21,123.96 197.64,123.68 199.07,123.61 200.51,123.49 201.94,123.35 203.37,123.30 204.81,123.30 206.24,123.30 207.67,123.07 209.10,123.05 210.54,122.90 211.97,122.85 213.40,122.75 214.84,122.38 216.27,122.36 217.70,122.31 219.13,122.30 220.57,122.24 222.00,122.24 223.43,122.22 224.87,122.22 226.30,122.22 227.73,122.22 229.16,122.22 230.60,122.22 232.03,122.22 233.46,122.11 234.90,121.77 236.33,121.51 237.76,121.44 239.19,121.28 240.63,121.27 242.06,121.25 243.49,121.24 244.93,121.24 246.36,121.24 247.79,121.16 249.22,121.09 250.66,121.07 252.09,121.05 253.52,121.02 254.96,120.78 256.39,120.61 257.82,120.36 259.25,120.20 260.69,120.08 262.12,120.03 263.55,119.97 264.99,119.95 266.42,119.90 267.85,119.74 269.28,119.74 270.72,119.74 272.15,119.73 273.58,119.72 275.01,119.72 276.45,119.64 277.88,119.62 279.31,119.60 280.75,119.59 282.18,119.57 283.61,119.57 285.04,119.57 286.48,119.57 287.91,119.57 289.34,119.57 290.78,119.57 292.21,119.57 293.64,119.54 295.07,119.51 296.51,119.51 297.94,119.32 299.37,119.31 300.81,119.30 302.24,119.27 303.67,119.17 305.10,118.94 306.54,118.89 307.97,118.89 309.40,118.89 310.84,118.89 312.27,118.89 313.70,118.89 315.13,118.89 316.57,118.89 318.00,118.89 319.43,118.89 320.87,118.89 322.30,118.89 323.73,118.89 325.16,118.88 326.60,118.82 328.03,118.81 329.46,118.81 330.90,118.81 332.33,118.81 333.76,118.77 335.19,118.77 336.63,118.60 338.06,118.44 339.49,118.44 340.93,118.44 342.36,118.44 343.79,118.44 345.22,118.42 346.66,118.42 348.09,118.40 349.52,118.32 350.96,118.26 352.39,117.97 353.82,117.96 355.25,117.53 356.69,117.27 358.12,117.08 359.55,116.48 360.99,116.32 362.42,116.26 363.85,116.05 365.28,115.75 366.72,115.67 368.15,115.57 369.58,115.40 371.01,115.25 372.45,115.19 373.88,115.08 375.31,115.01 376.75,114.82 378.18,114.65 379.61,114.44 381.04,114.12 382.48,113.92 383.91,112.98 385.34,112.27 386.78,111.82 388.21,111.42 389.64,110.99 391.07,110.99 392.51,110.99 393.94,110.99 395.37,110.71 396.81,110.56 398.24,109.98 399.67,109.34 401.10,108.58 402.54,107.45 403.97,106.66 405.40,105.02 406.84,104.04 408.27,103.38 409.70,102.32 411.13,101.64 412.57,100.30 414.00,98.26 415.43,97.65 416.87,96.85 418.30,96.09 419.73,95.84 421.16,94.86 422.60,94.69 424.03,93.53 425.46,92.47 426.90,91.83 428.33,91.11 429.76,90.16 431.19,89.90 432.63,89.82 434.06,89.71 435.49,89.65 436.93,89.04 438.36,88.26 439.79,87.31 441.22,87.04 442.66,86.27 444.09,85.27 445.52,83.29 446.96,81.83 448.39,80.03 449.82,79.55 451.25,78.60 452.69,76.83 454.12,75.82 455.55,75.27 456.99,74.50 458.42,73.99 459.85,73.26 461.28,72.92 462.72,72.17 464.15,70.77 465.58,69.21 467.01,68.73 468.45,67.85 469.88,66.24 471.31,65.41 472.75,63.41 474.18,62.46 475.61,60.72 477.04,59.02 478.48,56.98 479.91,53.91 481.34,51.87 482.78,50.12 484.21,49.00 485.64,47.55 487.07,46.24 488.51,45.61 489.94,44.55 491.37,43.27 492.81,42.55 494.24,41.44 495.67,40.61 497.10,39.81 498.54,38.62 499.97,36.43 501.40,34.68 502.84,33.21 504.27,31.99 505.70,31.55 507.13,30.97 508.57,30.51 510.00,30.00" />
    </svg>
  