
    <svg width="540" height="160" xmlns="http://www.w3.org/2000/svg">
      <style>.line{fill:none;stroke:#388bfd;stroke-width:1.5}.axis{stroke:#555;stroke-width:1;opacity:0.5}.label{fill:#999;font-family:sans-serif;font-size:10px;text-anchor:middle}</style>
      <line class="axis" x1="30" y1="30" x2="30" y2="130" />
      <line class="axis" x1="30" y1="130" x2="510" y2="130" />
      <text class="label" x="15" y="30">9,263</text>
      <text class="label" x="15" y="134">0</text>
      <text class="label" x="30" y="148">2021</text>
      <text class="label" x="510" y="148">2026</text>
      <polyline class="line" points="30.00,129.98 31.45,129.97 32.89,129.96 34.34,129.96 35.79,129.96 37.24,129.82 38.68,129.82 40.13,129.82 41.58,129.04 43.03,127.75 44.47,127.69 45.92,127.69 47.37,127.69 48.81,127.69 50.26,127.69 51.71,127.69 53.16,127.69 54.60,127.69 56.05,127.69 57.50,127.69 58.94,127.69 60.39,127.69 61.84,127.69 63.29,127.69 64.73,127.69 66.18,127.69 67.63,127.69 69.08,126.96 70.52,126.96 71.97,126.94 73.42,126.94 74.86,126.94 76.31,126.94 77.76,126.90 79.21,126.90 80.65,126.90 82.10,126.90 83.55,126.90 84.99,126.90 86.44,126.90 87.89,126.90 89.34,126.90 90.78,126.90 92.23,126.90 93.68,126.90 95.13,126.90 96.57,126.90 98.02,126.90 99.47,126.90 100.91,126.90 102.36,126.90 103.81,126.86 105.26,126.20 106.70,125.60 108.15,125.35 109.60,124.15 111.05,124.15 112.49,124.15 113.94,124.15 115.39,124.15 116.83,124.15 118.28,124.15 119.73,124.15 121.18,124.15 122.62,124.15 124.07,124.15 125.52,124.15 126.96,124.06 128.41,124.06 129.86,124.06 131.31,123.95 132.75,123.95 134.20,123.95 135.65,123.95 137.10,123.92 138.54,123.92 139.99,123.92 141.44,123.92 142.88,123.90 144.33,123.90 145.78,123.90 147.23,123.90 148.67,123.90 150.12,123.90 151.57,123.90 153.02,123.90 154.46,123.90 155.91,123.90 157.36,123.90 158.80,123.90 160.25,123.90 161.70,123.90 163.15,123.90 164.59,123.90 166.04,123.90 167.49,123.90 168.93,123.90 170.38,123.90 171.83,123.90 173.28,123.90 174.72,123.90 176.17,123.87 177.62,123.87 179.07,123.87 180.51,123.87 181.96,123.87 183.41,123.87 184.85,123.87 186.30,123.87 187.75,123.87 189.20,123.87 190.64,123.87 192.09,123.87 193.54,123.87 194.98,123.87 196.43,123.87 197.88,123.85 199.33,123.57 200.77,123.49 202.22,123.37 203.67,123.22 205.12,123.18 206.56,123.18 208.01,123.18 209.46,122.94 210.90,122.92 212.35,122.77 213.80,122.71 215.25,122.62 216.69,122.24 218.14,122.22 219.59,122.16 221.04,122.15 222.48,122.10 223.93,122.10 225.38,122.08 226.82,122.08 228.27,122.08 229.72,122.08 231.17,122.08 232.61,122.08 234.06,122.08 235.51,121.96 236.95,121.61 238.40,121.35 239.85,121.28 241.30,121.12 242.74,121.10 244.19,121.08 245.64,121.07 247.09,121.07 248.53,121.07 249.98,121.00 251.43,120.92 252.87,120.90 254.32,120.88 255.77,120.86 257.22,120.61 258.66,120.44 260.11,120.18 261.56,120.01 263.01,119.90 264.45,119.84 265.90,119.78 267.35,119.77 268.79,119.71 270.24,119.55 271.69,119.55 273.14,119.55 274.58,119.54 276.03,119.53 277.48,119.53 278.92,119.44 280.37,119.42 281.82,119.41 283.27,119.40 284.71,119.38 286.16,119.38 287.61,119.38 289.06,119.38 290.50,119.38 291.95,119.38 293.40,119.38 294.84,119.38 296.29,119.34 297.74,119.31 299.19,119.31 300.63,119.12 302.08,119.11 303.53,119.10 304.97,119.06 306.42,118.97 307.87,118.73 309.32,118.69 310.76,118.69 312.21,118.69 313.66,118.69 315.11,118.69 316.55,118.69 318.00,118.69 319.45,118.69 320.89,118.69 322.34,118.69 323.79,118.69 325.24,118.69 326.68,118.69 328.13,118.68 329.58,118.61 331.03,118.60 332.47,118.60 333.92,118.60 335.37,118.60 336.81,118.56 338.26,118.56 339.71,118.38 341.16,118.22 342.60,118.22 344.05,118.22 345.50,118.22 346.94,118.22 348.39,118.20 349.84,118.20 351.29,118.18 352.73,118.10 354.18,118.04 355.63,117.75 357.08,117.74 358.52,117.29 359.97,117.03 361.42,116.84 362.86,116.22 364.31,116.06 365.76,116.00 367.21,115.79 368.65,115.48 370.10,115.40 371.55,115.30 372.99,115.12 374.44,114.97 375.89,114.91 377.34,114.80 378.78,114.72 380.23,114.53 381.68,114.36 383.13,114.15 384.57,113.82 386.02,113.62 387.47,112.66 388.91,111.94 390.36,111.47 391.81,111.08 393.26,110.63 394.70,110.63 396.15,110.63 397.60,110.63 399.05,110.35 400.49,110.19 401.94,109.61 403.39,108.95 404.83,108.18 406.28,107.03 407.73,106.22 409.18,104.55 410.62,103.55 412.07,102.88 413.52,101.80 414.96,101.11 416.41,99.74 417.86,97.67 419.31,97.04 420.75,96.23 422.20,95.45 423.65,95.19 425.10,94.20 426.54,94.03 427.99,92.84 429.44,91.76 430.88,91.11 432.33,90.38 433.78,89.41 435.23,89.15 436.67,89.06 438.12,88.95 439.57,88.89 441.02,88.27 442.46,87.48 443.91,86.50 445.36,86.23 446.80,85.45 448.25,84.43 449.70,82.41 451.15,80.92 452.59,79.09 454.04,78.60 455.49,77.63 456.93,75.83 458.38,74.80 459.83,74.24 461.28,73.45 462.72,72.93 464.17,72.19 465.62,71.84 467.07,71.09 468.51,69.65 469.96,68.07 471.41,67.58 472.85,66.68 474.30,65.04 475.75,64.20 477.20,62.16 478.64,61.19 480.09,59.42 481.54,57.69 482.98,55.61 484.43,52.48 485.88,50.40 487.33,48.62 488.77,47.48 490.22,46.00 491.67,44.67 493.12,44.02 494.56,42.94 496.01,41.64 497.46,40.90 498.90,39.78 500.35,38.93 501.80,38.12 503.25,36.90 504.69,34.67 506.14,32.95 507.59,31.45 509.04,30.21" />
    </svg>
  