
    <svg width="540" height="160" xmlns="http://www.w3.org/2000/svg">
      <style>.line{fill:none;stroke:#388bfd;stroke-width:1.5}.axis{stroke:#555;stroke-width:1;opacity:0.5}.label{fill:#999;font-family:sans-serif;font-size:10px;text-anchor:middle}</style>
      <line class="axis" x1="30" y1="30" x2="30" y2="130" />
      <line class="axis" x1="30" y1="130" x2="510" y2="130" />
      <text class="label" x="15" y="30">7,485</text>
      <text class="label" x="15" y="134">0</text>
      <text class="label" x="30" y="148">2021</text>
      <text class="label" x="510" y="148">2026</text>
      <polyline class="line" points="30.00,129.97 31.50,129.96 33.00,129.95 34.50,129.95 36.00,129.95 37.50,129.77 39.00,129.77 40.49,129.77 41.99,128.81 43.49,127.22 44.99,127.14 46.49,127.14 47.99,127.14 49.49,127.14 50.99,127.14 52.49,127.14 53.99,127.14 55.49,127.14 56.99,127.14 58.49,127.14 59.98,127.14 61.48,127.14 62.98,127.14 64.48,127.14 65.98,127.14 67.48,127.14 68.98,127.14 70.48,126.23 71.98,126.23 73.48,126.22 74.98,126.22 76.48,126.22 77.98,126.22 79.47,126.17 80.97,126.17 82.47,126.17 83.97,126.17 85.47,126.17 86.97,126.17 88.47,126.17 89.97,126.17 91.47,126.17 92.97,126.17 94.47,126.17 95.97,126.17 97.46,126.17 98.96,126.17 100.46,126.17 101.96,126.17 103.46,126.17 104.96,126.17 106.46,126.11 107.96,125.30 109.46,124.55 110.96,124.24 112.46,122.76 113.96,122.76 115.46,122.76 116.95,122.76 118.45,122.76 119.95,122.76 121.45,122.76 122.95,122.76 124.45,122.76 125.95,122.76 127.45,122.76 128.95,122.76 130.45,122.65 131.95,122.65 133.45,122.65 134.95,122.52 136.44,122.52 137.94,122.52 139.44,122.52 140.94,122.48 142.44,122.48 143.94,122.48 145.44,122.48 146.94,122.45 148.44,122.45 149.94,122.45 151.44,122.45 152.94,122.45 154.44,122.45 155.93,122.45 157.43,122.45 158.93,122.45 160.43,122.45 161.93,122.45 163.43,122.45 164.93,122.45 166.43,122.45 167.93,122.45 169.43,122.45 170.93,122.45 172.43,122.45 173.93,122.45 175.42,122.45 176.92,122.45 178.42,122.45 179.92,122.45 181.42,122.41 182.92,122.41 184.42,122.41 185.92,122.41 187.42,122.41 188.92,122.41 190.42,122.41 191.92,122.41 193.41,122.41 194.91,122.41 196.41,122.41 197.91,122.41 199.41,122.41 200.91,122.41 202.41,122.41 203.91,122.38 205.41,122.04 206.91,121.94 208.41,121.80 209.91,121.61 211.41,121.56 212.90,121.56 214.40,121.56 215.90,121.26 217.40,121.24 218.90,121.05 220.40,120.98 221.90,120.86 223.40,120.39 224.90,120.37 226.40,120.30 227.90,120.29 229.40,120.22 230.90,120.22 232.39,120.19 233.89,120.19 235.39,120.19 236.89,120.19 238.39,120.19 239.89,120.19 241.39,120.19 242.89,120.05 244.39,119.62 245.89,119.30 247.39,119.21 248.89,119.00 250.39,118.99 251.88,118.96 253.38,118.95 254.88,118.95 256.38,118.95 257.88,118.86 259.38,118.76 260.88,118.74 262.38,118.71 263.88,118.68 265.38,118.38 266.88,118.16 268.38,117.84 269.88,117.64 271.37,117.49 272.87,117.43 274.37,117.35 275.87,117.33 277.37,117.27 278.87,117.07 280.37,117.07 281.87,117.07 283.37,117.05 284.87,117.04 286.37,117.04 287.87,116.93 289.36,116.91 290.86,116.89 292.36,116.88 293.86,116.85 295.36,116.85 296.86,116.85 298.36,116.85 299.86,116.85 301.36,116.85 302.86,116.85 304.36,116.85 305.86,116.81 307.36,116.77 308.85,116.77 310.35,116.53 311.85,116.52 313.35,116.51 314.85,116.47 316.35,116.35 317.85,116.05 319.35,116.00 320.85,116.00 322.35,116.00 323.85,116.00 325.35,116.00 326.85,116.00 328.34,116.00 329.84,116.00 331.34,116.00 332.84,116.00 334.34,116.00 335.84,116.00 337.34,116.00 338.84,115.99 340.34,115.91 341.84,115.89 343.34,115.89 344.84,115.89 346.34,115.89 347.83,115.84 349.33,115.84 350.83,115.62 352.33,115.42 353.83,115.42 355.33,115.42 356.83,115.42 358.33,115.42 359.83,115.40 361.33,115.40 362.83,115.37 364.33,115.28 365.83,115.20 367.32,114.84 368.82,114.82 370.32,114.28 371.82,113.95 373.32,113.71 374.82,112.95 376.32,112.75 377.82,112.67 379.32,112.42 380.82,112.03 382.32,111.94 383.82,111.80 385.31,111.59 386.81,111.40 388.31,111.32 389.81,111.19 391.31,111.10 392.81,110.86 394.31,110.64 395.81,110.39 397.31,109.97 398.81,109.73 400.31,108.54 401.81,107.65 403.31,107.07 404.80,106.58 406.30,106.03 407.80,106.03 409.30,106.03 410.80,106.03 412.30,105.68 413.80,105.48 415.30,104.76 416.80,103.95 418.30,103.00 419.80,101.57 421.30,100.57 422.80,98.51 424.29,97.27 425.79,96.44 427.29,95.10 428.79,94.25 430.29,92.55 431.79,89.99 433.29,89.21 434.79,88.21 436.29,87.25 437.79,86.93 439.29,85.70 440.79,85.48 442.29,84.01 443.78,82.68 445.28,81.88 446.78,80.97 448.28,79.77 449.78,79.45 451.28,79.34 452.78,79.21 454.28,79.12 455.78,78.36 457.28,77.37 458.78,76.17 460.28,75.84 461.78,74.86 463.27,73.61 464.77,71.11 466.27,69.27 467.77,66.99 469.27,66.39 470.77,65.19 472.27,62.96 473.77,61.69 475.27,61.00 476.77,60.02 478.27,59.38 479.77,58.46 481.26,58.03 482.76,57.09 484.26,55.32 485.76,53.35 487.26,52.75 488.76,51.83 490.26,50.60 491.76,49.72 493.26,48.34 494.76,47.49 496.26,45.67 497.76,43.75 499.26,42.05 500.75,38.68 502.25,36.60 503.75,34.58 505.25,33.46 506.75,31.82 508.25,30.47 509.75,30.04" />
    </svg>
  