
    <svg width="540" height="160" xmlns="http://www.w3.org/2000/svg">
      <style>.line{fill:none;stroke:#388bfd;stroke-width:1.5}.axis{stroke:#555;stroke-width:1;opacity:0.5}.label{fill:#999;font-family:sans-serif;font-size:10px;text-anchor:middle}</style>
      <line class="axis" x1="30" y1="30" x2="30" y2="130" />
      <line class="axis" x1="30" y1="130" x2="510" y2="130" />
      <text class="label" x="15" y="30">9,266</text>
      <text class="label" x="15" y="134">0</text>
      <text class="label" x="30" y="148">2021</text>
      <text class="label" x="510" y="148">2026</text>
      <polyline class="line" points="30.00,129.98 31.45,129.97 32.89,129.96 34.34,129.96 35.79,129.96 37.23,129.82 38.68,129.82 40.13,129.82 41.57,129.04 43.02,127.76 44.47,127.69 45.91,127.69 47.36,127.69 48.80,127.69 50.25,127.69 51.70,127.69 53.14,127.69 54.59,127.69 56.04,127.69 57.48,127.69 58.93,127.69 60.38,127.69 61.82,127.69 63.27,127.69 64.72,127.69 66.16,127.69 67.61,127.69 69.06,126.96 70.50,126.96 71.95,126.95 73.40,126.95 74.84,126.95 76.29,126.95 77.73,126.90 79.18,126.90 80.63,126.90 82.07,126.90 83.52,126.90 84.97,126.90 86.41,126.90 87.86,126.90 89.31,126.90 90.75,126.90 92.20,126.90 93.65,126.90 95.09,126.90 96.54,126.90 97.99,126.90 99.43,126.90 100.88,126.90 102.33,126.90 103.77,126.86 105.22,126.20 106.66,125.60 108.11,125.35 109.56,124.15 111.00,124.15 112.45,124.15 113.90,124.15 115.34,124.15 116.79,124.15 118.24,124.15 119.68,124.15 121.13,124.15 122.58,124.15 124.02,124.15 125.47,124.15 126.92,124.06 128.36,124.06 129.81,124.06 131.26,123.96 132.70,123.96 134.15,123.96 135.60,123.96 137.04,123.92 138.49,123.92 139.93,123.92 141.38,123.92 142.83,123.90 144.27,123.90 145.72,123.90 147.17,123.90 148.61,123.90 150.06,123.90 151.51,123.90 152.95,123.90 154.40,123.90 155.85,123.90 157.29,123.90 158.74,123.90 160.19,123.90 161.63,123.90 163.08,123.90 164.53,123.90 165.97,123.90 167.42,123.90 168.86,123.90 170.31,123.90 171.76,123.90 173.20,123.90 174.65,123.90 176.10,123.87 177.54,123.87 178.99,123.87 180.44,123.87 181.88,123.87 183.33,123.87 184.78,123.87 186.22,123.87 187.67,123.87 189.12,123.87 190.56,123.87 192.01,123.87 193.46,123.87 194.90,123.87 196.35,123.87 197.80,123.85 199.24,123.57 200.69,123.49 202.13,123.37 203.58,123.22 205.03,123.18 206.47,123.18 207.92,123.18 209.37,122.94 210.81,122.92 212.26,122.77 213.71,122.72 215.15,122.62 216.60,122.24 218.05,122.22 219.49,122.16 220.94,122.15 222.39,122.10 223.83,122.10 225.28,122.08 226.73,122.08 228.17,122.08 229.62,122.08 231.06,122.08 232.51,122.08 233.96,122.08 235.40,121.96 236.85,121.61 238.30,121.36 239.74,121.28 241.19,121.12 242.64,121.11 244.08,121.09 245.53,121.07 246.98,121.07 248.42,121.07 249.87,121.00 251.32,120.92 252.76,120.90 254.21,120.88 255.66,120.86 257.10,120.61 258.55,120.44 259.99,120.18 261.44,120.02 262.89,119.90 264.33,119.84 265.78,119.78 267.23,119.77 268.67,119.72 270.12,119.55 271.57,119.55 273.01,119.55 274.46,119.54 275.91,119.53 277.35,119.53 278.80,119.45 280.25,119.42 281.69,119.41 283.14,119.40 284.59,119.38 286.03,119.38 287.48,119.38 288.93,119.38 290.37,119.38 291.82,119.38 293.26,119.38 294.71,119.38 296.16,119.35 297.60,119.32 299.05,119.32 300.50,119.12 301.94,119.11 303.39,119.10 304.84,119.07 306.28,118.97 307.73,118.73 309.18,118.69 310.62,118.69 312.07,118.69 313.52,118.69 314.96,118.69 316.41,118.69 317.86,118.69 319.30,118.69 320.75,118.69 322.19,118.69 323.64,118.69 325.09,118.69 326.53,118.69 327.98,118.68 329.43,118.61 330.87,118.60 332.32,118.60 333.77,118.60 335.21,118.60 336.66,118.56 338.11,118.56 339.55,118.39 341.00,118.23 342.45,118.23 343.89,118.23 345.34,118.23 346.79,118.23 348.23,118.20 349.68,118.20 351.13,118.18 352.57,118.11 354.02,118.04 355.46,117.75 356.91,117.74 358.36,117.30 359.80,117.04 361.25,116.84 362.70,116.23 364.14,116.07 365.59,116.00 367.04,115.80 368.48,115.48 369.93,115.41 371.38,115.30 372.82,115.13 374.27,114.98 375.72,114.91 377.16,114.80 378.61,114.73 380.06,114.53 381.50,114.36 382.95,114.16 384.39,113.82 385.84,113.63 387.29,112.67 388.73,111.94 390.18,111.48 391.63,111.08 393.07,110.64 394.52,110.64 395.97,110.64 397.41,110.64 398.86,110.36 400.31,110.20 401.75,109.61 403.20,108.96 404.65,108.19 406.09,107.03 407.54,106.22 408.99,104.56 410.43,103.56 411.88,102.89 413.32,101.81 414.77,101.12 416.22,99.75 417.66,97.68 419.11,97.05 420.56,96.24 422.00,95.47 423.45,95.21 424.90,94.21 426.34,94.04 427.79,92.85 429.24,91.77 430.68,91.13 432.13,90.39 433.58,89.42 435.02,89.16 436.47,89.08 437.92,88.97 439.36,88.90 440.81,88.29 442.26,87.49 443.70,86.52 445.15,86.25 446.59,85.46 448.04,84.45 449.49,82.43 450.93,80.94 452.38,79.10 453.83,78.62 455.27,77.65 456.72,75.85 458.17,74.82 459.61,74.26 461.06,73.47 462.51,72.95 463.95,72.21 465.40,71.86 466.85,71.11 468.29,69.67 469.74,68.09 471.19,67.60 472.63,66.70 474.08,65.06 475.52,64.22 476.97,62.18 478.42,61.21 479.86,59.44 481.31,57.71 482.76,55.63 484.20,52.50 485.65,50.43 487.10,48.65 488.54,47.50 489.99,46.03 491.44,44.70 492.88,44.05 494.33,42.97 495.78,41.67 497.22,40.93 498.67,39.81 500.12,38.96 501.56,38.15 503.01,36.93 504.46,34.71 505.90,32.98 507.35,31.48 508.79,30.24" />
    </svg>
  