
    <svg width="540" height="160" xmlns="http://www.w3.org/2000/svg">
      <style>.line{fill:none;stroke:#388bfd;stroke-width:1.5}.axis{stroke:#555;stroke-width:1;opacity:0.5}.label{fill:#999;font-family:sans-serif;font-size:10px;text-anchor:middle}</style>
      <line class="axis" x1="30" y1="30" x2="30" y2="130" />
      <line class="axis" x1="30" y1="130" x2="510" y2="130" />
      <text class="label" x="15" y="30">8,429</text>
      <text class="label" x="15" y="134">0</text>
      <text class="label" x="30" y="148">2021</text>
      <text class="label" x="510" y="148">2026</text>
      <polyline class="line" points="30.00,129.98 31.47,129.96 32.95,129.95 34.42,129.95 35.90,129.95 37.37,129.80 38.84,129.80 40.32,129.80 41.79,128.94 43.27,127.53 44.74,127.46 46.21,127.46 47.69,127.46 49.16,127.46 50.63,127.46 52.11,127.46 53.58,127.46 55.06,127.46 56.53,127.46 58.00,127.46 59.48,127.46 60.95,127.46 62.43,127.46 63.90,127.46 65.37,127.46 66.85,127.46 68.32,127.46 69.80,126.65 71.27,126.65 72.74,126.64 74.22,126.64 75.69,126.64 77.16,126.64 78.64,126.60 80.11,126.60 81.59,126.60 83.06,126.60 84.53,126.60 86.01,126.60 87.48,126.60 88.96,126.60 90.43,126.60 91.90,126.60 93.38,126.60 94.85,126.60 96.33,126.60 97.80,126.60 99.27,126.60 100.75,126.60 102.22,126.60 103.69,126.60 105.17,126.55 106.64,125.82 108.12,125.16 109.59,124.89 111.06,123.57 112.54,123.57 114.01,123.57 115.49,123.57 116.96,123.57 118.43,123.57 119.91,123.57 121.38,123.57 122.86,123.57 124.33,123.57 125.80,123.57 127.28,123.57 128.75,123.47 130.23,123.47 131.70,123.47 133.17,123.36 134.65,123.36 136.12,123.36 137.59,123.36 139.07,123.32 140.54,123.32 142.02,123.32 143.49,123.32 144.96,123.30 146.44,123.30 147.91,123.30 149.39,123.30 150.86,123.30 152.33,123.30 153.81,123.30 155.28,123.30 156.76,123.30 158.23,123.30 159.70,123.30 161.18,123.30 162.65,123.30 164.12,123.30 165.60,123.30 167.07,123.30 168.55,123.30 170.02,123.30 171.49,123.30 172.97,123.30 174.44,123.30 175.92,123.30 177.39,123.30 178.86,123.26 180.34,123.26 181.81,123.26 183.29,123.26 184.76,123.26 186.23,123.26 187.71,123.26 189.18,123.26 190.66,123.26 192.13,123.26 193.60,123.26 195.08,123.26 196.55,123.26 198.02,123.26 199.50,123.26 200.97,123.24 202.45,122.93 203.92,122.85 205.39,122.72 206.87,122.55 208.34,122.50 209.82,122.50 211.29,122.50 212.76,122.24 214.24,122.22 215.71,122.05 217.19,121.99 218.66,121.89 220.13,121.47 221.61,121.45 223.08,121.39 224.55,121.38 226.03,121.32 227.50,121.32 228.98,121.29 230.45,121.29 231.92,121.29 233.40,121.29 234.87,121.29 236.35,121.29 237.82,121.29 239.29,121.16 240.77,120.78 242.24,120.50 243.72,120.41 245.19,120.24 246.66,120.22 248.14,120.20 249.61,120.19 251.08,120.19 252.56,120.19 254.03,120.11 255.51,120.02 256.98,120.00 258.45,119.98 259.93,119.95 261.40,119.68 262.88,119.49 264.35,119.20 265.82,119.03 267.30,118.90 268.77,118.84 270.25,118.76 271.72,118.75 273.19,118.69 274.67,118.52 276.14,118.52 277.62,118.52 279.09,118.50 280.56,118.49 282.04,118.49 283.51,118.40 284.98,118.37 286.46,118.36 287.93,118.35 289.41,118.33 290.88,118.33 292.35,118.33 293.83,118.33 295.30,118.33 296.78,118.33 298.25,118.33 299.72,118.33 301.20,118.29 302.67,118.25 304.15,118.25 305.62,118.04 307.09,118.03 308.57,118.02 310.04,117.98 311.51,117.88 312.99,117.61 314.46,117.57 315.94,117.57 317.41,117.57 318.88,117.57 320.36,117.57 321.83,117.57 323.31,117.57 324.78,117.57 326.25,117.57 327.73,117.57 329.20,117.57 330.68,117.57 332.15,117.57 333.62,117.55 335.10,117.48 336.57,117.47 338.05,117.47 339.52,117.47 340.99,117.47 342.47,117.42 343.94,117.42 345.41,117.23 346.89,117.06 348.36,117.06 349.84,117.06 351.31,117.06 352.78,117.06 354.26,117.03 355.73,117.03 357.21,117.01 358.68,116.93 360.15,116.85 361.63,116.53 363.10,116.52 364.58,116.04 366.05,115.75 367.52,115.54 369.00,114.86 370.47,114.68 371.94,114.61 373.42,114.39 374.89,114.04 376.37,113.96 377.84,113.84 379.31,113.65 380.79,113.49 382.26,113.41 383.74,113.30 385.21,113.21 386.68,113.00 388.16,112.81 389.63,112.58 391.11,112.22 392.58,112.00 394.05,110.95 395.53,110.15 397.00,109.64 398.47,109.20 399.95,108.72 401.42,108.72 402.90,108.72 404.37,108.72 405.84,108.41 407.32,108.23 408.79,107.59 410.27,106.87 411.74,106.02 413.21,104.75 414.69,103.86 416.16,102.04 417.64,100.93 419.11,100.20 420.58,99.01 422.06,98.25 423.53,96.75 425.01,94.47 426.48,93.78 427.95,92.89 429.43,92.04 430.90,91.75 432.37,90.66 433.85,90.47 435.32,89.16 436.80,87.98 438.27,87.27 439.74,86.46 441.22,85.39 442.69,85.11 444.17,85.01 445.64,84.89 447.11,84.82 448.59,84.15 450.06,83.27 451.54,82.20 453.01,81.90 454.48,81.04 455.96,79.92 457.43,77.70 458.90,76.07 460.38,74.05 461.85,73.52 463.33,72.45 464.80,70.47 466.27,69.34 467.75,68.72 469.22,67.86 470.70,67.29 472.17,66.47 473.64,66.09 475.12,65.26 476.59,63.68 478.07,61.94 479.54,61.40 481.01,60.42 482.49,58.62 483.96,57.69 485.44,55.45 486.91,54.38 488.38,52.43 489.86,50.54 491.33,48.25 492.80,44.81 494.28,42.53 495.75,40.57 497.23,39.31 498.70,37.69 500.17,36.23 501.65,35.52 503.12,34.33 504.60,32.89 506.07,32.34 507.54,31.28 509.02,30.38" />
    </svg>
  