
    <svg width="540" height="160" xmlns="http://www.w3.org/2000/svg">
      <style>.line{fill:none;stroke:#388bfd;stroke-width:1.5}.axis{stroke:#555;stroke-width:1;opacity:0.5}.label{fill:#999;font-family:sans-serif;font-size:10px;text-anchor:middle}</style>
      <line class="axis" x1="30" y1="30" x2="30" y2="130" />
      <line class="axis" x1="30" y1="130" x2="510" y2="130" />
      <text class="label" x="15" y="30">8,997</text>
      <text class="label" x="15" y="134">0</text>
      <text class="label" x="30" y="148">2021</text>
      <text class="label" x="510" y="148">2026</text>
      <polyline class="line" points="30.00,129.98 31.46,129.97 32.91,129.96 34.37,129.96 35.83,129.96 37.29,129.81 38.74,129.81 40.20,129.81 41.66,129.01 43.12,127.69 44.57,127.62 46.03,127.62 47.49,127.62 48.95,127.62 50.40,127.62 51.86,127.62 53.32,127.62 54.78,127.62 56.23,127.62 57.69,127.62 59.15,127.62 60.61,127.62 62.06,127.62 63.52,127.62 64.98,127.62 66.44,127.62 67.89,127.62 69.35,126.87 70.81,126.87 72.27,126.85 73.72,126.85 75.18,126.85 76.64,126.85 78.10,126.81 79.55,126.81 81.01,126.81 82.47,126.81 83.93,126.81 85.38,126.81 86.84,126.81 88.30,126.81 89.76,126.81 91.21,126.81 92.67,126.81 94.13,126.81 95.59,126.81 97.04,126.81 98.50,126.81 99.96,126.81 101.42,126.81 102.87,126.81 104.33,126.77 105.79,126.09 107.25,125.47 108.70,125.21 110.16,123.98 111.62,123.98 113.08,123.98 114.53,123.98 115.99,123.98 117.45,123.98 118.91,123.98 120.36,123.98 121.82,123.98 123.28,123.98 124.74,123.98 126.19,123.98 127.65,123.89 129.11,123.89 130.57,123.89 132.02,123.78 133.48,123.78 134.94,123.78 136.40,123.78 137.85,123.74 139.31,123.74 140.77,123.74 142.23,123.74 143.68,123.72 145.14,123.72 146.60,123.72 148.06,123.72 149.51,123.72 150.97,123.72 152.43,123.72 153.89,123.72 155.34,123.72 156.80,123.72 158.26,123.72 159.72,123.72 161.17,123.72 162.63,123.72 164.09,123.72 165.55,123.72 167.00,123.72 168.46,123.72 169.92,123.72 171.38,123.72 172.83,123.72 174.29,123.72 175.75,123.72 177.21,123.69 178.66,123.69 180.12,123.69 181.58,123.69 183.04,123.69 184.49,123.69 185.95,123.69 187.41,123.69 188.87,123.69 190.32,123.69 191.78,123.69 193.24,123.69 194.70,123.69 196.15,123.69 197.61,123.69 199.07,123.66 200.53,123.38 201.98,123.30 203.44,123.18 204.90,123.02 206.36,122.98 207.81,122.98 209.27,122.98 210.73,122.73 212.19,122.71 213.64,122.55 215.10,122.50 216.56,122.40 218.02,122.01 219.47,121.99 220.93,121.93 222.39,121.92 223.85,121.86 225.30,121.86 226.76,121.84 228.22,121.84 229.68,121.84 231.13,121.84 232.59,121.84 234.05,121.84 235.51,121.84 236.96,121.72 238.42,121.36 239.88,121.10 241.34,121.02 242.79,120.85 244.25,120.84 245.71,120.82 247.17,120.81 248.62,120.81 250.08,120.81 251.54,120.73 253.00,120.65 254.45,120.63 255.91,120.61 257.37,120.59 258.83,120.33 260.28,120.15 261.74,119.89 263.20,119.72 264.66,119.60 266.11,119.54 267.57,119.47 269.03,119.46 270.49,119.41 271.94,119.24 273.40,119.24 274.86,119.24 276.32,119.23 277.77,119.22 279.23,119.22 280.69,119.13 282.15,119.11 283.60,119.10 285.06,119.09 286.52,119.06 287.98,119.06 289.43,119.06 290.89,119.06 292.35,119.06 293.81,119.06 295.26,119.06 296.72,119.06 298.18,119.03 299.64,119.00 301.09,119.00 302.55,118.80 304.01,118.79 305.47,118.77 306.92,118.74 308.38,118.64 309.84,118.40 311.30,118.35 312.75,118.35 314.21,118.35 315.67,118.35 317.13,118.35 318.58,118.35 320.04,118.35 321.50,118.35 322.96,118.35 324.41,118.35 325.87,118.35 327.33,118.35 328.79,118.35 330.24,118.34 331.70,118.27 333.16,118.26 334.62,118.26 336.07,118.26 337.53,118.26 338.99,118.22 340.45,118.22 341.90,118.04 343.36,117.87 344.82,117.87 346.28,117.87 347.73,117.87 349.19,117.87 350.65,117.85 352.11,117.85 353.56,117.83 355.02,117.75 356.48,117.68 357.94,117.38 359.39,117.37 360.85,116.92 362.31,116.65 363.77,116.45 365.22,115.82 366.68,115.65 368.14,115.58 369.60,115.37 371.05,115.05 372.51,114.97 373.97,114.86 375.43,114.68 376.88,114.53 378.34,114.46 379.80,114.35 381.26,114.27 382.71,114.07 384.17,113.89 385.63,113.68 387.09,113.34 388.54,113.14 390.00,112.15 391.46,111.40 392.91,110.93 394.37,110.52 395.83,110.06 397.29,110.06 398.74,110.06 400.20,110.06 401.66,109.77 403.12,109.60 404.57,109.00 406.03,108.33 407.49,107.54 408.95,106.35 410.40,105.51 411.86,103.80 413.32,102.77 414.78,102.08 416.23,100.97 417.69,100.26 419.15,98.85 420.61,96.71 422.06,96.07 423.52,95.23 424.98,94.43 426.44,94.17 427.89,93.14 429.35,92.97 430.81,91.74 432.27,90.63 433.72,89.96 435.18,89.21 436.64,88.21 438.10,87.94 439.55,87.85 441.01,87.74 442.47,87.67 443.93,87.04 445.38,86.22 446.84,85.22 448.30,84.94 449.76,84.13 451.21,83.08 452.67,81.01 454.13,79.47 455.59,77.58 457.04,77.08 458.50,76.08 459.96,74.23 461.42,73.17 462.87,72.59 464.33,71.78 465.79,71.25 467.25,70.48 468.70,70.12 470.16,69.35 471.62,67.87 473.08,66.23 474.53,65.73 475.99,64.81 477.45,63.12 478.91,62.26 480.36,60.15 481.82,59.15 483.28,57.33 484.74,55.55 486.19,53.41 487.65,50.18 489.11,48.05 490.57,46.22 492.02,45.04 493.48,43.52 494.94,42.15 496.40,41.48 497.85,40.37 499.31,39.03 500.77,38.27 502.23,37.11 503.68,36.24 505.14,35.40 506.60,34.15 508.06,31.86 509.51,30.12" />
    </svg>
  