
    <svg width="540" height="160" xmlns="http://www.w3.org/2000/svg">
      <style>.line{fill:none;stroke:#388bfd;stroke-width:1.5}.axis{stroke:#555;stroke-width:1;opacity:0.5}.label{fill:#999;font-family:sans-serif;font-size:10px;text-anchor:middle}</style>
      <line class="axis" x1="30" y1="30" x2="30" y2="130" />
      <line class="axis" x1="30" y1="130" x2="510" y2="130" />
      <text class="label" x="15" y="30">8,446</text>
      <text class="label" x="15" y="134">0</text>
      <text class="label" x="30" y="148">2021</text>
      <text class="label" x="510" y="148">2026</text>
      <polyline class="line" points="30.00,129.98 31.47,129.96 32.95,129.95 34.42,129.95 35.89,129.95 37.37,129.80 38.84,129.80 40.31,129.80 41.79,128.95 43.26,127.54 44.73,127.47 46.20,127.47 47.68,127.47 49.15,127.47 50.62,127.47 52.10,127.47 53.57,127.47 55.04,127.47 56.52,127.47 57.99,127.47 59.46,127.47 60.94,127.47 62.41,127.47 63.88,127.47 65.36,127.47 66.83,127.47 68.30,127.47 69.77,126.66 71.25,126.66 72.72,126.65 74.19,126.65 75.67,126.65 77.14,126.65 78.61,126.60 80.09,126.60 81.56,126.60 83.03,126.60 84.51,126.60 85.98,126.60 87.45,126.60 88.93,126.60 90.40,126.60 91.87,126.60 93.35,126.60 94.82,126.60 96.29,126.60 97.76,126.60 99.24,126.60 100.71,126.60 102.18,126.60 103.66,126.60 105.13,126.55 106.60,125.83 108.08,125.17 109.55,124.90 111.02,123.58 112.50,123.58 113.97,123.58 115.44,123.58 116.92,123.58 118.39,123.58 119.86,123.58 121.34,123.58 122.81,123.58 124.28,123.58 125.75,123.58 127.23,123.58 128.70,123.49 130.17,123.49 131.65,123.49 133.12,123.37 134.59,123.37 136.07,123.37 137.54,123.37 139.01,123.33 140.49,123.33 141.96,123.33 143.43,123.33 144.91,123.31 146.38,123.31 147.85,123.31 149.32,123.31 150.80,123.31 152.27,123.31 153.74,123.31 155.22,123.31 156.69,123.31 158.16,123.31 159.64,123.31 161.11,123.31 162.58,123.31 164.06,123.31 165.53,123.31 167.00,123.31 168.48,123.31 169.95,123.31 171.42,123.31 172.90,123.31 174.37,123.31 175.84,123.31 177.31,123.31 178.79,123.27 180.26,123.27 181.73,123.27 183.21,123.27 184.68,123.27 186.15,123.27 187.63,123.27 189.10,123.27 190.57,123.27 192.05,123.27 193.52,123.27 194.99,123.27 196.47,123.27 197.94,123.27 199.41,123.27 200.88,123.25 202.36,122.94 203.83,122.86 205.30,122.73 206.78,122.56 208.25,122.52 209.72,122.52 211.20,122.52 212.67,122.26 214.14,122.23 215.62,122.07 217.09,122.01 218.56,121.90 220.04,121.49 221.51,121.46 222.98,121.40 224.46,121.39 225.93,121.33 227.40,121.33 228.87,121.31 230.35,121.31 231.82,121.31 233.29,121.31 234.77,121.31 236.24,121.31 237.71,121.31 239.19,121.18 240.66,120.80 242.13,120.52 243.61,120.43 245.08,120.26 246.55,120.24 248.03,120.22 249.50,120.21 250.97,120.21 252.45,120.21 253.92,120.13 255.39,120.04 256.86,120.02 258.34,120.00 259.81,119.97 261.28,119.70 262.76,119.51 264.23,119.23 265.70,119.05 267.18,118.92 268.65,118.86 270.12,118.79 271.60,118.78 273.07,118.72 274.54,118.54 276.02,118.54 277.49,118.54 278.96,118.53 280.43,118.52 281.91,118.52 283.38,118.42 284.85,118.40 286.33,118.39 287.80,118.37 289.27,118.35 290.75,118.35 292.22,118.35 293.69,118.35 295.17,118.35 296.64,118.35 298.11,118.35 299.59,118.35 301.06,118.31 302.53,118.28 304.01,118.28 305.48,118.07 306.95,118.05 308.42,118.04 309.90,118.01 311.37,117.90 312.84,117.64 314.32,117.59 315.79,117.59 317.26,117.59 318.74,117.59 320.21,117.59 321.68,117.59 323.16,117.59 324.63,117.59 326.10,117.59 327.58,117.59 329.05,117.59 330.52,117.59 331.99,117.59 333.47,117.58 334.94,117.51 336.41,117.50 337.89,117.50 339.36,117.50 340.83,117.50 342.31,117.45 343.78,117.45 345.25,117.26 346.73,117.08 348.20,117.08 349.67,117.08 351.15,117.08 352.62,117.08 354.09,117.06 355.57,117.06 357.04,117.04 358.51,116.95 359.98,116.88 361.46,116.56 362.93,116.55 364.40,116.06 365.88,115.78 367.35,115.57 368.82,114.89 370.30,114.71 371.77,114.64 373.24,114.42 374.72,114.08 376.19,113.99 377.66,113.87 379.14,113.68 380.61,113.52 382.08,113.45 383.55,113.33 385.03,113.25 386.50,113.03 387.97,112.84 389.45,112.62 390.92,112.25 392.39,112.04 393.87,110.99 395.34,110.19 396.81,109.68 398.29,109.24 399.76,108.76 401.23,108.76 402.71,108.76 404.18,108.76 405.65,108.45 407.13,108.27 408.60,107.63 410.07,106.91 411.54,106.07 413.02,104.80 414.49,103.92 415.96,102.09 417.44,100.99 418.91,100.26 420.38,99.07 421.86,98.32 423.33,96.81 424.80,94.54 426.28,93.85 427.75,92.96 429.22,92.11 430.70,91.83 432.17,90.74 433.64,90.55 435.12,89.25 436.59,88.06 438.06,87.35 439.53,86.55 441.01,85.48 442.48,85.20 443.95,85.10 445.43,84.98 446.90,84.91 448.37,84.24 449.85,83.36 451.32,82.30 452.79,82.00 454.27,81.14 455.74,80.02 457.21,77.81 458.69,76.18 460.16,74.16 461.63,73.63 463.10,72.56 464.58,70.59 466.05,69.46 467.52,68.85 469.00,67.98 470.47,67.41 471.94,66.60 473.42,66.22 474.89,65.39 476.36,63.81 477.84,62.07 479.31,61.54 480.78,60.56 482.26,58.76 483.73,57.84 485.20,55.60 486.68,54.53 488.15,52.59 489.62,50.70 491.09,48.41 492.57,44.98 494.04,42.70 495.51,40.75 496.99,39.50 498.46,37.87 499.93,36.42 501.41,35.71 502.88,34.52 504.35,33.09 505.83,32.53 507.30,31.48 508.77,30.58" />
    </svg>
  