
    <svg width="540" height="160" xmlns="http://www.w3.org/2000/svg">
      <style>.line{fill:none;stroke:#388bfd;stroke-width:1.5}.axis{stroke:#555;stroke-width:1;opacity:0.5}.label{fill:#999;font-family:sans-serif;font-size:10px;text-anchor:middle}</style>
      <line class="axis" x1="30" y1="30" x2="30" y2="130" />
      <line class="axis" x1="30" y1="130" x2="510" y2="130" />
      <text class="label" x="15" y="30">7,750</text>
      <text class="label" x="15" y="134">0</text>
      <text class="label" x="30" y="148">2021</text>
      <text class="label" x="510" y="148">2026</text>
      <polyline class="line" points="30.00,129.97 31.50,129.96 32.99,129.95 34.49,129.95 35.98,129.95 37.48,129.78 38.97,129.78 40.47,129.78 41.96,128.85 43.46,127.32 44.95,127.24 46.45,127.24 47.94,127.24 49.44,127.24 50.93,127.24 52.43,127.24 53.93,127.24 55.42,127.24 56.92,127.24 58.41,127.24 59.91,127.24 61.40,127.24 62.90,127.24 64.39,127.24 65.89,127.24 67.38,127.24 68.88,127.24 70.37,126.36 71.87,126.36 73.36,126.35 74.86,126.35 76.36,126.35 77.85,126.35 79.35,126.30 80.84,126.30 82.34,126.30 83.83,126.30 85.33,126.30 86.82,126.30 88.32,126.30 89.81,126.30 91.31,126.30 92.80,126.30 94.30,126.30 95.79,126.30 97.29,126.30 98.79,126.30 100.28,126.30 101.78,126.30 103.27,126.30 104.77,126.30 106.26,126.25 107.76,125.46 109.25,124.74 110.75,124.44 112.24,123.01 113.74,123.01 115.23,123.01 116.73,123.01 118.22,123.01 119.72,123.01 121.21,123.01 122.71,123.01 124.21,123.01 125.70,123.01 127.20,123.01 128.69,123.01 130.19,122.90 131.68,122.90 133.18,122.90 134.67,122.77 136.17,122.77 137.66,122.77 139.16,122.77 140.65,122.74 142.15,122.74 143.64,122.74 145.14,122.74 146.64,122.71 148.13,122.71 149.63,122.71 151.12,122.71 152.62,122.71 154.11,122.71 155.61,122.71 157.10,122.71 158.60,122.71 160.09,122.71 161.59,122.71 163.08,122.71 164.58,122.71 166.07,122.71 167.57,122.71 169.07,122.71 170.56,122.71 172.06,122.71 173.55,122.71 175.05,122.71 176.54,122.71 178.04,122.71 179.53,122.71 181.03,122.67 182.52,122.67 184.02,122.67 185.51,122.67 187.01,122.67 188.50,122.67 190.00,122.67 191.50,122.67 192.99,122.67 194.49,122.67 195.98,122.67 197.48,122.67 198.97,122.67 200.47,122.67 201.96,122.67 203.46,122.65 204.95,122.31 206.45,122.22 207.94,122.08 209.44,121.90 210.93,121.85 212.43,121.85 213.93,121.85 215.42,121.56 216.92,121.54 218.41,121.35 219.91,121.29 221.40,121.17 222.90,120.72 224.39,120.70 225.89,120.63 227.38,120.62 228.88,120.55 230.37,120.55 231.87,120.53 233.36,120.53 234.86,120.53 236.36,120.53 237.85,120.53 239.35,120.53 240.84,120.53 242.34,120.39 243.83,119.97 245.33,119.66 246.82,119.57 248.32,119.38 249.81,119.37 251.31,119.34 252.80,119.33 254.30,119.33 255.79,119.33 257.29,119.24 258.79,119.15 260.28,119.12 261.78,119.10 263.27,119.07 264.77,118.77 266.26,118.57 267.76,118.26 269.25,118.06 270.75,117.92 272.24,117.86 273.74,117.78 275.23,117.77 276.73,117.70 278.22,117.51 279.72,117.51 281.21,117.51 282.71,117.50 284.21,117.48 285.70,117.48 287.20,117.38 288.69,117.35 290.19,117.34 291.68,117.33 293.18,117.30 294.67,117.30 296.17,117.30 297.66,117.30 299.16,117.30 300.65,117.30 302.15,117.30 303.64,117.30 305.14,117.26 306.64,117.23 308.13,117.23 309.63,116.99 311.12,116.98 312.62,116.97 314.11,116.93 315.61,116.81 317.10,116.53 318.60,116.48 320.09,116.48 321.59,116.48 323.08,116.48 324.58,116.48 326.07,116.48 327.57,116.48 329.07,116.48 330.56,116.48 332.06,116.48 333.55,116.48 335.05,116.48 336.54,116.48 338.04,116.46 339.53,116.39 341.03,116.37 342.52,116.37 344.02,116.37 345.51,116.37 347.01,116.32 348.50,116.32 350.00,116.12 351.50,115.92 352.99,115.92 354.49,115.92 355.98,115.92 357.48,115.92 358.97,115.90 360.47,115.90 361.96,115.87 363.46,115.78 364.95,115.70 366.45,115.35 367.94,115.34 369.44,114.81 370.93,114.50 372.43,114.27 373.93,113.54 375.42,113.34 376.92,113.26 378.41,113.02 379.91,112.65 381.40,112.55 382.90,112.43 384.39,112.22 385.89,112.04 387.38,111.96 388.88,111.83 390.37,111.74 391.87,111.51 393.36,111.30 394.86,111.06 396.36,110.66 397.85,110.43 399.35,109.28 400.84,108.41 402.34,107.86 403.83,107.38 405.33,106.85 406.82,106.85 408.32,106.85 409.81,106.85 411.31,106.52 412.80,106.32 414.30,105.63 415.79,104.84 417.29,103.92 418.79,102.54 420.28,101.57 421.78,99.59 423.27,98.39 424.77,97.59 426.26,96.30 427.76,95.47 429.25,93.83 430.75,91.35 432.24,90.61 433.74,89.64 435.23,88.71 436.73,88.40 438.22,87.21 439.72,87.01 441.21,85.59 442.71,84.30 444.21,83.52 445.70,82.65 447.20,81.48 448.69,81.17 450.19,81.07 451.68,80.94 453.18,80.86 454.67,80.13 456.17,79.17 457.66,78.01 459.16,77.69 460.65,76.75 462.15,75.54 463.64,73.12 465.14,71.34 466.64,69.15 468.13,68.57 469.63,67.41 471.12,65.25 472.62,64.03 474.11,63.35 475.61,62.41 477.10,61.79 478.60,60.90 480.09,60.49 481.59,59.59 483.08,57.87 484.58,55.97 486.07,55.39 487.57,54.41 489.07,52.84 490.56,51.91 492.06,50.03 493.55,49.03 495.05,47.10 496.54,45.14 498.04,43.07 499.53,39.57 501.03,37.45 502.52,35.41 504.02,34.27 505.51,32.59 507.01,31.16 508.50,30.67 510.00,30.00" />
    </svg>
  