
    <svg width="540" height="160" xmlns="http://www.w3.org/2000/svg">
      <style>.line{fill:none;stroke:#388bfd;stroke-width:1.5}.axis{stroke:#555;stroke-width:1;opacity:0.5}.label{fill:#999;font-family:sans-serif;font-size:10px;text-anchor:middle}</style>
      <line class="axis" x1="30" y1="30" x2="30" y2="130" />
      <line class="axis" x1="30" y1="130" x2="510" y2="130" />
      <text class="label" x="15" y="30">7,862</text>
      <text class="label" x="15" y="134">0</text>
      <text class="label" x="30" y="148">2021</text>
      <text class="label" x="510" y="148">2026</text>
      <polyline class="line" points="30.00,129.97 31.48,129.96 32.97,129.95 34.45,129.95 35.93,129.95 37.42,129.78 38.90,129.78 40.38,129.78 41.86,128.87 43.35,127.35 44.83,127.28 46.31,127.28 47.80,127.28 49.28,127.28 50.76,127.28 52.25,127.28 53.73,127.28 55.21,127.28 56.69,127.28 58.18,127.28 59.66,127.28 61.14,127.28 62.63,127.28 64.11,127.28 65.59,127.28 67.08,127.28 68.56,127.28 70.04,126.41 71.52,126.41 73.01,126.40 74.49,126.40 75.97,126.40 77.46,126.40 78.94,126.35 80.42,126.35 81.91,126.35 83.39,126.35 84.87,126.35 86.35,126.35 87.84,126.35 89.32,126.35 90.80,126.35 92.29,126.35 93.77,126.35 95.25,126.35 96.74,126.35 98.22,126.35 99.70,126.35 101.18,126.35 102.67,126.35 104.15,126.35 105.63,126.30 107.12,125.52 108.60,124.81 110.08,124.52 111.57,123.11 113.05,123.11 114.53,123.11 116.01,123.11 117.50,123.11 118.98,123.11 120.46,123.11 121.95,123.11 123.43,123.11 124.91,123.11 126.40,123.11 127.88,123.11 129.36,123.00 130.84,123.00 132.33,123.00 133.81,122.88 135.29,122.88 136.78,122.88 138.26,122.88 139.74,122.84 141.23,122.84 142.71,122.84 144.19,122.84 145.67,122.81 147.16,122.81 148.64,122.81 150.12,122.81 151.61,122.81 153.09,122.81 154.57,122.81 156.06,122.81 157.54,122.81 159.02,122.81 160.50,122.81 161.99,122.81 163.47,122.81 164.95,122.81 166.44,122.81 167.92,122.81 169.40,122.81 170.89,122.81 172.37,122.81 173.85,122.81 175.33,122.81 176.82,122.81 178.30,122.81 179.78,122.78 181.27,122.78 182.75,122.78 184.23,122.78 185.72,122.78 187.20,122.78 188.68,122.78 190.16,122.78 191.65,122.78 193.13,122.78 194.61,122.78 196.10,122.78 197.58,122.78 199.06,122.78 200.55,122.78 202.03,122.75 203.51,122.42 204.99,122.33 206.48,122.19 207.96,122.01 209.44,121.96 210.93,121.96 212.41,121.96 213.89,121.68 215.38,121.66 216.86,121.48 218.34,121.41 219.82,121.30 221.31,120.85 222.79,120.83 224.27,120.77 225.76,120.75 227.24,120.69 228.72,120.69 230.21,120.66 231.69,120.66 233.17,120.66 234.65,120.66 236.14,120.66 237.62,120.66 239.10,120.66 240.59,120.52 242.07,120.12 243.55,119.81 245.04,119.72 246.52,119.53 248.00,119.52 249.49,119.49 250.97,119.48 252.45,119.48 253.93,119.48 255.42,119.39 256.90,119.30 258.38,119.28 259.87,119.25 261.35,119.23 262.83,118.93 264.32,118.73 265.80,118.43 267.28,118.23 268.76,118.09 270.25,118.03 271.73,117.95 273.21,117.94 274.70,117.88 276.18,117.69 277.66,117.69 279.15,117.69 280.63,117.67 282.11,117.66 283.59,117.66 285.08,117.56 286.56,117.53 288.04,117.52 289.53,117.51 291.01,117.48 292.49,117.48 293.98,117.48 295.46,117.48 296.94,117.48 298.42,117.48 299.91,117.48 301.39,117.48 302.87,117.45 304.36,117.41 305.84,117.41 307.32,117.18 308.81,117.17 310.29,117.15 311.77,117.12 313.25,117.00 314.74,116.72 316.22,116.67 317.70,116.67 319.19,116.67 320.67,116.67 322.15,116.67 323.64,116.67 325.12,116.67 326.60,116.67 328.08,116.67 329.57,116.67 331.05,116.67 332.53,116.67 334.02,116.67 335.50,116.66 336.98,116.58 338.47,116.57 339.95,116.57 341.43,116.57 342.91,116.57 344.40,116.52 345.88,116.52 347.36,116.31 348.85,116.12 350.33,116.12 351.81,116.12 353.30,116.12 354.78,116.12 356.26,116.10 357.74,116.10 359.23,116.07 360.71,115.98 362.19,115.91 363.68,115.56 365.16,115.55 366.64,115.03 368.13,114.72 369.61,114.50 371.09,113.77 372.57,113.58 374.06,113.50 375.54,113.26 377.02,112.89 378.51,112.80 379.99,112.68 381.47,112.47 382.96,112.29 384.44,112.22 385.92,112.09 387.40,112.00 388.89,111.77 390.37,111.57 391.85,111.33 393.34,110.93 394.82,110.70 396.30,109.57 397.79,108.72 399.27,108.17 400.75,107.70 402.23,107.18 403.72,107.18 405.20,107.18 406.68,107.18 408.17,106.85 409.65,106.66 411.13,105.97 412.62,105.20 414.10,104.29 415.58,102.93 417.06,101.98 418.55,100.02 420.03,98.84 421.51,98.05 423.00,96.78 424.48,95.96 425.96,94.35 427.45,91.91 428.93,91.17 430.41,90.21 431.89,89.30 433.38,88.99 434.86,87.82 436.34,87.62 437.83,86.22 439.31,84.95 440.79,84.18 442.28,83.32 443.76,82.18 445.24,81.87 446.73,81.77 448.21,81.64 449.69,81.56 451.17,80.84 452.66,79.90 454.14,78.75 455.62,78.44 457.11,77.51 458.59,76.31 460.07,73.93 461.56,72.18 463.04,70.02 464.52,69.44 466.00,68.30 467.49,66.17 468.97,64.97 470.45,64.30 471.94,63.38 473.42,62.77 474.90,61.89 476.39,61.48 477.87,60.59 479.35,58.90 480.83,57.03 482.32,56.46 483.80,55.49 485.28,53.94 486.77,53.02 488.25,51.17 489.73,50.19 491.22,48.28 492.70,46.34 494.18,44.31 495.66,40.86 497.15,38.76 498.63,36.75 500.11,35.63 501.60,33.98 503.08,32.57 504.56,32.09 506.05,31.28 507.53,30.34 509.01,30.14" />
    </svg>
  