
    <svg width="540" height="160" xmlns="http://www.w3.org/2000/svg">
      <style>.line{fill:none;stroke:#388bfd;stroke-width:1.5}.axis{stroke:#555;stroke-width:1;opacity:0.5}.label{fill:#999;font-family:sans-serif;font-size:10px;text-anchor:middle}</style>
      <line class="axis" x1="30" y1="30" x2="30" y2="130" />
      <line class="axis" x1="30" y1="130" x2="510" y2="130" />
      <text class="label" x="15" y="30">4,155</text>
      <text class="label" x="15" y="134">0</text>
      <text class="label" x="30" y="148">2021</text>
      <text class="label" x="510" y="148">2026</text>
      <polyline class="line" points="30.00,129.95 31.53,129.93 33.06,129.90 34.59,129.90 36.12,129.90 37.65,129.59 39.18,129.59 40.71,129.59 42.24,127.86 43.77,124.99 45.29,124.85 46.82,124.85 48.35,124.85 49.88,124.85 51.41,124.85 52.94,124.85 54.47,124.85 56.00,124.85 57.53,124.85 59.06,124.85 60.59,124.85 62.12,124.85 63.65,124.85 65.18,124.85 66.71,124.85 68.24,124.85 69.77,124.85 71.30,123.21 72.83,123.21 74.35,123.19 75.88,123.19 77.41,123.19 78.94,123.19 80.47,123.09 82.00,123.09 83.53,123.09 85.06,123.09 86.59,123.09 88.12,123.09 89.65,123.09 91.18,123.09 92.71,123.09 94.24,123.09 95.77,123.09 97.30,123.09 98.83,123.09 100.36,123.09 101.89,123.09 103.41,123.09 104.94,123.09 106.47,123.09 108.00,123.00 109.53,121.53 111.06,120.18 112.59,119.63 114.12,116.96 115.65,116.96 117.18,116.96 118.71,116.96 120.24,116.96 121.77,116.96 123.30,116.96 124.83,116.96 126.36,116.96 127.89,116.96 129.42,116.96 130.95,116.96 132.47,116.76 134.00,116.76 135.53,116.76 137.06,116.52 138.59,116.52 140.12,116.52 141.65,116.52 143.18,116.45 144.71,116.45 146.24,116.45 147.77,116.45 149.30,116.40 150.83,116.40 152.36,116.40 153.89,116.40 155.42,116.40 156.95,116.40 158.48,116.40 160.01,116.40 161.53,116.40 163.06,116.40 164.59,116.40 166.12,116.40 167.65,116.40 169.18,116.40 170.71,116.40 172.24,116.40 173.77,116.40 175.30,116.40 176.83,116.40 178.36,116.40 179.89,116.40 181.42,116.40 182.95,116.40 184.48,116.33 186.01,116.33 187.54,116.33 189.07,116.33 190.59,116.33 192.12,116.33 193.65,116.33 195.18,116.33 196.71,116.33 198.24,116.33 199.77,116.33 201.30,116.33 202.83,116.33 204.36,116.33 205.89,116.33 207.42,116.28 208.95,115.66 210.48,115.49 212.01,115.22 213.54,114.89 215.07,114.79 216.60,114.79 218.13,114.79 219.65,114.26 221.18,114.21 222.71,113.87 224.24,113.75 225.77,113.54 227.30,112.70 228.83,112.65 230.36,112.53 231.89,112.50 233.42,112.38 234.95,112.38 236.48,112.33 238.01,112.33 239.54,112.33 241.07,112.33 242.60,112.33 244.13,112.33 245.66,112.33 247.19,112.07 248.71,111.30 250.24,110.72 251.77,110.55 253.30,110.19 254.83,110.17 256.36,110.12 257.89,110.10 259.42,110.10 260.95,110.10 262.48,109.93 264.01,109.76 265.54,109.71 267.07,109.66 268.60,109.61 270.13,109.06 271.66,108.68 273.19,108.10 274.72,107.74 276.25,107.47 277.77,107.35 279.30,107.21 280.83,107.18 282.36,107.06 283.89,106.70 285.42,106.70 286.95,106.70 288.48,106.68 290.01,106.65 291.54,106.65 293.07,106.46 294.60,106.41 296.13,106.39 297.66,106.37 299.19,106.32 300.72,106.32 302.25,106.32 303.78,106.32 305.31,106.32 306.83,106.32 308.36,106.32 309.89,106.32 311.42,106.25 312.95,106.17 314.48,106.17 316.01,105.74 317.54,105.72 319.07,105.69 320.60,105.62 322.13,105.40 323.66,104.87 325.19,104.78 326.72,104.78 328.25,104.78 329.78,104.78 331.31,104.78 332.84,104.78 334.37,104.78 335.89,104.78 337.42,104.78 338.95,104.78 340.48,104.78 342.01,104.78 343.54,104.78 345.07,104.75 346.60,104.61 348.13,104.58 349.66,104.58 351.19,104.58 352.72,104.58 354.25,104.49 355.78,104.49 357.31,104.10 358.84,103.74 360.37,103.74 361.90,103.74 363.43,103.74 364.95,103.74 366.48,103.69 368.01,103.69 369.54,103.65 371.07,103.48 372.60,103.33 374.13,102.68 375.66,102.66 377.19,101.67 378.72,101.10 380.25,100.66 381.78,99.29 383.31,99.07 384.84,99.03 386.37,99.03 387.90,99.03 389.43,99.03 390.96,98.98 392.49,98.86 394.01,98.86 395.54,98.86 397.07,98.86 398.60,98.86 400.13,98.86 401.66,98.81 403.19,98.76 404.72,98.76 406.25,98.76 407.78,98.71 409.31,98.71 410.84,98.52 412.37,98.42 413.90,98.42 415.43,98.42 416.96,98.42 418.49,98.42 420.02,98.42 421.55,98.42 423.07,97.89 424.60,97.34 426.13,96.88 427.66,96.26 429.19,95.54 430.72,93.83 432.25,92.77 433.78,92.02 435.31,90.79 436.84,89.83 438.37,88.19 439.90,85.84 441.43,85.14 442.96,84.13 444.49,83.26 446.02,82.97 447.55,81.87 449.08,81.67 450.61,80.35 452.13,79.15 453.66,78.42 455.19,77.58 456.72,76.43 458.25,76.09 459.78,75.92 461.31,75.75 462.84,75.61 464.37,74.69 465.90,73.66 467.43,72.02 468.96,71.54 470.49,70.70 472.02,69.33 473.55,66.27 475.08,63.96 476.61,61.38 478.14,60.83 479.67,59.70 481.19,57.41 482.72,56.02 484.25,55.25 485.78,54.09 487.31,53.49 488.84,52.65 490.37,52.26 491.90,50.96 493.43,49.01 494.96,47.16 496.49,46.61 498.02,45.64 499.55,43.91 501.08,42.61 502.61,40.69 504.14,39.70 505.67,37.73 507.20,35.10 508.73,32.86" />
    </svg>
  