
    <svg width="540" height="160" xmlns="http://www.w3.org/2000/svg">
      <style>.line{fill:none;stroke:#388bfd;stroke-width:1.5}.axis{stroke:#555;stroke-width:1;opacity:0.5}.label{fill:#999;font-family:sans-serif;font-size:10px;text-anchor:middle}</style>
      <line class="axis" x1="30" y1="30" x2="30" y2="130" />
      <line class="axis" x1="30" y1="130" x2="510" y2="130" />
      <text class="label" x="15" y="30">9,329</text>
      <text class="label" x="15" y="134">0</text>
      <text class="label" x="30" y="148">2021</text>
      <text class="label" x="510" y="148">2026</text>
      <polyline class="line" points="30.00,129.98 31.44,129.97 32.88,129.96 34.33,129.96 35.77,129.96 37.21,129.82 38.65,129.82 40.10,129.82 41.54,129.05 42.98,127.77 44.42,127.71 45.86,127.71 47.31,127.71 48.75,127.71 50.19,127.71 51.63,127.71 53.07,127.71 54.52,127.71 55.96,127.71 57.40,127.71 58.84,127.71 60.29,127.71 61.73,127.71 63.17,127.71 64.61,127.71 66.05,127.71 67.50,127.71 68.94,126.98 70.38,126.98 71.82,126.97 73.26,126.97 74.71,126.97 76.15,126.97 77.59,126.92 79.03,126.92 80.48,126.92 81.92,126.92 83.36,126.92 84.80,126.92 86.24,126.92 87.69,126.92 89.13,126.92 90.57,126.92 92.01,126.92 93.46,126.92 94.90,126.92 96.34,126.92 97.78,126.92 99.22,126.92 100.67,126.92 102.11,126.92 103.55,126.88 104.99,126.23 106.43,125.63 107.88,125.38 109.32,124.19 110.76,124.19 112.20,124.19 113.65,124.19 115.09,124.19 116.53,124.19 117.97,124.19 119.41,124.19 120.86,124.19 122.30,124.19 123.74,124.19 125.18,124.19 126.62,124.10 128.07,124.10 129.51,124.10 130.95,124.00 132.39,124.00 133.84,124.00 135.28,124.00 136.72,123.97 138.16,123.97 139.60,123.97 141.05,123.97 142.49,123.94 143.93,123.94 145.37,123.94 146.82,123.94 148.26,123.94 149.70,123.94 151.14,123.94 152.58,123.94 154.03,123.94 155.47,123.94 156.91,123.94 158.35,123.94 159.79,123.94 161.24,123.94 162.68,123.94 164.12,123.94 165.56,123.94 167.01,123.94 168.45,123.94 169.89,123.94 171.33,123.94 172.77,123.94 174.22,123.94 175.66,123.91 177.10,123.91 178.54,123.91 179.98,123.91 181.43,123.91 182.87,123.91 184.31,123.91 185.75,123.91 187.20,123.91 188.64,123.91 190.08,123.91 191.52,123.91 192.96,123.91 194.41,123.91 195.85,123.91 197.29,123.89 198.73,123.61 200.18,123.54 201.62,123.42 203.06,123.27 204.50,123.23 205.94,123.23 207.39,123.23 208.83,122.99 210.27,122.97 211.71,122.82 213.15,122.76 214.60,122.67 216.04,122.29 217.48,122.27 218.92,122.22 220.37,122.21 221.81,122.15 223.25,122.15 224.69,122.13 226.13,122.13 227.58,122.13 229.02,122.13 230.46,122.13 231.90,122.13 233.35,122.13 234.79,122.01 236.23,121.67 237.67,121.41 239.11,121.34 240.56,121.18 242.00,121.17 243.44,121.15 244.88,121.14 246.32,121.14 247.77,121.14 249.21,121.06 250.65,120.99 252.09,120.96 253.54,120.94 254.98,120.92 256.42,120.67 257.86,120.50 259.30,120.25 260.75,120.08 262.19,119.97 263.63,119.91 265.07,119.85 266.51,119.84 267.96,119.78 269.40,119.62 270.84,119.62 272.28,119.62 273.73,119.61 275.17,119.60 276.61,119.60 278.05,119.52 279.49,119.50 280.94,119.48 282.38,119.47 283.82,119.45 285.26,119.45 286.71,119.45 288.15,119.45 289.59,119.45 291.03,119.45 292.47,119.45 293.92,119.45 295.36,119.42 296.80,119.39 298.24,119.39 299.68,119.19 301.13,119.18 302.57,119.17 304.01,119.14 305.45,119.04 306.90,118.81 308.34,118.77 309.78,118.77 311.22,118.77 312.66,118.77 314.11,118.77 315.55,118.77 316.99,118.77 318.43,118.77 319.87,118.77 321.32,118.77 322.76,118.77 324.20,118.77 325.64,118.77 327.09,118.76 328.53,118.69 329.97,118.68 331.41,118.68 332.85,118.68 334.30,118.68 335.74,118.64 337.18,118.64 338.62,118.47 340.07,118.31 341.51,118.31 342.95,118.31 344.39,118.31 345.83,118.31 347.28,118.28 348.72,118.28 350.16,118.26 351.60,118.19 353.04,118.12 354.49,117.83 355.93,117.82 357.37,117.38 358.81,117.13 360.26,116.93 361.70,116.32 363.14,116.16 364.58,116.10 366.02,115.89 367.47,115.58 368.91,115.51 370.35,115.40 371.79,115.23 373.23,115.08 374.68,115.01 376.12,114.91 377.56,114.83 379.00,114.64 380.45,114.47 381.89,114.26 383.33,113.93 384.77,113.74 386.21,112.78 387.66,112.07 389.10,111.61 390.54,111.21 391.98,110.77 393.43,110.77 394.87,110.77 396.31,110.77 397.75,110.49 399.19,110.33 400.64,109.75 402.08,109.10 403.52,108.34 404.96,107.19 406.40,106.39 407.85,104.73 409.29,103.74 410.73,103.07 412.17,102.00 413.62,101.32 415.06,99.95 416.50,97.90 417.94,97.27 419.38,96.47 420.83,95.70 422.27,95.44 423.71,94.45 425.15,94.28 426.59,93.10 428.04,92.03 429.48,91.39 430.92,90.66 432.36,89.70 433.81,89.44 435.25,89.35 436.69,89.25 438.13,89.18 439.57,88.57 441.02,87.78 442.46,86.81 443.90,86.54 445.34,85.76 446.79,84.75 448.23,82.75 449.67,81.27 451.11,79.45 452.55,78.97 454.00,78.00 455.44,76.21 456.88,75.19 458.32,74.64 459.76,73.85 461.21,73.34 462.65,72.60 464.09,72.26 465.53,71.50 466.98,70.08 468.42,68.50 469.86,68.02 471.30,67.13 472.74,65.50 474.19,64.67 475.63,62.64 477.07,61.68 478.51,59.92 479.95,58.20 481.40,56.13 482.84,53.02 484.28,50.97 485.72,49.20 487.17,48.06 488.61,46.59 490.05,45.27 491.49,44.63 492.93,43.56 494.38,42.26 495.82,41.53 497.26,40.42 498.70,39.57 500.15,38.77 501.59,37.56 503.03,35.35 504.47,33.58 505.91,32.09 507.36,30.86 508.80,30.41" />
    </svg>
  