
    <svg width="540" height="160" xmlns="http://www.w3.org/2000/svg">
      <style>.line{fill:none;stroke:#388bfd;stroke-width:1.5}.axis{stroke:#555;stroke-width:1;opacity:0.5}.label{fill:#999;font-family:sans-serif;font-size:10px;text-anchor:middle}</style>
      <line class="axis" x1="30" y1="30" x2="30" y2="130" />
      <line class="axis" x1="30" y1="130" x2="510" y2="130" />
      <text class="label" x="15" y="30">5,170</text>
      <text class="label" x="15" y="134">0</text>
      <text class="label" x="30" y="148">2021</text>
      <text class="label" x="510" y="148">2026</text>
      <polyline class="line" points="30.00,129.96 31.52,129.94 33.03,129.92 34.55,129.92 36.07,129.92 37.58,129.67 39.10,129.67 40.62,129.67 42.13,128.28 43.65,125.98 45.17,125.86 46.68,125.86 48.20,125.86 49.72,125.86 51.23,125.86 52.75,125.86 54.27,125.86 55.78,125.86 57.30,125.86 58.82,125.86 60.33,125.86 61.85,125.86 63.36,125.86 64.88,125.86 66.40,125.86 67.91,125.86 69.43,125.86 70.95,124.55 72.46,124.55 73.98,124.53 75.50,124.53 77.01,124.53 78.53,124.53 80.05,124.45 81.56,124.45 83.08,124.45 84.60,124.45 86.11,124.45 87.63,124.45 89.15,124.45 90.66,124.45 92.18,124.45 93.70,124.45 95.21,124.45 96.73,124.45 98.25,124.45 99.76,124.45 101.28,124.45 102.80,124.45 104.31,124.45 105.83,124.45 107.35,124.37 108.86,123.19 110.38,122.11 111.90,121.66 113.41,119.52 114.93,119.52 116.45,119.52 117.96,119.52 119.48,119.52 121.00,119.52 122.51,119.52 124.03,119.52 125.55,119.52 127.06,119.52 128.58,119.52 130.09,119.52 131.61,119.36 133.13,119.36 134.64,119.36 136.16,119.17 137.68,119.17 139.19,119.17 140.71,119.17 142.23,119.11 143.74,119.11 145.26,119.11 146.78,119.11 148.29,119.07 149.81,119.07 151.33,119.07 152.84,119.07 154.36,119.07 155.88,119.07 157.39,119.07 158.91,119.07 160.43,119.07 161.94,119.07 163.46,119.07 164.98,119.07 166.49,119.07 168.01,119.07 169.53,119.07 171.04,119.07 172.56,119.07 174.08,119.07 175.59,119.07 177.11,119.07 178.63,119.07 180.14,119.07 181.66,119.07 183.18,119.01 184.69,119.01 186.21,119.01 187.73,119.01 189.24,119.01 190.76,119.01 192.27,119.01 193.79,119.01 195.31,119.01 196.82,119.01 198.34,119.01 199.86,119.01 201.37,119.01 202.89,119.01 204.41,119.01 205.92,118.97 207.44,118.47 208.96,118.34 210.47,118.12 211.99,117.85 213.51,117.78 215.02,117.78 216.54,117.78 218.06,117.35 219.57,117.31 221.09,117.04 222.61,116.94 224.12,116.77 225.64,116.09 227.16,116.05 228.67,115.96 230.19,115.94 231.71,115.84 233.22,115.84 234.74,115.80 236.26,115.80 237.77,115.80 239.29,115.80 240.81,115.80 242.32,115.80 243.84,115.80 245.36,115.59 246.87,114.97 248.39,114.51 249.91,114.37 251.42,114.08 252.94,114.06 254.45,114.02 255.97,114.00 257.49,114.00 259.00,114.00 260.52,113.87 262.04,113.73 263.55,113.69 265.07,113.66 266.59,113.62 268.10,113.17 269.62,112.86 271.14,112.40 272.65,112.11 274.17,111.90 275.69,111.80 277.20,111.68 278.72,111.66 280.24,111.57 281.75,111.28 283.27,111.28 284.79,111.28 286.30,111.26 287.82,111.24 289.34,111.24 290.85,111.08 292.37,111.04 293.89,111.03 295.40,111.01 296.92,110.97 298.44,110.97 299.95,110.97 301.47,110.97 302.99,110.97 304.50,110.97 306.02,110.97 307.54,110.97 309.05,110.91 310.57,110.85 312.09,110.85 313.60,110.50 315.12,110.48 316.64,110.46 318.15,110.41 319.67,110.23 321.18,109.81 322.70,109.73 324.22,109.73 325.73,109.73 327.25,109.73 328.77,109.73 330.28,109.73 331.80,109.73 333.32,109.73 334.83,109.73 336.35,109.73 337.87,109.73 339.38,109.73 340.90,109.73 342.42,109.71 343.93,109.59 345.45,109.57 346.97,109.57 348.48,109.57 350.00,109.57 351.52,109.50 353.03,109.50 354.55,109.19 356.07,108.90 357.58,108.90 359.10,108.90 360.62,108.90 362.13,108.90 363.65,108.86 365.17,108.86 366.68,108.82 368.20,108.68 369.72,108.57 371.23,108.05 372.75,108.03 374.27,107.23 375.78,106.77 377.30,106.42 378.82,105.32 380.33,105.03 381.85,104.91 383.36,104.55 384.88,103.98 386.40,103.85 387.91,103.66 389.43,103.35 390.95,103.08 392.46,102.96 393.98,102.77 395.50,102.63 397.01,102.28 398.53,101.97 400.05,101.61 401.56,101.01 403.08,100.66 404.60,98.94 406.11,97.64 407.63,96.81 409.15,96.09 410.66,95.30 412.18,95.30 413.70,95.30 415.21,95.30 416.73,94.80 418.25,94.51 419.76,93.87 421.28,93.13 422.80,92.13 424.31,90.54 425.83,89.65 427.35,88.03 428.86,87.08 430.38,86.48 431.90,85.49 433.41,84.72 434.93,83.40 436.45,81.49 437.96,80.93 439.48,80.12 441.00,79.42 442.51,79.19 444.03,78.30 445.55,78.14 447.06,77.08 448.58,76.11 450.09,75.53 451.61,74.85 453.13,73.93 454.64,73.66 456.16,73.52 457.68,73.38 459.19,73.27 460.71,72.53 462.23,71.70 463.74,70.39 465.26,70.00 466.78,69.32 468.29,68.22 469.81,65.76 471.33,63.91 472.84,61.84 474.36,61.39 475.88,60.48 477.39,58.65 478.91,57.52 480.43,56.91 481.94,55.98 483.46,55.49 484.98,54.82 486.49,54.51 488.01,53.46 489.53,51.90 491.04,50.41 492.56,49.96 494.08,49.19 495.59,47.79 497.11,46.75 498.63,45.20 500.14,44.41 501.66,42.82 503.18,40.72 504.69,38.92 506.21,35.11 507.73,32.42 509.24,30.56" />
    </svg>
  