
    <svg width="540" height="160" xmlns="http://www.w3.org/2000/svg">
      <style>.line{fill:none;stroke:#388bfd;stroke-width:1.5}.axis{stroke:#555;stroke-width:1;opacity:0.5}.label{fill:#999;font-family:sans-serif;font-size:10px;text-anchor:middle}</style>
      <line class="axis" x1="30" y1="30" x2="30" y2="130" />
      <line class="axis" x1="30" y1="130" x2="510" y2="130" />
      <text class="label" x="15" y="30">7,366</text>
      <text class="label" x="15" y="134">0</text>
      <text class="label" x="30" y="148">2021</text>
      <text class="label" x="510" y="148">2026</text>
      <polyline class="line" points="30.00,129.97 31.51,129.96 33.02,129.95 34.52,129.95 36.03,129.95 37.54,129.77 39.05,129.77 40.55,129.77 42.06,128.79 43.57,127.18 45.08,127.09 46.59,127.09 48.09,127.09 49.60,127.09 51.11,127.09 52.62,127.09 54.13,127.09 55.63,127.09 57.14,127.09 58.65,127.09 60.16,127.09 61.66,127.09 63.17,127.09 64.68,127.09 66.19,127.09 67.70,127.09 69.20,127.09 70.71,126.17 72.22,126.17 73.73,126.16 75.24,126.16 76.74,126.16 78.25,126.16 79.76,126.10 81.27,126.10 82.77,126.10 84.28,126.10 85.79,126.10 87.30,126.10 88.81,126.10 90.31,126.10 91.82,126.10 93.33,126.10 94.84,126.10 96.35,126.10 97.85,126.10 99.36,126.10 100.87,126.10 102.38,126.10 103.88,126.10 105.39,126.10 106.90,126.05 108.41,125.22 109.92,124.46 111.42,124.15 112.93,122.64 114.44,122.64 115.95,122.64 117.46,122.64 118.96,122.64 120.47,122.64 121.98,122.64 123.49,122.64 124.99,122.64 126.50,122.64 128.01,122.64 129.52,122.64 131.03,122.53 132.53,122.53 134.04,122.53 135.55,122.40 137.06,122.40 138.57,122.40 140.07,122.40 141.58,122.36 143.09,122.36 144.60,122.36 146.10,122.36 147.61,122.33 149.12,122.33 150.63,122.33 152.14,122.33 153.64,122.33 155.15,122.33 156.66,122.33 158.17,122.33 159.68,122.33 161.18,122.33 162.69,122.33 164.20,122.33 165.71,122.33 167.21,122.33 168.72,122.33 170.23,122.33 171.74,122.33 173.25,122.33 174.75,122.33 176.26,122.33 177.77,122.33 179.28,122.33 180.79,122.33 182.29,122.29 183.80,122.29 185.31,122.29 186.82,122.29 188.32,122.29 189.83,122.29 191.34,122.29 192.85,122.29 194.36,122.29 195.86,122.29 197.37,122.29 198.88,122.29 200.39,122.29 201.90,122.29 203.40,122.29 204.91,122.26 206.42,121.91 207.93,121.81 209.43,121.66 210.94,121.47 212.45,121.42 213.96,121.42 215.47,121.42 216.97,121.12 218.48,121.09 219.99,120.90 221.50,120.84 223.01,120.71 224.51,120.24 226.02,120.21 227.53,120.14 229.04,120.13 230.54,120.06 232.05,120.06 233.56,120.04 235.07,120.04 236.58,120.04 238.08,120.04 239.59,120.04 241.10,120.04 242.61,120.04 244.12,119.89 245.62,119.45 247.13,119.13 248.64,119.03 250.15,118.83 251.65,118.81 253.16,118.79 254.67,118.77 256.18,118.77 257.69,118.77 259.19,118.68 260.70,118.58 262.21,118.56 263.72,118.53 265.23,118.50 266.73,118.19 268.24,117.97 269.75,117.65 271.26,117.44 272.76,117.29 274.27,117.23 275.78,117.14 277.29,117.13 278.80,117.06 280.30,116.86 281.81,116.86 283.32,116.86 284.83,116.84 286.34,116.83 287.84,116.83 289.35,116.72 290.86,116.70 292.37,116.68 293.87,116.67 295.38,116.64 296.89,116.64 298.40,116.64 299.91,116.64 301.41,116.64 302.92,116.64 304.43,116.64 305.94,116.64 307.45,116.60 308.95,116.56 310.46,116.56 311.97,116.32 313.48,116.30 314.98,116.29 316.49,116.25 318.00,116.13 319.51,115.83 321.02,115.77 322.52,115.77 324.03,115.77 325.54,115.77 327.05,115.77 328.55,115.77 330.06,115.77 331.57,115.77 333.08,115.77 334.59,115.77 336.09,115.77 337.60,115.77 339.11,115.77 340.62,115.76 342.13,115.68 343.63,115.66 345.14,115.66 346.65,115.66 348.16,115.66 349.66,115.61 351.17,115.61 352.68,115.39 354.19,115.19 355.70,115.19 357.20,115.19 358.71,115.19 360.22,115.19 361.73,115.16 363.24,115.16 364.74,115.13 366.25,115.04 367.76,114.96 369.27,114.59 370.77,114.58 372.28,114.02 373.79,113.70 375.30,113.45 376.81,112.68 378.31,112.47 379.82,112.39 381.33,112.13 382.84,111.74 384.35,111.65 385.85,111.51 387.36,111.29 388.87,111.10 390.38,111.02 391.88,110.89 393.39,110.79 394.90,110.55 396.41,110.33 397.92,110.07 399.42,109.65 400.93,109.41 402.44,108.20 403.95,107.29 405.46,106.70 406.96,106.20 408.47,105.64 409.98,105.64 411.49,105.64 412.99,105.64 414.50,105.29 416.01,105.09 417.52,104.36 419.03,103.53 420.53,102.56 422.04,101.11 423.55,100.09 425.06,98.00 426.57,96.74 428.07,95.90 429.58,94.54 431.09,93.67 432.60,91.95 434.10,89.34 435.61,88.55 437.12,87.53 438.63,86.56 440.14,86.23 441.64,84.98 443.15,84.77 444.66,83.27 446.17,81.91 447.68,81.10 449.18,80.18 450.69,78.95 452.20,78.63 453.71,78.52 455.21,78.38 456.72,78.30 458.23,77.53 459.74,76.52 461.25,75.30 462.75,74.96 464.26,73.97 465.77,72.70 467.28,70.16 468.79,68.28 470.29,65.98 471.80,65.37 473.31,64.14 474.82,61.88 476.32,60.59 477.83,59.88 479.34,58.89 480.85,58.24 482.36,57.30 483.86,56.87 485.37,55.92 486.88,54.11 488.39,52.12 489.90,51.50 491.40,50.57 492.91,49.32 494.42,48.42 495.93,47.02 497.43,46.16 498.94,44.31 500.45,42.35 501.96,40.63 503.47,37.21 504.97,35.09 506.48,33.04 507.99,31.90 509.50,30.23" />
    </svg>
  