
    <svg width="540" height="160" xmlns="http://www.w3.org/2000/svg">
      <style>.line{fill:none;stroke:#388bfd;stroke-width:1.5}.axis{stroke:#555;stroke-width:1;opacity:0.5}.label{fill:#999;font-family:sans-serif;font-size:10px;text-anchor:middle}</style>
      <line class="axis" x1="30" y1="30" x2="30" y2="130" />
      <line class="axis" x1="30" y1="130" x2="510" y2="130" />
      <text class="label" x="15" y="30">7,851</text>
      <text class="label" x="15" y="134">0</text>
      <text class="label" x="30" y="148">2021</text>
      <text class="label" x="510" y="148">2026</text>
      <polyline class="line" points="30.00,129.97 31.48,129.96 32.97,129.95 34.45,129.95 35.94,129.95 37.42,129.78 38.90,129.78 40.39,129.78 41.87,128.87 43.35,127.35 44.84,127.27 46.32,127.27 47.81,127.27 49.29,127.27 50.77,127.27 52.26,127.27 53.74,127.27 55.22,127.27 56.71,127.27 58.19,127.27 59.68,127.27 61.16,127.27 62.64,127.27 64.13,127.27 65.61,127.27 67.09,127.27 68.58,127.27 70.06,126.41 71.55,126.41 73.03,126.40 74.51,126.40 76.00,126.40 77.48,126.40 78.96,126.34 80.45,126.34 81.93,126.34 83.42,126.34 84.90,126.34 86.38,126.34 87.87,126.34 89.35,126.34 90.83,126.34 92.32,126.34 93.80,126.34 95.29,126.34 96.77,126.34 98.25,126.34 99.74,126.34 101.22,126.34 102.70,126.34 104.19,126.34 105.67,126.29 107.16,125.52 108.64,124.80 110.12,124.51 111.61,123.10 113.09,123.10 114.57,123.10 116.06,123.10 117.54,123.10 119.03,123.10 120.51,123.10 121.99,123.10 123.48,123.10 124.96,123.10 126.45,123.10 127.93,123.10 129.41,122.99 130.90,122.99 132.38,122.99 133.86,122.87 135.35,122.87 136.83,122.87 138.32,122.87 139.80,122.83 141.28,122.83 142.77,122.83 144.25,122.83 145.73,122.80 147.22,122.80 148.70,122.80 150.19,122.80 151.67,122.80 153.15,122.80 154.64,122.80 156.12,122.80 157.60,122.80 159.09,122.80 160.57,122.80 162.06,122.80 163.54,122.80 165.02,122.80 166.51,122.80 167.99,122.80 169.47,122.80 170.96,122.80 172.44,122.80 173.93,122.80 175.41,122.80 176.89,122.80 178.38,122.80 179.86,122.77 181.34,122.77 182.83,122.77 184.31,122.77 185.80,122.77 187.28,122.77 188.76,122.77 190.25,122.77 191.73,122.77 193.21,122.77 194.70,122.77 196.18,122.77 197.67,122.77 199.15,122.77 200.63,122.77 202.12,122.74 203.60,122.41 205.09,122.32 206.57,122.18 208.05,122.00 209.54,121.95 211.02,121.95 212.50,121.95 213.99,121.67 215.47,121.64 216.96,121.47 218.44,121.40 219.92,121.29 221.41,120.84 222.89,120.82 224.37,120.75 225.86,120.74 227.34,120.68 228.83,120.68 230.31,120.65 231.79,120.65 233.28,120.65 234.76,120.65 236.24,120.65 237.73,120.65 239.21,120.65 240.70,120.51 242.18,120.10 243.66,119.80 245.15,119.71 246.63,119.52 248.11,119.50 249.60,119.48 251.08,119.47 252.57,119.47 254.05,119.47 255.53,119.38 257.02,119.29 258.50,119.26 259.98,119.24 261.47,119.21 262.95,118.92 264.44,118.71 265.92,118.41 267.40,118.22 268.89,118.08 270.37,118.01 271.85,117.94 273.34,117.93 274.82,117.86 276.31,117.67 277.79,117.67 279.27,117.67 280.76,117.66 282.24,117.64 283.72,117.64 285.21,117.54 286.69,117.52 288.18,117.50 289.66,117.49 291.14,117.47 292.63,117.47 294.11,117.47 295.60,117.47 297.08,117.47 298.56,117.47 300.05,117.47 301.53,117.47 303.01,117.43 304.50,117.39 305.98,117.39 307.47,117.16 308.95,117.15 310.43,117.14 311.92,117.10 313.40,116.98 314.88,116.70 316.37,116.65 317.85,116.65 319.34,116.65 320.82,116.65 322.30,116.65 323.79,116.65 325.27,116.65 326.75,116.65 328.24,116.65 329.72,116.65 331.21,116.65 332.69,116.65 334.17,116.65 335.66,116.64 337.14,116.56 338.62,116.55 340.11,116.55 341.59,116.55 343.08,116.55 344.56,116.50 346.04,116.50 347.53,116.29 349.01,116.10 350.49,116.10 351.98,116.10 353.46,116.10 354.95,116.10 356.43,116.08 357.91,116.08 359.40,116.05 360.88,115.96 362.36,115.89 363.85,115.54 365.33,115.53 366.82,115.01 368.30,114.70 369.78,114.47 371.27,113.75 372.75,113.56 374.23,113.48 375.72,113.24 377.20,112.87 378.69,112.78 380.17,112.65 381.65,112.45 383.14,112.27 384.62,112.19 386.11,112.07 387.59,111.98 389.07,111.75 390.56,111.54 392.04,111.30 393.52,110.91 395.01,110.68 396.49,109.54 397.98,108.69 399.46,108.14 400.94,107.67 402.43,107.15 403.91,107.15 405.39,107.15 406.88,107.15 408.36,106.82 409.85,106.63 411.33,105.94 412.81,105.16 414.30,104.26 415.78,102.90 417.26,101.94 418.75,99.98 420.23,98.79 421.72,98.00 423.20,96.73 424.68,95.92 426.17,94.30 427.65,91.85 429.13,91.11 430.62,90.16 432.10,89.24 433.59,88.94 435.07,87.76 436.55,87.56 438.04,86.16 439.52,84.88 441.00,84.12 442.49,83.25 443.97,82.11 445.46,81.80 446.94,81.70 448.42,81.57 449.91,81.50 451.39,80.77 452.87,79.83 454.36,78.68 455.84,78.36 457.33,77.43 458.81,76.24 460.29,73.85 461.78,72.10 463.26,69.93 464.74,69.36 466.23,68.21 467.71,66.08 469.20,64.87 470.68,64.21 472.16,63.28 473.65,62.67 475.13,61.79 476.62,61.38 478.10,60.49 479.58,58.80 481.07,56.93 482.55,56.35 484.03,55.39 485.52,53.83 487.00,52.91 488.49,51.05 489.97,50.07 491.45,48.16 492.94,46.23 494.42,44.19 495.90,40.74 497.39,38.64 498.87,36.62 500.36,35.50 501.84,33.85 503.32,32.43 504.81,31.95 506.29,31.15 507.77,30.20 509.26,30.00" />
    </svg>
  