
    <svg width="540" height="160" xmlns="http://www.w3.org/2000/svg">
      <style>.line{fill:none;stroke:#388bfd;stroke-width:1.5}.axis{stroke:#555;stroke-width:1;opacity:0.5}.label{fill:#999;font-family:sans-serif;font-size:10px;text-anchor:middle}</style>
      <line class="axis" x1="30" y1="30" x2="30" y2="130" />
      <line class="axis" x1="30" y1="130" x2="510" y2="130" />
      <text class="label" x="15" y="30">8,990</text>
      <text class="label" x="15" y="134">0</text>
      <text class="label" x="30" y="148">2021</text>
      <text class="label" x="510" y="148">2026</text>
      <polyline class="line" points="30.00,129.98 31.46,129.97 32.91,129.96 34.37,129.96 35.83,129.96 37.29,129.81 38.74,129.81 40.20,129.81 41.66,129.01 43.12,127.69 44.57,127.62 46.03,127.62 47.49,127.62 48.95,127.62 50.40,127.62 51.86,127.62 53.32,127.62 54.78,127.62 56.23,127.62 57.69,127.62 59.15,127.62 60.61,127.62 62.06,127.62 63.52,127.62 64.98,127.62 66.44,127.62 67.89,127.62 69.35,126.86 70.81,126.86 72.27,126.85 73.72,126.85 75.18,126.85 76.64,126.85 78.10,126.81 79.55,126.81 81.01,126.81 82.47,126.81 83.93,126.81 85.38,126.81 86.84,126.81 88.30,126.81 89.76,126.81 91.21,126.81 92.67,126.81 94.13,126.81 95.59,126.81 97.04,126.81 98.50,126.81 99.96,126.81 101.42,126.81 102.87,126.81 104.33,126.76 105.79,126.08 107.25,125.46 108.70,125.21 110.16,123.97 111.62,123.97 113.08,123.97 114.53,123.97 115.99,123.97 117.45,123.97 118.91,123.97 120.36,123.97 121.82,123.97 123.28,123.97 124.74,123.97 126.19,123.97 127.65,123.88 129.11,123.88 130.57,123.88 132.02,123.77 133.48,123.77 134.94,123.77 136.40,123.77 137.85,123.74 139.31,123.74 140.77,123.74 142.23,123.74 143.68,123.72 145.14,123.72 146.60,123.72 148.06,123.72 149.51,123.72 150.97,123.72 152.43,123.72 153.89,123.72 155.34,123.72 156.80,123.72 158.26,123.72 159.72,123.72 161.17,123.72 162.63,123.72 164.09,123.72 165.55,123.72 167.00,123.72 168.46,123.72 169.92,123.72 171.38,123.72 172.83,123.72 174.29,123.72 175.75,123.72 177.21,123.68 178.66,123.68 180.12,123.68 181.58,123.68 183.04,123.68 184.49,123.68 185.95,123.68 187.41,123.68 188.87,123.68 190.32,123.68 191.78,123.68 193.24,123.68 194.70,123.68 196.15,123.68 197.61,123.68 199.07,123.66 200.53,123.37 201.98,123.29 203.44,123.17 204.90,123.01 206.36,122.97 207.81,122.97 209.27,122.97 210.73,122.73 212.19,122.70 213.64,122.55 215.10,122.49 216.56,122.39 218.02,122.00 219.47,121.98 220.93,121.92 222.39,121.91 223.85,121.86 225.30,121.86 226.76,121.84 228.22,121.84 229.68,121.84 231.13,121.84 232.59,121.84 234.05,121.84 235.51,121.84 236.96,121.71 238.42,121.36 239.88,121.09 241.34,121.01 242.79,120.85 244.25,120.83 245.71,120.81 247.17,120.80 248.62,120.80 250.08,120.80 251.54,120.72 253.00,120.65 254.45,120.62 255.91,120.60 257.37,120.58 258.83,120.32 260.28,120.14 261.74,119.88 263.20,119.71 264.66,119.59 266.11,119.53 267.57,119.47 269.03,119.45 270.49,119.40 271.94,119.23 273.40,119.23 274.86,119.23 276.32,119.22 277.77,119.21 279.23,119.21 280.69,119.12 282.15,119.10 283.60,119.09 285.06,119.08 286.52,119.05 287.98,119.05 289.43,119.05 290.89,119.05 292.35,119.05 293.81,119.05 295.26,119.05 296.72,119.05 298.18,119.02 299.64,118.99 301.09,118.99 302.55,118.79 304.01,118.78 305.47,118.77 306.92,118.73 308.38,118.63 309.84,118.39 311.30,118.34 312.75,118.34 314.21,118.34 315.67,118.34 317.13,118.34 318.58,118.34 320.04,118.34 321.50,118.34 322.96,118.34 324.41,118.34 325.87,118.34 327.33,118.34 328.79,118.34 330.24,118.33 331.70,118.26 333.16,118.25 334.62,118.25 336.07,118.25 337.53,118.25 338.99,118.21 340.45,118.21 341.90,118.03 343.36,117.86 344.82,117.86 346.28,117.86 347.73,117.86 349.19,117.86 350.65,117.84 352.11,117.84 353.56,117.82 355.02,117.74 356.48,117.68 357.94,117.37 359.39,117.36 360.85,116.91 362.31,116.64 363.77,116.44 365.22,115.81 366.68,115.64 368.14,115.57 369.60,115.36 371.05,115.04 372.51,114.96 373.97,114.85 375.43,114.67 376.88,114.52 378.34,114.45 379.80,114.34 381.26,114.26 382.71,114.06 384.17,113.88 385.63,113.67 387.09,113.33 388.54,113.13 390.00,112.14 391.46,111.39 392.91,110.91 394.37,110.50 395.83,110.04 397.29,110.04 398.74,110.04 400.20,110.04 401.66,109.76 403.12,109.59 404.57,108.99 406.03,108.31 407.49,107.52 408.95,106.33 410.40,105.49 411.86,103.78 413.32,102.75 414.78,102.06 416.23,100.95 417.69,100.23 419.15,98.82 420.61,96.69 422.06,96.04 423.52,95.21 424.98,94.40 426.44,94.14 427.89,93.11 429.35,92.94 430.81,91.71 432.27,90.60 433.72,89.93 435.18,89.18 436.64,88.18 438.10,87.91 439.55,87.82 441.01,87.71 442.47,87.64 443.93,87.01 445.38,86.18 446.84,85.18 448.30,84.91 449.76,84.09 451.21,83.05 452.67,80.97 454.13,79.43 455.59,77.54 457.04,77.04 458.50,76.04 459.96,74.18 461.42,73.13 462.87,72.55 464.33,71.74 465.79,71.20 467.25,70.43 468.70,70.08 470.16,69.30 471.62,67.82 473.08,66.18 474.53,65.68 475.99,64.76 477.45,63.07 478.91,62.20 480.36,60.10 481.82,59.10 483.28,57.27 484.74,55.49 486.19,53.35 487.65,50.12 489.11,47.99 490.57,46.15 492.02,44.97 493.48,43.45 494.94,42.08 496.40,41.41 497.85,40.30 499.31,38.95 500.77,38.20 502.23,37.04 503.68,36.16 505.14,35.33 506.60,34.07 508.06,31.78 509.51,30.04" />
    </svg>
  