
    <svg width="540" height="160" xmlns="http://www.w3.org/2000/svg">
      <style>.line{fill:none;stroke:#388bfd;stroke-width:1.5}.axis{stroke:#555;stroke-width:1;opacity:0.5}.label{fill:#999;font-family:sans-serif;font-size:10px;text-anchor:middle}</style>
      <line class="axis" x1="30" y1="30" x2="30" y2="130" />
      <line class="axis" x1="30" y1="130" x2="510" y2="130" />
      <text class="label" x="15" y="30">8,986</text>
      <text class="label" x="15" y="134">0</text>
      <text class="label" x="30" y="148">2021</text>
      <text class="label" x="510" y="148">2026</text>
      <polyline class="line" points="30.00,129.98 31.46,129.97 32.92,129.96 34.38,129.96 35.84,129.96 37.29,129.81 38.75,129.81 40.21,129.81 41.67,129.01 43.13,127.69 44.59,127.62 46.05,127.62 47.51,127.62 48.97,127.62 50.43,127.62 51.88,127.62 53.34,127.62 54.80,127.62 56.26,127.62 57.72,127.62 59.18,127.62 60.64,127.62 62.10,127.62 63.56,127.62 65.02,127.62 66.47,127.62 67.93,127.62 69.39,126.86 70.85,126.86 72.31,126.85 73.77,126.85 75.23,126.85 76.69,126.85 78.15,126.81 79.60,126.81 81.06,126.81 82.52,126.81 83.98,126.81 85.44,126.81 86.90,126.81 88.36,126.81 89.82,126.81 91.28,126.81 92.74,126.81 94.19,126.81 95.65,126.81 97.11,126.81 98.57,126.81 100.03,126.81 101.49,126.81 102.95,126.81 104.41,126.76 105.87,126.08 107.33,125.46 108.78,125.20 110.24,123.97 111.70,123.97 113.16,123.97 114.62,123.97 116.08,123.97 117.54,123.97 119.00,123.97 120.46,123.97 121.91,123.97 123.37,123.97 124.83,123.97 126.29,123.97 127.75,123.88 129.21,123.88 130.67,123.88 132.13,123.77 133.59,123.77 135.05,123.77 136.50,123.77 137.96,123.73 139.42,123.73 140.88,123.73 142.34,123.73 143.80,123.71 145.26,123.71 146.72,123.71 148.18,123.71 149.64,123.71 151.09,123.71 152.55,123.71 154.01,123.71 155.47,123.71 156.93,123.71 158.39,123.71 159.85,123.71 161.31,123.71 162.77,123.71 164.22,123.71 165.68,123.71 167.14,123.71 168.60,123.71 170.06,123.71 171.52,123.71 172.98,123.71 174.44,123.71 175.90,123.71 177.36,123.68 178.81,123.68 180.27,123.68 181.73,123.68 183.19,123.68 184.65,123.68 186.11,123.68 187.57,123.68 189.03,123.68 190.49,123.68 191.95,123.68 193.40,123.68 194.86,123.68 196.32,123.68 197.78,123.68 199.24,123.66 200.70,123.37 202.16,123.29 203.62,123.17 205.08,123.01 206.53,122.97 207.99,122.97 209.45,122.97 210.91,122.72 212.37,122.70 213.83,122.54 215.29,122.49 216.75,122.39 218.21,122.00 219.67,121.98 221.12,121.92 222.58,121.91 224.04,121.85 225.50,121.85 226.96,121.83 228.42,121.83 229.88,121.83 231.34,121.83 232.80,121.83 234.26,121.83 235.71,121.83 237.17,121.71 238.63,121.35 240.09,121.09 241.55,121.01 243.01,120.84 244.47,120.83 245.93,120.81 247.39,120.80 248.84,120.80 250.30,120.80 251.76,120.72 253.22,120.64 254.68,120.62 256.14,120.60 257.60,120.57 259.06,120.32 260.52,120.14 261.98,119.87 263.43,119.71 264.89,119.58 266.35,119.53 267.81,119.46 269.27,119.45 270.73,119.39 272.19,119.23 273.65,119.23 275.11,119.23 276.57,119.22 278.02,119.21 279.48,119.21 280.94,119.12 282.40,119.09 283.86,119.08 285.32,119.07 286.78,119.05 288.24,119.05 289.70,119.05 291.16,119.05 292.61,119.05 294.07,119.05 295.53,119.05 296.99,119.05 298.45,119.02 299.91,118.98 301.37,118.98 302.83,118.78 304.29,118.77 305.74,118.76 307.20,118.73 308.66,118.63 310.12,118.38 311.58,118.34 313.04,118.34 314.50,118.34 315.96,118.34 317.42,118.34 318.88,118.34 320.33,118.34 321.79,118.34 323.25,118.34 324.71,118.34 326.17,118.34 327.63,118.34 329.09,118.34 330.55,118.33 332.01,118.26 333.47,118.25 334.92,118.25 336.38,118.25 337.84,118.25 339.30,118.20 340.76,118.20 342.22,118.03 343.68,117.86 345.14,117.86 346.60,117.86 348.05,117.86 349.51,117.86 350.97,117.84 352.43,117.84 353.89,117.81 355.35,117.74 356.81,117.67 358.27,117.37 359.73,117.36 361.19,116.90 362.64,116.63 364.10,116.43 365.56,115.80 367.02,115.63 368.48,115.57 369.94,115.35 371.40,115.03 372.86,114.95 374.32,114.84 375.78,114.67 377.23,114.51 378.69,114.44 380.15,114.33 381.61,114.25 383.07,114.05 384.53,113.87 385.99,113.66 387.45,113.32 388.91,113.12 390.36,112.13 391.82,111.38 393.28,110.90 394.74,110.49 396.20,110.04 397.66,110.04 399.12,110.04 400.58,110.04 402.04,109.75 403.50,109.58 404.95,108.98 406.41,108.30 407.87,107.51 409.33,106.32 410.79,105.48 412.25,103.77 413.71,102.74 415.17,102.05 416.63,100.93 418.09,100.22 419.54,98.81 421.00,96.67 422.46,96.02 423.92,95.19 425.38,94.39 426.84,94.12 428.30,93.10 429.76,92.92 431.22,91.70 432.67,90.58 434.13,89.92 435.59,89.16 437.05,88.16 438.51,87.89 439.97,87.80 441.43,87.69 442.89,87.62 444.35,86.99 445.81,86.17 447.26,85.16 448.72,84.89 450.18,84.07 451.64,83.03 453.10,80.95 454.56,79.41 456.02,77.52 457.48,77.02 458.94,76.02 460.40,74.16 461.85,73.10 463.31,72.52 464.77,71.71 466.23,71.18 467.69,70.41 469.15,70.05 470.61,69.27 472.07,67.79 473.53,66.16 474.98,65.66 476.44,64.73 477.90,63.04 479.36,62.17 480.82,60.07 482.28,59.07 483.74,57.24 485.20,55.46 486.66,53.31 488.12,50.09 489.57,47.95 491.03,46.11 492.49,44.93 493.95,43.41 495.41,42.04 496.87,41.37 498.33,40.26 499.79,38.91 501.25,38.16 502.71,37.00 504.16,36.12 505.62,35.29 507.08,34.03 508.54,31.74 510.00,30.00" />
    </svg>
  