
    <svg width="540" height="160" xmlns="http://www.w3.org/2000/svg">
      <style>.line{fill:none;stroke:#388bfd;stroke-width:1.5}.axis{stroke:#555;stroke-width:1;opacity:0.5}.label{fill:#999;font-family:sans-serif;font-size:10px;text-anchor:middle}</style>
      <line class="axis" x1="30" y1="30" x2="30" y2="130" />
      <line class="axis" x1="30" y1="130" x2="510" y2="130" />
      <text class="label" x="15" y="30">8,727</text>
      <text class="label" x="15" y="134">0</text>
      <text class="label" x="30" y="148">2021</text>
      <text class="label" x="510" y="148">2026</text>
      <polyline class="line" points="30.00,129.98 31.46,129.97 32.93,129.95 34.39,129.95 35.85,129.95 37.32,129.81 38.78,129.81 40.24,129.81 41.71,128.98 43.17,127.62 44.63,127.55 46.10,127.55 47.56,127.55 49.02,127.55 50.49,127.55 51.95,127.55 53.41,127.55 54.88,127.55 56.34,127.55 57.80,127.55 59.27,127.55 60.73,127.55 62.20,127.55 63.66,127.55 65.12,127.55 66.59,127.55 68.05,127.55 69.51,126.77 70.98,126.77 72.44,126.76 73.90,126.76 75.37,126.76 76.83,126.76 78.29,126.71 79.76,126.71 81.22,126.71 82.68,126.71 84.15,126.71 85.61,126.71 87.07,126.71 88.54,126.71 90.00,126.71 91.46,126.71 92.93,126.71 94.39,126.71 95.85,126.71 97.32,126.71 98.78,126.71 100.24,126.71 101.71,126.71 103.17,126.71 104.63,126.67 106.10,125.97 107.56,125.32 109.02,125.06 110.49,123.79 111.95,123.79 113.41,123.79 114.88,123.79 116.34,123.79 117.80,123.79 119.27,123.79 120.73,123.79 122.20,123.79 123.66,123.79 125.12,123.79 126.59,123.79 128.05,123.70 129.51,123.70 130.98,123.70 132.44,123.58 133.90,123.58 135.37,123.58 136.83,123.58 138.29,123.55 139.76,123.55 141.22,123.55 142.68,123.55 144.15,123.53 145.61,123.53 147.07,123.53 148.54,123.53 150.00,123.53 151.46,123.53 152.93,123.53 154.39,123.53 155.85,123.53 157.32,123.53 158.78,123.53 160.24,123.53 161.71,123.53 163.17,123.53 164.63,123.53 166.10,123.53 167.56,123.53 169.02,123.53 170.49,123.53 171.95,123.53 173.41,123.53 174.88,123.53 176.34,123.53 177.80,123.49 179.27,123.49 180.73,123.49 182.20,123.49 183.66,123.49 185.12,123.49 186.59,123.49 188.05,123.49 189.51,123.49 190.98,123.49 192.44,123.49 193.90,123.49 195.37,123.49 196.83,123.49 198.29,123.49 199.76,123.47 201.22,123.17 202.68,123.09 204.15,122.96 205.61,122.80 207.07,122.76 208.54,122.76 210.00,122.76 211.46,122.51 212.93,122.48 214.39,122.32 215.85,122.27 217.32,122.16 218.78,121.76 220.24,121.74 221.71,121.68 223.17,121.67 224.63,121.61 226.10,121.61 227.56,121.59 229.02,121.59 230.49,121.59 231.95,121.59 233.41,121.59 234.88,121.59 236.34,121.59 237.80,121.46 239.27,121.10 240.73,120.82 242.20,120.74 243.66,120.57 245.12,120.56 246.59,120.54 248.05,120.52 249.51,120.52 250.98,120.52 252.44,120.44 253.90,120.36 255.37,120.34 256.83,120.32 258.29,120.29 259.76,120.03 261.22,119.85 262.68,119.57 264.15,119.40 265.61,119.27 267.07,119.22 268.54,119.15 270.00,119.14 271.46,119.08 272.93,118.91 274.39,118.91 275.85,118.91 277.32,118.90 278.78,118.89 280.24,118.89 281.71,118.79 283.17,118.77 284.63,118.76 286.10,118.75 287.56,118.72 289.02,118.72 290.49,118.72 291.95,118.72 293.41,118.72 294.88,118.72 296.34,118.72 297.80,118.72 299.27,118.69 300.73,118.66 302.20,118.66 303.66,118.45 305.12,118.44 306.59,118.43 308.05,118.39 309.51,118.29 310.98,118.04 312.44,117.99 313.90,117.99 315.37,117.99 316.83,117.99 318.29,117.99 319.76,117.99 321.22,117.99 322.68,117.99 324.15,117.99 325.61,117.99 327.07,117.99 328.54,117.99 330.00,117.99 331.46,117.98 332.93,117.91 334.39,117.90 335.85,117.90 337.32,117.90 338.78,117.90 340.24,117.85 341.71,117.85 343.17,117.67 344.63,117.50 346.10,117.50 347.56,117.50 349.02,117.50 350.49,117.50 351.95,117.48 353.41,117.48 354.88,117.45 356.34,117.37 357.80,117.30 359.27,116.99 360.73,116.98 362.20,116.51 363.66,116.24 365.12,116.03 366.59,115.38 368.05,115.21 369.51,115.14 370.98,114.92 372.44,114.59 373.90,114.51 375.37,114.39 376.83,114.21 378.29,114.05 379.76,113.98 381.22,113.87 382.68,113.79 384.15,113.58 385.61,113.40 387.07,113.18 388.54,112.82 390.00,112.62 391.46,111.60 392.93,110.83 394.39,110.34 395.85,109.91 397.32,109.44 398.78,109.44 400.24,109.44 401.71,109.44 403.17,109.15 404.63,108.97 406.10,108.35 407.56,107.66 409.02,106.84 410.49,105.62 411.95,104.76 413.41,102.99 414.88,101.93 416.34,101.22 417.80,100.07 419.27,99.34 420.73,97.88 422.20,95.68 423.66,95.02 425.12,94.16 426.59,93.33 428.05,93.06 429.51,92.00 430.98,91.82 432.44,90.56 433.90,89.41 435.37,88.73 436.83,87.95 438.29,86.92 439.76,86.64 441.22,86.55 442.68,86.43 444.15,86.37 445.61,85.71 447.07,84.86 448.54,83.83 450.00,83.55 451.46,82.71 452.93,81.63 454.39,79.49 455.85,77.91 457.32,75.96 458.78,75.45 460.24,74.41 461.71,72.50 463.17,71.41 464.63,70.82 466.10,69.98 467.56,69.43 469.02,68.64 470.49,68.27 471.95,67.47 473.41,65.95 474.88,64.26 476.34,63.75 477.80,62.79 479.27,61.05 480.73,60.16 482.20,57.99 483.66,56.96 485.12,55.08 486.59,53.25 488.05,51.04 489.51,47.72 490.98,45.52 492.44,43.62 493.90,42.41 495.37,40.84 496.83,39.43 498.29,38.74 499.76,37.60 501.22,36.21 502.68,35.67 504.15,34.65 505.61,33.78 507.07,32.92 508.54,31.81 510.00,30.00" />
    </svg>
  