
    <svg width="540" height="160" xmlns="http://www.w3.org/2000/svg">
      <style>.line{fill:none;stroke:#388bfd;stroke-width:1.5}.axis{stroke:#555;stroke-width:1;opacity:0.5}.label{fill:#999;font-family:sans-serif;font-size:10px;text-anchor:middle}</style>
      <line class="axis" x1="30" y1="30" x2="30" y2="130" />
      <line class="axis" x1="30" y1="130" x2="510" y2="130" />
      <text class="label" x="15" y="30">8,950</text>
      <text class="label" x="15" y="134">0</text>
      <text class="label" x="30" y="148">2021</text>
      <text class="label" x="510" y="148">2026</text>
      <polyline class="line" points="30.00,129.98 31.46,129.97 32.92,129.96 34.38,129.96 35.84,129.96 37.30,129.81 38.76,129.81 40.22,129.81 41.68,129.01 43.14,127.68 44.60,127.61 46.06,127.61 47.52,127.61 48.98,127.61 50.44,127.61 51.90,127.61 53.36,127.61 54.82,127.61 56.27,127.61 57.73,127.61 59.19,127.61 60.65,127.61 62.11,127.61 63.57,127.61 65.03,127.61 66.49,127.61 67.95,127.61 69.41,126.85 70.87,126.85 72.33,126.84 73.79,126.84 75.25,126.84 76.71,126.84 78.17,126.79 79.63,126.79 81.09,126.79 82.55,126.79 84.01,126.79 85.47,126.79 86.93,126.79 88.39,126.79 89.85,126.79 91.31,126.79 92.77,126.79 94.23,126.79 95.69,126.79 97.15,126.79 98.61,126.79 100.07,126.79 101.53,126.79 102.99,126.79 104.45,126.75 105.90,126.07 107.36,125.44 108.82,125.18 110.28,123.94 111.74,123.94 113.20,123.94 114.66,123.94 116.12,123.94 117.58,123.94 119.04,123.94 120.50,123.94 121.96,123.94 123.42,123.94 124.88,123.94 126.34,123.94 127.80,123.85 129.26,123.85 130.72,123.85 132.18,123.74 133.64,123.74 135.10,123.74 136.56,123.74 138.02,123.71 139.48,123.71 140.94,123.71 142.40,123.71 143.86,123.69 145.32,123.69 146.78,123.69 148.24,123.69 149.70,123.69 151.16,123.69 152.62,123.69 154.08,123.69 155.53,123.69 156.99,123.69 158.45,123.69 159.91,123.69 161.37,123.69 162.83,123.69 164.29,123.69 165.75,123.69 167.21,123.69 168.67,123.69 170.13,123.69 171.59,123.69 173.05,123.69 174.51,123.69 175.97,123.69 177.43,123.65 178.89,123.65 180.35,123.65 181.81,123.65 183.27,123.65 184.73,123.65 186.19,123.65 187.65,123.65 189.11,123.65 190.57,123.65 192.03,123.65 193.49,123.65 194.95,123.65 196.41,123.65 197.87,123.65 199.33,123.63 200.79,123.34 202.25,123.26 203.71,123.14 205.16,122.98 206.62,122.94 208.08,122.94 209.54,122.94 211.00,122.69 212.46,122.67 213.92,122.51 215.38,122.46 216.84,122.36 218.30,121.97 219.76,121.94 221.22,121.89 222.68,121.88 224.14,121.82 225.60,121.82 227.06,121.80 228.52,121.80 229.98,121.80 231.44,121.80 232.90,121.80 234.36,121.80 235.82,121.80 237.28,121.68 238.74,121.32 240.20,121.05 241.66,120.97 243.12,120.80 244.58,120.79 246.04,120.77 247.50,120.76 248.96,120.76 250.42,120.76 251.88,120.68 253.34,120.60 254.79,120.58 256.25,120.56 257.71,120.54 259.17,120.28 260.63,120.10 262.09,119.83 263.55,119.66 265.01,119.54 266.47,119.49 267.93,119.42 269.39,119.41 270.85,119.35 272.31,119.18 273.77,119.18 275.23,119.18 276.69,119.17 278.15,119.16 279.61,119.16 281.07,119.07 282.53,119.05 283.99,119.04 285.45,119.03 286.91,119.01 288.37,119.01 289.83,119.01 291.29,119.01 292.75,119.01 294.21,119.01 295.67,119.01 297.13,119.01 298.59,118.97 300.05,118.94 301.51,118.94 302.97,118.74 304.42,118.73 305.88,118.72 307.34,118.68 308.80,118.58 310.26,118.34 311.72,118.29 313.18,118.29 314.64,118.29 316.10,118.29 317.56,118.29 319.02,118.29 320.48,118.29 321.94,118.29 323.40,118.29 324.86,118.29 326.32,118.29 327.78,118.29 329.24,118.29 330.70,118.28 332.16,118.21 333.62,118.20 335.08,118.20 336.54,118.20 338.00,118.20 339.46,118.16 340.92,118.16 342.38,117.98 343.84,117.81 345.30,117.81 346.76,117.81 348.22,117.81 349.68,117.81 351.14,117.79 352.60,117.79 354.05,117.77 355.51,117.69 356.97,117.62 358.43,117.32 359.89,117.31 361.35,116.85 362.81,116.58 364.27,116.38 365.73,115.74 367.19,115.58 368.65,115.51 370.11,115.30 371.57,114.97 373.03,114.89 374.49,114.78 375.95,114.60 377.41,114.45 378.87,114.38 380.33,114.27 381.79,114.19 383.25,113.99 384.71,113.81 386.17,113.60 387.63,113.25 389.09,113.05 390.55,112.06 392.01,111.31 393.47,110.83 394.93,110.41 396.39,109.96 397.85,109.96 399.31,109.96 400.77,109.96 402.23,109.66 403.68,109.50 405.14,108.89 406.60,108.21 408.06,107.42 409.52,106.22 410.98,105.39 412.44,103.66 413.90,102.63 415.36,101.93 416.82,100.82 418.28,100.10 419.74,98.68 421.20,96.54 422.66,95.89 424.12,95.05 425.58,94.25 427.04,93.98 428.50,92.95 429.96,92.77 431.42,91.54 432.88,90.42 434.34,89.75 435.80,88.99 437.26,87.99 438.72,87.72 440.18,87.63 441.64,87.52 443.10,87.45 444.56,86.82 446.02,85.99 447.48,84.98 448.94,84.70 450.40,83.89 451.86,82.84 453.31,80.75 454.77,79.21 456.23,77.31 457.69,76.80 459.15,75.80 460.61,73.93 462.07,72.87 463.53,72.29 464.99,71.47 466.45,70.94 467.91,70.17 469.37,69.81 470.83,69.03 472.29,67.54 473.75,65.90 475.21,65.40 476.67,64.47 478.13,62.77 479.59,61.90 481.05,59.79 482.51,58.78 483.97,56.95 485.43,55.16 486.89,53.01 488.35,49.77 489.81,47.62 491.27,45.78 492.73,44.59 494.19,43.06 495.65,41.69 497.11,41.02 498.57,39.90 500.03,38.55 501.49,37.79 502.94,36.63 504.40,35.74 505.86,34.91 507.32,33.64 508.78,31.34" />
    </svg>
  