
    <svg width="540" height="160" xmlns="http://www.w3.org/2000/svg">
      <style>.line{fill:none;stroke:#388bfd;stroke-width:1.5}.axis{stroke:#555;stroke-width:1;opacity:0.5}.label{fill:#999;font-family:sans-serif;font-size:10px;text-anchor:middle}</style>
      <line class="axis" x1="30" y1="30" x2="30" y2="130" />
      <line class="axis" x1="30" y1="130" x2="510" y2="130" />
      <text class="label" x="15" y="30">5,017</text>
      <text class="label" x="15" y="134">0</text>
      <text class="label" x="30" y="148">2021</text>
      <text class="label" x="510" y="148">2026</text>
      <polyline class="line" points="30.00,129.96 31.52,129.94 33.05,129.92 34.57,129.92 36.10,129.92 37.62,129.66 39.15,129.66 40.67,129.66 42.20,128.23 43.72,125.85 45.25,125.73 46.77,125.73 48.30,125.73 49.82,125.73 51.34,125.73 52.87,125.73 54.39,125.73 55.92,125.73 57.44,125.73 58.97,125.73 60.49,125.73 62.02,125.73 63.54,125.73 65.07,125.73 66.59,125.73 68.12,125.73 69.64,125.73 71.16,124.38 72.69,124.38 74.21,124.36 75.74,124.36 77.26,124.36 78.79,124.36 80.31,124.28 81.84,124.28 83.36,124.28 84.89,124.28 86.41,124.28 87.94,124.28 89.46,124.28 90.98,124.28 92.51,124.28 94.03,124.28 95.56,124.28 97.08,124.28 98.61,124.28 100.13,124.28 101.66,124.28 103.18,124.28 104.71,124.28 106.23,124.28 107.76,124.20 109.28,122.98 110.80,121.87 112.33,121.41 113.85,119.20 115.38,119.20 116.90,119.20 118.43,119.20 119.95,119.20 121.48,119.20 123.00,119.20 124.53,119.20 126.05,119.20 127.58,119.20 129.10,119.20 130.62,119.20 132.15,119.04 133.67,119.04 135.20,119.04 136.72,118.84 138.25,118.84 139.77,118.84 141.30,118.84 142.82,118.78 144.35,118.78 145.87,118.78 147.40,118.78 148.92,118.74 150.44,118.74 151.97,118.74 153.49,118.74 155.02,118.74 156.54,118.74 158.07,118.74 159.59,118.74 161.12,118.74 162.64,118.74 164.17,118.74 165.69,118.74 167.22,118.74 168.74,118.74 170.26,118.74 171.79,118.74 173.31,118.74 174.84,118.74 176.36,118.74 177.89,118.74 179.41,118.74 180.94,118.74 182.46,118.74 183.99,118.68 185.51,118.68 187.04,118.68 188.56,118.68 190.08,118.68 191.61,118.68 193.13,118.68 194.66,118.68 196.18,118.68 197.71,118.68 199.23,118.68 200.76,118.68 202.28,118.68 203.81,118.68 205.33,118.68 206.86,118.64 208.38,118.12 209.90,117.98 211.43,117.76 212.95,117.48 214.48,117.40 216.00,117.40 217.53,117.40 219.05,116.96 220.58,116.92 222.10,116.65 223.63,116.55 225.15,116.37 226.68,115.67 228.20,115.63 229.72,115.53 231.25,115.51 232.77,115.41 234.30,115.41 235.82,115.37 237.35,115.37 238.87,115.37 240.40,115.37 241.92,115.37 243.45,115.37 244.97,115.37 246.50,115.15 248.02,114.51 249.54,114.03 251.07,113.89 252.59,113.60 254.12,113.58 255.64,113.54 257.17,113.52 258.69,113.52 260.22,113.52 261.74,113.38 263.27,113.24 264.79,113.20 266.32,113.16 267.84,113.12 269.36,112.66 270.89,112.34 272.41,111.86 273.94,111.56 275.46,111.34 276.99,111.24 278.51,111.12 280.04,111.10 281.56,111.00 283.09,110.71 284.61,110.71 286.14,110.71 287.66,110.69 289.18,110.67 290.71,110.67 292.23,110.51 293.76,110.47 295.28,110.45 296.81,110.43 298.33,110.39 299.86,110.39 301.38,110.39 302.91,110.39 304.43,110.39 305.96,110.39 307.48,110.39 309.00,110.39 310.53,110.33 312.05,110.27 313.58,110.27 315.10,109.91 316.63,109.89 318.15,109.87 319.68,109.81 321.20,109.63 322.73,109.19 324.25,109.11 325.78,109.11 327.30,109.11 328.82,109.11 330.35,109.11 331.87,109.11 333.40,109.11 334.92,109.11 336.45,109.11 337.97,109.11 339.50,109.11 341.02,109.11 342.55,109.11 344.07,109.09 345.60,108.97 347.12,108.95 348.64,108.95 350.17,108.95 351.69,108.95 353.22,108.87 354.74,108.87 356.27,108.55 357.79,108.25 359.32,108.25 360.84,108.25 362.37,108.25 363.89,108.25 365.42,108.21 366.94,108.21 368.46,108.17 369.99,108.03 371.51,107.92 373.04,107.38 374.56,107.36 376.09,106.54 377.61,106.06 379.14,105.70 380.66,104.57 382.19,104.27 383.71,104.15 385.24,103.77 386.76,103.19 388.28,103.05 389.81,102.85 391.33,102.53 392.86,102.25 394.38,102.13 395.91,101.94 397.43,101.80 398.96,101.44 400.48,101.12 402.01,100.74 403.53,100.12 405.06,99.76 406.58,97.99 408.10,96.65 409.63,95.80 411.15,95.06 412.68,94.24 414.20,94.24 415.73,94.24 417.25,94.24 418.78,93.72 420.30,93.42 421.83,92.77 423.35,92.01 424.88,90.97 426.40,89.34 427.92,88.42 429.45,86.75 430.97,85.77 432.50,85.15 434.02,84.14 435.55,83.34 437.07,81.98 438.60,80.01 440.12,79.43 441.65,78.59 443.17,77.88 444.70,77.64 446.22,76.72 447.74,76.56 449.27,75.47 450.79,74.47 452.32,73.87 453.84,73.17 455.37,72.22 456.89,71.94 458.42,71.80 459.94,71.66 461.47,71.54 462.99,70.78 464.52,69.92 466.04,68.57 467.56,68.17 469.09,67.47 470.61,66.34 472.14,63.81 473.66,61.89 475.19,59.76 476.71,59.30 478.24,58.36 479.76,56.47 481.29,55.31 482.81,54.68 484.34,53.72 485.86,53.22 487.38,52.52 488.91,52.20 490.43,51.13 491.96,49.51 493.48,47.98 495.01,47.52 496.53,46.72 498.06,45.29 499.58,44.21 501.11,42.62 502.63,41.80 504.16,40.17 505.68,37.99 507.20,36.14 508.73,32.21" />
    </svg>
  