
    <svg width="540" height="160" xmlns="http://www.w3.org/2000/svg">
      <style>.line{fill:none;stroke:#388bfd;stroke-width:1.5}.axis{stroke:#555;stroke-width:1;opacity:0.5}.label{fill:#999;font-family:sans-serif;font-size:10px;text-anchor:middle}</style>
      <line class="axis" x1="30" y1="30" x2="30" y2="130" />
      <line class="axis" x1="30" y1="130" x2="510" y2="130" />
      <text class="label" x="15" y="30">9,072</text>
      <text class="label" x="15" y="134">0</text>
      <text class="label" x="30" y="148">2021</text>
      <text class="label" x="510" y="148">2026</text>
      <polyline class="line" points="30.00,129.98 31.46,129.97 32.91,129.96 34.37,129.96 35.83,129.96 37.28,129.81 38.74,129.81 40.20,129.81 41.65,129.02 43.11,127.71 44.57,127.64 46.02,127.64 47.48,127.64 48.94,127.64 50.39,127.64 51.85,127.64 53.31,127.64 54.76,127.64 56.22,127.64 57.68,127.64 59.14,127.64 60.59,127.64 62.05,127.64 63.51,127.64 64.96,127.64 66.42,127.64 67.88,127.64 69.33,126.89 70.79,126.89 72.25,126.88 73.70,126.88 75.16,126.88 76.62,126.88 78.07,126.84 79.53,126.84 80.99,126.84 82.44,126.84 83.90,126.84 85.36,126.84 86.81,126.84 88.27,126.84 89.73,126.84 91.18,126.84 92.64,126.84 94.10,126.84 95.55,126.84 97.01,126.84 98.47,126.84 99.92,126.84 101.38,126.84 102.84,126.84 104.29,126.79 105.75,126.12 107.21,125.50 108.66,125.25 110.12,124.03 111.58,124.03 113.03,124.03 114.49,124.03 115.95,124.03 117.41,124.03 118.86,124.03 120.32,124.03 121.78,124.03 123.23,124.03 124.69,124.03 126.15,124.03 127.60,123.94 129.06,123.94 130.52,123.94 131.97,123.83 133.43,123.83 134.89,123.83 136.34,123.83 137.80,123.79 139.26,123.79 140.71,123.79 142.17,123.79 143.63,123.77 145.08,123.77 146.54,123.77 148.00,123.77 149.45,123.77 150.91,123.77 152.37,123.77 153.82,123.77 155.28,123.77 156.74,123.77 158.19,123.77 159.65,123.77 161.11,123.77 162.56,123.77 164.02,123.77 165.48,123.77 166.93,123.77 168.39,123.77 169.85,123.77 171.31,123.77 172.76,123.77 174.22,123.77 175.68,123.77 177.13,123.74 178.59,123.74 180.05,123.74 181.50,123.74 182.96,123.74 184.42,123.74 185.87,123.74 187.33,123.74 188.79,123.74 190.24,123.74 191.70,123.74 193.16,123.74 194.61,123.74 196.07,123.74 197.53,123.74 198.98,123.72 200.44,123.43 201.90,123.35 203.35,123.23 204.81,123.08 206.27,123.03 207.72,123.03 209.18,123.03 210.64,122.79 212.09,122.77 213.55,122.61 215.01,122.56 216.46,122.46 217.92,122.07 219.38,122.05 220.83,122.00 222.29,121.99 223.75,121.93 225.20,121.93 226.66,121.91 228.12,121.91 229.58,121.91 231.03,121.91 232.49,121.91 233.95,121.91 235.40,121.91 236.86,121.79 238.32,121.44 239.77,121.17 241.23,121.09 242.69,120.93 244.14,120.92 245.60,120.90 247.06,120.88 248.51,120.88 249.97,120.88 251.43,120.81 252.88,120.73 254.34,120.71 255.80,120.69 257.25,120.66 258.71,120.41 260.17,120.23 261.62,119.97 263.08,119.80 264.54,119.68 265.99,119.63 267.45,119.56 268.91,119.55 270.36,119.50 271.82,119.33 273.28,119.33 274.73,119.33 276.19,119.32 277.65,119.31 279.10,119.31 280.56,119.22 282.02,119.20 283.47,119.19 284.93,119.18 286.39,119.15 287.85,119.15 289.30,119.15 290.76,119.15 292.22,119.15 293.67,119.15 295.13,119.15 296.59,119.15 298.04,119.12 299.50,119.09 300.96,119.09 302.41,118.89 303.87,118.88 305.33,118.87 306.78,118.83 308.24,118.73 309.70,118.49 311.15,118.45 312.61,118.45 314.07,118.45 315.52,118.45 316.98,118.45 318.44,118.45 319.89,118.45 321.35,118.45 322.81,118.45 324.26,118.45 325.72,118.45 327.18,118.45 328.63,118.45 330.09,118.44 331.55,118.37 333.00,118.36 334.46,118.36 335.92,118.36 337.37,118.36 338.83,118.32 340.29,118.32 341.75,118.14 343.20,117.97 344.66,117.97 346.12,117.97 347.57,117.97 349.03,117.97 350.49,117.95 351.94,117.95 353.40,117.93 354.86,117.85 356.31,117.79 357.77,117.49 359.23,117.48 360.68,117.03 362.14,116.76 363.60,116.56 365.05,115.93 366.51,115.77 367.97,115.70 369.42,115.49 370.88,115.17 372.34,115.10 373.79,114.99 375.25,114.81 376.71,114.66 378.16,114.59 379.62,114.48 381.08,114.40 382.53,114.20 383.99,114.03 385.45,113.82 386.90,113.48 388.36,113.28 389.82,112.30 391.27,111.56 392.73,111.08 394.19,110.68 395.64,110.22 397.10,110.22 398.56,110.22 400.02,110.22 401.47,109.94 402.93,109.77 404.39,109.18 405.84,108.51 407.30,107.72 408.76,106.54 410.21,105.72 411.67,104.02 413.13,102.99 414.58,102.31 416.04,101.21 417.50,100.50 418.95,99.10 420.41,96.99 421.87,96.35 423.32,95.52 424.78,94.73 426.24,94.46 427.69,93.45 429.15,93.27 430.61,92.06 432.06,90.96 433.52,90.30 434.98,89.55 436.43,88.55 437.89,88.29 439.35,88.20 440.80,88.09 442.26,88.02 443.72,87.40 445.17,86.58 446.63,85.59 448.09,85.31 449.54,84.51 451.00,83.47 452.46,81.41 453.92,79.89 455.37,78.02 456.83,77.52 458.29,76.53 459.74,74.69 461.20,73.64 462.66,73.07 464.11,72.26 465.57,71.73 467.03,70.97 468.48,70.62 469.94,69.85 471.40,68.38 472.85,66.76 474.31,66.27 475.77,65.35 477.22,63.68 478.68,62.82 480.14,60.73 481.59,59.74 483.05,57.93 484.51,56.17 485.96,54.04 487.42,50.84 488.88,48.73 490.33,46.91 491.79,45.74 493.25,44.23 494.70,42.87 496.16,42.21 497.62,41.11 499.07,39.78 500.53,39.03 501.99,37.88 503.44,37.01 504.90,36.18 506.36,34.94 507.81,32.67 509.27,30.90" />
    </svg>
  