
    <svg width="540" height="160" xmlns="http://www.w3.org/2000/svg">
      <style>.line{fill:none;stroke:#388bfd;stroke-width:1.5}.axis{stroke:#555;stroke-width:1;opacity:0.5}.label{fill:#999;font-family:sans-serif;font-size:10px;text-anchor:middle}</style>
      <line class="axis" x1="30" y1="30" x2="30" y2="130" />
      <line class="axis" x1="30" y1="130" x2="510" y2="130" />
      <text class="label" x="15" y="30">8,421</text>
      <text class="label" x="15" y="134">0</text>
      <text class="label" x="30" y="148">2021</text>
      <text class="label" x="510" y="148">2026</text>
      <polyline class="line" points="30.00,129.98 31.47,129.96 32.95,129.95 34.42,129.95 35.90,129.95 37.37,129.80 38.84,129.80 40.32,129.80 41.79,128.94 43.27,127.53 44.74,127.46 46.21,127.46 47.69,127.46 49.16,127.46 50.63,127.46 52.11,127.46 53.58,127.46 55.06,127.46 56.53,127.46 58.00,127.46 59.48,127.46 60.95,127.46 62.43,127.46 63.90,127.46 65.37,127.46 66.85,127.46 68.32,127.46 69.80,126.65 71.27,126.65 72.74,126.64 74.22,126.64 75.69,126.64 77.16,126.64 78.64,126.59 80.11,126.59 81.59,126.59 83.06,126.59 84.53,126.59 86.01,126.59 87.48,126.59 88.96,126.59 90.43,126.59 91.90,126.59 93.38,126.59 94.85,126.59 96.33,126.59 97.80,126.59 99.27,126.59 100.75,126.59 102.22,126.59 103.69,126.59 105.17,126.54 106.64,125.82 108.12,125.15 109.59,124.88 111.06,123.56 112.54,123.56 114.01,123.56 115.49,123.56 116.96,123.56 118.43,123.56 119.91,123.56 121.38,123.56 122.86,123.56 124.33,123.56 125.80,123.56 127.28,123.56 128.75,123.47 130.23,123.47 131.70,123.47 133.17,123.35 134.65,123.35 136.12,123.35 137.59,123.35 139.07,123.31 140.54,123.31 142.02,123.31 143.49,123.31 144.96,123.29 146.44,123.29 147.91,123.29 149.39,123.29 150.86,123.29 152.33,123.29 153.81,123.29 155.28,123.29 156.76,123.29 158.23,123.29 159.70,123.29 161.18,123.29 162.65,123.29 164.12,123.29 165.60,123.29 167.07,123.29 168.55,123.29 170.02,123.29 171.49,123.29 172.97,123.29 174.44,123.29 175.92,123.29 177.39,123.29 178.86,123.25 180.34,123.25 181.81,123.25 183.29,123.25 184.76,123.25 186.23,123.25 187.71,123.25 189.18,123.25 190.66,123.25 192.13,123.25 193.60,123.25 195.08,123.25 196.55,123.25 198.02,123.25 199.50,123.25 200.97,123.23 202.45,122.92 203.92,122.84 205.39,122.71 206.87,122.54 208.34,122.49 209.82,122.49 211.29,122.49 212.76,122.23 214.24,122.21 215.71,122.04 217.19,121.98 218.66,121.88 220.13,121.46 221.61,121.44 223.08,121.38 224.55,121.37 226.03,121.31 227.50,121.31 228.98,121.28 230.45,121.28 231.92,121.28 233.40,121.28 234.87,121.28 236.35,121.28 237.82,121.28 239.29,121.15 240.77,120.77 242.24,120.49 243.72,120.40 245.19,120.23 246.66,120.21 248.14,120.19 249.61,120.18 251.08,120.18 252.56,120.18 254.03,120.10 255.51,120.01 256.98,119.99 258.45,119.97 259.93,119.94 261.40,119.67 262.88,119.48 264.35,119.19 265.82,119.02 267.30,118.88 268.77,118.83 270.25,118.75 271.72,118.74 273.19,118.68 274.67,118.50 276.14,118.50 277.62,118.50 279.09,118.49 280.56,118.48 282.04,118.48 283.51,118.39 284.98,118.36 286.46,118.35 287.93,118.34 289.41,118.31 290.88,118.31 292.35,118.31 293.83,118.31 295.30,118.31 296.78,118.31 298.25,118.31 299.72,118.31 301.20,118.28 302.67,118.24 304.15,118.24 305.62,118.03 307.09,118.02 308.57,118.01 310.04,117.97 311.51,117.86 312.99,117.60 314.46,117.55 315.94,117.55 317.41,117.55 318.88,117.55 320.36,117.55 321.83,117.55 323.31,117.55 324.78,117.55 326.25,117.55 327.73,117.55 329.20,117.55 330.68,117.55 332.15,117.55 333.62,117.54 335.10,117.47 336.57,117.46 338.05,117.46 339.52,117.46 340.99,117.46 342.47,117.41 343.94,117.41 345.41,117.22 346.89,117.04 348.36,117.04 349.84,117.04 351.31,117.04 352.78,117.04 354.26,117.02 355.73,117.02 357.21,117.00 358.68,116.91 360.15,116.84 361.63,116.52 363.10,116.51 364.58,116.02 366.05,115.74 367.52,115.52 369.00,114.85 370.47,114.67 371.94,114.60 373.42,114.37 374.89,114.03 376.37,113.94 377.84,113.83 379.31,113.64 380.79,113.47 382.26,113.40 383.74,113.28 385.21,113.20 386.68,112.98 388.16,112.79 389.63,112.57 391.11,112.20 392.58,111.99 394.05,110.93 395.53,110.13 397.00,109.62 398.47,109.18 399.95,108.70 401.42,108.70 402.90,108.70 404.37,108.70 405.84,108.39 407.32,108.21 408.79,107.57 410.27,106.84 411.74,106.00 413.21,104.73 414.69,103.84 416.16,102.01 417.64,100.91 419.11,100.17 420.58,98.98 422.06,98.22 423.53,96.71 425.01,94.43 426.48,93.75 427.95,92.85 429.43,92.00 430.90,91.71 432.37,90.62 433.85,90.43 435.32,89.13 436.80,87.94 438.27,87.23 439.74,86.42 441.22,85.35 442.69,85.06 444.17,84.97 445.64,84.85 447.11,84.78 448.59,84.10 450.06,83.22 451.54,82.16 453.01,81.86 454.48,80.99 455.96,79.88 457.43,77.65 458.90,76.02 460.38,74.00 461.85,73.46 463.33,72.39 464.80,70.41 466.27,69.28 467.75,68.67 469.22,67.80 470.70,67.23 472.17,66.41 473.64,66.03 475.12,65.20 476.59,63.62 478.07,61.87 479.54,61.34 481.01,60.35 482.49,58.55 483.96,57.62 485.44,55.38 486.91,54.31 488.38,52.36 489.86,50.46 491.33,48.17 492.80,44.73 494.28,42.45 495.75,40.49 497.23,39.23 498.70,37.60 500.17,36.14 501.65,35.43 503.12,34.24 504.60,32.80 506.07,32.24 507.54,31.19 509.02,30.29" />
    </svg>
  