
    <svg width="540" height="160" xmlns="http://www.w3.org/2000/svg">
      <style>.line{fill:none;stroke:#388bfd;stroke-width:1.5}.axis{stroke:#555;stroke-width:1;opacity:0.5}.label{fill:#999;font-family:sans-serif;font-size:10px;text-anchor:middle}</style>
      <line class="axis" x1="30" y1="30" x2="30" y2="130" />
      <line class="axis" x1="30" y1="130" x2="510" y2="130" />
      <text class="label" x="15" y="30">9,132</text>
      <text class="label" x="15" y="134">0</text>
      <text class="label" x="30" y="148">2021</text>
      <text class="label" x="510" y="148">2026</text>
      <polyline class="line" points="30.00,129.98 31.45,129.97 32.91,129.96 34.36,129.96 35.82,129.96 37.27,129.81 38.72,129.81 40.18,129.81 41.63,129.03 43.08,127.72 44.54,127.66 45.99,127.66 47.45,127.66 48.90,127.66 50.35,127.66 51.81,127.66 53.26,127.66 54.71,127.66 56.17,127.66 57.62,127.66 59.08,127.66 60.53,127.66 61.98,127.66 63.44,127.66 64.89,127.66 66.35,127.66 67.80,127.66 69.25,126.91 70.71,126.91 72.16,126.90 73.61,126.90 75.07,126.90 76.52,126.90 77.98,126.86 79.43,126.86 80.88,126.86 82.34,126.86 83.79,126.86 85.24,126.86 86.70,126.86 88.15,126.86 89.61,126.86 91.06,126.86 92.51,126.86 93.97,126.86 95.42,126.86 96.88,126.86 98.33,126.86 99.78,126.86 101.24,126.86 102.69,126.86 104.14,126.81 105.60,126.15 107.05,125.53 108.51,125.28 109.96,124.06 111.41,124.06 112.87,124.06 114.32,124.06 115.77,124.06 117.23,124.06 118.68,124.06 120.14,124.06 121.59,124.06 123.04,124.06 124.50,124.06 125.95,124.06 127.41,123.98 128.86,123.98 130.31,123.98 131.77,123.87 133.22,123.87 134.67,123.87 136.13,123.87 137.58,123.83 139.04,123.83 140.49,123.83 141.94,123.83 143.40,123.81 144.85,123.81 146.30,123.81 147.76,123.81 149.21,123.81 150.67,123.81 152.12,123.81 153.57,123.81 155.03,123.81 156.48,123.81 157.94,123.81 159.39,123.81 160.84,123.81 162.30,123.81 163.75,123.81 165.20,123.81 166.66,123.81 168.11,123.81 169.57,123.81 171.02,123.81 172.47,123.81 173.93,123.81 175.38,123.81 176.83,123.78 178.29,123.78 179.74,123.78 181.20,123.78 182.65,123.78 184.10,123.78 185.56,123.78 187.01,123.78 188.47,123.78 189.92,123.78 191.37,123.78 192.83,123.78 194.28,123.78 195.73,123.78 197.19,123.78 198.64,123.76 200.10,123.47 201.55,123.40 203.00,123.28 204.46,123.12 205.91,123.08 207.36,123.08 208.82,123.08 210.27,122.84 211.73,122.82 213.18,122.66 214.63,122.61 216.09,122.51 217.54,122.13 219.00,122.10 220.45,122.05 221.90,122.04 223.36,121.98 224.81,121.98 226.26,121.96 227.72,121.96 229.17,121.96 230.63,121.96 232.08,121.96 233.53,121.96 234.99,121.96 236.44,121.84 237.90,121.49 239.35,121.23 240.80,121.15 242.26,120.99 243.71,120.98 245.16,120.95 246.62,120.94 248.07,120.94 249.53,120.94 250.98,120.87 252.43,120.79 253.89,120.77 255.34,120.75 256.79,120.72 258.25,120.47 259.70,120.30 261.16,120.04 262.61,119.87 264.06,119.75 265.52,119.70 266.97,119.63 268.43,119.62 269.88,119.56 271.33,119.40 272.79,119.40 274.24,119.40 275.69,119.39 277.15,119.38 278.60,119.38 280.06,119.29 281.51,119.27 282.96,119.26 284.42,119.25 285.87,119.22 287.32,119.22 288.78,119.22 290.23,119.22 291.69,119.22 293.14,119.22 294.59,119.22 296.05,119.22 297.50,119.19 298.96,119.16 300.41,119.16 301.86,118.96 303.32,118.95 304.77,118.94 306.22,118.91 307.68,118.81 309.13,118.57 310.59,118.52 312.04,118.52 313.49,118.52 314.95,118.52 316.40,118.52 317.85,118.52 319.31,118.52 320.76,118.52 322.22,118.52 323.67,118.52 325.12,118.52 326.58,118.52 328.03,118.52 329.49,118.51 330.94,118.45 332.39,118.44 333.85,118.44 335.30,118.44 336.75,118.44 338.21,118.39 339.66,118.39 341.12,118.22 342.57,118.05 344.02,118.05 345.48,118.05 346.93,118.05 348.38,118.05 349.84,118.03 351.29,118.03 352.75,118.01 354.20,117.93 355.65,117.87 357.11,117.57 358.56,117.56 360.02,117.11 361.47,116.85 362.92,116.65 364.38,116.03 365.83,115.86 367.28,115.80 368.74,115.59 370.19,115.27 371.65,115.19 373.10,115.09 374.55,114.91 376.01,114.76 377.46,114.69 378.91,114.58 380.37,114.51 381.82,114.31 383.28,114.13 384.73,113.92 386.18,113.59 387.64,113.39 389.09,112.41 390.55,111.68 392.00,111.21 393.45,110.80 394.91,110.35 396.36,110.35 397.81,110.35 399.27,110.35 400.72,110.07 402.18,109.91 403.63,109.31 405.08,108.65 406.54,107.87 407.99,106.70 409.44,105.88 410.90,104.19 412.35,103.17 413.81,102.49 415.26,101.40 416.71,100.70 418.17,99.31 419.62,97.20 421.08,96.57 422.53,95.75 423.98,94.96 425.44,94.70 426.89,93.69 428.34,93.51 429.80,92.31 431.25,91.21 432.71,90.56 434.16,89.81 435.61,88.83 437.07,88.56 438.52,88.48 439.97,88.37 441.43,88.30 442.88,87.68 444.34,86.87 445.79,85.88 447.24,85.61 448.70,84.81 450.15,83.78 451.61,81.73 453.06,80.22 454.51,78.36 455.97,77.86 457.42,76.88 458.87,75.05 460.33,74.01 461.78,73.44 463.24,72.64 464.69,72.12 466.14,71.36 467.60,71.01 469.05,70.24 470.50,68.79 471.96,67.18 473.41,66.68 474.87,65.78 476.32,64.11 477.77,63.26 479.23,61.19 480.68,60.20 482.14,58.41 483.59,56.65 485.04,54.54 486.50,51.36 487.95,49.26 489.40,47.46 490.86,46.29 492.31,44.79 493.77,43.45 495.22,42.79 496.67,41.70 498.13,40.37 499.58,39.63 501.03,38.49 502.49,37.62 503.94,36.80 505.40,35.56 506.85,33.31 508.30,31.55 509.76,30.03" />
    </svg>
  