
    <svg width="540" height="160" xmlns="http://www.w3.org/2000/svg">
      <style>.line{fill:none;stroke:#388bfd;stroke-width:1.5}.axis{stroke:#555;stroke-width:1;opacity:0.5}.label{fill:#999;font-family:sans-serif;font-size:10px;text-anchor:middle}</style>
      <line class="axis" x1="30" y1="30" x2="30" y2="130" />
      <line class="axis" x1="30" y1="130" x2="510" y2="130" />
      <text class="label" x="15" y="30">7,490</text>
      <text class="label" x="15" y="134">0</text>
      <text class="label" x="30" y="148">2021</text>
      <text class="label" x="510" y="148">2026</text>
      <polyline class="line" points="30.00,129.97 31.50,129.96 33.00,129.95 34.50,129.95 35.99,129.95 37.49,129.77 38.99,129.77 40.49,129.77 41.99,128.81 43.49,127.22 44.98,127.14 46.48,127.14 47.98,127.14 49.48,127.14 50.98,127.14 52.48,127.14 53.98,127.14 55.47,127.14 56.97,127.14 58.47,127.14 59.97,127.14 61.47,127.14 62.97,127.14 64.46,127.14 65.96,127.14 67.46,127.14 68.96,127.14 70.46,126.23 71.96,126.23 73.45,126.22 74.95,126.22 76.45,126.22 77.95,126.22 79.45,126.17 80.95,126.17 82.45,126.17 83.94,126.17 85.44,126.17 86.94,126.17 88.44,126.17 89.94,126.17 91.44,126.17 92.93,126.17 94.43,126.17 95.93,126.17 97.43,126.17 98.93,126.17 100.43,126.17 101.93,126.17 103.42,126.17 104.92,126.17 106.42,126.11 107.92,125.30 109.42,124.55 110.92,124.25 112.41,122.76 113.91,122.76 115.41,122.76 116.91,122.76 118.41,122.76 119.91,122.76 121.40,122.76 122.90,122.76 124.40,122.76 125.90,122.76 127.40,122.76 128.90,122.76 130.40,122.66 131.89,122.66 133.39,122.66 134.89,122.52 136.39,122.52 137.89,122.52 139.39,122.52 140.88,122.48 142.38,122.48 143.88,122.48 145.38,122.48 146.88,122.46 148.38,122.46 149.88,122.46 151.37,122.46 152.87,122.46 154.37,122.46 155.87,122.46 157.37,122.46 158.87,122.46 160.36,122.46 161.86,122.46 163.36,122.46 164.86,122.46 166.36,122.46 167.86,122.46 169.35,122.46 170.85,122.46 172.35,122.46 173.85,122.46 175.35,122.46 176.85,122.46 178.35,122.46 179.84,122.46 181.34,122.42 182.84,122.42 184.34,122.42 185.84,122.42 187.34,122.42 188.83,122.42 190.33,122.42 191.83,122.42 193.33,122.42 194.83,122.42 196.33,122.42 197.83,122.42 199.32,122.42 200.82,122.42 202.32,122.42 203.82,122.39 205.32,122.04 206.82,121.95 208.31,121.80 209.81,121.62 211.31,121.56 212.81,121.56 214.31,121.56 215.81,121.27 217.30,121.24 218.80,121.05 220.30,120.99 221.80,120.87 223.30,120.40 224.80,120.37 226.30,120.31 227.79,120.29 229.29,120.23 230.79,120.23 232.29,120.20 233.79,120.20 235.29,120.20 236.78,120.20 238.28,120.20 239.78,120.20 241.28,120.20 242.78,120.05 244.28,119.63 245.78,119.31 247.27,119.21 248.77,119.01 250.27,119.00 251.77,118.97 253.27,118.96 254.77,118.96 256.26,118.96 257.76,118.87 259.26,118.77 260.76,118.74 262.26,118.72 263.76,118.69 265.25,118.38 266.75,118.17 268.25,117.85 269.75,117.65 271.25,117.50 272.75,117.44 274.25,117.36 275.74,117.34 277.24,117.28 278.74,117.08 280.24,117.08 281.74,117.08 283.24,117.06 284.73,117.05 286.23,117.05 287.73,116.94 289.23,116.92 290.73,116.90 292.23,116.89 293.73,116.86 295.22,116.86 296.72,116.86 298.22,116.86 299.72,116.86 301.22,116.86 302.72,116.86 304.21,116.86 305.71,116.82 307.21,116.78 308.71,116.78 310.21,116.54 311.71,116.53 313.20,116.52 314.70,116.48 316.20,116.36 317.70,116.06 319.20,116.01 320.70,116.01 322.20,116.01 323.69,116.01 325.19,116.01 326.69,116.01 328.19,116.01 329.69,116.01 331.19,116.01 332.68,116.01 334.18,116.01 335.68,116.01 337.18,116.01 338.68,115.99 340.18,115.91 341.68,115.90 343.17,115.90 344.67,115.90 346.17,115.90 347.67,115.85 349.17,115.85 350.67,115.63 352.16,115.43 353.66,115.43 355.16,115.43 356.66,115.43 358.16,115.43 359.66,115.41 361.16,115.41 362.65,115.38 364.15,115.29 365.65,115.21 367.15,114.85 368.65,114.83 370.15,114.29 371.64,113.97 373.14,113.72 374.64,112.96 376.14,112.76 377.64,112.68 379.14,112.43 380.63,112.04 382.13,111.95 383.63,111.82 385.13,111.60 386.63,111.42 388.13,111.34 389.63,111.20 391.12,111.11 392.62,110.87 394.12,110.65 395.62,110.40 397.12,109.99 398.62,109.75 400.11,108.56 401.61,107.66 403.11,107.09 404.61,106.60 406.11,106.05 407.61,106.05 409.11,106.05 410.60,106.05 412.10,105.70 413.60,105.50 415.10,104.78 416.60,103.97 418.10,103.02 419.59,101.59 421.09,100.59 422.59,98.53 424.09,97.29 425.59,96.46 427.09,95.13 428.58,94.27 430.08,92.58 431.58,90.01 433.08,89.24 434.58,88.24 436.08,87.28 437.58,86.96 439.07,85.73 440.57,85.51 442.07,84.05 443.57,82.71 445.07,81.91 446.57,81.00 448.06,79.80 449.56,79.48 451.06,79.37 452.56,79.24 454.06,79.16 455.56,78.40 457.06,77.41 458.55,76.21 460.05,75.87 461.55,74.90 463.05,73.64 464.55,71.15 466.05,69.31 467.54,67.04 469.04,66.44 470.54,65.23 472.04,63.00 473.54,61.74 475.04,61.04 476.53,60.07 478.03,59.43 479.53,58.50 481.03,58.08 482.53,57.14 484.03,55.37 485.53,53.40 487.02,52.80 488.52,51.88 490.02,50.65 491.52,49.77 493.02,48.40 494.52,47.54 496.01,45.73 497.51,43.81 499.01,42.11 500.51,38.74 502.01,36.66 503.51,34.65 505.01,33.52 506.50,31.88 508.00,30.53 509.50,30.11" />
    </svg>
  