
    <svg width="540" height="160" xmlns="http://www.w3.org/2000/svg">
      <style>.line{fill:none;stroke:#388bfd;stroke-width:1.5}.axis{stroke:#555;stroke-width:1;opacity:0.5}.label{fill:#999;font-family:sans-serif;font-size:10px;text-anchor:middle}</style>
      <line class="axis" x1="30" y1="30" x2="30" y2="130" />
      <line class="axis" x1="30" y1="130" x2="510" y2="130" />
      <text class="label" x="15" y="30">9,291</text>
      <text class="label" x="15" y="134">0</text>
      <text class="label" x="30" y="148">2021</text>
      <text class="label" x="510" y="148">2026</text>
      <polyline class="line" points="30.00,129.98 31.45,129.97 32.89,129.96 34.34,129.96 35.78,129.96 37.23,129.82 38.67,129.82 40.12,129.82 41.56,129.04 43.01,127.76 44.45,127.70 45.90,127.70 47.34,127.70 48.79,127.70 50.23,127.70 51.68,127.70 53.12,127.70 54.57,127.70 56.01,127.70 57.46,127.70 58.90,127.70 60.35,127.70 61.79,127.70 63.24,127.70 64.68,127.70 66.13,127.70 67.57,127.70 69.02,126.96 70.46,126.96 71.91,126.95 73.35,126.95 74.80,126.95 76.24,126.95 77.69,126.91 79.13,126.91 80.58,126.91 82.02,126.91 83.47,126.91 84.91,126.91 86.36,126.91 87.80,126.91 89.25,126.91 90.69,126.91 92.14,126.91 93.58,126.91 95.03,126.91 96.47,126.91 97.92,126.91 99.36,126.91 100.81,126.91 102.25,126.91 103.70,126.87 105.14,126.21 106.59,125.61 108.03,125.36 109.48,124.17 110.92,124.17 112.37,124.17 113.81,124.17 115.26,124.17 116.70,124.17 118.15,124.17 119.59,124.17 121.04,124.17 122.48,124.17 123.93,124.17 125.37,124.17 126.82,124.08 128.26,124.08 129.71,124.08 131.15,123.97 132.60,123.97 134.04,123.97 135.49,123.97 136.93,123.94 138.38,123.94 139.82,123.94 141.27,123.94 142.71,123.92 144.16,123.92 145.60,123.92 147.05,123.92 148.49,123.92 149.94,123.92 151.38,123.92 152.83,123.92 154.27,123.92 155.72,123.92 157.17,123.92 158.61,123.92 160.06,123.92 161.50,123.92 162.95,123.92 164.39,123.92 165.84,123.92 167.28,123.92 168.73,123.92 170.17,123.92 171.62,123.92 173.06,123.92 174.51,123.92 175.95,123.89 177.40,123.89 178.84,123.89 180.29,123.89 181.73,123.89 183.18,123.89 184.62,123.89 186.07,123.89 187.51,123.89 188.96,123.89 190.40,123.89 191.85,123.89 193.29,123.89 194.74,123.89 196.18,123.89 197.63,123.87 199.07,123.59 200.52,123.51 201.96,123.39 203.41,123.24 204.85,123.20 206.30,123.20 207.74,123.20 209.19,122.96 210.63,122.94 212.08,122.79 213.52,122.73 214.97,122.64 216.41,122.26 217.86,122.24 219.30,122.19 220.75,122.18 222.19,122.12 223.64,122.12 225.08,122.10 226.53,122.10 227.97,122.10 229.42,122.10 230.86,122.10 232.31,122.10 233.75,122.10 235.20,121.98 236.64,121.64 238.09,121.38 239.53,121.30 240.98,121.14 242.42,121.13 243.87,121.11 245.31,121.10 246.76,121.10 248.20,121.10 249.65,121.02 251.09,120.95 252.54,120.93 253.98,120.91 255.43,120.88 256.87,120.64 258.32,120.46 259.76,120.21 261.21,120.04 262.65,119.93 264.10,119.87 265.54,119.81 266.99,119.80 268.43,119.74 269.88,119.58 271.32,119.58 272.77,119.58 274.21,119.57 275.66,119.56 277.10,119.56 278.55,119.47 279.99,119.45 281.44,119.44 282.89,119.43 284.33,119.41 285.78,119.41 287.22,119.41 288.67,119.41 290.11,119.41 291.56,119.41 293.00,119.41 294.45,119.41 295.89,119.38 297.34,119.34 298.78,119.34 300.23,119.15 301.67,119.14 303.12,119.13 304.56,119.10 306.01,119.00 307.45,118.76 308.90,118.72 310.34,118.72 311.79,118.72 313.23,118.72 314.68,118.72 316.12,118.72 317.57,118.72 319.01,118.72 320.46,118.72 321.90,118.72 323.35,118.72 324.79,118.72 326.24,118.72 327.68,118.71 329.13,118.64 330.57,118.63 332.02,118.63 333.46,118.63 334.91,118.63 336.35,118.59 337.80,118.59 339.24,118.42 340.69,118.26 342.13,118.26 343.58,118.26 345.02,118.26 346.47,118.26 347.91,118.24 349.36,118.24 350.80,118.21 352.25,118.14 353.69,118.07 355.14,117.78 356.58,117.77 358.03,117.33 359.47,117.07 360.92,116.88 362.36,116.27 363.81,116.10 365.25,116.04 366.70,115.84 368.14,115.52 369.59,115.45 371.03,115.34 372.48,115.17 373.92,115.02 375.37,114.95 376.81,114.85 378.26,114.77 379.70,114.58 381.15,114.40 382.59,114.20 384.04,113.87 385.48,113.67 386.93,112.71 388.37,111.99 389.82,111.53 391.26,111.13 392.71,110.69 394.15,110.69 395.60,110.69 397.04,110.69 398.49,110.41 399.93,110.25 401.38,109.67 402.82,109.01 404.27,108.25 405.72,107.10 407.16,106.29 408.61,104.63 410.05,103.63 411.50,102.96 412.94,101.89 414.39,101.20 415.83,99.83 417.28,97.76 418.72,97.14 420.17,96.33 421.61,95.56 423.06,95.30 424.50,94.31 425.95,94.14 427.39,92.95 428.84,91.88 430.28,91.23 431.73,90.50 433.17,89.53 434.62,89.27 436.06,89.19 437.51,89.08 438.95,89.01 440.40,88.40 441.84,87.60 443.29,86.64 444.73,86.37 446.18,85.58 447.62,84.57 449.07,82.56 450.51,81.07 451.96,79.24 453.40,78.76 454.85,77.79 456.29,75.99 457.74,74.97 459.18,74.41 460.63,73.62 462.07,73.11 463.52,72.36 464.96,72.02 466.41,71.27 467.85,69.83 469.30,68.25 470.74,67.77 472.19,66.87 473.63,65.24 475.08,64.40 476.52,62.36 477.97,61.40 479.41,59.63 480.86,57.91 482.30,55.83 483.75,52.71 485.19,50.64 486.64,48.87 488.08,47.73 489.53,46.25 490.97,44.93 492.42,44.28 493.86,43.21 495.31,41.90 496.75,41.17 498.20,40.05 499.64,39.20 501.09,38.40 502.53,37.18 503.98,34.96 505.42,33.19 506.87,31.69 508.31,30.45 509.76,30.00" />
    </svg>
  