
    <svg width="540" height="160" xmlns="http://www.w3.org/2000/svg">
      <style>.line{fill:none;stroke:#388bfd;stroke-width:1.5}.axis{stroke:#555;stroke-width:1;opacity:0.5}.label{fill:#999;font-family:sans-serif;font-size:10px;text-anchor:middle}</style>
      <line class="axis" x1="30" y1="30" x2="30" y2="130" />
      <line class="axis" x1="30" y1="130" x2="510" y2="130" />
      <text class="label" x="15" y="30">7,429</text>
      <text class="label" x="15" y="134">0</text>
      <text class="label" x="30" y="148">2021</text>
      <text class="label" x="510" y="148">2026</text>
      <polyline class="line" points="30.00,129.97 31.51,129.96 33.01,129.95 34.52,129.95 36.02,129.95 37.53,129.77 39.03,129.77 40.54,129.77 42.04,128.80 43.55,127.20 45.05,127.12 46.56,127.12 48.07,127.12 49.57,127.12 51.08,127.12 52.58,127.12 54.09,127.12 55.59,127.12 57.10,127.12 58.60,127.12 60.11,127.12 61.62,127.12 63.12,127.12 64.63,127.12 66.13,127.12 67.64,127.12 69.14,127.12 70.65,126.20 72.15,126.20 73.66,126.19 75.16,126.19 76.67,126.19 78.18,126.19 79.68,126.14 81.19,126.14 82.69,126.14 84.20,126.14 85.70,126.14 87.21,126.14 88.71,126.14 90.22,126.14 91.73,126.14 93.23,126.14 94.74,126.14 96.24,126.14 97.75,126.14 99.25,126.14 100.76,126.14 102.26,126.14 103.77,126.14 105.27,126.14 106.78,126.08 108.29,125.26 109.79,124.51 111.30,124.20 112.80,122.70 114.31,122.70 115.81,122.70 117.32,122.70 118.82,122.70 120.33,122.70 121.83,122.70 123.34,122.70 124.85,122.70 126.35,122.70 127.86,122.70 129.36,122.70 130.87,122.60 132.37,122.60 133.88,122.60 135.38,122.46 136.89,122.46 138.40,122.46 139.90,122.46 141.41,122.42 142.91,122.42 144.42,122.42 145.92,122.42 147.43,122.39 148.93,122.39 150.44,122.39 151.94,122.39 153.45,122.39 154.96,122.39 156.46,122.39 157.97,122.39 159.47,122.39 160.98,122.39 162.48,122.39 163.99,122.39 165.49,122.39 167.00,122.39 168.50,122.39 170.01,122.39 171.52,122.39 173.02,122.39 174.53,122.39 176.03,122.39 177.54,122.39 179.04,122.39 180.55,122.39 182.05,122.35 183.56,122.35 185.07,122.35 186.57,122.35 188.08,122.35 189.58,122.35 191.09,122.35 192.59,122.35 194.10,122.35 195.60,122.35 197.11,122.35 198.61,122.35 200.12,122.35 201.63,122.35 203.13,122.35 204.64,122.33 206.14,121.98 207.65,121.88 209.15,121.74 210.66,121.55 212.16,121.49 213.67,121.49 215.18,121.49 216.68,121.20 218.19,121.17 219.69,120.98 221.20,120.91 222.70,120.79 224.21,120.32 225.71,120.29 227.22,120.23 228.72,120.21 230.23,120.15 231.74,120.15 233.24,120.12 234.75,120.12 236.25,120.12 237.76,120.12 239.26,120.12 240.77,120.12 242.27,120.12 243.78,119.97 245.28,119.54 246.79,119.22 248.30,119.12 249.80,118.92 251.31,118.91 252.81,118.88 254.32,118.87 255.82,118.87 257.33,118.87 258.83,118.77 260.34,118.68 261.85,118.65 263.35,118.63 264.86,118.60 266.36,118.29 267.87,118.07 269.37,117.75 270.88,117.55 272.38,117.40 273.89,117.33 275.39,117.25 276.90,117.24 278.41,117.17 279.91,116.97 281.42,116.97 282.92,116.97 284.43,116.96 285.93,116.94 287.44,116.94 288.94,116.84 290.45,116.81 291.96,116.79 293.46,116.78 294.97,116.75 296.47,116.75 297.98,116.75 299.48,116.75 300.99,116.75 302.49,116.75 304.00,116.75 305.50,116.75 307.01,116.71 308.52,116.67 310.02,116.67 311.53,116.43 313.03,116.42 314.54,116.40 316.04,116.36 317.55,116.24 319.05,115.95 320.56,115.89 322.06,115.89 323.57,115.89 325.08,115.89 326.58,115.89 328.09,115.89 329.59,115.89 331.10,115.89 332.60,115.89 334.11,115.89 335.61,115.89 337.12,115.89 338.63,115.89 340.13,115.88 341.64,115.80 343.14,115.79 344.65,115.79 346.15,115.79 347.66,115.79 349.16,115.73 350.67,115.73 352.17,115.52 353.68,115.31 355.19,115.31 356.69,115.31 358.20,115.31 359.70,115.31 361.21,115.29 362.71,115.29 364.22,115.26 365.72,115.17 367.23,115.09 368.73,114.72 370.24,114.71 371.75,114.16 373.25,113.83 374.76,113.59 376.26,112.82 377.77,112.62 379.27,112.54 380.78,112.29 382.28,111.90 383.79,111.80 385.30,111.67 386.80,111.45 388.31,111.26 389.81,111.18 391.32,111.05 392.82,110.95 394.33,110.71 395.83,110.50 397.34,110.24 398.84,109.82 400.35,109.58 401.86,108.38 403.36,107.48 404.87,106.90 406.37,106.40 407.88,105.85 409.38,105.85 410.89,105.85 412.39,105.85 413.90,105.50 415.41,105.30 416.91,104.57 418.42,103.75 419.92,102.80 421.43,101.36 422.93,100.35 424.44,98.27 425.94,97.02 427.45,96.19 428.95,94.84 430.46,93.98 431.97,92.27 433.47,89.69 434.98,88.90 436.48,87.89 437.99,86.93 439.49,86.60 441.00,85.36 442.50,85.15 444.01,83.67 445.51,82.32 447.02,81.51 448.53,80.60 450.03,79.39 451.54,79.06 453.04,78.96 454.55,78.82 456.05,78.74 457.56,77.97 459.06,76.98 460.57,75.77 462.08,75.43 463.58,74.45 465.09,73.18 466.59,70.66 468.10,68.81 469.60,66.52 471.11,65.91 472.61,64.70 474.12,62.45 475.62,61.18 477.13,60.48 478.64,59.49 480.14,58.85 481.65,57.92 483.15,57.49 484.66,56.54 486.16,54.75 487.67,52.78 489.17,52.17 490.68,51.24 492.19,50.00 493.69,49.11 495.20,47.73 496.70,46.87 498.21,45.04 499.71,43.10 501.22,41.39 502.72,38.00 504.23,35.90 505.73,33.86 507.24,32.73 508.75,31.08" />
    </svg>
  