
    <svg width="540" height="160" xmlns="http://www.w3.org/2000/svg">
      <style>.line{fill:none;stroke:#388bfd;stroke-width:1.5}.axis{stroke:#555;stroke-width:1;opacity:0.5}.label{fill:#999;font-family:sans-serif;font-size:10px;text-anchor:middle}</style>
      <line class="axis" x1="30" y1="30" x2="30" y2="130" />
      <line class="axis" x1="30" y1="130" x2="510" y2="130" />
      <text class="label" x="15" y="30">7,715</text>
      <text class="label" x="15" y="134">0</text>
      <text class="label" x="30" y="148">2021</text>
      <text class="label" x="510" y="148">2026</text>
      <polyline class="line" points="30.00,129.97 31.50,129.96 33.00,129.95 34.50,129.95 35.99,129.95 37.49,129.78 38.99,129.78 40.49,129.78 41.99,128.85 43.49,127.30 44.98,127.23 46.48,127.23 47.98,127.23 49.48,127.23 50.98,127.23 52.48,127.23 53.98,127.23 55.47,127.23 56.97,127.23 58.47,127.23 59.97,127.23 61.47,127.23 62.97,127.23 64.46,127.23 65.96,127.23 67.46,127.23 68.96,127.23 70.46,126.34 71.96,126.34 73.45,126.33 74.95,126.33 76.45,126.33 77.95,126.33 79.45,126.28 80.95,126.28 82.45,126.28 83.94,126.28 85.44,126.28 86.94,126.28 88.44,126.28 89.94,126.28 91.44,126.28 92.93,126.28 94.43,126.28 95.93,126.28 97.43,126.28 98.93,126.28 100.43,126.28 101.93,126.28 103.42,126.28 104.92,126.28 106.42,126.23 107.92,125.44 109.42,124.71 110.92,124.41 112.41,122.97 113.91,122.97 115.41,122.97 116.91,122.97 118.41,122.97 119.91,122.97 121.40,122.97 122.90,122.97 124.40,122.97 125.90,122.97 127.40,122.97 128.90,122.97 130.40,122.87 131.89,122.87 133.39,122.87 134.89,122.74 136.39,122.74 137.89,122.74 139.39,122.74 140.88,122.70 142.38,122.70 143.88,122.70 145.38,122.70 146.88,122.68 148.38,122.68 149.88,122.68 151.37,122.68 152.87,122.68 154.37,122.68 155.87,122.68 157.37,122.68 158.87,122.68 160.36,122.68 161.86,122.68 163.36,122.68 164.86,122.68 166.36,122.68 167.86,122.68 169.35,122.68 170.85,122.68 172.35,122.68 173.85,122.68 175.35,122.68 176.85,122.68 178.35,122.68 179.84,122.68 181.34,122.64 182.84,122.64 184.34,122.64 185.84,122.64 187.34,122.64 188.83,122.64 190.33,122.64 191.83,122.64 193.33,122.64 194.83,122.64 196.33,122.64 197.83,122.64 199.32,122.64 200.82,122.64 202.32,122.64 203.82,122.61 205.32,122.27 206.82,122.18 208.31,122.04 209.81,121.86 211.31,121.81 212.81,121.81 214.31,121.81 215.81,121.52 217.30,121.50 218.80,121.32 220.30,121.25 221.80,121.13 223.30,120.68 224.80,120.65 226.30,120.59 227.79,120.58 229.29,120.51 230.79,120.51 232.29,120.49 233.79,120.49 235.29,120.49 236.78,120.49 238.28,120.49 239.78,120.49 241.28,120.49 242.78,120.34 244.28,119.93 245.78,119.62 247.27,119.53 248.77,119.33 250.27,119.32 251.77,119.29 253.27,119.28 254.77,119.28 256.26,119.28 257.76,119.19 259.26,119.10 260.76,119.07 262.26,119.05 263.76,119.02 265.25,118.72 266.75,118.52 268.25,118.20 269.75,118.01 271.25,117.87 272.75,117.80 274.25,117.73 275.74,117.71 277.24,117.65 278.74,117.45 280.24,117.45 281.74,117.45 283.24,117.44 284.73,117.43 286.23,117.43 287.73,117.32 289.23,117.30 290.73,117.28 292.23,117.27 293.73,117.25 295.22,117.25 296.72,117.25 298.22,117.25 299.72,117.25 301.22,117.25 302.72,117.25 304.21,117.25 305.71,117.21 307.21,117.17 308.71,117.17 310.21,116.93 311.71,116.92 313.20,116.91 314.70,116.87 316.20,116.75 317.70,116.47 319.20,116.42 320.70,116.42 322.20,116.42 323.69,116.42 325.19,116.42 326.69,116.42 328.19,116.42 329.69,116.42 331.19,116.42 332.68,116.42 334.18,116.42 335.68,116.42 337.18,116.42 338.68,116.40 340.18,116.33 341.68,116.31 343.17,116.31 344.67,116.31 346.17,116.31 347.67,116.26 349.17,116.26 350.67,116.05 352.16,115.86 353.66,115.86 355.16,115.86 356.66,115.86 358.16,115.86 359.66,115.83 361.16,115.83 362.65,115.81 364.15,115.72 365.65,115.64 367.15,115.29 368.65,115.28 370.15,114.74 371.64,114.43 373.14,114.20 374.64,113.46 376.14,113.27 377.64,113.19 379.14,112.94 380.63,112.57 382.13,112.48 383.63,112.35 385.13,112.14 386.63,111.96 388.13,111.88 389.63,111.75 391.12,111.66 392.62,111.43 394.12,111.22 395.62,110.97 397.12,110.57 398.62,110.34 400.11,109.18 401.61,108.31 403.11,107.76 404.61,107.28 406.11,106.75 407.61,106.75 409.11,106.75 410.60,106.75 412.10,106.41 413.60,106.22 415.10,105.52 416.60,104.72 418.10,103.80 419.59,102.42 421.09,101.45 422.59,99.45 424.09,98.24 425.59,97.44 427.09,96.14 428.58,95.31 430.08,93.67 431.58,91.18 433.08,90.43 434.58,89.46 436.08,88.52 437.58,88.21 439.07,87.02 440.57,86.81 442.07,85.39 443.57,84.09 445.07,83.31 446.57,82.43 448.06,81.26 449.56,80.95 451.06,80.85 452.56,80.72 454.06,80.64 455.56,79.90 457.06,78.94 458.55,77.78 460.05,77.45 461.55,76.51 463.05,75.29 464.55,72.86 466.05,71.08 467.54,68.87 469.04,68.29 470.54,67.12 472.04,64.96 473.54,63.73 475.04,63.05 476.53,62.11 478.03,61.48 479.53,60.59 481.03,60.17 482.53,59.27 484.03,57.54 485.53,55.64 487.02,55.06 488.52,54.07 490.02,52.49 491.52,51.56 493.02,49.66 494.52,48.66 496.01,46.72 497.51,44.75 499.01,42.68 500.51,39.16 502.01,37.03 503.51,34.98 505.01,33.84 506.50,32.15 508.00,30.71 509.50,30.22" />
    </svg>
  