
    <svg width="540" height="160" xmlns="http://www.w3.org/2000/svg">
      <style>.line{fill:none;stroke:#388bfd;stroke-width:1.5}.axis{stroke:#555;stroke-width:1;opacity:0.5}.label{fill:#999;font-family:sans-serif;font-size:10px;text-anchor:middle}</style>
      <line class="axis" x1="30" y1="30" x2="30" y2="130" />
      <line class="axis" x1="30" y1="130" x2="510" y2="130" />
      <text class="label" x="15" y="30">7,463</text>
      <text class="label" x="15" y="134">0</text>
      <text class="label" x="30" y="148">2021</text>
      <text class="label" x="510" y="148">2026</text>
      <polyline class="line" points="30.00,129.97 31.50,129.96 33.00,129.95 34.50,129.95 36.00,129.95 37.50,129.77 39.00,129.77 40.50,129.77 42.00,128.81 43.50,127.21 45.00,127.13 46.50,127.13 48.00,127.13 49.50,127.13 51.00,127.13 52.50,127.13 54.00,127.13 55.50,127.13 57.00,127.13 58.50,127.13 60.00,127.13 61.50,127.13 63.00,127.13 64.50,127.13 66.00,127.13 67.50,127.13 69.00,127.13 70.50,126.22 72.00,126.22 73.50,126.21 75.00,126.21 76.50,126.21 78.00,126.21 79.50,126.15 81.00,126.15 82.50,126.15 84.00,126.15 85.50,126.15 87.00,126.15 88.50,126.15 90.00,126.15 91.50,126.15 93.00,126.15 94.50,126.15 96.00,126.15 97.50,126.15 99.00,126.15 100.50,126.15 102.00,126.15 103.50,126.15 105.00,126.15 106.50,126.10 108.00,125.28 109.50,124.53 111.00,124.22 112.50,122.74 114.00,122.74 115.50,122.74 117.00,122.74 118.50,122.74 120.00,122.74 121.50,122.74 123.00,122.74 124.50,122.74 126.00,122.74 127.50,122.74 129.00,122.74 130.50,122.63 132.00,122.63 133.50,122.63 135.00,122.50 136.50,122.50 138.00,122.50 139.50,122.50 141.00,122.46 142.50,122.46 144.00,122.46 145.50,122.46 147.00,122.43 148.50,122.43 150.00,122.43 151.50,122.43 153.00,122.43 154.50,122.43 156.00,122.43 157.50,122.43 159.00,122.43 160.50,122.43 162.00,122.43 163.50,122.43 165.00,122.43 166.50,122.43 168.00,122.43 169.50,122.43 171.00,122.43 172.50,122.43 174.00,122.43 175.50,122.43 177.00,122.43 178.50,122.43 180.00,122.43 181.50,122.39 183.00,122.39 184.50,122.39 186.00,122.39 187.50,122.39 189.00,122.39 190.50,122.39 192.00,122.39 193.50,122.39 195.00,122.39 196.50,122.39 198.00,122.39 199.50,122.39 201.00,122.39 202.50,122.39 204.00,122.36 205.50,122.01 207.00,121.92 208.50,121.77 210.00,121.59 211.50,121.53 213.00,121.53 214.50,121.53 216.00,121.24 217.50,121.21 219.00,121.02 220.50,120.96 222.00,120.83 223.50,120.37 225.00,120.34 226.50,120.27 228.00,120.26 229.50,120.19 231.00,120.19 232.50,120.16 234.00,120.16 235.50,120.16 237.00,120.16 238.50,120.16 240.00,120.16 241.50,120.16 243.00,120.02 244.50,119.59 246.00,119.27 247.50,119.17 249.00,118.97 250.50,118.96 252.00,118.93 253.50,118.92 255.00,118.92 256.50,118.92 258.00,118.82 259.50,118.73 261.00,118.70 262.50,118.68 264.00,118.65 265.50,118.34 267.00,118.13 268.50,117.81 270.00,117.61 271.50,117.46 273.00,117.39 274.50,117.31 276.00,117.30 277.50,117.23 279.00,117.03 280.50,117.03 282.00,117.03 283.50,117.02 285.00,117.00 286.50,117.00 288.00,116.90 289.50,116.87 291.00,116.86 292.50,116.84 294.00,116.81 295.50,116.81 297.00,116.81 298.50,116.81 300.00,116.81 301.50,116.81 303.00,116.81 304.50,116.81 306.00,116.77 307.50,116.73 309.00,116.73 310.50,116.49 312.00,116.48 313.50,116.47 315.00,116.43 316.50,116.31 318.00,116.01 319.50,115.96 321.00,115.96 322.50,115.96 324.00,115.96 325.50,115.96 327.00,115.96 328.50,115.96 330.00,115.96 331.50,115.96 333.00,115.96 334.50,115.96 336.00,115.96 337.50,115.96 339.00,115.94 340.50,115.86 342.00,115.85 343.50,115.85 345.00,115.85 346.50,115.85 348.00,115.80 349.50,115.80 351.00,115.58 352.50,115.38 354.00,115.38 355.50,115.38 357.00,115.38 358.50,115.38 360.00,115.35 361.50,115.35 363.00,115.33 364.50,115.23 366.00,115.15 367.50,114.79 369.00,114.78 370.50,114.23 372.00,113.91 373.50,113.67 375.00,112.90 376.50,112.70 378.00,112.62 379.50,112.37 381.00,111.98 382.50,111.88 384.00,111.75 385.50,111.54 387.00,111.35 388.50,111.27 390.00,111.13 391.50,111.04 393.00,110.80 394.50,110.58 396.00,110.33 397.50,109.91 399.00,109.67 400.50,108.48 402.00,107.58 403.50,107.01 405.00,106.51 406.50,105.96 408.00,105.96 409.50,105.96 411.00,105.96 412.50,105.61 414.00,105.41 415.50,104.69 417.00,103.87 418.50,102.92 420.00,101.49 421.50,100.48 423.00,98.42 424.50,97.17 426.00,96.34 427.50,95.00 429.00,94.14 430.50,92.44 432.00,89.87 433.50,89.09 435.00,88.09 436.50,87.12 438.00,86.80 439.50,85.57 441.00,85.35 442.50,83.88 444.00,82.54 445.50,81.74 447.00,80.82 448.50,79.62 450.00,79.30 451.50,79.19 453.00,79.06 454.50,78.97 456.00,78.21 457.50,77.22 459.00,76.01 460.50,75.68 462.00,74.70 463.50,73.44 465.00,70.94 466.50,69.09 468.00,66.81 469.50,66.21 471.00,65.00 472.50,62.76 474.00,61.49 475.50,60.79 477.00,59.81 478.50,59.17 480.00,58.25 481.50,57.82 483.00,56.88 484.50,55.10 486.00,53.13 487.50,52.52 489.00,51.60 490.50,50.37 492.00,49.48 493.50,48.10 495.00,47.25 496.50,45.42 498.00,43.49 499.50,41.79 501.00,38.41 502.50,36.32 504.00,34.30 505.50,33.18 507.00,31.53 508.50,30.17 510.00,30.00" />
    </svg>
  