
    <svg width="540" height="160" xmlns="http://www.w3.org/2000/svg">
      <style>.line{fill:none;stroke:#388bfd;stroke-width:1.5}.axis{stroke:#555;stroke-width:1;opacity:0.5}.label{fill:#999;font-family:sans-serif;font-size:10px;text-anchor:middle}</style>
      <line class="axis" x1="30" y1="30" x2="30" y2="130" />
      <line class="axis" x1="30" y1="130" x2="510" y2="130" />
      <text class="label" x="15" y="30">8,696</text>
      <text class="label" x="15" y="134">0</text>
      <text class="label" x="30" y="148">2021</text>
      <text class="label" x="510" y="148">2026</text>
      <polyline class="line" points="30.00,129.98 31.46,129.97 32.93,129.95 34.39,129.95 35.86,129.95 37.32,129.80 38.79,129.80 40.25,129.80 41.72,128.98 43.18,127.61 44.65,127.54 46.11,127.54 47.58,127.54 49.04,127.54 50.51,127.54 51.97,127.54 53.44,127.54 54.90,127.54 56.37,127.54 57.83,127.54 59.30,127.54 60.76,127.54 62.23,127.54 63.69,127.54 65.16,127.54 66.62,127.54 68.09,127.54 69.55,126.76 71.02,126.76 72.48,126.75 73.95,126.75 75.41,126.75 76.88,126.75 78.34,126.70 79.81,126.70 81.27,126.70 82.74,126.70 84.20,126.70 85.67,126.70 87.13,126.70 88.60,126.70 90.06,126.70 91.53,126.70 92.99,126.70 94.46,126.70 95.92,126.70 97.39,126.70 98.85,126.70 100.32,126.70 101.78,126.70 103.25,126.70 104.71,126.65 106.17,125.95 107.64,125.31 109.10,125.04 110.57,123.77 112.03,123.77 113.50,123.77 114.96,123.77 116.43,123.77 117.89,123.77 119.36,123.77 120.82,123.77 122.29,123.77 123.75,123.77 125.22,123.77 126.68,123.77 128.15,123.68 129.61,123.68 131.08,123.68 132.54,123.56 134.01,123.56 135.47,123.56 136.94,123.56 138.40,123.53 139.87,123.53 141.33,123.53 142.80,123.53 144.26,123.50 145.73,123.50 147.19,123.50 148.66,123.50 150.12,123.50 151.59,123.50 153.05,123.50 154.52,123.50 155.98,123.50 157.45,123.50 158.91,123.50 160.38,123.50 161.84,123.50 163.31,123.50 164.77,123.50 166.24,123.50 167.70,123.50 169.17,123.50 170.63,123.50 172.10,123.50 173.56,123.50 175.03,123.50 176.49,123.50 177.96,123.47 179.42,123.47 180.89,123.47 182.35,123.47 183.81,123.47 185.28,123.47 186.74,123.47 188.21,123.47 189.67,123.47 191.14,123.47 192.60,123.47 194.07,123.47 195.53,123.47 197.00,123.47 198.46,123.47 199.93,123.45 201.39,123.15 202.86,123.07 204.32,122.94 205.79,122.78 207.25,122.73 208.72,122.73 210.18,122.73 211.65,122.48 213.11,122.46 214.58,122.30 216.04,122.24 217.51,122.13 218.97,121.73 220.44,121.71 221.90,121.65 223.37,121.64 224.83,121.58 226.30,121.58 227.76,121.56 229.23,121.56 230.69,121.56 232.16,121.56 233.62,121.56 235.09,121.56 236.55,121.56 238.02,121.43 239.48,121.06 240.95,120.79 242.41,120.71 243.88,120.54 245.34,120.52 246.81,120.50 248.27,120.49 249.74,120.49 251.20,120.49 252.67,120.41 254.13,120.33 255.60,120.31 257.06,120.28 258.52,120.26 259.99,120.00 261.45,119.81 262.92,119.54 264.38,119.36 265.85,119.24 267.31,119.18 268.78,119.11 270.24,119.10 271.71,119.04 273.17,118.87 274.64,118.87 276.10,118.87 277.57,118.86 279.03,118.85 280.50,118.85 281.96,118.75 283.43,118.73 284.89,118.72 286.36,118.71 287.82,118.68 289.29,118.68 290.75,118.68 292.22,118.68 293.68,118.68 295.15,118.68 296.61,118.68 298.08,118.68 299.54,118.65 301.01,118.62 302.47,118.62 303.94,118.41 305.40,118.40 306.87,118.39 308.33,118.35 309.80,118.25 311.26,117.99 312.73,117.95 314.19,117.95 315.66,117.95 317.12,117.95 318.59,117.95 320.05,117.95 321.52,117.95 322.98,117.95 324.45,117.95 325.91,117.95 327.38,117.95 328.84,117.95 330.31,117.95 331.77,117.94 333.23,117.87 334.70,117.86 336.16,117.86 337.63,117.86 339.09,117.86 340.56,117.81 342.02,117.81 343.49,117.63 344.95,117.45 346.42,117.45 347.88,117.45 349.35,117.45 350.81,117.45 352.28,117.43 353.74,117.43 355.21,117.41 356.67,117.33 358.14,117.26 359.60,116.95 361.07,116.94 362.53,116.47 364.00,116.19 365.46,115.98 366.93,115.33 368.39,115.15 369.86,115.09 371.32,114.87 372.79,114.53 374.25,114.45 375.72,114.34 377.18,114.15 378.65,113.99 380.11,113.92 381.58,113.81 383.04,113.73 384.51,113.52 385.97,113.34 387.44,113.12 388.90,112.76 390.37,112.56 391.83,111.53 393.30,110.76 394.76,110.27 396.23,109.84 397.69,109.37 399.16,109.37 400.62,109.37 402.09,109.37 403.55,109.07 405.02,108.90 406.48,108.28 407.95,107.58 409.41,106.76 410.87,105.53 412.34,104.67 413.80,102.90 415.27,101.83 416.73,101.11 418.20,99.96 419.66,99.23 421.13,97.77 422.59,95.56 424.06,94.89 425.52,94.03 426.99,93.20 428.45,92.93 429.92,91.87 431.38,91.68 432.85,90.42 434.31,89.27 435.78,88.58 437.24,87.80 438.71,86.76 440.17,86.49 441.64,86.39 443.10,86.28 444.57,86.21 446.03,85.55 447.50,84.70 448.96,83.67 450.43,83.38 451.89,82.54 453.36,81.46 454.82,79.31 456.29,77.72 457.75,75.77 459.22,75.25 460.68,74.22 462.15,72.30 463.61,71.20 465.08,70.60 466.54,69.77 468.01,69.21 469.47,68.42 470.94,68.05 472.40,67.25 473.87,65.72 475.33,64.03 476.80,63.51 478.26,62.56 479.73,60.81 481.19,59.91 482.66,57.74 484.12,56.70 485.58,54.82 487.05,52.98 488.51,50.76 489.98,47.42 491.44,45.21 492.91,43.32 494.37,42.10 495.84,40.52 497.30,39.11 498.77,38.42 500.23,37.27 501.70,35.88 503.16,35.34 504.63,34.31 506.09,33.44 507.56,32.58 509.02,31.46" />
    </svg>
  