
    <svg width="540" height="160" xmlns="http://www.w3.org/2000/svg">
      <style>.line{fill:none;stroke:#388bfd;stroke-width:1.5}.axis{stroke:#555;stroke-width:1;opacity:0.5}.label{fill:#999;font-family:sans-serif;font-size:10px;text-anchor:middle}</style>
      <line class="axis" x1="30" y1="30" x2="30" y2="130" />
      <line class="axis" x1="30" y1="130" x2="510" y2="130" />
      <text class="label" x="15" y="30">8,475</text>
      <text class="label" x="15" y="134">0</text>
      <text class="label" x="30" y="148">2021</text>
      <text class="label" x="510" y="148">2026</text>
      <polyline class="line" points="30.00,129.98 31.47,129.96 32.94,129.95 34.41,129.95 35.89,129.95 37.36,129.80 38.83,129.80 40.30,129.80 41.77,128.95 43.24,127.55 44.72,127.47 46.19,127.47 47.66,127.47 49.13,127.47 50.60,127.47 52.07,127.47 53.55,127.47 55.02,127.47 56.49,127.47 57.96,127.47 59.43,127.47 60.90,127.47 62.38,127.47 63.85,127.47 65.32,127.47 66.79,127.47 68.26,127.47 69.73,126.67 71.21,126.67 72.68,126.66 74.15,126.66 75.62,126.66 77.09,126.66 78.56,126.61 80.04,126.61 81.51,126.61 82.98,126.61 84.45,126.61 85.92,126.61 87.39,126.61 88.87,126.61 90.34,126.61 91.81,126.61 93.28,126.61 94.75,126.61 96.22,126.61 97.70,126.61 99.17,126.61 100.64,126.61 102.11,126.61 103.58,126.61 105.05,126.57 106.53,125.85 108.00,125.19 109.47,124.91 110.94,123.60 112.41,123.60 113.88,123.60 115.36,123.60 116.83,123.60 118.30,123.60 119.77,123.60 121.24,123.60 122.71,123.60 124.18,123.60 125.66,123.60 127.13,123.60 128.60,123.51 130.07,123.51 131.54,123.51 133.01,123.39 134.49,123.39 135.96,123.39 137.43,123.39 138.90,123.36 140.37,123.36 141.84,123.36 143.32,123.36 144.79,123.33 146.26,123.33 147.73,123.33 149.20,123.33 150.67,123.33 152.15,123.33 153.62,123.33 155.09,123.33 156.56,123.33 158.03,123.33 159.50,123.33 160.98,123.33 162.45,123.33 163.92,123.33 165.39,123.33 166.86,123.33 168.33,123.33 169.81,123.33 171.28,123.33 172.75,123.33 174.22,123.33 175.69,123.33 177.16,123.33 178.64,123.30 180.11,123.30 181.58,123.30 183.05,123.30 184.52,123.30 185.99,123.30 187.47,123.30 188.94,123.30 190.41,123.30 191.88,123.30 193.35,123.30 194.82,123.30 196.30,123.30 197.77,123.30 199.24,123.30 200.71,123.27 202.18,122.97 203.65,122.88 205.13,122.76 206.60,122.59 208.07,122.54 209.54,122.54 211.01,122.54 212.48,122.28 213.96,122.26 215.43,122.09 216.90,122.04 218.37,121.93 219.84,121.52 221.31,121.49 222.78,121.43 224.26,121.42 225.73,121.36 227.20,121.36 228.67,121.34 230.14,121.34 231.61,121.34 233.09,121.34 234.56,121.34 236.03,121.34 237.50,121.34 238.97,121.21 240.44,120.83 241.92,120.55 243.39,120.47 244.86,120.29 246.33,120.28 247.80,120.25 249.27,120.24 250.75,120.24 252.22,120.24 253.69,120.16 255.16,120.08 256.63,120.05 258.10,120.03 259.58,120.01 261.05,119.73 262.52,119.55 263.99,119.26 265.46,119.09 266.93,118.96 268.41,118.90 269.88,118.83 271.35,118.81 272.82,118.76 274.29,118.58 275.76,118.58 277.24,118.58 278.71,118.57 280.18,118.55 281.65,118.55 283.12,118.46 284.59,118.44 286.07,118.42 287.54,118.41 289.01,118.39 290.48,118.39 291.95,118.39 293.42,118.39 294.90,118.39 296.37,118.39 297.84,118.39 299.31,118.39 300.78,118.35 302.25,118.32 303.73,118.32 305.20,118.11 306.67,118.09 308.14,118.08 309.61,118.05 311.08,117.94 312.55,117.68 314.03,117.63 315.50,117.63 316.97,117.63 318.44,117.63 319.91,117.63 321.38,117.63 322.86,117.63 324.33,117.63 325.80,117.63 327.27,117.63 328.74,117.63 330.21,117.63 331.69,117.63 333.16,117.62 334.63,117.55 336.10,117.54 337.57,117.54 339.04,117.54 340.52,117.54 341.99,117.49 343.46,117.49 344.93,117.30 346.40,117.13 347.87,117.13 349.35,117.13 350.82,117.13 352.29,117.13 353.76,117.10 355.23,117.10 356.70,117.08 358.18,117.00 359.65,116.93 361.12,116.61 362.59,116.60 364.06,116.11 365.53,115.83 367.01,115.62 368.48,114.94 369.95,114.77 371.42,114.70 372.89,114.47 374.36,114.13 375.84,114.05 377.31,113.93 378.78,113.74 380.25,113.58 381.72,113.50 383.19,113.39 384.67,113.30 386.14,113.09 387.61,112.90 389.08,112.68 390.55,112.31 392.02,112.10 393.50,111.05 394.97,110.26 396.44,109.75 397.91,109.32 399.38,108.83 400.85,108.83 402.32,108.83 403.80,108.83 405.27,108.53 406.74,108.35 408.21,107.71 409.68,106.99 411.15,106.15 412.63,104.89 414.10,104.01 415.57,102.19 417.04,101.09 418.51,100.36 419.98,99.18 421.46,98.42 422.93,96.93 424.40,94.66 425.87,93.98 427.34,93.09 428.81,92.24 430.29,91.96 431.76,90.87 433.23,90.68 434.70,89.39 436.17,88.21 437.64,87.50 439.12,86.70 440.59,85.63 442.06,85.35 443.53,85.26 445.00,85.14 446.47,85.07 447.95,84.40 449.42,83.52 450.89,82.46 452.36,82.17 453.83,81.30 455.30,80.19 456.78,77.99 458.25,76.36 459.72,74.35 461.19,73.82 462.66,72.76 464.13,70.79 465.61,69.67 467.08,69.06 468.55,68.19 470.02,67.63 471.49,66.81 472.96,66.44 474.44,65.61 475.91,64.04 477.38,62.31 478.85,61.78 480.32,60.80 481.79,59.00 483.27,58.08 484.74,55.85 486.21,54.79 487.68,52.86 489.15,50.97 490.62,48.69 492.10,45.27 493.57,43.00 495.04,41.06 496.51,39.81 497.98,38.19 499.45,36.74 500.92,36.03 502.40,34.85 503.87,33.42 505.34,32.87 506.81,31.82 508.28,30.92 509.75,30.04" />
    </svg>
  