
    <svg width="540" height="160" xmlns="http://www.w3.org/2000/svg">
      <style>.line{fill:none;stroke:#388bfd;stroke-width:1.5}.axis{stroke:#555;stroke-width:1;opacity:0.5}.label{fill:#999;font-family:sans-serif;font-size:10px;text-anchor:middle}</style>
      <line class="axis" x1="30" y1="30" x2="30" y2="130" />
      <line class="axis" x1="30" y1="130" x2="510" y2="130" />
      <text class="label" x="15" y="30">9,524</text>
      <text class="label" x="15" y="134">0</text>
      <text class="label" x="30" y="148">2021</text>
      <text class="label" x="510" y="148">2026</text>
      <polyline class="line" points="30.00,129.98 31.43,129.97 32.85,129.96 34.28,129.96 35.71,129.96 37.13,129.82 38.56,129.82 39.99,129.82 41.41,129.07 42.84,127.82 44.26,127.75 45.69,127.75 47.12,127.75 48.54,127.75 49.97,127.75 51.40,127.75 52.82,127.75 54.25,127.75 55.68,127.75 57.10,127.75 58.53,127.75 59.96,127.75 61.38,127.75 62.81,127.75 64.23,127.75 65.66,127.75 67.09,127.75 68.51,127.04 69.94,127.04 71.37,127.03 72.79,127.03 74.22,127.03 75.65,127.03 77.07,126.99 78.50,126.99 79.93,126.99 81.35,126.99 82.78,126.99 84.21,126.99 85.63,126.99 87.06,126.99 88.48,126.99 89.91,126.99 91.34,126.99 92.76,126.99 94.19,126.99 95.62,126.99 97.04,126.99 98.47,126.99 99.90,126.99 101.32,126.99 102.75,126.94 104.18,126.30 105.60,125.72 107.03,125.47 108.45,124.31 109.88,124.31 111.31,124.31 112.73,124.31 114.16,124.31 115.59,124.31 117.01,124.31 118.44,124.31 119.87,124.31 121.29,124.31 122.72,124.31 124.15,124.31 125.57,124.23 127.00,124.23 128.42,124.23 129.85,124.12 131.28,124.12 132.70,124.12 134.13,124.12 135.56,124.09 136.98,124.09 138.41,124.09 139.84,124.09 141.26,124.07 142.69,124.07 144.12,124.07 145.54,124.07 146.97,124.07 148.40,124.07 149.82,124.07 151.25,124.07 152.67,124.07 154.10,124.07 155.53,124.07 156.95,124.07 158.38,124.07 159.81,124.07 161.23,124.07 162.66,124.07 164.09,124.07 165.51,124.07 166.94,124.07 168.37,124.07 169.79,124.07 171.22,124.07 172.64,124.07 174.07,124.04 175.50,124.04 176.92,124.04 178.35,124.04 179.78,124.04 181.20,124.04 182.63,124.04 184.06,124.04 185.48,124.04 186.91,124.04 188.34,124.04 189.76,124.04 191.19,124.04 192.62,124.04 194.04,124.04 195.47,124.02 196.89,123.74 198.32,123.67 199.75,123.55 201.17,123.41 202.60,123.36 204.03,123.36 205.45,123.36 206.88,123.13 208.31,123.11 209.73,122.97 211.16,122.91 212.59,122.82 214.01,122.45 215.44,122.43 216.86,122.38 218.29,122.37 219.72,122.31 221.14,122.31 222.57,122.29 224.00,122.29 225.42,122.29 226.85,122.29 228.28,122.29 229.70,122.29 231.13,122.29 232.56,122.18 233.98,121.84 235.41,121.59 236.84,121.52 238.26,121.36 239.69,121.35 241.11,121.33 242.54,121.32 243.97,121.32 245.39,121.32 246.82,121.24 248.25,121.17 249.67,121.15 251.10,121.13 252.53,121.11 253.95,120.87 255.38,120.70 256.81,120.45 258.23,120.29 259.66,120.17 261.08,120.12 262.51,120.06 263.94,120.05 265.36,119.99 266.79,119.84 268.22,119.84 269.64,119.84 271.07,119.83 272.50,119.82 273.92,119.82 275.35,119.73 276.78,119.71 278.20,119.70 279.63,119.69 281.05,119.67 282.48,119.67 283.91,119.67 285.33,119.67 286.76,119.67 288.19,119.67 289.61,119.67 291.04,119.67 292.47,119.64 293.89,119.61 295.32,119.61 296.75,119.42 298.17,119.41 299.60,119.40 301.03,119.36 302.45,119.27 303.88,119.04 305.30,119.00 306.73,119.00 308.16,119.00 309.58,119.00 311.01,119.00 312.44,119.00 313.86,119.00 315.29,119.00 316.72,119.00 318.14,119.00 319.57,119.00 321.00,119.00 322.42,119.00 323.85,118.99 325.27,118.92 326.70,118.91 328.13,118.91 329.55,118.91 330.98,118.91 332.41,118.87 333.83,118.87 335.26,118.70 336.69,118.54 338.11,118.54 339.54,118.54 340.97,118.54 342.39,118.54 343.82,118.52 345.25,118.52 346.67,118.50 348.10,118.43 349.52,118.37 350.95,118.08 352.38,118.07 353.80,117.64 355.23,117.39 356.66,117.20 358.08,116.60 359.51,116.44 360.94,116.38 362.36,116.18 363.79,115.88 365.22,115.80 366.64,115.70 368.07,115.53 369.49,115.38 370.92,115.32 372.35,115.22 373.77,115.14 375.20,114.95 376.63,114.79 378.05,114.59 379.48,114.26 380.91,114.07 382.33,113.14 383.76,112.43 385.19,111.98 386.61,111.59 388.04,111.16 389.47,111.16 390.89,111.16 392.32,111.16 393.74,110.89 395.17,110.73 396.60,110.17 398.02,109.53 399.45,108.78 400.88,107.66 402.30,106.87 403.73,105.25 405.16,104.28 406.58,103.62 408.01,102.57 409.44,101.90 410.86,100.57 412.29,98.55 413.71,97.94 415.14,97.16 416.57,96.40 417.99,96.15 419.42,95.18 420.85,95.01 422.27,93.86 423.70,92.81 425.13,92.18 426.55,91.47 427.98,90.52 429.41,90.27 430.83,90.18 432.26,90.08 433.68,90.02 435.11,89.42 436.54,88.64 437.96,87.70 439.39,87.43 440.82,86.67 442.24,85.68 443.67,83.72 445.10,82.27 446.52,80.48 447.95,80.01 449.38,79.07 450.80,77.31 452.23,76.31 453.66,75.77 455.08,75.00 456.51,74.50 457.93,73.77 459.36,73.44 460.79,72.70 462.21,71.31 463.64,69.76 465.07,69.29 466.49,68.42 467.92,66.82 469.35,66.00 470.77,64.02 472.20,63.07 473.63,61.35 475.05,59.67 476.48,57.65 477.90,54.60 479.33,52.59 480.76,50.85 482.18,49.74 483.61,48.30 485.04,47.01 486.46,46.38 487.89,45.33 489.32,44.06 490.74,43.35 492.17,42.25 493.60,41.42 495.02,40.64 496.45,39.45 497.88,37.29 499.30,35.55 500.73,34.09 502.15,32.89 503.58,32.45 505.01,31.88 506.43,31.42 507.86,30.89 509.29,30.16" />
    </svg>
  