
    <svg width="540" height="160" xmlns="http://www.w3.org/2000/svg">
      <style>.line{fill:none;stroke:#388bfd;stroke-width:1.5}.axis{stroke:#555;stroke-width:1;opacity:0.5}.label{fill:#999;font-family:sans-serif;font-size:10px;text-anchor:middle}</style>
      <line class="axis" x1="30" y1="30" x2="30" y2="130" />
      <line class="axis" x1="30" y1="130" x2="510" y2="130" />
      <text class="label" x="15" y="30">7,450</text>
      <text class="label" x="15" y="134">0</text>
      <text class="label" x="30" y="148">2021</text>
      <text class="label" x="510" y="148">2026</text>
      <polyline class="line" points="30.00,129.97 31.50,129.96 33.00,129.95 34.51,129.95 36.01,129.95 37.51,129.77 39.01,129.77 40.52,129.77 42.02,128.81 43.52,127.21 45.02,127.13 46.53,127.13 48.03,127.13 49.53,127.13 51.03,127.13 52.54,127.13 54.04,127.13 55.54,127.13 57.04,127.13 58.54,127.13 60.05,127.13 61.55,127.13 63.05,127.13 64.55,127.13 66.06,127.13 67.56,127.13 69.06,127.13 70.56,126.21 72.07,126.21 73.57,126.20 75.07,126.20 76.57,126.20 78.08,126.20 79.58,126.15 81.08,126.15 82.58,126.15 84.08,126.15 85.59,126.15 87.09,126.15 88.59,126.15 90.09,126.15 91.60,126.15 93.10,126.15 94.60,126.15 96.10,126.15 97.61,126.15 99.11,126.15 100.61,126.15 102.11,126.15 103.62,126.15 105.12,126.15 106.62,126.09 108.12,125.28 109.62,124.52 111.13,124.21 112.63,122.72 114.13,122.72 115.63,122.72 117.14,122.72 118.64,122.72 120.14,122.72 121.64,122.72 123.15,122.72 124.65,122.72 126.15,122.72 127.65,122.72 129.15,122.72 130.66,122.62 132.16,122.62 133.66,122.62 135.16,122.48 136.67,122.48 138.17,122.48 139.67,122.48 141.17,122.44 142.68,122.44 144.18,122.44 145.68,122.44 147.18,122.42 148.69,122.42 150.19,122.42 151.69,122.42 153.19,122.42 154.69,122.42 156.20,122.42 157.70,122.42 159.20,122.42 160.70,122.42 162.21,122.42 163.71,122.42 165.21,122.42 166.71,122.42 168.22,122.42 169.72,122.42 171.22,122.42 172.72,122.42 174.23,122.42 175.73,122.42 177.23,122.42 178.73,122.42 180.23,122.42 181.74,122.38 183.24,122.38 184.74,122.38 186.24,122.38 187.75,122.38 189.25,122.38 190.75,122.38 192.25,122.38 193.76,122.38 195.26,122.38 196.76,122.38 198.26,122.38 199.77,122.38 201.27,122.38 202.77,122.38 204.27,122.35 205.77,122.00 207.28,121.91 208.78,121.76 210.28,121.57 211.78,121.52 213.29,121.52 214.79,121.52 216.29,121.22 217.79,121.19 219.30,121.01 220.80,120.94 222.30,120.82 223.80,120.35 225.31,120.32 226.81,120.26 228.31,120.24 229.81,120.17 231.31,120.17 232.82,120.15 234.32,120.15 235.82,120.15 237.32,120.15 238.83,120.15 240.33,120.15 241.83,120.15 243.33,120.00 244.84,119.57 246.34,119.25 247.84,119.15 249.34,118.95 250.85,118.94 252.35,118.91 253.85,118.90 255.35,118.90 256.85,118.90 258.36,118.81 259.86,118.71 261.36,118.68 262.86,118.66 264.37,118.63 265.87,118.32 267.37,118.11 268.87,117.79 270.38,117.58 271.88,117.44 273.38,117.37 274.88,117.29 276.38,117.28 277.89,117.21 279.39,117.01 280.89,117.01 282.39,117.01 283.90,116.99 285.40,116.98 286.90,116.98 288.40,116.87 289.91,116.85 291.41,116.83 292.91,116.82 294.41,116.79 295.92,116.79 297.42,116.79 298.92,116.79 300.42,116.79 301.92,116.79 303.43,116.79 304.93,116.79 306.43,116.75 307.93,116.71 309.44,116.71 310.94,116.47 312.44,116.46 313.94,116.44 315.45,116.40 316.95,116.28 318.45,115.99 319.95,115.93 321.46,115.93 322.96,115.93 324.46,115.93 325.96,115.93 327.46,115.93 328.97,115.93 330.47,115.93 331.97,115.93 333.47,115.93 334.98,115.93 336.48,115.93 337.98,115.93 339.48,115.92 340.99,115.84 342.49,115.83 343.99,115.83 345.49,115.83 347.00,115.83 348.50,115.77 350.00,115.77 351.50,115.56 353.00,115.36 354.51,115.36 356.01,115.36 357.51,115.36 359.01,115.36 360.52,115.33 362.02,115.33 363.52,115.30 365.02,115.21 366.53,115.13 368.03,114.77 369.53,114.75 371.03,114.20 372.54,113.88 374.04,113.64 375.54,112.87 377.04,112.67 378.54,112.59 380.05,112.34 381.55,111.95 383.05,111.85 384.55,111.72 386.06,111.50 387.56,111.32 389.06,111.23 390.56,111.10 392.07,111.01 393.57,110.77 395.07,110.55 396.57,110.30 398.08,109.88 399.58,109.64 401.08,108.44 402.58,107.54 404.08,106.97 405.59,106.47 407.09,105.92 408.59,105.92 410.09,105.92 411.60,105.92 413.10,105.57 414.60,105.37 416.10,104.64 417.61,103.83 419.11,102.87 420.61,101.44 422.11,100.43 423.62,98.36 425.12,97.11 426.62,96.28 428.12,94.94 429.62,94.08 431.13,92.38 432.63,89.80 434.13,89.02 435.63,88.01 437.14,87.05 438.64,86.72 440.14,85.49 441.64,85.28 443.15,83.80 444.65,82.46 446.15,81.65 447.65,80.74 449.15,79.53 450.66,79.21 452.16,79.10 453.66,78.97 455.16,78.89 456.67,78.12 458.17,77.13 459.67,75.92 461.17,75.58 462.68,74.60 464.18,73.34 465.68,70.83 467.18,68.98 468.69,66.70 470.19,66.09 471.69,64.89 473.19,62.64 474.69,61.37 476.20,60.67 477.70,59.69 479.20,59.05 480.70,58.12 482.21,57.69 483.71,56.75 485.21,54.97 486.71,52.99 488.22,52.39 489.72,51.46 491.22,50.23 492.72,49.34 494.23,47.96 495.73,47.10 497.23,45.28 498.73,43.34 500.23,41.64 501.74,38.26 503.24,36.16 504.74,34.13 506.24,33.01 507.75,31.36 509.25,30.00" />
    </svg>
  