
    <svg width="540" height="160" xmlns="http://www.w3.org/2000/svg">
      <style>.line{fill:none;stroke:#388bfd;stroke-width:1.5}.axis{stroke:#555;stroke-width:1;opacity:0.5}.label{fill:#999;font-family:sans-serif;font-size:10px;text-anchor:middle}</style>
      <line class="axis" x1="30" y1="30" x2="30" y2="130" />
      <line class="axis" x1="30" y1="130" x2="510" y2="130" />
      <text class="label" x="15" y="30">9,431</text>
      <text class="label" x="15" y="134">0</text>
      <text class="label" x="30" y="148">2021</text>
      <text class="label" x="510" y="148">2026</text>
      <polyline class="line" points="30.00,129.98 31.43,129.97 32.87,129.96 34.30,129.96 35.73,129.96 37.17,129.82 38.60,129.82 40.03,129.82 41.47,129.06 42.90,127.79 44.34,127.73 45.77,127.73 47.20,127.73 48.64,127.73 50.07,127.73 51.50,127.73 52.94,127.73 54.37,127.73 55.80,127.73 57.24,127.73 58.67,127.73 60.10,127.73 61.54,127.73 62.97,127.73 64.41,127.73 65.84,127.73 67.27,127.73 68.71,127.01 70.14,127.01 71.57,127.00 73.01,127.00 74.44,127.00 75.87,127.00 77.31,126.96 78.74,126.96 80.17,126.96 81.61,126.96 83.04,126.96 84.47,126.96 85.91,126.96 87.34,126.96 88.78,126.96 90.21,126.96 91.64,126.96 93.08,126.96 94.51,126.96 95.94,126.96 97.38,126.96 98.81,126.96 100.24,126.96 101.68,126.96 103.11,126.91 104.54,126.27 105.98,125.67 107.41,125.43 108.85,124.25 110.28,124.25 111.71,124.25 113.15,124.25 114.58,124.25 116.01,124.25 117.45,124.25 118.88,124.25 120.31,124.25 121.75,124.25 123.18,124.25 124.61,124.25 126.05,124.17 127.48,124.17 128.91,124.17 130.35,124.06 131.78,124.06 133.22,124.06 134.65,124.06 136.08,124.03 137.52,124.03 138.95,124.03 140.38,124.03 141.82,124.01 143.25,124.01 144.68,124.01 146.12,124.01 147.55,124.01 148.98,124.01 150.42,124.01 151.85,124.01 153.29,124.01 154.72,124.01 156.15,124.01 157.59,124.01 159.02,124.01 160.45,124.01 161.89,124.01 163.32,124.01 164.75,124.01 166.19,124.01 167.62,124.01 169.05,124.01 170.49,124.01 171.92,124.01 173.35,124.01 174.79,123.98 176.22,123.98 177.66,123.98 179.09,123.98 180.52,123.98 181.96,123.98 183.39,123.98 184.82,123.98 186.26,123.98 187.69,123.98 189.12,123.98 190.56,123.98 191.99,123.98 193.42,123.98 194.86,123.98 196.29,123.96 197.73,123.68 199.16,123.61 200.59,123.49 202.03,123.34 203.46,123.30 204.89,123.30 206.33,123.30 207.76,123.07 209.19,123.04 210.63,122.90 212.06,122.84 213.49,122.75 214.93,122.38 216.36,122.35 217.79,122.30 219.23,122.29 220.66,122.24 222.10,122.24 223.53,122.22 224.96,122.22 226.40,122.22 227.83,122.22 229.26,122.22 230.70,122.22 232.13,122.22 233.56,122.10 235.00,121.76 236.43,121.51 237.86,121.43 239.30,121.27 240.73,121.26 242.17,121.24 243.60,121.23 245.03,121.23 246.47,121.23 247.90,121.16 249.33,121.08 250.77,121.06 252.20,121.04 253.63,121.02 255.07,120.78 256.50,120.61 257.93,120.35 259.37,120.19 260.80,120.08 262.23,120.02 263.67,119.96 265.10,119.95 266.54,119.90 267.97,119.74 269.40,119.74 270.84,119.74 272.27,119.73 273.70,119.71 275.14,119.71 276.57,119.63 278.00,119.61 279.44,119.60 280.87,119.59 282.30,119.57 283.74,119.57 285.17,119.57 286.61,119.57 288.04,119.57 289.47,119.57 290.91,119.57 292.34,119.57 293.77,119.53 295.21,119.50 296.64,119.50 298.07,119.31 299.51,119.30 300.94,119.29 302.37,119.26 303.81,119.16 305.24,118.93 306.67,118.89 308.11,118.89 309.54,118.89 310.98,118.89 312.41,118.89 313.84,118.89 315.28,118.89 316.71,118.89 318.14,118.89 319.58,118.89 321.01,118.89 322.44,118.89 323.88,118.89 325.31,118.88 326.74,118.81 328.18,118.80 329.61,118.80 331.05,118.80 332.48,118.80 333.91,118.76 335.35,118.76 336.78,118.59 338.21,118.43 339.65,118.43 341.08,118.43 342.51,118.43 343.95,118.43 345.38,118.41 346.81,118.41 348.25,118.39 349.68,118.32 351.11,118.25 352.55,117.97 353.98,117.95 355.42,117.52 356.85,117.27 358.28,117.07 359.72,116.47 361.15,116.31 362.58,116.25 364.02,116.05 365.45,115.74 366.88,115.66 368.32,115.56 369.75,115.39 371.18,115.24 372.62,115.18 374.05,115.07 375.49,115.00 376.92,114.81 378.35,114.64 379.79,114.43 381.22,114.11 382.65,113.91 384.09,112.97 385.52,112.26 386.95,111.80 388.39,111.41 389.82,110.98 391.25,110.98 392.69,110.98 394.12,110.98 395.56,110.70 396.99,110.54 398.42,109.97 399.86,109.32 401.29,108.57 402.72,107.44 404.16,106.64 405.59,105.01 407.02,104.02 408.46,103.36 409.89,102.30 411.32,101.63 412.76,100.28 414.19,98.24 415.62,97.63 417.06,96.83 418.49,96.07 419.93,95.81 421.36,94.84 422.79,94.67 424.23,93.50 425.66,92.44 427.09,91.81 428.53,91.09 429.96,90.13 431.39,89.88 432.83,89.79 434.26,89.69 435.69,89.62 437.13,89.02 438.56,88.23 440.00,87.28 441.43,87.01 442.86,86.24 444.30,85.24 445.73,83.26 447.16,81.80 448.60,79.99 450.03,79.52 451.46,78.56 452.90,76.79 454.33,75.79 455.76,75.23 457.20,74.46 458.63,73.95 460.06,73.22 461.50,72.88 462.93,72.14 464.37,70.73 465.80,69.17 467.23,68.69 468.67,67.81 470.10,66.20 471.53,65.37 472.97,63.37 474.40,62.41 475.83,60.68 477.27,58.98 478.70,56.93 480.13,53.86 481.57,51.82 483.00,50.07 484.44,48.95 485.87,47.50 487.30,46.19 488.74,45.56 490.17,44.49 491.60,43.21 493.04,42.49 494.47,41.39 495.90,40.55 497.34,39.76 498.77,38.56 500.20,36.37 501.64,34.62 503.07,33.15 504.50,31.93 505.94,31.48 507.37,30.91 508.81,30.45" />
    </svg>
  