
    <svg width="540" height="160" xmlns="http://www.w3.org/2000/svg">
      <style>.line{fill:none;stroke:#388bfd;stroke-width:1.5}.axis{stroke:#555;stroke-width:1;opacity:0.5}.label{fill:#999;font-family:sans-serif;font-size:10px;text-anchor:middle}</style>
      <line class="axis" x1="30" y1="30" x2="30" y2="130" />
      <line class="axis" x1="30" y1="130" x2="510" y2="130" />
      <text class="label" x="15" y="30">4,193</text>
      <text class="label" x="15" y="134">0</text>
      <text class="label" x="30" y="148">2021</text>
      <text class="label" x="510" y="148">2026</text>
      <polyline class="line" points="30.00,129.95 31.53,129.93 33.06,129.90 34.59,129.90 36.12,129.90 37.65,129.59 39.18,129.59 40.71,129.59 42.24,127.88 43.77,125.04 45.29,124.90 46.82,124.90 48.35,124.90 49.88,124.90 51.41,124.90 52.94,124.90 54.47,124.90 56.00,124.90 57.53,124.90 59.06,124.90 60.59,124.90 62.12,124.90 63.65,124.90 65.18,124.90 66.71,124.90 68.24,124.90 69.77,124.90 71.30,123.27 72.83,123.27 74.35,123.25 75.88,123.25 77.41,123.25 78.94,123.25 80.47,123.16 82.00,123.16 83.53,123.16 85.06,123.16 86.59,123.16 88.12,123.16 89.65,123.16 91.18,123.16 92.71,123.16 94.24,123.16 95.77,123.16 97.30,123.16 98.83,123.16 100.36,123.16 101.89,123.16 103.41,123.16 104.94,123.16 106.47,123.16 108.00,123.06 109.53,121.61 111.06,120.27 112.59,119.72 114.12,117.07 115.65,117.07 117.18,117.07 118.71,117.07 120.24,117.07 121.77,117.07 123.30,117.07 124.83,117.07 126.36,117.07 127.89,117.07 129.42,117.07 130.95,117.07 132.47,116.88 134.00,116.88 135.53,116.88 137.06,116.64 138.59,116.64 140.12,116.64 141.65,116.64 143.18,116.57 144.71,116.57 146.24,116.57 147.77,116.57 149.30,116.53 150.83,116.53 152.36,116.53 153.89,116.53 155.42,116.53 156.95,116.53 158.48,116.53 160.01,116.53 161.53,116.53 163.06,116.53 164.59,116.53 166.12,116.53 167.65,116.53 169.18,116.53 170.71,116.53 172.24,116.53 173.77,116.53 175.30,116.53 176.83,116.53 178.36,116.53 179.89,116.53 181.42,116.53 182.95,116.53 184.48,116.45 186.01,116.45 187.54,116.45 189.07,116.45 190.59,116.45 192.12,116.45 193.65,116.45 195.18,116.45 196.71,116.45 198.24,116.45 199.77,116.45 201.30,116.45 202.83,116.45 204.36,116.45 205.89,116.45 207.42,116.41 208.95,115.79 210.48,115.62 212.01,115.36 213.54,115.02 215.07,114.93 216.60,114.93 218.13,114.93 219.65,114.40 221.18,114.35 222.71,114.02 224.24,113.90 225.77,113.69 227.30,112.85 228.83,112.80 230.36,112.69 231.89,112.66 233.42,112.54 234.95,112.54 236.48,112.49 238.01,112.49 239.54,112.49 241.07,112.49 242.60,112.49 244.13,112.49 245.66,112.49 247.19,112.23 248.71,111.47 250.24,110.90 251.77,110.73 253.30,110.37 254.83,110.35 256.36,110.30 257.89,110.28 259.42,110.28 260.95,110.28 262.48,110.11 264.01,109.94 265.54,109.90 267.07,109.85 268.60,109.80 270.13,109.25 271.66,108.87 273.19,108.30 274.72,107.94 276.25,107.68 277.77,107.56 279.30,107.41 280.83,107.39 282.36,107.27 283.89,106.91 285.42,106.91 286.95,106.91 288.48,106.89 290.01,106.87 291.54,106.87 293.07,106.68 294.60,106.63 296.13,106.60 297.66,106.58 299.19,106.53 300.72,106.53 302.25,106.53 303.78,106.53 305.31,106.53 306.83,106.53 308.36,106.53 309.89,106.53 311.42,106.46 312.95,106.39 314.48,106.39 316.01,105.96 317.54,105.94 319.07,105.91 320.60,105.84 322.13,105.63 323.66,105.10 325.19,105.01 326.72,105.01 328.25,105.01 329.78,105.01 331.31,105.01 332.84,105.01 334.37,105.01 335.89,105.01 337.42,105.01 338.95,105.01 340.48,105.01 342.01,105.01 343.54,105.01 345.07,104.98 346.60,104.84 348.13,104.82 349.66,104.82 351.19,104.82 352.72,104.82 354.25,104.72 355.78,104.72 357.31,104.34 358.84,103.98 360.37,103.98 361.90,103.98 363.43,103.98 364.95,103.98 366.48,103.93 368.01,103.93 369.54,103.89 371.07,103.72 372.60,103.58 374.13,102.93 375.66,102.91 377.19,101.93 378.72,101.36 380.25,100.93 381.78,99.57 383.31,99.35 384.84,99.31 386.37,99.31 387.90,99.31 389.43,99.31 390.96,99.26 392.49,99.14 394.01,99.14 395.54,99.14 397.07,99.14 398.60,99.14 400.13,99.14 401.66,99.09 403.19,99.04 404.72,99.04 406.25,99.04 407.78,99.00 409.31,99.00 410.84,98.81 412.37,98.71 413.90,98.71 415.43,98.71 416.96,98.71 418.49,98.71 420.02,98.71 421.55,98.71 423.07,98.19 424.60,97.64 426.13,97.18 427.66,96.56 429.19,95.85 430.72,94.15 432.25,93.11 433.78,92.37 435.31,91.15 436.84,90.20 438.37,88.57 439.90,86.24 441.43,85.54 442.96,84.54 444.49,83.68 446.02,83.40 447.55,82.30 449.08,82.11 450.61,80.80 452.13,79.61 453.66,78.89 455.19,78.06 456.72,76.91 458.25,76.58 459.78,76.41 461.31,76.24 462.84,76.10 464.37,75.19 465.90,74.17 467.43,72.55 468.96,72.07 470.49,71.24 472.02,69.88 473.55,66.85 475.08,64.56 476.61,62.01 478.14,61.46 479.67,60.34 481.19,58.07 482.72,56.69 484.25,55.92 485.78,54.78 487.31,54.18 488.84,53.35 490.37,52.97 491.90,51.68 493.43,49.75 494.96,47.91 496.49,47.36 498.02,46.41 499.55,44.69 501.08,43.40 502.61,41.50 504.14,40.52 505.67,38.56 507.20,35.96 508.73,33.74" />
    </svg>
  