
    <svg width="540" height="160" xmlns="http://www.w3.org/2000/svg">
      <style>.line{fill:none;stroke:#388bfd;stroke-width:1.5}.axis{stroke:#555;stroke-width:1;opacity:0.5}.label{fill:#999;font-family:sans-serif;font-size:10px;text-anchor:middle}</style>
      <line class="axis" x1="30" y1="30" x2="30" y2="130" />
      <line class="axis" x1="30" y1="130" x2="510" y2="130" />
      <text class="label" x="15" y="30">8,709</text>
      <text class="label" x="15" y="134">0</text>
      <text class="label" x="30" y="148">2021</text>
      <text class="label" x="510" y="148">2026</text>
      <polyline class="line" points="30.00,129.98 31.46,129.97 32.93,129.95 34.39,129.95 35.86,129.95 37.32,129.80 38.78,129.80 40.25,129.80 41.71,128.98 43.18,127.61 44.64,127.54 46.11,127.54 47.57,127.54 49.03,127.54 50.50,127.54 51.96,127.54 53.43,127.54 54.89,127.54 56.35,127.54 57.82,127.54 59.28,127.54 60.75,127.54 62.21,127.54 63.68,127.54 65.14,127.54 66.60,127.54 68.07,127.54 69.53,126.76 71.00,126.76 72.46,126.75 73.92,126.75 75.39,126.75 76.85,126.75 78.32,126.70 79.78,126.70 81.25,126.70 82.71,126.70 84.17,126.70 85.64,126.70 87.10,126.70 88.57,126.70 90.03,126.70 91.49,126.70 92.96,126.70 94.42,126.70 95.89,126.70 97.35,126.70 98.82,126.70 100.28,126.70 101.74,126.70 103.21,126.70 104.67,126.66 106.14,125.96 107.60,125.32 109.06,125.05 110.53,123.78 111.99,123.78 113.46,123.78 114.92,123.78 116.39,123.78 117.85,123.78 119.31,123.78 120.78,123.78 122.24,123.78 123.71,123.78 125.17,123.78 126.63,123.78 128.10,123.68 129.56,123.68 131.03,123.68 132.49,123.57 133.96,123.57 135.42,123.57 136.88,123.57 138.35,123.54 139.81,123.54 141.28,123.54 142.74,123.54 144.20,123.51 145.67,123.51 147.13,123.51 148.60,123.51 150.06,123.51 151.53,123.51 152.99,123.51 154.45,123.51 155.92,123.51 157.38,123.51 158.85,123.51 160.31,123.51 161.77,123.51 163.24,123.51 164.70,123.51 166.17,123.51 167.63,123.51 169.10,123.51 170.56,123.51 172.02,123.51 173.49,123.51 174.95,123.51 176.42,123.51 177.88,123.48 179.34,123.48 180.81,123.48 182.27,123.48 183.74,123.48 185.20,123.48 186.66,123.48 188.13,123.48 189.59,123.48 191.06,123.48 192.52,123.48 193.99,123.48 195.45,123.48 196.91,123.48 198.38,123.48 199.84,123.46 201.31,123.16 202.77,123.08 204.23,122.95 205.70,122.79 207.16,122.74 208.63,122.74 210.09,122.74 211.56,122.49 213.02,122.47 214.48,122.31 215.95,122.25 217.41,122.15 218.88,121.74 220.34,121.72 221.80,121.66 223.27,121.65 224.73,121.59 226.20,121.59 227.66,121.57 229.13,121.57 230.59,121.57 232.05,121.57 233.52,121.57 234.98,121.57 236.45,121.57 237.91,121.45 239.37,121.08 240.84,120.80 242.30,120.72 243.77,120.55 245.23,120.54 246.70,120.52 248.16,120.50 249.62,120.50 251.09,120.50 252.55,120.42 254.02,120.34 255.48,120.32 256.94,120.30 258.41,120.27 259.87,120.01 261.34,119.83 262.80,119.55 264.27,119.38 265.73,119.25 267.19,119.20 268.66,119.13 270.12,119.11 271.59,119.06 273.05,118.89 274.51,118.89 275.98,118.89 277.44,118.87 278.91,118.86 280.37,118.86 281.84,118.77 283.30,118.75 284.76,118.74 286.23,118.72 287.69,118.70 289.16,118.70 290.62,118.70 292.08,118.70 293.55,118.70 295.01,118.70 296.48,118.70 297.94,118.70 299.41,118.67 300.87,118.63 302.33,118.63 303.80,118.43 305.26,118.41 306.73,118.40 308.19,118.37 309.65,118.27 311.12,118.01 312.58,117.97 314.05,117.97 315.51,117.97 316.98,117.97 318.44,117.97 319.90,117.97 321.37,117.97 322.83,117.97 324.30,117.97 325.76,117.97 327.22,117.97 328.69,117.97 330.15,117.97 331.62,117.95 333.08,117.89 334.54,117.87 336.01,117.87 337.47,117.87 338.94,117.87 340.40,117.83 341.87,117.83 343.33,117.64 344.79,117.47 346.26,117.47 347.72,117.47 349.19,117.47 350.65,117.47 352.11,117.45 353.58,117.45 355.04,117.43 356.51,117.35 357.97,117.28 359.44,116.97 360.90,116.96 362.36,116.49 363.83,116.21 365.29,116.00 366.76,115.35 368.22,115.18 369.68,115.11 371.15,114.89 372.61,114.56 374.08,114.48 375.54,114.36 377.01,114.18 378.47,114.02 379.93,113.95 381.40,113.83 382.86,113.75 384.33,113.55 385.79,113.36 387.25,113.14 388.72,112.79 390.18,112.58 391.65,111.56 393.11,110.79 394.58,110.30 396.04,109.87 397.50,109.40 398.97,109.40 400.43,109.40 401.90,109.40 403.36,109.10 404.82,108.93 406.29,108.31 407.75,107.61 409.22,106.79 410.68,105.57 412.15,104.70 413.61,102.94 415.07,101.87 416.54,101.16 418.00,100.01 419.47,99.27 420.93,97.81 422.39,95.61 423.86,94.94 425.32,94.08 426.79,93.26 428.25,92.98 429.72,91.92 431.18,91.74 432.64,90.48 434.11,89.33 435.57,88.64 437.04,87.86 438.50,86.83 439.96,86.55 441.43,86.46 442.89,86.34 444.36,86.28 445.82,85.62 447.29,84.77 448.75,83.74 450.21,83.45 451.68,82.61 453.14,81.53 454.61,79.39 456.07,77.80 457.53,75.85 459.00,75.33 460.46,74.30 461.93,72.38 463.39,71.29 464.86,70.69 466.32,69.86 467.78,69.30 469.25,68.51 470.71,68.14 472.18,67.34 473.64,65.81 475.10,64.13 476.57,63.61 478.03,62.66 479.50,60.91 480.96,60.01 482.43,57.84 483.89,56.81 485.35,54.93 486.82,53.09 488.28,50.87 489.75,47.55 491.21,45.34 492.67,43.45 494.14,42.23 495.60,40.66 497.07,39.24 498.53,38.55 499.99,37.41 501.46,36.02 502.92,35.48 504.39,34.46 505.85,33.58 507.32,32.72 508.78,31.61" />
    </svg>
  