
    <svg width="540" height="160" xmlns="http://www.w3.org/2000/svg">
      <style>.line{fill:none;stroke:#388bfd;stroke-width:1.5}.axis{stroke:#555;stroke-width:1;opacity:0.5}.label{fill:#999;font-family:sans-serif;font-size:10px;text-anchor:middle}</style>
      <line class="axis" x1="30" y1="30" x2="30" y2="130" />
      <line class="axis" x1="30" y1="130" x2="510" y2="130" />
      <text class="label" x="15" y="30">9,237</text>
      <text class="label" x="15" y="134">0</text>
      <text class="label" x="30" y="148">2021</text>
      <text class="label" x="510" y="148">2026</text>
      <polyline class="line" points="30.00,129.98 31.45,129.97 32.90,129.96 34.35,129.96 35.80,129.96 37.25,129.82 38.70,129.82 40.15,129.82 41.60,129.04 43.04,127.75 44.49,127.68 45.94,127.68 47.39,127.68 48.84,127.68 50.29,127.68 51.74,127.68 53.19,127.68 54.64,127.68 56.09,127.68 57.54,127.68 58.99,127.68 60.44,127.68 61.89,127.68 63.34,127.68 64.79,127.68 66.24,127.68 67.68,127.68 69.13,126.95 70.58,126.95 72.03,126.94 73.48,126.94 74.93,126.94 76.38,126.94 77.83,126.89 79.28,126.89 80.73,126.89 82.18,126.89 83.63,126.89 85.08,126.89 86.53,126.89 87.98,126.89 89.43,126.89 90.88,126.89 92.33,126.89 93.77,126.89 95.22,126.89 96.67,126.89 98.12,126.89 99.57,126.89 101.02,126.89 102.47,126.89 103.92,126.85 105.37,126.19 106.82,125.58 108.27,125.33 109.72,124.13 111.17,124.13 112.62,124.13 114.07,124.13 115.52,124.13 116.97,124.13 118.41,124.13 119.86,124.13 121.31,124.13 122.76,124.13 124.21,124.13 125.66,124.13 127.11,124.05 128.56,124.05 130.01,124.05 131.46,123.94 132.91,123.94 134.36,123.94 135.81,123.94 137.26,123.90 138.71,123.90 140.16,123.90 141.61,123.90 143.05,123.88 144.50,123.88 145.95,123.88 147.40,123.88 148.85,123.88 150.30,123.88 151.75,123.88 153.20,123.88 154.65,123.88 156.10,123.88 157.55,123.88 159.00,123.88 160.45,123.88 161.90,123.88 163.35,123.88 164.80,123.88 166.25,123.88 167.70,123.88 169.14,123.88 170.59,123.88 172.04,123.88 173.49,123.88 174.94,123.88 176.39,123.85 177.84,123.85 179.29,123.85 180.74,123.85 182.19,123.85 183.64,123.85 185.09,123.85 186.54,123.85 187.99,123.85 189.44,123.85 190.89,123.85 192.34,123.85 193.78,123.85 195.23,123.85 196.68,123.85 198.13,123.83 199.58,123.55 201.03,123.47 202.48,123.35 203.93,123.20 205.38,123.16 206.83,123.16 208.28,123.16 209.73,122.92 211.18,122.90 212.63,122.75 214.08,122.69 215.53,122.59 216.98,122.22 218.42,122.19 219.87,122.14 221.32,122.13 222.77,122.08 224.22,122.08 225.67,122.05 227.12,122.05 228.57,122.05 230.02,122.05 231.47,122.05 232.92,122.05 234.37,122.05 235.82,121.93 237.27,121.59 238.72,121.33 240.17,121.25 241.62,121.09 243.06,121.08 244.51,121.06 245.96,121.05 247.41,121.05 248.86,121.05 250.31,120.97 251.76,120.90 253.21,120.87 254.66,120.85 256.11,120.83 257.56,120.58 259.01,120.41 260.46,120.15 261.91,119.99 263.36,119.87 264.81,119.81 266.26,119.75 267.71,119.74 269.15,119.68 270.60,119.52 272.05,119.52 273.50,119.52 274.95,119.51 276.40,119.50 277.85,119.50 279.30,119.41 280.75,119.39 282.20,119.38 283.65,119.37 285.10,119.35 286.55,119.35 288.00,119.35 289.45,119.35 290.90,119.35 292.35,119.35 293.79,119.35 295.24,119.35 296.69,119.31 298.14,119.28 299.59,119.28 301.04,119.09 302.49,119.08 303.94,119.07 305.39,119.03 306.84,118.94 308.29,118.70 309.74,118.65 311.19,118.65 312.64,118.65 314.09,118.65 315.54,118.65 316.99,118.65 318.43,118.65 319.88,118.65 321.33,118.65 322.78,118.65 324.23,118.65 325.68,118.65 327.13,118.65 328.58,118.64 330.03,118.58 331.48,118.57 332.93,118.57 334.38,118.57 335.83,118.57 337.28,118.52 338.73,118.52 340.18,118.35 341.63,118.19 343.07,118.19 344.52,118.19 345.97,118.19 347.42,118.19 348.87,118.17 350.32,118.17 351.77,118.15 353.22,118.07 354.67,118.00 356.12,117.71 357.57,117.70 359.02,117.26 360.47,117.00 361.92,116.80 363.37,116.19 364.82,116.02 366.27,115.96 367.72,115.75 369.16,115.44 370.61,115.36 372.06,115.25 373.51,115.08 374.96,114.93 376.41,114.87 377.86,114.76 379.31,114.68 380.76,114.49 382.21,114.31 383.66,114.11 385.11,113.77 386.56,113.58 388.01,112.61 389.46,111.89 390.91,111.42 392.36,111.02 393.80,110.58 395.25,110.58 396.70,110.58 398.15,110.58 399.60,110.30 401.05,110.13 402.50,109.55 403.95,108.89 405.40,108.12 406.85,106.96 408.30,106.15 409.75,104.48 411.20,103.48 412.65,102.81 414.10,101.72 415.55,101.03 417.00,99.65 418.44,97.58 419.89,96.95 421.34,96.14 422.79,95.36 424.24,95.10 425.69,94.10 427.14,93.93 428.59,92.74 430.04,91.65 431.49,91.00 432.94,90.27 434.39,89.29 435.84,89.03 437.29,88.95 438.74,88.84 440.19,88.77 441.64,88.16 443.09,87.36 444.53,86.38 445.98,86.11 447.43,85.32 448.88,84.30 450.33,82.28 451.78,80.78 453.23,78.94 454.68,78.46 456.13,77.48 457.58,75.68 459.03,74.65 460.48,74.08 461.93,73.29 463.38,72.77 464.83,72.03 466.28,71.68 467.73,70.92 469.17,69.48 470.62,67.89 472.07,67.40 473.52,66.51 474.97,64.86 476.42,64.02 477.87,61.97 479.32,60.99 480.77,59.22 482.22,57.49 483.67,55.40 485.12,52.26 486.57,50.18 488.02,48.39 489.47,47.25 490.92,45.76 492.37,44.43 493.81,43.78 495.26,42.70 496.71,41.39 498.16,40.65 499.61,39.53 501.06,38.67 502.51,37.86 503.96,36.64 505.41,34.41 506.86,32.67 508.31,31.17 509.76,30.00" />
    </svg>
  