
    <svg width="540" height="160" xmlns="http://www.w3.org/2000/svg">
      <style>.line{fill:none;stroke:#388bfd;stroke-width:1.5}.axis{stroke:#555;stroke-width:1;opacity:0.5}.label{fill:#999;font-family:sans-serif;font-size:10px;text-anchor:middle}</style>
      <line class="axis" x1="30" y1="30" x2="30" y2="130" />
      <line class="axis" x1="30" y1="130" x2="510" y2="130" />
      <text class="label" x="15" y="30">5,226</text>
      <text class="label" x="15" y="134">0</text>
      <text class="label" x="30" y="148">2021</text>
      <text class="label" x="510" y="148">2026</text>
      <polyline class="line" points="30.00,129.96 31.51,129.94 33.02,129.92 34.54,129.92 36.05,129.92 37.56,129.67 39.07,129.67 40.58,129.67 42.09,128.30 43.61,126.02 45.12,125.91 46.63,125.91 48.14,125.91 49.65,125.91 51.17,125.91 52.68,125.91 54.19,125.91 55.70,125.91 57.21,125.91 58.72,125.91 60.24,125.91 61.75,125.91 63.26,125.91 64.77,125.91 66.28,125.91 67.80,125.91 69.31,125.91 70.82,124.60 72.33,124.60 73.84,124.58 75.35,124.58 76.87,124.58 78.38,124.58 79.89,124.51 81.40,124.51 82.91,124.51 84.43,124.51 85.94,124.51 87.45,124.51 88.96,124.51 90.47,124.51 91.98,124.51 93.50,124.51 95.01,124.51 96.52,124.51 98.03,124.51 99.54,124.51 101.06,124.51 102.57,124.51 104.08,124.51 105.59,124.51 107.10,124.43 108.61,123.26 110.13,122.19 111.64,121.75 113.15,119.63 114.66,119.63 116.17,119.63 117.69,119.63 119.20,119.63 120.71,119.63 122.22,119.63 123.73,119.63 125.24,119.63 126.76,119.63 128.27,119.63 129.78,119.63 131.29,119.48 132.80,119.48 134.31,119.48 135.83,119.28 137.34,119.28 138.85,119.28 140.36,119.28 141.87,119.23 143.39,119.23 144.90,119.23 146.41,119.23 147.92,119.19 149.43,119.19 150.94,119.19 152.46,119.19 153.97,119.19 155.48,119.19 156.99,119.19 158.50,119.19 160.02,119.19 161.53,119.19 163.04,119.19 164.55,119.19 166.06,119.19 167.57,119.19 169.09,119.19 170.60,119.19 172.11,119.19 173.62,119.19 175.13,119.19 176.65,119.19 178.16,119.19 179.67,119.19 181.18,119.19 182.69,119.13 184.20,119.13 185.72,119.13 187.23,119.13 188.74,119.13 190.25,119.13 191.76,119.13 193.28,119.13 194.79,119.13 196.30,119.13 197.81,119.13 199.32,119.13 200.83,119.13 202.35,119.13 203.86,119.13 205.37,119.09 206.88,118.60 208.39,118.46 209.91,118.25 211.42,117.98 212.93,117.91 214.44,117.91 215.95,117.91 217.46,117.49 218.98,117.45 220.49,117.18 222.00,117.08 223.51,116.91 225.02,116.24 226.54,116.20 228.05,116.11 229.56,116.09 231.07,115.99 232.58,115.99 234.09,115.95 235.61,115.95 237.12,115.95 238.63,115.95 240.14,115.95 241.65,115.95 243.17,115.95 244.68,115.74 246.19,115.13 247.70,114.67 249.21,114.54 250.72,114.25 252.24,114.23 253.75,114.19 255.26,114.18 256.77,114.18 258.28,114.18 259.80,114.04 261.31,113.91 262.82,113.87 264.33,113.83 265.84,113.79 267.35,113.35 268.87,113.05 270.38,112.59 271.89,112.30 273.40,112.09 274.91,111.99 276.43,111.88 277.94,111.86 279.45,111.76 280.96,111.48 282.47,111.48 283.98,111.48 285.50,111.46 287.01,111.44 288.52,111.44 290.03,111.29 291.54,111.25 293.06,111.23 294.57,111.21 296.08,111.17 297.59,111.17 299.10,111.17 300.61,111.17 302.13,111.17 303.64,111.17 305.15,111.17 306.66,111.17 308.17,111.11 309.69,111.06 311.20,111.06 312.71,110.71 314.22,110.69 315.73,110.67 317.24,110.62 318.76,110.44 320.27,110.02 321.78,109.95 323.29,109.95 324.80,109.95 326.31,109.95 327.83,109.95 329.34,109.95 330.85,109.95 332.36,109.95 333.87,109.95 335.39,109.95 336.90,109.95 338.41,109.95 339.92,109.95 341.43,109.93 342.94,109.81 344.46,109.79 345.97,109.79 347.48,109.79 348.99,109.79 350.50,109.72 352.02,109.72 353.53,109.41 355.04,109.12 356.55,109.12 358.06,109.12 359.57,109.12 361.09,109.12 362.60,109.09 364.11,109.09 365.62,109.05 367.13,108.91 368.65,108.80 370.16,108.28 371.67,108.26 373.18,107.48 374.69,107.02 376.20,106.67 377.72,105.58 379.23,105.30 380.74,105.18 382.25,104.82 383.76,104.26 385.28,104.13 386.79,103.94 388.30,103.63 389.81,103.36 391.32,103.25 392.83,103.06 394.35,102.92 395.86,102.58 397.37,102.27 398.88,101.91 400.39,101.32 401.91,100.97 403.42,99.27 404.93,97.99 406.44,97.16 407.95,96.46 409.46,95.67 410.98,95.67 412.49,95.67 414.00,95.67 415.51,95.17 417.02,94.89 418.54,94.26 420.05,93.53 421.56,92.53 423.07,90.96 424.58,90.08 426.09,88.48 427.61,87.54 429.12,86.95 430.63,85.97 432.14,85.20 433.65,83.90 435.17,82.01 436.68,81.45 438.19,80.65 439.70,79.96 441.21,79.73 442.72,78.85 444.24,78.70 445.75,77.65 447.26,76.69 448.77,76.12 450.28,75.45 451.80,74.53 453.31,74.26 454.82,74.13 456.33,73.99 457.84,73.88 459.35,73.15 460.87,72.33 462.38,71.03 463.89,70.64 465.40,69.97 466.91,68.88 468.43,66.45 469.94,64.62 471.45,62.57 472.96,62.13 474.47,61.23 475.98,59.41 477.50,58.30 479.01,57.69 480.52,56.77 482.03,56.29 483.54,55.62 485.06,55.32 486.57,54.28 488.08,52.73 489.59,51.26 491.10,50.82 492.61,50.05 494.13,48.68 495.64,47.64 497.15,46.11 498.66,45.33 500.17,43.76 501.69,41.67 503.20,39.89 504.71,36.12 506.22,33.46 507.73,31.63 509.24,30.33" />
    </svg>
  