
    <svg width="540" height="160" xmlns="http://www.w3.org/2000/svg">
      <style>.line{fill:none;stroke:#388bfd;stroke-width:1.5}.axis{stroke:#555;stroke-width:1;opacity:0.5}.label{fill:#999;font-family:sans-serif;font-size:10px;text-anchor:middle}</style>
      <line class="axis" x1="30" y1="30" x2="30" y2="130" />
      <line class="axis" x1="30" y1="130" x2="510" y2="130" />
      <text class="label" x="15" y="30">8,409</text>
      <text class="label" x="15" y="134">0</text>
      <text class="label" x="30" y="148">2021</text>
      <text class="label" x="510" y="148">2026</text>
      <polyline class="line" points="30.00,129.98 31.47,129.96 32.95,129.95 34.42,129.95 35.90,129.95 37.37,129.80 38.85,129.80 40.32,129.80 41.80,128.94 43.27,127.53 44.75,127.46 46.22,127.46 47.70,127.46 49.17,127.46 50.65,127.46 52.12,127.46 53.59,127.46 55.07,127.46 56.54,127.46 58.02,127.46 59.49,127.46 60.97,127.46 62.44,127.46 63.92,127.46 65.39,127.46 66.87,127.46 68.34,127.46 69.82,126.65 71.29,126.65 72.76,126.63 74.24,126.63 75.71,126.63 77.19,126.63 78.66,126.59 80.14,126.59 81.61,126.59 83.09,126.59 84.56,126.59 86.04,126.59 87.51,126.59 88.99,126.59 90.46,126.59 91.94,126.59 93.41,126.59 94.88,126.59 96.36,126.59 97.83,126.59 99.31,126.59 100.78,126.59 102.26,126.59 103.73,126.59 105.21,126.54 106.68,125.81 108.16,125.15 109.63,124.87 111.11,123.55 112.58,123.55 114.06,123.55 115.53,123.55 117.00,123.55 118.48,123.55 119.95,123.55 121.43,123.55 122.90,123.55 124.38,123.55 125.85,123.55 127.33,123.55 128.80,123.46 130.28,123.46 131.75,123.46 133.23,123.34 134.70,123.34 136.18,123.34 137.65,123.34 139.12,123.30 140.60,123.30 142.07,123.30 143.55,123.30 145.02,123.28 146.50,123.28 147.97,123.28 149.45,123.28 150.92,123.28 152.40,123.28 153.87,123.28 155.35,123.28 156.82,123.28 158.29,123.28 159.77,123.28 161.24,123.28 162.72,123.28 164.19,123.28 165.67,123.28 167.14,123.28 168.62,123.28 170.09,123.28 171.57,123.28 173.04,123.28 174.52,123.28 175.99,123.28 177.47,123.28 178.94,123.25 180.41,123.25 181.89,123.25 183.36,123.25 184.84,123.25 186.31,123.25 187.79,123.25 189.26,123.25 190.74,123.25 192.21,123.25 193.69,123.25 195.16,123.25 196.64,123.25 198.11,123.25 199.59,123.25 201.06,123.22 202.53,122.91 204.01,122.83 205.48,122.70 206.96,122.53 208.43,122.48 209.91,122.48 211.38,122.48 212.86,122.22 214.33,122.20 215.81,122.03 217.28,121.97 218.76,121.87 220.23,121.45 221.71,121.43 223.18,121.37 224.65,121.35 226.13,121.30 227.60,121.30 229.08,121.27 230.55,121.27 232.03,121.27 233.50,121.27 234.98,121.27 236.45,121.27 237.93,121.27 239.40,121.14 240.88,120.76 242.35,120.47 243.82,120.39 245.30,120.21 246.77,120.20 248.25,120.18 249.72,120.17 251.20,120.17 252.67,120.17 254.15,120.08 255.62,120.00 257.10,119.98 258.57,119.95 260.05,119.93 261.52,119.65 263.00,119.46 264.47,119.18 265.94,119.00 267.42,118.87 268.89,118.81 270.37,118.74 271.84,118.73 273.32,118.67 274.79,118.49 276.27,118.49 277.74,118.49 279.22,118.48 280.69,118.46 282.17,118.46 283.64,118.37 285.12,118.35 286.59,118.33 288.06,118.32 289.54,118.30 291.01,118.30 292.49,118.30 293.96,118.30 295.44,118.30 296.91,118.30 298.39,118.30 299.86,118.30 301.34,118.26 302.81,118.23 304.29,118.23 305.76,118.01 307.24,118.00 308.71,117.99 310.18,117.95 311.66,117.85 313.13,117.58 314.61,117.54 316.08,117.54 317.56,117.54 319.03,117.54 320.51,117.54 321.98,117.54 323.46,117.54 324.93,117.54 326.41,117.54 327.88,117.54 329.35,117.54 330.83,117.54 332.30,117.54 333.78,117.53 335.25,117.45 336.73,117.44 338.20,117.44 339.68,117.44 341.15,117.44 342.63,117.39 344.10,117.39 345.58,117.20 347.05,117.03 348.53,117.03 350.00,117.03 351.47,117.03 352.95,117.03 354.42,117.00 355.90,117.00 357.37,116.98 358.85,116.89 360.32,116.82 361.80,116.50 363.27,116.49 364.75,116.00 366.22,115.72 367.70,115.50 369.17,114.83 370.65,114.65 372.12,114.58 373.59,114.35 375.07,114.01 376.54,113.92 378.02,113.80 379.49,113.61 380.97,113.45 382.44,113.37 383.92,113.26 385.39,113.17 386.87,112.96 388.34,112.77 389.82,112.54 391.29,112.17 392.76,111.96 394.24,110.90 395.71,110.10 397.19,109.59 398.66,109.15 400.14,108.67 401.61,108.67 403.09,108.67 404.56,108.67 406.04,108.36 407.51,108.18 408.99,107.54 410.46,106.81 411.94,105.97 413.41,104.69 414.88,103.80 416.36,101.97 417.83,100.86 419.31,100.13 420.78,98.94 422.26,98.18 423.73,96.67 425.21,94.38 426.68,93.69 428.16,92.80 429.63,91.95 431.11,91.66 432.58,90.57 434.06,90.38 435.53,89.07 437.00,87.88 438.48,87.16 439.95,86.36 441.43,85.29 442.90,85.00 444.38,84.91 445.85,84.79 447.33,84.72 448.80,84.04 450.28,83.16 451.75,82.09 453.23,81.79 454.70,80.92 456.18,79.80 457.65,77.58 459.12,75.94 460.60,73.92 462.07,73.38 463.55,72.31 465.02,70.33 466.50,69.20 467.97,68.58 469.45,67.71 470.92,67.14 472.40,66.32 473.87,65.94 475.35,65.11 476.82,63.52 478.29,61.78 479.77,61.24 481.24,60.25 482.72,58.45 484.19,57.52 485.67,55.27 487.14,54.20 488.62,52.25 490.09,50.35 491.57,48.05 493.04,44.60 494.52,42.32 495.99,40.36 497.47,39.10 498.94,37.47 500.41,36.01 501.89,35.29 503.36,34.10 504.84,32.66 506.31,32.10 507.79,31.05 509.26,30.14" />
    </svg>
  