
    <svg width="540" height="160" xmlns="http://www.w3.org/2000/svg">
      <style>.line{fill:none;stroke:#388bfd;stroke-width:1.5}.axis{stroke:#555;stroke-width:1;opacity:0.5}.label{fill:#999;font-family:sans-serif;font-size:10px;text-anchor:middle}</style>
      <line class="axis" x1="30" y1="30" x2="30" y2="130" />
      <line class="axis" x1="30" y1="130" x2="510" y2="130" />
      <text class="label" x="15" y="30">4,141</text>
      <text class="label" x="15" y="134">0</text>
      <text class="label" x="30" y="148">2021</text>
      <text class="label" x="510" y="148">2026</text>
      <polyline class="line" points="30.00,129.95 31.53,129.93 33.06,129.90 34.59,129.90 36.12,129.90 37.65,129.59 39.18,129.59 40.71,129.59 42.24,127.85 43.77,124.98 45.30,124.83 46.83,124.83 48.36,124.83 49.89,124.83 51.42,124.83 52.95,124.83 54.48,124.83 56.01,124.83 57.55,124.83 59.08,124.83 60.61,124.83 62.14,124.83 63.67,124.83 65.20,124.83 66.73,124.83 68.26,124.83 69.79,124.83 71.32,123.19 72.85,123.19 74.38,123.17 75.91,123.17 77.44,123.17 78.97,123.17 80.50,123.07 82.03,123.07 83.56,123.07 85.09,123.07 86.62,123.07 88.15,123.07 89.68,123.07 91.21,123.07 92.74,123.07 94.27,123.07 95.80,123.07 97.33,123.07 98.86,123.07 100.39,123.07 101.92,123.07 103.45,123.07 104.98,123.07 106.51,123.07 108.04,122.97 109.57,121.50 111.11,120.15 112.64,119.59 114.17,116.91 115.70,116.91 117.23,116.91 118.76,116.91 120.29,116.91 121.82,116.91 123.35,116.91 124.88,116.91 126.41,116.91 127.94,116.91 129.47,116.91 131.00,116.91 132.53,116.72 134.06,116.72 135.59,116.72 137.12,116.48 138.65,116.48 140.18,116.48 141.71,116.48 143.24,116.40 144.77,116.40 146.30,116.40 147.83,116.40 149.36,116.36 150.89,116.36 152.42,116.36 153.95,116.36 155.48,116.36 157.01,116.36 158.54,116.36 160.07,116.36 161.60,116.36 163.13,116.36 164.67,116.36 166.20,116.36 167.73,116.36 169.26,116.36 170.79,116.36 172.32,116.36 173.85,116.36 175.38,116.36 176.91,116.36 178.44,116.36 179.97,116.36 181.50,116.36 183.03,116.36 184.56,116.28 186.09,116.28 187.62,116.28 189.15,116.28 190.68,116.28 192.21,116.28 193.74,116.28 195.27,116.28 196.80,116.28 198.33,116.28 199.86,116.28 201.39,116.28 202.92,116.28 204.45,116.28 205.98,116.28 207.51,116.24 209.04,115.61 210.57,115.44 212.10,115.17 213.63,114.83 215.16,114.74 216.70,114.74 218.23,114.74 219.76,114.21 221.29,114.16 222.82,113.82 224.35,113.70 225.88,113.48 227.41,112.64 228.94,112.59 230.47,112.47 232.00,112.44 233.53,112.32 235.06,112.32 236.59,112.27 238.12,112.27 239.65,112.27 241.18,112.27 242.71,112.27 244.24,112.27 245.77,112.27 247.30,112.01 248.83,111.24 250.36,110.66 251.89,110.49 253.42,110.13 254.95,110.10 256.48,110.05 258.01,110.03 259.54,110.03 261.07,110.03 262.60,109.86 264.13,109.69 265.66,109.64 267.19,109.59 268.72,109.55 270.26,108.99 271.79,108.60 273.32,108.02 274.85,107.66 276.38,107.40 277.91,107.28 279.44,107.13 280.97,107.11 282.50,106.99 284.03,106.62 285.56,106.62 287.09,106.62 288.62,106.60 290.15,106.58 291.68,106.58 293.21,106.38 294.74,106.33 296.27,106.31 297.80,106.29 299.33,106.24 300.86,106.24 302.39,106.24 303.92,106.24 305.45,106.24 306.98,106.24 308.51,106.24 310.04,106.24 311.57,106.17 313.10,106.09 314.63,106.09 316.16,105.66 317.69,105.63 319.22,105.61 320.75,105.54 322.28,105.32 323.82,104.79 325.35,104.69 326.88,104.69 328.41,104.69 329.94,104.69 331.47,104.69 333.00,104.69 334.53,104.69 336.06,104.69 337.59,104.69 339.12,104.69 340.65,104.69 342.18,104.69 343.71,104.69 345.24,104.67 346.77,104.52 348.30,104.50 349.83,104.50 351.36,104.50 352.89,104.50 354.42,104.40 355.95,104.40 357.48,104.02 359.01,103.65 360.54,103.65 362.07,103.65 363.60,103.65 365.13,103.65 366.66,103.61 368.19,103.61 369.72,103.56 371.25,103.39 372.78,103.24 374.31,102.59 375.84,102.57 377.38,101.58 378.91,101.00 380.44,100.56 381.97,99.19 383.50,98.97 385.03,98.92 386.56,98.92 388.09,98.92 389.62,98.92 391.15,98.87 392.68,98.75 394.21,98.75 395.74,98.75 397.27,98.75 398.80,98.75 400.33,98.75 401.86,98.70 403.39,98.65 404.92,98.65 406.45,98.65 407.98,98.61 409.51,98.61 411.04,98.41 412.57,98.32 414.10,98.32 415.63,98.32 417.16,98.32 418.69,98.32 420.22,98.32 421.75,98.32 423.28,97.79 424.81,97.23 426.34,96.77 427.87,96.14 429.40,95.42 430.94,93.70 432.47,92.64 434.00,91.89 435.53,90.66 437.06,89.70 438.59,88.05 440.12,85.69 441.65,84.99 443.18,83.97 444.71,83.10 446.24,82.81 447.77,81.70 449.30,81.51 450.83,80.18 452.36,78.97 453.89,78.25 455.42,77.40 456.95,76.24 458.48,75.91 460.01,75.74 461.54,75.57 463.07,75.42 464.60,74.51 466.13,73.47 467.66,71.83 469.19,71.34 470.72,70.50 472.25,69.12 473.78,66.05 475.31,63.74 476.84,61.15 478.37,60.60 479.90,59.46 481.43,57.17 482.96,55.77 484.50,54.99 486.03,53.83 487.56,53.23 489.09,52.39 490.62,52.00 492.15,50.70 493.68,48.74 495.21,46.88 496.74,46.32 498.27,45.36 499.80,43.62 501.33,42.32 502.86,40.38 504.39,39.39 505.92,37.41 507.45,34.78 508.98,32.54" />
    </svg>
  