
    <svg width="540" height="160" xmlns="http://www.w3.org/2000/svg">
      <style>.line{fill:none;stroke:#388bfd;stroke-width:1.5}.axis{stroke:#555;stroke-width:1;opacity:0.5}.label{fill:#999;font-family:sans-serif;font-size:10px;text-anchor:middle}</style>
      <line class="axis" x1="30" y1="30" x2="30" y2="130" />
      <line class="axis" x1="30" y1="130" x2="510" y2="130" />
      <text class="label" x="15" y="30">9,546</text>
      <text class="label" x="15" y="134">0</text>
      <text class="label" x="30" y="148">2021</text>
      <text class="label" x="510" y="148">2026</text>
      <polyline class="line" points="30.00,129.98 31.43,129.97 32.85,129.96 34.28,129.96 35.71,129.96 37.13,129.82 38.56,129.82 39.99,129.82 41.41,129.07 42.84,127.82 44.26,127.76 45.69,127.76 47.12,127.76 48.54,127.76 49.97,127.76 51.40,127.76 52.82,127.76 54.25,127.76 55.68,127.76 57.10,127.76 58.53,127.76 59.96,127.76 61.38,127.76 62.81,127.76 64.23,127.76 65.66,127.76 67.09,127.76 68.51,127.05 69.94,127.05 71.37,127.04 72.79,127.04 74.22,127.04 75.65,127.04 77.07,126.99 78.50,126.99 79.93,126.99 81.35,126.99 82.78,126.99 84.21,126.99 85.63,126.99 87.06,126.99 88.48,126.99 89.91,126.99 91.34,126.99 92.76,126.99 94.19,126.99 95.62,126.99 97.04,126.99 98.47,126.99 99.90,126.99 101.32,126.99 102.75,126.95 104.18,126.31 105.60,125.73 107.03,125.49 108.45,124.32 109.88,124.32 111.31,124.32 112.73,124.32 114.16,124.32 115.59,124.32 117.01,124.32 118.44,124.32 119.87,124.32 121.29,124.32 122.72,124.32 124.15,124.32 125.57,124.24 127.00,124.24 128.42,124.24 129.85,124.13 131.28,124.13 132.70,124.13 134.13,124.13 135.56,124.10 136.98,124.10 138.41,124.10 139.84,124.10 141.26,124.08 142.69,124.08 144.12,124.08 145.54,124.08 146.97,124.08 148.40,124.08 149.82,124.08 151.25,124.08 152.67,124.08 154.10,124.08 155.53,124.08 156.95,124.08 158.38,124.08 159.81,124.08 161.23,124.08 162.66,124.08 164.09,124.08 165.51,124.08 166.94,124.08 168.37,124.08 169.79,124.08 171.22,124.08 172.64,124.08 174.07,124.05 175.50,124.05 176.92,124.05 178.35,124.05 179.78,124.05 181.20,124.05 182.63,124.05 184.06,124.05 185.48,124.05 186.91,124.05 188.34,124.05 189.76,124.05 191.19,124.05 192.62,124.05 194.04,124.05 195.47,124.03 196.89,123.76 198.32,123.68 199.75,123.57 201.17,123.42 202.60,123.38 204.03,123.38 205.45,123.38 206.88,123.15 208.31,123.13 209.73,122.98 211.16,122.93 212.59,122.83 214.01,122.47 215.44,122.45 216.86,122.39 218.29,122.38 219.72,122.33 221.14,122.33 222.57,122.31 224.00,122.31 225.42,122.31 226.85,122.31 228.28,122.31 229.70,122.31 231.13,122.31 232.56,122.20 233.98,121.86 235.41,121.61 236.84,121.54 238.26,121.38 239.69,121.37 241.11,121.35 242.54,121.34 243.97,121.34 245.39,121.34 246.82,121.26 248.25,121.19 249.67,121.17 251.10,121.15 252.53,121.13 253.95,120.89 255.38,120.72 256.81,120.47 258.23,120.31 259.66,120.19 261.08,120.14 262.51,120.08 263.94,120.07 265.36,120.02 266.79,119.86 268.22,119.86 269.64,119.86 271.07,119.85 272.50,119.84 273.92,119.84 275.35,119.75 276.78,119.73 278.20,119.72 279.63,119.71 281.05,119.69 282.48,119.69 283.91,119.69 285.33,119.69 286.76,119.69 288.19,119.69 289.61,119.69 291.04,119.69 292.47,119.66 293.89,119.63 295.32,119.63 296.75,119.44 298.17,119.43 299.60,119.42 301.03,119.39 302.45,119.29 303.88,119.06 305.30,119.02 306.73,119.02 308.16,119.02 309.58,119.02 311.01,119.02 312.44,119.02 313.86,119.02 315.29,119.02 316.72,119.02 318.14,119.02 319.57,119.02 321.00,119.02 322.42,119.02 323.85,119.01 325.27,118.95 326.70,118.94 328.13,118.94 329.55,118.94 330.98,118.94 332.41,118.90 333.83,118.90 335.26,118.73 336.69,118.57 338.11,118.57 339.54,118.57 340.97,118.57 342.39,118.57 343.82,118.55 345.25,118.55 346.67,118.53 348.10,118.46 349.52,118.39 350.95,118.11 352.38,118.10 353.80,117.67 355.23,117.42 356.66,117.23 358.08,116.63 359.51,116.48 360.94,116.41 362.36,116.21 363.79,115.91 365.22,115.84 366.64,115.73 368.07,115.56 369.49,115.42 370.92,115.36 372.35,115.25 373.77,115.18 375.20,114.99 376.63,114.82 378.05,114.62 379.48,114.30 380.91,114.11 382.33,113.18 383.76,112.47 385.19,112.02 386.61,111.64 388.04,111.21 389.47,111.21 390.89,111.21 392.32,111.21 393.74,110.93 395.17,110.78 396.60,110.21 398.02,109.57 399.45,108.83 400.88,107.71 402.30,106.92 403.73,105.31 405.16,104.33 406.58,103.69 408.01,102.64 409.44,101.97 410.86,100.64 412.29,98.63 413.71,98.02 415.14,97.23 416.57,96.48 417.99,96.23 419.42,95.26 420.85,95.10 422.27,93.94 423.70,92.90 425.13,92.27 426.55,91.55 427.98,90.61 429.41,90.36 430.83,90.28 432.26,90.17 433.68,90.11 435.11,89.51 436.54,88.74 437.96,87.79 439.39,87.53 440.82,86.77 442.24,85.78 443.67,83.82 445.10,82.38 446.52,80.60 447.95,80.13 449.38,79.18 450.80,77.43 452.23,76.44 453.66,75.89 455.08,75.13 456.51,74.63 457.93,73.90 459.36,73.57 460.79,72.83 462.21,71.44 463.64,69.90 465.07,69.43 466.49,68.56 467.92,66.97 469.35,66.15 470.77,64.17 472.20,63.23 473.63,61.51 475.05,59.83 476.48,57.81 477.90,54.77 479.33,52.76 480.76,51.03 482.18,49.92 483.61,48.49 485.04,47.20 486.46,46.57 487.89,45.52 489.32,44.26 490.74,43.54 492.17,42.46 493.60,41.63 495.02,40.84 496.45,39.66 497.88,37.50 499.30,35.77 500.73,34.32 502.15,33.11 503.58,32.67 505.01,32.11 506.43,31.64 507.86,31.12 509.29,30.39" />
    </svg>
  