
    <svg width="540" height="160" xmlns="http://www.w3.org/2000/svg">
      <style>.line{fill:none;stroke:#388bfd;stroke-width:1.5}.axis{stroke:#555;stroke-width:1;opacity:0.5}.label{fill:#999;font-family:sans-serif;font-size:10px;text-anchor:middle}</style>
      <line class="axis" x1="30" y1="30" x2="30" y2="130" />
      <line class="axis" x1="30" y1="130" x2="510" y2="130" />
      <text class="label" x="15" y="30">7,829</text>
      <text class="label" x="15" y="134">0</text>
      <text class="label" x="30" y="148">2021</text>
      <text class="label" x="510" y="148">2026</text>
      <polyline class="line" points="30.00,129.97 31.49,129.96 32.98,129.95 34.47,129.95 35.96,129.95 37.45,129.78 38.94,129.78 40.43,129.78 41.93,128.86 43.42,127.34 44.91,127.27 46.40,127.27 47.89,127.27 49.38,127.27 50.87,127.27 52.36,127.27 53.85,127.27 55.34,127.27 56.83,127.27 58.32,127.27 59.81,127.27 61.30,127.27 62.80,127.27 64.29,127.27 65.78,127.27 67.27,127.27 68.76,127.27 70.25,126.40 71.74,126.40 73.23,126.39 74.72,126.39 76.21,126.39 77.70,126.39 79.19,126.33 80.68,126.33 82.17,126.33 83.66,126.33 85.16,126.33 86.65,126.33 88.14,126.33 89.63,126.33 91.12,126.33 92.61,126.33 94.10,126.33 95.59,126.33 97.08,126.33 98.57,126.33 100.06,126.33 101.55,126.33 103.04,126.33 104.53,126.33 106.02,126.28 107.52,125.50 109.01,124.79 110.50,124.49 111.99,123.08 113.48,123.08 114.97,123.08 116.46,123.08 117.95,123.08 119.44,123.08 120.93,123.08 122.42,123.08 123.91,123.08 125.40,123.08 126.89,123.08 128.39,123.08 129.88,122.97 131.37,122.97 132.86,122.97 134.35,122.85 135.84,122.85 137.33,122.85 138.82,122.85 140.31,122.81 141.80,122.81 143.29,122.81 144.78,122.81 146.27,122.78 147.76,122.78 149.25,122.78 150.75,122.78 152.24,122.78 153.73,122.78 155.22,122.78 156.71,122.78 158.20,122.78 159.69,122.78 161.18,122.78 162.67,122.78 164.16,122.78 165.65,122.78 167.14,122.78 168.63,122.78 170.12,122.78 171.61,122.78 173.11,122.78 174.60,122.78 176.09,122.78 177.58,122.78 179.07,122.78 180.56,122.74 182.05,122.74 183.54,122.74 185.03,122.74 186.52,122.74 188.01,122.74 189.50,122.74 190.99,122.74 192.48,122.74 193.98,122.74 195.47,122.74 196.96,122.74 198.45,122.74 199.94,122.74 201.43,122.74 202.92,122.72 204.41,122.39 205.90,122.30 207.39,122.16 208.88,121.98 210.37,121.93 211.86,121.93 213.35,121.93 214.84,121.65 216.34,121.62 217.83,121.44 219.32,121.38 220.81,121.26 222.30,120.82 223.79,120.79 225.28,120.73 226.77,120.71 228.26,120.65 229.75,120.65 231.24,120.62 232.73,120.62 234.22,120.62 235.71,120.62 237.20,120.62 238.70,120.62 240.19,120.62 241.68,120.48 243.17,120.08 244.66,119.77 246.15,119.68 247.64,119.49 249.13,119.48 250.62,119.45 252.11,119.44 253.60,119.44 255.09,119.44 256.58,119.35 258.07,119.26 259.57,119.23 261.06,119.21 262.55,119.18 264.04,118.89 265.53,118.68 267.02,118.38 268.51,118.18 270.00,118.04 271.49,117.98 272.98,117.90 274.47,117.89 275.96,117.83 277.45,117.64 278.94,117.64 280.43,117.64 281.93,117.62 283.42,117.61 284.91,117.61 286.40,117.51 287.89,117.48 289.38,117.47 290.87,117.46 292.36,117.43 293.85,117.43 295.34,117.43 296.83,117.43 298.32,117.43 299.81,117.43 301.30,117.43 302.80,117.43 304.29,117.39 305.78,117.35 307.27,117.35 308.76,117.12 310.25,117.11 311.74,117.10 313.23,117.06 314.72,116.95 316.21,116.66 317.70,116.61 319.19,116.61 320.68,116.61 322.17,116.61 323.66,116.61 325.16,116.61 326.65,116.61 328.14,116.61 329.63,116.61 331.12,116.61 332.61,116.61 334.10,116.61 335.59,116.61 337.08,116.60 338.57,116.52 340.06,116.51 341.55,116.51 343.04,116.51 344.53,116.51 346.02,116.46 347.52,116.46 349.01,116.26 350.50,116.06 351.99,116.06 353.48,116.06 354.97,116.06 356.46,116.06 357.95,116.04 359.44,116.04 360.93,116.01 362.42,115.92 363.91,115.85 365.40,115.50 366.89,115.49 368.39,114.97 369.88,114.66 371.37,114.43 372.86,113.70 374.35,113.51 375.84,113.43 377.33,113.19 378.82,112.82 380.31,112.73 381.80,112.60 383.29,112.40 384.78,112.22 386.27,112.14 387.76,112.02 389.25,111.93 390.75,111.70 392.24,111.49 393.73,111.25 395.22,110.85 396.71,110.62 398.20,109.49 399.69,108.63 401.18,108.08 402.67,107.61 404.16,107.09 405.65,107.09 407.14,107.09 408.63,107.09 410.12,106.75 411.61,106.56 413.11,105.87 414.60,105.09 416.09,104.19 417.58,102.82 419.07,101.86 420.56,99.89 422.05,98.71 423.54,97.91 425.03,96.64 426.52,95.82 428.01,94.20 429.50,91.74 430.99,91.00 432.48,90.05 433.98,89.13 435.47,88.82 436.96,87.64 438.45,87.44 439.94,86.04 441.43,84.76 442.92,83.99 444.41,83.12 445.90,81.97 447.39,81.67 448.88,81.56 450.37,81.44 451.86,81.36 453.35,80.63 454.84,79.69 456.34,78.54 457.83,78.22 459.32,77.29 460.81,76.09 462.30,73.70 463.79,71.93 465.28,69.76 466.77,69.19 468.26,68.04 469.75,65.90 471.24,64.69 472.73,64.03 474.22,63.09 475.71,62.48 477.20,61.60 478.70,61.19 480.19,60.30 481.68,58.60 483.17,56.72 484.66,56.15 486.15,55.18 487.64,53.62 489.13,52.70 490.62,50.83 492.11,49.85 493.60,47.93 495.09,45.99 496.58,43.95 498.07,40.49 499.57,38.38 501.06,36.36 502.55,35.24 504.04,33.58 505.53,32.16 507.02,31.67 508.51,30.89 510.00,30.00" />
    </svg>
  