
    <svg width="540" height="160" xmlns="http://www.w3.org/2000/svg">
      <style>.line{fill:none;stroke:#388bfd;stroke-width:1.5}.axis{stroke:#555;stroke-width:1;opacity:0.5}.label{fill:#999;font-family:sans-serif;font-size:10px;text-anchor:middle}</style>
      <line class="axis" x1="30" y1="30" x2="30" y2="130" />
      <line class="axis" x1="30" y1="130" x2="510" y2="130" />
      <text class="label" x="15" y="30">7,803</text>
      <text class="label" x="15" y="134">0</text>
      <text class="label" x="30" y="148">2021</text>
      <text class="label" x="510" y="148">2026</text>
      <polyline class="line" points="30.00,129.97 31.49,129.96 32.98,129.95 34.48,129.95 35.97,129.95 37.46,129.78 38.95,129.78 40.45,129.78 41.94,128.86 43.43,127.33 44.92,127.26 46.41,127.26 47.91,127.26 49.40,127.26 50.89,127.26 52.38,127.26 53.88,127.26 55.37,127.26 56.86,127.26 58.35,127.26 59.84,127.26 61.34,127.26 62.83,127.26 64.32,127.26 65.81,127.26 67.31,127.26 68.80,127.26 70.29,126.39 71.78,126.39 73.27,126.37 74.77,126.37 76.26,126.37 77.75,126.37 79.24,126.32 80.74,126.32 82.23,126.32 83.72,126.32 85.21,126.32 86.70,126.32 88.20,126.32 89.69,126.32 91.18,126.32 92.67,126.32 94.17,126.32 95.66,126.32 97.15,126.32 98.64,126.32 100.13,126.32 101.63,126.32 103.12,126.32 104.61,126.32 106.10,126.27 107.60,125.49 109.09,124.77 110.58,124.48 112.07,123.05 113.56,123.05 115.06,123.05 116.55,123.05 118.04,123.05 119.53,123.05 121.03,123.05 122.52,123.05 124.01,123.05 125.50,123.05 126.99,123.05 128.49,123.05 129.98,122.95 131.47,122.95 132.96,122.95 134.46,122.82 135.95,122.82 137.44,122.82 138.93,122.82 140.42,122.78 141.92,122.78 143.41,122.78 144.90,122.78 146.39,122.76 147.89,122.76 149.38,122.76 150.87,122.76 152.36,122.76 153.85,122.76 155.35,122.76 156.84,122.76 158.33,122.76 159.82,122.76 161.32,122.76 162.81,122.76 164.30,122.76 165.79,122.76 167.28,122.76 168.78,122.76 170.27,122.76 171.76,122.76 173.25,122.76 174.75,122.76 176.24,122.76 177.73,122.76 179.22,122.76 180.72,122.72 182.21,122.72 183.70,122.72 185.19,122.72 186.68,122.72 188.18,122.72 189.67,122.72 191.16,122.72 192.65,122.72 194.15,122.72 195.64,122.72 197.13,122.72 198.62,122.72 200.11,122.72 201.61,122.72 203.10,122.70 204.59,122.36 206.08,122.27 207.58,122.13 209.07,121.95 210.56,121.90 212.05,121.90 213.54,121.90 215.04,121.62 216.53,121.59 218.02,121.41 219.51,121.35 221.01,121.23 222.50,120.79 223.99,120.76 225.48,120.70 226.97,120.68 228.47,120.62 229.96,120.62 231.45,120.59 232.94,120.59 234.44,120.59 235.93,120.59 237.42,120.59 238.91,120.59 240.40,120.59 241.90,120.45 243.39,120.04 244.88,119.73 246.37,119.65 247.87,119.45 249.36,119.44 250.85,119.41 252.34,119.40 253.83,119.40 255.33,119.40 256.82,119.31 258.31,119.22 259.80,119.20 261.30,119.17 262.79,119.15 264.28,118.85 265.77,118.65 267.26,118.34 268.76,118.15 270.25,118.00 271.74,117.94 273.23,117.86 274.73,117.85 276.22,117.79 277.71,117.59 279.20,117.59 280.69,117.59 282.19,117.58 283.68,117.57 285.17,117.57 286.66,117.47 288.16,117.44 289.65,117.43 291.14,117.42 292.63,117.39 294.12,117.39 295.62,117.39 297.11,117.39 298.60,117.39 300.09,117.39 301.59,117.39 303.08,117.39 304.57,117.35 306.06,117.31 307.55,117.31 309.05,117.08 310.54,117.07 312.03,117.06 313.52,117.02 315.02,116.90 316.51,116.62 318.00,116.57 319.49,116.57 320.98,116.57 322.48,116.57 323.97,116.57 325.46,116.57 326.95,116.57 328.45,116.57 329.94,116.57 331.43,116.57 332.92,116.57 334.41,116.57 335.91,116.57 337.40,116.56 338.89,116.48 340.38,116.47 341.88,116.47 343.37,116.47 344.86,116.47 346.35,116.42 347.84,116.42 349.34,116.21 350.83,116.02 352.32,116.02 353.81,116.02 355.31,116.02 356.80,116.02 358.29,115.99 359.78,115.99 361.27,115.97 362.77,115.88 364.26,115.80 365.75,115.45 367.24,115.44 368.74,114.92 370.23,114.61 371.72,114.38 373.21,113.65 374.70,113.46 376.20,113.38 377.69,113.13 379.18,112.76 380.67,112.67 382.17,112.55 383.66,112.34 385.15,112.16 386.64,112.08 388.13,111.96 389.63,111.87 391.12,111.64 392.61,111.43 394.10,111.19 395.60,110.79 397.09,110.56 398.58,109.42 400.07,108.56 401.56,108.01 403.06,107.53 404.55,107.01 406.04,107.01 407.53,107.01 409.03,107.01 410.52,106.68 412.01,106.48 413.50,105.79 414.99,105.01 416.49,104.10 417.98,102.73 419.47,101.77 420.96,99.79 422.46,98.60 423.95,97.81 425.44,96.53 426.93,95.71 428.42,94.08 429.92,91.62 431.41,90.87 432.90,89.91 434.39,88.99 435.89,88.68 437.38,87.50 438.87,87.30 440.36,85.89 441.85,84.61 443.35,83.84 444.84,82.97 446.33,81.81 447.82,81.51 449.32,81.40 450.81,81.28 452.30,81.20 453.79,80.47 455.28,79.52 456.78,78.37 458.27,78.05 459.76,77.11 461.25,75.91 462.75,73.51 464.24,71.74 465.73,69.56 467.22,68.99 468.72,67.83 470.21,65.69 471.70,64.47 473.19,63.81 474.68,62.87 476.18,62.26 477.67,61.37 479.16,60.96 480.65,60.07 482.15,58.36 483.64,56.48 485.13,55.90 486.62,54.93 488.11,53.36 489.61,52.44 491.10,50.57 492.59,49.58 494.08,47.66 495.58,45.71 497.07,43.66 498.56,40.19 500.05,38.07 501.54,36.05 503.04,34.92 504.53,33.26 506.02,31.83 507.51,31.35 509.01,30.56" />
    </svg>
  