
    <svg width="540" height="160" xmlns="http://www.w3.org/2000/svg">
      <style>.line{fill:none;stroke:#388bfd;stroke-width:1.5}.axis{stroke:#555;stroke-width:1;opacity:0.5}.label{fill:#999;font-family:sans-serif;font-size:10px;text-anchor:middle}</style>
      <line class="axis" x1="30" y1="30" x2="30" y2="130" />
      <line class="axis" x1="30" y1="130" x2="510" y2="130" />
      <text class="label" x="15" y="30">7,771</text>
      <text class="label" x="15" y="134">0</text>
      <text class="label" x="30" y="148">2021</text>
      <text class="label" x="510" y="148">2026</text>
      <polyline class="line" points="30.00,129.97 31.49,129.96 32.99,129.95 34.48,129.95 35.98,129.95 37.47,129.78 38.97,129.78 40.46,129.78 41.96,128.85 43.45,127.32 44.95,127.25 46.44,127.25 47.93,127.25 49.43,127.25 50.92,127.25 52.42,127.25 53.91,127.25 55.41,127.25 56.90,127.25 58.40,127.25 59.89,127.25 61.39,127.25 62.88,127.25 64.37,127.25 65.87,127.25 67.36,127.25 68.86,127.25 70.35,126.37 71.85,126.37 73.34,126.36 74.84,126.36 76.33,126.36 77.83,126.36 79.32,126.31 80.81,126.31 82.31,126.31 83.80,126.31 85.30,126.31 86.79,126.31 88.29,126.31 89.78,126.31 91.28,126.31 92.77,126.31 94.27,126.31 95.76,126.31 97.25,126.31 98.75,126.31 100.24,126.31 101.74,126.31 103.23,126.31 104.73,126.31 106.22,126.26 107.72,125.47 109.21,124.75 110.71,124.45 112.20,123.03 113.69,123.03 115.19,123.03 116.68,123.03 118.18,123.03 119.67,123.03 121.17,123.03 122.66,123.03 124.16,123.03 125.65,123.03 127.15,123.03 128.64,123.03 130.13,122.92 131.63,122.92 133.12,122.92 134.62,122.79 136.11,122.79 137.61,122.79 139.10,122.79 140.60,122.76 142.09,122.76 143.59,122.76 145.08,122.76 146.57,122.73 148.07,122.73 149.56,122.73 151.06,122.73 152.55,122.73 154.05,122.73 155.54,122.73 157.04,122.73 158.53,122.73 160.03,122.73 161.52,122.73 163.02,122.73 164.51,122.73 166.00,122.73 167.50,122.73 168.99,122.73 170.49,122.73 171.98,122.73 173.48,122.73 174.97,122.73 176.47,122.73 177.96,122.73 179.46,122.73 180.95,122.69 182.44,122.69 183.94,122.69 185.43,122.69 186.93,122.69 188.42,122.69 189.92,122.69 191.41,122.69 192.91,122.69 194.40,122.69 195.90,122.69 197.39,122.69 198.88,122.69 200.38,122.69 201.87,122.69 203.37,122.67 204.86,122.33 206.36,122.24 207.85,122.10 209.35,121.92 210.84,121.87 212.34,121.87 213.83,121.87 215.32,121.58 216.82,121.56 218.31,121.38 219.81,121.31 221.30,121.20 222.80,120.75 224.29,120.72 225.79,120.66 227.28,120.64 228.78,120.58 230.27,120.58 231.76,120.55 233.26,120.55 234.75,120.55 236.25,120.55 237.74,120.55 239.24,120.55 240.73,120.55 242.23,120.41 243.72,120.00 245.22,119.69 246.71,119.60 248.20,119.41 249.70,119.40 251.19,119.37 252.69,119.36 254.18,119.36 255.68,119.36 257.17,119.27 258.67,119.18 260.16,119.15 261.66,119.13 263.15,119.10 264.64,118.80 266.14,118.60 267.63,118.29 269.13,118.10 270.62,117.96 272.12,117.89 273.61,117.81 275.11,117.80 276.60,117.74 278.10,117.54 279.59,117.54 281.08,117.54 282.58,117.53 284.07,117.52 285.57,117.52 287.06,117.41 288.56,117.39 290.05,117.38 291.55,117.36 293.04,117.34 294.54,117.34 296.03,117.34 297.52,117.34 299.02,117.34 300.51,117.34 302.01,117.34 303.50,117.34 305.00,117.30 306.49,117.26 307.99,117.26 309.48,117.03 310.98,117.02 312.47,117.00 313.96,116.96 315.46,116.85 316.95,116.57 318.45,116.51 319.94,116.51 321.44,116.51 322.93,116.51 324.43,116.51 325.92,116.51 327.42,116.51 328.91,116.51 330.40,116.51 331.90,116.51 333.39,116.51 334.89,116.51 336.38,116.51 337.88,116.50 339.37,116.42 340.87,116.41 342.36,116.41 343.86,116.41 345.35,116.41 346.84,116.36 348.34,116.36 349.83,116.15 351.33,115.96 352.82,115.96 354.32,115.96 355.81,115.96 357.31,115.96 358.80,115.93 360.30,115.93 361.79,115.91 363.28,115.82 364.78,115.74 366.27,115.39 367.77,115.38 369.26,114.85 370.76,114.55 372.25,114.31 373.75,113.58 375.24,113.39 376.74,113.31 378.23,113.07 379.72,112.69 381.22,112.60 382.71,112.47 384.21,112.27 385.70,112.09 387.20,112.01 388.69,111.88 390.19,111.79 391.68,111.56 393.18,111.35 394.67,111.11 396.17,110.71 397.66,110.48 399.15,109.33 400.65,108.47 402.14,107.92 403.64,107.44 405.13,106.91 406.63,106.91 408.12,106.91 409.62,106.91 411.11,106.58 412.61,106.39 414.10,105.69 415.59,104.91 417.09,103.99 418.58,102.62 420.08,101.65 421.57,99.67 423.07,98.47 424.56,97.67 426.06,96.39 427.55,95.56 429.05,93.93 430.54,91.46 432.03,90.71 433.53,89.75 435.02,88.82 436.52,88.51 438.01,87.33 439.51,87.12 441.00,85.71 442.50,84.42 443.99,83.65 445.49,82.77 446.98,81.61 448.47,81.31 449.97,81.20 451.46,81.07 452.96,81.00 454.45,80.26 455.95,79.31 457.44,78.15 458.94,77.83 460.43,76.89 461.93,75.68 463.42,73.28 464.91,71.50 466.41,69.31 467.90,68.73 469.40,67.58 470.89,65.43 472.39,64.20 473.88,63.53 475.38,62.60 476.87,61.98 478.37,61.09 479.86,60.68 481.35,59.78 482.85,58.07 484.34,56.17 485.84,55.60 487.33,54.62 488.83,53.05 490.32,52.12 491.82,50.24 493.31,49.25 494.81,47.32 496.30,45.36 497.79,43.31 499.29,39.82 500.78,37.70 502.28,35.66 503.77,34.53 505.27,32.86 506.76,31.43 508.26,30.94 509.75,30.15" />
    </svg>
  