
    <svg width="540" height="160" xmlns="http://www.w3.org/2000/svg">
      <style>.line{fill:none;stroke:#388bfd;stroke-width:1.5}.axis{stroke:#555;stroke-width:1;opacity:0.5}.label{fill:#999;font-family:sans-serif;font-size:10px;text-anchor:middle}</style>
      <line class="axis" x1="30" y1="30" x2="30" y2="130" />
      <line class="axis" x1="30" y1="130" x2="510" y2="130" />
      <text class="label" x="15" y="30">7,754</text>
      <text class="label" x="15" y="134">0</text>
      <text class="label" x="30" y="148">2021</text>
      <text class="label" x="510" y="148">2026</text>
      <polyline class="line" points="30.00,129.97 31.50,129.96 32.99,129.95 34.49,129.95 35.98,129.95 37.48,129.78 38.97,129.78 40.47,129.78 41.96,128.85 43.46,127.32 44.95,127.24 46.45,127.24 47.94,127.24 49.44,127.24 50.93,127.24 52.43,127.24 53.93,127.24 55.42,127.24 56.92,127.24 58.41,127.24 59.91,127.24 61.40,127.24 62.90,127.24 64.39,127.24 65.89,127.24 67.38,127.24 68.88,127.24 70.37,126.36 71.87,126.36 73.36,126.35 74.86,126.35 76.36,126.35 77.85,126.35 79.35,126.30 80.84,126.30 82.34,126.30 83.83,126.30 85.33,126.30 86.82,126.30 88.32,126.30 89.81,126.30 91.31,126.30 92.80,126.30 94.30,126.30 95.79,126.30 97.29,126.30 98.79,126.30 100.28,126.30 101.78,126.30 103.27,126.30 104.77,126.30 106.26,126.25 107.76,125.46 109.25,124.74 110.75,124.44 112.24,123.01 113.74,123.01 115.23,123.01 116.73,123.01 118.22,123.01 119.72,123.01 121.21,123.01 122.71,123.01 124.21,123.01 125.70,123.01 127.20,123.01 128.69,123.01 130.19,122.91 131.68,122.91 133.18,122.91 134.67,122.78 136.17,122.78 137.66,122.78 139.16,122.78 140.65,122.74 142.15,122.74 143.64,122.74 145.14,122.74 146.64,122.71 148.13,122.71 149.63,122.71 151.12,122.71 152.62,122.71 154.11,122.71 155.61,122.71 157.10,122.71 158.60,122.71 160.09,122.71 161.59,122.71 163.08,122.71 164.58,122.71 166.07,122.71 167.57,122.71 169.07,122.71 170.56,122.71 172.06,122.71 173.55,122.71 175.05,122.71 176.54,122.71 178.04,122.71 179.53,122.71 181.03,122.67 182.52,122.67 184.02,122.67 185.51,122.67 187.01,122.67 188.50,122.67 190.00,122.67 191.50,122.67 192.99,122.67 194.49,122.67 195.98,122.67 197.48,122.67 198.97,122.67 200.47,122.67 201.96,122.67 203.46,122.65 204.95,122.31 206.45,122.22 207.94,122.08 209.44,121.90 210.93,121.85 212.43,121.85 213.93,121.85 215.42,121.57 216.92,121.54 218.41,121.36 219.91,121.29 221.40,121.18 222.90,120.73 224.39,120.70 225.89,120.64 227.38,120.62 228.88,120.56 230.37,120.56 231.87,120.53 233.36,120.53 234.86,120.53 236.36,120.53 237.85,120.53 239.35,120.53 240.84,120.53 242.34,120.39 243.83,119.98 245.33,119.67 246.82,119.58 248.32,119.39 249.81,119.37 251.31,119.35 252.80,119.33 254.30,119.33 255.79,119.33 257.29,119.24 258.79,119.15 260.28,119.13 261.78,119.10 263.27,119.08 264.77,118.78 266.26,118.57 267.76,118.26 269.25,118.07 270.75,117.93 272.24,117.86 273.74,117.79 275.23,117.77 276.73,117.71 278.22,117.52 279.72,117.52 281.21,117.52 282.71,117.50 284.21,117.49 285.70,117.49 287.20,117.39 288.69,117.36 290.19,117.35 291.68,117.34 293.18,117.31 294.67,117.31 296.17,117.31 297.66,117.31 299.16,117.31 300.65,117.31 302.15,117.31 303.64,117.31 305.14,117.27 306.64,117.23 308.13,117.23 309.63,117.00 311.12,116.99 312.62,116.97 314.11,116.94 315.61,116.82 317.10,116.54 318.60,116.48 320.09,116.48 321.59,116.48 323.08,116.48 324.58,116.48 326.07,116.48 327.57,116.48 329.07,116.48 330.56,116.48 332.06,116.48 333.55,116.48 335.05,116.48 336.54,116.48 338.04,116.47 339.53,116.39 341.03,116.38 342.52,116.38 344.02,116.38 345.51,116.38 347.01,116.33 348.50,116.33 350.00,116.12 351.50,115.93 352.99,115.93 354.49,115.93 355.98,115.93 357.48,115.93 358.97,115.90 360.47,115.90 361.96,115.88 363.46,115.79 364.95,115.71 366.45,115.36 367.94,115.35 369.44,114.82 370.93,114.51 372.43,114.28 373.93,113.54 375.42,113.35 376.92,113.27 378.41,113.03 379.91,112.65 381.40,112.56 382.90,112.43 384.39,112.23 385.89,112.05 387.38,111.97 388.88,111.84 390.37,111.75 391.87,111.52 393.36,111.31 394.86,111.07 396.36,110.67 397.85,110.44 399.35,109.29 400.84,108.42 402.34,107.87 403.83,107.39 405.33,106.86 406.82,106.86 408.32,106.86 409.81,106.86 411.31,106.53 412.80,106.33 414.30,105.64 415.79,104.85 417.29,103.94 418.79,102.56 420.28,101.59 421.78,99.60 423.27,98.40 424.77,97.60 426.26,96.31 427.76,95.49 429.25,93.85 430.75,91.37 432.24,90.63 433.74,89.66 435.23,88.73 436.73,88.42 438.22,87.23 439.72,87.03 441.21,85.61 442.71,84.32 444.21,83.55 445.70,82.67 447.20,81.51 448.69,81.20 450.19,81.10 451.68,80.97 453.18,80.89 454.67,80.15 456.17,79.20 457.66,78.04 459.16,77.72 460.65,76.78 462.15,75.56 463.64,73.15 465.14,71.37 466.64,69.18 468.13,68.60 469.63,67.44 471.12,65.29 472.62,64.06 474.11,63.39 475.61,62.45 477.10,61.83 478.60,60.94 480.09,60.53 481.59,59.62 483.08,57.91 484.58,56.01 486.07,55.43 487.57,54.45 489.07,52.88 490.56,51.95 492.06,50.07 493.55,49.07 495.05,47.14 496.54,45.18 498.04,43.12 499.53,39.62 501.03,37.49 502.52,35.46 504.02,34.32 505.51,32.64 507.01,31.21 508.50,30.72 510.00,30.00" />
    </svg>
  