
    <svg width="540" height="160" xmlns="http://www.w3.org/2000/svg">
      <style>.line{fill:none;stroke:#388bfd;stroke-width:1.5}.axis{stroke:#555;stroke-width:1;opacity:0.5}.label{fill:#999;font-family:sans-serif;font-size:10px;text-anchor:middle}</style>
      <line class="axis" x1="30" y1="30" x2="30" y2="130" />
      <line class="axis" x1="30" y1="130" x2="510" y2="130" />
      <text class="label" x="15" y="30">11,501</text>
      <text class="label" x="15" y="134">0</text>
      <text class="label" x="30" y="148">2021</text>
      <text class="label" x="510" y="148">2026</text>
      <polyline class="line" points="30.00,129.98 31.38,129.97 32.77,129.97 34.15,129.97 35.53,129.97 36.91,129.85 38.30,129.85 39.68,129.85 41.06,129.23 42.44,128.19 43.83,128.14 45.21,128.14 46.59,128.14 47.97,128.14 49.36,128.14 50.74,128.14 52.12,128.14 53.50,128.14 54.89,128.14 56.27,128.14 57.65,128.14 59.04,128.14 60.42,128.14 61.80,128.14 63.18,128.14 64.57,128.14 65.95,128.14 67.33,127.55 68.71,127.55 70.10,127.54 71.48,127.54 72.86,127.54 74.24,127.54 75.63,127.50 77.01,127.50 78.39,127.50 79.77,127.50 81.16,127.50 82.54,127.50 83.92,127.50 85.30,127.50 86.69,127.50 88.07,127.50 89.45,127.50 90.84,127.50 92.22,127.50 93.60,127.50 94.98,127.50 96.37,127.50 97.75,127.50 99.13,127.50 100.51,127.47 101.90,126.94 103.28,126.45 104.66,126.25 106.04,125.29 107.43,125.29 108.81,125.29 110.19,125.29 111.57,125.29 112.96,125.29 114.34,125.29 115.72,125.29 117.11,125.29 118.49,125.29 119.87,125.29 121.25,125.29 122.64,125.22 124.02,125.22 125.40,125.22 126.78,125.13 128.17,125.13 129.55,125.13 130.93,125.13 132.31,125.10 133.70,125.10 135.08,125.10 136.46,125.10 137.84,125.09 139.23,125.09 140.61,125.09 141.99,125.09 143.37,125.09 144.76,125.09 146.14,125.09 147.52,125.09 148.91,125.09 150.29,125.09 151.67,125.09 153.05,125.09 154.44,125.09 155.82,125.09 157.20,125.09 158.58,125.09 159.97,125.09 161.35,125.09 162.73,125.09 164.11,125.09 165.50,125.09 166.88,125.09 168.26,125.09 169.64,125.06 171.03,125.06 172.41,125.06 173.79,125.06 175.18,125.06 176.56,125.06 177.94,125.06 179.32,125.06 180.71,125.06 182.09,125.06 183.47,125.06 184.85,125.06 186.24,125.06 187.62,125.06 189.00,125.06 190.38,125.04 191.77,124.82 193.15,124.76 194.53,124.66 195.91,124.54 197.30,124.50 198.68,124.50 200.06,124.50 201.45,124.31 202.83,124.30 204.21,124.17 205.59,124.13 206.98,124.05 208.36,123.75 209.74,123.73 211.12,123.69 212.51,123.68 213.89,123.64 215.27,123.64 216.65,123.62 218.04,123.62 219.42,123.62 220.80,123.62 222.18,123.62 223.57,123.62 224.95,123.62 226.33,123.52 227.71,123.24 229.10,123.04 230.48,122.97 231.86,122.84 233.25,122.84 234.63,122.82 236.01,122.81 237.39,122.81 238.78,122.81 240.16,122.75 241.54,122.69 242.92,122.67 244.31,122.65 245.69,122.64 247.07,122.44 248.45,122.30 249.84,122.09 251.22,121.96 252.60,121.86 253.98,121.82 255.37,121.77 256.75,121.76 258.13,121.71 259.52,121.58 260.90,121.58 262.28,121.58 263.66,121.57 265.05,121.57 266.43,121.57 267.81,121.50 269.19,121.48 270.58,121.47 271.96,121.46 273.34,121.44 274.72,121.44 276.11,121.44 277.49,121.44 278.87,121.44 280.25,121.44 281.64,121.44 283.02,121.44 284.40,121.42 285.78,121.39 287.17,121.39 288.55,121.24 289.93,121.23 291.32,121.22 292.70,121.19 294.08,121.11 295.46,120.92 296.85,120.89 298.23,120.89 299.61,120.89 300.99,120.89 302.38,120.89 303.76,120.89 305.14,120.89 306.52,120.89 307.91,120.89 309.29,120.89 310.67,120.89 312.05,120.89 313.44,120.89 314.82,120.88 316.20,120.83 317.59,120.82 318.97,120.82 320.35,120.82 321.73,120.82 323.12,120.78 324.50,120.78 325.88,120.64 327.26,120.51 328.65,120.51 330.03,120.51 331.41,120.51 332.79,120.51 334.18,120.50 335.56,120.50 336.94,120.48 338.32,120.42 339.71,120.37 341.09,120.13 342.47,120.12 343.86,119.77 345.24,119.56 346.62,119.40 348.00,118.91 349.39,118.77 350.77,118.72 352.15,118.56 353.53,118.31 354.92,118.24 356.30,118.16 357.68,118.02 359.06,117.90 360.45,117.84 361.83,117.76 363.21,117.70 364.59,117.54 365.98,117.40 367.36,117.24 368.74,116.97 370.12,116.81 371.51,116.04 372.89,115.45 374.27,115.08 375.66,114.76 377.04,114.40 378.42,114.40 379.80,114.40 381.19,114.40 382.57,114.18 383.95,114.04 385.33,113.58 386.72,113.04 388.10,112.43 389.48,111.50 390.86,110.85 392.25,109.51 393.63,108.70 395.01,108.16 396.39,107.29 397.78,106.73 399.16,105.63 400.54,103.96 401.93,103.45 403.31,102.80 404.69,102.18 406.07,101.97 407.46,101.17 408.84,101.03 410.22,100.07 411.60,99.20 412.99,98.68 414.37,98.09 415.75,97.31 417.13,97.10 418.52,97.03 419.90,96.94 421.28,96.89 422.66,96.39 424.05,95.75 425.43,94.97 426.81,94.75 428.19,94.12 429.58,93.30 430.96,91.67 432.34,90.47 433.73,88.99 435.11,88.60 436.49,87.82 437.87,86.32 439.26,85.33 440.64,84.75 442.02,83.92 443.40,83.38 444.79,82.60 446.17,82.33 447.55,81.64 448.93,80.10 450.32,78.77 451.70,78.38 453.08,77.66 454.46,76.34 455.85,75.66 457.23,74.01 458.61,73.23 460.00,71.81 461.38,70.41 462.76,68.74 464.14,66.21 465.53,64.54 466.91,63.11 468.29,62.19 469.67,61.00 471.06,59.93 472.44,59.41 473.82,58.54 475.20,57.48 476.59,56.89 477.97,55.83 479.35,54.50 480.73,53.25 482.12,52.15 483.50,50.23 484.88,48.65 486.27,47.26 487.65,46.11 489.03,45.55 490.41,44.59 491.80,43.71 493.18,42.84 494.56,41.43 495.94,40.63 497.33,39.76 498.71,39.14 500.09,39.14 501.47,38.43 502.86,37.72 504.24,37.02 505.62,35.96 507.00,34.90 508.39,33.23 509.77,30.40" />
    </svg>
  