
    <svg width="540" height="160" xmlns="http://www.w3.org/2000/svg">
      <style>.line{fill:none;stroke:#388bfd;stroke-width:1.5}.axis{stroke:#555;stroke-width:1;opacity:0.5}.label{fill:#999;font-family:sans-serif;font-size:10px;text-anchor:middle}</style>
      <line class="axis" x1="30" y1="30" x2="30" y2="130" />
      <line class="axis" x1="30" y1="130" x2="510" y2="130" />
      <text class="label" x="15" y="30">4,985</text>
      <text class="label" x="15" y="134">0</text>
      <text class="label" x="30" y="148">2021</text>
      <text class="label" x="510" y="148">2026</text>
      <polyline class="line" points="30.00,129.96 31.53,129.94 33.05,129.92 34.58,129.92 36.10,129.92 37.63,129.66 39.15,129.66 40.68,129.66 42.20,128.21 43.73,125.83 45.25,125.71 46.78,125.71 48.31,125.71 49.83,125.71 51.36,125.71 52.88,125.71 54.41,125.71 55.93,125.71 57.46,125.71 58.98,125.71 60.51,125.71 62.03,125.71 63.56,125.71 65.08,125.71 66.61,125.71 68.14,125.71 69.66,125.71 71.19,124.34 72.71,124.34 74.24,124.32 75.76,124.32 77.29,124.32 78.81,124.32 80.34,124.24 81.86,124.24 83.39,124.24 84.92,124.24 86.44,124.24 87.97,124.24 89.49,124.24 91.02,124.24 92.54,124.24 94.07,124.24 95.59,124.24 97.12,124.24 98.64,124.24 100.17,124.24 101.69,124.24 103.22,124.24 104.75,124.24 106.27,124.24 107.80,124.16 109.32,122.94 110.85,121.82 112.37,121.35 113.90,119.13 115.42,119.13 116.95,119.13 118.47,119.13 120.00,119.13 121.53,119.13 123.05,119.13 124.58,119.13 126.10,119.13 127.63,119.13 129.15,119.13 130.68,119.13 132.20,118.97 133.73,118.97 135.25,118.97 136.78,118.77 138.31,118.77 139.83,118.77 141.36,118.77 142.88,118.71 144.41,118.71 145.93,118.71 147.46,118.71 148.98,118.67 150.51,118.67 152.03,118.67 153.56,118.67 155.08,118.67 156.61,118.67 158.14,118.67 159.66,118.67 161.19,118.67 162.71,118.67 164.24,118.67 165.76,118.67 167.29,118.67 168.81,118.67 170.34,118.67 171.86,118.67 173.39,118.67 174.92,118.67 176.44,118.67 177.97,118.67 179.49,118.67 181.02,118.67 182.54,118.67 184.07,118.61 185.59,118.61 187.12,118.61 188.64,118.61 190.17,118.61 191.69,118.61 193.22,118.61 194.75,118.61 196.27,118.61 197.80,118.61 199.32,118.61 200.85,118.61 202.37,118.61 203.90,118.61 205.42,118.61 206.95,118.57 208.47,118.04 210.00,117.90 211.53,117.68 213.05,117.40 214.58,117.32 216.10,117.32 217.63,117.32 219.15,116.88 220.68,116.84 222.20,116.56 223.73,116.46 225.25,116.28 226.78,115.58 228.31,115.54 229.83,115.44 231.36,115.42 232.88,115.32 234.41,115.32 235.93,115.28 237.46,115.28 238.98,115.28 240.51,115.28 242.03,115.28 243.56,115.28 245.08,115.28 246.61,115.06 248.14,114.41 249.66,113.93 251.19,113.79 252.71,113.49 254.24,113.47 255.76,113.43 257.29,113.41 258.81,113.41 260.34,113.41 261.86,113.27 263.39,113.13 264.92,113.09 266.44,113.05 267.97,113.01 269.49,112.55 271.02,112.23 272.54,111.75 274.07,111.44 275.59,111.22 277.12,111.12 278.64,111.00 280.17,110.98 281.69,110.88 283.22,110.58 284.75,110.58 286.27,110.58 287.80,110.56 289.32,110.54 290.85,110.54 292.37,110.38 293.90,110.34 295.42,110.32 296.95,110.30 298.47,110.26 300.00,110.26 301.53,110.26 303.05,110.26 304.58,110.26 306.10,110.26 307.63,110.26 309.15,110.26 310.68,110.20 312.20,110.14 313.73,110.14 315.25,109.78 316.78,109.76 318.31,109.74 319.83,109.68 321.36,109.50 322.88,109.06 324.41,108.98 325.93,108.98 327.46,108.98 328.98,108.98 330.51,108.98 332.03,108.98 333.56,108.98 335.08,108.98 336.61,108.98 338.14,108.98 339.66,108.98 341.19,108.98 342.71,108.98 344.24,108.96 345.76,108.84 347.29,108.82 348.81,108.82 350.34,108.82 351.86,108.82 353.39,108.74 354.92,108.74 356.44,108.42 357.97,108.11 359.49,108.11 361.02,108.11 362.54,108.11 364.07,108.11 365.59,108.07 367.12,108.07 368.64,108.03 370.17,107.89 371.69,107.77 373.22,107.23 374.75,107.21 376.27,106.39 377.80,105.91 379.32,105.55 380.85,104.40 382.37,104.10 383.90,103.98 385.42,103.60 386.95,103.02 388.47,102.88 390.00,102.68 391.53,102.36 393.05,102.08 394.58,101.96 396.10,101.76 397.63,101.61 399.15,101.25 400.68,100.93 402.20,100.55 403.73,99.93 405.25,99.57 406.78,97.78 408.31,96.44 409.83,95.58 411.36,94.83 412.88,94.01 414.41,94.01 415.93,94.01 417.46,94.01 418.98,93.49 420.51,93.19 422.03,92.53 423.56,91.77 425.08,90.72 426.61,89.08 428.14,88.15 429.66,86.47 431.19,85.49 432.71,84.86 434.24,83.84 435.76,83.04 437.29,81.68 438.81,79.69 440.34,79.11 441.86,78.26 443.39,77.54 444.92,77.30 446.44,76.38 447.97,76.22 449.49,75.12 451.02,74.11 452.54,73.51 454.07,72.81 455.59,71.85 457.12,71.56 458.64,71.42 460.17,71.28 461.69,71.16 463.22,70.40 464.75,69.54 466.27,68.17 467.80,67.77 469.32,67.07 470.85,65.93 472.37,63.38 473.90,61.45 475.42,59.31 476.95,58.85 478.47,57.90 480.00,56.00 481.53,54.83 483.05,54.19 484.58,53.23 486.10,52.73 487.63,52.03 489.15,51.71 490.68,50.62 492.20,49.00 493.73,47.45 495.25,46.99 496.78,46.19 498.31,44.74 499.83,43.66 501.36,42.06 502.88,41.23 504.41,39.59 505.93,37.40 507.46,35.54 508.98,31.58" />
    </svg>
  