
    <svg width="540" height="160" xmlns="http://www.w3.org/2000/svg">
      <style>.line{fill:none;stroke:#388bfd;stroke-width:1.5}.axis{stroke:#555;stroke-width:1;opacity:0.5}.label{fill:#999;font-family:sans-serif;font-size:10px;text-anchor:middle}</style>
      <line class="axis" x1="30" y1="30" x2="30" y2="130" />
      <line class="axis" x1="30" y1="130" x2="510" y2="130" />
      <text class="label" x="15" y="30">7,759</text>
      <text class="label" x="15" y="134">0</text>
      <text class="label" x="30" y="148">2021</text>
      <text class="label" x="510" y="148">2026</text>
      <polyline class="line" points="30.00,129.97 31.50,129.96 32.99,129.95 34.49,129.95 35.98,129.95 37.48,129.78 38.97,129.78 40.47,129.78 41.96,128.85 43.46,127.32 44.95,127.24 46.45,127.24 47.94,127.24 49.44,127.24 50.93,127.24 52.43,127.24 53.93,127.24 55.42,127.24 56.92,127.24 58.41,127.24 59.91,127.24 61.40,127.24 62.90,127.24 64.39,127.24 65.89,127.24 67.38,127.24 68.88,127.24 70.37,126.37 71.87,126.37 73.36,126.35 74.86,126.35 76.36,126.35 77.85,126.35 79.35,126.30 80.84,126.30 82.34,126.30 83.83,126.30 85.33,126.30 86.82,126.30 88.32,126.30 89.81,126.30 91.31,126.30 92.80,126.30 94.30,126.30 95.79,126.30 97.29,126.30 98.79,126.30 100.28,126.30 101.78,126.30 103.27,126.30 104.77,126.30 106.26,126.25 107.76,125.46 109.25,124.74 110.75,124.45 112.24,123.01 113.74,123.01 115.23,123.01 116.73,123.01 118.22,123.01 119.72,123.01 121.21,123.01 122.71,123.01 124.21,123.01 125.70,123.01 127.20,123.01 128.69,123.01 130.19,122.91 131.68,122.91 133.18,122.91 134.67,122.78 136.17,122.78 137.66,122.78 139.16,122.78 140.65,122.74 142.15,122.74 143.64,122.74 145.14,122.74 146.64,122.72 148.13,122.72 149.63,122.72 151.12,122.72 152.62,122.72 154.11,122.72 155.61,122.72 157.10,122.72 158.60,122.72 160.09,122.72 161.59,122.72 163.08,122.72 164.58,122.72 166.07,122.72 167.57,122.72 169.07,122.72 170.56,122.72 172.06,122.72 173.55,122.72 175.05,122.72 176.54,122.72 178.04,122.72 179.53,122.72 181.03,122.68 182.52,122.68 184.02,122.68 185.51,122.68 187.01,122.68 188.50,122.68 190.00,122.68 191.50,122.68 192.99,122.68 194.49,122.68 195.98,122.68 197.48,122.68 198.97,122.68 200.47,122.68 201.96,122.68 203.46,122.65 204.95,122.32 206.45,122.23 207.94,122.09 209.44,121.91 210.93,121.85 212.43,121.85 213.93,121.85 215.42,121.57 216.92,121.55 218.41,121.36 219.91,121.30 221.40,121.18 222.90,120.73 224.39,120.71 225.89,120.64 227.38,120.63 228.88,120.57 230.37,120.57 231.87,120.54 233.36,120.54 234.86,120.54 236.36,120.54 237.85,120.54 239.35,120.54 240.84,120.54 242.34,120.40 243.83,119.99 245.33,119.68 246.82,119.59 248.32,119.39 249.81,119.38 251.31,119.35 252.80,119.34 254.30,119.34 255.79,119.34 257.29,119.25 258.79,119.16 260.28,119.14 261.78,119.11 263.27,119.08 264.77,118.79 266.26,118.58 267.76,118.27 269.25,118.08 270.75,117.94 272.24,117.87 273.74,117.79 275.23,117.78 276.73,117.72 278.22,117.52 279.72,117.52 281.21,117.52 282.71,117.51 284.21,117.50 285.70,117.50 287.20,117.40 288.69,117.37 290.19,117.36 291.68,117.34 293.18,117.32 294.67,117.32 296.17,117.32 297.66,117.32 299.16,117.32 300.65,117.32 302.15,117.32 303.64,117.32 305.14,117.28 306.64,117.24 308.13,117.24 309.63,117.01 311.12,117.00 312.62,116.98 314.11,116.94 315.61,116.83 317.10,116.54 318.60,116.49 320.09,116.49 321.59,116.49 323.08,116.49 324.58,116.49 326.07,116.49 327.57,116.49 329.07,116.49 330.56,116.49 332.06,116.49 333.55,116.49 335.05,116.49 336.54,116.49 338.04,116.48 339.53,116.40 341.03,116.39 342.52,116.39 344.02,116.39 345.51,116.39 347.01,116.34 348.50,116.34 350.00,116.13 351.50,115.94 352.99,115.94 354.49,115.94 355.98,115.94 357.48,115.94 358.97,115.91 360.47,115.91 361.96,115.89 363.46,115.80 364.95,115.72 366.45,115.37 367.94,115.36 369.44,114.83 370.93,114.52 372.43,114.29 373.93,113.55 375.42,113.36 376.92,113.28 378.41,113.04 379.91,112.67 381.40,112.58 382.90,112.45 384.39,112.24 385.89,112.06 387.38,111.98 388.88,111.85 390.37,111.76 391.87,111.53 393.36,111.32 394.86,111.08 396.36,110.68 397.85,110.45 399.35,109.30 400.84,108.44 402.34,107.88 403.83,107.41 405.33,106.88 406.82,106.88 408.32,106.88 409.81,106.88 411.31,106.54 412.80,106.35 414.30,105.65 415.79,104.87 417.29,103.95 418.79,102.57 420.28,101.61 421.78,99.62 423.27,98.42 424.77,97.62 426.26,96.34 427.76,95.51 429.25,93.87 430.75,91.40 432.24,90.65 433.74,89.69 435.23,88.76 436.73,88.45 438.22,87.26 439.72,87.06 441.21,85.64 442.71,84.35 444.21,83.58 445.70,82.70 447.20,81.54 448.69,81.23 450.19,81.13 451.68,81.00 453.18,80.92 454.67,80.19 456.17,79.23 457.66,78.07 459.16,77.75 460.65,76.81 462.15,75.60 463.64,73.19 465.14,71.41 466.64,69.22 468.13,68.64 469.63,67.48 471.12,65.33 472.62,64.10 474.11,63.43 475.61,62.49 477.10,61.87 478.60,60.98 480.09,60.57 481.59,59.67 483.08,57.95 484.58,56.06 486.07,55.48 487.57,54.50 489.07,52.93 490.56,52.00 492.06,50.12 493.55,49.13 495.05,47.19 496.54,45.23 498.04,43.17 499.53,39.68 501.03,37.55 502.52,35.52 504.02,34.38 505.51,32.71 507.01,31.28 508.50,30.79 510.00,30.00" />
    </svg>
  