
    <svg width="540" height="160" xmlns="http://www.w3.org/2000/svg">
      <style>.line{fill:none;stroke:#388bfd;stroke-width:1.5}.axis{stroke:#555;stroke-width:1;opacity:0.5}.label{fill:#999;font-family:sans-serif;font-size:10px;text-anchor:middle}</style>
      <line class="axis" x1="30" y1="30" x2="30" y2="130" />
      <line class="axis" x1="30" y1="130" x2="510" y2="130" />
      <text class="label" x="15" y="30">7,829</text>
      <text class="label" x="15" y="134">0</text>
      <text class="label" x="30" y="148">2021</text>
      <text class="label" x="510" y="148">2026</text>
      <polyline class="line" points="30.00,129.97 31.49,129.96 32.98,129.95 34.47,129.95 35.96,129.95 37.45,129.78 38.94,129.78 40.43,129.78 41.92,128.86 43.41,127.34 44.90,127.27 46.39,127.27 47.88,127.27 49.37,127.27 50.86,127.27 52.35,127.27 53.84,127.27 55.33,127.27 56.82,127.27 58.31,127.27 59.80,127.27 61.29,127.27 62.78,127.27 64.27,127.27 65.76,127.27 67.25,127.27 68.74,127.27 70.23,126.40 71.72,126.40 73.21,126.39 74.70,126.39 76.19,126.39 77.68,126.39 79.17,126.33 80.66,126.33 82.15,126.33 83.64,126.33 85.13,126.33 86.62,126.33 88.11,126.33 89.60,126.33 91.09,126.33 92.58,126.33 94.07,126.33 95.56,126.33 97.05,126.33 98.54,126.33 100.03,126.33 101.52,126.33 103.01,126.33 104.50,126.33 105.99,126.28 107.48,125.50 108.97,124.79 110.46,124.49 111.95,123.08 113.44,123.08 114.92,123.08 116.41,123.08 117.90,123.08 119.39,123.08 120.88,123.08 122.37,123.08 123.86,123.08 125.35,123.08 126.84,123.08 128.33,123.08 129.82,122.97 131.31,122.97 132.80,122.97 134.29,122.85 135.78,122.85 137.27,122.85 138.76,122.85 140.25,122.81 141.74,122.81 143.23,122.81 144.72,122.81 146.21,122.78 147.70,122.78 149.19,122.78 150.68,122.78 152.17,122.78 153.66,122.78 155.15,122.78 156.64,122.78 158.13,122.78 159.62,122.78 161.11,122.78 162.60,122.78 164.09,122.78 165.58,122.78 167.07,122.78 168.56,122.78 170.05,122.78 171.54,122.78 173.03,122.78 174.52,122.78 176.01,122.78 177.50,122.78 178.99,122.78 180.48,122.74 181.97,122.74 183.46,122.74 184.95,122.74 186.44,122.74 187.93,122.74 189.42,122.74 190.91,122.74 192.40,122.74 193.89,122.74 195.38,122.74 196.87,122.74 198.36,122.74 199.85,122.74 201.34,122.74 202.83,122.72 204.32,122.39 205.81,122.30 207.30,122.16 208.79,121.98 210.28,121.93 211.77,121.93 213.26,121.93 214.75,121.65 216.24,121.62 217.73,121.44 219.22,121.38 220.71,121.26 222.20,120.82 223.69,120.79 225.18,120.73 226.67,120.71 228.16,120.65 229.65,120.65 231.14,120.62 232.63,120.62 234.12,120.62 235.61,120.62 237.10,120.62 238.59,120.62 240.08,120.62 241.57,120.48 243.06,120.08 244.55,119.77 246.04,119.68 247.53,119.49 249.02,119.48 250.51,119.45 252.00,119.44 253.49,119.44 254.98,119.44 256.47,119.35 257.96,119.26 259.45,119.23 260.94,119.21 262.43,119.18 263.92,118.89 265.41,118.68 266.90,118.38 268.39,118.18 269.88,118.04 271.37,117.98 272.86,117.90 274.35,117.89 275.84,117.83 277.33,117.64 278.82,117.64 280.31,117.64 281.80,117.62 283.29,117.61 284.77,117.61 286.26,117.51 287.75,117.48 289.24,117.47 290.73,117.46 292.22,117.43 293.71,117.43 295.20,117.43 296.69,117.43 298.18,117.43 299.67,117.43 301.16,117.43 302.65,117.43 304.14,117.39 305.63,117.35 307.12,117.35 308.61,117.12 310.10,117.11 311.59,117.10 313.08,117.06 314.57,116.95 316.06,116.66 317.55,116.61 319.04,116.61 320.53,116.61 322.02,116.61 323.51,116.61 325.00,116.61 326.49,116.61 327.98,116.61 329.47,116.61 330.96,116.61 332.45,116.61 333.94,116.61 335.43,116.61 336.92,116.60 338.41,116.52 339.90,116.51 341.39,116.51 342.88,116.51 344.37,116.51 345.86,116.46 347.35,116.46 348.84,116.26 350.33,116.06 351.82,116.06 353.31,116.06 354.80,116.06 356.29,116.06 357.78,116.04 359.27,116.04 360.76,116.01 362.25,115.92 363.74,115.85 365.23,115.50 366.72,115.49 368.21,114.97 369.70,114.66 371.19,114.43 372.68,113.70 374.17,113.51 375.66,113.43 377.15,113.19 378.64,112.82 380.13,112.73 381.62,112.60 383.11,112.40 384.60,112.22 386.09,112.14 387.58,112.02 389.07,111.93 390.56,111.70 392.05,111.49 393.54,111.25 395.03,110.85 396.52,110.62 398.01,109.49 399.50,108.63 400.99,108.08 402.48,107.61 403.97,107.09 405.46,107.09 406.95,107.09 408.44,107.09 409.93,106.75 411.42,106.56 412.91,105.87 414.40,105.09 415.89,104.19 417.38,102.82 418.87,101.86 420.36,99.89 421.85,98.71 423.34,97.91 424.83,96.64 426.32,95.82 427.81,94.20 429.30,91.74 430.79,91.00 432.28,90.05 433.77,89.13 435.26,88.82 436.75,87.64 438.24,87.44 439.73,86.04 441.22,84.76 442.71,83.99 444.20,83.12 445.69,81.97 447.18,81.67 448.67,81.56 450.16,81.44 451.65,81.36 453.14,80.63 454.62,79.69 456.11,78.54 457.60,78.22 459.09,77.29 460.58,76.09 462.07,73.70 463.56,71.93 465.05,69.76 466.54,69.19 468.03,68.04 469.52,65.90 471.01,64.69 472.50,64.03 473.99,63.09 475.48,62.48 476.97,61.60 478.46,61.19 479.95,60.30 481.44,58.60 482.93,56.72 484.42,56.15 485.91,55.18 487.40,53.62 488.89,52.70 490.38,50.83 491.87,49.85 493.36,47.93 494.85,45.99 496.34,43.95 497.83,40.49 499.32,38.38 500.81,36.36 502.30,35.24 503.79,33.58 505.28,32.16 506.77,31.67 508.26,30.89 509.75,30.00" />
    </svg>
  