
    <svg width="540" height="160" xmlns="http://www.w3.org/2000/svg">
      <style>.line{fill:none;stroke:#388bfd;stroke-width:1.5}.axis{stroke:#555;stroke-width:1;opacity:0.5}.label{fill:#999;font-family:sans-serif;font-size:10px;text-anchor:middle}</style>
      <line class="axis" x1="30" y1="30" x2="30" y2="130" />
      <line class="axis" x1="30" y1="130" x2="510" y2="130" />
      <text class="label" x="15" y="30">7,432</text>
      <text class="label" x="15" y="134">0</text>
      <text class="label" x="30" y="148">2021</text>
      <text class="label" x="510" y="148">2026</text>
      <polyline class="line" points="30.00,129.97 31.50,129.96 33.01,129.95 34.51,129.95 36.02,129.95 37.52,129.77 39.03,129.77 40.53,129.77 42.04,128.80 43.54,127.20 45.05,127.12 46.55,127.12 48.06,127.12 49.56,127.12 51.07,127.12 52.57,127.12 54.08,127.12 55.58,127.12 57.08,127.12 58.59,127.12 60.09,127.12 61.60,127.12 63.10,127.12 64.61,127.12 66.11,127.12 67.62,127.12 69.12,127.12 70.63,126.21 72.13,126.21 73.64,126.19 75.14,126.19 76.65,126.19 78.15,126.19 79.66,126.14 81.16,126.14 82.66,126.14 84.17,126.14 85.67,126.14 87.18,126.14 88.68,126.14 90.19,126.14 91.69,126.14 93.20,126.14 94.70,126.14 96.21,126.14 97.71,126.14 99.22,126.14 100.72,126.14 102.23,126.14 103.73,126.14 105.24,126.14 106.74,126.08 108.24,125.26 109.75,124.51 111.25,124.20 112.76,122.71 114.26,122.71 115.77,122.71 117.27,122.71 118.78,122.71 120.28,122.71 121.79,122.71 123.29,122.71 124.80,122.71 126.30,122.71 127.81,122.71 129.31,122.71 130.82,122.60 132.32,122.60 133.82,122.60 135.33,122.47 136.83,122.47 138.34,122.47 139.84,122.47 141.35,122.42 142.85,122.42 144.36,122.42 145.86,122.42 147.37,122.40 148.87,122.40 150.38,122.40 151.88,122.40 153.39,122.40 154.89,122.40 156.39,122.40 157.90,122.40 159.40,122.40 160.91,122.40 162.41,122.40 163.92,122.40 165.42,122.40 166.93,122.40 168.43,122.40 169.94,122.40 171.44,122.40 172.95,122.40 174.45,122.40 175.96,122.40 177.46,122.40 178.97,122.40 180.47,122.40 181.97,122.36 183.48,122.36 184.98,122.36 186.49,122.36 187.99,122.36 189.50,122.36 191.00,122.36 192.51,122.36 194.01,122.36 195.52,122.36 197.02,122.36 198.53,122.36 200.03,122.36 201.54,122.36 203.04,122.36 204.55,122.33 206.05,121.98 207.55,121.89 209.06,121.74 210.56,121.55 212.07,121.50 213.57,121.50 215.08,121.50 216.58,121.20 218.09,121.17 219.59,120.98 221.10,120.92 222.60,120.80 224.11,120.33 225.61,120.30 227.12,120.23 228.62,120.22 230.13,120.15 231.63,120.15 233.13,120.12 234.64,120.12 236.14,120.12 237.65,120.12 239.15,120.12 240.66,120.12 242.16,120.12 243.67,119.98 245.17,119.55 246.68,119.22 248.18,119.13 249.69,118.93 251.19,118.91 252.70,118.89 254.20,118.87 255.71,118.87 257.21,118.87 258.71,118.78 260.22,118.68 261.72,118.66 263.23,118.63 264.73,118.60 266.24,118.29 267.74,118.08 269.25,117.76 270.75,117.55 272.26,117.41 273.76,117.34 275.27,117.26 276.77,117.24 278.28,117.18 279.78,116.98 281.29,116.98 282.79,116.98 284.29,116.96 285.80,116.95 287.30,116.95 288.81,116.84 290.31,116.81 291.82,116.80 293.32,116.79 294.83,116.76 296.33,116.76 297.84,116.76 299.34,116.76 300.85,116.76 302.35,116.76 303.86,116.76 305.36,116.76 306.87,116.72 308.37,116.68 309.87,116.68 311.38,116.44 312.88,116.42 314.39,116.41 315.89,116.37 317.40,116.25 318.90,115.95 320.41,115.90 321.91,115.90 323.42,115.90 324.92,115.90 326.43,115.90 327.93,115.90 329.44,115.90 330.94,115.90 332.45,115.90 333.95,115.90 335.45,115.90 336.96,115.90 338.46,115.90 339.97,115.89 341.47,115.80 342.98,115.79 344.48,115.79 345.99,115.79 347.49,115.79 349.00,115.74 350.50,115.74 352.01,115.52 353.51,115.32 355.02,115.32 356.52,115.32 358.03,115.32 359.53,115.32 361.03,115.29 362.54,115.29 364.04,115.27 365.55,115.17 367.05,115.09 368.56,114.73 370.06,114.71 371.57,114.16 373.07,113.84 374.58,113.60 376.08,112.83 377.59,112.63 379.09,112.55 380.60,112.29 382.10,111.90 383.61,111.81 385.11,111.67 386.61,111.46 388.12,111.27 389.62,111.19 391.13,111.05 392.63,110.96 394.14,110.72 395.64,110.50 397.15,110.25 398.65,109.83 400.16,109.59 401.66,108.39 403.17,107.49 404.67,106.91 406.18,106.41 407.68,105.86 409.18,105.86 410.69,105.86 412.19,105.86 413.70,105.51 415.20,105.31 416.71,104.58 418.21,103.76 419.72,102.81 421.22,101.37 422.73,100.36 424.23,98.29 425.74,97.03 427.24,96.20 428.75,94.85 430.25,93.99 431.76,92.28 433.26,89.70 434.76,88.92 436.27,87.91 437.77,86.94 439.28,86.62 440.78,85.38 442.29,85.17 443.79,83.69 445.30,82.34 446.80,81.53 448.31,80.62 449.81,79.41 451.32,79.09 452.82,78.98 454.33,78.84 455.83,78.76 457.34,78.00 458.84,77.00 460.34,75.79 461.85,75.45 463.35,74.47 464.86,73.21 466.36,70.69 467.87,68.83 469.37,66.54 470.88,65.94 472.38,64.73 473.89,62.48 475.39,61.20 476.90,60.50 478.40,59.52 479.91,58.88 481.41,57.95 482.92,57.52 484.42,56.57 485.92,54.78 487.43,52.81 488.93,52.20 490.44,51.27 491.94,50.03 493.45,49.15 494.95,47.76 496.46,46.90 497.96,45.07 499.47,43.13 500.97,41.42 502.48,38.03 503.98,35.93 505.49,33.90 506.99,32.77 508.50,31.12 510.00,30.00" />
    </svg>
  