
    <svg width="540" height="160" xmlns="http://www.w3.org/2000/svg">
      <style>.line{fill:none;stroke:#388bfd;stroke-width:1.5}.axis{stroke:#555;stroke-width:1;opacity:0.5}.label{fill:#999;font-family:sans-serif;font-size:10px;text-anchor:middle}</style>
      <line class="axis" x1="30" y1="30" x2="30" y2="130" />
      <line class="axis" x1="30" y1="130" x2="510" y2="130" />
      <text class="label" x="15" y="30">9,478</text>
      <text class="label" x="15" y="134">0</text>
      <text class="label" x="30" y="148">2021</text>
      <text class="label" x="510" y="148">2026</text>
      <polyline class="line" points="30.00,129.98 31.43,129.97 32.86,129.96 34.29,129.96 35.72,129.96 37.15,129.82 38.58,129.82 40.01,129.82 41.45,129.06 42.88,127.81 44.31,127.74 45.74,127.74 47.17,127.74 48.60,127.74 50.03,127.74 51.46,127.74 52.89,127.74 54.32,127.74 55.75,127.74 57.18,127.74 58.61,127.74 60.04,127.74 61.48,127.74 62.91,127.74 64.34,127.74 65.77,127.74 67.20,127.74 68.63,127.02 70.06,127.02 71.49,127.01 72.92,127.01 74.35,127.01 75.78,127.01 77.21,126.97 78.64,126.97 80.07,126.97 81.51,126.97 82.94,126.97 84.37,126.97 85.80,126.97 87.23,126.97 88.66,126.97 90.09,126.97 91.52,126.97 92.95,126.97 94.38,126.97 95.81,126.97 97.24,126.97 98.67,126.97 100.10,126.97 101.54,126.97 102.97,126.93 104.40,126.29 105.83,125.70 107.26,125.45 108.69,124.28 110.12,124.28 111.55,124.28 112.98,124.28 114.41,124.28 115.84,124.28 117.27,124.28 118.70,124.28 120.13,124.28 121.56,124.28 123.00,124.28 124.43,124.28 125.86,124.20 127.29,124.20 128.72,124.20 130.15,124.09 131.58,124.09 133.01,124.09 134.44,124.09 135.87,124.06 137.30,124.06 138.73,124.06 140.16,124.06 141.59,124.04 143.03,124.04 144.46,124.04 145.89,124.04 147.32,124.04 148.75,124.04 150.18,124.04 151.61,124.04 153.04,124.04 154.47,124.04 155.90,124.04 157.33,124.04 158.76,124.04 160.19,124.04 161.62,124.04 163.06,124.04 164.49,124.04 165.92,124.04 167.35,124.04 168.78,124.04 170.21,124.04 171.64,124.04 173.07,124.04 174.50,124.01 175.93,124.01 177.36,124.01 178.79,124.01 180.22,124.01 181.65,124.01 183.08,124.01 184.52,124.01 185.95,124.01 187.38,124.01 188.81,124.01 190.24,124.01 191.67,124.01 193.10,124.01 194.53,124.01 195.96,123.99 197.39,123.71 198.82,123.64 200.25,123.52 201.68,123.37 203.11,123.33 204.55,123.33 205.98,123.33 207.41,123.10 208.84,123.08 210.27,122.93 211.70,122.88 213.13,122.78 214.56,122.41 215.99,122.39 217.42,122.34 218.85,122.33 220.28,122.28 221.71,122.28 223.14,122.26 224.58,122.26 226.01,122.26 227.44,122.26 228.87,122.26 230.30,122.26 231.73,122.26 233.16,122.14 234.59,121.80 236.02,121.55 237.45,121.47 238.88,121.32 240.31,121.31 241.74,121.29 243.17,121.27 244.61,121.27 246.04,121.27 247.47,121.20 248.90,121.13 250.33,121.11 251.76,121.08 253.19,121.06 254.62,120.82 256.05,120.65 257.48,120.40 258.91,120.24 260.34,120.12 261.77,120.07 263.20,120.01 264.63,120.00 266.07,119.95 267.50,119.79 268.93,119.79 270.36,119.79 271.79,119.78 273.22,119.77 274.65,119.77 276.08,119.68 277.51,119.66 278.94,119.65 280.37,119.64 281.80,119.62 283.23,119.62 284.66,119.62 286.10,119.62 287.53,119.62 288.96,119.62 290.39,119.62 291.82,119.62 293.25,119.59 294.68,119.55 296.11,119.55 297.54,119.36 298.97,119.35 300.40,119.34 301.83,119.31 303.26,119.22 304.69,118.99 306.13,118.94 307.56,118.94 308.99,118.94 310.42,118.94 311.85,118.94 313.28,118.94 314.71,118.94 316.14,118.94 317.57,118.94 319.00,118.94 320.43,118.94 321.86,118.94 323.29,118.94 324.72,118.93 326.15,118.87 327.59,118.86 329.02,118.86 330.45,118.86 331.88,118.86 333.31,118.82 334.74,118.82 336.17,118.65 337.60,118.49 339.03,118.49 340.46,118.49 341.89,118.49 343.32,118.49 344.75,118.47 346.18,118.47 347.62,118.45 349.05,118.37 350.48,118.31 351.91,118.02 353.34,118.01 354.77,117.58 356.20,117.33 357.63,117.14 359.06,116.54 360.49,116.38 361.92,116.32 363.35,116.12 364.78,115.81 366.21,115.74 367.65,115.63 369.08,115.46 370.51,115.31 371.94,115.25 373.37,115.14 374.80,115.07 376.23,114.88 377.66,114.71 379.09,114.51 380.52,114.18 381.95,113.99 383.38,113.06 384.81,112.35 386.24,111.89 387.68,111.50 389.11,111.07 390.54,111.07 391.97,111.07 393.40,111.07 394.83,110.80 396.26,110.64 397.69,110.07 399.12,109.43 400.55,108.68 401.98,107.55 403.41,106.76 404.84,105.13 406.27,104.15 407.70,103.50 409.14,102.44 410.57,101.77 412.00,100.43 413.43,98.40 414.86,97.79 416.29,97.00 417.72,96.24 419.15,95.98 420.58,95.01 422.01,94.84 423.44,93.68 424.87,92.63 426.30,92.00 427.73,91.28 429.17,90.33 430.60,90.08 432.03,89.99 433.46,89.89 434.89,89.82 436.32,89.22 437.75,88.44 439.18,87.49 440.61,87.23 442.04,86.46 443.47,85.47 444.90,83.49 446.33,82.04 447.76,80.24 449.20,79.77 450.63,78.82 452.06,77.06 453.49,76.05 454.92,75.51 456.35,74.74 457.78,74.23 459.21,73.50 460.64,73.16 462.07,72.42 463.50,71.02 464.93,69.47 466.36,69.00 467.79,68.12 469.23,66.52 470.66,65.69 472.09,63.70 473.52,62.75 474.95,61.02 476.38,59.33 477.81,57.29 479.24,54.24 480.67,52.21 482.10,50.47 483.53,49.35 484.96,47.90 486.39,46.61 487.82,45.97 489.25,44.92 490.69,43.64 492.12,42.92 493.55,41.83 494.98,40.99 496.41,40.20 497.84,39.01 499.27,36.84 500.70,35.10 502.13,33.63 503.56,32.42 504.99,31.97 506.42,31.40 507.85,30.94 509.28,30.41" />
    </svg>
  