
    <svg width="540" height="160" xmlns="http://www.w3.org/2000/svg">
      <style>.line{fill:none;stroke:#388bfd;stroke-width:1.5}.axis{stroke:#555;stroke-width:1;opacity:0.5}.label{fill:#999;font-family:sans-serif;font-size:10px;text-anchor:middle}</style>
      <line class="axis" x1="30" y1="30" x2="30" y2="130" />
      <line class="axis" x1="30" y1="130" x2="510" y2="130" />
      <text class="label" x="15" y="30">4,192</text>
      <text class="label" x="15" y="134">0</text>
      <text class="label" x="30" y="148">2021</text>
      <text class="label" x="510" y="148">2026</text>
      <polyline class="line" points="30.00,129.95 31.53,129.93 33.06,129.90 34.59,129.90 36.12,129.90 37.65,129.59 39.18,129.59 40.71,129.59 42.24,127.88 43.77,125.04 45.29,124.90 46.82,124.90 48.35,124.90 49.88,124.90 51.41,124.90 52.94,124.90 54.47,124.90 56.00,124.90 57.53,124.90 59.06,124.90 60.59,124.90 62.12,124.90 63.65,124.90 65.18,124.90 66.71,124.90 68.24,124.90 69.77,124.90 71.30,123.27 72.83,123.27 74.35,123.25 75.88,123.25 77.41,123.25 78.94,123.25 80.47,123.15 82.00,123.15 83.53,123.15 85.06,123.15 86.59,123.15 88.12,123.15 89.65,123.15 91.18,123.15 92.71,123.15 94.24,123.15 95.77,123.15 97.30,123.15 98.83,123.15 100.36,123.15 101.89,123.15 103.41,123.15 104.94,123.15 106.47,123.15 108.00,123.06 109.53,121.60 111.06,120.27 112.59,119.72 114.12,117.07 115.65,117.07 117.18,117.07 118.71,117.07 120.24,117.07 121.77,117.07 123.30,117.07 124.83,117.07 126.36,117.07 127.89,117.07 129.42,117.07 130.95,117.07 132.47,116.88 134.00,116.88 135.53,116.88 137.06,116.64 138.59,116.64 140.12,116.64 141.65,116.64 143.18,116.57 144.71,116.57 146.24,116.57 147.77,116.57 149.30,116.52 150.83,116.52 152.36,116.52 153.89,116.52 155.42,116.52 156.95,116.52 158.48,116.52 160.01,116.52 161.53,116.52 163.06,116.52 164.59,116.52 166.12,116.52 167.65,116.52 169.18,116.52 170.71,116.52 172.24,116.52 173.77,116.52 175.30,116.52 176.83,116.52 178.36,116.52 179.89,116.52 181.42,116.52 182.95,116.52 184.48,116.45 186.01,116.45 187.54,116.45 189.07,116.45 190.59,116.45 192.12,116.45 193.65,116.45 195.18,116.45 196.71,116.45 198.24,116.45 199.77,116.45 201.30,116.45 202.83,116.45 204.36,116.45 205.89,116.45 207.42,116.40 208.95,115.78 210.48,115.62 212.01,115.35 213.54,115.02 215.07,114.92 216.60,114.92 218.13,114.92 219.65,114.40 221.18,114.35 222.71,114.02 224.24,113.90 225.77,113.68 227.30,112.85 228.83,112.80 230.36,112.68 231.89,112.66 233.42,112.54 234.95,112.54 236.48,112.49 238.01,112.49 239.54,112.49 241.07,112.49 242.60,112.49 244.13,112.49 245.66,112.49 247.19,112.23 248.71,111.46 250.24,110.89 251.77,110.73 253.30,110.37 254.83,110.34 256.36,110.30 257.89,110.27 259.42,110.27 260.95,110.27 262.48,110.10 264.01,109.94 265.54,109.89 267.07,109.84 268.60,109.79 270.13,109.25 271.66,108.86 273.19,108.29 274.72,107.93 276.25,107.67 277.77,107.55 279.30,107.41 280.83,107.39 282.36,107.27 283.89,106.91 285.42,106.91 286.95,106.91 288.48,106.88 290.01,106.86 291.54,106.86 293.07,106.67 294.60,106.62 296.13,106.60 297.66,106.57 299.19,106.53 300.72,106.53 302.25,106.53 303.78,106.53 305.31,106.53 306.83,106.53 308.36,106.53 309.89,106.53 311.42,106.46 312.95,106.38 314.48,106.38 316.01,105.95 317.54,105.93 319.07,105.91 320.60,105.83 322.13,105.62 323.66,105.10 325.19,105.00 326.72,105.00 328.25,105.00 329.78,105.00 331.31,105.00 332.84,105.00 334.37,105.00 335.89,105.00 337.42,105.00 338.95,105.00 340.48,105.00 342.01,105.00 343.54,105.00 345.07,104.98 346.60,104.83 348.13,104.81 349.66,104.81 351.19,104.81 352.72,104.81 354.25,104.71 355.78,104.71 357.31,104.33 358.84,103.97 360.37,103.97 361.90,103.97 363.43,103.97 364.95,103.97 366.48,103.93 368.01,103.93 369.54,103.88 371.07,103.71 372.60,103.57 374.13,102.92 375.66,102.90 377.19,101.92 378.72,101.35 380.25,100.92 381.78,99.56 383.31,99.35 384.84,99.30 386.37,99.30 387.90,99.30 389.43,99.30 390.96,99.25 392.49,99.13 394.01,99.13 395.54,99.13 397.07,99.13 398.60,99.13 400.13,99.13 401.66,99.08 403.19,99.04 404.72,99.04 406.25,99.04 407.78,98.99 409.31,98.99 410.84,98.80 412.37,98.70 413.90,98.70 415.43,98.70 416.96,98.70 418.49,98.70 420.02,98.70 421.55,98.70 423.07,98.18 424.60,97.63 426.13,97.18 427.66,96.56 429.19,95.84 430.72,94.15 432.25,93.10 433.78,92.36 435.31,91.14 436.84,90.19 438.37,88.56 439.90,86.23 441.43,85.53 442.96,84.53 444.49,83.67 446.02,83.39 447.55,82.29 449.08,82.10 450.61,80.79 452.13,79.59 453.66,78.88 455.19,78.04 456.72,76.90 458.25,76.56 459.78,76.40 461.31,76.23 462.84,76.09 464.37,75.18 465.90,74.16 467.43,72.53 468.96,72.06 470.49,71.22 472.02,69.86 473.55,66.83 475.08,64.54 476.61,61.99 478.14,61.44 479.67,60.32 481.19,58.05 482.72,56.67 484.25,55.91 485.78,54.76 487.31,54.17 488.84,53.33 490.37,52.95 491.90,51.66 493.43,49.73 494.96,47.89 496.49,47.34 498.02,46.39 499.55,44.67 501.08,43.38 502.61,41.47 504.14,40.50 505.67,38.54 507.20,35.94 508.73,33.72" />
    </svg>
  