
    <svg width="540" height="160" xmlns="http://www.w3.org/2000/svg">
      <style>.line{fill:none;stroke:#388bfd;stroke-width:1.5}.axis{stroke:#555;stroke-width:1;opacity:0.5}.label{fill:#999;font-family:sans-serif;font-size:10px;text-anchor:middle}</style>
      <line class="axis" x1="30" y1="30" x2="30" y2="130" />
      <line class="axis" x1="30" y1="130" x2="510" y2="130" />
      <text class="label" x="15" y="30">9,282</text>
      <text class="label" x="15" y="134">0</text>
      <text class="label" x="30" y="148">2021</text>
      <text class="label" x="510" y="148">2026</text>
      <polyline class="line" points="30.00,129.98 31.45,129.97 32.89,129.96 34.34,129.96 35.78,129.96 37.23,129.82 38.67,129.82 40.12,129.82 41.57,129.04 43.01,127.76 44.46,127.69 45.90,127.69 47.35,127.69 48.80,127.69 50.24,127.69 51.69,127.69 53.13,127.69 54.58,127.69 56.02,127.69 57.47,127.69 58.92,127.69 60.36,127.69 61.81,127.69 63.25,127.69 64.70,127.69 66.14,127.69 67.59,127.69 69.04,126.96 70.48,126.96 71.93,126.95 73.37,126.95 74.82,126.95 76.27,126.95 77.71,126.91 79.16,126.91 80.60,126.91 82.05,126.91 83.49,126.91 84.94,126.91 86.39,126.91 87.83,126.91 89.28,126.91 90.72,126.91 92.17,126.91 93.61,126.91 95.06,126.91 96.51,126.91 97.95,126.91 99.40,126.91 100.84,126.91 102.29,126.91 103.73,126.86 105.18,126.21 106.63,125.60 108.07,125.36 109.52,124.16 110.96,124.16 112.41,124.16 113.86,124.16 115.30,124.16 116.75,124.16 118.19,124.16 119.64,124.16 121.08,124.16 122.53,124.16 123.98,124.16 125.42,124.16 126.87,124.07 128.31,124.07 129.76,124.07 131.20,123.97 132.65,123.97 134.10,123.97 135.54,123.97 136.99,123.93 138.43,123.93 139.88,123.93 141.33,123.93 142.77,123.91 144.22,123.91 145.66,123.91 147.11,123.91 148.55,123.91 150.00,123.91 151.45,123.91 152.89,123.91 154.34,123.91 155.78,123.91 157.23,123.91 158.67,123.91 160.12,123.91 161.57,123.91 163.01,123.91 164.46,123.91 165.90,123.91 167.35,123.91 168.80,123.91 170.24,123.91 171.69,123.91 173.13,123.91 174.58,123.91 176.02,123.88 177.47,123.88 178.92,123.88 180.36,123.88 181.81,123.88 183.25,123.88 184.70,123.88 186.14,123.88 187.59,123.88 189.04,123.88 190.48,123.88 191.93,123.88 193.37,123.88 194.82,123.88 196.27,123.88 197.71,123.86 199.16,123.58 200.60,123.50 202.05,123.39 203.49,123.23 204.94,123.19 206.39,123.19 207.83,123.19 209.28,122.95 210.72,122.93 212.17,122.78 213.61,122.73 215.06,122.63 216.51,122.25 217.95,122.23 219.40,122.18 220.84,122.17 222.29,122.11 223.73,122.11 225.18,122.09 226.63,122.09 228.07,122.09 229.52,122.09 230.96,122.09 232.41,122.09 233.86,122.09 235.30,121.97 236.75,121.63 238.19,121.37 239.64,121.29 241.08,121.13 242.53,121.12 243.98,121.10 245.42,121.09 246.87,121.09 248.31,121.09 249.76,121.01 251.20,120.94 252.65,120.92 254.10,120.90 255.54,120.87 256.99,120.63 258.43,120.45 259.88,120.20 261.33,120.03 262.77,119.92 264.22,119.86 265.66,119.80 267.11,119.79 268.55,119.73 270.00,119.57 271.45,119.57 272.89,119.57 274.34,119.56 275.78,119.55 277.23,119.55 278.67,119.46 280.12,119.44 281.57,119.43 283.01,119.42 284.46,119.40 285.90,119.40 287.35,119.40 288.80,119.40 290.24,119.40 291.69,119.40 293.13,119.40 294.58,119.40 296.02,119.37 297.47,119.33 298.92,119.33 300.36,119.14 301.81,119.13 303.25,119.12 304.70,119.09 306.14,118.99 307.59,118.75 309.04,118.71 310.48,118.71 311.93,118.71 313.37,118.71 314.82,118.71 316.27,118.71 317.71,118.71 319.16,118.71 320.60,118.71 322.05,118.71 323.49,118.71 324.94,118.71 326.39,118.71 327.83,118.70 329.28,118.63 330.72,118.62 332.17,118.62 333.61,118.62 335.06,118.62 336.51,118.58 337.95,118.58 339.40,118.41 340.84,118.25 342.29,118.25 343.73,118.25 345.18,118.25 346.63,118.25 348.07,118.22 349.52,118.22 350.96,118.20 352.41,118.13 353.86,118.06 355.30,117.77 356.75,117.76 358.19,117.32 359.64,117.06 361.08,116.87 362.53,116.25 363.98,116.09 365.42,116.03 366.87,115.82 368.31,115.51 369.76,115.43 371.20,115.33 372.65,115.15 374.10,115.00 375.54,114.94 376.99,114.83 378.43,114.76 379.88,114.56 381.33,114.39 382.77,114.18 384.22,113.85 385.66,113.66 387.11,112.70 388.55,111.98 390.00,111.51 391.45,111.11 392.89,110.67 394.34,110.67 395.78,110.67 397.23,110.67 398.67,110.39 400.12,110.23 401.57,109.65 403.01,108.99 404.46,108.23 405.90,107.07 407.35,106.27 408.80,104.61 410.24,103.60 411.69,102.94 413.13,101.86 414.58,101.17 416.02,99.80 417.47,97.73 418.92,97.11 420.36,96.30 421.81,95.52 423.25,95.27 424.70,94.27 426.14,94.10 427.59,92.92 429.04,91.84 430.48,91.19 431.93,90.46 433.37,89.49 434.82,89.23 436.27,89.15 437.71,89.04 439.16,88.97 440.60,88.36 442.05,87.56 443.49,86.59 444.94,86.32 446.39,85.54 447.83,84.52 449.28,82.51 450.72,81.02 452.17,79.19 453.61,78.71 455.06,77.74 456.51,75.94 457.95,74.91 459.40,74.35 460.84,73.57 462.29,73.05 463.73,72.31 465.18,71.96 466.63,71.21 468.07,69.78 469.52,68.19 470.96,67.71 472.41,66.81 473.86,65.18 475.30,64.34 476.75,62.30 478.19,61.33 479.64,59.56 481.08,57.84 482.53,55.76 483.98,52.64 485.42,50.57 486.87,48.79 488.31,47.65 489.76,46.17 491.20,44.85 492.65,44.20 494.10,43.12 495.54,41.82 496.99,41.09 498.43,39.97 499.88,39.11 501.33,38.31 502.77,37.09 504.22,34.87 505.66,33.09 507.11,31.59 508.55,30.36 510.00,30.00" />
    </svg>
  