
    <svg width="540" height="160" xmlns="http://www.w3.org/2000/svg">
      <style>.line{fill:none;stroke:#388bfd;stroke-width:1.5}.axis{stroke:#555;stroke-width:1;opacity:0.5}.label{fill:#999;font-family:sans-serif;font-size:10px;text-anchor:middle}</style>
      <line class="axis" x1="30" y1="30" x2="30" y2="130" />
      <line class="axis" x1="30" y1="130" x2="510" y2="130" />
      <text class="label" x="15" y="30">4,936</text>
      <text class="label" x="15" y="134">0</text>
      <text class="label" x="30" y="148">2021</text>
      <text class="label" x="510" y="148">2026</text>
      <polyline class="line" points="30.00,129.96 31.53,129.94 33.05,129.92 34.58,129.92 36.11,129.92 37.64,129.66 39.16,129.66 40.69,129.66 42.22,128.20 43.74,125.79 45.27,125.66 46.80,125.66 48.32,125.66 49.85,125.66 51.38,125.66 52.91,125.66 54.43,125.66 55.96,125.66 57.49,125.66 59.01,125.66 60.54,125.66 62.07,125.66 63.59,125.66 65.12,125.66 66.65,125.66 68.18,125.66 69.70,125.66 71.23,124.29 72.76,124.29 74.28,124.27 75.81,124.27 77.34,124.27 78.87,124.27 80.39,124.19 81.92,124.19 83.45,124.19 84.97,124.19 86.50,124.19 88.03,124.19 89.55,124.19 91.08,124.19 92.61,124.19 94.14,124.19 95.66,124.19 97.19,124.19 98.72,124.19 100.24,124.19 101.77,124.19 103.30,124.19 104.83,124.19 106.35,124.19 107.88,124.10 109.41,122.87 110.93,121.73 112.46,121.27 113.99,119.02 115.51,119.02 117.04,119.02 118.57,119.02 120.10,119.02 121.62,119.02 123.15,119.02 124.68,119.02 126.20,119.02 127.73,119.02 129.26,119.02 130.78,119.02 132.31,118.86 133.84,118.86 135.37,118.86 136.89,118.65 138.42,118.65 139.95,118.65 141.47,118.65 143.00,118.59 144.53,118.59 146.06,118.59 147.58,118.59 149.11,118.55 150.64,118.55 152.16,118.55 153.69,118.55 155.22,118.55 156.74,118.55 158.27,118.55 159.80,118.55 161.33,118.55 162.85,118.55 164.38,118.55 165.91,118.55 167.43,118.55 168.96,118.55 170.49,118.55 172.01,118.55 173.54,118.55 175.07,118.55 176.60,118.55 178.12,118.55 179.65,118.55 181.18,118.55 182.70,118.55 184.23,118.49 185.76,118.49 187.29,118.49 188.81,118.49 190.34,118.49 191.87,118.49 193.39,118.49 194.92,118.49 196.45,118.49 197.97,118.49 199.50,118.49 201.03,118.49 202.56,118.49 204.08,118.49 205.61,118.49 207.14,118.45 208.66,117.93 210.19,117.78 211.72,117.56 213.24,117.28 214.77,117.20 216.30,117.20 217.83,117.20 219.35,116.75 220.88,116.71 222.41,116.43 223.93,116.32 225.46,116.14 226.99,115.43 228.52,115.39 230.04,115.29 231.57,115.27 233.10,115.17 234.62,115.17 236.15,115.13 237.68,115.13 239.20,115.13 240.73,115.13 242.26,115.13 243.79,115.13 245.31,115.13 246.84,114.91 248.37,114.26 249.89,113.77 251.42,113.63 252.95,113.33 254.48,113.31 256.00,113.27 257.53,113.25 259.06,113.25 260.58,113.25 262.11,113.10 263.64,112.96 265.16,112.92 266.69,112.88 268.22,112.84 269.75,112.37 271.27,112.05 272.80,111.56 274.33,111.26 275.85,111.04 277.38,110.94 278.91,110.81 280.43,110.79 281.96,110.69 283.49,110.39 285.02,110.39 286.54,110.39 288.07,110.37 289.60,110.35 291.12,110.35 292.65,110.19 294.18,110.15 295.71,110.13 297.23,110.11 298.76,110.06 300.29,110.06 301.81,110.06 303.34,110.06 304.87,110.06 306.39,110.06 307.92,110.06 309.45,110.06 310.98,110.00 312.50,109.94 314.03,109.94 315.56,109.58 317.08,109.56 318.61,109.54 320.14,109.48 321.66,109.29 323.19,108.85 324.72,108.77 326.25,108.77 327.77,108.77 329.30,108.77 330.83,108.77 332.35,108.77 333.88,108.77 335.41,108.77 336.94,108.77 338.46,108.77 339.99,108.77 341.52,108.77 343.04,108.77 344.57,108.75 346.10,108.63 347.62,108.61 349.15,108.61 350.68,108.61 352.21,108.61 353.73,108.53 355.26,108.53 356.79,108.20 358.31,107.90 359.84,107.90 361.37,107.90 362.90,107.90 364.42,107.90 365.95,107.86 367.48,107.86 369.00,107.82 370.53,107.67 372.06,107.55 373.58,107.01 375.11,106.99 376.64,106.15 378.17,105.67 379.69,105.30 381.22,104.15 382.75,103.85 384.27,103.72 385.80,103.34 387.33,102.75 388.85,102.61 390.38,102.41 391.91,102.08 393.44,101.80 394.96,101.68 396.49,101.47 398.02,101.33 399.54,100.97 401.07,100.64 402.60,100.26 404.13,99.63 405.65,99.27 407.18,97.46 408.71,96.11 410.23,95.24 411.76,94.49 413.29,93.65 414.81,93.65 416.34,93.65 417.87,93.65 419.40,93.13 420.92,92.82 422.45,92.16 423.98,91.39 425.50,90.33 427.03,88.67 428.56,87.74 430.08,86.04 431.61,85.04 433.14,84.42 434.67,83.38 436.19,82.57 437.72,81.20 439.25,79.19 440.77,78.60 442.30,77.75 443.83,77.02 445.36,76.78 446.88,75.85 448.41,75.68 449.94,74.57 451.46,73.56 452.99,72.95 454.52,72.24 456.04,71.27 457.57,70.98 459.10,70.84 460.63,70.70 462.15,70.58 463.68,69.81 465.21,68.94 466.73,67.56 468.26,67.16 469.79,66.45 471.31,65.29 472.84,62.72 474.37,60.77 475.90,58.61 477.42,58.14 478.95,57.19 480.48,55.26 482.00,54.09 483.53,53.44 485.06,52.47 486.59,51.96 488.11,51.25 489.64,50.93 491.17,49.83 492.69,48.19 494.22,46.63 495.75,46.17 497.27,45.36 498.80,43.90 500.33,42.80 501.86,41.18 503.38,40.35 504.91,38.69 506.44,36.48 507.96,34.60 509.49,30.61" />
    </svg>
  