
    <svg width="540" height="160" xmlns="http://www.w3.org/2000/svg">
      <style>.line{fill:none;stroke:#388bfd;stroke-width:1.5}.axis{stroke:#555;stroke-width:1;opacity:0.5}.label{fill:#999;font-family:sans-serif;font-size:10px;text-anchor:middle}</style>
      <line class="axis" x1="30" y1="30" x2="30" y2="130" />
      <line class="axis" x1="30" y1="130" x2="510" y2="130" />
      <text class="label" x="15" y="30">8,408</text>
      <text class="label" x="15" y="134">0</text>
      <text class="label" x="30" y="148">2021</text>
      <text class="label" x="510" y="148">2026</text>
      <polyline class="line" points="30.00,129.98 31.48,129.96 32.95,129.95 34.43,129.95 35.90,129.95 37.38,129.80 38.86,129.80 40.33,129.80 41.81,128.94 43.29,127.53 44.76,127.45 46.24,127.45 47.71,127.45 49.19,127.45 50.67,127.45 52.14,127.45 53.62,127.45 55.09,127.45 56.57,127.45 58.05,127.45 59.52,127.45 61.00,127.45 62.48,127.45 63.95,127.45 65.43,127.45 66.90,127.45 68.38,127.45 69.86,126.65 71.33,126.65 72.81,126.63 74.28,126.63 75.76,126.63 77.24,126.63 78.71,126.59 80.19,126.59 81.67,126.59 83.14,126.59 84.62,126.59 86.09,126.59 87.57,126.59 89.05,126.59 90.52,126.59 92.00,126.59 93.48,126.59 94.95,126.59 96.43,126.59 97.90,126.59 99.38,126.59 100.86,126.59 102.33,126.59 103.81,126.59 105.28,126.54 106.76,125.81 108.24,125.15 109.71,124.87 111.19,123.55 112.67,123.55 114.14,123.55 115.62,123.55 117.09,123.55 118.57,123.55 120.05,123.55 121.52,123.55 123.00,123.55 124.47,123.55 125.95,123.55 127.43,123.55 128.90,123.46 130.38,123.46 131.86,123.46 133.33,123.34 134.81,123.34 136.28,123.34 137.76,123.34 139.24,123.30 140.71,123.30 142.19,123.30 143.66,123.30 145.14,123.28 146.62,123.28 148.09,123.28 149.57,123.28 151.05,123.28 152.52,123.28 154.00,123.28 155.47,123.28 156.95,123.28 158.43,123.28 159.90,123.28 161.38,123.28 162.85,123.28 164.33,123.28 165.81,123.28 167.28,123.28 168.76,123.28 170.24,123.28 171.71,123.28 173.19,123.28 174.66,123.28 176.14,123.28 177.62,123.28 179.09,123.24 180.57,123.24 182.05,123.24 183.52,123.24 185.00,123.24 186.47,123.24 187.95,123.24 189.43,123.24 190.90,123.24 192.38,123.24 193.85,123.24 195.33,123.24 196.81,123.24 198.28,123.24 199.76,123.24 201.24,123.22 202.71,122.91 204.19,122.83 205.66,122.70 207.14,122.53 208.62,122.48 210.09,122.48 211.57,122.48 213.04,122.22 214.52,122.20 216.00,122.03 217.47,121.97 218.95,121.86 220.43,121.45 221.90,121.42 223.38,121.37 224.85,121.35 226.33,121.29 227.81,121.29 229.28,121.27 230.76,121.27 232.23,121.27 233.71,121.27 235.19,121.27 236.66,121.27 238.14,121.27 239.62,121.14 241.09,120.76 242.57,120.47 244.04,120.39 245.52,120.21 247.00,120.20 248.47,120.18 249.95,120.16 251.42,120.16 252.90,120.16 254.38,120.08 255.85,120.00 257.33,119.97 258.81,119.95 260.28,119.93 261.76,119.65 263.23,119.46 264.71,119.18 266.19,119.00 267.66,118.87 269.14,118.81 270.62,118.74 272.09,118.73 273.57,118.67 275.04,118.49 276.52,118.49 278.00,118.49 279.47,118.48 280.95,118.46 282.42,118.46 283.90,118.37 285.38,118.34 286.85,118.33 288.33,118.32 289.81,118.30 291.28,118.30 292.76,118.30 294.23,118.30 295.71,118.30 297.19,118.30 298.66,118.30 300.14,118.30 301.61,118.26 303.09,118.23 304.57,118.23 306.04,118.01 307.52,118.00 309.00,117.99 310.47,117.95 311.95,117.84 313.42,117.58 314.90,117.54 316.38,117.54 317.85,117.54 319.33,117.54 320.80,117.54 322.28,117.54 323.76,117.54 325.23,117.54 326.71,117.54 328.19,117.54 329.66,117.54 331.14,117.54 332.61,117.54 334.09,117.52 335.57,117.45 337.04,117.44 338.52,117.44 339.99,117.44 341.47,117.44 342.95,117.39 344.42,117.39 345.90,117.20 347.38,117.02 348.85,117.02 350.33,117.02 351.80,117.02 353.28,117.02 354.76,117.00 356.23,117.00 357.71,116.98 359.19,116.89 360.66,116.82 362.14,116.50 363.61,116.49 365.09,116.00 366.57,115.72 368.04,115.50 369.52,114.82 370.99,114.65 372.47,114.57 373.95,114.35 375.42,114.00 376.90,113.92 378.38,113.80 379.85,113.61 381.33,113.44 382.80,113.37 384.28,113.25 385.76,113.17 387.23,112.96 388.71,112.77 390.18,112.54 391.66,112.17 393.14,111.96 394.61,110.90 396.09,110.10 397.57,109.59 399.04,109.15 400.52,108.66 401.99,108.66 403.47,108.66 404.95,108.66 406.42,108.35 407.90,108.18 409.37,107.53 410.85,106.81 412.33,105.96 413.80,104.69 415.28,103.80 416.76,101.97 418.23,100.86 419.71,100.12 421.18,98.93 422.66,98.17 424.14,96.66 425.61,94.38 427.09,93.69 428.56,92.80 430.04,91.94 431.52,91.66 432.99,90.56 434.47,90.37 435.95,89.06 437.42,87.87 438.90,87.16 440.37,86.35 441.85,85.28 443.33,85.00 444.80,84.90 446.28,84.78 447.75,84.71 449.23,84.03 450.71,83.15 452.18,82.08 453.66,81.78 455.14,80.92 456.61,79.80 458.09,77.57 459.56,75.93 461.04,73.91 462.52,73.38 463.99,72.30 465.47,70.32 466.95,69.19 468.42,68.57 469.90,67.70 471.37,67.13 472.85,66.31 474.33,65.93 475.80,65.10 477.28,63.52 478.75,61.77 480.23,61.23 481.71,60.25 483.18,58.44 484.66,57.51 486.14,55.26 487.61,54.19 489.09,52.24 490.56,50.34 492.04,48.04 493.52,44.59 494.99,42.31 496.47,40.35 497.94,39.09 499.42,37.46 500.90,35.99 502.37,35.28 503.85,34.09 505.33,32.65 506.80,32.09 508.28,31.03 509.75,30.13" />
    </svg>
  