
    <svg width="540" height="160" xmlns="http://www.w3.org/2000/svg">
      <style>.line{fill:none;stroke:#388bfd;stroke-width:1.5}.axis{stroke:#555;stroke-width:1;opacity:0.5}.label{fill:#999;font-family:sans-serif;font-size:10px;text-anchor:middle}</style>
      <line class="axis" x1="30" y1="30" x2="30" y2="130" />
      <line class="axis" x1="30" y1="130" x2="510" y2="130" />
      <text class="label" x="15" y="30">8,964</text>
      <text class="label" x="15" y="134">0</text>
      <text class="label" x="30" y="148">2021</text>
      <text class="label" x="510" y="148">2026</text>
      <polyline class="line" points="30.00,129.98 31.46,129.97 32.92,129.96 34.38,129.96 35.84,129.96 37.30,129.81 38.76,129.81 40.22,129.81 41.68,129.01 43.14,127.68 44.60,127.61 46.06,127.61 47.52,127.61 48.98,127.61 50.44,127.61 51.90,127.61 53.36,127.61 54.82,127.61 56.27,127.61 57.73,127.61 59.19,127.61 60.65,127.61 62.11,127.61 63.57,127.61 65.03,127.61 66.49,127.61 67.95,127.61 69.41,126.85 70.87,126.85 72.33,126.84 73.79,126.84 75.25,126.84 76.71,126.84 78.17,126.80 79.63,126.80 81.09,126.80 82.55,126.80 84.01,126.80 85.47,126.80 86.93,126.80 88.39,126.80 89.85,126.80 91.31,126.80 92.77,126.80 94.23,126.80 95.69,126.80 97.15,126.80 98.61,126.80 100.07,126.80 101.53,126.80 102.99,126.80 104.45,126.75 105.90,126.07 107.36,125.45 108.82,125.19 110.28,123.95 111.74,123.95 113.20,123.95 114.66,123.95 116.12,123.95 117.58,123.95 119.04,123.95 120.50,123.95 121.96,123.95 123.42,123.95 124.88,123.95 126.34,123.95 127.80,123.86 129.26,123.86 130.72,123.86 132.18,123.75 133.64,123.75 135.10,123.75 136.56,123.75 138.02,123.72 139.48,123.72 140.94,123.72 142.40,123.72 143.86,123.70 145.32,123.70 146.78,123.70 148.24,123.70 149.70,123.70 151.16,123.70 152.62,123.70 154.08,123.70 155.53,123.70 156.99,123.70 158.45,123.70 159.91,123.70 161.37,123.70 162.83,123.70 164.29,123.70 165.75,123.70 167.21,123.70 168.67,123.70 170.13,123.70 171.59,123.70 173.05,123.70 174.51,123.70 175.97,123.70 177.43,123.66 178.89,123.66 180.35,123.66 181.81,123.66 183.27,123.66 184.73,123.66 186.19,123.66 187.65,123.66 189.11,123.66 190.57,123.66 192.03,123.66 193.49,123.66 194.95,123.66 196.41,123.66 197.87,123.66 199.33,123.64 200.79,123.35 202.25,123.27 203.71,123.15 205.16,122.99 206.62,122.95 208.08,122.95 209.54,122.95 211.00,122.70 212.46,122.68 213.92,122.53 215.38,122.47 216.84,122.37 218.30,121.98 219.76,121.96 221.22,121.90 222.68,121.89 224.14,121.83 225.60,121.83 227.06,121.81 228.52,121.81 229.98,121.81 231.44,121.81 232.90,121.81 234.36,121.81 235.82,121.81 237.28,121.69 238.74,121.33 240.20,121.06 241.66,120.99 243.12,120.82 244.58,120.81 246.04,120.79 247.50,120.77 248.96,120.77 250.42,120.77 251.88,120.70 253.34,120.62 254.79,120.60 256.25,120.57 257.71,120.55 259.17,120.29 260.63,120.12 262.09,119.85 263.55,119.68 265.01,119.56 266.47,119.50 267.93,119.44 269.39,119.42 270.85,119.37 272.31,119.20 273.77,119.20 275.23,119.20 276.69,119.19 278.15,119.18 279.61,119.18 281.07,119.09 282.53,119.07 283.99,119.06 285.45,119.05 286.91,119.02 288.37,119.02 289.83,119.02 291.29,119.02 292.75,119.02 294.21,119.02 295.67,119.02 297.13,119.02 298.59,118.99 300.05,118.96 301.51,118.96 302.97,118.76 304.42,118.74 305.88,118.73 307.34,118.70 308.80,118.60 310.26,118.35 311.72,118.31 313.18,118.31 314.64,118.31 316.10,118.31 317.56,118.31 319.02,118.31 320.48,118.31 321.94,118.31 323.40,118.31 324.86,118.31 326.32,118.31 327.78,118.31 329.24,118.31 330.70,118.30 332.16,118.23 333.62,118.22 335.08,118.22 336.54,118.22 338.00,118.22 339.46,118.17 340.92,118.17 342.38,118.00 343.84,117.83 345.30,117.83 346.76,117.83 348.22,117.83 349.68,117.83 351.14,117.81 352.60,117.81 354.05,117.78 355.51,117.71 356.97,117.64 358.43,117.34 359.89,117.33 361.35,116.87 362.81,116.60 364.27,116.40 365.73,115.77 367.19,115.60 368.65,115.53 370.11,115.32 371.57,115.00 373.03,114.92 374.49,114.81 375.95,114.63 377.41,114.47 378.87,114.40 380.33,114.29 381.79,114.21 383.25,114.01 384.71,113.84 386.17,113.62 387.63,113.28 389.09,113.08 390.55,112.08 392.01,111.34 393.47,110.86 394.93,110.44 396.39,109.99 397.85,109.99 399.31,109.99 400.77,109.99 402.23,109.70 403.68,109.53 405.14,108.93 406.60,108.25 408.06,107.45 409.52,106.26 410.98,105.42 412.44,103.71 413.90,102.67 415.36,101.98 416.82,100.86 418.28,100.15 419.74,98.73 421.20,96.59 422.66,95.94 424.12,95.10 425.58,94.30 427.04,94.03 428.50,93.01 429.96,92.83 431.42,91.60 432.88,90.49 434.34,89.82 435.80,89.06 437.26,88.05 438.72,87.79 440.18,87.70 441.64,87.59 443.10,87.52 444.56,86.88 446.02,86.06 447.48,85.05 448.94,84.77 450.40,83.96 451.86,82.91 453.31,80.83 454.77,79.29 456.23,77.39 457.69,76.89 459.15,75.88 460.61,74.02 462.07,72.96 463.53,72.38 464.99,71.57 466.45,71.03 467.91,70.26 469.37,69.90 470.83,69.12 472.29,67.64 473.75,66.00 475.21,65.50 476.67,64.57 478.13,62.88 479.59,62.01 481.05,59.90 482.51,58.89 483.97,57.06 485.43,55.28 486.89,53.13 488.35,49.89 489.81,47.75 491.27,45.91 492.73,44.73 494.19,43.20 495.65,41.83 497.11,41.16 498.57,40.04 500.03,38.69 501.49,37.93 502.94,36.77 504.40,35.89 505.86,35.05 507.32,33.79 508.78,31.49" />
    </svg>
  