
    <svg width="540" height="160" xmlns="http://www.w3.org/2000/svg">
      <style>.line{fill:none;stroke:#388bfd;stroke-width:1.5}.axis{stroke:#555;stroke-width:1;opacity:0.5}.label{fill:#999;font-family:sans-serif;font-size:10px;text-anchor:middle}</style>
      <line class="axis" x1="30" y1="30" x2="30" y2="130" />
      <line class="axis" x1="30" y1="130" x2="510" y2="130" />
      <text class="label" x="15" y="30">8,067</text>
      <text class="label" x="15" y="134">0</text>
      <text class="label" x="30" y="148">2021</text>
      <text class="label" x="510" y="148">2026</text>
      <polyline class="line" points="30.00,129.98 31.48,129.96 32.96,129.95 34.44,129.95 35.92,129.95 37.40,129.79 38.88,129.79 40.37,129.79 41.85,128.90 43.33,127.42 44.81,127.35 46.29,127.35 47.77,127.35 49.25,127.35 50.73,127.35 52.21,127.35 53.69,127.35 55.17,127.35 56.65,127.35 58.13,127.35 59.61,127.35 61.10,127.35 62.58,127.35 64.06,127.35 65.54,127.35 67.02,127.35 68.50,127.35 69.98,126.50 71.46,126.50 72.94,126.49 74.42,126.49 75.90,126.49 77.38,126.49 78.86,126.44 80.34,126.44 81.83,126.44 83.31,126.44 84.79,126.44 86.27,126.44 87.75,126.44 89.23,126.44 90.71,126.44 92.19,126.44 93.67,126.44 95.15,126.44 96.63,126.44 98.11,126.44 99.59,126.44 101.07,126.44 102.56,126.44 104.04,126.44 105.52,126.39 107.00,125.64 108.48,124.94 109.96,124.66 111.44,123.28 112.92,123.28 114.40,123.28 115.88,123.28 117.36,123.28 118.84,123.28 120.32,123.28 121.80,123.28 123.29,123.28 124.77,123.28 126.25,123.28 127.73,123.28 129.21,123.18 130.69,123.18 132.17,123.18 133.65,123.06 135.13,123.06 136.61,123.06 138.09,123.06 139.57,123.02 141.05,123.02 142.53,123.02 144.02,123.02 145.50,123.00 146.98,123.00 148.46,123.00 149.94,123.00 151.42,123.00 152.90,123.00 154.38,123.00 155.86,123.00 157.34,123.00 158.82,123.00 160.30,123.00 161.78,123.00 163.26,123.00 164.75,123.00 166.23,123.00 167.71,123.00 169.19,123.00 170.67,123.00 172.15,123.00 173.63,123.00 175.11,123.00 176.59,123.00 178.07,123.00 179.55,122.96 181.03,122.96 182.51,122.96 183.99,122.96 185.48,122.96 186.96,122.96 188.44,122.96 189.92,122.96 191.40,122.96 192.88,122.96 194.36,122.96 195.84,122.96 197.32,122.96 198.80,122.96 200.28,122.96 201.76,122.93 203.24,122.61 204.72,122.53 206.21,122.39 207.69,122.22 209.17,122.17 210.65,122.17 212.13,122.17 213.61,121.89 215.09,121.87 216.57,121.69 218.05,121.63 219.53,121.52 221.01,121.09 222.49,121.06 223.97,121.00 225.46,120.99 226.94,120.93 228.42,120.93 229.90,120.90 231.38,120.90 232.86,120.90 234.34,120.90 235.82,120.90 237.30,120.90 238.78,120.90 240.26,120.76 241.74,120.37 243.22,120.07 244.70,119.98 246.19,119.80 247.67,119.79 249.15,119.76 250.63,119.75 252.11,119.75 253.59,119.75 255.07,119.66 256.55,119.57 258.03,119.55 259.51,119.53 260.99,119.50 262.47,119.22 263.95,119.02 265.43,118.72 266.92,118.53 268.40,118.40 269.88,118.34 271.36,118.26 272.84,118.25 274.32,118.19 275.80,118.00 277.28,118.00 278.76,118.00 280.24,117.99 281.72,117.98 283.20,117.98 284.68,117.88 286.16,117.85 287.65,117.84 289.13,117.83 290.61,117.80 292.09,117.80 293.57,117.80 295.05,117.80 296.53,117.80 298.01,117.80 299.49,117.80 300.97,117.80 302.45,117.76 303.93,117.73 305.41,117.73 306.89,117.50 308.38,117.49 309.86,117.48 311.34,117.44 312.82,117.33 314.30,117.06 315.78,117.01 317.26,117.01 318.74,117.01 320.22,117.01 321.70,117.01 323.18,117.01 324.66,117.01 326.14,117.01 327.62,117.01 329.11,117.01 330.59,117.01 332.07,117.01 333.55,117.01 335.03,117.00 336.51,116.92 337.99,116.91 339.47,116.91 340.95,116.91 342.43,116.91 343.91,116.86 345.39,116.86 346.87,116.66 348.35,116.48 349.84,116.48 351.32,116.48 352.80,116.48 354.28,116.48 355.76,116.45 357.24,116.45 358.72,116.43 360.20,116.34 361.68,116.27 363.16,115.93 364.64,115.92 366.12,115.41 367.60,115.11 369.08,114.89 370.57,114.18 372.05,114.00 373.53,113.92 375.01,113.69 376.49,113.33 377.97,113.24 379.45,113.12 380.93,112.92 382.41,112.74 383.89,112.67 385.37,112.55 386.85,112.46 388.33,112.24 389.81,112.04 391.30,111.80 392.78,111.42 394.26,111.19 395.74,110.09 397.22,109.26 398.70,108.73 400.18,108.27 401.66,107.76 403.14,107.76 404.62,107.76 406.10,107.76 407.58,107.44 409.06,107.25 410.54,106.58 412.03,105.83 413.51,104.95 414.99,103.62 416.47,102.69 417.95,100.78 419.43,99.63 420.91,98.86 422.39,97.62 423.87,96.83 425.35,95.25 426.83,92.87 428.31,92.15 429.79,91.22 431.28,90.33 432.76,90.03 434.24,88.89 435.72,88.70 437.20,87.33 438.68,86.09 440.16,85.35 441.64,84.51 443.12,83.39 444.60,83.09 446.08,82.99 447.56,82.87 449.04,82.80 450.52,82.09 452.01,81.17 453.49,80.06 454.97,79.75 456.45,78.84 457.93,77.68 459.41,75.36 460.89,73.65 462.37,71.54 463.85,70.98 465.33,69.87 466.81,67.80 468.29,66.62 469.77,65.97 471.25,65.07 472.74,64.47 474.22,63.62 475.70,63.22 477.18,62.35 478.66,60.71 480.14,58.88 481.62,58.33 483.10,57.38 484.58,55.87 486.06,54.98 487.54,53.17 489.02,52.21 490.50,50.35 491.98,48.47 493.47,46.49 494.95,43.13 496.43,40.86 497.91,38.90 499.39,37.64 500.87,36.02 502.35,34.59 503.83,33.90 505.31,32.69 506.79,31.24 508.27,30.92 509.75,30.00" />
    </svg>
  