
    <svg width="540" height="160" xmlns="http://www.w3.org/2000/svg">
      <style>.line{fill:none;stroke:#388bfd;stroke-width:1.5}.axis{stroke:#555;stroke-width:1;opacity:0.5}.label{fill:#999;font-family:sans-serif;font-size:10px;text-anchor:middle}</style>
      <line class="axis" x1="30" y1="30" x2="30" y2="130" />
      <line class="axis" x1="30" y1="130" x2="510" y2="130" />
      <text class="label" x="15" y="30">8,358</text>
      <text class="label" x="15" y="134">0</text>
      <text class="label" x="30" y="148">2021</text>
      <text class="label" x="510" y="148">2026</text>
      <polyline class="line" points="30.00,129.98 31.48,129.96 32.96,129.95 34.43,129.95 35.91,129.95 37.39,129.80 38.87,129.80 40.34,129.80 41.82,128.94 43.30,127.51 44.78,127.44 46.25,127.44 47.73,127.44 49.21,127.44 50.69,127.44 52.17,127.44 53.64,127.44 55.12,127.44 56.60,127.44 58.08,127.44 59.55,127.44 61.03,127.44 62.51,127.44 63.99,127.44 65.46,127.44 66.94,127.44 68.42,127.44 69.90,126.63 71.38,126.63 72.85,126.61 74.33,126.61 75.81,126.61 77.29,126.61 78.76,126.57 80.24,126.57 81.72,126.57 83.20,126.57 84.67,126.57 86.15,126.57 87.63,126.57 89.11,126.57 90.58,126.57 92.06,126.57 93.54,126.57 95.02,126.57 96.50,126.57 97.97,126.57 99.45,126.57 100.93,126.57 102.41,126.57 103.88,126.57 105.36,126.52 106.84,125.79 108.32,125.12 109.79,124.84 111.27,123.52 112.75,123.52 114.23,123.52 115.71,123.52 117.18,123.52 118.66,123.52 120.14,123.52 121.62,123.52 123.09,123.52 124.57,123.52 126.05,123.52 127.53,123.52 129.00,123.42 130.48,123.42 131.96,123.42 133.44,123.30 134.92,123.30 136.39,123.30 137.87,123.30 139.35,123.26 140.83,123.26 142.30,123.26 143.78,123.26 145.26,123.24 146.74,123.24 148.21,123.24 149.69,123.24 151.17,123.24 152.65,123.24 154.13,123.24 155.60,123.24 157.08,123.24 158.56,123.24 160.04,123.24 161.51,123.24 162.99,123.24 164.47,123.24 165.95,123.24 167.42,123.24 168.90,123.24 170.38,123.24 171.86,123.24 173.34,123.24 174.81,123.24 176.29,123.24 177.77,123.24 179.25,123.20 180.72,123.20 182.20,123.20 183.68,123.20 185.16,123.20 186.63,123.20 188.11,123.20 189.59,123.20 191.07,123.20 192.54,123.20 194.02,123.20 195.50,123.20 196.98,123.20 198.46,123.20 199.93,123.20 201.41,123.18 202.89,122.87 204.37,122.79 205.84,122.65 207.32,122.49 208.80,122.44 210.28,122.44 211.75,122.44 213.23,122.18 214.71,122.15 216.19,121.98 217.67,121.92 219.14,121.82 220.62,121.40 222.10,121.37 223.58,121.31 225.05,121.30 226.53,121.24 228.01,121.24 229.49,121.22 230.96,121.22 232.44,121.22 233.92,121.22 235.40,121.22 236.88,121.22 238.35,121.22 239.83,121.09 241.31,120.70 242.79,120.42 244.26,120.33 245.74,120.15 247.22,120.14 248.70,120.12 250.17,120.11 251.65,120.11 253.13,120.11 254.61,120.02 256.09,119.94 257.56,119.91 259.04,119.89 260.52,119.87 262.00,119.59 263.47,119.40 264.95,119.11 266.43,118.93 267.91,118.80 269.38,118.74 270.86,118.67 272.34,118.66 273.82,118.60 275.30,118.42 276.77,118.42 278.25,118.42 279.73,118.41 281.21,118.39 282.68,118.39 284.16,118.30 285.64,118.27 287.12,118.26 288.59,118.25 290.07,118.23 291.55,118.23 293.03,118.23 294.50,118.23 295.98,118.23 297.46,118.23 298.94,118.23 300.42,118.23 301.89,118.19 303.37,118.16 304.85,118.16 306.33,117.94 307.80,117.93 309.28,117.92 310.76,117.88 312.24,117.77 313.71,117.51 315.19,117.46 316.67,117.46 318.15,117.46 319.63,117.46 321.10,117.46 322.58,117.46 324.06,117.46 325.54,117.46 327.01,117.46 328.49,117.46 329.97,117.46 331.45,117.46 332.92,117.46 334.40,117.45 335.88,117.38 337.36,117.37 338.84,117.37 340.31,117.37 341.79,117.37 343.27,117.32 344.75,117.32 346.22,117.13 347.70,116.95 349.18,116.95 350.66,116.95 352.13,116.95 353.61,116.95 355.09,116.92 356.57,116.92 358.05,116.90 359.52,116.82 361.00,116.74 362.48,116.42 363.96,116.41 365.43,115.92 366.91,115.63 368.39,115.42 369.87,114.73 371.34,114.55 372.82,114.48 374.30,114.25 375.78,113.91 377.26,113.82 378.73,113.70 380.21,113.51 381.69,113.35 383.17,113.27 384.64,113.15 386.12,113.07 387.60,112.85 389.08,112.66 390.55,112.44 392.03,112.07 393.51,111.85 394.99,110.78 396.46,109.98 397.94,109.47 399.42,109.03 400.90,108.54 402.38,108.54 403.85,108.54 405.33,108.54 406.81,108.22 408.29,108.04 409.76,107.40 411.24,106.67 412.72,105.82 414.20,104.54 415.67,103.64 417.15,101.80 418.63,100.69 420.11,99.94 421.59,98.75 423.06,97.98 424.54,96.46 426.02,94.17 427.50,93.47 428.97,92.57 430.45,91.71 431.93,91.43 433.41,90.33 434.88,90.13 436.36,88.82 437.84,87.62 439.32,86.90 440.80,86.09 442.27,85.01 443.75,84.73 445.23,84.63 446.71,84.51 448.18,84.44 449.66,83.76 451.14,82.87 452.62,81.79 454.09,81.50 455.57,80.62 457.05,79.50 458.53,77.26 460.01,75.61 461.48,73.58 462.96,73.04 464.44,71.96 465.92,69.96 467.39,68.83 468.87,68.20 470.35,67.33 471.83,66.76 473.30,65.93 474.78,65.55 476.26,64.71 477.74,63.12 479.21,61.36 480.69,60.82 482.17,59.83 483.65,58.01 485.13,57.08 486.60,54.81 488.08,53.74 489.56,51.78 491.04,49.86 492.51,47.55 493.99,44.08 495.47,41.79 496.95,39.81 498.42,38.54 499.90,36.90 501.38,35.43 502.86,34.71 504.34,33.52 505.81,32.07 507.29,31.51 508.77,30.44" />
    </svg>
  