
    <svg width="540" height="160" xmlns="http://www.w3.org/2000/svg">
      <style>.line{fill:none;stroke:#388bfd;stroke-width:1.5}.axis{stroke:#555;stroke-width:1;opacity:0.5}.label{fill:#999;font-family:sans-serif;font-size:10px;text-anchor:middle}</style>
      <line class="axis" x1="30" y1="30" x2="30" y2="130" />
      <line class="axis" x1="30" y1="130" x2="510" y2="130" />
      <text class="label" x="15" y="30">5,093</text>
      <text class="label" x="15" y="134">0</text>
      <text class="label" x="30" y="148">2021</text>
      <text class="label" x="510" y="148">2026</text>
      <polyline class="line" points="30.00,129.96 31.52,129.94 33.04,129.92 34.56,129.92 36.09,129.92 37.61,129.67 39.13,129.67 40.65,129.67 42.17,128.25 43.69,125.92 45.21,125.80 46.74,125.80 48.26,125.80 49.78,125.80 51.30,125.80 52.82,125.80 54.34,125.80 55.86,125.80 57.39,125.80 58.91,125.80 60.43,125.80 61.95,125.80 63.47,125.80 64.99,125.80 66.51,125.80 68.03,125.80 69.56,125.80 71.08,124.46 72.60,124.46 74.12,124.44 75.64,124.44 77.16,124.44 78.68,124.44 80.21,124.36 81.73,124.36 83.25,124.36 84.77,124.36 86.29,124.36 87.81,124.36 89.33,124.36 90.86,124.36 92.38,124.36 93.90,124.36 95.42,124.36 96.94,124.36 98.46,124.36 99.98,124.36 101.51,124.36 103.03,124.36 104.55,124.36 106.07,124.36 107.59,124.29 109.11,123.09 110.63,121.99 112.16,121.54 113.68,119.36 115.20,119.36 116.72,119.36 118.24,119.36 119.76,119.36 121.28,119.36 122.81,119.36 124.33,119.36 125.85,119.36 127.37,119.36 128.89,119.36 130.41,119.36 131.93,119.20 133.45,119.20 134.98,119.20 136.50,119.00 138.02,119.00 139.54,119.00 141.06,119.00 142.58,118.95 144.10,118.95 145.63,118.95 147.15,118.95 148.67,118.91 150.19,118.91 151.71,118.91 153.23,118.91 154.75,118.91 156.28,118.91 157.80,118.91 159.32,118.91 160.84,118.91 162.36,118.91 163.88,118.91 165.40,118.91 166.93,118.91 168.45,118.91 169.97,118.91 171.49,118.91 173.01,118.91 174.53,118.91 176.05,118.91 177.58,118.91 179.10,118.91 180.62,118.91 182.14,118.91 183.66,118.85 185.18,118.85 186.70,118.85 188.23,118.85 189.75,118.85 191.27,118.85 192.79,118.85 194.31,118.85 195.83,118.85 197.35,118.85 198.87,118.85 200.40,118.85 201.92,118.85 203.44,118.85 204.96,118.85 206.48,118.81 208.00,118.30 209.52,118.16 211.05,117.94 212.57,117.67 214.09,117.59 215.61,117.59 217.13,117.59 218.65,117.16 220.17,117.12 221.70,116.84 223.22,116.75 224.74,116.57 226.26,115.88 227.78,115.84 229.30,115.75 230.82,115.73 232.35,115.63 233.87,115.63 235.39,115.59 236.91,115.59 238.43,115.59 239.95,115.59 241.47,115.59 243.00,115.59 244.52,115.59 246.04,115.37 247.56,114.74 249.08,114.27 250.60,114.14 252.12,113.84 253.65,113.82 255.17,113.78 256.69,113.76 258.21,113.76 259.73,113.76 261.25,113.62 262.77,113.49 264.29,113.45 265.82,113.41 267.34,113.37 268.86,112.92 270.38,112.60 271.90,112.13 273.42,111.84 274.94,111.62 276.47,111.52 277.99,111.41 279.51,111.39 281.03,111.29 282.55,110.99 284.07,110.99 285.59,110.99 287.12,110.97 288.64,110.95 290.16,110.95 291.68,110.80 293.20,110.76 294.72,110.74 296.24,110.72 297.77,110.68 299.29,110.68 300.81,110.68 302.33,110.68 303.85,110.68 305.37,110.68 306.89,110.68 308.42,110.68 309.94,110.62 311.46,110.56 312.98,110.56 314.50,110.21 316.02,110.19 317.54,110.17 319.06,110.11 320.59,109.93 322.11,109.50 323.63,109.42 325.15,109.42 326.67,109.42 328.19,109.42 329.71,109.42 331.24,109.42 332.76,109.42 334.28,109.42 335.80,109.42 337.32,109.42 338.84,109.42 340.36,109.42 341.89,109.42 343.41,109.40 344.93,109.29 346.45,109.27 347.97,109.27 349.49,109.27 351.01,109.27 352.54,109.19 354.06,109.19 355.58,108.87 357.10,108.58 358.62,108.58 360.14,108.58 361.66,108.58 363.19,108.58 364.71,108.54 366.23,108.54 367.75,108.50 369.27,108.36 370.79,108.24 372.31,107.71 373.84,107.69 375.36,106.89 376.88,106.42 378.40,106.07 379.92,104.95 381.44,104.65 382.96,104.53 384.48,104.16 386.01,103.59 387.53,103.45 389.05,103.26 390.57,102.94 392.09,102.67 393.61,102.55 395.13,102.35 396.66,102.22 398.18,101.86 399.70,101.55 401.22,101.18 402.74,100.57 404.26,100.21 405.78,98.47 407.31,97.15 408.83,96.31 410.35,95.58 411.87,94.78 413.39,94.78 414.91,94.78 416.43,94.78 417.96,94.26 419.48,93.97 421.00,93.32 422.52,92.58 424.04,91.56 425.56,89.95 427.08,89.04 428.61,87.39 430.13,86.43 431.65,85.82 433.17,84.82 434.69,84.03 436.21,82.70 437.73,80.76 439.26,80.19 440.78,79.36 442.30,78.66 443.82,78.42 445.34,77.52 446.86,77.36 448.38,76.28 449.90,75.30 451.43,74.71 452.95,74.02 454.47,73.08 455.99,72.80 457.51,72.67 459.03,72.53 460.55,72.41 462.08,71.67 463.60,70.82 465.12,69.49 466.64,69.09 468.16,68.41 469.68,67.29 471.20,64.79 472.73,62.91 474.25,60.81 475.77,60.36 477.29,59.43 478.81,57.57 480.33,56.43 481.85,55.80 483.38,54.86 484.90,54.37 486.42,53.68 487.94,53.37 489.46,52.31 490.98,50.71 492.50,49.20 494.03,48.75 495.55,47.97 497.07,46.55 498.59,45.49 500.11,43.92 501.63,43.12 503.15,41.51 504.68,39.37 506.20,37.54 507.72,33.67 509.24,30.94" />
    </svg>
  