
    <svg width="540" height="160" xmlns="http://www.w3.org/2000/svg">
      <style>.line{fill:none;stroke:#388bfd;stroke-width:1.5}.axis{stroke:#555;stroke-width:1;opacity:0.5}.label{fill:#999;font-family:sans-serif;font-size:10px;text-anchor:middle}</style>
      <line class="axis" x1="30" y1="30" x2="30" y2="130" />
      <line class="axis" x1="30" y1="130" x2="510" y2="130" />
      <text class="label" x="15" y="30">9,121</text>
      <text class="label" x="15" y="134">0</text>
      <text class="label" x="30" y="148">2021</text>
      <text class="label" x="510" y="148">2026</text>
      <polyline class="line" points="30.00,129.98 31.46,129.97 32.91,129.96 34.37,129.96 35.82,129.96 37.28,129.81 38.73,129.81 40.19,129.81 41.64,129.02 43.10,127.72 44.55,127.65 46.01,127.65 47.46,127.65 48.92,127.65 50.37,127.65 51.83,127.65 53.28,127.65 54.74,127.65 56.20,127.65 57.65,127.65 59.11,127.65 60.56,127.65 62.02,127.65 63.47,127.65 64.93,127.65 66.38,127.65 67.84,127.65 69.29,126.91 70.75,126.91 72.20,126.90 73.66,126.90 75.11,126.90 76.57,126.90 78.02,126.85 79.48,126.85 80.93,126.85 82.39,126.85 83.85,126.85 85.30,126.85 86.76,126.85 88.21,126.85 89.67,126.85 91.12,126.85 92.58,126.85 94.03,126.85 95.49,126.85 96.94,126.85 98.40,126.85 99.85,126.85 101.31,126.85 102.76,126.85 104.22,126.81 105.67,126.14 107.13,125.53 108.59,125.27 110.04,124.06 111.50,124.06 112.95,124.06 114.41,124.06 115.86,124.06 117.32,124.06 118.77,124.06 120.23,124.06 121.68,124.06 123.14,124.06 124.59,124.06 126.05,124.06 127.50,123.97 128.96,123.97 130.41,123.97 131.87,123.86 133.32,123.86 134.78,123.86 136.24,123.86 137.69,123.83 139.15,123.83 140.60,123.83 142.06,123.83 143.51,123.81 144.97,123.81 146.42,123.81 147.88,123.81 149.33,123.81 150.79,123.81 152.24,123.81 153.70,123.81 155.15,123.81 156.61,123.81 158.06,123.81 159.52,123.81 160.98,123.81 162.43,123.81 163.89,123.81 165.34,123.81 166.80,123.81 168.25,123.81 169.71,123.81 171.16,123.81 172.62,123.81 174.07,123.81 175.53,123.81 176.98,123.77 178.44,123.77 179.89,123.77 181.35,123.77 182.80,123.77 184.26,123.77 185.72,123.77 187.17,123.77 188.63,123.77 190.08,123.77 191.54,123.77 192.99,123.77 194.45,123.77 195.90,123.77 197.36,123.77 198.81,123.75 200.27,123.47 201.72,123.39 203.18,123.27 204.63,123.11 206.09,123.07 207.54,123.07 209.00,123.07 210.45,122.83 211.91,122.81 213.37,122.65 214.82,122.60 216.28,122.50 217.73,122.12 219.19,122.10 220.64,122.04 222.10,122.03 223.55,121.97 225.01,121.97 226.46,121.95 227.92,121.95 229.37,121.95 230.83,121.95 232.28,121.95 233.74,121.95 235.19,121.95 236.65,121.83 238.11,121.48 239.56,121.22 241.02,121.14 242.47,120.98 243.93,120.97 245.38,120.94 246.84,120.93 248.29,120.93 249.75,120.93 251.20,120.86 252.66,120.78 254.11,120.76 255.57,120.74 257.02,120.71 258.48,120.46 259.93,120.29 261.39,120.02 262.84,119.86 264.30,119.74 265.76,119.68 267.21,119.62 268.67,119.61 270.12,119.55 271.58,119.39 273.03,119.39 274.49,119.39 275.94,119.38 277.40,119.37 278.85,119.37 280.31,119.28 281.76,119.26 283.22,119.24 284.67,119.23 286.13,119.21 287.58,119.21 289.04,119.21 290.50,119.21 291.95,119.21 293.41,119.21 294.86,119.21 296.32,119.21 297.77,119.18 299.23,119.15 300.68,119.15 302.14,118.95 303.59,118.94 305.05,118.93 306.50,118.89 307.96,118.80 309.41,118.55 310.87,118.51 312.32,118.51 313.78,118.51 315.23,118.51 316.69,118.51 318.15,118.51 319.60,118.51 321.06,118.51 322.51,118.51 323.97,118.51 325.42,118.51 326.88,118.51 328.33,118.51 329.79,118.50 331.24,118.43 332.70,118.42 334.15,118.42 335.61,118.42 337.06,118.42 338.52,118.38 339.97,118.38 341.43,118.20 342.89,118.04 344.34,118.04 345.80,118.04 347.25,118.04 348.71,118.04 350.16,118.02 351.62,118.02 353.07,117.99 354.53,117.92 355.98,117.85 357.44,117.56 358.89,117.55 360.35,117.10 361.80,116.83 363.26,116.64 364.71,116.01 366.17,115.85 367.63,115.78 369.08,115.57 370.54,115.25 371.99,115.18 373.45,115.07 374.90,114.89 376.36,114.74 377.81,114.67 379.27,114.56 380.72,114.49 382.18,114.29 383.63,114.11 385.09,113.91 386.54,113.57 388.00,113.37 389.45,112.39 390.91,111.66 392.36,111.19 393.82,110.78 395.28,110.33 396.73,110.33 398.19,110.33 399.64,110.33 401.10,110.05 402.55,109.88 404.01,109.29 405.46,108.62 406.92,107.84 408.37,106.67 409.83,105.85 411.28,104.16 412.74,103.14 414.19,102.46 415.65,101.36 417.10,100.66 418.56,99.27 420.02,97.16 421.47,96.53 422.93,95.71 424.38,94.92 425.84,94.65 427.29,93.64 428.75,93.47 430.20,92.26 431.66,91.17 433.11,90.51 434.57,89.76 436.02,88.78 437.48,88.51 438.93,88.43 440.39,88.32 441.84,88.25 443.30,87.63 444.75,86.81 446.21,85.83 447.67,85.55 449.12,84.75 450.58,83.72 452.03,81.67 453.49,80.16 454.94,78.30 456.40,77.80 457.85,76.82 459.31,74.98 460.76,73.94 462.22,73.37 463.67,72.57 465.13,72.05 466.58,71.29 468.04,70.94 469.49,70.17 470.95,68.71 472.41,67.10 473.86,66.61 475.32,65.70 476.77,64.03 478.23,63.18 479.68,61.10 481.14,60.12 482.59,58.32 484.05,56.57 485.50,54.45 486.96,51.27 488.41,49.16 489.87,47.36 491.32,46.19 492.78,44.69 494.23,43.34 495.69,42.69 497.15,41.59 498.60,40.26 500.06,39.52 501.51,38.38 502.97,37.51 504.42,36.69 505.88,35.45 507.33,33.19 508.79,31.44" />
    </svg>
  