
    <svg width="540" height="160" xmlns="http://www.w3.org/2000/svg">
      <style>.line{fill:none;stroke:#388bfd;stroke-width:1.5}.axis{stroke:#555;stroke-width:1;opacity:0.5}.label{fill:#999;font-family:sans-serif;font-size:10px;text-anchor:middle}</style>
      <line class="axis" x1="30" y1="30" x2="30" y2="130" />
      <line class="axis" x1="30" y1="130" x2="510" y2="130" />
      <text class="label" x="15" y="30">7,490</text>
      <text class="label" x="15" y="134">0</text>
      <text class="label" x="30" y="148">2021</text>
      <text class="label" x="510" y="148">2026</text>
      <polyline class="line" points="30.00,129.97 31.50,129.96 33.00,129.95 34.50,129.95 36.00,129.95 37.50,129.77 39.00,129.77 40.49,129.77 41.99,128.81 43.49,127.22 44.99,127.14 46.49,127.14 47.99,127.14 49.49,127.14 50.99,127.14 52.49,127.14 53.99,127.14 55.49,127.14 56.99,127.14 58.49,127.14 59.98,127.14 61.48,127.14 62.98,127.14 64.48,127.14 65.98,127.14 67.48,127.14 68.98,127.14 70.48,126.23 71.98,126.23 73.48,126.22 74.98,126.22 76.48,126.22 77.98,126.22 79.47,126.17 80.97,126.17 82.47,126.17 83.97,126.17 85.47,126.17 86.97,126.17 88.47,126.17 89.97,126.17 91.47,126.17 92.97,126.17 94.47,126.17 95.97,126.17 97.46,126.17 98.96,126.17 100.46,126.17 101.96,126.17 103.46,126.17 104.96,126.17 106.46,126.11 107.96,125.30 109.46,124.55 110.96,124.25 112.46,122.76 113.96,122.76 115.46,122.76 116.95,122.76 118.45,122.76 119.95,122.76 121.45,122.76 122.95,122.76 124.45,122.76 125.95,122.76 127.45,122.76 128.95,122.76 130.45,122.66 131.95,122.66 133.45,122.66 134.95,122.52 136.44,122.52 137.94,122.52 139.44,122.52 140.94,122.48 142.44,122.48 143.94,122.48 145.44,122.48 146.94,122.46 148.44,122.46 149.94,122.46 151.44,122.46 152.94,122.46 154.44,122.46 155.93,122.46 157.43,122.46 158.93,122.46 160.43,122.46 161.93,122.46 163.43,122.46 164.93,122.46 166.43,122.46 167.93,122.46 169.43,122.46 170.93,122.46 172.43,122.46 173.93,122.46 175.42,122.46 176.92,122.46 178.42,122.46 179.92,122.46 181.42,122.42 182.92,122.42 184.42,122.42 185.92,122.42 187.42,122.42 188.92,122.42 190.42,122.42 191.92,122.42 193.41,122.42 194.91,122.42 196.41,122.42 197.91,122.42 199.41,122.42 200.91,122.42 202.41,122.42 203.91,122.39 205.41,122.04 206.91,121.95 208.41,121.80 209.91,121.62 211.41,121.56 212.90,121.56 214.40,121.56 215.90,121.27 217.40,121.24 218.90,121.05 220.40,120.99 221.90,120.87 223.40,120.40 224.90,120.37 226.40,120.31 227.90,120.29 229.40,120.23 230.90,120.23 232.39,120.20 233.89,120.20 235.39,120.20 236.89,120.20 238.39,120.20 239.89,120.20 241.39,120.20 242.89,120.05 244.39,119.63 245.89,119.31 247.39,119.21 248.89,119.01 250.39,119.00 251.88,118.97 253.38,118.96 254.88,118.96 256.38,118.96 257.88,118.87 259.38,118.77 260.88,118.74 262.38,118.72 263.88,118.69 265.38,118.38 266.88,118.17 268.38,117.85 269.88,117.65 271.37,117.50 272.87,117.44 274.37,117.36 275.87,117.34 277.37,117.28 278.87,117.08 280.37,117.08 281.87,117.08 283.37,117.06 284.87,117.05 286.37,117.05 287.87,116.94 289.36,116.92 290.86,116.90 292.36,116.89 293.86,116.86 295.36,116.86 296.86,116.86 298.36,116.86 299.86,116.86 301.36,116.86 302.86,116.86 304.36,116.86 305.86,116.82 307.36,116.78 308.85,116.78 310.35,116.54 311.85,116.53 313.35,116.52 314.85,116.48 316.35,116.36 317.85,116.06 319.35,116.01 320.85,116.01 322.35,116.01 323.85,116.01 325.35,116.01 326.85,116.01 328.34,116.01 329.84,116.01 331.34,116.01 332.84,116.01 334.34,116.01 335.84,116.01 337.34,116.01 338.84,115.99 340.34,115.91 341.84,115.90 343.34,115.90 344.84,115.90 346.34,115.90 347.83,115.85 349.33,115.85 350.83,115.63 352.33,115.43 353.83,115.43 355.33,115.43 356.83,115.43 358.33,115.43 359.83,115.41 361.33,115.41 362.83,115.38 364.33,115.29 365.83,115.21 367.32,114.85 368.82,114.83 370.32,114.29 371.82,113.97 373.32,113.72 374.82,112.96 376.32,112.76 377.82,112.68 379.32,112.43 380.82,112.04 382.32,111.95 383.82,111.82 385.31,111.60 386.81,111.42 388.31,111.34 389.81,111.20 391.31,111.11 392.81,110.87 394.31,110.65 395.81,110.40 397.31,109.99 398.81,109.75 400.31,108.56 401.81,107.66 403.31,107.09 404.80,106.60 406.30,106.05 407.80,106.05 409.30,106.05 410.80,106.05 412.30,105.70 413.80,105.50 415.30,104.78 416.80,103.97 418.30,103.02 419.80,101.59 421.30,100.59 422.80,98.53 424.29,97.29 425.79,96.46 427.29,95.13 428.79,94.27 430.29,92.58 431.79,90.01 433.29,89.24 434.79,88.24 436.29,87.28 437.79,86.96 439.29,85.73 440.79,85.51 442.29,84.05 443.78,82.71 445.28,81.91 446.78,81.00 448.28,79.80 449.78,79.48 451.28,79.37 452.78,79.24 454.28,79.16 455.78,78.40 457.28,77.41 458.78,76.21 460.28,75.87 461.78,74.90 463.27,73.64 464.77,71.15 466.27,69.31 467.77,67.04 469.27,66.44 470.77,65.23 472.27,63.00 473.77,61.74 475.27,61.04 476.77,60.07 478.27,59.43 479.77,58.50 481.26,58.08 482.76,57.14 484.26,55.37 485.76,53.40 487.26,52.80 488.76,51.88 490.26,50.65 491.76,49.77 493.26,48.40 494.76,47.54 496.26,45.73 497.76,43.81 499.26,42.11 500.75,38.74 502.25,36.66 503.75,34.65 505.25,33.52 506.75,31.88 508.25,30.53 509.75,30.11" />
    </svg>
  