
    <svg width="540" height="160" xmlns="http://www.w3.org/2000/svg">
      <style>.line{fill:none;stroke:#388bfd;stroke-width:1.5}.axis{stroke:#555;stroke-width:1;opacity:0.5}.label{fill:#999;font-family:sans-serif;font-size:10px;text-anchor:middle}</style>
      <line class="axis" x1="30" y1="30" x2="30" y2="130" />
      <line class="axis" x1="30" y1="130" x2="510" y2="130" />
      <text class="label" x="15" y="30">5,109</text>
      <text class="label" x="15" y="134">0</text>
      <text class="label" x="30" y="148">2021</text>
      <text class="label" x="510" y="148">2026</text>
      <polyline class="line" points="30.00,129.96 31.52,129.94 33.04,129.92 34.56,129.92 36.08,129.92 37.60,129.67 39.12,129.67 40.64,129.67 42.16,128.26 43.68,125.93 45.20,125.81 46.72,125.81 48.24,125.81 49.76,125.81 51.28,125.81 52.80,125.81 54.32,125.81 55.84,125.81 57.36,125.81 58.88,125.81 60.40,125.81 61.92,125.81 63.44,125.81 64.96,125.81 66.47,125.81 67.99,125.81 69.51,125.81 71.03,124.48 72.55,124.48 74.07,124.46 75.59,124.46 77.11,124.46 78.63,124.46 80.15,124.38 81.67,124.38 83.19,124.38 84.71,124.38 86.23,124.38 87.75,124.38 89.27,124.38 90.79,124.38 92.31,124.38 93.83,124.38 95.35,124.38 96.87,124.38 98.39,124.38 99.91,124.38 101.43,124.38 102.95,124.38 104.47,124.38 105.99,124.38 107.51,124.30 109.03,123.11 110.55,122.01 112.07,121.56 113.59,119.39 115.11,119.39 116.63,119.39 118.15,119.39 119.67,119.39 121.19,119.39 122.71,119.39 124.23,119.39 125.75,119.39 127.27,119.39 128.79,119.39 130.31,119.39 131.83,119.23 133.35,119.23 134.87,119.23 136.39,119.04 137.91,119.04 139.42,119.04 140.94,119.04 142.46,118.98 143.98,118.98 145.50,118.98 147.02,118.98 148.54,118.94 150.06,118.94 151.58,118.94 153.10,118.94 154.62,118.94 156.14,118.94 157.66,118.94 159.18,118.94 160.70,118.94 162.22,118.94 163.74,118.94 165.26,118.94 166.78,118.94 168.30,118.94 169.82,118.94 171.34,118.94 172.86,118.94 174.38,118.94 175.90,118.94 177.42,118.94 178.94,118.94 180.46,118.94 181.98,118.94 183.50,118.88 185.02,118.88 186.54,118.88 188.06,118.88 189.58,118.88 191.10,118.88 192.62,118.88 194.14,118.88 195.66,118.88 197.18,118.88 198.70,118.88 200.22,118.88 201.74,118.88 203.26,118.88 204.78,118.88 206.30,118.84 207.82,118.33 209.34,118.20 210.85,117.98 212.37,117.71 213.89,117.63 215.41,117.63 216.93,117.63 218.45,117.20 219.97,117.16 221.49,116.89 223.01,116.79 224.53,116.61 226.05,115.93 227.57,115.89 229.09,115.79 230.61,115.77 232.13,115.67 233.65,115.67 235.17,115.63 236.69,115.63 238.21,115.63 239.73,115.63 241.25,115.63 242.77,115.63 244.29,115.63 245.81,115.42 247.33,114.79 248.85,114.32 250.37,114.18 251.89,113.89 253.41,113.87 254.93,113.83 256.45,113.81 257.97,113.81 259.49,113.81 261.01,113.68 262.53,113.54 264.05,113.50 265.57,113.46 267.09,113.42 268.61,112.97 270.13,112.66 271.65,112.19 273.17,111.89 274.69,111.68 276.21,111.58 277.73,111.46 279.25,111.44 280.77,111.35 282.28,111.05 283.80,111.05 285.32,111.05 286.84,111.03 288.36,111.01 289.88,111.01 291.40,110.86 292.92,110.82 294.44,110.80 295.96,110.78 297.48,110.74 299.00,110.74 300.52,110.74 302.04,110.74 303.56,110.74 305.08,110.74 306.60,110.74 308.12,110.74 309.64,110.68 311.16,110.62 312.68,110.62 314.20,110.27 315.72,110.25 317.24,110.23 318.76,110.17 320.28,110.00 321.80,109.57 323.32,109.49 324.84,109.49 326.36,109.49 327.88,109.49 329.40,109.49 330.92,109.49 332.44,109.49 333.96,109.49 335.48,109.49 337.00,109.49 338.52,109.49 340.04,109.49 341.56,109.49 343.08,109.47 344.60,109.35 346.12,109.33 347.64,109.33 349.16,109.33 350.68,109.33 352.20,109.25 353.72,109.25 355.23,108.94 356.75,108.65 358.27,108.65 359.79,108.65 361.31,108.65 362.83,108.65 364.35,108.61 365.87,108.61 367.39,108.57 368.91,108.43 370.43,108.31 371.95,107.78 373.47,107.76 374.99,106.96 376.51,106.49 378.03,106.14 379.55,105.02 381.07,104.73 382.59,104.61 384.11,104.24 385.63,103.67 387.15,103.54 388.67,103.34 390.19,103.03 391.71,102.75 393.23,102.64 394.75,102.44 396.27,102.30 397.79,101.95 399.31,101.64 400.83,101.27 402.35,100.66 403.87,100.31 405.39,98.57 406.91,97.25 408.43,96.41 409.95,95.69 411.47,94.89 412.99,94.89 414.51,94.89 416.03,94.89 417.55,94.38 419.07,94.08 420.59,93.44 422.11,92.69 423.63,91.68 425.15,90.07 426.66,89.17 428.18,87.53 429.70,86.57 431.22,85.96 432.74,84.96 434.26,84.18 435.78,82.85 437.30,80.91 438.82,80.34 440.34,79.52 441.86,78.82 443.38,78.58 444.90,77.68 446.42,77.52 447.94,76.45 449.46,75.47 450.98,74.88 452.50,74.20 454.02,73.26 455.54,72.98 457.06,72.85 458.58,72.71 460.10,72.59 461.62,71.85 463.14,71.01 464.66,69.68 466.18,69.28 467.70,68.60 469.22,67.48 470.74,65.00 472.26,63.12 473.78,61.02 475.30,60.57 476.82,59.65 478.34,57.79 479.86,56.66 481.38,56.03 482.90,55.09 484.42,54.60 485.94,53.92 487.46,53.61 488.98,52.55 490.50,50.96 492.02,49.46 493.54,49.01 495.06,48.22 496.58,46.81 498.09,45.76 499.61,44.19 501.13,43.39 502.65,41.78 504.17,39.65 505.69,37.83 507.21,33.97 508.73,31.25" />
    </svg>
  