
    <svg width="540" height="160" xmlns="http://www.w3.org/2000/svg">
      <style>.line{fill:none;stroke:#388bfd;stroke-width:1.5}.axis{stroke:#555;stroke-width:1;opacity:0.5}.label{fill:#999;font-family:sans-serif;font-size:10px;text-anchor:middle}</style>
      <line class="axis" x1="30" y1="30" x2="30" y2="130" />
      <line class="axis" x1="30" y1="130" x2="510" y2="130" />
      <text class="label" x="15" y="30">4,984</text>
      <text class="label" x="15" y="134">0</text>
      <text class="label" x="30" y="148">2021</text>
      <text class="label" x="510" y="148">2026</text>
      <polyline class="line" points="30.00,129.96 31.53,129.94 33.05,129.92 34.58,129.92 36.10,129.92 37.63,129.66 39.15,129.66 40.68,129.66 42.20,128.21 43.73,125.83 45.25,125.71 46.78,125.71 48.31,125.71 49.83,125.71 51.36,125.71 52.88,125.71 54.41,125.71 55.93,125.71 57.46,125.71 58.98,125.71 60.51,125.71 62.03,125.71 63.56,125.71 65.08,125.71 66.61,125.71 68.14,125.71 69.66,125.71 71.19,124.34 72.71,124.34 74.24,124.32 75.76,124.32 77.29,124.32 78.81,124.32 80.34,124.24 81.86,124.24 83.39,124.24 84.92,124.24 86.44,124.24 87.97,124.24 89.49,124.24 91.02,124.24 92.54,124.24 94.07,124.24 95.59,124.24 97.12,124.24 98.64,124.24 100.17,124.24 101.69,124.24 103.22,124.24 104.75,124.24 106.27,124.24 107.80,124.16 109.32,122.94 110.85,121.81 112.37,121.35 113.90,119.13 115.42,119.13 116.95,119.13 118.47,119.13 120.00,119.13 121.53,119.13 123.05,119.13 124.58,119.13 126.10,119.13 127.63,119.13 129.15,119.13 130.68,119.13 132.20,118.96 133.73,118.96 135.25,118.96 136.78,118.76 138.31,118.76 139.83,118.76 141.36,118.76 142.88,118.70 144.41,118.70 145.93,118.70 147.46,118.70 148.98,118.66 150.51,118.66 152.03,118.66 153.56,118.66 155.08,118.66 156.61,118.66 158.14,118.66 159.66,118.66 161.19,118.66 162.71,118.66 164.24,118.66 165.76,118.66 167.29,118.66 168.81,118.66 170.34,118.66 171.86,118.66 173.39,118.66 174.92,118.66 176.44,118.66 177.97,118.66 179.49,118.66 181.02,118.66 182.54,118.66 184.07,118.60 185.59,118.60 187.12,118.60 188.64,118.60 190.17,118.60 191.69,118.60 193.22,118.60 194.75,118.60 196.27,118.60 197.80,118.60 199.32,118.60 200.85,118.60 202.37,118.60 203.90,118.60 205.42,118.60 206.95,118.56 208.47,118.04 210.00,117.90 211.53,117.68 213.05,117.40 214.58,117.32 216.10,117.32 217.63,117.32 219.15,116.88 220.68,116.84 222.20,116.56 223.73,116.46 225.25,116.28 226.78,115.57 228.31,115.53 229.83,115.43 231.36,115.41 232.88,115.31 234.41,115.31 235.93,115.27 237.46,115.27 238.98,115.27 240.51,115.27 242.03,115.27 243.56,115.27 245.08,115.27 246.61,115.05 248.14,114.41 249.66,113.93 251.19,113.79 252.71,113.49 254.24,113.47 255.76,113.43 257.29,113.41 258.81,113.41 260.34,113.41 261.86,113.27 263.39,113.13 264.92,113.09 266.44,113.05 267.97,113.01 269.49,112.54 271.02,112.22 272.54,111.74 274.07,111.44 275.59,111.22 277.12,111.12 278.64,111.00 280.17,110.98 281.69,110.88 283.22,110.58 284.75,110.58 286.27,110.58 287.80,110.56 289.32,110.54 290.85,110.54 292.37,110.38 293.90,110.34 295.42,110.32 296.95,110.30 298.47,110.26 300.00,110.26 301.53,110.26 303.05,110.26 304.58,110.26 306.10,110.26 307.63,110.26 309.15,110.26 310.68,110.20 312.20,110.14 313.73,110.14 315.25,109.78 316.78,109.76 318.31,109.74 319.83,109.67 321.36,109.49 322.88,109.05 324.41,108.97 325.93,108.97 327.46,108.97 328.98,108.97 330.51,108.97 332.03,108.97 333.56,108.97 335.08,108.97 336.61,108.97 338.14,108.97 339.66,108.97 341.19,108.97 342.71,108.97 344.24,108.95 345.76,108.83 347.29,108.81 348.81,108.81 350.34,108.81 351.86,108.81 353.39,108.73 354.92,108.73 356.44,108.41 357.97,108.11 359.49,108.11 361.02,108.11 362.54,108.11 364.07,108.11 365.59,108.07 367.12,108.07 368.64,108.03 370.17,107.89 371.69,107.77 373.22,107.23 374.75,107.21 376.27,106.38 377.80,105.90 379.32,105.54 380.85,104.40 382.37,104.10 383.90,103.98 385.42,103.60 386.95,103.01 388.47,102.87 390.00,102.67 391.53,102.35 393.05,102.07 394.58,101.95 396.10,101.75 397.63,101.61 399.15,101.25 400.68,100.93 402.20,100.55 403.73,99.92 405.25,99.56 406.78,97.78 408.31,96.43 409.83,95.57 411.36,94.83 412.88,94.00 414.41,94.00 415.93,94.00 417.46,94.00 418.98,93.48 420.51,93.18 422.03,92.52 423.56,91.76 425.08,90.71 426.61,89.07 428.14,88.15 429.66,86.46 431.19,85.48 432.71,84.86 434.24,83.83 435.76,83.03 437.29,81.67 438.81,79.68 440.34,79.10 441.86,78.25 443.39,77.53 444.92,77.29 446.44,76.37 447.97,76.21 449.49,75.10 451.02,74.10 452.54,73.50 454.07,72.80 455.59,71.83 457.12,71.55 458.64,71.41 460.17,71.27 461.69,71.15 463.22,70.39 464.75,69.53 466.27,68.16 467.80,67.76 469.32,67.06 470.85,65.91 472.37,63.37 473.90,61.44 475.42,59.29 476.95,58.83 478.47,57.89 480.00,55.98 481.53,54.82 483.05,54.18 484.58,53.21 486.10,52.71 487.63,52.01 489.15,51.69 490.68,50.61 492.20,48.98 493.73,47.44 495.25,46.97 496.78,46.17 498.31,44.73 499.83,43.64 501.36,42.04 502.88,41.22 504.41,39.57 505.93,37.38 507.46,35.52 508.98,31.57" />
    </svg>
  