
    <svg width="540" height="160" xmlns="http://www.w3.org/2000/svg">
      <style>.line{fill:none;stroke:#388bfd;stroke-width:1.5}.axis{stroke:#555;stroke-width:1;opacity:0.5}.label{fill:#999;font-family:sans-serif;font-size:10px;text-anchor:middle}</style>
      <line class="axis" x1="30" y1="30" x2="30" y2="130" />
      <line class="axis" x1="30" y1="130" x2="510" y2="130" />
      <text class="label" x="15" y="30">8,067</text>
      <text class="label" x="15" y="134">0</text>
      <text class="label" x="30" y="148">2021</text>
      <text class="label" x="510" y="148">2026</text>
      <polyline class="line" points="30.00,129.98 31.48,129.96 32.96,129.95 34.44,129.95 35.92,129.95 37.40,129.79 38.88,129.79 40.36,129.79 41.84,128.90 43.32,127.42 44.80,127.35 46.28,127.35 47.76,127.35 49.24,127.35 50.72,127.35 52.20,127.35 53.68,127.35 55.16,127.35 56.64,127.35 58.12,127.35 59.60,127.35 61.08,127.35 62.56,127.35 64.04,127.35 65.52,127.35 67.00,127.35 68.48,127.35 69.96,126.50 71.44,126.50 72.92,126.49 74.40,126.49 75.88,126.49 77.36,126.49 78.84,126.44 80.32,126.44 81.80,126.44 83.28,126.44 84.76,126.44 86.24,126.44 87.72,126.44 89.20,126.44 90.68,126.44 92.16,126.44 93.64,126.44 95.12,126.44 96.60,126.44 98.08,126.44 99.56,126.44 101.04,126.44 102.52,126.44 104.00,126.44 105.48,126.39 106.96,125.64 108.44,124.94 109.92,124.66 111.40,123.28 112.88,123.28 114.36,123.28 115.84,123.28 117.32,123.28 118.80,123.28 120.28,123.28 121.76,123.28 123.24,123.28 124.72,123.28 126.20,123.28 127.68,123.28 129.16,123.18 130.64,123.18 132.12,123.18 133.60,123.06 135.08,123.06 136.56,123.06 138.04,123.06 139.52,123.02 141.00,123.02 142.48,123.02 143.96,123.02 145.44,123.00 146.92,123.00 148.40,123.00 149.88,123.00 151.36,123.00 152.84,123.00 154.32,123.00 155.80,123.00 157.28,123.00 158.76,123.00 160.24,123.00 161.72,123.00 163.20,123.00 164.68,123.00 166.16,123.00 167.64,123.00 169.12,123.00 170.60,123.00 172.08,123.00 173.56,123.00 175.04,123.00 176.52,123.00 178.00,123.00 179.48,122.96 180.96,122.96 182.44,122.96 183.92,122.96 185.40,122.96 186.88,122.96 188.36,122.96 189.84,122.96 191.32,122.96 192.80,122.96 194.28,122.96 195.76,122.96 197.24,122.96 198.72,122.96 200.20,122.96 201.68,122.93 203.16,122.61 204.64,122.53 206.12,122.39 207.60,122.22 209.08,122.17 210.55,122.17 212.03,122.17 213.51,121.89 214.99,121.87 216.47,121.69 217.95,121.63 219.43,121.52 220.91,121.09 222.39,121.06 223.87,121.00 225.35,120.99 226.83,120.93 228.31,120.93 229.79,120.90 231.27,120.90 232.75,120.90 234.23,120.90 235.71,120.90 237.19,120.90 238.67,120.90 240.15,120.76 241.63,120.37 243.11,120.07 244.59,119.98 246.07,119.80 247.55,119.79 249.03,119.76 250.51,119.75 251.99,119.75 253.47,119.75 254.95,119.66 256.43,119.57 257.91,119.55 259.39,119.53 260.87,119.50 262.35,119.22 263.83,119.02 265.31,118.72 266.79,118.53 268.27,118.40 269.75,118.34 271.23,118.26 272.71,118.25 274.19,118.19 275.67,118.00 277.15,118.00 278.63,118.00 280.11,117.99 281.59,117.98 283.07,117.98 284.55,117.88 286.03,117.85 287.51,117.84 288.99,117.83 290.47,117.80 291.95,117.80 293.43,117.80 294.91,117.80 296.39,117.80 297.87,117.80 299.35,117.80 300.83,117.80 302.31,117.76 303.79,117.73 305.27,117.73 306.75,117.50 308.23,117.49 309.71,117.48 311.19,117.44 312.67,117.33 314.15,117.06 315.63,117.01 317.11,117.01 318.59,117.01 320.07,117.01 321.55,117.01 323.03,117.01 324.51,117.01 325.99,117.01 327.47,117.01 328.95,117.01 330.43,117.01 331.91,117.01 333.39,117.01 334.87,117.00 336.35,116.92 337.83,116.91 339.31,116.91 340.79,116.91 342.27,116.91 343.75,116.86 345.23,116.86 346.71,116.66 348.19,116.48 349.67,116.48 351.15,116.48 352.63,116.48 354.11,116.48 355.59,116.45 357.07,116.45 358.55,116.43 360.03,116.34 361.51,116.27 362.99,115.93 364.47,115.92 365.95,115.41 367.43,115.11 368.91,114.89 370.39,114.18 371.87,114.00 373.35,113.92 374.83,113.69 376.31,113.33 377.79,113.24 379.27,113.12 380.75,112.92 382.23,112.74 383.71,112.67 385.19,112.55 386.67,112.46 388.15,112.24 389.63,112.04 391.11,111.80 392.59,111.42 394.07,111.19 395.55,110.09 397.03,109.26 398.51,108.73 399.99,108.27 401.47,107.76 402.95,107.76 404.43,107.76 405.91,107.76 407.39,107.44 408.87,107.25 410.35,106.58 411.83,105.83 413.31,104.95 414.79,103.62 416.27,102.69 417.75,100.78 419.23,99.63 420.71,98.86 422.19,97.62 423.67,96.83 425.15,95.25 426.63,92.87 428.11,92.15 429.59,91.22 431.07,90.33 432.55,90.03 434.03,88.89 435.51,88.70 436.99,87.33 438.47,86.09 439.95,85.35 441.43,84.51 442.91,83.39 444.39,83.09 445.87,82.99 447.35,82.87 448.83,82.80 450.31,82.09 451.79,81.17 453.27,80.06 454.75,79.75 456.23,78.84 457.71,77.68 459.19,75.36 460.67,73.65 462.15,71.54 463.63,70.98 465.11,69.87 466.59,67.80 468.07,66.62 469.55,65.97 471.03,65.07 472.51,64.47 473.99,63.62 475.47,63.22 476.95,62.35 478.43,60.71 479.91,58.88 481.39,58.33 482.87,57.38 484.35,55.87 485.83,54.98 487.31,53.17 488.79,52.21 490.27,50.35 491.75,48.47 493.23,46.49 494.71,43.13 496.19,40.86 497.67,38.90 499.15,37.64 500.63,36.02 502.11,34.59 503.59,33.90 505.07,32.69 506.55,31.24 508.03,30.92 509.51,30.00" />
    </svg>
  