
    <svg width="540" height="160" xmlns="http://www.w3.org/2000/svg">
      <style>.line{fill:none;stroke:#388bfd;stroke-width:1.5}.axis{stroke:#555;stroke-width:1;opacity:0.5}.label{fill:#999;font-family:sans-serif;font-size:10px;text-anchor:middle}</style>
      <line class="axis" x1="30" y1="30" x2="30" y2="130" />
      <line class="axis" x1="30" y1="130" x2="510" y2="130" />
      <text class="label" x="15" y="30">9,213</text>
      <text class="label" x="15" y="134">0</text>
      <text class="label" x="30" y="148">2021</text>
      <text class="label" x="510" y="148">2026</text>
      <polyline class="line" points="30.00,129.98 31.45,129.97 32.90,129.96 34.36,129.96 35.81,129.96 37.26,129.82 38.71,129.82 40.17,129.82 41.62,129.03 43.07,127.74 44.52,127.68 45.98,127.68 47.43,127.68 48.88,127.68 50.33,127.68 51.79,127.68 53.24,127.68 54.69,127.68 56.14,127.68 57.59,127.68 59.05,127.68 60.50,127.68 61.95,127.68 63.40,127.68 64.86,127.68 66.31,127.68 67.76,127.68 69.21,126.94 70.67,126.94 72.12,126.93 73.57,126.93 75.02,126.93 76.48,126.93 77.93,126.88 79.38,126.88 80.83,126.88 82.28,126.88 83.74,126.88 85.19,126.88 86.64,126.88 88.09,126.88 89.55,126.88 91.00,126.88 92.45,126.88 93.90,126.88 95.36,126.88 96.81,126.88 98.26,126.88 99.71,126.88 101.16,126.88 102.62,126.88 104.07,126.84 105.52,126.18 106.97,125.57 108.43,125.32 109.88,124.12 111.33,124.12 112.78,124.12 114.24,124.12 115.69,124.12 117.14,124.12 118.59,124.12 120.05,124.12 121.50,124.12 122.95,124.12 124.40,124.12 125.85,124.12 127.31,124.03 128.76,124.03 130.21,124.03 131.66,123.92 133.12,123.92 134.57,123.92 136.02,123.92 137.47,123.89 138.93,123.89 140.38,123.89 141.83,123.89 143.28,123.87 144.74,123.87 146.19,123.87 147.64,123.87 149.09,123.87 150.54,123.87 152.00,123.87 153.45,123.87 154.90,123.87 156.35,123.87 157.81,123.87 159.26,123.87 160.71,123.87 162.16,123.87 163.62,123.87 165.07,123.87 166.52,123.87 167.97,123.87 169.43,123.87 170.88,123.87 172.33,123.87 173.78,123.87 175.23,123.87 176.69,123.83 178.14,123.83 179.59,123.83 181.04,123.83 182.50,123.83 183.95,123.83 185.40,123.83 186.85,123.83 188.31,123.83 189.76,123.83 191.21,123.83 192.66,123.83 194.11,123.83 195.57,123.83 197.02,123.83 198.47,123.81 199.92,123.53 201.38,123.45 202.83,123.34 204.28,123.18 205.73,123.14 207.19,123.14 208.64,123.14 210.09,122.90 211.54,122.88 213.00,122.73 214.45,122.67 215.90,122.58 217.35,122.20 218.80,122.17 220.26,122.12 221.71,122.11 223.16,122.05 224.61,122.05 226.07,122.03 227.52,122.03 228.97,122.03 230.42,122.03 231.88,122.03 233.33,122.03 234.78,122.03 236.23,121.91 237.69,121.57 239.14,121.31 240.59,121.23 242.04,121.07 243.49,121.06 244.95,121.03 246.40,121.02 247.85,121.02 249.30,121.02 250.76,120.95 252.21,120.87 253.66,120.85 255.11,120.83 256.57,120.81 258.02,120.56 259.47,120.38 260.92,120.12 262.38,119.96 263.83,119.84 265.28,119.79 266.73,119.72 268.18,119.71 269.64,119.66 271.09,119.49 272.54,119.49 273.99,119.49 275.45,119.48 276.90,119.47 278.35,119.47 279.80,119.38 281.26,119.36 282.71,119.35 284.16,119.34 285.61,119.32 287.07,119.32 288.52,119.32 289.97,119.32 291.42,119.32 292.87,119.32 294.33,119.32 295.78,119.32 297.23,119.29 298.68,119.25 300.14,119.25 301.59,119.06 303.04,119.05 304.49,119.04 305.95,119.00 307.40,118.91 308.85,118.67 310.30,118.62 311.75,118.62 313.21,118.62 314.66,118.62 316.11,118.62 317.56,118.62 319.02,118.62 320.47,118.62 321.92,118.62 323.37,118.62 324.83,118.62 326.28,118.62 327.73,118.62 329.18,118.61 330.64,118.55 332.09,118.54 333.54,118.54 334.99,118.54 336.44,118.54 337.90,118.49 339.35,118.49 340.80,118.32 342.25,118.16 343.71,118.16 345.16,118.16 346.61,118.16 348.06,118.16 349.52,118.14 350.97,118.14 352.42,118.11 353.87,118.04 355.33,117.97 356.78,117.68 358.23,117.67 359.68,117.22 361.13,116.96 362.59,116.77 364.04,116.15 365.49,115.99 366.94,115.92 368.40,115.72 369.85,115.40 371.30,115.33 372.75,115.22 374.21,115.04 375.66,114.89 377.11,114.83 378.56,114.72 380.02,114.64 381.47,114.45 382.92,114.27 384.37,114.07 385.82,113.73 387.28,113.53 388.73,112.57 390.18,111.84 391.63,111.37 393.09,110.97 394.54,110.53 395.99,110.53 397.44,110.53 398.90,110.53 400.35,110.25 401.80,110.08 403.25,109.50 404.70,108.83 406.16,108.06 407.61,106.90 409.06,106.09 410.51,104.42 411.97,103.41 413.42,102.73 414.87,101.65 416.32,100.95 417.78,99.58 419.23,97.49 420.68,96.86 422.13,96.05 423.59,95.27 425.04,95.01 426.49,94.01 427.94,93.83 429.39,92.64 430.85,91.55 432.30,90.90 433.75,90.16 435.20,89.19 436.66,88.93 438.11,88.84 439.56,88.73 441.01,88.67 442.47,88.05 443.92,87.25 445.37,86.27 446.82,86.00 448.28,85.20 449.73,84.18 451.18,82.15 452.63,80.66 454.08,78.81 455.54,78.32 456.99,77.35 458.44,75.53 459.89,74.50 461.35,73.94 462.80,73.15 464.25,72.62 465.70,71.88 467.16,71.53 468.61,70.77 470.06,69.32 471.51,67.73 472.97,67.24 474.42,66.34 475.87,64.69 477.32,63.84 478.77,61.79 480.23,60.82 481.68,59.04 483.13,57.30 484.58,55.20 486.04,52.06 487.49,49.97 488.94,48.18 490.39,47.03 491.85,45.54 493.30,44.21 494.75,43.56 496.20,42.47 497.66,41.16 499.11,40.42 500.56,39.29 502.01,38.43 503.46,37.62 504.92,36.39 506.37,34.16 507.82,32.42 509.27,30.91" />
    </svg>
  