
    <svg width="540" height="160" xmlns="http://www.w3.org/2000/svg">
      <style>.line{fill:none;stroke:#388bfd;stroke-width:1.5}.axis{stroke:#555;stroke-width:1;opacity:0.5}.label{fill:#999;font-family:sans-serif;font-size:10px;text-anchor:middle}</style>
      <line class="axis" x1="30" y1="30" x2="30" y2="130" />
      <line class="axis" x1="30" y1="130" x2="510" y2="130" />
      <text class="label" x="15" y="30">5,127</text>
      <text class="label" x="15" y="134">0</text>
      <text class="label" x="30" y="148">2021</text>
      <text class="label" x="510" y="148">2026</text>
      <polyline class="line" points="30.00,129.96 31.52,129.94 33.04,129.92 34.55,129.92 36.07,129.92 37.59,129.67 39.11,129.67 40.63,129.67 42.15,128.26 43.66,125.94 45.18,125.83 46.70,125.83 48.22,125.83 49.74,125.83 51.25,125.83 52.77,125.83 54.29,125.83 55.81,125.83 57.33,125.83 58.85,125.83 60.36,125.83 61.88,125.83 63.40,125.83 64.92,125.83 66.44,125.83 67.95,125.83 69.47,125.83 70.99,124.50 72.51,124.50 74.03,124.48 75.55,124.48 77.06,124.48 78.58,124.48 80.10,124.40 81.62,124.40 83.14,124.40 84.65,124.40 86.17,124.40 87.69,124.40 89.21,124.40 90.73,124.40 92.25,124.40 93.76,124.40 95.28,124.40 96.80,124.40 98.32,124.40 99.84,124.40 101.35,124.40 102.87,124.40 104.39,124.40 105.91,124.40 107.43,124.32 108.95,123.13 110.46,122.04 111.98,121.59 113.50,119.43 115.02,119.43 116.54,119.43 118.05,119.43 119.57,119.43 121.09,119.43 122.61,119.43 124.13,119.43 125.65,119.43 127.16,119.43 128.68,119.43 130.20,119.43 131.72,119.27 133.24,119.27 134.75,119.27 136.27,119.08 137.79,119.08 139.31,119.08 140.83,119.08 142.35,119.02 143.86,119.02 145.38,119.02 146.90,119.02 148.42,118.98 149.94,118.98 151.45,118.98 152.97,118.98 154.49,118.98 156.01,118.98 157.53,118.98 159.05,118.98 160.56,118.98 162.08,118.98 163.60,118.98 165.12,118.98 166.64,118.98 168.15,118.98 169.67,118.98 171.19,118.98 172.71,118.98 174.23,118.98 175.75,118.98 177.26,118.98 178.78,118.98 180.30,118.98 181.82,118.98 183.34,118.92 184.86,118.92 186.37,118.92 187.89,118.92 189.41,118.92 190.93,118.92 192.45,118.92 193.96,118.92 195.48,118.92 197.00,118.92 198.52,118.92 200.04,118.92 201.56,118.92 203.07,118.92 204.59,118.92 206.11,118.88 207.63,118.38 209.15,118.24 210.66,118.02 212.18,117.75 213.70,117.67 215.22,117.67 216.74,117.67 218.26,117.24 219.77,117.20 221.29,116.93 222.81,116.83 224.33,116.66 225.85,115.98 227.36,115.94 228.88,115.84 230.40,115.82 231.92,115.72 233.44,115.72 234.96,115.68 236.47,115.68 237.99,115.68 239.51,115.68 241.03,115.68 242.55,115.68 244.06,115.68 245.58,115.47 247.10,114.84 248.62,114.38 250.14,114.24 251.66,113.95 253.17,113.93 254.69,113.89 256.21,113.87 257.73,113.87 259.25,113.87 260.76,113.73 262.28,113.60 263.80,113.56 265.32,113.52 266.84,113.48 268.36,113.03 269.87,112.72 271.39,112.25 272.91,111.96 274.43,111.74 275.95,111.65 277.46,111.53 278.98,111.51 280.50,111.41 282.02,111.12 283.54,111.12 285.06,111.12 286.57,111.10 288.09,111.08 289.61,111.08 291.13,110.92 292.65,110.89 294.16,110.87 295.68,110.85 297.20,110.81 298.72,110.81 300.24,110.81 301.76,110.81 303.27,110.81 304.79,110.81 306.31,110.81 307.83,110.81 309.35,110.75 310.86,110.69 312.38,110.69 313.90,110.34 315.42,110.32 316.94,110.30 318.46,110.24 319.97,110.07 321.49,109.64 323.01,109.56 324.53,109.56 326.05,109.56 327.56,109.56 329.08,109.56 330.60,109.56 332.12,109.56 333.64,109.56 335.16,109.56 336.67,109.56 338.19,109.56 339.71,109.56 341.23,109.56 342.75,109.54 344.26,109.42 345.78,109.40 347.30,109.40 348.82,109.40 350.34,109.40 351.86,109.33 353.37,109.33 354.89,109.01 356.41,108.72 357.93,108.72 359.45,108.72 360.96,108.72 362.48,108.72 364.00,108.68 365.52,108.68 367.04,108.64 368.56,108.51 370.07,108.39 371.59,107.86 373.11,107.84 374.63,107.04 376.15,106.57 377.66,106.22 379.18,105.11 380.70,104.82 382.22,104.70 383.74,104.33 385.26,103.77 386.77,103.63 388.29,103.43 389.81,103.12 391.33,102.85 392.85,102.73 394.36,102.54 395.88,102.40 397.40,102.05 398.92,101.74 400.44,101.37 401.96,100.76 403.47,100.41 404.99,98.68 406.51,97.37 408.03,96.53 409.55,95.81 411.06,95.01 412.58,95.01 414.10,95.01 415.62,95.01 417.14,94.50 418.66,94.21 420.17,93.57 421.69,92.82 423.21,91.81 424.73,90.21 426.25,89.31 427.76,87.68 429.28,86.72 430.80,86.11 432.32,85.12 433.84,84.34 435.36,83.01 436.87,81.08 438.39,80.52 439.91,79.70 441.43,79.00 442.95,78.76 444.46,77.86 445.98,77.71 447.50,76.64 449.02,75.66 450.54,75.08 452.06,74.39 453.57,73.46 455.09,73.18 456.61,73.05 458.13,72.91 459.65,72.79 461.16,72.05 462.68,71.21 464.20,69.89 465.72,69.50 467.24,68.81 468.76,67.70 470.27,65.23 471.79,63.35 473.31,61.27 474.83,60.82 476.35,59.90 477.87,58.05 479.38,56.92 480.90,56.29 482.42,55.36 483.94,54.87 485.46,54.19 486.97,53.87 488.49,52.82 490.01,51.24 491.53,49.74 493.05,49.29 494.57,48.51 496.08,47.11 497.60,46.05 499.12,44.49 500.64,43.69 502.16,42.09 503.67,39.97 505.19,38.15 506.71,34.31 508.23,31.60 509.75,30.10" />
    </svg>
  