
    <svg width="540" height="160" xmlns="http://www.w3.org/2000/svg">
      <style>.line{fill:none;stroke:#388bfd;stroke-width:1.5}.axis{stroke:#555;stroke-width:1;opacity:0.5}.label{fill:#999;font-family:sans-serif;font-size:10px;text-anchor:middle}</style>
      <line class="axis" x1="30" y1="30" x2="30" y2="130" />
      <line class="axis" x1="30" y1="130" x2="510" y2="130" />
      <text class="label" x="15" y="30">7,830</text>
      <text class="label" x="15" y="134">0</text>
      <text class="label" x="30" y="148">2021</text>
      <text class="label" x="510" y="148">2026</text>
      <polyline class="line" points="30.00,129.97 31.49,129.96 32.98,129.95 34.47,129.95 35.96,129.95 37.45,129.78 38.93,129.78 40.42,129.78 41.91,128.86 43.40,127.34 44.89,127.27 46.38,127.27 47.87,127.27 49.36,127.27 50.85,127.27 52.34,127.27 53.83,127.27 55.32,127.27 56.80,127.27 58.29,127.27 59.78,127.27 61.27,127.27 62.76,127.27 64.25,127.27 65.74,127.27 67.23,127.27 68.72,127.27 70.21,126.40 71.70,126.40 73.19,126.39 74.67,126.39 76.16,126.39 77.65,126.39 79.14,126.33 80.63,126.33 82.12,126.33 83.61,126.33 85.10,126.33 86.59,126.33 88.08,126.33 89.57,126.33 91.05,126.33 92.54,126.33 94.03,126.33 95.52,126.33 97.01,126.33 98.50,126.33 99.99,126.33 101.48,126.33 102.97,126.33 104.46,126.33 105.95,126.28 107.44,125.50 108.92,124.79 110.41,124.50 111.90,123.08 113.39,123.08 114.88,123.08 116.37,123.08 117.86,123.08 119.35,123.08 120.84,123.08 122.33,123.08 123.82,123.08 125.31,123.08 126.79,123.08 128.28,123.08 129.77,122.98 131.26,122.98 132.75,122.98 134.24,122.85 135.73,122.85 137.22,122.85 138.71,122.85 140.20,122.81 141.69,122.81 143.17,122.81 144.66,122.81 146.15,122.78 147.64,122.78 149.13,122.78 150.62,122.78 152.11,122.78 153.60,122.78 155.09,122.78 156.58,122.78 158.07,122.78 159.56,122.78 161.04,122.78 162.53,122.78 164.02,122.78 165.51,122.78 167.00,122.78 168.49,122.78 169.98,122.78 171.47,122.78 172.96,122.78 174.45,122.78 175.94,122.78 177.43,122.78 178.91,122.78 180.40,122.75 181.89,122.75 183.38,122.75 184.87,122.75 186.36,122.75 187.85,122.75 189.34,122.75 190.83,122.75 192.32,122.75 193.81,122.75 195.29,122.75 196.78,122.75 198.27,122.75 199.76,122.75 201.25,122.75 202.74,122.72 204.23,122.39 205.72,122.30 207.21,122.16 208.70,121.98 210.19,121.93 211.68,121.93 213.16,121.93 214.65,121.65 216.14,121.62 217.63,121.44 219.12,121.38 220.61,121.26 222.10,120.82 223.59,120.79 225.08,120.73 226.57,120.72 228.06,120.65 229.54,120.65 231.03,120.63 232.52,120.63 234.01,120.63 235.50,120.63 236.99,120.63 238.48,120.63 239.97,120.63 241.46,120.49 242.95,120.08 244.44,119.77 245.93,119.68 247.41,119.49 248.90,119.48 250.39,119.45 251.88,119.44 253.37,119.44 254.86,119.44 256.35,119.35 257.84,119.26 259.33,119.23 260.82,119.21 262.31,119.18 263.80,118.89 265.28,118.68 266.77,118.38 268.26,118.19 269.75,118.05 271.24,117.98 272.73,117.91 274.22,117.89 275.71,117.83 277.20,117.64 278.69,117.64 280.18,117.64 281.66,117.62 283.15,117.61 284.64,117.61 286.13,117.51 287.62,117.48 289.11,117.47 290.60,117.46 292.09,117.43 293.58,117.43 295.07,117.43 296.56,117.43 298.05,117.43 299.53,117.43 301.02,117.43 302.51,117.43 304.00,117.39 305.49,117.36 306.98,117.36 308.47,117.13 309.96,117.11 311.45,117.10 312.94,117.06 314.43,116.95 315.92,116.67 317.40,116.62 318.89,116.62 320.38,116.62 321.87,116.62 323.36,116.62 324.85,116.62 326.34,116.62 327.83,116.62 329.32,116.62 330.81,116.62 332.30,116.62 333.78,116.62 335.27,116.62 336.76,116.60 338.25,116.53 339.74,116.51 341.23,116.51 342.72,116.51 344.21,116.51 345.70,116.46 347.19,116.46 348.68,116.26 350.17,116.07 351.65,116.07 353.14,116.07 354.63,116.07 356.12,116.07 357.61,116.04 359.10,116.04 360.59,116.02 362.08,115.93 363.57,115.85 365.06,115.50 366.55,115.49 368.04,114.97 369.52,114.66 371.01,114.43 372.50,113.70 373.99,113.51 375.48,113.44 376.97,113.19 378.46,112.82 379.95,112.73 381.44,112.61 382.93,112.40 384.42,112.22 385.90,112.15 387.39,112.02 388.88,111.93 390.37,111.70 391.86,111.49 393.35,111.25 394.84,110.86 396.33,110.63 397.82,109.49 399.31,108.63 400.80,108.08 402.29,107.61 403.77,107.09 405.26,107.09 406.75,107.09 408.24,107.09 409.73,106.76 411.22,106.56 412.71,105.87 414.20,105.10 415.69,104.19 417.18,102.82 418.67,101.86 420.16,99.90 421.64,98.71 423.13,97.92 424.62,96.64 426.11,95.82 427.60,94.20 429.09,91.75 430.58,91.01 432.07,90.05 433.56,89.13 435.05,88.83 436.54,87.65 438.02,87.45 439.51,86.04 441.00,84.76 442.49,84.00 443.98,83.13 445.47,81.98 446.96,81.67 448.45,81.57 449.94,81.44 451.43,81.37 452.92,80.64 454.41,79.69 455.89,78.54 457.38,78.22 458.87,77.29 460.36,76.09 461.85,73.70 463.34,71.94 464.83,69.77 466.32,69.20 467.81,68.05 469.30,65.91 470.79,64.70 472.28,64.04 473.76,63.10 475.25,62.49 476.74,61.61 478.23,61.20 479.72,60.31 481.21,58.61 482.70,56.73 484.19,56.16 485.68,55.19 487.17,53.63 488.66,52.71 490.14,50.84 491.63,49.86 493.12,47.94 494.61,46.00 496.10,43.96 497.59,40.50 499.08,38.39 500.57,36.37 502.06,35.25 503.55,33.59 505.04,32.17 506.53,31.69 508.01,30.91 509.50,30.01" />
    </svg>
  