
    <svg width="540" height="160" xmlns="http://www.w3.org/2000/svg">
      <style>.line{fill:none;stroke:#388bfd;stroke-width:1.5}.axis{stroke:#555;stroke-width:1;opacity:0.5}.label{fill:#999;font-family:sans-serif;font-size:10px;text-anchor:middle}</style>
      <line class="axis" x1="30" y1="30" x2="30" y2="130" />
      <line class="axis" x1="30" y1="130" x2="510" y2="130" />
      <text class="label" x="15" y="30">9,404</text>
      <text class="label" x="15" y="134">0</text>
      <text class="label" x="30" y="148">2021</text>
      <text class="label" x="510" y="148">2026</text>
      <polyline class="line" points="30.00,129.98 31.44,129.97 32.87,129.96 34.31,129.96 35.75,129.96 37.18,129.82 38.62,129.82 40.05,129.82 41.49,129.05 42.93,127.79 44.36,127.72 45.80,127.72 47.24,127.72 48.67,127.72 50.11,127.72 51.55,127.72 52.98,127.72 54.42,127.72 55.86,127.72 57.29,127.72 58.73,127.72 60.16,127.72 61.60,127.72 63.04,127.72 64.47,127.72 65.91,127.72 67.35,127.72 68.78,127.00 70.22,127.00 71.66,126.99 73.09,126.99 74.53,126.99 75.97,126.99 77.40,126.95 78.84,126.95 80.27,126.95 81.71,126.95 83.15,126.95 84.58,126.95 86.02,126.95 87.46,126.95 88.89,126.95 90.33,126.95 91.77,126.95 93.20,126.95 94.64,126.95 96.07,126.95 97.51,126.95 98.95,126.95 100.38,126.95 101.82,126.95 103.26,126.91 104.69,126.26 106.13,125.66 107.57,125.42 109.00,124.24 110.44,124.24 111.88,124.24 113.31,124.24 114.75,124.24 116.18,124.24 117.62,124.24 119.06,124.24 120.49,124.24 121.93,124.24 123.37,124.24 124.80,124.24 126.24,124.15 127.68,124.15 129.11,124.15 130.55,124.05 131.99,124.05 133.42,124.05 134.86,124.05 136.29,124.01 137.73,124.01 139.17,124.01 140.60,124.01 142.04,123.99 143.48,123.99 144.91,123.99 146.35,123.99 147.79,123.99 149.22,123.99 150.66,123.99 152.09,123.99 153.53,123.99 154.97,123.99 156.40,123.99 157.84,123.99 159.28,123.99 160.71,123.99 162.15,123.99 163.59,123.99 165.02,123.99 166.46,123.99 167.90,123.99 169.33,123.99 170.77,123.99 172.20,123.99 173.64,123.99 175.08,123.96 176.51,123.96 177.95,123.96 179.39,123.96 180.82,123.96 182.26,123.96 183.70,123.96 185.13,123.96 186.57,123.96 188.00,123.96 189.44,123.96 190.88,123.96 192.31,123.96 193.75,123.96 195.19,123.96 196.62,123.94 198.06,123.66 199.50,123.59 200.93,123.47 202.37,123.32 203.81,123.28 205.24,123.28 206.68,123.28 208.11,123.05 209.55,123.02 210.99,122.88 212.42,122.82 213.86,122.73 215.30,122.35 216.73,122.33 218.17,122.28 219.61,122.27 221.04,122.22 222.48,122.22 223.92,122.19 225.35,122.19 226.79,122.19 228.22,122.19 229.66,122.19 231.10,122.19 232.53,122.19 233.97,122.08 235.41,121.74 236.84,121.48 238.28,121.41 239.72,121.25 241.15,121.24 242.59,121.22 244.02,121.21 245.46,121.21 246.90,121.21 248.33,121.13 249.77,121.06 251.21,121.04 252.64,121.01 254.08,120.99 255.52,120.75 256.95,120.58 258.39,120.32 259.83,120.16 261.26,120.05 262.70,119.99 264.13,119.93 265.57,119.92 267.01,119.87 268.44,119.71 269.88,119.71 271.32,119.71 272.75,119.70 274.19,119.69 275.63,119.69 277.06,119.60 278.50,119.58 279.94,119.57 281.37,119.56 282.81,119.54 284.24,119.54 285.68,119.54 287.12,119.54 288.55,119.54 289.99,119.54 291.43,119.54 292.86,119.54 294.30,119.50 295.74,119.47 297.17,119.47 298.61,119.28 300.04,119.27 301.48,119.26 302.92,119.23 304.35,119.13 305.79,118.90 307.23,118.86 308.66,118.86 310.10,118.86 311.54,118.86 312.97,118.86 314.41,118.86 315.85,118.86 317.28,118.86 318.72,118.86 320.15,118.86 321.59,118.86 323.03,118.86 324.46,118.86 325.90,118.85 327.34,118.78 328.77,118.77 330.21,118.77 331.65,118.77 333.08,118.77 334.52,118.73 335.96,118.73 337.39,118.56 338.83,118.40 340.26,118.40 341.70,118.40 343.14,118.40 344.57,118.40 346.01,118.38 347.45,118.38 348.88,118.36 350.32,118.28 351.76,118.22 353.19,117.93 354.63,117.92 356.06,117.48 357.50,117.23 358.94,117.04 360.37,116.43 361.81,116.27 363.25,116.21 364.68,116.01 366.12,115.70 367.56,115.62 368.99,115.52 370.43,115.35 371.87,115.20 373.30,115.13 374.74,115.03 376.17,114.95 377.61,114.76 379.05,114.59 380.48,114.39 381.92,114.06 383.36,113.87 384.79,112.92 386.23,112.21 387.67,111.75 389.10,111.36 390.54,110.92 391.98,110.92 393.41,110.92 394.85,110.92 396.28,110.65 397.72,110.49 399.16,109.91 400.59,109.26 402.03,108.51 403.47,107.37 404.90,106.57 406.34,104.94 407.78,103.95 409.21,103.29 410.65,102.22 412.08,101.54 413.52,100.19 414.96,98.15 416.39,97.54 417.83,96.74 419.27,95.97 420.70,95.72 422.14,94.74 423.58,94.57 425.01,93.40 426.45,92.34 427.89,91.70 429.32,90.97 430.76,90.02 432.19,89.76 433.63,89.68 435.07,89.57 436.50,89.51 437.94,88.90 439.38,88.11 440.81,87.16 442.25,86.89 443.69,86.11 445.12,85.11 446.56,83.13 448.00,81.66 449.43,79.85 450.87,79.37 452.30,78.42 453.74,76.64 455.18,75.63 456.61,75.08 458.05,74.30 459.49,73.79 460.92,73.06 462.36,72.72 463.80,71.97 465.23,70.56 466.67,68.99 468.10,68.52 469.54,67.63 470.98,66.02 472.41,65.19 473.85,63.18 475.29,62.22 476.72,60.48 478.16,58.77 479.60,56.72 481.03,53.64 482.47,51.60 483.91,49.84 485.34,48.72 486.78,47.26 488.21,45.95 489.65,45.31 491.09,44.25 492.52,42.96 493.96,42.24 495.40,41.13 496.83,40.29 498.27,39.50 499.71,38.29 501.14,36.10 502.58,34.35 504.01,32.87 505.45,31.65 506.89,31.20 508.32,30.63 509.76,30.16" />
    </svg>
  