
    <svg width="540" height="160" xmlns="http://www.w3.org/2000/svg">
      <style>.line{fill:none;stroke:#388bfd;stroke-width:1.5}.axis{stroke:#555;stroke-width:1;opacity:0.5}.label{fill:#999;font-family:sans-serif;font-size:10px;text-anchor:middle}</style>
      <line class="axis" x1="30" y1="30" x2="30" y2="130" />
      <line class="axis" x1="30" y1="130" x2="510" y2="130" />
      <text class="label" x="15" y="30">4,154</text>
      <text class="label" x="15" y="134">0</text>
      <text class="label" x="30" y="148">2021</text>
      <text class="label" x="510" y="148">2026</text>
      <polyline class="line" points="30.00,129.95 31.53,129.93 33.06,129.90 34.59,129.90 36.12,129.90 37.65,129.59 39.18,129.59 40.71,129.59 42.24,127.86 43.77,124.99 45.29,124.85 46.82,124.85 48.35,124.85 49.88,124.85 51.41,124.85 52.94,124.85 54.47,124.85 56.00,124.85 57.53,124.85 59.06,124.85 60.59,124.85 62.12,124.85 63.65,124.85 65.18,124.85 66.71,124.85 68.24,124.85 69.77,124.85 71.30,123.21 72.83,123.21 74.35,123.19 75.88,123.19 77.41,123.19 78.94,123.19 80.47,123.09 82.00,123.09 83.53,123.09 85.06,123.09 86.59,123.09 88.12,123.09 89.65,123.09 91.18,123.09 92.71,123.09 94.24,123.09 95.77,123.09 97.30,123.09 98.83,123.09 100.36,123.09 101.89,123.09 103.41,123.09 104.94,123.09 106.47,123.09 108.00,122.99 109.53,121.53 111.06,120.18 112.59,119.62 114.12,116.95 115.65,116.95 117.18,116.95 118.71,116.95 120.24,116.95 121.77,116.95 123.30,116.95 124.83,116.95 126.36,116.95 127.89,116.95 129.42,116.95 130.95,116.95 132.47,116.76 134.00,116.76 135.53,116.76 137.06,116.52 138.59,116.52 140.12,116.52 141.65,116.52 143.18,116.45 144.71,116.45 146.24,116.45 147.77,116.45 149.30,116.40 150.83,116.40 152.36,116.40 153.89,116.40 155.42,116.40 156.95,116.40 158.48,116.40 160.01,116.40 161.53,116.40 163.06,116.40 164.59,116.40 166.12,116.40 167.65,116.40 169.18,116.40 170.71,116.40 172.24,116.40 173.77,116.40 175.30,116.40 176.83,116.40 178.36,116.40 179.89,116.40 181.42,116.40 182.95,116.40 184.48,116.33 186.01,116.33 187.54,116.33 189.07,116.33 190.59,116.33 192.12,116.33 193.65,116.33 195.18,116.33 196.71,116.33 198.24,116.33 199.77,116.33 201.30,116.33 202.83,116.33 204.36,116.33 205.89,116.33 207.42,116.28 208.95,115.65 210.48,115.48 212.01,115.22 213.54,114.88 215.07,114.79 216.60,114.79 218.13,114.79 219.65,114.26 221.18,114.21 222.71,113.87 224.24,113.75 225.77,113.53 227.30,112.69 228.83,112.64 230.36,112.52 231.89,112.50 233.42,112.38 234.95,112.38 236.48,112.33 238.01,112.33 239.54,112.33 241.07,112.33 242.60,112.33 244.13,112.33 245.66,112.33 247.19,112.07 248.71,111.30 250.24,110.72 251.77,110.55 253.30,110.19 254.83,110.16 256.36,110.12 257.89,110.09 259.42,110.09 260.95,110.09 262.48,109.92 264.01,109.75 265.54,109.71 267.07,109.66 268.60,109.61 270.13,109.06 271.66,108.67 273.19,108.09 274.72,107.73 276.25,107.47 277.77,107.35 279.30,107.20 280.83,107.18 282.36,107.06 283.89,106.70 285.42,106.70 286.95,106.70 288.48,106.67 290.01,106.65 291.54,106.65 293.07,106.46 294.60,106.41 296.13,106.38 297.66,106.36 299.19,106.31 300.72,106.31 302.25,106.31 303.78,106.31 305.31,106.31 306.83,106.31 308.36,106.31 309.89,106.31 311.42,106.24 312.95,106.17 314.48,106.17 316.01,105.73 317.54,105.71 319.07,105.69 320.60,105.61 322.13,105.40 323.66,104.87 325.19,104.77 326.72,104.77 328.25,104.77 329.78,104.77 331.31,104.77 332.84,104.77 334.37,104.77 335.89,104.77 337.42,104.77 338.95,104.77 340.48,104.77 342.01,104.77 343.54,104.77 345.07,104.75 346.60,104.60 348.13,104.58 349.66,104.58 351.19,104.58 352.72,104.58 354.25,104.48 355.78,104.48 357.31,104.10 358.84,103.74 360.37,103.74 361.90,103.74 363.43,103.74 364.95,103.74 366.48,103.69 368.01,103.69 369.54,103.64 371.07,103.47 372.60,103.33 374.13,102.68 375.66,102.65 377.19,101.67 378.72,101.09 380.25,100.65 381.78,99.28 383.31,99.07 384.84,99.02 386.37,99.02 387.90,99.02 389.43,99.02 390.96,98.97 392.49,98.85 394.01,98.85 395.54,98.85 397.07,98.85 398.60,98.85 400.13,98.85 401.66,98.80 403.19,98.75 404.72,98.75 406.25,98.75 407.78,98.70 409.31,98.70 410.84,98.51 412.37,98.42 413.90,98.42 415.43,98.42 416.96,98.42 418.49,98.42 420.02,98.42 421.55,98.42 423.07,97.89 424.60,97.33 426.13,96.88 427.66,96.25 429.19,95.53 430.72,93.82 432.25,92.76 433.78,92.01 435.31,90.78 436.84,89.82 438.37,88.18 439.90,85.83 441.43,85.13 442.96,84.12 444.49,83.25 446.02,82.96 447.55,81.85 449.08,81.66 450.61,80.34 452.13,79.13 453.66,78.41 455.19,77.57 456.72,76.41 458.25,76.08 459.78,75.91 461.31,75.74 462.84,75.59 464.37,74.68 465.90,73.64 467.43,72.01 468.96,71.53 470.49,70.68 472.02,69.31 473.55,66.25 475.08,63.94 476.61,61.37 478.14,60.81 479.67,59.68 481.19,57.40 482.72,56.00 484.25,55.23 485.78,54.07 487.31,53.47 488.84,52.63 490.37,52.24 491.90,50.94 493.43,48.99 494.96,47.14 496.49,46.59 498.02,45.62 499.55,43.89 501.08,42.59 502.61,40.66 504.14,39.68 505.67,37.70 507.20,35.08 508.73,32.84" />
    </svg>
  