
    <svg width="540" height="160" xmlns="http://www.w3.org/2000/svg">
      <style>.line{fill:none;stroke:#388bfd;stroke-width:1.5}.axis{stroke:#555;stroke-width:1;opacity:0.5}.label{fill:#999;font-family:sans-serif;font-size:10px;text-anchor:middle}</style>
      <line class="axis" x1="30" y1="30" x2="30" y2="130" />
      <line class="axis" x1="30" y1="130" x2="510" y2="130" />
      <text class="label" x="15" y="30">5,044</text>
      <text class="label" x="15" y="134">0</text>
      <text class="label" x="30" y="148">2021</text>
      <text class="label" x="510" y="148">2026</text>
      <polyline class="line" points="30.00,129.96 31.52,129.94 33.05,129.92 34.57,129.92 36.09,129.92 37.62,129.66 39.14,129.66 40.66,129.66 42.18,128.24 43.71,125.88 45.23,125.76 46.75,125.76 48.28,125.76 49.80,125.76 51.32,125.76 52.85,125.76 54.37,125.76 55.89,125.76 57.41,125.76 58.94,125.76 60.46,125.76 61.98,125.76 63.51,125.76 65.03,125.76 66.55,125.76 68.08,125.76 69.60,125.76 71.12,124.41 72.64,124.41 74.17,124.39 75.69,124.39 77.21,124.39 78.74,124.39 80.26,124.31 81.78,124.31 83.31,124.31 84.83,124.31 86.35,124.31 87.87,124.31 89.40,124.31 90.92,124.31 92.44,124.31 93.97,124.31 95.49,124.31 97.01,124.31 98.54,124.31 100.06,124.31 101.58,124.31 103.10,124.31 104.63,124.31 106.15,124.31 107.67,124.23 109.20,123.02 110.72,121.91 112.24,121.46 113.77,119.25 115.29,119.25 116.81,119.25 118.33,119.25 119.86,119.25 121.38,119.25 122.90,119.25 124.43,119.25 125.95,119.25 127.47,119.25 129.00,119.25 130.52,119.25 132.04,119.10 133.56,119.10 135.09,119.10 136.61,118.90 138.13,118.90 139.66,118.90 141.18,118.90 142.70,118.84 144.23,118.84 145.75,118.84 147.27,118.84 148.79,118.80 150.32,118.80 151.84,118.80 153.36,118.80 154.89,118.80 156.41,118.80 157.93,118.80 159.46,118.80 160.98,118.80 162.50,118.80 164.02,118.80 165.55,118.80 167.07,118.80 168.59,118.80 170.12,118.80 171.64,118.80 173.16,118.80 174.69,118.80 176.21,118.80 177.73,118.80 179.25,118.80 180.78,118.80 182.30,118.80 183.82,118.74 185.35,118.74 186.87,118.74 188.39,118.74 189.92,118.74 191.44,118.74 192.96,118.74 194.48,118.74 196.01,118.74 197.53,118.74 199.05,118.74 200.58,118.74 202.10,118.74 203.62,118.74 205.15,118.74 206.67,118.70 208.19,118.18 209.71,118.05 211.24,117.83 212.76,117.55 214.28,117.47 215.81,117.47 217.33,117.47 218.85,117.03 220.38,116.99 221.90,116.72 223.42,116.62 224.94,116.44 226.47,115.75 227.99,115.71 229.51,115.61 231.04,115.59 232.56,115.49 234.08,115.49 235.61,115.45 237.13,115.45 238.65,115.45 240.17,115.45 241.70,115.45 243.22,115.45 244.74,115.45 246.27,115.23 247.79,114.60 249.31,114.12 250.84,113.98 252.36,113.68 253.88,113.66 255.40,113.62 256.93,113.60 258.45,113.60 259.97,113.60 261.50,113.47 263.02,113.33 264.54,113.29 266.07,113.25 267.59,113.21 269.11,112.75 270.63,112.43 272.16,111.96 273.68,111.66 275.20,111.44 276.73,111.34 278.25,111.23 279.77,111.21 281.30,111.11 282.82,110.81 284.34,110.81 285.86,110.81 287.39,110.79 288.91,110.77 290.43,110.77 291.96,110.61 293.48,110.57 295.00,110.55 296.53,110.53 298.05,110.49 299.57,110.49 301.09,110.49 302.62,110.49 304.14,110.49 305.66,110.49 307.19,110.49 308.71,110.49 310.23,110.43 311.76,110.37 313.28,110.37 314.80,110.02 316.32,110.00 317.85,109.98 319.37,109.92 320.89,109.74 322.42,109.30 323.94,109.22 325.46,109.22 326.99,109.22 328.51,109.22 330.03,109.22 331.55,109.22 333.08,109.22 334.60,109.22 336.12,109.22 337.65,109.22 339.17,109.22 340.69,109.22 342.22,109.22 343.74,109.20 345.26,109.08 346.78,109.06 348.31,109.06 349.83,109.06 351.35,109.06 352.88,108.98 354.40,108.98 355.92,108.67 357.45,108.37 358.97,108.37 360.49,108.37 362.01,108.37 363.54,108.37 365.06,108.33 366.58,108.33 368.11,108.29 369.63,108.15 371.15,108.03 372.68,107.50 374.20,107.48 375.72,106.67 377.24,106.19 378.77,105.83 380.29,104.70 381.81,104.41 383.34,104.29 384.86,103.91 386.38,103.33 387.91,103.20 389.43,103.00 390.95,102.68 392.47,102.40 394.00,102.28 395.52,102.09 397.04,101.95 398.57,101.59 400.09,101.27 401.61,100.90 403.14,100.28 404.66,99.92 406.18,98.16 407.70,96.83 409.23,95.98 410.75,95.25 412.27,94.43 413.80,94.43 415.32,94.43 416.84,94.43 418.37,93.92 419.89,93.62 421.41,92.97 422.93,92.21 424.46,91.18 425.98,89.56 427.50,88.64 429.03,86.98 430.55,86.01 432.07,85.39 433.60,84.38 435.12,83.59 436.64,82.24 438.16,80.28 439.69,79.70 441.21,78.87 442.73,78.16 444.26,77.92 445.78,77.01 447.30,76.85 448.83,75.76 450.35,74.77 451.87,74.17 453.40,73.48 454.92,72.53 456.44,72.25 457.96,72.11 459.49,71.97 461.01,71.85 462.53,71.10 464.06,70.25 465.58,68.90 467.10,68.50 468.63,67.81 470.15,66.68 471.67,64.16 473.19,62.26 474.72,60.13 476.24,59.68 477.76,58.75 479.29,56.86 480.81,55.71 482.33,55.08 483.86,54.13 485.38,53.63 486.90,52.94 488.42,52.62 489.95,51.55 491.47,49.94 492.99,48.42 494.52,47.96 496.04,47.17 497.56,45.74 499.09,44.67 500.61,43.08 502.13,42.27 503.65,40.65 505.18,38.49 506.70,36.64 508.22,32.74 509.75,30.00" />
    </svg>
  