
    <svg width="540" height="160" xmlns="http://www.w3.org/2000/svg">
      <style>.line{fill:none;stroke:#388bfd;stroke-width:1.5}.axis{stroke:#555;stroke-width:1;opacity:0.5}.label{fill:#999;font-family:sans-serif;font-size:10px;text-anchor:middle}</style>
      <line class="axis" x1="30" y1="30" x2="30" y2="130" />
      <line class="axis" x1="30" y1="130" x2="510" y2="130" />
      <text class="label" x="15" y="30">4,234</text>
      <text class="label" x="15" y="134">0</text>
      <text class="label" x="30" y="148">2021</text>
      <text class="label" x="510" y="148">2026</text>
      <polyline class="line" points="30.00,129.95 31.53,129.93 33.06,129.91 34.58,129.91 36.11,129.91 37.64,129.60 39.17,129.60 40.69,129.60 42.22,127.90 43.75,125.09 45.28,124.95 46.81,124.95 48.33,124.95 49.86,124.95 51.39,124.95 52.92,124.95 54.45,124.95 55.97,124.95 57.50,124.95 59.03,124.95 60.56,124.95 62.08,124.95 63.61,124.95 65.14,124.95 66.67,124.95 68.20,124.95 69.72,124.95 71.25,123.34 72.78,123.34 74.31,123.32 75.84,123.32 77.36,123.32 78.89,123.32 80.42,123.22 81.95,123.22 83.47,123.22 85.00,123.22 86.53,123.22 88.06,123.22 89.59,123.22 91.11,123.22 92.64,123.22 94.17,123.22 95.70,123.22 97.23,123.22 98.75,123.22 100.28,123.22 101.81,123.22 103.34,123.22 104.86,123.22 106.39,123.22 107.92,123.13 109.45,121.69 110.98,120.36 112.50,119.82 114.03,117.20 115.56,117.20 117.09,117.20 118.62,117.20 120.14,117.20 121.67,117.20 123.20,117.20 124.73,117.20 126.25,117.20 127.78,117.20 129.31,117.20 130.84,117.20 132.37,117.01 133.89,117.01 135.42,117.01 136.95,116.77 138.48,116.77 140.01,116.77 141.53,116.77 143.06,116.70 144.59,116.70 146.12,116.70 147.64,116.70 149.17,116.66 150.70,116.66 152.23,116.66 153.76,116.66 155.28,116.66 156.81,116.66 158.34,116.66 159.87,116.66 161.40,116.66 162.92,116.66 164.45,116.66 165.98,116.66 167.51,116.66 169.03,116.66 170.56,116.66 172.09,116.66 173.62,116.66 175.15,116.66 176.67,116.66 178.20,116.66 179.73,116.66 181.26,116.66 182.79,116.66 184.31,116.58 185.84,116.58 187.37,116.58 188.90,116.58 190.42,116.58 191.95,116.58 193.48,116.58 195.01,116.58 196.54,116.58 198.06,116.58 199.59,116.58 201.12,116.58 202.65,116.58 204.18,116.58 205.70,116.58 207.23,116.54 208.76,115.92 210.29,115.76 211.81,115.50 213.34,115.17 214.87,115.07 216.40,115.07 217.93,115.07 219.45,114.55 220.98,114.51 222.51,114.18 224.04,114.06 225.56,113.85 227.09,113.02 228.62,112.97 230.15,112.85 231.68,112.83 233.20,112.71 234.73,112.71 236.26,112.66 237.79,112.66 239.32,112.66 240.84,112.66 242.37,112.66 243.90,112.66 245.43,112.66 246.95,112.40 248.48,111.65 250.01,111.08 251.54,110.92 253.07,110.56 254.59,110.54 256.12,110.49 257.65,110.47 259.18,110.47 260.71,110.47 262.23,110.30 263.76,110.14 265.29,110.09 266.82,110.04 268.34,110.00 269.87,109.45 271.40,109.07 272.93,108.51 274.46,108.15 275.98,107.89 277.51,107.78 279.04,107.63 280.57,107.61 282.10,107.49 283.62,107.14 285.15,107.14 286.68,107.14 288.21,107.11 289.73,107.09 291.26,107.09 292.79,106.90 294.32,106.85 295.85,106.83 297.37,106.81 298.90,106.76 300.43,106.76 301.96,106.76 303.49,106.76 305.01,106.76 306.54,106.76 308.07,106.76 309.60,106.76 311.12,106.69 312.65,106.62 314.18,106.62 315.71,106.19 317.24,106.17 318.76,106.15 320.29,106.07 321.82,105.86 323.35,105.34 324.88,105.25 326.40,105.25 327.93,105.25 329.46,105.25 330.99,105.25 332.51,105.25 334.04,105.25 335.57,105.25 337.10,105.25 338.63,105.25 340.15,105.25 341.68,105.25 343.21,105.25 344.74,105.22 346.27,105.08 347.79,105.06 349.32,105.06 350.85,105.06 352.38,105.06 353.90,104.96 355.43,104.96 356.96,104.59 358.49,104.23 360.02,104.23 361.54,104.23 363.07,104.23 364.60,104.23 366.13,104.19 367.66,104.19 369.18,104.14 370.71,103.97 372.24,103.83 373.77,103.19 375.29,103.17 376.82,102.20 378.35,101.63 379.88,101.21 381.41,99.86 382.93,99.65 384.46,99.60 385.99,99.60 387.52,99.60 389.05,99.60 390.57,99.56 392.10,99.44 393.63,99.44 395.16,99.44 396.68,99.44 398.21,99.44 399.74,99.44 401.27,99.39 402.80,99.34 404.32,99.34 405.85,99.34 407.38,99.30 408.91,99.30 410.44,99.11 411.96,99.01 413.49,99.01 415.02,99.01 416.55,99.01 418.07,99.01 419.60,99.01 421.13,99.01 422.66,98.49 424.19,97.95 425.71,97.50 427.24,96.89 428.77,96.18 430.30,94.50 431.82,93.46 433.35,92.73 434.88,91.53 436.41,90.58 437.94,88.97 439.46,86.66 440.99,85.98 442.52,84.98 444.05,84.13 445.58,83.85 447.10,82.76 448.63,82.57 450.16,81.28 451.69,80.09 453.21,79.39 454.74,78.56 456.27,77.43 457.80,77.09 459.33,76.93 460.85,76.76 462.38,76.62 463.91,75.73 465.44,74.71 466.97,73.10 468.49,72.63 470.02,71.80 471.55,70.46 473.08,67.46 474.60,65.19 476.13,62.66 477.66,62.12 479.19,61.01 480.72,58.77 482.24,57.40 483.77,56.64 485.30,55.51 486.83,54.92 488.36,54.09 489.88,53.71 491.41,52.44 492.94,50.52 494.47,48.71 495.99,48.16 497.52,47.22 499.05,45.52 500.58,44.24 502.11,42.35 503.63,41.38 505.16,39.45 506.69,36.87 508.22,34.68 509.75,30.02" />
    </svg>
  