
    <svg width="540" height="160" xmlns="http://www.w3.org/2000/svg">
      <style>.line{fill:none;stroke:#388bfd;stroke-width:1.5}.axis{stroke:#555;stroke-width:1;opacity:0.5}.label{fill:#999;font-family:sans-serif;font-size:10px;text-anchor:middle}</style>
      <line class="axis" x1="30" y1="30" x2="30" y2="130" />
      <line class="axis" x1="30" y1="130" x2="510" y2="130" />
      <text class="label" x="15" y="30">8,898</text>
      <text class="label" x="15" y="134">0</text>
      <text class="label" x="30" y="148">2021</text>
      <text class="label" x="510" y="148">2026</text>
      <polyline class="line" points="30.00,129.98 31.46,129.97 32.92,129.96 34.39,129.96 35.85,129.96 37.31,129.81 38.77,129.81 40.23,129.81 41.70,129.00 43.16,127.66 44.62,127.59 46.08,127.59 47.54,127.59 49.01,127.59 50.47,127.59 51.93,127.59 53.39,127.59 54.85,127.59 56.31,127.59 57.78,127.59 59.24,127.59 60.70,127.59 62.16,127.59 63.62,127.59 65.09,127.59 66.55,127.59 68.01,127.59 69.47,126.83 70.93,126.83 72.40,126.82 73.86,126.82 75.32,126.82 76.78,126.82 78.24,126.77 79.71,126.77 81.17,126.77 82.63,126.77 84.09,126.77 85.55,126.77 87.02,126.77 88.48,126.77 89.94,126.77 91.40,126.77 92.86,126.77 94.32,126.77 95.79,126.77 97.25,126.77 98.71,126.77 100.17,126.77 101.63,126.77 103.10,126.77 104.56,126.73 106.02,126.04 107.48,125.41 108.94,125.16 110.41,123.91 111.87,123.91 113.33,123.91 114.79,123.91 116.25,123.91 117.72,123.91 119.18,123.91 120.64,123.91 122.10,123.91 123.56,123.91 125.03,123.91 126.49,123.91 127.95,123.82 129.41,123.82 130.87,123.82 132.34,123.71 133.80,123.71 135.26,123.71 136.72,123.71 138.18,123.67 139.64,123.67 141.11,123.67 142.57,123.67 144.03,123.65 145.49,123.65 146.95,123.65 148.42,123.65 149.88,123.65 151.34,123.65 152.80,123.65 154.26,123.65 155.73,123.65 157.19,123.65 158.65,123.65 160.11,123.65 161.57,123.65 163.04,123.65 164.50,123.65 165.96,123.65 167.42,123.65 168.88,123.65 170.35,123.65 171.81,123.65 173.27,123.65 174.73,123.65 176.19,123.65 177.65,123.62 179.12,123.62 180.58,123.62 182.04,123.62 183.50,123.62 184.96,123.62 186.43,123.62 187.89,123.62 189.35,123.62 190.81,123.62 192.27,123.62 193.74,123.62 195.20,123.62 196.66,123.62 198.12,123.62 199.58,123.59 201.05,123.30 202.51,123.22 203.97,123.10 205.43,122.94 206.89,122.90 208.36,122.90 209.82,122.90 211.28,122.65 212.74,122.63 214.20,122.47 215.66,122.41 217.13,122.31 218.59,121.92 220.05,121.90 221.51,121.84 222.97,121.83 224.44,121.77 225.90,121.77 227.36,121.75 228.82,121.75 230.28,121.75 231.75,121.75 233.21,121.75 234.67,121.75 236.13,121.75 237.59,121.63 239.06,121.27 240.52,121.00 241.98,120.92 243.44,120.75 244.90,120.74 246.37,120.72 247.83,120.71 249.29,120.71 250.75,120.71 252.21,120.63 253.68,120.55 255.14,120.53 256.60,120.50 258.06,120.48 259.52,120.22 260.98,120.04 262.45,119.77 263.91,119.60 265.37,119.48 266.83,119.42 268.29,119.36 269.76,119.35 271.22,119.29 272.68,119.12 274.14,119.12 275.60,119.12 277.07,119.11 278.53,119.10 279.99,119.10 281.45,119.01 282.91,118.99 284.38,118.98 285.84,118.96 287.30,118.94 288.76,118.94 290.22,118.94 291.69,118.94 293.15,118.94 294.61,118.94 296.07,118.94 297.53,118.94 298.99,118.91 300.46,118.87 301.92,118.87 303.38,118.67 304.84,118.66 306.30,118.65 307.77,118.62 309.23,118.51 310.69,118.27 312.15,118.22 313.61,118.22 315.08,118.22 316.54,118.22 318.00,118.22 319.46,118.22 320.92,118.22 322.39,118.22 323.85,118.22 325.31,118.22 326.77,118.22 328.23,118.22 329.70,118.22 331.16,118.21 332.62,118.14 334.08,118.13 335.54,118.13 337.01,118.13 338.47,118.13 339.93,118.09 341.39,118.09 342.85,117.91 344.31,117.74 345.78,117.74 347.24,117.74 348.70,117.74 350.16,117.74 351.62,117.72 353.09,117.72 354.55,117.69 356.01,117.62 357.47,117.55 358.93,117.24 360.40,117.23 361.86,116.77 363.32,116.50 364.78,116.30 366.24,115.66 367.71,115.49 369.17,115.42 370.63,115.21 372.09,114.88 373.55,114.81 375.02,114.69 376.48,114.51 377.94,114.36 379.40,114.29 380.86,114.18 382.32,114.10 383.79,113.90 385.25,113.72 386.71,113.50 388.17,113.15 389.63,112.95 391.10,111.95 392.56,111.20 394.02,110.71 395.48,110.30 396.94,109.84 398.41,109.84 399.87,109.84 401.33,109.84 402.79,109.55 404.25,109.38 405.72,108.77 407.18,108.08 408.64,107.29 410.10,106.08 411.56,105.24 413.03,103.51 414.49,102.47 415.95,101.77 417.41,100.65 418.87,99.93 420.34,98.50 421.80,96.34 423.26,95.69 424.72,94.85 426.18,94.04 427.64,93.77 429.11,92.73 430.57,92.55 432.03,91.32 433.49,90.19 434.95,89.52 436.42,88.75 437.88,87.74 439.34,87.47 440.80,87.38 442.26,87.27 443.73,87.20 445.19,86.56 446.65,85.73 448.11,84.72 449.57,84.44 451.04,83.62 452.50,82.56 453.96,80.46 455.42,78.91 456.88,77.00 458.35,76.49 459.81,75.48 461.27,73.61 462.73,72.54 464.19,71.95 465.65,71.13 467.12,70.59 468.58,69.82 470.04,69.46 471.50,68.67 472.96,67.18 474.43,65.52 475.89,65.02 477.35,64.09 478.81,62.38 480.27,61.50 481.74,59.38 483.20,58.37 484.66,56.52 486.12,54.72 487.58,52.56 489.05,49.30 490.51,47.14 491.97,45.28 493.43,44.09 494.89,42.55 496.36,41.17 497.82,40.50 499.28,39.37 500.74,38.01 502.20,37.25 503.66,36.08 505.13,35.19 506.59,34.35 508.05,33.08 509.51,30.76" />
    </svg>
  