
    <svg width="540" height="160" xmlns="http://www.w3.org/2000/svg">
      <style>.line{fill:none;stroke:#388bfd;stroke-width:1.5}.axis{stroke:#555;stroke-width:1;opacity:0.5}.label{fill:#999;font-family:sans-serif;font-size:10px;text-anchor:middle}</style>
      <line class="axis" x1="30" y1="30" x2="30" y2="130" />
      <line class="axis" x1="30" y1="130" x2="510" y2="130" />
      <text class="label" x="15" y="30">9,362</text>
      <text class="label" x="15" y="134">0</text>
      <text class="label" x="30" y="148">2021</text>
      <text class="label" x="510" y="148">2026</text>
      <polyline class="line" points="30.00,129.98 31.44,129.97 32.88,129.96 34.32,129.96 35.76,129.96 37.20,129.82 38.64,129.82 40.08,129.82 41.52,129.05 42.96,127.78 44.40,127.71 45.84,127.71 47.28,127.71 48.72,127.71 50.16,127.71 51.60,127.71 53.04,127.71 54.48,127.71 55.92,127.71 57.36,127.71 58.80,127.71 60.24,127.71 61.68,127.71 63.12,127.71 64.56,127.71 66.00,127.71 67.44,127.71 68.88,126.99 70.32,126.99 71.76,126.98 73.20,126.98 74.64,126.98 76.08,126.98 77.52,126.93 78.96,126.93 80.40,126.93 81.84,126.93 83.28,126.93 84.72,126.93 86.16,126.93 87.60,126.93 89.04,126.93 90.48,126.93 91.92,126.93 93.36,126.93 94.80,126.93 96.24,126.93 97.68,126.93 99.12,126.93 100.56,126.93 102.00,126.93 103.44,126.89 104.88,126.24 106.32,125.64 107.76,125.40 109.20,124.21 110.64,124.21 112.08,124.21 113.52,124.21 114.96,124.21 116.40,124.21 117.84,124.21 119.28,124.21 120.72,124.21 122.16,124.21 123.60,124.21 125.04,124.21 126.48,124.13 127.92,124.13 129.36,124.13 130.80,124.02 132.24,124.02 133.68,124.02 135.12,124.02 136.56,123.99 138.00,123.99 139.44,123.99 140.88,123.99 142.32,123.96 143.76,123.96 145.20,123.96 146.64,123.96 148.08,123.96 149.52,123.96 150.96,123.96 152.40,123.96 153.84,123.96 155.28,123.96 156.72,123.96 158.16,123.96 159.60,123.96 161.04,123.96 162.48,123.96 163.92,123.96 165.36,123.96 166.80,123.96 168.24,123.96 169.68,123.96 171.12,123.96 172.56,123.96 174.00,123.96 175.44,123.93 176.88,123.93 178.32,123.93 179.76,123.93 181.20,123.93 182.64,123.93 184.08,123.93 185.52,123.93 186.96,123.93 188.40,123.93 189.84,123.93 191.28,123.93 192.72,123.93 194.16,123.93 195.60,123.93 197.04,123.91 198.48,123.63 199.92,123.56 201.36,123.44 202.80,123.29 204.24,123.25 205.68,123.25 207.12,123.25 208.56,123.01 210.00,122.99 211.44,122.84 212.88,122.79 214.32,122.69 215.76,122.32 217.20,122.30 218.64,122.25 220.08,122.23 221.52,122.18 222.96,122.18 224.40,122.16 225.84,122.16 227.28,122.16 228.72,122.16 230.16,122.16 231.60,122.16 233.04,122.16 234.48,122.04 235.92,121.70 237.36,121.44 238.80,121.37 240.24,121.21 241.68,121.20 243.12,121.18 244.56,121.17 246.00,121.17 247.44,121.17 248.88,121.09 250.32,121.02 251.76,121.00 253.20,120.97 254.64,120.95 256.08,120.71 257.52,120.54 258.96,120.28 260.40,120.12 261.84,120.00 263.28,119.95 264.72,119.88 266.16,119.87 267.60,119.82 269.04,119.66 270.48,119.66 271.92,119.66 273.36,119.65 274.80,119.64 276.24,119.64 277.68,119.55 279.12,119.53 280.56,119.52 282.00,119.51 283.44,119.49 284.88,119.49 286.32,119.49 287.76,119.49 289.20,119.49 290.64,119.49 292.08,119.49 293.52,119.49 294.96,119.46 296.40,119.43 297.84,119.43 299.28,119.23 300.72,119.22 302.16,119.21 303.60,119.18 305.04,119.08 306.48,118.85 307.92,118.81 309.36,118.81 310.80,118.81 312.24,118.81 313.68,118.81 315.12,118.81 316.56,118.81 318.00,118.81 319.44,118.81 320.88,118.81 322.32,118.81 323.76,118.81 325.20,118.81 326.64,118.80 328.08,118.73 329.52,118.72 330.96,118.72 332.40,118.72 333.84,118.72 335.28,118.68 336.72,118.68 338.16,118.51 339.60,118.35 341.04,118.35 342.48,118.35 343.92,118.35 345.36,118.35 346.80,118.33 348.24,118.33 349.68,118.30 351.12,118.23 352.56,118.16 354.00,117.88 355.44,117.87 356.88,117.43 358.32,117.17 359.76,116.98 361.20,116.37 362.64,116.21 364.08,116.15 365.52,115.94 366.96,115.63 368.40,115.56 369.84,115.45 371.28,115.28 372.72,115.13 374.16,115.07 375.60,114.96 377.04,114.89 378.48,114.69 379.92,114.52 381.36,114.32 382.80,113.99 384.24,113.80 385.68,112.85 387.12,112.13 388.56,111.67 390.00,111.28 391.44,110.84 392.88,110.84 394.32,110.84 395.76,110.84 397.20,110.56 398.64,110.40 400.08,109.82 401.52,109.17 402.96,108.41 404.40,107.27 405.84,106.47 407.28,104.82 408.72,103.83 410.16,103.17 411.60,102.10 413.04,101.42 414.48,100.06 415.92,98.01 417.36,97.39 418.80,96.59 420.24,95.82 421.68,95.56 423.12,94.58 424.56,94.41 426.00,93.23 427.44,92.17 428.88,91.53 430.32,90.80 431.76,89.84 433.20,89.58 434.64,89.50 436.08,89.39 437.52,89.32 438.96,88.72 440.40,87.93 441.84,86.96 443.28,86.70 444.72,85.92 446.16,84.91 447.60,82.92 449.04,81.44 450.48,79.63 451.92,79.15 453.36,78.18 454.80,76.40 456.24,75.39 457.68,74.83 459.12,74.05 460.56,73.54 462.00,72.80 463.44,72.46 464.88,71.71 466.32,70.29 467.76,68.72 469.20,68.24 470.64,67.35 472.08,65.73 473.52,64.90 474.96,62.88 476.40,61.92 477.84,60.16 479.28,58.46 480.72,56.39 482.16,53.30 483.60,51.25 485.04,49.48 486.48,48.35 487.92,46.89 489.36,45.57 490.80,44.93 492.24,43.86 493.68,42.57 495.12,41.85 496.56,40.73 498.00,39.89 499.44,39.09 500.88,37.88 502.32,35.68 503.76,33.92 505.20,32.44 506.64,31.21 508.08,30.76 509.52,30.18" />
    </svg>
  