
    <svg width="540" height="160" xmlns="http://www.w3.org/2000/svg">
      <style>.line{fill:none;stroke:#388bfd;stroke-width:1.5}.axis{stroke:#555;stroke-width:1;opacity:0.5}.label{fill:#999;font-family:sans-serif;font-size:10px;text-anchor:middle}</style>
      <line class="axis" x1="30" y1="30" x2="30" y2="130" />
      <line class="axis" x1="30" y1="130" x2="510" y2="130" />
      <text class="label" x="15" y="30">5,226</text>
      <text class="label" x="15" y="134">0</text>
      <text class="label" x="30" y="148">2021</text>
      <text class="label" x="510" y="148">2026</text>
      <polyline class="line" points="30.00,129.96 31.51,129.94 33.03,129.92 34.54,129.92 36.05,129.92 37.56,129.67 39.08,129.67 40.59,129.67 42.10,128.30 43.61,126.02 45.13,125.91 46.64,125.91 48.15,125.91 49.66,125.91 51.18,125.91 52.69,125.91 54.20,125.91 55.71,125.91 57.23,125.91 58.74,125.91 60.25,125.91 61.76,125.91 63.28,125.91 64.79,125.91 66.30,125.91 67.82,125.91 69.33,125.91 70.84,124.60 72.35,124.60 73.87,124.58 75.38,124.58 76.89,124.58 78.40,124.58 79.92,124.51 81.43,124.51 82.94,124.51 84.45,124.51 85.97,124.51 87.48,124.51 88.99,124.51 90.50,124.51 92.02,124.51 93.53,124.51 95.04,124.51 96.55,124.51 98.07,124.51 99.58,124.51 101.09,124.51 102.61,124.51 104.12,124.51 105.63,124.51 107.14,124.43 108.66,123.26 110.17,122.19 111.68,121.75 113.19,119.63 114.71,119.63 116.22,119.63 117.73,119.63 119.24,119.63 120.76,119.63 122.27,119.63 123.78,119.63 125.29,119.63 126.81,119.63 128.32,119.63 129.83,119.63 131.34,119.48 132.86,119.48 134.37,119.48 135.88,119.28 137.39,119.28 138.91,119.28 140.42,119.28 141.93,119.23 143.45,119.23 144.96,119.23 146.47,119.23 147.98,119.19 149.50,119.19 151.01,119.19 152.52,119.19 154.03,119.19 155.55,119.19 157.06,119.19 158.57,119.19 160.08,119.19 161.60,119.19 163.11,119.19 164.62,119.19 166.13,119.19 167.65,119.19 169.16,119.19 170.67,119.19 172.18,119.19 173.70,119.19 175.21,119.19 176.72,119.19 178.24,119.19 179.75,119.19 181.26,119.19 182.77,119.13 184.29,119.13 185.80,119.13 187.31,119.13 188.82,119.13 190.34,119.13 191.85,119.13 193.36,119.13 194.87,119.13 196.39,119.13 197.90,119.13 199.41,119.13 200.92,119.13 202.44,119.13 203.95,119.13 205.46,119.09 206.97,118.60 208.49,118.46 210.00,118.25 211.51,117.98 213.03,117.91 214.54,117.91 216.05,117.91 217.56,117.49 219.08,117.45 220.59,117.18 222.10,117.08 223.61,116.91 225.13,116.24 226.64,116.20 228.15,116.11 229.66,116.09 231.18,115.99 232.69,115.99 234.20,115.95 235.71,115.95 237.23,115.95 238.74,115.95 240.25,115.95 241.76,115.95 243.28,115.95 244.79,115.74 246.30,115.13 247.82,114.67 249.33,114.54 250.84,114.25 252.35,114.23 253.87,114.19 255.38,114.18 256.89,114.18 258.40,114.18 259.92,114.04 261.43,113.91 262.94,113.87 264.45,113.83 265.97,113.79 267.48,113.35 268.99,113.05 270.50,112.59 272.02,112.30 273.53,112.09 275.04,111.99 276.55,111.88 278.07,111.86 279.58,111.76 281.09,111.48 282.61,111.48 284.12,111.48 285.63,111.46 287.14,111.44 288.66,111.44 290.17,111.29 291.68,111.25 293.19,111.23 294.71,111.21 296.22,111.17 297.73,111.17 299.24,111.17 300.76,111.17 302.27,111.17 303.78,111.17 305.29,111.17 306.81,111.17 308.32,111.11 309.83,111.06 311.34,111.06 312.86,110.71 314.37,110.69 315.88,110.67 317.39,110.62 318.91,110.44 320.42,110.02 321.93,109.95 323.45,109.95 324.96,109.95 326.47,109.95 327.98,109.95 329.50,109.95 331.01,109.95 332.52,109.95 334.03,109.95 335.55,109.95 337.06,109.95 338.57,109.95 340.08,109.95 341.60,109.93 343.11,109.81 344.62,109.79 346.13,109.79 347.65,109.79 349.16,109.79 350.67,109.72 352.18,109.72 353.70,109.41 355.21,109.12 356.72,109.12 358.24,109.12 359.75,109.12 361.26,109.12 362.77,109.09 364.29,109.09 365.80,109.05 367.31,108.91 368.82,108.80 370.34,108.28 371.85,108.26 373.36,107.48 374.87,107.02 376.39,106.67 377.90,105.58 379.41,105.30 380.92,105.18 382.44,104.82 383.95,104.26 385.46,104.13 386.97,103.94 388.49,103.63 390.00,103.36 391.51,103.25 393.03,103.06 394.54,102.92 396.05,102.58 397.56,102.27 399.08,101.91 400.59,101.32 402.10,100.97 403.61,99.27 405.13,97.99 406.64,97.16 408.15,96.46 409.66,95.67 411.18,95.67 412.69,95.67 414.20,95.67 415.71,95.17 417.23,94.89 418.74,94.26 420.25,93.53 421.76,92.53 423.28,90.96 424.79,90.08 426.30,88.48 427.82,87.54 429.33,86.95 430.84,85.97 432.35,85.20 433.87,83.90 435.38,82.01 436.89,81.45 438.40,80.65 439.92,79.96 441.43,79.73 442.94,78.85 444.45,78.70 445.97,77.65 447.48,76.69 448.99,76.12 450.50,75.45 452.02,74.53 453.53,74.26 455.04,74.13 456.55,73.99 458.07,73.88 459.58,73.15 461.09,72.33 462.61,71.03 464.12,70.64 465.63,69.97 467.14,68.88 468.66,66.45 470.17,64.62 471.68,62.57 473.19,62.13 474.71,61.23 476.22,59.41 477.73,58.30 479.24,57.69 480.76,56.77 482.27,56.29 483.78,55.62 485.29,55.32 486.81,54.28 488.32,52.73 489.83,51.26 491.34,50.82 492.86,50.05 494.37,48.68 495.88,47.64 497.39,46.11 498.91,45.33 500.42,43.76 501.93,41.67 503.45,39.89 504.96,36.12 506.47,33.46 507.98,31.63 509.50,30.33" />
    </svg>
  