
    <svg width="540" height="160" xmlns="http://www.w3.org/2000/svg">
      <style>.line{fill:none;stroke:#388bfd;stroke-width:1.5}.axis{stroke:#555;stroke-width:1;opacity:0.5}.label{fill:#999;font-family:sans-serif;font-size:10px;text-anchor:middle}</style>
      <line class="axis" x1="30" y1="30" x2="30" y2="130" />
      <line class="axis" x1="30" y1="130" x2="510" y2="130" />
      <text class="label" x="15" y="30">4,944</text>
      <text class="label" x="15" y="134">0</text>
      <text class="label" x="30" y="148">2021</text>
      <text class="label" x="510" y="148">2026</text>
      <polyline class="line" points="30.00,129.96 31.53,129.94 33.05,129.92 34.58,129.92 36.11,129.92 37.64,129.66 39.16,129.66 40.69,129.66 42.22,128.20 43.74,125.79 45.27,125.67 46.80,125.67 48.32,125.67 49.85,125.67 51.38,125.67 52.91,125.67 54.43,125.67 55.96,125.67 57.49,125.67 59.01,125.67 60.54,125.67 62.07,125.67 63.59,125.67 65.12,125.67 66.65,125.67 68.18,125.67 69.70,125.67 71.23,124.30 72.76,124.30 74.28,124.28 75.81,124.28 77.34,124.28 78.87,124.28 80.39,124.19 81.92,124.19 83.45,124.19 84.97,124.19 86.50,124.19 88.03,124.19 89.55,124.19 91.08,124.19 92.61,124.19 94.14,124.19 95.66,124.19 97.19,124.19 98.72,124.19 100.24,124.19 101.77,124.19 103.30,124.19 104.83,124.19 106.35,124.19 107.88,124.11 109.41,122.88 110.93,121.75 112.46,121.28 113.99,119.04 115.51,119.04 117.04,119.04 118.57,119.04 120.10,119.04 121.62,119.04 123.15,119.04 124.68,119.04 126.20,119.04 127.73,119.04 129.26,119.04 130.78,119.04 132.31,118.88 133.84,118.88 135.37,118.88 136.89,118.67 138.42,118.67 139.95,118.67 141.47,118.67 143.00,118.61 144.53,118.61 146.06,118.61 147.58,118.61 149.11,118.57 150.64,118.57 152.16,118.57 153.69,118.57 155.22,118.57 156.74,118.57 158.27,118.57 159.80,118.57 161.33,118.57 162.85,118.57 164.38,118.57 165.91,118.57 167.43,118.57 168.96,118.57 170.49,118.57 172.01,118.57 173.54,118.57 175.07,118.57 176.60,118.57 178.12,118.57 179.65,118.57 181.18,118.57 182.70,118.57 184.23,118.51 185.76,118.51 187.29,118.51 188.81,118.51 190.34,118.51 191.87,118.51 193.39,118.51 194.92,118.51 196.45,118.51 197.97,118.51 199.50,118.51 201.03,118.51 202.56,118.51 204.08,118.51 205.61,118.51 207.14,118.47 208.66,117.94 210.19,117.80 211.72,117.58 213.24,117.30 214.77,117.22 216.30,117.22 217.83,117.22 219.35,116.77 220.88,116.73 222.41,116.45 223.93,116.35 225.46,116.17 226.99,115.46 228.52,115.42 230.04,115.32 231.57,115.30 233.10,115.19 234.62,115.19 236.15,115.15 237.68,115.15 239.20,115.15 240.73,115.15 242.26,115.15 243.79,115.15 245.31,115.15 246.84,114.93 248.37,114.28 249.89,113.80 251.42,113.66 252.95,113.35 254.48,113.33 256.00,113.29 257.53,113.27 259.06,113.27 260.58,113.27 262.11,113.13 263.64,112.99 265.16,112.95 266.69,112.91 268.22,112.87 269.75,112.40 271.27,112.08 272.80,111.59 274.33,111.29 275.85,111.07 277.38,110.97 278.91,110.85 280.43,110.83 281.96,110.72 283.49,110.42 285.02,110.42 286.54,110.42 288.07,110.40 289.60,110.38 291.12,110.38 292.65,110.22 294.18,110.18 295.71,110.16 297.23,110.14 298.76,110.10 300.29,110.10 301.81,110.10 303.34,110.10 304.87,110.10 306.39,110.10 307.92,110.10 309.45,110.10 310.98,110.04 312.50,109.98 314.03,109.98 315.56,109.61 317.08,109.59 318.61,109.57 320.14,109.51 321.66,109.33 323.19,108.88 324.72,108.80 326.25,108.80 327.77,108.80 329.30,108.80 330.83,108.80 332.35,108.80 333.88,108.80 335.41,108.80 336.94,108.80 338.46,108.80 339.99,108.80 341.52,108.80 343.04,108.80 344.57,108.78 346.10,108.66 347.62,108.64 349.15,108.64 350.68,108.64 352.21,108.64 353.73,108.56 355.26,108.56 356.79,108.24 358.31,107.93 359.84,107.93 361.37,107.93 362.90,107.93 364.42,107.93 365.95,107.89 367.48,107.89 369.00,107.85 370.53,107.71 372.06,107.59 373.58,107.04 375.11,107.02 376.64,106.19 378.17,105.71 379.69,105.34 381.22,104.19 382.75,103.89 384.27,103.77 385.80,103.38 387.33,102.80 388.85,102.65 390.38,102.45 391.91,102.13 393.44,101.84 394.96,101.72 396.49,101.52 398.02,101.38 399.54,101.02 401.07,100.69 402.60,100.31 404.13,99.68 405.65,99.32 407.18,97.52 408.71,96.16 410.23,95.29 411.76,94.54 413.29,93.71 414.81,93.71 416.34,93.71 417.87,93.71 419.40,93.19 420.92,92.88 422.45,92.22 423.98,91.45 425.50,90.40 427.03,88.74 428.56,87.81 430.08,86.11 431.61,85.12 433.14,84.49 434.67,83.46 436.19,82.65 437.72,81.27 439.25,79.27 440.77,78.69 442.30,77.84 443.83,77.11 445.36,76.86 446.88,75.93 448.41,75.77 449.94,74.66 451.46,73.65 452.99,73.04 454.52,72.33 456.04,71.36 457.57,71.08 459.10,70.94 460.63,70.80 462.15,70.68 463.68,69.91 465.21,69.04 466.73,67.66 468.26,67.26 469.79,66.55 471.31,65.40 472.84,62.83 474.37,60.89 475.90,58.72 477.42,58.26 478.95,57.31 480.48,55.38 482.00,54.21 483.53,53.56 485.06,52.59 486.59,52.09 488.11,51.38 489.64,51.06 491.17,49.96 492.69,48.33 494.22,46.77 495.75,46.30 497.27,45.49 498.80,44.04 500.33,42.94 501.86,41.33 503.38,40.50 504.91,38.84 506.44,36.63 507.96,34.75 509.49,30.77" />
    </svg>
  