
    <svg width="540" height="160" xmlns="http://www.w3.org/2000/svg">
      <style>.line{fill:none;stroke:#388bfd;stroke-width:1.5}.axis{stroke:#555;stroke-width:1;opacity:0.5}.label{fill:#999;font-family:sans-serif;font-size:10px;text-anchor:middle}</style>
      <line class="axis" x1="30" y1="30" x2="30" y2="130" />
      <line class="axis" x1="30" y1="130" x2="510" y2="130" />
      <text class="label" x="15" y="30">9,389</text>
      <text class="label" x="15" y="134">0</text>
      <text class="label" x="30" y="148">2021</text>
      <text class="label" x="510" y="148">2026</text>
      <polyline class="line" points="30.00,129.98 31.44,129.97 32.87,129.96 34.31,129.96 35.75,129.96 37.18,129.82 38.62,129.82 40.05,129.82 41.49,129.05 42.93,127.78 44.36,127.72 45.80,127.72 47.24,127.72 48.67,127.72 50.11,127.72 51.55,127.72 52.98,127.72 54.42,127.72 55.86,127.72 57.29,127.72 58.73,127.72 60.16,127.72 61.60,127.72 63.04,127.72 64.47,127.72 65.91,127.72 67.35,127.72 68.78,127.00 70.22,127.00 71.66,126.99 73.09,126.99 74.53,126.99 75.97,126.99 77.40,126.94 78.84,126.94 80.27,126.94 81.71,126.94 83.15,126.94 84.58,126.94 86.02,126.94 87.46,126.94 88.89,126.94 90.33,126.94 91.77,126.94 93.20,126.94 94.64,126.94 96.07,126.94 97.51,126.94 98.95,126.94 100.38,126.94 101.82,126.94 103.26,126.90 104.69,126.25 106.13,125.65 107.57,125.41 109.00,124.23 110.44,124.23 111.88,124.23 113.31,124.23 114.75,124.23 116.18,124.23 117.62,124.23 119.06,124.23 120.49,124.23 121.93,124.23 123.37,124.23 124.80,124.23 126.24,124.14 127.68,124.14 129.11,124.14 130.55,124.04 131.99,124.04 133.42,124.04 134.86,124.04 136.29,124.00 137.73,124.00 139.17,124.00 140.60,124.00 142.04,123.98 143.48,123.98 144.91,123.98 146.35,123.98 147.79,123.98 149.22,123.98 150.66,123.98 152.09,123.98 153.53,123.98 154.97,123.98 156.40,123.98 157.84,123.98 159.28,123.98 160.71,123.98 162.15,123.98 163.59,123.98 165.02,123.98 166.46,123.98 167.90,123.98 169.33,123.98 170.77,123.98 172.20,123.98 173.64,123.98 175.08,123.95 176.51,123.95 177.95,123.95 179.39,123.95 180.82,123.95 182.26,123.95 183.70,123.95 185.13,123.95 186.57,123.95 188.00,123.95 189.44,123.95 190.88,123.95 192.31,123.95 193.75,123.95 195.19,123.95 196.62,123.93 198.06,123.65 199.50,123.58 200.93,123.46 202.37,123.31 203.81,123.27 205.24,123.27 206.68,123.27 208.11,123.03 209.55,123.01 210.99,122.86 212.42,122.81 213.86,122.71 215.30,122.34 216.73,122.32 218.17,122.27 219.61,122.26 221.04,122.20 222.48,122.20 223.92,122.18 225.35,122.18 226.79,122.18 228.22,122.18 229.66,122.18 231.10,122.18 232.53,122.18 233.97,122.07 235.41,121.72 236.84,121.47 238.28,121.39 239.72,121.23 241.15,121.22 242.59,121.20 244.02,121.19 245.46,121.19 246.90,121.19 248.33,121.12 249.77,121.04 251.21,121.02 252.64,121.00 254.08,120.98 255.52,120.73 256.95,120.56 258.39,120.31 259.83,120.15 261.26,120.03 262.70,119.98 264.13,119.91 265.57,119.90 267.01,119.85 268.44,119.69 269.88,119.69 271.32,119.69 272.75,119.68 274.19,119.67 275.63,119.67 277.06,119.58 278.50,119.56 279.94,119.55 281.37,119.54 282.81,119.52 284.24,119.52 285.68,119.52 287.12,119.52 288.55,119.52 289.99,119.52 291.43,119.52 292.86,119.52 294.30,119.49 295.74,119.46 297.17,119.46 298.61,119.26 300.04,119.25 301.48,119.24 302.92,119.21 304.35,119.11 305.79,118.88 307.23,118.84 308.66,118.84 310.10,118.84 311.54,118.84 312.97,118.84 314.41,118.84 315.85,118.84 317.28,118.84 318.72,118.84 320.15,118.84 321.59,118.84 323.03,118.84 324.46,118.84 325.90,118.83 327.34,118.76 328.77,118.75 330.21,118.75 331.65,118.75 333.08,118.75 334.52,118.71 335.96,118.71 337.39,118.54 338.83,118.38 340.26,118.38 341.70,118.38 343.14,118.38 344.57,118.38 346.01,118.36 347.45,118.36 348.88,118.34 350.32,118.26 351.76,118.20 353.19,117.91 354.63,117.90 356.06,117.46 357.50,117.21 358.94,117.02 360.37,116.41 361.81,116.25 363.25,116.19 364.68,115.98 366.12,115.67 367.56,115.60 368.99,115.49 370.43,115.32 371.87,115.17 373.30,115.11 374.74,115.00 376.17,114.93 377.61,114.74 379.05,114.57 380.48,114.36 381.92,114.03 383.36,113.84 384.79,112.89 386.23,112.18 387.67,111.72 389.10,111.33 390.54,110.89 391.98,110.89 393.41,110.89 394.85,110.89 396.28,110.62 397.72,110.46 399.16,109.88 400.59,109.23 402.03,108.47 403.47,107.34 404.90,106.54 406.34,104.90 407.78,103.91 409.21,103.25 410.65,102.18 412.08,101.50 413.52,100.15 414.96,98.10 416.39,97.48 417.83,96.68 419.27,95.92 420.70,95.66 422.14,94.68 423.58,94.51 425.01,93.34 426.45,92.28 427.89,91.64 429.32,90.91 430.76,89.95 432.19,89.70 433.63,89.61 435.07,89.51 436.50,89.44 437.94,88.83 439.38,88.05 440.81,87.09 442.25,86.82 443.69,86.04 445.12,85.04 446.56,83.05 448.00,81.58 449.43,79.77 450.87,79.29 452.30,78.33 453.74,76.55 455.18,75.54 456.61,74.99 458.05,74.21 459.49,73.70 460.92,72.97 462.36,72.62 463.80,71.88 465.23,70.46 466.67,68.90 468.10,68.42 469.54,67.53 470.98,65.91 472.41,65.08 473.85,63.07 475.29,62.11 476.72,60.37 478.16,58.66 479.60,56.61 481.03,53.52 482.47,51.47 483.91,49.71 485.34,48.59 486.78,47.13 488.21,45.82 489.65,45.18 491.09,44.11 492.52,42.82 493.96,42.10 495.40,40.99 496.83,40.15 498.27,39.35 499.71,38.15 501.14,35.95 502.58,34.20 504.01,32.72 505.45,31.49 506.89,31.04 508.32,30.47 509.76,30.00" />
    </svg>
  