
    <svg width="540" height="160" xmlns="http://www.w3.org/2000/svg">
      <style>.line{fill:none;stroke:#388bfd;stroke-width:1.5}.axis{stroke:#555;stroke-width:1;opacity:0.5}.label{fill:#999;font-family:sans-serif;font-size:10px;text-anchor:middle}</style>
      <line class="axis" x1="30" y1="30" x2="30" y2="130" />
      <line class="axis" x1="30" y1="130" x2="510" y2="130" />
      <text class="label" x="15" y="30">7,470</text>
      <text class="label" x="15" y="134">0</text>
      <text class="label" x="30" y="148">2021</text>
      <text class="label" x="510" y="148">2026</text>
      <polyline class="line" points="30.00,129.97 31.50,129.96 33.00,129.95 34.50,129.95 36.00,129.95 37.50,129.77 39.00,129.77 40.50,129.77 42.00,128.81 43.50,127.22 45.00,127.14 46.50,127.14 48.00,127.14 49.50,127.14 51.00,127.14 52.50,127.14 54.00,127.14 55.50,127.14 57.00,127.14 58.50,127.14 60.00,127.14 61.50,127.14 63.00,127.14 64.50,127.14 66.00,127.14 67.50,127.14 69.00,127.14 70.50,126.22 72.00,126.22 73.50,126.21 75.00,126.21 76.50,126.21 78.00,126.21 79.50,126.16 81.00,126.16 82.50,126.16 84.00,126.16 85.50,126.16 87.00,126.16 88.50,126.16 90.00,126.16 91.50,126.16 93.00,126.16 94.50,126.16 96.00,126.16 97.50,126.16 99.00,126.16 100.50,126.16 102.00,126.16 103.50,126.16 105.00,126.16 106.50,126.10 108.00,125.29 109.50,124.54 111.00,124.23 112.50,122.74 114.00,122.74 115.50,122.74 117.00,122.74 118.50,122.74 120.00,122.74 121.50,122.74 123.00,122.74 124.50,122.74 126.00,122.74 127.50,122.74 129.00,122.74 130.50,122.64 132.00,122.64 133.50,122.64 135.00,122.50 136.50,122.50 138.00,122.50 139.50,122.50 141.00,122.46 142.50,122.46 144.00,122.46 145.50,122.46 147.00,122.44 148.50,122.44 150.00,122.44 151.50,122.44 153.00,122.44 154.50,122.44 156.00,122.44 157.50,122.44 159.00,122.44 160.50,122.44 162.00,122.44 163.50,122.44 165.00,122.44 166.50,122.44 168.00,122.44 169.50,122.44 171.00,122.44 172.50,122.44 174.00,122.44 175.50,122.44 177.00,122.44 178.50,122.44 180.00,122.44 181.50,122.40 183.00,122.40 184.50,122.40 186.00,122.40 187.50,122.40 189.00,122.40 190.50,122.40 192.00,122.40 193.50,122.40 195.00,122.40 196.50,122.40 198.00,122.40 199.50,122.40 201.00,122.40 202.50,122.40 204.00,122.37 205.50,122.02 207.00,121.93 208.50,121.78 210.00,121.59 211.50,121.54 213.00,121.54 214.50,121.54 216.00,121.24 217.50,121.22 219.00,121.03 220.50,120.96 222.00,120.84 223.50,120.37 225.00,120.35 226.50,120.28 228.00,120.27 229.50,120.20 231.00,120.20 232.50,120.17 234.00,120.17 235.50,120.17 237.00,120.17 238.50,120.17 240.00,120.17 241.50,120.17 243.00,120.03 244.50,119.60 246.00,119.28 247.50,119.18 249.00,118.98 250.50,118.97 252.00,118.94 253.50,118.93 255.00,118.93 256.50,118.93 258.00,118.84 259.50,118.74 261.00,118.71 262.50,118.69 264.00,118.66 265.50,118.35 267.00,118.14 268.50,117.82 270.00,117.62 271.50,117.47 273.00,117.40 274.50,117.32 276.00,117.31 277.50,117.24 279.00,117.04 280.50,117.04 282.00,117.04 283.50,117.03 285.00,117.01 286.50,117.01 288.00,116.91 289.50,116.88 291.00,116.87 292.50,116.85 294.00,116.83 295.50,116.83 297.00,116.83 298.50,116.83 300.00,116.83 301.50,116.83 303.00,116.83 304.50,116.83 306.00,116.79 307.50,116.75 309.00,116.75 310.50,116.51 312.00,116.49 313.50,116.48 315.00,116.44 316.50,116.32 318.00,116.02 319.50,115.97 321.00,115.97 322.50,115.97 324.00,115.97 325.50,115.97 327.00,115.97 328.50,115.97 330.00,115.97 331.50,115.97 333.00,115.97 334.50,115.97 336.00,115.97 337.50,115.97 339.00,115.96 340.50,115.88 342.00,115.86 343.50,115.86 345.00,115.86 346.50,115.86 348.00,115.81 349.50,115.81 351.00,115.60 352.50,115.39 354.00,115.39 355.50,115.39 357.00,115.39 358.50,115.39 360.00,115.37 361.50,115.37 363.00,115.34 364.50,115.25 366.00,115.17 367.50,114.81 369.00,114.79 370.50,114.24 372.00,113.92 373.50,113.68 375.00,112.92 376.50,112.72 378.00,112.64 379.50,112.38 381.00,111.99 382.50,111.90 384.00,111.77 385.50,111.55 387.00,111.37 388.50,111.29 390.00,111.15 391.50,111.06 393.00,110.82 394.50,110.60 396.00,110.35 397.50,109.93 399.00,109.69 400.50,108.50 402.00,107.60 403.50,107.03 405.00,106.53 406.50,105.98 408.00,105.98 409.50,105.98 411.00,105.98 412.50,105.64 414.00,105.44 415.50,104.71 417.00,103.90 418.50,102.95 420.00,101.51 421.50,100.51 423.00,98.45 424.50,97.20 426.00,96.37 427.50,95.03 429.00,94.18 430.50,92.48 432.00,89.91 433.50,89.13 435.00,88.13 436.50,87.16 438.00,86.84 439.50,85.61 441.00,85.39 442.50,83.92 444.00,82.58 445.50,81.78 447.00,80.87 448.50,79.67 450.00,79.34 451.50,79.24 453.00,79.10 454.50,79.02 456.00,78.26 457.50,77.27 459.00,76.06 460.50,75.73 462.00,74.75 463.50,73.49 465.00,70.99 466.50,69.14 468.00,66.87 469.50,66.27 471.00,65.06 472.50,62.82 474.00,61.55 475.50,60.86 477.00,59.88 478.50,59.24 480.00,58.31 481.50,57.88 483.00,56.95 484.50,55.17 486.00,53.20 487.50,52.60 489.00,51.67 490.50,50.44 492.00,49.56 493.50,48.18 495.00,47.32 496.50,45.50 498.00,43.57 499.50,41.87 501.00,38.50 502.50,36.41 504.00,34.39 505.50,33.27 507.00,31.62 508.50,30.27 510.00,30.00" />
    </svg>
  