
    <svg width="540" height="160" xmlns="http://www.w3.org/2000/svg">
      <style>.line{fill:none;stroke:#388bfd;stroke-width:1.5}.axis{stroke:#555;stroke-width:1;opacity:0.5}.label{fill:#999;font-family:sans-serif;font-size:10px;text-anchor:middle}</style>
      <line class="axis" x1="30" y1="30" x2="30" y2="130" />
      <line class="axis" x1="30" y1="130" x2="510" y2="130" />
      <text class="label" x="15" y="30">9,237</text>
      <text class="label" x="15" y="134">0</text>
      <text class="label" x="30" y="148">2021</text>
      <text class="label" x="510" y="148">2026</text>
      <polyline class="line" points="30.00,129.98 31.45,129.97 32.90,129.96 34.35,129.96 35.79,129.96 37.24,129.82 38.69,129.82 40.14,129.82 41.59,129.04 43.04,127.75 44.49,127.68 45.94,127.68 47.38,127.68 48.83,127.68 50.28,127.68 51.73,127.68 53.18,127.68 54.63,127.68 56.08,127.68 57.53,127.68 58.97,127.68 60.42,127.68 61.87,127.68 63.32,127.68 64.77,127.68 66.22,127.68 67.67,127.68 69.11,126.95 70.56,126.95 72.01,126.94 73.46,126.94 74.91,126.94 76.36,126.94 77.81,126.89 79.26,126.89 80.70,126.89 82.15,126.89 83.60,126.89 85.05,126.89 86.50,126.89 87.95,126.89 89.40,126.89 90.85,126.89 92.29,126.89 93.74,126.89 95.19,126.89 96.64,126.89 98.09,126.89 99.54,126.89 100.99,126.89 102.43,126.89 103.88,126.85 105.33,126.19 106.78,125.58 108.23,125.33 109.68,124.13 111.13,124.13 112.58,124.13 114.02,124.13 115.47,124.13 116.92,124.13 118.37,124.13 119.82,124.13 121.27,124.13 122.72,124.13 124.16,124.13 125.61,124.13 127.06,124.05 128.51,124.05 129.96,124.05 131.41,123.94 132.86,123.94 134.31,123.94 135.75,123.94 137.20,123.90 138.65,123.90 140.10,123.90 141.55,123.90 143.00,123.88 144.45,123.88 145.90,123.88 147.34,123.88 148.79,123.88 150.24,123.88 151.69,123.88 153.14,123.88 154.59,123.88 156.04,123.88 157.48,123.88 158.93,123.88 160.38,123.88 161.83,123.88 163.28,123.88 164.73,123.88 166.18,123.88 167.63,123.88 169.07,123.88 170.52,123.88 171.97,123.88 173.42,123.88 174.87,123.88 176.32,123.85 177.77,123.85 179.22,123.85 180.66,123.85 182.11,123.85 183.56,123.85 185.01,123.85 186.46,123.85 187.91,123.85 189.36,123.85 190.80,123.85 192.25,123.85 193.70,123.85 195.15,123.85 196.60,123.85 198.05,123.83 199.50,123.55 200.95,123.47 202.39,123.35 203.84,123.20 205.29,123.16 206.74,123.16 208.19,123.16 209.64,122.92 211.09,122.90 212.54,122.75 213.98,122.69 215.43,122.59 216.88,122.22 218.33,122.19 219.78,122.14 221.23,122.13 222.68,122.08 224.12,122.08 225.57,122.05 227.02,122.05 228.47,122.05 229.92,122.05 231.37,122.05 232.82,122.05 234.27,122.05 235.71,121.93 237.16,121.59 238.61,121.33 240.06,121.25 241.51,121.09 242.96,121.08 244.41,121.06 245.86,121.05 247.30,121.05 248.75,121.05 250.20,120.97 251.65,120.90 253.10,120.87 254.55,120.85 256.00,120.83 257.44,120.58 258.89,120.41 260.34,120.15 261.79,119.99 263.24,119.87 264.69,119.81 266.14,119.75 267.59,119.74 269.03,119.68 270.48,119.52 271.93,119.52 273.38,119.52 274.83,119.51 276.28,119.50 277.73,119.50 279.18,119.41 280.62,119.39 282.07,119.38 283.52,119.37 284.97,119.35 286.42,119.35 287.87,119.35 289.32,119.35 290.76,119.35 292.21,119.35 293.66,119.35 295.11,119.35 296.56,119.31 298.01,119.28 299.46,119.28 300.91,119.09 302.35,119.08 303.80,119.07 305.25,119.03 306.70,118.94 308.15,118.70 309.60,118.65 311.05,118.65 312.49,118.65 313.94,118.65 315.39,118.65 316.84,118.65 318.29,118.65 319.74,118.65 321.19,118.65 322.64,118.65 324.08,118.65 325.53,118.65 326.98,118.65 328.43,118.64 329.88,118.58 331.33,118.57 332.78,118.57 334.23,118.57 335.67,118.57 337.12,118.52 338.57,118.52 340.02,118.35 341.47,118.19 342.92,118.19 344.37,118.19 345.81,118.19 347.26,118.19 348.71,118.17 350.16,118.17 351.61,118.15 353.06,118.07 354.51,118.00 355.96,117.71 357.40,117.70 358.85,117.26 360.30,117.00 361.75,116.80 363.20,116.19 364.65,116.02 366.10,115.96 367.55,115.75 368.99,115.44 370.44,115.36 371.89,115.25 373.34,115.08 374.79,114.93 376.24,114.87 377.69,114.76 379.13,114.68 380.58,114.49 382.03,114.31 383.48,114.11 384.93,113.77 386.38,113.58 387.83,112.61 389.28,111.89 390.72,111.42 392.17,111.02 393.62,110.58 395.07,110.58 396.52,110.58 397.97,110.58 399.42,110.30 400.87,110.13 402.31,109.55 403.76,108.89 405.21,108.12 406.66,106.96 408.11,106.15 409.56,104.48 411.01,103.48 412.45,102.81 413.90,101.72 415.35,101.03 416.80,99.65 418.25,97.58 419.70,96.95 421.15,96.14 422.60,95.36 424.04,95.10 425.49,94.10 426.94,93.93 428.39,92.74 429.84,91.65 431.29,91.00 432.74,90.27 434.19,89.29 435.63,89.03 437.08,88.95 438.53,88.84 439.98,88.77 441.43,88.16 442.88,87.36 444.33,86.38 445.77,86.11 447.22,85.32 448.67,84.30 450.12,82.28 451.57,80.78 453.02,78.94 454.47,78.46 455.92,77.48 457.36,75.68 458.81,74.65 460.26,74.08 461.71,73.29 463.16,72.77 464.61,72.03 466.06,71.68 467.51,70.92 468.95,69.48 470.40,67.89 471.85,67.40 473.30,66.51 474.75,64.86 476.20,64.02 477.65,61.97 479.09,60.99 480.54,59.22 481.99,57.49 483.44,55.40 484.89,52.26 486.34,50.18 487.79,48.39 489.24,47.25 490.68,45.76 492.13,44.43 493.58,43.78 495.03,42.70 496.48,41.39 497.93,40.65 499.38,39.53 500.82,38.67 502.27,37.86 503.72,36.64 505.17,34.41 506.62,32.67 508.07,31.17 509.52,30.00" />
    </svg>
  