
    <svg width="540" height="160" xmlns="http://www.w3.org/2000/svg">
      <style>.line{fill:none;stroke:#388bfd;stroke-width:1.5}.axis{stroke:#555;stroke-width:1;opacity:0.5}.label{fill:#999;font-family:sans-serif;font-size:10px;text-anchor:middle}</style>
      <line class="axis" x1="30" y1="30" x2="30" y2="130" />
      <line class="axis" x1="30" y1="130" x2="510" y2="130" />
      <text class="label" x="15" y="30">8,412</text>
      <text class="label" x="15" y="134">0</text>
      <text class="label" x="30" y="148">2021</text>
      <text class="label" x="510" y="148">2026</text>
      <polyline class="line" points="30.00,129.98 31.47,129.96 32.95,129.95 34.42,129.95 35.90,129.95 37.37,129.80 38.85,129.80 40.32,129.80 41.80,128.94 43.27,127.53 44.75,127.46 46.22,127.46 47.70,127.46 49.17,127.46 50.65,127.46 52.12,127.46 53.59,127.46 55.07,127.46 56.54,127.46 58.02,127.46 59.49,127.46 60.97,127.46 62.44,127.46 63.92,127.46 65.39,127.46 66.87,127.46 68.34,127.46 69.82,126.65 71.29,126.65 72.76,126.64 74.24,126.64 75.71,126.64 77.19,126.64 78.66,126.59 80.14,126.59 81.61,126.59 83.09,126.59 84.56,126.59 86.04,126.59 87.51,126.59 88.99,126.59 90.46,126.59 91.94,126.59 93.41,126.59 94.88,126.59 96.36,126.59 97.83,126.59 99.31,126.59 100.78,126.59 102.26,126.59 103.73,126.59 105.21,126.54 106.68,125.82 108.16,125.15 109.63,124.88 111.11,123.56 112.58,123.56 114.06,123.56 115.53,123.56 117.00,123.56 118.48,123.56 119.95,123.56 121.43,123.56 122.90,123.56 124.38,123.56 125.85,123.56 127.33,123.56 128.80,123.46 130.28,123.46 131.75,123.46 133.23,123.34 134.70,123.34 136.18,123.34 137.65,123.34 139.12,123.31 140.60,123.31 142.07,123.31 143.55,123.31 145.02,123.28 146.50,123.28 147.97,123.28 149.45,123.28 150.92,123.28 152.40,123.28 153.87,123.28 155.35,123.28 156.82,123.28 158.29,123.28 159.77,123.28 161.24,123.28 162.72,123.28 164.19,123.28 165.67,123.28 167.14,123.28 168.62,123.28 170.09,123.28 171.57,123.28 173.04,123.28 174.52,123.28 175.99,123.28 177.47,123.28 178.94,123.25 180.41,123.25 181.89,123.25 183.36,123.25 184.84,123.25 186.31,123.25 187.79,123.25 189.26,123.25 190.74,123.25 192.21,123.25 193.69,123.25 195.16,123.25 196.64,123.25 198.11,123.25 199.59,123.25 201.06,123.22 202.53,122.91 204.01,122.83 205.48,122.70 206.96,122.53 208.43,122.49 209.91,122.49 211.38,122.49 212.86,122.23 214.33,122.20 215.81,122.04 217.28,121.98 218.76,121.87 220.23,121.45 221.71,121.43 223.18,121.37 224.65,121.36 226.13,121.30 227.60,121.30 229.08,121.27 230.55,121.27 232.03,121.27 233.50,121.27 234.98,121.27 236.45,121.27 237.93,121.27 239.40,121.14 240.88,120.76 242.35,120.48 243.82,120.39 245.30,120.22 246.77,120.20 248.25,120.18 249.72,120.17 251.20,120.17 252.67,120.17 254.15,120.09 255.62,120.00 257.10,119.98 258.57,119.95 260.05,119.93 261.52,119.66 263.00,119.47 264.47,119.18 265.94,119.00 267.42,118.87 268.89,118.81 270.37,118.74 271.84,118.73 273.32,118.67 274.79,118.49 276.27,118.49 277.74,118.49 279.22,118.48 280.69,118.47 282.17,118.47 283.64,118.37 285.12,118.35 286.59,118.34 288.06,118.33 289.54,118.30 291.01,118.30 292.49,118.30 293.96,118.30 295.44,118.30 296.91,118.30 298.39,118.30 299.86,118.30 301.34,118.27 302.81,118.23 304.29,118.23 305.76,118.02 307.24,118.01 308.71,117.99 310.18,117.96 311.66,117.85 313.13,117.59 314.61,117.54 316.08,117.54 317.56,117.54 319.03,117.54 320.51,117.54 321.98,117.54 323.46,117.54 324.93,117.54 326.41,117.54 327.88,117.54 329.35,117.54 330.83,117.54 332.30,117.54 333.78,117.53 335.25,117.46 336.73,117.45 338.20,117.45 339.68,117.45 341.15,117.45 342.63,117.40 344.10,117.40 345.58,117.21 347.05,117.03 348.53,117.03 350.00,117.03 351.47,117.03 352.95,117.03 354.42,117.01 355.90,117.01 357.37,116.98 358.85,116.90 360.32,116.83 361.80,116.51 363.27,116.50 364.75,116.01 366.22,115.72 367.70,115.51 369.17,114.83 370.65,114.65 372.12,114.58 373.59,114.36 375.07,114.01 376.54,113.93 378.02,113.81 379.49,113.62 380.97,113.45 382.44,113.38 383.92,113.26 385.39,113.18 386.87,112.96 388.34,112.77 389.82,112.55 391.29,112.18 392.76,111.97 394.24,110.91 395.71,110.11 397.19,109.60 398.66,109.16 400.14,108.67 401.61,108.67 403.09,108.67 404.56,108.67 406.04,108.36 407.51,108.19 408.99,107.54 410.46,106.82 411.94,105.97 413.41,104.70 414.88,103.81 416.36,101.98 417.83,100.87 419.31,100.14 420.78,98.95 422.26,98.19 423.73,96.68 425.21,94.40 426.68,93.71 428.16,92.82 429.63,91.96 431.11,91.67 432.58,90.58 434.06,90.39 435.53,89.08 437.00,87.89 438.48,87.18 439.95,86.37 441.43,85.30 442.90,85.02 444.38,84.92 445.85,84.80 447.33,84.73 448.80,84.05 450.28,83.17 451.75,82.10 453.23,81.81 454.70,80.94 456.18,79.82 457.65,77.60 459.12,75.96 460.60,73.94 462.07,73.40 463.55,72.33 465.02,70.35 466.50,69.22 467.97,68.60 469.45,67.73 470.92,67.16 472.40,66.34 473.87,65.96 475.35,65.13 476.82,63.55 478.29,61.80 479.77,61.26 481.24,60.28 482.72,58.47 484.19,57.54 485.67,55.30 487.14,54.23 488.62,52.28 490.09,50.38 491.57,48.08 493.04,44.63 494.52,42.35 495.99,40.39 497.47,39.13 498.94,37.50 500.41,36.04 501.89,35.33 503.36,34.14 504.84,32.70 506.31,32.14 507.79,31.08 509.26,30.18" />
    </svg>
  