
    <svg width="540" height="160" xmlns="http://www.w3.org/2000/svg">
      <style>.line{fill:none;stroke:#388bfd;stroke-width:1.5}.axis{stroke:#555;stroke-width:1;opacity:0.5}.label{fill:#999;font-family:sans-serif;font-size:10px;text-anchor:middle}</style>
      <line class="axis" x1="30" y1="30" x2="30" y2="130" />
      <line class="axis" x1="30" y1="130" x2="510" y2="130" />
      <text class="label" x="15" y="30">7,807</text>
      <text class="label" x="15" y="134">0</text>
      <text class="label" x="30" y="148">2021</text>
      <text class="label" x="510" y="148">2026</text>
      <polyline class="line" points="30.00,129.97 31.49,129.96 32.98,129.95 34.48,129.95 35.97,129.95 37.46,129.78 38.95,129.78 40.45,129.78 41.94,128.86 43.43,127.34 44.92,127.26 46.41,127.26 47.91,127.26 49.40,127.26 50.89,127.26 52.38,127.26 53.88,127.26 55.37,127.26 56.86,127.26 58.35,127.26 59.84,127.26 61.34,127.26 62.83,127.26 64.32,127.26 65.81,127.26 67.31,127.26 68.80,127.26 70.29,126.39 71.78,126.39 73.27,126.38 74.77,126.38 76.26,126.38 77.75,126.38 79.24,126.32 80.74,126.32 82.23,126.32 83.72,126.32 85.21,126.32 86.70,126.32 88.20,126.32 89.69,126.32 91.18,126.32 92.67,126.32 94.17,126.32 95.66,126.32 97.15,126.32 98.64,126.32 100.13,126.32 101.63,126.32 103.12,126.32 104.61,126.32 106.10,126.27 107.60,125.49 109.09,124.77 110.58,124.48 112.07,123.06 113.56,123.06 115.06,123.06 116.55,123.06 118.04,123.06 119.53,123.06 121.03,123.06 122.52,123.06 124.01,123.06 125.50,123.06 126.99,123.06 128.49,123.06 129.98,122.96 131.47,122.96 132.96,122.96 134.46,122.83 135.95,122.83 137.44,122.83 138.93,122.83 140.42,122.79 141.92,122.79 143.41,122.79 144.90,122.79 146.39,122.76 147.89,122.76 149.38,122.76 150.87,122.76 152.36,122.76 153.85,122.76 155.35,122.76 156.84,122.76 158.33,122.76 159.82,122.76 161.32,122.76 162.81,122.76 164.30,122.76 165.79,122.76 167.28,122.76 168.78,122.76 170.27,122.76 171.76,122.76 173.25,122.76 174.75,122.76 176.24,122.76 177.73,122.76 179.22,122.76 180.72,122.72 182.21,122.72 183.70,122.72 185.19,122.72 186.68,122.72 188.18,122.72 189.67,122.72 191.16,122.72 192.65,122.72 194.15,122.72 195.64,122.72 197.13,122.72 198.62,122.72 200.11,122.72 201.61,122.72 203.10,122.70 204.59,122.37 206.08,122.28 207.58,122.14 209.07,121.96 210.56,121.90 212.05,121.90 213.54,121.90 215.04,121.62 216.53,121.60 218.02,121.42 219.51,121.35 221.01,121.24 222.50,120.79 223.99,120.76 225.48,120.70 226.97,120.69 228.47,120.62 229.96,120.62 231.45,120.60 232.94,120.60 234.44,120.60 235.93,120.60 237.42,120.60 238.91,120.60 240.40,120.60 241.90,120.46 243.39,120.05 244.88,119.74 246.37,119.65 247.87,119.46 249.36,119.45 250.85,119.42 252.34,119.41 253.83,119.41 255.33,119.41 256.82,119.32 258.31,119.23 259.80,119.20 261.30,119.18 262.79,119.15 264.28,118.86 265.77,118.65 267.26,118.34 268.76,118.15 270.25,118.01 271.74,117.95 273.23,117.87 274.73,117.86 276.22,117.79 277.71,117.60 279.20,117.60 280.69,117.60 282.19,117.59 283.68,117.58 285.17,117.58 286.66,117.47 288.16,117.45 289.65,117.43 291.14,117.42 292.63,117.40 294.12,117.40 295.62,117.40 297.11,117.40 298.60,117.40 300.09,117.40 301.59,117.40 303.08,117.40 304.57,117.36 306.06,117.32 307.55,117.32 309.05,117.09 310.54,117.08 312.03,117.06 313.52,117.02 315.02,116.91 316.51,116.63 318.00,116.58 319.49,116.58 320.98,116.58 322.48,116.58 323.97,116.58 325.46,116.58 326.95,116.58 328.45,116.58 329.94,116.58 331.43,116.58 332.92,116.58 334.41,116.58 335.91,116.58 337.40,116.56 338.89,116.49 340.38,116.47 341.88,116.47 343.37,116.47 344.86,116.47 346.35,116.42 347.84,116.42 349.34,116.22 350.83,116.03 352.32,116.03 353.81,116.03 355.31,116.03 356.80,116.03 358.29,116.00 359.78,116.00 361.27,115.97 362.77,115.88 364.26,115.81 365.75,115.46 367.24,115.45 368.74,114.92 370.23,114.62 371.72,114.39 373.21,113.66 374.70,113.46 376.20,113.39 377.69,113.14 379.18,112.77 380.67,112.68 382.17,112.55 383.66,112.35 385.15,112.17 386.64,112.09 388.13,111.96 389.63,111.88 391.12,111.64 392.61,111.44 394.10,111.20 395.60,110.80 397.09,110.57 398.58,109.43 400.07,108.57 401.56,108.02 403.06,107.55 404.55,107.02 406.04,107.02 407.53,107.02 409.03,107.02 410.52,106.69 412.01,106.50 413.50,105.80 414.99,105.02 416.49,104.11 417.98,102.74 419.47,101.78 420.96,99.81 422.46,98.62 423.95,97.82 425.44,96.54 426.93,95.72 428.42,94.10 429.92,91.64 431.41,90.89 432.90,89.93 434.39,89.01 435.89,88.70 437.38,87.53 438.87,87.32 440.36,85.91 441.85,84.63 443.35,83.86 444.84,82.99 446.33,81.84 447.82,81.53 449.32,81.43 450.81,81.30 452.30,81.22 453.79,80.49 455.28,79.55 456.78,78.39 458.27,78.07 459.76,77.14 461.25,75.93 462.75,73.54 464.24,71.77 465.73,69.59 467.22,69.02 468.72,67.86 470.21,65.72 471.70,64.51 473.19,63.84 474.68,62.91 476.18,62.29 477.67,61.41 479.16,61.00 480.65,60.10 482.15,58.40 483.64,56.51 485.13,55.94 486.62,54.96 488.11,53.40 489.61,52.48 491.10,50.61 492.59,49.62 494.08,47.70 495.58,45.76 497.07,43.71 498.56,40.23 500.05,38.12 501.54,36.10 503.04,34.97 504.53,33.30 506.02,31.88 507.51,31.40 509.01,30.61" />
    </svg>
  