
    <svg width="540" height="160" xmlns="http://www.w3.org/2000/svg">
      <style>.line{fill:none;stroke:#388bfd;stroke-width:1.5}.axis{stroke:#555;stroke-width:1;opacity:0.5}.label{fill:#999;font-family:sans-serif;font-size:10px;text-anchor:middle}</style>
      <line class="axis" x1="30" y1="30" x2="30" y2="130" />
      <line class="axis" x1="30" y1="130" x2="510" y2="130" />
      <text class="label" x="15" y="30">8,442</text>
      <text class="label" x="15" y="134">0</text>
      <text class="label" x="30" y="148">2021</text>
      <text class="label" x="510" y="148">2026</text>
      <polyline class="line" points="30.00,129.98 31.47,129.96 32.95,129.95 34.42,129.95 35.90,129.95 37.37,129.80 38.84,129.80 40.32,129.80 41.79,128.95 43.27,127.54 44.74,127.47 46.21,127.47 47.69,127.47 49.16,127.47 50.63,127.47 52.11,127.47 53.58,127.47 55.06,127.47 56.53,127.47 58.00,127.47 59.48,127.47 60.95,127.47 62.43,127.47 63.90,127.47 65.37,127.47 66.85,127.47 68.32,127.47 69.80,126.66 71.27,126.66 72.74,126.65 74.22,126.65 75.69,126.65 77.16,126.65 78.64,126.60 80.11,126.60 81.59,126.60 83.06,126.60 84.53,126.60 86.01,126.60 87.48,126.60 88.96,126.60 90.43,126.60 91.90,126.60 93.38,126.60 94.85,126.60 96.33,126.60 97.80,126.60 99.27,126.60 100.75,126.60 102.22,126.60 103.69,126.60 105.17,126.55 106.64,125.83 108.12,125.17 109.59,124.89 111.06,123.58 112.54,123.58 114.01,123.58 115.49,123.58 116.96,123.58 118.43,123.58 119.91,123.58 121.38,123.58 122.86,123.58 124.33,123.58 125.80,123.58 127.28,123.58 128.75,123.48 130.23,123.48 131.70,123.48 133.17,123.37 134.65,123.37 136.12,123.37 137.59,123.37 139.07,123.33 140.54,123.33 142.02,123.33 143.49,123.33 144.96,123.31 146.44,123.31 147.91,123.31 149.39,123.31 150.86,123.31 152.33,123.31 153.81,123.31 155.28,123.31 156.76,123.31 158.23,123.31 159.70,123.31 161.18,123.31 162.65,123.31 164.12,123.31 165.60,123.31 167.07,123.31 168.55,123.31 170.02,123.31 171.49,123.31 172.97,123.31 174.44,123.31 175.92,123.31 177.39,123.31 178.86,123.27 180.34,123.27 181.81,123.27 183.29,123.27 184.76,123.27 186.23,123.27 187.71,123.27 189.18,123.27 190.66,123.27 192.13,123.27 193.60,123.27 195.08,123.27 196.55,123.27 198.02,123.27 199.50,123.27 200.97,123.25 202.45,122.94 203.92,122.86 205.39,122.73 206.87,122.56 208.34,122.51 209.82,122.51 211.29,122.51 212.76,122.25 214.24,122.23 215.71,122.06 217.19,122.00 218.66,121.90 220.13,121.48 221.61,121.46 223.08,121.40 224.55,121.39 226.03,121.33 227.50,121.33 228.98,121.31 230.45,121.31 231.92,121.31 233.40,121.31 234.87,121.31 236.35,121.31 237.82,121.31 239.29,121.18 240.77,120.80 242.24,120.51 243.72,120.43 245.19,120.25 246.66,120.24 248.14,120.22 249.61,120.20 251.08,120.20 252.56,120.20 254.03,120.12 255.51,120.04 256.98,120.01 258.45,119.99 259.93,119.97 261.40,119.69 262.88,119.50 264.35,119.22 265.82,119.04 267.30,118.91 268.77,118.85 270.25,118.78 271.72,118.77 273.19,118.71 274.67,118.53 276.14,118.53 277.62,118.53 279.09,118.52 280.56,118.51 282.04,118.51 283.51,118.42 284.98,118.39 286.46,118.38 287.93,118.37 289.41,118.34 290.88,118.34 292.35,118.34 293.83,118.34 295.30,118.34 296.78,118.34 298.25,118.34 299.72,118.34 301.20,118.31 302.67,118.27 304.15,118.27 305.62,118.06 307.09,118.05 308.57,118.04 310.04,118.00 311.51,117.89 312.99,117.63 314.46,117.59 315.94,117.59 317.41,117.59 318.88,117.59 320.36,117.59 321.83,117.59 323.31,117.59 324.78,117.59 326.25,117.59 327.73,117.59 329.20,117.59 330.68,117.59 332.15,117.59 333.62,117.57 335.10,117.50 336.57,117.49 338.05,117.49 339.52,117.49 340.99,117.49 342.47,117.44 343.94,117.44 345.41,117.25 346.89,117.08 348.36,117.08 349.84,117.08 351.31,117.08 352.78,117.08 354.26,117.05 355.73,117.05 357.21,117.03 358.68,116.95 360.15,116.88 361.63,116.56 363.10,116.54 364.58,116.06 366.05,115.77 367.52,115.56 369.00,114.89 370.47,114.71 371.94,114.64 373.42,114.41 374.89,114.07 376.37,113.98 377.84,113.87 379.31,113.68 380.79,113.51 382.26,113.44 383.74,113.32 385.21,113.24 386.68,113.03 388.16,112.84 389.63,112.61 391.11,112.24 392.58,112.03 394.05,110.98 395.53,110.18 397.00,109.67 398.47,109.23 399.95,108.75 401.42,108.75 402.90,108.75 404.37,108.75 405.84,108.44 407.32,108.26 408.79,107.62 410.27,106.90 411.74,106.06 413.21,104.79 414.69,103.90 416.16,102.08 417.64,100.98 419.11,100.24 420.58,99.06 422.06,98.30 423.53,96.80 425.01,94.52 426.48,93.84 427.95,92.95 429.43,92.09 430.90,91.81 432.37,90.72 433.85,90.53 435.32,89.23 436.80,88.04 438.27,87.33 439.74,86.53 441.22,85.46 442.69,85.18 444.17,85.08 445.64,84.96 447.11,84.89 448.59,84.22 450.06,83.34 451.54,82.27 453.01,81.98 454.48,81.11 455.96,80.00 457.43,77.78 458.90,76.15 460.38,74.14 461.85,73.60 463.33,72.54 464.80,70.56 466.27,69.43 467.75,68.82 469.22,67.95 470.70,67.38 472.17,66.57 473.64,66.19 475.12,65.36 476.59,63.78 478.07,62.04 479.54,61.51 481.01,60.53 482.49,58.73 483.96,57.80 485.44,55.56 486.91,54.50 488.38,52.55 489.86,50.66 491.33,48.37 492.80,44.94 494.28,42.66 495.75,40.71 497.23,39.45 498.70,37.83 500.17,36.37 501.65,35.66 503.12,34.48 504.60,33.04 506.07,32.49 507.54,31.43 509.02,30.53" />
    </svg>
  