
    <svg width="540" height="160" xmlns="http://www.w3.org/2000/svg">
      <style>.line{fill:none;stroke:#388bfd;stroke-width:1.5}.axis{stroke:#555;stroke-width:1;opacity:0.5}.label{fill:#999;font-family:sans-serif;font-size:10px;text-anchor:middle}</style>
      <line class="axis" x1="30" y1="30" x2="30" y2="130" />
      <line class="axis" x1="30" y1="130" x2="510" y2="130" />
      <text class="label" x="15" y="30">7,832</text>
      <text class="label" x="15" y="134">0</text>
      <text class="label" x="30" y="148">2021</text>
      <text class="label" x="510" y="148">2026</text>
      <polyline class="line" points="30.00,129.97 31.49,129.96 32.98,129.95 34.47,129.95 35.95,129.95 37.44,129.78 38.93,129.78 40.42,129.78 41.91,128.86 43.40,127.34 44.88,127.27 46.37,127.27 47.86,127.27 49.35,127.27 50.84,127.27 52.33,127.27 53.81,127.27 55.30,127.27 56.79,127.27 58.28,127.27 59.77,127.27 61.26,127.27 62.74,127.27 64.23,127.27 65.72,127.27 67.21,127.27 68.70,127.27 70.19,126.40 71.67,126.40 73.16,126.39 74.65,126.39 76.14,126.39 77.63,126.39 79.12,126.34 80.60,126.34 82.09,126.34 83.58,126.34 85.07,126.34 86.56,126.34 88.05,126.34 89.53,126.34 91.02,126.34 92.51,126.34 94.00,126.34 95.49,126.34 96.98,126.34 98.47,126.34 99.95,126.34 101.44,126.34 102.93,126.34 104.42,126.34 105.91,126.28 107.40,125.51 108.88,124.79 110.37,124.50 111.86,123.08 113.35,123.08 114.84,123.08 116.33,123.08 117.81,123.08 119.30,123.08 120.79,123.08 122.28,123.08 123.77,123.08 125.26,123.08 126.74,123.08 128.23,123.08 129.72,122.98 131.21,122.98 132.70,122.98 134.19,122.85 135.67,122.85 137.16,122.85 138.65,122.85 140.14,122.81 141.63,122.81 143.12,122.81 144.60,122.81 146.09,122.79 147.58,122.79 149.07,122.79 150.56,122.79 152.05,122.79 153.53,122.79 155.02,122.79 156.51,122.79 158.00,122.79 159.49,122.79 160.98,122.79 162.47,122.79 163.95,122.79 165.44,122.79 166.93,122.79 168.42,122.79 169.91,122.79 171.40,122.79 172.88,122.79 174.37,122.79 175.86,122.79 177.35,122.79 178.84,122.79 180.33,122.75 181.81,122.75 183.30,122.75 184.79,122.75 186.28,122.75 187.77,122.75 189.26,122.75 190.74,122.75 192.23,122.75 193.72,122.75 195.21,122.75 196.70,122.75 198.19,122.75 199.67,122.75 201.16,122.75 202.65,122.72 204.14,122.39 205.63,122.30 207.12,122.16 208.60,121.98 210.09,121.93 211.58,121.93 213.07,121.93 214.56,121.65 216.05,121.62 217.53,121.45 219.02,121.38 220.51,121.27 222.00,120.82 223.49,120.79 224.98,120.73 226.47,120.72 227.95,120.65 229.44,120.65 230.93,120.63 232.42,120.63 233.91,120.63 235.40,120.63 236.88,120.63 238.37,120.63 239.86,120.63 241.35,120.49 242.84,120.08 244.33,119.77 245.81,119.68 247.30,119.49 248.79,119.48 250.28,119.45 251.77,119.44 253.26,119.44 254.74,119.44 256.23,119.35 257.72,119.26 259.21,119.24 260.70,119.21 262.19,119.19 263.67,118.89 265.16,118.69 266.65,118.38 268.14,118.19 269.63,118.05 271.12,117.99 272.60,117.91 274.09,117.90 275.58,117.83 277.07,117.64 278.56,117.64 280.05,117.64 281.53,117.63 283.02,117.61 284.51,117.61 286.00,117.51 287.49,117.49 288.98,117.47 290.47,117.46 291.95,117.44 293.44,117.44 294.93,117.44 296.42,117.44 297.91,117.44 299.40,117.44 300.88,117.44 302.37,117.44 303.86,117.40 305.35,117.36 306.84,117.36 308.33,117.13 309.81,117.12 311.30,117.10 312.79,117.07 314.28,116.95 315.77,116.67 317.26,116.62 318.74,116.62 320.23,116.62 321.72,116.62 323.21,116.62 324.70,116.62 326.19,116.62 327.67,116.62 329.16,116.62 330.65,116.62 332.14,116.62 333.63,116.62 335.12,116.62 336.60,116.61 338.09,116.53 339.58,116.52 341.07,116.52 342.56,116.52 344.05,116.52 345.53,116.47 347.02,116.47 348.51,116.26 350.00,116.07 351.49,116.07 352.98,116.07 354.47,116.07 355.95,116.07 357.44,116.04 358.93,116.04 360.42,116.02 361.91,115.93 363.40,115.85 364.88,115.51 366.37,115.50 367.86,114.97 369.35,114.67 370.84,114.44 372.33,113.71 373.81,113.52 375.30,113.44 376.79,113.20 378.28,112.83 379.77,112.74 381.26,112.61 382.74,112.41 384.23,112.23 385.72,112.15 387.21,112.02 388.70,111.93 390.19,111.70 391.67,111.50 393.16,111.26 394.65,110.86 396.14,110.63 397.63,109.49 399.12,108.64 400.60,108.09 402.09,107.62 403.58,107.09 405.07,107.09 406.56,107.09 408.05,107.09 409.53,106.76 411.02,106.57 412.51,105.88 414.00,105.10 415.49,104.20 416.98,102.83 418.47,101.87 419.95,99.91 421.44,98.72 422.93,97.93 424.42,96.65 425.91,95.83 427.40,94.21 428.88,91.76 430.37,91.02 431.86,90.06 433.35,89.14 434.84,88.84 436.33,87.66 437.81,87.46 439.30,86.05 440.79,84.78 442.28,84.01 443.77,83.14 445.26,81.99 446.74,81.69 448.23,81.58 449.72,81.46 451.21,81.38 452.70,80.65 454.19,79.71 455.67,78.56 457.16,78.24 458.65,77.31 460.14,76.11 461.63,73.72 463.12,71.96 464.60,69.79 466.09,69.21 467.58,68.06 469.07,65.93 470.56,64.72 472.05,64.05 473.53,63.12 475.02,62.51 476.51,61.63 478.00,61.22 479.49,60.32 480.98,58.63 482.47,56.75 483.95,56.17 485.44,55.20 486.93,53.65 488.42,52.73 489.91,50.86 491.40,49.88 492.88,47.96 494.37,46.02 495.86,43.98 497.35,40.52 498.84,38.41 500.33,36.40 501.81,35.27 503.30,33.61 504.79,32.20 506.28,31.71 507.77,30.93 509.26,30.04" />
    </svg>
  