
    <svg width="540" height="160" xmlns="http://www.w3.org/2000/svg">
      <style>.line{fill:none;stroke:#388bfd;stroke-width:1.5}.axis{stroke:#555;stroke-width:1;opacity:0.5}.label{fill:#999;font-family:sans-serif;font-size:10px;text-anchor:middle}</style>
      <line class="axis" x1="30" y1="30" x2="30" y2="130" />
      <line class="axis" x1="30" y1="130" x2="510" y2="130" />
      <text class="label" x="15" y="30">7,843</text>
      <text class="label" x="15" y="134">0</text>
      <text class="label" x="30" y="148">2021</text>
      <text class="label" x="510" y="148">2026</text>
      <polyline class="line" points="30.00,129.97 31.49,129.96 32.97,129.95 34.46,129.95 35.95,129.95 37.43,129.78 38.92,129.78 40.41,129.78 41.89,128.87 43.38,127.35 44.87,127.27 46.36,127.27 47.84,127.27 49.33,127.27 50.82,127.27 52.30,127.27 53.79,127.27 55.28,127.27 56.76,127.27 58.25,127.27 59.74,127.27 61.22,127.27 62.71,127.27 64.20,127.27 65.68,127.27 67.17,127.27 68.66,127.27 70.14,126.40 71.63,126.40 73.12,126.39 74.61,126.39 76.09,126.39 77.58,126.39 79.07,126.34 80.55,126.34 82.04,126.34 83.53,126.34 85.01,126.34 86.50,126.34 87.99,126.34 89.47,126.34 90.96,126.34 92.45,126.34 93.93,126.34 95.42,126.34 96.91,126.34 98.39,126.34 99.88,126.34 101.37,126.34 102.85,126.34 104.34,126.34 105.83,126.29 107.32,125.51 108.80,124.80 110.29,124.50 111.78,123.09 113.26,123.09 114.75,123.09 116.24,123.09 117.72,123.09 119.21,123.09 120.70,123.09 122.18,123.09 123.67,123.09 125.16,123.09 126.64,123.09 128.13,123.09 129.62,122.99 131.10,122.99 132.59,122.99 134.08,122.86 135.57,122.86 137.05,122.86 138.54,122.86 140.03,122.82 141.51,122.82 143.00,122.82 144.49,122.82 145.97,122.80 147.46,122.80 148.95,122.80 150.43,122.80 151.92,122.80 153.41,122.80 154.89,122.80 156.38,122.80 157.87,122.80 159.35,122.80 160.84,122.80 162.33,122.80 163.82,122.80 165.30,122.80 166.79,122.80 168.28,122.80 169.76,122.80 171.25,122.80 172.74,122.80 174.22,122.80 175.71,122.80 177.20,122.80 178.68,122.80 180.17,122.76 181.66,122.76 183.14,122.76 184.63,122.76 186.12,122.76 187.60,122.76 189.09,122.76 190.58,122.76 192.07,122.76 193.55,122.76 195.04,122.76 196.53,122.76 198.01,122.76 199.50,122.76 200.99,122.76 202.47,122.73 203.96,122.40 205.45,122.31 206.93,122.17 208.42,121.99 209.91,121.94 211.39,121.94 212.88,121.94 214.37,121.66 215.85,121.64 217.34,121.46 218.83,121.39 220.31,121.28 221.80,120.83 223.29,120.81 224.78,120.74 226.26,120.73 227.75,120.67 229.24,120.67 230.72,120.64 232.21,120.64 233.70,120.64 235.18,120.64 236.67,120.64 238.16,120.64 239.64,120.64 241.13,120.50 242.62,120.09 244.10,119.79 245.59,119.70 247.08,119.51 248.56,119.49 250.05,119.47 251.54,119.46 253.03,119.46 254.51,119.46 256.00,119.37 257.49,119.28 258.97,119.25 260.46,119.23 261.95,119.20 263.43,118.91 264.92,118.70 266.41,118.40 267.89,118.21 269.38,118.07 270.87,118.00 272.35,117.93 273.84,117.91 275.33,117.85 276.81,117.66 278.30,117.66 279.79,117.66 281.28,117.65 282.76,117.63 284.25,117.63 285.74,117.53 287.22,117.50 288.71,117.49 290.20,117.48 291.68,117.45 293.17,117.45 294.66,117.45 296.14,117.45 297.63,117.45 299.12,117.45 300.60,117.45 302.09,117.45 303.58,117.42 305.06,117.38 306.55,117.38 308.04,117.15 309.53,117.14 311.01,117.12 312.50,117.08 313.99,116.97 315.47,116.69 316.96,116.64 318.45,116.64 319.93,116.64 321.42,116.64 322.91,116.64 324.39,116.64 325.88,116.64 327.37,116.64 328.85,116.64 330.34,116.64 331.83,116.64 333.31,116.64 334.80,116.64 336.29,116.63 337.77,116.55 339.26,116.54 340.75,116.54 342.24,116.54 343.72,116.54 345.21,116.48 346.70,116.48 348.18,116.28 349.67,116.09 351.16,116.09 352.64,116.09 354.13,116.09 355.62,116.09 357.10,116.06 358.59,116.06 360.08,116.04 361.56,115.95 363.05,115.87 364.54,115.53 366.02,115.52 367.51,114.99 369.00,114.69 370.49,114.46 371.97,113.73 373.46,113.54 374.95,113.46 376.43,113.22 377.92,112.85 379.41,112.76 380.89,112.63 382.38,112.43 383.87,112.25 385.35,112.18 386.84,112.05 388.33,111.96 389.81,111.73 391.30,111.52 392.79,111.28 394.27,110.89 395.76,110.66 397.25,109.52 398.74,108.67 400.22,108.12 401.71,107.65 403.20,107.13 404.68,107.13 406.17,107.13 407.66,107.13 409.14,106.79 410.63,106.60 412.12,105.91 413.60,105.14 415.09,104.23 416.58,102.87 418.06,101.91 419.55,99.95 421.04,98.76 422.52,97.97 424.01,96.70 425.50,95.88 426.99,94.26 428.47,91.81 429.96,91.07 431.45,90.12 432.93,89.20 434.42,88.89 435.91,87.72 437.39,87.52 438.88,86.11 440.37,84.84 441.85,84.07 443.34,83.21 444.83,82.06 446.31,81.75 447.80,81.65 449.29,81.52 450.77,81.45 452.26,80.72 453.75,79.78 455.23,78.63 456.72,78.31 458.21,77.38 459.70,76.18 461.18,73.80 462.67,72.04 464.16,69.87 465.64,69.30 467.13,68.15 468.62,66.02 470.10,64.81 471.59,64.15 473.08,63.21 474.56,62.60 476.05,61.72 477.54,61.31 479.02,60.42 480.51,58.73 482.00,56.85 483.48,56.28 484.97,55.31 486.46,53.75 487.95,52.84 489.43,50.97 490.92,49.99 492.41,48.08 493.89,46.14 495.38,44.10 496.87,40.65 498.35,38.54 499.84,36.53 501.33,35.41 502.81,33.75 504.30,32.33 505.79,31.85 507.27,31.07 508.76,30.18" />
    </svg>
  