
    <svg width="540" height="160" xmlns="http://www.w3.org/2000/svg">
      <style>.line{fill:none;stroke:#388bfd;stroke-width:1.5}.axis{stroke:#555;stroke-width:1;opacity:0.5}.label{fill:#999;font-family:sans-serif;font-size:10px;text-anchor:middle}</style>
      <line class="axis" x1="30" y1="30" x2="30" y2="130" />
      <line class="axis" x1="30" y1="130" x2="510" y2="130" />
      <text class="label" x="15" y="30">8,367</text>
      <text class="label" x="15" y="134">0</text>
      <text class="label" x="30" y="148">2021</text>
      <text class="label" x="510" y="148">2026</text>
      <polyline class="line" points="30.00,129.98 31.48,129.96 32.95,129.95 34.43,129.95 35.91,129.95 37.38,129.80 38.86,129.80 40.34,129.80 41.82,128.94 43.29,127.51 44.77,127.44 46.25,127.44 47.72,127.44 49.20,127.44 50.68,127.44 52.15,127.44 53.63,127.44 55.11,127.44 56.58,127.44 58.06,127.44 59.54,127.44 61.02,127.44 62.49,127.44 63.97,127.44 65.45,127.44 66.92,127.44 68.40,127.44 69.88,126.63 71.35,126.63 72.83,126.62 74.31,126.62 75.78,126.62 77.26,126.62 78.74,126.57 80.22,126.57 81.69,126.57 83.17,126.57 84.65,126.57 86.12,126.57 87.60,126.57 89.08,126.57 90.55,126.57 92.03,126.57 93.51,126.57 94.98,126.57 96.46,126.57 97.94,126.57 99.42,126.57 100.89,126.57 102.37,126.57 103.85,126.57 105.32,126.52 106.80,125.79 108.28,125.12 109.75,124.85 111.23,123.52 112.71,123.52 114.18,123.52 115.66,123.52 117.14,123.52 118.62,123.52 120.09,123.52 121.57,123.52 123.05,123.52 124.52,123.52 126.00,123.52 127.48,123.52 128.95,123.43 130.43,123.43 131.91,123.43 133.38,123.31 134.86,123.31 136.34,123.31 137.82,123.31 139.29,123.27 140.77,123.27 142.25,123.27 143.72,123.27 145.20,123.25 146.68,123.25 148.15,123.25 149.63,123.25 151.11,123.25 152.58,123.25 154.06,123.25 155.54,123.25 157.02,123.25 158.49,123.25 159.97,123.25 161.45,123.25 162.92,123.25 164.40,123.25 165.88,123.25 167.35,123.25 168.83,123.25 170.31,123.25 171.78,123.25 173.26,123.25 174.74,123.25 176.22,123.25 177.69,123.25 179.17,123.21 180.65,123.21 182.12,123.21 183.60,123.21 185.08,123.21 186.55,123.21 188.03,123.21 189.51,123.21 190.98,123.21 192.46,123.21 193.94,123.21 195.42,123.21 196.89,123.21 198.37,123.21 199.85,123.21 201.32,123.19 202.80,122.88 204.28,122.79 205.75,122.66 207.23,122.49 208.71,122.45 210.18,122.45 211.66,122.45 213.14,122.18 214.62,122.16 216.09,121.99 217.57,121.93 219.05,121.83 220.52,121.41 222.00,121.38 223.48,121.32 224.95,121.31 226.43,121.25 227.91,121.25 229.38,121.23 230.86,121.23 232.34,121.23 233.82,121.23 235.29,121.23 236.77,121.23 238.25,121.23 239.72,121.10 241.20,120.71 242.68,120.43 244.15,120.34 245.63,120.16 247.11,120.15 248.58,120.13 250.06,120.12 251.54,120.12 253.02,120.12 254.49,120.03 255.97,119.95 257.45,119.92 258.92,119.90 260.40,119.88 261.88,119.60 263.35,119.41 264.83,119.12 266.31,118.94 267.78,118.81 269.26,118.75 270.74,118.68 272.22,118.67 273.69,118.61 275.17,118.43 276.65,118.43 278.12,118.43 279.60,118.42 281.08,118.41 282.55,118.41 284.03,118.31 285.51,118.29 286.98,118.28 288.46,118.26 289.94,118.24 291.42,118.24 292.89,118.24 294.37,118.24 295.85,118.24 297.32,118.24 298.80,118.24 300.28,118.24 301.75,118.20 303.23,118.17 304.71,118.17 306.18,117.95 307.66,117.94 309.14,117.93 310.62,117.89 312.09,117.79 313.57,117.52 315.05,117.47 316.52,117.47 318.00,117.47 319.48,117.47 320.95,117.47 322.43,117.47 323.91,117.47 325.38,117.47 326.86,117.47 328.34,117.47 329.82,117.47 331.29,117.47 332.77,117.47 334.25,117.46 335.72,117.39 337.20,117.38 338.68,117.38 340.15,117.38 341.63,117.38 343.11,117.33 344.58,117.33 346.06,117.14 347.54,116.96 349.02,116.96 350.49,116.96 351.97,116.96 353.45,116.96 354.92,116.94 356.40,116.94 357.88,116.91 359.35,116.83 360.83,116.76 362.31,116.43 363.78,116.42 365.26,115.93 366.74,115.65 368.22,115.43 369.69,114.75 371.17,114.57 372.65,114.50 374.12,114.27 375.60,113.92 377.08,113.84 378.55,113.72 380.03,113.53 381.51,113.36 382.98,113.29 384.46,113.17 385.94,113.09 387.42,112.87 388.89,112.68 390.37,112.45 391.85,112.08 393.32,111.87 394.80,110.81 396.28,110.00 397.75,109.49 399.23,109.05 400.71,108.56 402.18,108.56 403.66,108.56 405.14,108.56 406.62,108.25 408.09,108.07 409.57,107.42 411.05,106.69 412.52,105.85 414.00,104.57 415.48,103.67 416.95,101.83 418.43,100.72 419.91,99.98 421.38,98.78 422.86,98.02 424.34,96.50 425.82,94.20 427.29,93.51 428.77,92.62 430.25,91.75 431.72,91.47 433.20,90.37 434.68,90.18 436.15,88.86 437.63,87.67 439.11,86.95 440.58,86.14 442.06,85.06 443.54,84.77 445.02,84.68 446.49,84.56 447.97,84.49 449.45,83.81 450.92,82.92 452.40,81.85 453.88,81.55 455.35,80.68 456.83,79.55 458.31,77.32 459.78,75.67 461.26,73.64 462.74,73.10 464.22,72.02 465.69,70.03 467.17,68.89 468.65,68.27 470.12,67.40 471.60,66.82 473.08,66.00 474.55,65.62 476.03,64.78 477.51,63.19 478.98,61.43 480.46,60.90 481.94,59.90 483.42,58.09 484.89,57.15 486.37,54.90 487.85,53.82 489.32,51.86 490.80,49.95 492.28,47.64 493.75,44.17 495.23,41.88 496.71,39.91 498.18,38.64 499.66,37.00 501.14,35.53 502.62,34.82 504.09,33.62 505.57,32.18 507.05,31.61 508.52,30.55 510.00,30.00" />
    </svg>
  