
    <svg width="540" height="160" xmlns="http://www.w3.org/2000/svg">
      <style>.line{fill:none;stroke:#388bfd;stroke-width:1.5}.axis{stroke:#555;stroke-width:1;opacity:0.5}.label{fill:#999;font-family:sans-serif;font-size:10px;text-anchor:middle}</style>
      <line class="axis" x1="30" y1="30" x2="30" y2="130" />
      <line class="axis" x1="30" y1="130" x2="510" y2="130" />
      <text class="label" x="15" y="30">8,988</text>
      <text class="label" x="15" y="134">0</text>
      <text class="label" x="30" y="148">2021</text>
      <text class="label" x="510" y="148">2026</text>
      <polyline class="line" points="30.00,129.98 31.46,129.97 32.92,129.96 34.37,129.96 35.83,129.96 37.29,129.81 38.75,129.81 40.21,129.81 41.67,129.01 43.12,127.69 44.58,127.62 46.04,127.62 47.50,127.62 48.96,127.62 50.42,127.62 51.87,127.62 53.33,127.62 54.79,127.62 56.25,127.62 57.71,127.62 59.16,127.62 60.62,127.62 62.08,127.62 63.54,127.62 65.00,127.62 66.46,127.62 67.91,127.62 69.37,126.86 70.83,126.86 72.29,126.85 73.75,126.85 75.21,126.85 76.66,126.85 78.12,126.81 79.58,126.81 81.04,126.81 82.50,126.81 83.95,126.81 85.41,126.81 86.87,126.81 88.33,126.81 89.79,126.81 91.25,126.81 92.70,126.81 94.16,126.81 95.62,126.81 97.08,126.81 98.54,126.81 99.99,126.81 101.45,126.81 102.91,126.81 104.37,126.76 105.83,126.08 107.29,125.46 108.74,125.20 110.20,123.97 111.66,123.97 113.12,123.97 114.58,123.97 116.04,123.97 117.49,123.97 118.95,123.97 120.41,123.97 121.87,123.97 123.33,123.97 124.78,123.97 126.24,123.97 127.70,123.88 129.16,123.88 130.62,123.88 132.08,123.77 133.53,123.77 134.99,123.77 136.45,123.77 137.91,123.74 139.37,123.74 140.83,123.74 142.28,123.74 143.74,123.71 145.20,123.71 146.66,123.71 148.12,123.71 149.57,123.71 151.03,123.71 152.49,123.71 153.95,123.71 155.41,123.71 156.87,123.71 158.32,123.71 159.78,123.71 161.24,123.71 162.70,123.71 164.16,123.71 165.62,123.71 167.07,123.71 168.53,123.71 169.99,123.71 171.45,123.71 172.91,123.71 174.36,123.71 175.82,123.71 177.28,123.68 178.74,123.68 180.20,123.68 181.66,123.68 183.11,123.68 184.57,123.68 186.03,123.68 187.49,123.68 188.95,123.68 190.41,123.68 191.86,123.68 193.32,123.68 194.78,123.68 196.24,123.68 197.70,123.68 199.15,123.66 200.61,123.37 202.07,123.29 203.53,123.17 204.99,123.01 206.45,122.97 207.90,122.97 209.36,122.97 210.82,122.72 212.28,122.70 213.74,122.55 215.19,122.49 216.65,122.39 218.11,122.00 219.57,121.98 221.03,121.92 222.49,121.91 223.94,121.86 225.40,121.86 226.86,121.83 228.32,121.83 229.78,121.83 231.24,121.83 232.69,121.83 234.15,121.83 235.61,121.83 237.07,121.71 238.53,121.36 239.98,121.09 241.44,121.01 242.90,120.84 244.36,120.83 245.82,120.81 247.28,120.80 248.73,120.80 250.19,120.80 251.65,120.72 253.11,120.64 254.57,120.62 256.03,120.60 257.48,120.58 258.94,120.32 260.40,120.14 261.86,119.88 263.32,119.71 264.77,119.59 266.23,119.53 267.69,119.46 269.15,119.45 270.61,119.40 272.07,119.23 273.52,119.23 274.98,119.23 276.44,119.22 277.90,119.21 279.36,119.21 280.82,119.12 282.27,119.10 283.73,119.09 285.19,119.07 286.65,119.05 288.11,119.05 289.56,119.05 291.02,119.05 292.48,119.05 293.94,119.05 295.40,119.05 296.86,119.05 298.31,119.02 299.77,118.99 301.23,118.99 302.69,118.79 304.15,118.77 305.61,118.76 307.06,118.73 308.52,118.63 309.98,118.38 311.44,118.34 312.90,118.34 314.35,118.34 315.81,118.34 317.27,118.34 318.73,118.34 320.19,118.34 321.65,118.34 323.10,118.34 324.56,118.34 326.02,118.34 327.48,118.34 328.94,118.34 330.39,118.33 331.85,118.26 333.31,118.25 334.77,118.25 336.23,118.25 337.69,118.25 339.14,118.21 340.60,118.21 342.06,118.03 343.52,117.86 344.98,117.86 346.44,117.86 347.89,117.86 349.35,117.86 350.81,117.84 352.27,117.84 353.73,117.82 355.18,117.74 356.64,117.67 358.10,117.37 359.56,117.36 361.02,116.90 362.48,116.64 363.93,116.44 365.39,115.80 366.85,115.64 368.31,115.57 369.77,115.36 371.23,115.04 372.68,114.96 374.14,114.85 375.60,114.67 377.06,114.51 378.52,114.45 379.97,114.33 381.43,114.26 382.89,114.06 384.35,113.88 385.81,113.67 387.27,113.32 388.72,113.12 390.18,112.13 391.64,111.39 393.10,110.91 394.56,110.50 396.02,110.04 397.47,110.04 398.93,110.04 400.39,110.04 401.85,109.75 403.31,109.58 404.76,108.98 406.22,108.30 407.68,107.51 409.14,106.32 410.60,105.49 412.06,103.78 413.51,102.74 414.97,102.05 416.43,100.94 417.89,100.23 419.35,98.81 420.81,96.68 422.26,96.03 423.72,95.20 425.18,94.40 426.64,94.13 428.10,93.11 429.55,92.93 431.01,91.70 432.47,90.59 433.93,89.92 435.39,89.17 436.85,88.17 438.30,87.90 439.76,87.81 441.22,87.70 442.68,87.63 444.14,87.00 445.59,86.17 447.05,85.17 448.51,84.90 449.97,84.08 451.43,83.04 452.89,80.96 454.34,79.42 455.80,77.53 457.26,77.03 458.72,76.03 460.18,74.17 461.64,73.11 463.09,72.53 464.55,71.72 466.01,71.19 467.47,70.42 468.93,70.06 470.38,69.29 471.84,67.81 473.30,66.17 474.76,65.67 476.22,64.75 477.68,63.06 479.13,62.19 480.59,60.08 482.05,59.08 483.51,57.26 484.97,55.48 486.43,53.33 487.88,50.10 489.34,47.97 490.80,46.13 492.26,44.95 493.72,43.43 495.17,42.06 496.63,41.39 498.09,40.28 499.55,38.93 501.01,38.18 502.47,37.02 503.92,36.14 505.38,35.31 506.84,34.05 508.30,31.76 509.76,30.02" />
    </svg>
  