
    <svg width="540" height="160" xmlns="http://www.w3.org/2000/svg">
      <style>.line{fill:none;stroke:#388bfd;stroke-width:1.5}.axis{stroke:#555;stroke-width:1;opacity:0.5}.label{fill:#999;font-family:sans-serif;font-size:10px;text-anchor:middle}</style>
      <line class="axis" x1="30" y1="30" x2="30" y2="130" />
      <line class="axis" x1="30" y1="130" x2="510" y2="130" />
      <text class="label" x="15" y="30">9,506</text>
      <text class="label" x="15" y="134">0</text>
      <text class="label" x="30" y="148">2021</text>
      <text class="label" x="510" y="148">2026</text>
      <polyline class="line" points="30.00,129.98 31.43,129.97 32.86,129.96 34.29,129.96 35.72,129.96 37.15,129.82 38.58,129.82 40.01,129.82 41.44,129.06 42.87,127.81 44.30,127.75 45.73,127.75 47.16,127.75 48.59,127.75 50.02,127.75 51.45,127.75 52.88,127.75 54.31,127.75 55.74,127.75 57.17,127.75 58.60,127.75 60.03,127.75 61.46,127.75 62.89,127.75 64.32,127.75 65.75,127.75 67.18,127.75 68.61,127.03 70.04,127.03 71.47,127.02 72.90,127.02 74.33,127.02 75.76,127.02 77.19,126.98 78.62,126.98 80.05,126.98 81.48,126.98 82.91,126.98 84.34,126.98 85.77,126.98 87.20,126.98 88.63,126.98 90.06,126.98 91.49,126.98 92.92,126.98 94.35,126.98 95.78,126.98 97.21,126.98 98.64,126.98 100.07,126.98 101.50,126.98 102.93,126.94 104.36,126.30 105.79,125.71 107.22,125.47 108.65,124.30 110.08,124.30 111.51,124.30 112.94,124.30 114.37,124.30 115.80,124.30 117.23,124.30 118.66,124.30 120.09,124.30 121.52,124.30 122.95,124.30 124.38,124.30 125.81,124.21 127.24,124.21 128.67,124.21 130.10,124.11 131.53,124.11 132.96,124.11 134.39,124.11 135.82,124.08 137.25,124.08 138.68,124.08 140.11,124.08 141.54,124.06 142.97,124.06 144.40,124.06 145.83,124.06 147.26,124.06 148.69,124.06 150.12,124.06 151.55,124.06 152.98,124.06 154.41,124.06 155.84,124.06 157.27,124.06 158.70,124.06 160.13,124.06 161.56,124.06 162.99,124.06 164.42,124.06 165.85,124.06 167.28,124.06 168.71,124.06 170.14,124.06 171.57,124.06 173.00,124.06 174.43,124.02 175.86,124.02 177.29,124.02 178.72,124.02 180.15,124.02 181.58,124.02 183.01,124.02 184.44,124.02 185.87,124.02 187.30,124.02 188.73,124.02 190.16,124.02 191.59,124.02 193.02,124.02 194.45,124.02 195.88,124.00 197.31,123.73 198.74,123.66 200.17,123.54 201.60,123.39 203.03,123.35 204.46,123.35 205.89,123.35 207.32,123.12 208.75,123.10 210.18,122.95 211.61,122.90 213.04,122.80 214.47,122.44 215.90,122.42 217.33,122.36 218.76,122.35 220.19,122.30 221.62,122.30 223.05,122.28 224.48,122.28 225.91,122.28 227.34,122.28 228.77,122.28 230.20,122.28 231.63,122.28 233.06,122.16 234.49,121.83 235.92,121.57 237.35,121.50 238.78,121.34 240.21,121.33 241.64,121.31 243.07,121.30 244.50,121.30 245.93,121.30 247.36,121.23 248.79,121.15 250.22,121.13 251.65,121.11 253.08,121.09 254.51,120.85 255.94,120.68 257.37,120.43 258.80,120.27 260.23,120.15 261.66,120.10 263.09,120.04 264.52,120.03 265.95,119.97 267.38,119.82 268.81,119.82 270.24,119.82 271.67,119.81 273.10,119.80 274.53,119.80 275.96,119.71 277.39,119.69 278.82,119.68 280.25,119.67 281.68,119.65 283.11,119.65 284.54,119.65 285.97,119.65 287.40,119.65 288.83,119.65 290.26,119.65 291.69,119.65 293.12,119.62 294.55,119.59 295.98,119.59 297.41,119.40 298.84,119.39 300.27,119.38 301.70,119.34 303.13,119.25 304.56,119.02 305.99,118.98 307.42,118.98 308.85,118.98 310.28,118.98 311.71,118.98 313.14,118.98 314.57,118.98 316.00,118.98 317.43,118.98 318.86,118.98 320.29,118.98 321.72,118.98 323.15,118.98 324.58,118.96 326.01,118.90 327.44,118.89 328.87,118.89 330.30,118.89 331.73,118.89 333.16,118.85 334.59,118.85 336.02,118.68 337.45,118.52 338.88,118.52 340.31,118.52 341.74,118.52 343.17,118.52 344.60,118.50 346.03,118.50 347.46,118.48 348.89,118.41 350.32,118.34 351.75,118.06 353.18,118.05 354.61,117.62 356.04,117.37 357.47,117.18 358.90,116.58 360.33,116.42 361.76,116.36 363.19,116.16 364.62,115.85 366.05,115.78 367.48,115.67 368.91,115.50 370.34,115.36 371.77,115.29 373.20,115.19 374.63,115.11 376.06,114.93 377.49,114.76 378.92,114.56 380.35,114.23 381.78,114.04 383.21,113.11 384.64,112.40 386.07,111.95 387.50,111.56 388.93,111.13 390.36,111.13 391.79,111.13 393.22,111.13 394.65,110.85 396.08,110.70 397.51,110.13 398.94,109.49 400.37,108.74 401.80,107.61 403.23,106.83 404.66,105.21 406.09,104.23 407.52,103.57 408.95,102.52 410.38,101.85 411.81,100.51 413.24,98.49 414.67,97.88 416.10,97.09 417.53,96.34 418.96,96.08 420.39,95.12 421.82,94.95 423.25,93.79 424.68,92.74 426.11,92.11 427.54,91.39 428.97,90.45 430.40,90.19 431.83,90.11 433.26,90.00 434.69,89.94 436.12,89.34 437.55,88.56 438.98,87.62 440.41,87.35 441.84,86.59 443.27,85.60 444.70,83.63 446.13,82.18 447.56,80.39 448.99,79.92 450.42,78.97 451.85,77.21 453.28,76.21 454.71,75.67 456.14,74.90 457.57,74.39 459.00,73.67 460.43,73.33 461.86,72.59 463.29,71.20 464.72,69.65 466.15,69.18 467.58,68.30 469.01,66.70 470.44,65.88 471.87,63.89 473.30,62.95 474.73,61.22 476.16,59.54 477.59,57.51 479.02,54.46 480.45,52.44 481.88,50.70 483.31,49.59 484.74,48.15 486.17,46.85 487.60,46.22 489.03,45.17 490.46,43.90 491.89,43.18 493.32,42.09 494.75,41.26 496.18,40.47 497.61,39.28 499.04,37.11 500.47,35.38 501.90,33.91 503.33,32.70 504.76,32.26 506.19,31.69 507.62,31.23 509.05,30.70" />
    </svg>
  