
    <svg width="540" height="160" xmlns="http://www.w3.org/2000/svg">
      <style>.line{fill:none;stroke:#388bfd;stroke-width:1.5}.axis{stroke:#555;stroke-width:1;opacity:0.5}.label{fill:#999;font-family:sans-serif;font-size:10px;text-anchor:middle}</style>
      <line class="axis" x1="30" y1="30" x2="30" y2="130" />
      <line class="axis" x1="30" y1="130" x2="510" y2="130" />
      <text class="label" x="15" y="30">8,931</text>
      <text class="label" x="15" y="134">0</text>
      <text class="label" x="30" y="148">2021</text>
      <text class="label" x="510" y="148">2026</text>
      <polyline class="line" points="30.00,129.98 31.46,129.97 32.92,129.96 34.38,129.96 35.84,129.96 37.30,129.81 38.76,129.81 40.22,129.81 41.68,129.00 43.14,127.67 44.60,127.60 46.06,127.60 47.53,127.60 48.99,127.60 50.45,127.60 51.91,127.60 53.37,127.60 54.83,127.60 56.29,127.60 57.75,127.60 59.21,127.60 60.67,127.60 62.13,127.60 63.59,127.60 65.05,127.60 66.51,127.60 67.97,127.60 69.43,126.84 70.89,126.84 72.35,126.83 73.81,126.83 75.27,126.83 76.73,126.83 78.19,126.79 79.66,126.79 81.12,126.79 82.58,126.79 84.04,126.79 85.50,126.79 86.96,126.79 88.42,126.79 89.88,126.79 91.34,126.79 92.80,126.79 94.26,126.79 95.72,126.79 97.18,126.79 98.64,126.79 100.10,126.79 101.56,126.79 103.02,126.79 104.48,126.74 105.94,126.06 107.40,125.43 108.86,125.17 110.32,123.93 111.78,123.93 113.25,123.93 114.71,123.93 116.17,123.93 117.63,123.93 119.09,123.93 120.55,123.93 122.01,123.93 123.47,123.93 124.93,123.93 126.39,123.93 127.85,123.84 129.31,123.84 130.77,123.84 132.23,123.73 133.69,123.73 135.15,123.73 136.61,123.73 138.07,123.70 139.53,123.70 140.99,123.70 142.45,123.70 143.91,123.67 145.38,123.67 146.84,123.67 148.30,123.67 149.76,123.67 151.22,123.67 152.68,123.67 154.14,123.67 155.60,123.67 157.06,123.67 158.52,123.67 159.98,123.67 161.44,123.67 162.90,123.67 164.36,123.67 165.82,123.67 167.28,123.67 168.74,123.67 170.20,123.67 171.66,123.67 173.12,123.67 174.58,123.67 176.04,123.67 177.51,123.64 178.97,123.64 180.43,123.64 181.89,123.64 183.35,123.64 184.81,123.64 186.27,123.64 187.73,123.64 189.19,123.64 190.65,123.64 192.11,123.64 193.57,123.64 195.03,123.64 196.49,123.64 197.95,123.64 199.41,123.62 200.87,123.33 202.33,123.25 203.79,123.13 205.25,122.97 206.71,122.92 208.17,122.92 209.63,122.92 211.10,122.68 212.56,122.65 214.02,122.50 215.48,122.44 216.94,122.34 218.40,121.95 219.86,121.93 221.32,121.87 222.78,121.86 224.24,121.80 225.70,121.80 227.16,121.78 228.62,121.78 230.08,121.78 231.54,121.78 233.00,121.78 234.46,121.78 235.92,121.78 237.38,121.66 238.84,121.30 240.30,121.03 241.76,120.95 243.23,120.78 244.69,120.77 246.15,120.75 247.61,120.74 249.07,120.74 250.53,120.74 251.99,120.66 253.45,120.58 254.91,120.56 256.37,120.54 257.83,120.52 259.29,120.26 260.75,120.08 262.21,119.81 263.67,119.64 265.13,119.52 266.59,119.46 268.05,119.40 269.51,119.39 270.97,119.33 272.43,119.16 273.89,119.16 275.35,119.16 276.82,119.15 278.28,119.14 279.74,119.14 281.20,119.05 282.66,119.03 284.12,119.02 285.58,119.00 287.04,118.98 288.50,118.98 289.96,118.98 291.42,118.98 292.88,118.98 294.34,118.98 295.80,118.98 297.26,118.98 298.72,118.95 300.18,118.92 301.64,118.92 303.10,118.71 304.56,118.70 306.02,118.69 307.48,118.66 308.95,118.56 310.41,118.31 311.87,118.27 313.33,118.27 314.79,118.27 316.25,118.27 317.71,118.27 319.17,118.27 320.63,118.27 322.09,118.27 323.55,118.27 325.01,118.27 326.47,118.27 327.93,118.27 329.39,118.27 330.85,118.25 332.31,118.19 333.77,118.18 335.23,118.18 336.69,118.18 338.15,118.18 339.61,118.13 341.08,118.13 342.54,117.95 344.00,117.78 345.46,117.78 346.92,117.78 348.38,117.78 349.84,117.78 351.30,117.76 352.76,117.76 354.22,117.74 355.68,117.66 357.14,117.59 358.60,117.29 360.06,117.28 361.52,116.82 362.98,116.55 364.44,116.35 365.90,115.71 367.36,115.54 368.82,115.48 370.28,115.26 371.74,114.94 373.20,114.86 374.67,114.75 376.13,114.57 377.59,114.41 379.05,114.35 380.51,114.23 381.97,114.16 383.43,113.95 384.89,113.78 386.35,113.56 387.81,113.22 389.27,113.01 390.73,112.02 392.19,111.27 393.65,110.79 395.11,110.37 396.57,109.91 398.03,109.91 399.49,109.91 400.95,109.91 402.41,109.62 403.87,109.45 405.33,108.85 406.80,108.17 408.26,107.37 409.72,106.17 411.18,105.33 412.64,103.61 414.10,102.57 415.56,101.87 417.02,100.75 418.48,100.04 419.94,98.61 421.40,96.47 422.86,95.82 424.32,94.98 425.78,94.17 427.24,93.90 428.70,92.87 430.16,92.69 431.62,91.46 433.08,90.34 434.54,89.67 436.00,88.91 437.46,87.90 438.92,87.63 440.39,87.54 441.85,87.43 443.31,87.36 444.77,86.72 446.23,85.90 447.69,84.89 449.15,84.61 450.61,83.79 452.07,82.74 453.53,80.64 454.99,79.10 456.45,77.20 457.91,76.69 459.37,75.68 460.83,73.81 462.29,72.75 463.75,72.17 465.21,71.35 466.67,70.81 468.13,70.04 469.59,69.68 471.05,68.90 472.52,67.41 473.98,65.76 475.44,65.26 476.90,64.33 478.36,62.63 479.82,61.75 481.28,59.64 482.74,58.63 484.20,56.79 485.66,55.00 487.12,52.84 488.58,49.59 490.04,47.44 491.50,45.60 492.96,44.41 494.42,42.88 495.88,41.50 497.34,40.83 498.80,39.71 500.26,38.35 501.72,37.59 503.18,36.43 504.65,35.54 506.11,34.70 507.57,33.44 509.03,31.13" />
    </svg>
  