
    <svg width="540" height="160" xmlns="http://www.w3.org/2000/svg">
      <style>.line{fill:none;stroke:#388bfd;stroke-width:1.5}.axis{stroke:#555;stroke-width:1;opacity:0.5}.label{fill:#999;font-family:sans-serif;font-size:10px;text-anchor:middle}</style>
      <line class="axis" x1="30" y1="30" x2="30" y2="130" />
      <line class="axis" x1="30" y1="130" x2="510" y2="130" />
      <text class="label" x="15" y="30">5,261</text>
      <text class="label" x="15" y="134">0</text>
      <text class="label" x="30" y="148">2021</text>
      <text class="label" x="510" y="148">2026</text>
      <polyline class="line" points="30.00,129.96 31.51,129.94 33.02,129.92 34.53,129.92 36.04,129.92 37.55,129.68 39.06,129.68 40.57,129.68 42.08,128.31 43.59,126.05 45.10,125.93 46.61,125.93 48.12,125.93 49.63,125.93 51.14,125.93 52.65,125.93 54.16,125.93 55.67,125.93 57.18,125.93 58.69,125.93 60.20,125.93 61.71,125.93 63.22,125.93 64.74,125.93 66.25,125.93 67.76,125.93 69.27,125.93 70.78,124.64 72.29,124.64 73.80,124.62 75.31,124.62 76.82,124.62 78.33,124.62 79.84,124.54 81.35,124.54 82.86,124.54 84.37,124.54 85.88,124.54 87.39,124.54 88.90,124.54 90.41,124.54 91.92,124.54 93.43,124.54 94.94,124.54 96.45,124.54 97.96,124.54 99.47,124.54 100.98,124.54 102.49,124.54 104.00,124.54 105.51,124.54 107.02,124.47 108.53,123.31 110.04,122.24 111.55,121.81 113.06,119.70 114.57,119.70 116.08,119.70 117.59,119.70 119.10,119.70 120.61,119.70 122.12,119.70 123.63,119.70 125.14,119.70 126.65,119.70 128.16,119.70 129.67,119.70 131.19,119.55 132.70,119.55 134.21,119.55 135.72,119.36 137.23,119.36 138.74,119.36 140.25,119.36 141.76,119.30 143.27,119.30 144.78,119.30 146.29,119.30 147.80,119.26 149.31,119.26 150.82,119.26 152.33,119.26 153.84,119.26 155.35,119.26 156.86,119.26 158.37,119.26 159.88,119.26 161.39,119.26 162.90,119.26 164.41,119.26 165.92,119.26 167.43,119.26 168.94,119.26 170.45,119.26 171.96,119.26 173.47,119.26 174.98,119.26 176.49,119.26 178.00,119.26 179.51,119.26 181.02,119.26 182.53,119.20 184.04,119.20 185.55,119.20 187.06,119.20 188.57,119.20 190.08,119.20 191.59,119.20 193.10,119.20 194.61,119.20 196.12,119.20 197.64,119.20 199.15,119.20 200.66,119.20 202.17,119.20 203.68,119.20 205.19,119.17 206.70,118.67 208.21,118.54 209.72,118.33 211.23,118.06 212.74,117.99 214.25,117.99 215.76,117.99 217.27,117.57 218.78,117.53 220.29,117.26 221.80,117.17 223.31,117.00 224.82,116.33 226.33,116.30 227.84,116.20 229.35,116.18 230.86,116.09 232.37,116.09 233.88,116.05 235.39,116.05 236.90,116.05 238.41,116.05 239.92,116.05 241.43,116.05 242.94,116.05 244.45,115.84 245.96,115.23 247.47,114.77 248.98,114.64 250.49,114.36 252.00,114.34 253.51,114.30 255.02,114.28 256.53,114.28 258.04,114.28 259.55,114.15 261.06,114.01 262.57,113.98 264.08,113.94 265.60,113.90 267.11,113.46 268.62,113.16 270.13,112.70 271.64,112.42 273.15,112.21 274.66,112.11 276.17,112.00 277.68,111.98 279.19,111.89 280.70,111.60 282.21,111.60 283.72,111.60 285.23,111.58 286.74,111.56 288.25,111.56 289.76,111.41 291.27,111.37 292.78,111.35 294.29,111.33 295.80,111.30 297.31,111.30 298.82,111.30 300.33,111.30 301.84,111.30 303.35,111.30 304.86,111.30 306.37,111.30 307.88,111.24 309.39,111.18 310.90,111.18 312.41,110.84 313.92,110.82 315.43,110.80 316.94,110.75 318.45,110.57 319.96,110.16 321.47,110.08 322.98,110.08 324.49,110.08 326.00,110.08 327.51,110.08 329.02,110.08 330.53,110.08 332.05,110.08 333.56,110.08 335.07,110.08 336.58,110.08 338.09,110.08 339.60,110.08 341.11,110.06 342.62,109.95 344.13,109.93 345.64,109.93 347.15,109.93 348.66,109.93 350.17,109.85 351.68,109.85 353.19,109.55 354.70,109.26 356.21,109.26 357.72,109.26 359.23,109.26 360.74,109.26 362.25,109.22 363.76,109.22 365.27,109.19 366.78,109.05 368.29,108.94 369.80,108.43 371.31,108.41 372.82,107.63 374.33,107.17 375.84,106.83 377.35,105.75 378.86,105.46 380.37,105.35 381.88,104.99 383.39,104.43 384.90,104.30 386.41,104.11 387.92,103.81 389.43,103.54 390.94,103.43 392.45,103.24 393.96,103.10 395.47,102.76 396.98,102.46 398.50,102.10 400.01,101.51 401.52,101.17 403.03,99.47 404.54,98.20 406.05,97.38 407.56,96.68 409.07,95.90 410.58,95.90 412.09,95.90 413.60,95.90 415.11,95.41 416.62,95.12 418.13,94.49 419.64,93.77 421.15,92.78 422.66,91.22 424.17,90.35 425.68,88.75 427.19,87.82 428.70,87.23 430.21,86.26 431.72,85.50 433.23,84.21 434.74,82.33 436.25,81.78 437.76,80.98 439.27,80.29 440.78,80.07 442.29,79.19 443.80,79.04 445.31,77.99 446.82,77.04 448.33,76.47 449.84,75.81 451.35,74.90 452.86,74.63 454.37,74.50 455.88,74.36 457.39,74.25 458.90,73.53 460.41,72.71 461.92,71.42 463.43,71.04 464.94,70.37 466.46,69.29 467.97,66.88 469.48,65.05 470.99,63.02 472.50,62.58 474.01,61.69 475.52,59.88 477.03,58.78 478.54,58.17 480.05,57.26 481.56,56.78 483.07,56.12 484.58,55.81 486.09,54.79 487.60,53.25 489.11,51.78 490.62,51.35 492.13,50.59 493.64,49.22 495.15,48.19 496.66,46.67 498.17,45.89 499.68,44.33 501.19,42.26 502.70,40.49 504.21,36.75 505.72,34.11 507.23,32.22 508.74,30.93" />
    </svg>
  