
    <svg width="540" height="160" xmlns="http://www.w3.org/2000/svg">
      <style>.line{fill:none;stroke:#388bfd;stroke-width:1.5}.axis{stroke:#555;stroke-width:1;opacity:0.5}.label{fill:#999;font-family:sans-serif;font-size:10px;text-anchor:middle}</style>
      <line class="axis" x1="30" y1="30" x2="30" y2="130" />
      <line class="axis" x1="30" y1="130" x2="510" y2="130" />
      <text class="label" x="15" y="30">11,812</text>
      <text class="label" x="15" y="134">0</text>
      <text class="label" x="30" y="148">2021</text>
      <text class="label" x="510" y="148">2026</text>
      <polyline class="line" points="30.00,129.98 31.37,129.97 32.75,129.97 34.12,129.97 35.50,129.97 36.87,129.86 38.25,129.86 39.62,129.86 41.00,129.25 42.37,128.24 43.75,128.19 45.12,128.19 46.50,128.19 47.87,128.19 49.25,128.19 50.62,128.19 52.00,128.19 53.37,128.19 54.74,128.19 56.12,128.19 57.49,128.19 58.87,128.19 60.24,128.19 61.62,128.19 62.99,128.19 64.37,128.19 65.74,128.19 67.12,127.61 68.49,127.61 69.87,127.60 71.24,127.60 72.62,127.60 73.99,127.60 75.37,127.57 76.74,127.57 78.11,127.57 79.49,127.57 80.86,127.57 82.24,127.57 83.61,127.57 84.99,127.57 86.36,127.57 87.74,127.57 89.11,127.57 90.49,127.57 91.86,127.57 93.24,127.57 94.61,127.57 95.99,127.57 97.36,127.57 98.74,127.57 100.11,127.54 101.48,127.02 102.86,126.55 104.23,126.35 105.61,125.41 106.98,125.41 108.36,125.41 109.73,125.41 111.11,125.41 112.48,125.41 113.86,125.41 115.23,125.41 116.61,125.41 117.98,125.41 119.36,125.41 120.73,125.41 122.11,125.34 123.48,125.34 124.85,125.34 126.23,125.26 127.60,125.26 128.98,125.26 130.35,125.26 131.73,125.23 133.10,125.23 134.48,125.23 135.85,125.23 137.23,125.22 138.60,125.22 139.98,125.22 141.35,125.22 142.73,125.22 144.10,125.22 145.47,125.22 146.85,125.22 148.22,125.22 149.60,125.22 150.97,125.22 152.35,125.22 153.72,125.22 155.10,125.22 156.47,125.22 157.85,125.22 159.22,125.22 160.60,125.22 161.97,125.22 163.35,125.22 164.72,125.22 166.10,125.22 167.47,125.22 168.84,125.19 170.22,125.19 171.59,125.19 172.97,125.19 174.34,125.19 175.72,125.19 177.09,125.19 178.47,125.19 179.84,125.19 181.22,125.19 182.59,125.19 183.97,125.19 185.34,125.19 186.72,125.19 188.09,125.19 189.47,125.17 190.84,124.95 192.21,124.90 193.59,124.80 194.96,124.68 196.34,124.65 197.71,124.65 199.09,124.65 200.46,124.46 201.84,124.45 203.21,124.33 204.59,124.29 205.96,124.21 207.34,123.91 208.71,123.90 210.09,123.85 211.46,123.85 212.84,123.80 214.21,123.80 215.58,123.79 216.96,123.79 218.33,123.79 219.71,123.79 221.08,123.79 222.46,123.79 223.83,123.79 225.21,123.69 226.58,123.42 227.96,123.22 229.33,123.16 230.71,123.03 232.08,123.02 233.46,123.01 234.83,123.00 236.21,123.00 237.58,123.00 238.95,122.94 240.33,122.88 241.70,122.86 243.08,122.85 244.45,122.83 245.83,122.63 247.20,122.50 248.58,122.30 249.95,122.17 251.33,122.08 252.70,122.03 254.08,121.98 255.45,121.97 256.83,121.93 258.20,121.80 259.58,121.80 260.95,121.80 262.32,121.80 263.70,121.79 265.07,121.79 266.45,121.72 267.82,121.70 269.20,121.69 270.57,121.69 271.95,121.67 273.32,121.67 274.70,121.67 276.07,121.67 277.45,121.67 278.82,121.67 280.20,121.67 281.57,121.67 282.95,121.64 284.32,121.62 285.69,121.62 287.07,121.47 288.44,121.46 289.82,121.45 291.19,121.42 292.57,121.35 293.94,121.16 295.32,121.13 296.69,121.13 298.07,121.13 299.44,121.13 300.82,121.13 302.19,121.13 303.57,121.13 304.94,121.13 306.32,121.13 307.69,121.13 309.06,121.13 310.44,121.13 311.81,121.13 313.19,121.12 314.56,121.07 315.94,121.06 317.31,121.06 318.69,121.06 320.06,121.06 321.44,121.03 322.81,121.03 324.19,120.89 325.56,120.76 326.94,120.76 328.31,120.76 329.68,120.76 331.06,120.76 332.43,120.75 333.81,120.75 335.18,120.73 336.56,120.67 337.93,120.62 339.31,120.39 340.68,120.38 342.06,120.04 343.43,119.83 344.81,119.68 346.18,119.20 347.56,119.07 348.93,119.02 350.31,118.86 351.68,118.61 353.05,118.55 354.43,118.47 355.80,118.33 357.18,118.22 358.55,118.16 359.93,118.08 361.30,118.02 362.68,117.87 364.05,117.73 365.43,117.57 366.80,117.31 368.18,117.16 369.55,116.40 370.93,115.84 372.30,115.47 373.68,115.16 375.05,114.81 376.42,114.81 377.80,114.81 379.17,114.81 380.55,114.59 381.92,114.46 383.30,114.01 384.67,113.49 386.05,112.89 387.42,111.98 388.80,111.35 390.17,110.05 391.55,109.26 392.92,108.73 394.30,107.89 395.67,107.35 397.05,106.27 398.42,104.64 399.79,104.15 401.17,103.52 402.54,102.91 403.92,102.71 405.29,101.93 406.67,101.79 408.04,100.86 409.42,100.01 410.79,99.51 412.17,98.93 413.54,98.17 414.92,97.96 416.29,97.90 417.67,97.81 419.04,97.76 420.42,97.28 421.79,96.65 423.16,95.89 424.54,95.68 425.91,95.06 427.29,94.27 428.66,92.68 430.04,91.51 431.41,90.07 432.79,89.69 434.16,88.93 435.54,87.47 436.91,86.50 438.29,85.94 439.66,85.13 441.04,84.61 442.41,83.85 443.79,83.58 445.16,82.91 446.53,81.41 447.91,80.12 449.28,79.74 450.66,79.03 452.03,77.75 453.41,77.09 454.78,75.49 456.16,74.73 457.53,73.34 458.91,71.98 460.28,70.35 461.66,67.89 463.03,66.27 464.41,64.87 465.78,63.97 467.16,62.81 468.53,61.77 469.90,61.26 471.28,60.42 472.65,59.39 474.03,58.82 475.40,57.79 476.78,56.49 478.15,55.27 479.53,54.20 480.90,52.33 482.28,50.79 483.65,49.44 485.03,48.32 486.40,47.77 487.78,46.84 489.15,45.98 490.53,45.14 491.90,43.77 493.27,42.98 494.65,42.14 496.02,41.53 497.40,41.53 498.77,40.84 500.15,40.15 501.52,39.46 502.90,38.43 504.27,37.41 505.65,35.78 507.02,32.84 508.40,31.79 509.77,30.00" />
    </svg>
  