
    <svg width="540" height="160" xmlns="http://www.w3.org/2000/svg">
      <style>.line{fill:none;stroke:#388bfd;stroke-width:1.5}.axis{stroke:#555;stroke-width:1;opacity:0.5}.label{fill:#999;font-family:sans-serif;font-size:10px;text-anchor:middle}</style>
      <line class="axis" x1="30" y1="30" x2="30" y2="130" />
      <line class="axis" x1="30" y1="130" x2="510" y2="130" />
      <text class="label" x="15" y="30">7,476</text>
      <text class="label" x="15" y="134">0</text>
      <text class="label" x="30" y="148">2021</text>
      <text class="label" x="510" y="148">2026</text>
      <polyline class="line" points="30.00,129.97 31.50,129.96 33.00,129.95 34.50,129.95 36.00,129.95 37.50,129.77 39.00,129.77 40.50,129.77 42.00,128.81 43.50,127.22 45.00,127.14 46.50,127.14 48.00,127.14 49.50,127.14 51.00,127.14 52.50,127.14 54.00,127.14 55.50,127.14 57.00,127.14 58.50,127.14 60.00,127.14 61.50,127.14 63.00,127.14 64.50,127.14 66.00,127.14 67.50,127.14 69.00,127.14 70.50,126.23 72.00,126.23 73.50,126.21 75.00,126.21 76.50,126.21 78.00,126.21 79.50,126.16 81.00,126.16 82.50,126.16 84.00,126.16 85.50,126.16 87.00,126.16 88.50,126.16 90.00,126.16 91.50,126.16 93.00,126.16 94.50,126.16 96.00,126.16 97.50,126.16 99.00,126.16 100.50,126.16 102.00,126.16 103.50,126.16 105.00,126.16 106.50,126.11 108.00,125.29 109.50,124.54 111.00,124.23 112.50,122.75 114.00,122.75 115.50,122.75 117.00,122.75 118.50,122.75 120.00,122.75 121.50,122.75 123.00,122.75 124.50,122.75 126.00,122.75 127.50,122.75 129.00,122.75 130.50,122.64 132.00,122.64 133.50,122.64 135.00,122.51 136.50,122.51 138.00,122.51 139.50,122.51 141.00,122.47 142.50,122.47 144.00,122.47 145.50,122.47 147.00,122.44 148.50,122.44 150.00,122.44 151.50,122.44 153.00,122.44 154.50,122.44 156.00,122.44 157.50,122.44 159.00,122.44 160.50,122.44 162.00,122.44 163.50,122.44 165.00,122.44 166.50,122.44 168.00,122.44 169.50,122.44 171.00,122.44 172.50,122.44 174.00,122.44 175.50,122.44 177.00,122.44 178.50,122.44 180.00,122.44 181.50,122.40 183.00,122.40 184.50,122.40 186.00,122.40 187.50,122.40 189.00,122.40 190.50,122.40 192.00,122.40 193.50,122.40 195.00,122.40 196.50,122.40 198.00,122.40 199.50,122.40 201.00,122.40 202.50,122.40 204.00,122.38 205.50,122.03 207.00,121.93 208.50,121.79 210.00,121.60 211.50,121.55 213.00,121.55 214.50,121.55 216.00,121.25 217.50,121.23 219.00,121.04 220.50,120.97 222.00,120.85 223.50,120.38 225.00,120.36 226.50,120.29 228.00,120.28 229.50,120.21 231.00,120.21 232.50,120.18 234.00,120.18 235.50,120.18 237.00,120.18 238.50,120.18 240.00,120.18 241.50,120.18 243.00,120.03 244.50,119.61 246.00,119.29 247.50,119.19 249.00,118.99 250.50,118.98 252.00,118.95 253.50,118.94 255.00,118.94 256.50,118.94 258.00,118.84 259.50,118.75 261.00,118.72 262.50,118.70 264.00,118.67 265.50,118.36 267.00,118.15 268.50,117.83 270.00,117.63 271.50,117.48 273.00,117.41 274.50,117.33 276.00,117.32 277.50,117.25 279.00,117.05 280.50,117.05 282.00,117.05 283.50,117.04 285.00,117.03 286.50,117.03 288.00,116.92 289.50,116.89 291.00,116.88 292.50,116.86 294.00,116.84 295.50,116.84 297.00,116.84 298.50,116.84 300.00,116.84 301.50,116.84 303.00,116.84 304.50,116.84 306.00,116.80 307.50,116.76 309.00,116.76 310.50,116.52 312.00,116.50 313.50,116.49 315.00,116.45 316.50,116.33 318.00,116.04 319.50,115.98 321.00,115.98 322.50,115.98 324.00,115.98 325.50,115.98 327.00,115.98 328.50,115.98 330.00,115.98 331.50,115.98 333.00,115.98 334.50,115.98 336.00,115.98 337.50,115.98 339.00,115.97 340.50,115.89 342.00,115.87 343.50,115.87 345.00,115.87 346.50,115.87 348.00,115.82 349.50,115.82 351.00,115.61 352.50,115.41 354.00,115.41 355.50,115.41 357.00,115.41 358.50,115.41 360.00,115.38 361.50,115.38 363.00,115.35 364.50,115.26 366.00,115.18 367.50,114.82 369.00,114.80 370.50,114.26 372.00,113.94 373.50,113.69 375.00,112.93 376.50,112.73 378.00,112.65 379.50,112.40 381.00,112.01 382.50,111.92 384.00,111.78 385.50,111.57 387.00,111.38 388.50,111.30 390.00,111.17 391.50,111.07 393.00,110.83 394.50,110.62 396.00,110.36 397.50,109.95 399.00,109.71 400.50,108.52 402.00,107.62 403.50,107.05 405.00,106.55 406.50,106.00 408.00,106.00 409.50,106.00 411.00,106.00 412.50,105.66 414.00,105.45 415.50,104.73 417.00,103.92 418.50,102.97 420.00,101.54 421.50,100.53 423.00,98.47 424.50,97.23 426.00,96.40 427.50,95.06 429.00,94.21 430.50,92.51 432.00,89.94 433.50,89.16 435.00,88.16 436.50,87.20 438.00,86.88 439.50,85.64 441.00,85.43 442.50,83.96 444.00,82.62 445.50,81.82 447.00,80.91 448.50,79.71 450.00,79.38 451.50,79.28 453.00,79.14 454.50,79.06 456.00,78.30 457.50,77.31 459.00,76.11 460.50,75.77 462.00,74.80 463.50,73.54 465.00,71.04 466.50,69.19 468.00,66.92 469.50,66.32 471.00,65.11 472.50,62.88 474.00,61.61 475.50,60.91 477.00,59.94 478.50,59.29 480.00,58.37 481.50,57.94 483.00,57.01 484.50,55.23 486.00,53.26 487.50,52.66 489.00,51.74 490.50,50.51 492.00,49.62 493.50,48.25 495.00,47.39 496.50,45.57 498.00,43.64 499.50,41.94 501.00,38.57 502.50,36.49 504.00,34.47 505.50,33.34 507.00,31.70 508.50,30.35 510.00,30.00" />
    </svg>
  