
    <svg width="540" height="160" xmlns="http://www.w3.org/2000/svg">
      <style>.line{fill:none;stroke:#388bfd;stroke-width:1.5}.axis{stroke:#555;stroke-width:1;opacity:0.5}.label{fill:#999;font-family:sans-serif;font-size:10px;text-anchor:middle}</style>
      <line class="axis" x1="30" y1="30" x2="30" y2="130" />
      <line class="axis" x1="30" y1="130" x2="510" y2="130" />
      <text class="label" x="15" y="30">7,736</text>
      <text class="label" x="15" y="134">0</text>
      <text class="label" x="30" y="148">2021</text>
      <text class="label" x="510" y="148">2026</text>
      <polyline class="line" points="30.00,129.97 31.50,129.96 32.99,129.95 34.49,129.95 35.99,129.95 37.48,129.78 38.98,129.78 40.48,129.78 41.98,128.85 43.47,127.31 44.97,127.23 46.47,127.23 47.96,127.23 49.46,127.23 50.96,127.23 52.45,127.23 53.95,127.23 55.45,127.23 56.94,127.23 58.44,127.23 59.94,127.23 61.43,127.23 62.93,127.23 64.43,127.23 65.93,127.23 67.42,127.23 68.92,127.23 70.42,126.35 71.91,126.35 73.41,126.34 74.91,126.34 76.40,126.34 77.90,126.34 79.40,126.29 80.89,126.29 82.39,126.29 83.89,126.29 85.38,126.29 86.88,126.29 88.38,126.29 89.88,126.29 91.37,126.29 92.87,126.29 94.37,126.29 95.86,126.29 97.36,126.29 98.86,126.29 100.35,126.29 101.85,126.29 103.35,126.29 104.84,126.29 106.34,126.24 107.84,125.45 109.33,124.73 110.83,124.43 112.33,122.99 113.83,122.99 115.32,122.99 116.82,122.99 118.32,122.99 119.81,122.99 121.31,122.99 122.81,122.99 124.30,122.99 125.80,122.99 127.30,122.99 128.79,122.99 130.29,122.89 131.79,122.89 133.28,122.89 134.78,122.76 136.28,122.76 137.78,122.76 139.27,122.76 140.77,122.72 142.27,122.72 143.76,122.72 145.26,122.72 146.76,122.70 148.25,122.70 149.75,122.70 151.25,122.70 152.74,122.70 154.24,122.70 155.74,122.70 157.23,122.70 158.73,122.70 160.23,122.70 161.73,122.70 163.22,122.70 164.72,122.70 166.22,122.70 167.71,122.70 169.21,122.70 170.71,122.70 172.20,122.70 173.70,122.70 175.20,122.70 176.69,122.70 178.19,122.70 179.69,122.70 181.19,122.66 182.68,122.66 184.18,122.66 185.68,122.66 187.17,122.66 188.67,122.66 190.17,122.66 191.66,122.66 193.16,122.66 194.66,122.66 196.15,122.66 197.65,122.66 199.15,122.66 200.64,122.66 202.14,122.66 203.64,122.63 205.14,122.30 206.63,122.21 208.13,122.06 209.63,121.88 211.12,121.83 212.62,121.83 214.12,121.83 215.61,121.55 217.11,121.52 218.61,121.34 220.10,121.27 221.60,121.16 223.10,120.71 224.59,120.68 226.09,120.62 227.59,120.60 229.09,120.54 230.58,120.54 232.08,120.51 233.58,120.51 235.07,120.51 236.57,120.51 238.07,120.51 239.56,120.51 241.06,120.51 242.56,120.37 244.05,119.96 245.55,119.65 247.05,119.56 248.54,119.36 250.04,119.35 251.54,119.32 253.04,119.31 254.53,119.31 256.03,119.31 257.53,119.22 259.02,119.13 260.52,119.10 262.02,119.08 263.51,119.05 265.01,118.75 266.51,118.55 268.00,118.24 269.50,118.04 271.00,117.90 272.49,117.84 273.99,117.76 275.49,117.75 276.99,117.68 278.48,117.49 279.98,117.49 281.48,117.49 282.97,117.47 284.47,117.46 285.97,117.46 287.46,117.36 288.96,117.33 290.46,117.32 291.95,117.31 293.45,117.28 294.95,117.28 296.44,117.28 297.94,117.28 299.44,117.28 300.94,117.28 302.43,117.28 303.93,117.28 305.43,117.24 306.92,117.20 308.42,117.20 309.92,116.97 311.41,116.96 312.91,116.94 314.41,116.91 315.90,116.79 317.40,116.50 318.90,116.45 320.40,116.45 321.89,116.45 323.39,116.45 324.89,116.45 326.38,116.45 327.88,116.45 329.38,116.45 330.87,116.45 332.37,116.45 333.87,116.45 335.36,116.45 336.86,116.45 338.36,116.44 339.85,116.36 341.35,116.35 342.85,116.35 344.35,116.35 345.84,116.35 347.34,116.30 348.84,116.30 350.33,116.09 351.83,115.90 353.33,115.90 354.82,115.90 356.32,115.90 357.82,115.90 359.31,115.87 360.81,115.87 362.31,115.85 363.80,115.75 365.30,115.68 366.80,115.33 368.30,115.32 369.79,114.79 371.29,114.48 372.79,114.24 374.28,113.51 375.78,113.31 377.28,113.23 378.77,112.99 380.27,112.61 381.77,112.52 383.26,112.39 384.76,112.19 386.26,112.01 387.75,111.93 389.25,111.80 390.75,111.71 392.25,111.48 393.74,111.27 395.24,111.02 396.74,110.62 398.23,110.39 399.73,109.24 401.23,108.37 402.72,107.82 404.22,107.34 405.72,106.81 407.21,106.81 408.71,106.81 410.21,106.81 411.70,106.47 413.20,106.28 414.70,105.58 416.20,104.79 417.69,103.88 419.19,102.49 420.69,101.52 422.18,99.53 423.68,98.33 425.18,97.53 426.67,96.24 428.17,95.41 429.67,93.77 431.16,91.28 432.66,90.54 434.16,89.57 435.65,88.63 437.15,88.32 438.65,87.14 440.15,86.93 441.64,85.51 443.14,84.21 444.64,83.44 446.13,82.56 447.63,81.40 449.13,81.09 450.62,80.98 452.12,80.85 453.62,80.78 455.11,80.04 456.61,79.08 458.11,77.92 459.60,77.60 461.10,76.65 462.60,75.44 464.10,73.02 465.59,71.24 467.09,69.04 468.59,68.46 470.08,67.29 471.58,65.13 473.08,63.91 474.57,63.23 476.07,62.29 477.57,61.67 479.06,60.78 480.56,60.36 482.06,59.46 483.56,57.74 485.05,55.84 486.55,55.26 488.05,54.28 489.54,52.70 491.04,51.77 492.54,49.88 494.03,48.89 495.53,46.95 497.03,44.98 498.52,42.91 500.02,39.41 501.52,37.28 503.01,35.24 504.51,34.10 506.01,32.42 507.51,30.98 509.00,30.49" />
    </svg>
  