
    <svg width="540" height="160" xmlns="http://www.w3.org/2000/svg">
      <style>.line{fill:none;stroke:#388bfd;stroke-width:1.5}.axis{stroke:#555;stroke-width:1;opacity:0.5}.label{fill:#999;font-family:sans-serif;font-size:10px;text-anchor:middle}</style>
      <line class="axis" x1="30" y1="30" x2="30" y2="130" />
      <line class="axis" x1="30" y1="130" x2="510" y2="130" />
      <text class="label" x="15" y="30">8,921</text>
      <text class="label" x="15" y="134">0</text>
      <text class="label" x="30" y="148">2021</text>
      <text class="label" x="510" y="148">2026</text>
      <polyline class="line" points="30.00,129.98 31.46,129.97 32.92,129.96 34.38,129.96 35.84,129.96 37.31,129.81 38.77,129.81 40.23,129.81 41.69,129.00 43.15,127.67 44.61,127.60 46.07,127.60 47.53,127.60 49.00,127.60 50.46,127.60 51.92,127.60 53.38,127.60 54.84,127.60 56.30,127.60 57.76,127.60 59.22,127.60 60.68,127.60 62.15,127.60 63.61,127.60 65.07,127.60 66.53,127.60 67.99,127.60 69.45,126.84 70.91,126.84 72.37,126.83 73.84,126.83 75.30,126.83 76.76,126.83 78.22,126.78 79.68,126.78 81.14,126.78 82.60,126.78 84.06,126.78 85.53,126.78 86.99,126.78 88.45,126.78 89.91,126.78 91.37,126.78 92.83,126.78 94.29,126.78 95.75,126.78 97.21,126.78 98.68,126.78 100.14,126.78 101.60,126.78 103.06,126.78 104.52,126.74 105.98,126.05 107.44,125.43 108.90,125.17 110.37,123.92 111.83,123.92 113.29,123.92 114.75,123.92 116.21,123.92 117.67,123.92 119.13,123.92 120.59,123.92 122.05,123.92 123.52,123.92 124.98,123.92 126.44,123.92 127.90,123.83 129.36,123.83 130.82,123.83 132.28,123.72 133.74,123.72 135.21,123.72 136.67,123.72 138.13,123.69 139.59,123.69 141.05,123.69 142.51,123.69 143.97,123.67 145.43,123.67 146.89,123.67 148.36,123.67 149.82,123.67 151.28,123.67 152.74,123.67 154.20,123.67 155.66,123.67 157.12,123.67 158.58,123.67 160.05,123.67 161.51,123.67 162.97,123.67 164.43,123.67 165.89,123.67 167.35,123.67 168.81,123.67 170.27,123.67 171.74,123.67 173.20,123.67 174.66,123.67 176.12,123.67 177.58,123.63 179.04,123.63 180.50,123.63 181.96,123.63 183.42,123.63 184.89,123.63 186.35,123.63 187.81,123.63 189.27,123.63 190.73,123.63 192.19,123.63 193.65,123.63 195.11,123.63 196.58,123.63 198.04,123.63 199.50,123.61 200.96,123.32 202.42,123.24 203.88,123.12 205.34,122.96 206.80,122.92 208.26,122.92 209.73,122.92 211.19,122.67 212.65,122.65 214.11,122.49 215.57,122.43 217.03,122.33 218.49,121.94 219.95,121.92 221.42,121.86 222.88,121.85 224.34,121.79 225.80,121.79 227.26,121.77 228.72,121.77 230.18,121.77 231.64,121.77 233.11,121.77 234.57,121.77 236.03,121.77 237.49,121.65 238.95,121.29 240.41,121.02 241.87,120.94 243.33,120.77 244.79,120.76 246.26,120.74 247.72,120.73 249.18,120.73 250.64,120.73 252.10,120.65 253.56,120.57 255.02,120.55 256.48,120.53 257.95,120.51 259.41,120.25 260.87,120.07 262.33,119.80 263.79,119.63 265.25,119.51 266.71,119.45 268.17,119.38 269.63,119.37 271.10,119.32 272.56,119.15 274.02,119.15 275.48,119.15 276.94,119.14 278.40,119.13 279.86,119.13 281.32,119.04 282.79,119.01 284.25,119.00 285.71,118.99 287.17,118.97 288.63,118.97 290.09,118.97 291.55,118.97 293.01,118.97 294.47,118.97 295.94,118.97 297.40,118.97 298.86,118.94 300.32,118.90 301.78,118.90 303.24,118.70 304.70,118.69 306.16,118.68 307.63,118.64 309.09,118.54 310.55,118.30 312.01,118.25 313.47,118.25 314.93,118.25 316.39,118.25 317.85,118.25 319.32,118.25 320.78,118.25 322.24,118.25 323.70,118.25 325.16,118.25 326.62,118.25 328.08,118.25 329.54,118.25 331.00,118.24 332.47,118.17 333.93,118.16 335.39,118.16 336.85,118.16 338.31,118.16 339.77,118.12 341.23,118.12 342.69,117.94 344.16,117.77 345.62,117.77 347.08,117.77 348.54,117.77 350.00,117.77 351.46,117.75 352.92,117.75 354.38,117.73 355.84,117.65 357.31,117.58 358.77,117.28 360.23,117.27 361.69,116.81 363.15,116.54 364.61,116.34 366.07,115.70 367.53,115.53 369.00,115.46 370.46,115.25 371.92,114.92 373.38,114.84 374.84,114.73 376.30,114.55 377.76,114.40 379.22,114.33 380.68,114.22 382.15,114.14 383.61,113.94 385.07,113.76 386.53,113.54 387.99,113.20 389.45,113.00 390.91,112.00 392.37,111.25 393.84,110.76 395.30,110.35 396.76,109.89 398.22,109.89 399.68,109.89 401.14,109.89 402.60,109.60 404.06,109.43 405.53,108.83 406.99,108.14 408.45,107.35 409.91,106.15 411.37,105.31 412.83,103.58 414.29,102.54 415.75,101.84 417.21,100.72 418.68,100.00 420.14,98.58 421.60,96.43 423.06,95.78 424.52,94.94 425.98,94.13 427.44,93.86 428.90,92.83 430.37,92.65 431.83,91.42 433.29,90.30 434.75,89.62 436.21,88.86 437.67,87.85 439.13,87.58 440.59,87.49 442.05,87.38 443.52,87.31 444.98,86.68 446.44,85.85 447.90,84.84 449.36,84.56 450.82,83.74 452.28,82.68 453.74,80.59 455.21,79.04 456.67,77.14 458.13,76.63 459.59,75.62 461.05,73.75 462.51,72.69 463.97,72.10 465.43,71.28 466.89,70.75 468.36,69.97 469.82,69.61 471.28,68.83 472.74,67.34 474.20,65.69 475.66,65.19 477.12,64.26 478.58,62.55 480.05,61.68 481.51,59.56 482.97,58.55 484.43,56.71 485.89,54.92 487.35,52.76 488.81,49.50 490.27,47.35 491.74,45.50 493.20,44.31 494.66,42.78 496.12,41.40 497.58,40.73 499.04,39.61 500.50,38.25 501.96,37.49 503.42,36.32 504.89,35.44 506.35,34.60 507.81,33.33 509.27,31.02" />
    </svg>
  