
    <svg width="540" height="160" xmlns="http://www.w3.org/2000/svg">
      <style>.line{fill:none;stroke:#388bfd;stroke-width:1.5}.axis{stroke:#555;stroke-width:1;opacity:0.5}.label{fill:#999;font-family:sans-serif;font-size:10px;text-anchor:middle}</style>
      <line class="axis" x1="30" y1="30" x2="30" y2="130" />
      <line class="axis" x1="30" y1="130" x2="510" y2="130" />
      <text class="label" x="15" y="30">5,247</text>
      <text class="label" x="15" y="134">0</text>
      <text class="label" x="30" y="148">2021</text>
      <text class="label" x="510" y="148">2026</text>
      <polyline class="line" points="30.00,129.96 31.51,129.94 33.02,129.92 34.54,129.92 36.05,129.92 37.56,129.68 39.07,129.68 40.58,129.68 42.09,128.30 43.61,126.04 45.12,125.92 46.63,125.92 48.14,125.92 49.65,125.92 51.17,125.92 52.68,125.92 54.19,125.92 55.70,125.92 57.21,125.92 58.72,125.92 60.24,125.92 61.75,125.92 63.26,125.92 64.77,125.92 66.28,125.92 67.80,125.92 69.31,125.92 70.82,124.63 72.33,124.63 73.84,124.61 75.35,124.61 76.87,124.61 78.38,124.61 79.89,124.53 81.40,124.53 82.91,124.53 84.43,124.53 85.94,124.53 87.45,124.53 88.96,124.53 90.47,124.53 91.98,124.53 93.50,124.53 95.01,124.53 96.52,124.53 98.03,124.53 99.54,124.53 101.06,124.53 102.57,124.53 104.08,124.53 105.59,124.53 107.10,124.45 108.61,123.29 110.13,122.22 111.64,121.79 113.15,119.67 114.66,119.67 116.17,119.67 117.69,119.67 119.20,119.67 120.71,119.67 122.22,119.67 123.73,119.67 125.24,119.67 126.76,119.67 128.27,119.67 129.78,119.67 131.29,119.52 132.80,119.52 134.31,119.52 135.83,119.33 137.34,119.33 138.85,119.33 140.36,119.33 141.87,119.27 143.39,119.27 144.90,119.27 146.41,119.27 147.92,119.23 149.43,119.23 150.94,119.23 152.46,119.23 153.97,119.23 155.48,119.23 156.99,119.23 158.50,119.23 160.02,119.23 161.53,119.23 163.04,119.23 164.55,119.23 166.06,119.23 167.57,119.23 169.09,119.23 170.60,119.23 172.11,119.23 173.62,119.23 175.13,119.23 176.65,119.23 178.16,119.23 179.67,119.23 181.18,119.23 182.69,119.17 184.20,119.17 185.72,119.17 187.23,119.17 188.74,119.17 190.25,119.17 191.76,119.17 193.28,119.17 194.79,119.17 196.30,119.17 197.81,119.17 199.32,119.17 200.83,119.17 202.35,119.17 203.86,119.17 205.37,119.14 206.88,118.64 208.39,118.51 209.91,118.30 211.42,118.03 212.93,117.96 214.44,117.96 215.95,117.96 217.46,117.54 218.98,117.50 220.49,117.23 222.00,117.14 223.51,116.96 225.02,116.30 226.54,116.26 228.05,116.16 229.56,116.14 231.07,116.05 232.58,116.05 234.09,116.01 235.61,116.01 237.12,116.01 238.63,116.01 240.14,116.01 241.65,116.01 243.17,116.01 244.68,115.80 246.19,115.19 247.70,114.73 249.21,114.60 250.72,114.31 252.24,114.30 253.75,114.26 255.26,114.24 256.77,114.24 258.28,114.24 259.80,114.11 261.31,113.97 262.82,113.93 264.33,113.90 265.84,113.86 267.35,113.42 268.87,113.11 270.38,112.66 271.89,112.37 273.40,112.16 274.91,112.07 276.43,111.95 277.94,111.93 279.45,111.84 280.96,111.55 282.47,111.55 283.98,111.55 285.50,111.53 287.01,111.51 288.52,111.51 290.03,111.36 291.54,111.32 293.06,111.30 294.57,111.28 296.08,111.25 297.59,111.25 299.10,111.25 300.61,111.25 302.13,111.25 303.64,111.25 305.15,111.25 306.66,111.25 308.17,111.19 309.69,111.13 311.20,111.13 312.71,110.79 314.22,110.77 315.73,110.75 317.24,110.69 318.76,110.52 320.27,110.10 321.78,110.03 323.29,110.03 324.80,110.03 326.31,110.03 327.83,110.03 329.34,110.03 330.85,110.03 332.36,110.03 333.87,110.03 335.39,110.03 336.90,110.03 338.41,110.03 339.92,110.03 341.43,110.01 342.94,109.89 344.46,109.87 345.97,109.87 347.48,109.87 348.99,109.87 350.50,109.80 352.02,109.80 353.53,109.49 355.04,109.21 356.55,109.21 358.06,109.21 359.57,109.21 361.09,109.21 362.60,109.17 364.11,109.17 365.62,109.13 367.13,109.00 368.65,108.88 370.16,108.37 371.67,108.35 373.18,107.57 374.69,107.11 376.20,106.77 377.72,105.68 379.23,105.40 380.74,105.28 382.25,104.92 383.76,104.37 385.28,104.23 386.79,104.04 388.30,103.74 389.81,103.47 391.32,103.36 392.83,103.17 394.35,103.03 395.86,102.69 397.37,102.38 398.88,102.02 400.39,101.43 401.91,101.09 403.42,99.39 404.93,98.12 406.44,97.30 407.95,96.59 409.46,95.81 410.98,95.81 412.49,95.81 414.00,95.81 415.51,95.31 417.02,95.03 418.54,94.40 420.05,93.67 421.56,92.68 423.07,91.12 424.58,90.24 426.09,88.64 427.61,87.71 429.12,87.12 430.63,86.15 432.14,85.38 433.65,84.09 435.17,82.20 436.68,81.65 438.19,80.85 439.70,80.16 441.21,79.93 442.72,79.06 444.24,78.90 445.75,77.86 447.26,76.90 448.77,76.33 450.28,75.66 451.80,74.75 453.31,74.48 454.82,74.35 456.33,74.22 457.84,74.10 459.35,73.38 460.87,72.56 462.38,71.26 463.89,70.88 465.40,70.21 466.91,69.13 468.43,66.71 469.94,64.88 471.45,62.84 472.96,62.40 474.47,61.50 475.98,59.69 477.50,58.59 479.01,57.98 480.52,57.06 482.03,56.59 483.54,55.92 485.06,55.61 486.57,54.59 488.08,53.04 489.59,51.57 491.10,51.14 492.61,50.37 494.13,49.00 495.64,47.97 497.15,46.45 498.66,45.67 500.17,44.10 501.69,42.03 503.20,40.25 504.71,36.50 506.22,33.85 507.73,31.96 509.24,30.67" />
    </svg>
  