
    <svg width="540" height="160" xmlns="http://www.w3.org/2000/svg">
      <style>.line{fill:none;stroke:#388bfd;stroke-width:1.5}.axis{stroke:#555;stroke-width:1;opacity:0.5}.label{fill:#999;font-family:sans-serif;font-size:10px;text-anchor:middle}</style>
      <line class="axis" x1="30" y1="30" x2="30" y2="130" />
      <line class="axis" x1="30" y1="130" x2="510" y2="130" />
      <text class="label" x="15" y="30">4,194</text>
      <text class="label" x="15" y="134">0</text>
      <text class="label" x="30" y="148">2021</text>
      <text class="label" x="510" y="148">2026</text>
      <polyline class="line" points="30.00,129.95 31.53,129.93 33.06,129.90 34.59,129.90 36.11,129.90 37.64,129.59 39.17,129.59 40.70,129.59 42.23,127.88 43.76,125.04 45.29,124.90 46.82,124.90 48.34,124.90 49.87,124.90 51.40,124.90 52.93,124.90 54.46,124.90 55.99,124.90 57.52,124.90 59.04,124.90 60.57,124.90 62.10,124.90 63.63,124.90 65.16,124.90 66.69,124.90 68.22,124.90 69.75,124.90 71.27,123.28 72.80,123.28 74.33,123.25 75.86,123.25 77.39,123.25 78.92,123.25 80.45,123.16 81.97,123.16 83.50,123.16 85.03,123.16 86.56,123.16 88.09,123.16 89.62,123.16 91.15,123.16 92.68,123.16 94.20,123.16 95.73,123.16 97.26,123.16 98.79,123.16 100.32,123.16 101.85,123.16 103.38,123.16 104.90,123.16 106.43,123.16 107.96,123.06 109.49,121.61 111.02,120.27 112.55,119.72 114.08,117.08 115.61,117.08 117.13,117.08 118.66,117.08 120.19,117.08 121.72,117.08 123.25,117.08 124.78,117.08 126.31,117.08 127.83,117.08 129.36,117.08 130.89,117.08 132.42,116.89 133.95,116.89 135.48,116.89 137.01,116.65 138.54,116.65 140.06,116.65 141.59,116.65 143.12,116.58 144.65,116.58 146.18,116.58 147.71,116.58 149.24,116.53 150.76,116.53 152.29,116.53 153.82,116.53 155.35,116.53 156.88,116.53 158.41,116.53 159.94,116.53 161.46,116.53 162.99,116.53 164.52,116.53 166.05,116.53 167.58,116.53 169.11,116.53 170.64,116.53 172.17,116.53 173.69,116.53 175.22,116.53 176.75,116.53 178.28,116.53 179.81,116.53 181.34,116.53 182.87,116.53 184.39,116.46 185.92,116.46 187.45,116.46 188.98,116.46 190.51,116.46 192.04,116.46 193.57,116.46 195.10,116.46 196.62,116.46 198.15,116.46 199.68,116.46 201.21,116.46 202.74,116.46 204.27,116.46 205.80,116.46 207.32,116.41 208.85,115.79 210.38,115.62 211.91,115.36 213.44,115.03 214.97,114.93 216.50,114.93 218.03,114.93 219.55,114.41 221.08,114.36 222.61,114.02 224.14,113.91 225.67,113.69 227.20,112.86 228.73,112.81 230.25,112.69 231.78,112.67 233.31,112.55 234.84,112.55 236.37,112.50 237.90,112.50 239.43,112.50 240.96,112.50 242.48,112.50 244.01,112.50 245.54,112.50 247.07,112.24 248.60,111.47 250.13,110.90 251.66,110.73 253.18,110.38 254.71,110.35 256.24,110.31 257.77,110.28 259.30,110.28 260.83,110.28 262.36,110.11 263.89,109.95 265.41,109.90 266.94,109.85 268.47,109.80 270.00,109.26 271.53,108.87 273.06,108.30 274.59,107.94 276.11,107.68 277.64,107.56 279.17,107.42 280.70,107.40 282.23,107.28 283.76,106.92 285.29,106.92 286.82,106.92 288.34,106.90 289.87,106.87 291.40,106.87 292.93,106.68 294.46,106.63 295.99,106.61 297.52,106.59 299.04,106.54 300.57,106.54 302.10,106.54 303.63,106.54 305.16,106.54 306.69,106.54 308.22,106.54 309.75,106.54 311.27,106.47 312.80,106.39 314.33,106.39 315.86,105.97 317.39,105.94 318.92,105.92 320.45,105.85 321.97,105.63 323.50,105.11 325.03,105.01 326.56,105.01 328.09,105.01 329.62,105.01 331.15,105.01 332.68,105.01 334.20,105.01 335.73,105.01 337.26,105.01 338.79,105.01 340.32,105.01 341.85,105.01 343.38,105.01 344.90,104.99 346.43,104.85 347.96,104.82 349.49,104.82 351.02,104.82 352.55,104.82 354.08,104.73 355.61,104.73 357.13,104.34 358.66,103.99 360.19,103.99 361.72,103.99 363.25,103.99 364.78,103.99 366.31,103.94 367.83,103.94 369.36,103.89 370.89,103.72 372.42,103.58 373.95,102.94 375.48,102.91 377.01,101.94 378.54,101.36 380.06,100.93 381.59,99.58 383.12,99.36 384.65,99.31 386.18,99.31 387.71,99.31 389.24,99.31 390.76,99.27 392.29,99.15 393.82,99.15 395.35,99.15 396.88,99.15 398.41,99.15 399.94,99.15 401.46,99.10 402.99,99.05 404.52,99.05 406.05,99.05 407.58,99.00 409.11,99.00 410.64,98.81 412.17,98.72 413.69,98.72 415.22,98.72 416.75,98.72 418.28,98.72 419.81,98.72 421.34,98.72 422.87,98.19 424.39,97.64 425.92,97.19 427.45,96.57 428.98,95.86 430.51,94.16 432.04,93.11 433.57,92.37 435.10,91.16 436.62,90.21 438.15,88.58 439.68,86.25 441.21,85.56 442.74,84.55 444.27,83.70 445.80,83.41 447.32,82.31 448.85,82.12 450.38,80.81 451.91,79.62 453.44,78.90 454.97,78.07 456.50,76.92 458.03,76.59 459.55,76.42 461.08,76.26 462.61,76.11 464.14,75.21 465.67,74.18 467.20,72.56 468.73,72.08 470.25,71.25 471.78,69.89 473.31,66.86 474.84,64.57 476.37,62.02 477.90,61.47 479.43,60.35 480.96,58.09 482.48,56.70 484.01,55.94 485.54,54.80 487.07,54.20 488.60,53.37 490.13,52.99 491.66,51.70 493.18,49.77 494.71,47.93 496.24,47.38 497.77,46.43 499.30,44.71 500.83,43.42 502.36,41.52 503.89,40.54 505.41,38.58 506.94,35.98 508.47,33.77 510.00,30.00" />
    </svg>
  