
    <svg width="540" height="160" xmlns="http://www.w3.org/2000/svg">
      <style>.line{fill:none;stroke:#388bfd;stroke-width:1.5}.axis{stroke:#555;stroke-width:1;opacity:0.5}.label{fill:#999;font-family:sans-serif;font-size:10px;text-anchor:middle}</style>
      <line class="axis" x1="30" y1="30" x2="30" y2="130" />
      <line class="axis" x1="30" y1="130" x2="510" y2="130" />
      <text class="label" x="15" y="30">8,556</text>
      <text class="label" x="15" y="134">0</text>
      <text class="label" x="30" y="148">2021</text>
      <text class="label" x="510" y="148">2026</text>
      <polyline class="line" points="30.00,129.98 31.47,129.96 32.94,129.95 34.41,129.95 35.88,129.95 37.35,129.80 38.82,129.80 40.29,129.80 41.76,128.96 43.23,127.57 44.70,127.50 46.17,127.50 47.64,127.50 49.11,127.50 50.58,127.50 52.05,127.50 53.52,127.50 54.99,127.50 56.46,127.50 57.93,127.50 59.40,127.50 60.87,127.50 62.34,127.50 63.81,127.50 65.28,127.50 66.75,127.50 68.22,127.50 69.69,126.70 71.16,126.70 72.63,126.69 74.10,126.69 75.57,126.69 77.04,126.69 78.51,126.65 79.98,126.65 81.45,126.65 82.92,126.65 84.40,126.65 85.87,126.65 87.34,126.65 88.81,126.65 90.28,126.65 91.75,126.65 93.22,126.65 94.69,126.65 96.16,126.65 97.63,126.65 99.10,126.65 100.57,126.65 102.04,126.65 103.51,126.65 104.98,126.60 106.45,125.89 107.92,125.23 109.39,124.96 110.86,123.67 112.33,123.67 113.80,123.67 115.27,123.67 116.74,123.67 118.21,123.67 119.68,123.67 121.15,123.67 122.62,123.67 124.09,123.67 125.56,123.67 127.03,123.67 128.50,123.57 129.97,123.57 131.44,123.57 132.91,123.45 134.38,123.45 135.85,123.45 137.32,123.45 138.79,123.42 140.26,123.42 141.73,123.42 143.20,123.42 144.67,123.40 146.14,123.40 147.61,123.40 149.08,123.40 150.55,123.40 152.02,123.40 153.49,123.40 154.96,123.40 156.43,123.40 157.90,123.40 159.37,123.40 160.84,123.40 162.31,123.40 163.78,123.40 165.25,123.40 166.72,123.40 168.19,123.40 169.66,123.40 171.13,123.40 172.60,123.40 174.07,123.40 175.54,123.40 177.01,123.40 178.48,123.36 179.95,123.36 181.42,123.36 182.89,123.36 184.36,123.36 185.83,123.36 187.30,123.36 188.77,123.36 190.25,123.36 191.72,123.36 193.19,123.36 194.66,123.36 196.13,123.36 197.60,123.36 199.07,123.36 200.54,123.34 202.01,123.03 203.48,122.95 204.95,122.82 206.42,122.66 207.89,122.61 209.36,122.61 210.83,122.61 212.30,122.36 213.77,122.33 215.24,122.17 216.71,122.11 218.18,122.01 219.65,121.60 221.12,121.57 222.59,121.51 224.06,121.50 225.53,121.44 227.00,121.44 228.47,121.42 229.94,121.42 231.41,121.42 232.88,121.42 234.35,121.42 235.82,121.42 237.29,121.42 238.76,121.29 240.23,120.92 241.70,120.64 243.17,120.56 244.64,120.38 246.11,120.37 247.58,120.35 249.05,120.33 250.52,120.33 251.99,120.33 253.46,120.25 254.93,120.17 256.40,120.15 257.87,120.12 259.34,120.10 260.81,119.83 262.28,119.64 263.75,119.36 265.22,119.19 266.69,119.06 268.16,119.00 269.63,118.93 271.10,118.92 272.57,118.86 274.04,118.69 275.51,118.69 276.98,118.69 278.45,118.67 279.92,118.66 281.39,118.66 282.86,118.57 284.33,118.55 285.80,118.53 287.27,118.52 288.74,118.50 290.21,118.50 291.68,118.50 293.15,118.50 294.62,118.50 296.09,118.50 297.57,118.50 299.04,118.50 300.51,118.46 301.98,118.43 303.45,118.43 304.92,118.22 306.39,118.21 307.86,118.20 309.33,118.16 310.80,118.06 312.27,117.80 313.74,117.75 315.21,117.75 316.68,117.75 318.15,117.75 319.62,117.75 321.09,117.75 322.56,117.75 324.03,117.75 325.50,117.75 326.97,117.75 328.44,117.75 329.91,117.75 331.38,117.75 332.85,117.74 334.32,117.67 335.79,117.66 337.26,117.66 338.73,117.66 340.20,117.66 341.67,117.61 343.14,117.61 344.61,117.42 346.08,117.25 347.55,117.25 349.02,117.25 350.49,117.25 351.96,117.25 353.43,117.23 354.90,117.23 356.37,117.20 357.84,117.12 359.31,117.05 360.78,116.73 362.25,116.72 363.72,116.24 365.19,115.96 366.66,115.75 368.13,115.09 369.60,114.91 371.07,114.84 372.54,114.62 374.01,114.28 375.48,114.20 376.95,114.08 378.42,113.89 379.89,113.73 381.36,113.66 382.83,113.54 384.30,113.46 385.77,113.25 387.24,113.06 388.71,112.84 390.18,112.48 391.65,112.27 393.12,111.23 394.59,110.45 396.06,109.94 397.53,109.51 399.00,109.03 400.47,109.03 401.94,109.03 403.42,109.03 404.89,108.73 406.36,108.55 407.83,107.92 409.30,107.21 410.77,106.38 412.24,105.13 413.71,104.25 415.18,102.45 416.65,101.37 418.12,100.64 419.59,99.47 421.06,98.72 422.53,97.24 424.00,95.00 425.47,94.32 426.94,93.44 428.41,92.60 429.88,92.32 431.35,91.24 432.82,91.06 434.29,89.77 435.76,88.60 437.23,87.90 438.70,87.11 440.17,86.05 441.64,85.77 443.11,85.68 444.58,85.56 446.05,85.49 447.52,84.83 448.99,83.96 450.46,82.91 451.93,82.62 453.40,81.76 454.87,80.67 456.34,78.48 457.81,76.87 459.28,74.88 460.75,74.35 462.22,73.30 463.69,71.35 465.16,70.24 466.63,69.63 468.10,68.78 469.57,68.22 471.04,67.41 472.51,67.04 473.98,66.22 475.45,64.67 476.92,62.95 478.39,62.42 479.86,61.45 481.33,59.68 482.80,58.76 484.27,56.55 485.74,55.50 487.21,53.59 488.68,51.72 490.15,49.46 491.62,46.07 493.09,43.83 494.56,41.90 496.03,40.66 497.50,39.06 498.97,37.62 500.44,36.92 501.91,35.75 503.38,34.34 504.85,33.79 506.32,32.75 507.79,31.86 509.26,30.98" />
    </svg>
  