
    <svg width="540" height="160" xmlns="http://www.w3.org/2000/svg">
      <style>.line{fill:none;stroke:#388bfd;stroke-width:1.5}.axis{stroke:#555;stroke-width:1;opacity:0.5}.label{fill:#999;font-family:sans-serif;font-size:10px;text-anchor:middle}</style>
      <line class="axis" x1="30" y1="30" x2="30" y2="130" />
      <line class="axis" x1="30" y1="130" x2="510" y2="130" />
      <text class="label" x="15" y="30">9,266</text>
      <text class="label" x="15" y="134">0</text>
      <text class="label" x="30" y="148">2021</text>
      <text class="label" x="510" y="148">2026</text>
      <polyline class="line" points="30.00,129.98 31.45,129.97 32.89,129.96 34.34,129.96 35.79,129.96 37.24,129.82 38.68,129.82 40.13,129.82 41.58,129.04 43.03,127.76 44.47,127.69 45.92,127.69 47.37,127.69 48.81,127.69 50.26,127.69 51.71,127.69 53.16,127.69 54.60,127.69 56.05,127.69 57.50,127.69 58.94,127.69 60.39,127.69 61.84,127.69 63.29,127.69 64.73,127.69 66.18,127.69 67.63,127.69 69.08,126.96 70.52,126.96 71.97,126.95 73.42,126.95 74.86,126.95 76.31,126.95 77.76,126.90 79.21,126.90 80.65,126.90 82.10,126.90 83.55,126.90 84.99,126.90 86.44,126.90 87.89,126.90 89.34,126.90 90.78,126.90 92.23,126.90 93.68,126.90 95.13,126.90 96.57,126.90 98.02,126.90 99.47,126.90 100.91,126.90 102.36,126.90 103.81,126.86 105.26,126.20 106.70,125.60 108.15,125.35 109.60,124.15 111.05,124.15 112.49,124.15 113.94,124.15 115.39,124.15 116.83,124.15 118.28,124.15 119.73,124.15 121.18,124.15 122.62,124.15 124.07,124.15 125.52,124.15 126.96,124.06 128.41,124.06 129.86,124.06 131.31,123.96 132.75,123.96 134.20,123.96 135.65,123.96 137.10,123.92 138.54,123.92 139.99,123.92 141.44,123.92 142.88,123.90 144.33,123.90 145.78,123.90 147.23,123.90 148.67,123.90 150.12,123.90 151.57,123.90 153.02,123.90 154.46,123.90 155.91,123.90 157.36,123.90 158.80,123.90 160.25,123.90 161.70,123.90 163.15,123.90 164.59,123.90 166.04,123.90 167.49,123.90 168.93,123.90 170.38,123.90 171.83,123.90 173.28,123.90 174.72,123.90 176.17,123.87 177.62,123.87 179.07,123.87 180.51,123.87 181.96,123.87 183.41,123.87 184.85,123.87 186.30,123.87 187.75,123.87 189.20,123.87 190.64,123.87 192.09,123.87 193.54,123.87 194.98,123.87 196.43,123.87 197.88,123.85 199.33,123.57 200.77,123.49 202.22,123.37 203.67,123.22 205.12,123.18 206.56,123.18 208.01,123.18 209.46,122.94 210.90,122.92 212.35,122.77 213.80,122.72 215.25,122.62 216.69,122.24 218.14,122.22 219.59,122.16 221.04,122.15 222.48,122.10 223.93,122.10 225.38,122.08 226.82,122.08 228.27,122.08 229.72,122.08 231.17,122.08 232.61,122.08 234.06,122.08 235.51,121.96 236.95,121.61 238.40,121.36 239.85,121.28 241.30,121.12 242.74,121.11 244.19,121.09 245.64,121.07 247.09,121.07 248.53,121.07 249.98,121.00 251.43,120.92 252.87,120.90 254.32,120.88 255.77,120.86 257.22,120.61 258.66,120.44 260.11,120.18 261.56,120.02 263.01,119.90 264.45,119.84 265.90,119.78 267.35,119.77 268.79,119.72 270.24,119.55 271.69,119.55 273.14,119.55 274.58,119.54 276.03,119.53 277.48,119.53 278.92,119.45 280.37,119.42 281.82,119.41 283.27,119.40 284.71,119.38 286.16,119.38 287.61,119.38 289.06,119.38 290.50,119.38 291.95,119.38 293.40,119.38 294.84,119.38 296.29,119.35 297.74,119.32 299.19,119.32 300.63,119.12 302.08,119.11 303.53,119.10 304.97,119.07 306.42,118.97 307.87,118.73 309.32,118.69 310.76,118.69 312.21,118.69 313.66,118.69 315.11,118.69 316.55,118.69 318.00,118.69 319.45,118.69 320.89,118.69 322.34,118.69 323.79,118.69 325.24,118.69 326.68,118.69 328.13,118.68 329.58,118.61 331.03,118.60 332.47,118.60 333.92,118.60 335.37,118.60 336.81,118.56 338.26,118.56 339.71,118.39 341.16,118.23 342.60,118.23 344.05,118.23 345.50,118.23 346.94,118.23 348.39,118.20 349.84,118.20 351.29,118.18 352.73,118.11 354.18,118.04 355.63,117.75 357.08,117.74 358.52,117.30 359.97,117.04 361.42,116.84 362.86,116.23 364.31,116.07 365.76,116.00 367.21,115.80 368.65,115.48 370.10,115.41 371.55,115.30 372.99,115.13 374.44,114.98 375.89,114.91 377.34,114.80 378.78,114.73 380.23,114.53 381.68,114.36 383.13,114.16 384.57,113.82 386.02,113.63 387.47,112.67 388.91,111.94 390.36,111.48 391.81,111.08 393.26,110.64 394.70,110.64 396.15,110.64 397.60,110.64 399.05,110.36 400.49,110.20 401.94,109.61 403.39,108.96 404.83,108.19 406.28,107.03 407.73,106.22 409.18,104.56 410.62,103.56 412.07,102.89 413.52,101.81 414.96,101.12 416.41,99.75 417.86,97.68 419.31,97.05 420.75,96.24 422.20,95.47 423.65,95.21 425.10,94.21 426.54,94.04 427.99,92.85 429.44,91.77 430.88,91.13 432.33,90.39 433.78,89.42 435.23,89.16 436.67,89.08 438.12,88.97 439.57,88.90 441.02,88.29 442.46,87.49 443.91,86.52 445.36,86.25 446.80,85.46 448.25,84.45 449.70,82.43 451.15,80.94 452.59,79.10 454.04,78.62 455.49,77.65 456.93,75.85 458.38,74.82 459.83,74.26 461.28,73.47 462.72,72.95 464.17,72.21 465.62,71.86 467.07,71.11 468.51,69.67 469.96,68.09 471.41,67.60 472.85,66.70 474.30,65.06 475.75,64.22 477.20,62.18 478.64,61.21 480.09,59.44 481.54,57.71 482.98,55.63 484.43,52.50 485.88,50.43 487.33,48.65 488.77,47.50 490.22,46.03 491.67,44.70 493.12,44.05 494.56,42.97 496.01,41.67 497.46,40.93 498.90,39.81 500.35,38.96 501.80,38.15 503.25,36.93 504.69,34.71 506.14,32.98 507.59,31.48 509.04,30.24" />
    </svg>
  