
    <svg width="540" height="160" xmlns="http://www.w3.org/2000/svg">
      <style>.line{fill:none;stroke:#388bfd;stroke-width:1.5}.axis{stroke:#555;stroke-width:1;opacity:0.5}.label{fill:#999;font-family:sans-serif;font-size:10px;text-anchor:middle}</style>
      <line class="axis" x1="30" y1="30" x2="30" y2="130" />
      <line class="axis" x1="30" y1="130" x2="510" y2="130" />
      <text class="label" x="15" y="30">4,723</text>
      <text class="label" x="15" y="134">0</text>
      <text class="label" x="30" y="148">2021</text>
      <text class="label" x="510" y="148">2026</text>
      <polyline class="line" points="30.00,129.96 31.53,129.94 33.06,129.92 34.58,129.92 36.11,129.92 37.64,129.64 39.17,129.64 40.69,129.64 42.22,128.12 43.75,125.60 45.28,125.47 46.81,125.47 48.33,125.47 49.86,125.47 51.39,125.47 52.92,125.47 54.45,125.47 55.97,125.47 57.50,125.47 59.03,125.47 60.56,125.47 62.08,125.47 63.61,125.47 65.14,125.47 66.67,125.47 68.20,125.47 69.72,125.47 71.25,124.03 72.78,124.03 74.31,124.01 75.84,124.01 77.36,124.01 78.89,124.01 80.42,123.92 81.95,123.92 83.47,123.92 85.00,123.92 86.53,123.92 88.06,123.92 89.59,123.92 91.11,123.92 92.64,123.92 94.17,123.92 95.70,123.92 97.23,123.92 98.75,123.92 100.28,123.92 101.81,123.92 103.34,123.92 104.86,123.92 106.39,123.92 107.92,123.84 109.45,122.55 110.98,121.36 112.50,120.87 114.03,118.52 115.56,118.52 117.09,118.52 118.62,118.52 120.14,118.52 121.67,118.52 123.20,118.52 124.73,118.52 126.25,118.52 127.78,118.52 129.31,118.52 130.84,118.52 132.37,118.35 133.89,118.35 135.42,118.35 136.95,118.14 138.48,118.14 140.01,118.14 141.53,118.14 143.06,118.08 144.59,118.08 146.12,118.08 147.64,118.08 149.17,118.04 150.70,118.04 152.23,118.04 153.76,118.04 155.28,118.04 156.81,118.04 158.34,118.04 159.87,118.04 161.40,118.04 162.92,118.04 164.45,118.04 165.98,118.04 167.51,118.04 169.03,118.04 170.56,118.04 172.09,118.04 173.62,118.04 175.15,118.04 176.67,118.04 178.20,118.04 179.73,118.04 181.26,118.04 182.79,118.04 184.31,117.97 185.84,117.97 187.37,117.97 188.90,117.97 190.42,117.97 191.95,117.97 193.48,117.97 195.01,117.97 196.54,117.97 198.06,117.97 199.59,117.97 201.12,117.97 202.65,117.97 204.18,117.97 205.70,117.97 207.23,117.93 208.76,117.38 210.29,117.23 211.81,117.00 213.34,116.70 214.87,116.62 216.40,116.62 217.93,116.62 219.45,116.15 220.98,116.11 222.51,115.81 224.04,115.71 225.56,115.52 227.09,114.78 228.62,114.73 230.15,114.63 231.68,114.61 233.20,114.50 234.73,114.50 236.26,114.46 237.79,114.46 239.32,114.46 240.84,114.46 242.37,114.46 243.90,114.46 245.43,114.46 246.95,114.23 248.48,113.55 250.01,113.04 251.54,112.89 253.07,112.57 254.59,112.55 256.12,112.51 257.65,112.49 259.18,112.49 260.71,112.49 262.23,112.34 263.76,112.19 265.29,112.15 266.82,112.11 268.34,112.07 269.87,111.58 271.40,111.24 272.93,110.73 274.46,110.41 275.98,110.18 277.51,110.08 279.04,109.95 280.57,109.93 282.10,109.82 283.62,109.50 285.15,109.50 286.68,109.50 288.21,109.48 289.73,109.46 291.26,109.46 292.79,109.29 294.32,109.25 295.85,109.23 297.37,109.21 298.90,109.17 300.43,109.17 301.96,109.17 303.49,109.17 305.01,109.17 306.54,109.17 308.07,109.17 309.60,109.17 311.12,109.10 312.65,109.04 314.18,109.04 315.71,108.66 317.24,108.64 318.76,108.62 320.29,108.55 321.82,108.36 323.35,107.90 324.88,107.81 326.40,107.81 327.93,107.81 329.46,107.81 330.99,107.81 332.51,107.81 334.04,107.81 335.57,107.81 337.10,107.81 338.63,107.81 340.15,107.81 341.68,107.81 343.21,107.81 344.74,107.79 346.27,107.66 347.79,107.64 349.32,107.64 350.85,107.64 352.38,107.64 353.90,107.56 355.43,107.56 356.96,107.22 358.49,106.90 360.02,106.90 361.54,106.90 363.07,106.90 364.60,106.90 366.13,106.86 367.66,106.86 369.18,106.82 370.71,106.67 372.24,106.54 373.77,105.97 375.29,105.95 376.82,105.08 378.35,104.57 379.88,104.19 381.41,102.98 382.93,102.67 384.46,102.54 385.99,102.14 387.52,101.52 389.05,101.37 390.57,101.16 392.10,100.82 393.63,100.53 395.16,100.40 396.68,100.19 398.21,100.04 399.74,99.66 401.27,99.32 402.80,98.92 404.32,98.26 405.85,97.88 407.38,96.00 408.91,94.58 410.44,93.67 411.96,92.88 413.49,92.02 415.02,92.02 416.55,92.02 418.07,92.02 419.60,91.99 421.13,91.99 422.66,91.53 424.19,91.04 425.71,90.64 427.24,90.09 428.77,89.45 430.30,87.95 431.82,87.02 433.35,86.36 434.88,85.28 436.41,84.44 437.94,83.00 439.46,80.92 440.99,80.31 442.52,79.42 444.05,78.66 445.58,78.40 447.10,77.43 448.63,77.26 450.16,76.09 451.69,75.03 453.21,74.40 454.74,73.66 456.27,72.64 457.80,72.35 459.33,72.20 460.85,72.05 462.38,71.92 463.91,71.12 465.44,70.21 466.97,68.77 468.49,68.34 470.02,67.60 471.55,66.40 473.08,63.71 474.60,61.67 476.13,59.41 477.66,58.92 479.19,57.93 480.72,55.92 482.24,54.69 483.77,54.01 485.30,52.99 486.83,52.46 488.36,51.72 489.88,51.38 491.41,50.24 492.94,48.53 494.47,46.90 495.99,46.41 497.52,45.56 499.05,44.04 500.58,42.89 502.11,41.20 503.63,40.33 505.16,38.60 506.69,36.29 508.22,34.32 509.75,30.15" />
    </svg>
  