
    <svg width="540" height="160" xmlns="http://www.w3.org/2000/svg">
      <style>.line{fill:none;stroke:#388bfd;stroke-width:1.5}.axis{stroke:#555;stroke-width:1;opacity:0.5}.label{fill:#999;font-family:sans-serif;font-size:10px;text-anchor:middle}</style>
      <line class="axis" x1="30" y1="30" x2="30" y2="130" />
      <line class="axis" x1="30" y1="130" x2="510" y2="130" />
      <text class="label" x="15" y="30">8,867</text>
      <text class="label" x="15" y="134">0</text>
      <text class="label" x="30" y="148">2021</text>
      <text class="label" x="510" y="148">2026</text>
      <polyline class="line" points="30.00,129.98 31.46,129.97 32.93,129.95 34.39,129.95 35.85,129.95 37.31,129.81 38.78,129.81 40.24,129.81 41.70,129.00 43.16,127.65 44.63,127.59 46.09,127.59 47.55,127.59 49.01,127.59 50.48,127.59 51.94,127.59 53.40,127.59 54.87,127.59 56.33,127.59 57.79,127.59 59.25,127.59 60.72,127.59 62.18,127.59 63.64,127.59 65.10,127.59 66.57,127.59 68.03,127.59 69.49,126.82 70.95,126.82 72.42,126.81 73.88,126.81 75.34,126.81 76.81,126.81 78.27,126.76 79.73,126.76 81.19,126.76 82.66,126.76 84.12,126.76 85.58,126.76 87.04,126.76 88.51,126.76 89.97,126.76 91.43,126.76 92.89,126.76 94.36,126.76 95.82,126.76 97.28,126.76 98.75,126.76 100.21,126.76 101.67,126.76 103.13,126.76 104.60,126.72 106.06,126.03 107.52,125.40 108.98,125.14 110.45,123.89 111.91,123.89 113.37,123.89 114.83,123.89 116.30,123.89 117.76,123.89 119.22,123.89 120.69,123.89 122.15,123.89 123.61,123.89 125.07,123.89 126.54,123.89 128.00,123.80 129.46,123.80 130.92,123.80 132.39,123.68 133.85,123.68 135.31,123.68 136.78,123.68 138.24,123.65 139.70,123.65 141.16,123.65 142.63,123.65 144.09,123.63 145.55,123.63 147.01,123.63 148.48,123.63 149.94,123.63 151.40,123.63 152.86,123.63 154.33,123.63 155.79,123.63 157.25,123.63 158.72,123.63 160.18,123.63 161.64,123.63 163.10,123.63 164.57,123.63 166.03,123.63 167.49,123.63 168.95,123.63 170.42,123.63 171.88,123.63 173.34,123.63 174.80,123.63 176.27,123.63 177.73,123.59 179.19,123.59 180.66,123.59 182.12,123.59 183.58,123.59 185.04,123.59 186.51,123.59 187.97,123.59 189.43,123.59 190.89,123.59 192.36,123.59 193.82,123.59 195.28,123.59 196.74,123.59 198.21,123.59 199.67,123.57 201.13,123.28 202.60,123.20 204.06,123.08 205.52,122.92 206.98,122.87 208.45,122.87 209.91,122.87 211.37,122.62 212.83,122.60 214.30,122.44 215.76,122.39 217.22,122.29 218.68,121.89 220.15,121.87 221.61,121.81 223.07,121.80 224.54,121.74 226.00,121.74 227.46,121.72 228.92,121.72 230.39,121.72 231.85,121.72 233.31,121.72 234.77,121.72 236.24,121.72 237.70,121.60 239.16,121.24 240.62,120.97 242.09,120.89 243.55,120.72 245.01,120.71 246.48,120.68 247.94,120.67 249.40,120.67 250.86,120.67 252.33,120.59 253.79,120.52 255.25,120.49 256.71,120.47 258.18,120.45 259.64,120.19 261.10,120.01 262.56,119.74 264.03,119.57 265.49,119.44 266.95,119.39 268.42,119.32 269.88,119.31 271.34,119.25 272.80,119.08 274.27,119.08 275.73,119.08 277.19,119.07 278.65,119.06 280.12,119.06 281.58,118.97 283.04,118.95 284.50,118.94 285.97,118.93 287.43,118.90 288.89,118.90 290.36,118.90 291.82,118.90 293.28,118.90 294.74,118.90 296.21,118.90 297.67,118.90 299.13,118.87 300.59,118.84 302.06,118.84 303.52,118.63 304.98,118.62 306.44,118.61 307.91,118.58 309.37,118.47 310.83,118.23 312.30,118.18 313.76,118.18 315.22,118.18 316.68,118.18 318.15,118.18 319.61,118.18 321.07,118.18 322.53,118.18 324.00,118.18 325.46,118.18 326.92,118.18 328.38,118.18 329.85,118.18 331.31,118.17 332.77,118.10 334.24,118.09 335.70,118.09 337.16,118.09 338.62,118.09 340.09,118.05 341.55,118.05 343.01,117.87 344.47,117.70 345.94,117.70 347.40,117.70 348.86,117.70 350.33,117.70 351.79,117.67 353.25,117.67 354.71,117.65 356.18,117.57 357.64,117.50 359.10,117.20 360.56,117.19 362.03,116.73 363.49,116.46 364.95,116.25 366.41,115.61 367.88,115.44 369.34,115.37 370.80,115.16 372.27,114.83 373.73,114.75 375.19,114.64 376.65,114.46 378.12,114.30 379.58,114.23 381.04,114.12 382.50,114.04 383.97,113.84 385.43,113.66 386.89,113.44 388.35,113.09 389.82,112.89 391.28,111.89 392.74,111.13 394.21,110.65 395.67,110.23 397.13,109.77 398.59,109.77 400.06,109.77 401.52,109.77 402.98,109.47 404.44,109.31 405.91,108.70 407.37,108.01 408.83,107.21 410.29,106.00 411.76,105.16 413.22,103.42 414.68,102.37 416.15,101.67 417.61,100.54 419.07,99.82 420.53,98.39 422.00,96.22 423.46,95.57 424.92,94.72 426.38,93.91 427.85,93.64 429.31,92.60 430.77,92.42 432.23,91.18 433.70,90.05 435.16,89.38 436.62,88.61 438.09,87.60 439.55,87.32 441.01,87.23 442.47,87.12 443.94,87.05 445.40,86.41 446.86,85.58 448.32,84.56 449.79,84.28 451.25,83.46 452.71,82.40 454.17,80.29 455.64,78.73 457.10,76.81 458.56,76.31 460.03,75.29 461.49,73.41 462.95,72.34 464.41,71.75 465.88,70.93 467.34,70.39 468.80,69.61 470.26,69.25 471.73,68.46 473.19,66.96 474.65,65.30 476.11,64.79 477.58,63.86 479.04,62.14 480.50,61.26 481.97,59.13 483.43,58.12 484.89,56.27 486.35,54.46 487.82,52.28 489.28,49.01 490.74,46.85 492.20,44.99 493.67,43.79 495.13,42.25 496.59,40.86 498.05,40.18 499.52,39.06 500.98,37.69 502.44,36.92 503.91,35.75 505.37,34.86 506.83,34.01 508.29,32.74 509.76,30.42" />
    </svg>
  