
    <svg width="540" height="160" xmlns="http://www.w3.org/2000/svg">
      <style>.line{fill:none;stroke:#388bfd;stroke-width:1.5}.axis{stroke:#555;stroke-width:1;opacity:0.5}.label{fill:#999;font-family:sans-serif;font-size:10px;text-anchor:middle}</style>
      <line class="axis" x1="30" y1="30" x2="30" y2="130" />
      <line class="axis" x1="30" y1="130" x2="510" y2="130" />
      <text class="label" x="15" y="30">4,149</text>
      <text class="label" x="15" y="134">0</text>
      <text class="label" x="30" y="148">2021</text>
      <text class="label" x="510" y="148">2026</text>
      <polyline class="line" points="30.00,129.95 31.53,129.93 33.06,129.90 34.59,129.90 36.12,129.90 37.65,129.59 39.18,129.59 40.71,129.59 42.24,127.85 43.77,124.99 45.30,124.84 46.83,124.84 48.36,124.84 49.89,124.84 51.42,124.84 52.95,124.84 54.48,124.84 56.01,124.84 57.55,124.84 59.08,124.84 60.61,124.84 62.14,124.84 63.67,124.84 65.20,124.84 66.73,124.84 68.26,124.84 69.79,124.84 71.32,123.20 72.85,123.20 74.38,123.18 75.91,123.18 77.44,123.18 78.97,123.18 80.50,123.08 82.03,123.08 83.56,123.08 85.09,123.08 86.62,123.08 88.15,123.08 89.68,123.08 91.21,123.08 92.74,123.08 94.27,123.08 95.80,123.08 97.33,123.08 98.86,123.08 100.39,123.08 101.92,123.08 103.45,123.08 104.98,123.08 106.51,123.08 108.04,122.99 109.57,121.52 111.11,120.17 112.64,119.61 114.17,116.94 115.70,116.94 117.23,116.94 118.76,116.94 120.29,116.94 121.82,116.94 123.35,116.94 124.88,116.94 126.41,116.94 127.94,116.94 129.47,116.94 131.00,116.94 132.53,116.74 134.06,116.74 135.59,116.74 137.12,116.50 138.65,116.50 140.18,116.50 141.71,116.50 143.24,116.43 144.77,116.43 146.30,116.43 147.83,116.43 149.36,116.38 150.89,116.38 152.42,116.38 153.95,116.38 155.48,116.38 157.01,116.38 158.54,116.38 160.07,116.38 161.60,116.38 163.13,116.38 164.67,116.38 166.20,116.38 167.73,116.38 169.26,116.38 170.79,116.38 172.32,116.38 173.85,116.38 175.38,116.38 176.91,116.38 178.44,116.38 179.97,116.38 181.50,116.38 183.03,116.38 184.56,116.31 186.09,116.31 187.62,116.31 189.15,116.31 190.68,116.31 192.21,116.31 193.74,116.31 195.27,116.31 196.80,116.31 198.33,116.31 199.86,116.31 201.39,116.31 202.92,116.31 204.45,116.31 205.98,116.31 207.51,116.26 209.04,115.64 210.57,115.47 212.10,115.20 213.63,114.86 215.16,114.77 216.70,114.77 218.23,114.77 219.76,114.24 221.29,114.19 222.82,113.85 224.35,113.73 225.88,113.51 227.41,112.67 228.94,112.62 230.47,112.50 232.00,112.48 233.53,112.36 235.06,112.36 236.59,112.31 238.12,112.31 239.65,112.31 241.18,112.31 242.71,112.31 244.24,112.31 245.77,112.31 247.30,112.04 248.83,111.27 250.36,110.69 251.89,110.53 253.42,110.16 254.95,110.14 256.48,110.09 258.01,110.07 259.54,110.07 261.07,110.07 262.60,109.90 264.13,109.73 265.66,109.68 267.19,109.63 268.72,109.59 270.26,109.03 271.79,108.65 273.32,108.07 274.85,107.71 276.38,107.44 277.91,107.32 279.44,107.18 280.97,107.15 282.50,107.03 284.03,106.67 285.56,106.67 287.09,106.67 288.62,106.64 290.15,106.62 291.68,106.62 293.21,106.43 294.74,106.38 296.27,106.36 297.80,106.33 299.33,106.28 300.86,106.28 302.39,106.28 303.92,106.28 305.45,106.28 306.98,106.28 308.51,106.28 310.04,106.28 311.57,106.21 313.10,106.14 314.63,106.14 316.16,105.70 317.69,105.68 319.22,105.66 320.75,105.58 322.28,105.37 323.82,104.84 325.35,104.74 326.88,104.74 328.41,104.74 329.94,104.74 331.47,104.74 333.00,104.74 334.53,104.74 336.06,104.74 337.59,104.74 339.12,104.74 340.65,104.74 342.18,104.74 343.71,104.74 345.24,104.72 346.77,104.57 348.30,104.55 349.83,104.55 351.36,104.55 352.89,104.55 354.42,104.45 355.95,104.45 357.48,104.07 359.01,103.70 360.54,103.70 362.07,103.70 363.60,103.70 365.13,103.70 366.66,103.66 368.19,103.66 369.72,103.61 371.25,103.44 372.78,103.29 374.31,102.64 375.84,102.62 377.38,101.63 378.91,101.05 380.44,100.62 381.97,99.25 383.50,99.03 385.03,98.98 386.56,98.98 388.09,98.98 389.62,98.98 391.15,98.93 392.68,98.81 394.21,98.81 395.74,98.81 397.27,98.81 398.80,98.81 400.33,98.81 401.86,98.76 403.39,98.72 404.92,98.72 406.45,98.72 407.98,98.67 409.51,98.67 411.04,98.47 412.57,98.38 414.10,98.38 415.63,98.38 417.16,98.38 418.69,98.38 420.22,98.38 421.75,98.38 423.28,97.85 424.81,97.29 426.34,96.84 427.87,96.21 429.40,95.49 430.94,93.77 432.47,92.71 434.00,91.97 435.53,90.74 437.06,89.77 438.59,88.13 440.12,85.77 441.65,85.07 443.18,84.06 444.71,83.19 446.24,82.90 447.77,81.80 449.30,81.60 450.83,80.28 452.36,79.07 453.89,78.35 455.42,77.51 456.95,76.35 458.48,76.01 460.01,75.84 461.54,75.67 463.07,75.53 464.60,74.61 466.13,73.58 467.66,71.94 469.19,71.46 470.72,70.61 472.25,69.24 473.78,66.18 475.31,63.86 476.84,61.28 478.37,60.73 479.90,59.60 481.43,57.31 482.96,55.91 484.50,55.14 486.03,53.98 487.56,53.38 489.09,52.54 490.62,52.15 492.15,50.85 493.68,48.90 495.21,47.04 496.74,46.49 498.27,45.52 499.80,43.79 501.33,42.48 502.86,40.56 504.39,39.57 505.92,37.59 507.45,34.97 508.98,32.72" />
    </svg>
  