
    <svg width="540" height="160" xmlns="http://www.w3.org/2000/svg">
      <style>.line{fill:none;stroke:#388bfd;stroke-width:1.5}.axis{stroke:#555;stroke-width:1;opacity:0.5}.label{fill:#999;font-family:sans-serif;font-size:10px;text-anchor:middle}</style>
      <line class="axis" x1="30" y1="30" x2="30" y2="130" />
      <line class="axis" x1="30" y1="130" x2="510" y2="130" />
      <text class="label" x="15" y="30">5,237</text>
      <text class="label" x="15" y="134">0</text>
      <text class="label" x="30" y="148">2021</text>
      <text class="label" x="510" y="148">2026</text>
      <polyline class="line" points="30.00,129.96 31.51,129.94 33.02,129.92 34.54,129.92 36.05,129.92 37.56,129.68 39.07,129.68 40.58,129.68 42.09,128.30 43.61,126.03 45.12,125.91 46.63,125.91 48.14,125.91 49.65,125.91 51.17,125.91 52.68,125.91 54.19,125.91 55.70,125.91 57.21,125.91 58.72,125.91 60.24,125.91 61.75,125.91 63.26,125.91 64.77,125.91 66.28,125.91 67.80,125.91 69.31,125.91 70.82,124.62 72.33,124.62 73.84,124.60 75.35,124.60 76.87,124.60 78.38,124.60 79.89,124.52 81.40,124.52 82.91,124.52 84.43,124.52 85.94,124.52 87.45,124.52 88.96,124.52 90.47,124.52 91.98,124.52 93.50,124.52 95.01,124.52 96.52,124.52 98.03,124.52 99.54,124.52 101.06,124.52 102.57,124.52 104.08,124.52 105.59,124.52 107.10,124.44 108.61,123.28 110.13,122.21 111.64,121.77 113.15,119.65 114.66,119.65 116.17,119.65 117.69,119.65 119.20,119.65 120.71,119.65 122.22,119.65 123.73,119.65 125.24,119.65 126.76,119.65 128.27,119.65 129.78,119.65 131.29,119.50 132.80,119.50 134.31,119.50 135.83,119.31 137.34,119.31 138.85,119.31 140.36,119.31 141.87,119.25 143.39,119.25 144.90,119.25 146.41,119.25 147.92,119.21 149.43,119.21 150.94,119.21 152.46,119.21 153.97,119.21 155.48,119.21 156.99,119.21 158.50,119.21 160.02,119.21 161.53,119.21 163.04,119.21 164.55,119.21 166.06,119.21 167.57,119.21 169.09,119.21 170.60,119.21 172.11,119.21 173.62,119.21 175.13,119.21 176.65,119.21 178.16,119.21 179.67,119.21 181.18,119.21 182.69,119.15 184.20,119.15 185.72,119.15 187.23,119.15 188.74,119.15 190.25,119.15 191.76,119.15 193.28,119.15 194.79,119.15 196.30,119.15 197.81,119.15 199.32,119.15 200.83,119.15 202.35,119.15 203.86,119.15 205.37,119.12 206.88,118.62 208.39,118.49 209.91,118.28 211.42,118.01 212.93,117.93 214.44,117.93 215.95,117.93 217.46,117.51 218.98,117.47 220.49,117.21 222.00,117.11 223.51,116.94 225.02,116.27 226.54,116.23 228.05,116.14 229.56,116.12 231.07,116.02 232.58,116.02 234.09,115.98 235.61,115.98 237.12,115.98 238.63,115.98 240.14,115.98 241.65,115.98 243.17,115.98 244.68,115.77 246.19,115.16 247.70,114.70 249.21,114.57 250.72,114.28 252.24,114.27 253.75,114.23 255.26,114.21 256.77,114.21 258.28,114.21 259.80,114.07 261.31,113.94 262.82,113.90 264.33,113.86 265.84,113.83 267.35,113.39 268.87,113.08 270.38,112.62 271.89,112.34 273.40,112.13 274.91,112.03 276.43,111.92 277.94,111.90 279.45,111.80 280.96,111.52 282.47,111.52 283.98,111.52 285.50,111.50 287.01,111.48 288.52,111.48 290.03,111.33 291.54,111.29 293.06,111.27 294.57,111.25 296.08,111.21 297.59,111.21 299.10,111.21 300.61,111.21 302.13,111.21 303.64,111.21 305.15,111.21 306.66,111.21 308.17,111.15 309.69,111.10 311.20,111.10 312.71,110.75 314.22,110.73 315.73,110.71 317.24,110.66 318.76,110.49 320.27,110.06 321.78,109.99 323.29,109.99 324.80,109.99 326.31,109.99 327.83,109.99 329.34,109.99 330.85,109.99 332.36,109.99 333.87,109.99 335.39,109.99 336.90,109.99 338.41,109.99 339.92,109.99 341.43,109.97 342.94,109.85 344.46,109.84 345.97,109.84 347.48,109.84 348.99,109.84 350.50,109.76 352.02,109.76 353.53,109.45 355.04,109.17 356.55,109.17 358.06,109.17 359.57,109.17 361.09,109.17 362.60,109.13 364.11,109.13 365.62,109.09 367.13,108.96 368.65,108.84 370.16,108.33 371.67,108.31 373.18,107.53 374.69,107.07 376.20,106.72 377.72,105.63 379.23,105.35 380.74,105.23 382.25,104.87 383.76,104.32 385.28,104.18 386.79,103.99 388.30,103.69 389.81,103.42 391.32,103.31 392.83,103.11 394.35,102.98 395.86,102.64 397.37,102.33 398.88,101.97 400.39,101.38 401.91,101.03 403.42,99.33 404.93,98.05 406.44,97.23 407.95,96.53 409.46,95.74 410.98,95.74 412.49,95.74 414.00,95.74 415.51,95.25 417.02,94.96 418.54,94.33 420.05,93.61 421.56,92.61 423.07,91.05 424.58,90.17 426.09,88.56 427.61,87.63 429.12,87.04 430.63,86.06 432.14,85.30 433.65,84.00 435.17,82.11 436.68,81.56 438.19,80.75 439.70,80.07 441.21,79.84 442.72,78.96 444.24,78.81 445.75,77.76 447.26,76.80 448.77,76.23 450.28,75.56 451.80,74.64 453.31,74.38 454.82,74.24 456.33,74.11 457.84,73.99 459.35,73.27 460.87,72.45 462.38,71.15 463.89,70.77 465.40,70.10 466.91,69.01 468.43,66.59 469.94,64.75 471.45,62.71 472.96,62.27 474.47,61.37 475.98,59.56 477.50,58.45 479.01,57.84 480.52,56.92 482.03,56.45 483.54,55.78 485.06,55.47 486.57,54.44 488.08,52.89 489.59,51.42 491.10,50.99 492.61,50.22 494.13,48.85 495.64,47.82 497.15,46.29 498.66,45.51 500.17,43.94 501.69,41.86 503.20,40.08 504.71,36.32 506.22,33.67 507.73,31.78 509.24,30.48" />
    </svg>
  