
    <svg width="540" height="160" xmlns="http://www.w3.org/2000/svg">
      <style>.line{fill:none;stroke:#388bfd;stroke-width:1.5}.axis{stroke:#555;stroke-width:1;opacity:0.5}.label{fill:#999;font-family:sans-serif;font-size:10px;text-anchor:middle}</style>
      <line class="axis" x1="30" y1="30" x2="30" y2="130" />
      <line class="axis" x1="30" y1="130" x2="510" y2="130" />
      <text class="label" x="15" y="30">9,339</text>
      <text class="label" x="15" y="134">0</text>
      <text class="label" x="30" y="148">2021</text>
      <text class="label" x="510" y="148">2026</text>
      <polyline class="line" points="30.00,129.98 31.44,129.97 32.88,129.96 34.32,129.96 35.77,129.96 37.21,129.82 38.65,129.82 40.09,129.82 41.53,129.05 42.97,127.77 44.41,127.71 45.86,127.71 47.30,127.71 48.74,127.71 50.18,127.71 51.62,127.71 53.06,127.71 54.50,127.71 55.95,127.71 57.39,127.71 58.83,127.71 60.27,127.71 61.71,127.71 63.15,127.71 64.59,127.71 66.04,127.71 67.48,127.71 68.92,126.98 70.36,126.98 71.80,126.97 73.24,126.97 74.68,126.97 76.13,126.97 77.57,126.93 79.01,126.93 80.45,126.93 81.89,126.93 83.33,126.93 84.77,126.93 86.22,126.93 87.66,126.93 89.10,126.93 90.54,126.93 91.98,126.93 93.42,126.93 94.86,126.93 96.31,126.93 97.75,126.93 99.19,126.93 100.63,126.93 102.07,126.93 103.51,126.88 104.95,126.23 106.40,125.63 107.84,125.38 109.28,124.20 110.72,124.20 112.16,124.20 113.60,124.20 115.05,124.20 116.49,124.20 117.93,124.20 119.37,124.20 120.81,124.20 122.25,124.20 123.69,124.20 125.14,124.20 126.58,124.11 128.02,124.11 129.46,124.11 130.90,124.00 132.34,124.00 133.78,124.00 135.23,124.00 136.67,123.97 138.11,123.97 139.55,123.97 140.99,123.97 142.43,123.95 143.87,123.95 145.32,123.95 146.76,123.95 148.20,123.95 149.64,123.95 151.08,123.95 152.52,123.95 153.96,123.95 155.41,123.95 156.85,123.95 158.29,123.95 159.73,123.95 161.17,123.95 162.61,123.95 164.05,123.95 165.50,123.95 166.94,123.95 168.38,123.95 169.82,123.95 171.26,123.95 172.70,123.95 174.14,123.95 175.59,123.92 177.03,123.92 178.47,123.92 179.91,123.92 181.35,123.92 182.79,123.92 184.23,123.92 185.68,123.92 187.12,123.92 188.56,123.92 190.00,123.92 191.44,123.92 192.88,123.92 194.32,123.92 195.77,123.92 197.21,123.90 198.65,123.62 200.09,123.54 201.53,123.43 202.97,123.28 204.41,123.23 205.86,123.23 207.30,123.23 208.74,123.00 210.18,122.98 211.62,122.83 213.06,122.77 214.50,122.68 215.95,122.30 217.39,122.28 218.83,122.23 220.27,122.22 221.71,122.16 223.15,122.16 224.59,122.14 226.04,122.14 227.48,122.14 228.92,122.14 230.36,122.14 231.80,122.14 233.24,122.14 234.68,122.02 236.13,121.68 237.57,121.42 239.01,121.35 240.45,121.19 241.89,121.18 243.33,121.16 244.77,121.14 246.22,121.14 247.66,121.14 249.10,121.07 250.54,120.99 251.98,120.97 253.42,120.95 254.86,120.93 256.31,120.68 257.75,120.51 259.19,120.26 260.63,120.10 262.07,119.98 263.51,119.92 264.95,119.86 266.40,119.85 267.84,119.80 269.28,119.63 270.72,119.63 272.16,119.63 273.60,119.62 275.05,119.61 276.49,119.61 277.93,119.53 279.37,119.51 280.81,119.50 282.25,119.48 283.69,119.46 285.14,119.46 286.58,119.46 288.02,119.46 289.46,119.46 290.90,119.46 292.34,119.46 293.78,119.46 295.23,119.43 296.67,119.40 298.11,119.40 299.55,119.21 300.99,119.20 302.43,119.19 303.87,119.15 305.32,119.06 306.76,118.82 308.20,118.78 309.64,118.78 311.08,118.78 312.52,118.78 313.96,118.78 315.41,118.78 316.85,118.78 318.29,118.78 319.73,118.78 321.17,118.78 322.61,118.78 324.05,118.78 325.50,118.78 326.94,118.77 328.38,118.70 329.82,118.69 331.26,118.69 332.70,118.69 334.14,118.69 335.59,118.65 337.03,118.65 338.47,118.48 339.91,118.32 341.35,118.32 342.79,118.32 344.23,118.32 345.68,118.32 347.12,118.30 348.56,118.30 350.00,118.27 351.44,118.20 352.88,118.14 354.32,117.85 355.77,117.84 357.21,117.40 358.65,117.14 360.09,116.95 361.53,116.34 362.97,116.18 364.41,116.11 365.86,115.91 367.30,115.60 368.74,115.52 370.18,115.42 371.62,115.24 373.06,115.09 374.50,115.03 375.95,114.92 377.39,114.85 378.83,114.66 380.27,114.48 381.71,114.28 383.15,113.95 384.59,113.76 386.04,112.80 387.48,112.09 388.92,111.63 390.36,111.23 391.80,110.79 393.24,110.79 394.68,110.79 396.13,110.79 397.57,110.51 399.01,110.35 400.45,109.77 401.89,109.12 403.33,108.36 404.77,107.21 406.22,106.41 407.66,104.76 409.10,103.77 410.54,103.10 411.98,102.03 413.42,101.35 414.86,99.99 416.31,97.93 417.75,97.31 419.19,96.51 420.63,95.74 422.07,95.48 423.51,94.49 424.95,94.32 426.40,93.14 427.84,92.07 429.28,91.43 430.72,90.70 432.16,89.74 433.60,89.48 435.05,89.40 436.49,89.29 437.93,89.22 439.37,88.61 440.81,87.82 442.25,86.86 443.69,86.59 445.14,85.81 446.58,84.80 448.02,82.80 449.46,81.32 450.90,79.50 452.34,79.02 453.78,78.06 455.23,76.27 456.67,75.25 458.11,74.69 459.55,73.91 460.99,73.40 462.43,72.66 463.87,72.32 465.32,71.57 466.76,70.14 468.20,68.57 469.64,68.09 471.08,67.20 472.52,65.57 473.96,64.74 475.41,62.71 476.85,61.75 478.29,59.99 479.73,58.28 481.17,56.21 482.61,53.11 484.05,51.05 485.50,49.28 486.94,48.15 488.38,46.68 489.82,45.37 491.26,44.72 492.70,43.65 494.14,42.36 495.59,41.63 497.03,40.52 498.47,39.67 499.91,38.87 501.35,37.66 502.79,35.45 504.23,33.68 505.68,32.20 507.12,30.96 508.56,30.51 510.00,30.00" />
    </svg>
  