
    <svg width="540" height="160" xmlns="http://www.w3.org/2000/svg">
      <style>.line{fill:none;stroke:#388bfd;stroke-width:1.5}.axis{stroke:#555;stroke-width:1;opacity:0.5}.label{fill:#999;font-family:sans-serif;font-size:10px;text-anchor:middle}</style>
      <line class="axis" x1="30" y1="30" x2="30" y2="130" />
      <line class="axis" x1="30" y1="130" x2="510" y2="130" />
      <text class="label" x="15" y="30">7,845</text>
      <text class="label" x="15" y="134">0</text>
      <text class="label" x="30" y="148">2021</text>
      <text class="label" x="510" y="148">2026</text>
      <polyline class="line" points="30.00,129.97 31.48,129.96 32.97,129.95 34.45,129.95 35.94,129.95 37.42,129.78 38.91,129.78 40.39,129.78 41.88,128.87 43.36,127.35 44.85,127.27 46.33,127.27 47.81,127.27 49.30,127.27 50.78,127.27 52.27,127.27 53.75,127.27 55.24,127.27 56.72,127.27 58.21,127.27 59.69,127.27 61.18,127.27 62.66,127.27 64.14,127.27 65.63,127.27 67.11,127.27 68.60,127.27 70.08,126.41 71.57,126.41 73.05,126.39 74.54,126.39 76.02,126.39 77.51,126.39 78.99,126.34 80.47,126.34 81.96,126.34 83.44,126.34 84.93,126.34 86.41,126.34 87.90,126.34 89.38,126.34 90.87,126.34 92.35,126.34 93.84,126.34 95.32,126.34 96.80,126.34 98.29,126.34 99.77,126.34 101.26,126.34 102.74,126.34 104.23,126.34 105.71,126.29 107.20,125.51 108.68,124.80 110.16,124.51 111.65,123.09 113.13,123.09 114.62,123.09 116.10,123.09 117.59,123.09 119.07,123.09 120.56,123.09 122.04,123.09 123.53,123.09 125.01,123.09 126.49,123.09 127.98,123.09 129.46,122.99 130.95,122.99 132.43,122.99 133.92,122.86 135.40,122.86 136.89,122.86 138.37,122.86 139.86,122.82 141.34,122.82 142.82,122.82 144.31,122.82 145.79,122.80 147.28,122.80 148.76,122.80 150.25,122.80 151.73,122.80 153.22,122.80 154.70,122.80 156.19,122.80 157.67,122.80 159.15,122.80 160.64,122.80 162.12,122.80 163.61,122.80 165.09,122.80 166.58,122.80 168.06,122.80 169.55,122.80 171.03,122.80 172.52,122.80 174.00,122.80 175.48,122.80 176.97,122.80 178.45,122.80 179.94,122.76 181.42,122.76 182.91,122.76 184.39,122.76 185.88,122.76 187.36,122.76 188.85,122.76 190.33,122.76 191.81,122.76 193.30,122.76 194.78,122.76 196.27,122.76 197.75,122.76 199.24,122.76 200.72,122.76 202.21,122.73 203.69,122.40 205.18,122.31 206.66,122.17 208.14,121.99 209.63,121.94 211.11,121.94 212.60,121.94 214.08,121.66 215.57,121.64 217.05,121.46 218.54,121.40 220.02,121.28 221.51,120.83 222.99,120.81 224.47,120.75 225.96,120.73 227.44,120.67 228.93,120.67 230.41,120.64 231.90,120.64 233.38,120.64 234.87,120.64 236.35,120.64 237.84,120.64 239.32,120.64 240.80,120.50 242.29,120.10 243.77,119.79 245.26,119.70 246.74,119.51 248.23,119.50 249.71,119.47 251.20,119.46 252.68,119.46 254.16,119.46 255.65,119.37 257.13,119.28 258.62,119.25 260.10,119.23 261.59,119.20 263.07,118.91 264.56,118.71 266.04,118.40 267.53,118.21 269.01,118.07 270.49,118.01 271.98,117.93 273.46,117.92 274.95,117.85 276.43,117.66 277.92,117.66 279.40,117.66 280.89,117.65 282.37,117.64 283.86,117.64 285.34,117.53 286.82,117.51 288.31,117.50 289.79,117.48 291.28,117.46 292.76,117.46 294.25,117.46 295.73,117.46 297.22,117.46 298.70,117.46 300.19,117.46 301.67,117.46 303.15,117.42 304.64,117.38 306.12,117.38 307.61,117.15 309.09,117.14 310.58,117.13 312.06,117.09 313.55,116.97 315.03,116.69 316.52,116.64 318.00,116.64 319.48,116.64 320.97,116.64 322.45,116.64 323.94,116.64 325.42,116.64 326.91,116.64 328.39,116.64 329.88,116.64 331.36,116.64 332.85,116.64 334.33,116.64 335.81,116.63 337.30,116.55 338.78,116.54 340.27,116.54 341.75,116.54 343.24,116.54 344.72,116.49 346.21,116.49 347.69,116.28 349.18,116.09 350.66,116.09 352.14,116.09 353.63,116.09 355.11,116.09 356.60,116.07 358.08,116.07 359.57,116.04 361.05,115.95 362.54,115.88 364.02,115.53 365.51,115.52 366.99,115.00 368.47,114.69 369.96,114.46 371.44,113.73 372.93,113.54 374.41,113.47 375.90,113.22 377.38,112.86 378.87,112.77 380.35,112.64 381.84,112.43 383.32,112.26 384.80,112.18 386.29,112.05 387.77,111.96 389.26,111.73 390.74,111.53 392.23,111.29 393.71,110.89 395.20,110.66 396.68,109.53 398.16,108.67 399.65,108.13 401.13,107.65 402.62,107.13 404.10,107.13 405.59,107.13 407.07,107.13 408.56,106.80 410.04,106.61 411.53,105.92 413.01,105.14 414.49,104.24 415.98,102.87 417.46,101.92 418.95,99.96 420.43,98.77 421.92,97.98 423.40,96.70 424.89,95.89 426.37,94.27 427.86,91.82 429.34,91.08 430.82,90.13 432.31,89.21 433.79,88.90 435.28,87.73 436.76,87.53 438.25,86.12 439.73,84.85 441.22,84.09 442.70,83.22 444.19,82.07 445.67,81.77 447.15,81.66 448.64,81.54 450.12,81.46 451.61,80.73 453.09,79.79 454.58,78.64 456.06,78.32 457.55,77.39 459.03,76.20 460.52,73.81 462.00,72.05 463.48,69.89 464.97,69.31 466.45,68.16 467.94,66.04 469.42,64.82 470.91,64.16 472.39,63.23 473.88,62.62 475.36,61.74 476.85,61.33 478.33,60.44 479.81,58.74 481.30,56.87 482.78,56.30 484.27,55.33 485.75,53.77 487.24,52.86 488.72,50.99 490.21,50.01 491.69,48.10 493.18,46.16 494.66,44.12 496.14,40.67 497.63,38.57 499.11,36.55 500.60,35.43 502.08,33.77 503.57,32.36 505.05,31.87 506.54,31.10 508.02,30.20 509.51,30.00" />
    </svg>
  