
    <svg width="540" height="160" xmlns="http://www.w3.org/2000/svg">
      <style>.line{fill:none;stroke:#388bfd;stroke-width:1.5}.axis{stroke:#555;stroke-width:1;opacity:0.5}.label{fill:#999;font-family:sans-serif;font-size:10px;text-anchor:middle}</style>
      <line class="axis" x1="30" y1="30" x2="30" y2="130" />
      <line class="axis" x1="30" y1="130" x2="510" y2="130" />
      <text class="label" x="15" y="30">4,153</text>
      <text class="label" x="15" y="134">0</text>
      <text class="label" x="30" y="148">2021</text>
      <text class="label" x="510" y="148">2026</text>
      <polyline class="line" points="30.00,129.95 31.53,129.93 33.06,129.90 34.59,129.90 36.12,129.90 37.65,129.59 39.18,129.59 40.71,129.59 42.24,127.86 43.77,124.99 45.29,124.85 46.82,124.85 48.35,124.85 49.88,124.85 51.41,124.85 52.94,124.85 54.47,124.85 56.00,124.85 57.53,124.85 59.06,124.85 60.59,124.85 62.12,124.85 63.65,124.85 65.18,124.85 66.71,124.85 68.24,124.85 69.77,124.85 71.30,123.21 72.83,123.21 74.35,123.19 75.88,123.19 77.41,123.19 78.94,123.19 80.47,123.09 82.00,123.09 83.53,123.09 85.06,123.09 86.59,123.09 88.12,123.09 89.65,123.09 91.18,123.09 92.71,123.09 94.24,123.09 95.77,123.09 97.30,123.09 98.83,123.09 100.36,123.09 101.89,123.09 103.41,123.09 104.94,123.09 106.47,123.09 108.00,122.99 109.53,121.52 111.06,120.18 112.59,119.62 114.12,116.95 115.65,116.95 117.18,116.95 118.71,116.95 120.24,116.95 121.77,116.95 123.30,116.95 124.83,116.95 126.36,116.95 127.89,116.95 129.42,116.95 130.95,116.95 132.47,116.76 134.00,116.76 135.53,116.76 137.06,116.52 138.59,116.52 140.12,116.52 141.65,116.52 143.18,116.44 144.71,116.44 146.24,116.44 147.77,116.44 149.30,116.40 150.83,116.40 152.36,116.40 153.89,116.40 155.42,116.40 156.95,116.40 158.48,116.40 160.01,116.40 161.53,116.40 163.06,116.40 164.59,116.40 166.12,116.40 167.65,116.40 169.18,116.40 170.71,116.40 172.24,116.40 173.77,116.40 175.30,116.40 176.83,116.40 178.36,116.40 179.89,116.40 181.42,116.40 182.95,116.40 184.48,116.32 186.01,116.32 187.54,116.32 189.07,116.32 190.59,116.32 192.12,116.32 193.65,116.32 195.18,116.32 196.71,116.32 198.24,116.32 199.77,116.32 201.30,116.32 202.83,116.32 204.36,116.32 205.89,116.32 207.42,116.27 208.95,115.65 210.48,115.48 212.01,115.22 213.54,114.88 215.07,114.78 216.60,114.78 218.13,114.78 219.65,114.25 221.18,114.20 222.71,113.87 224.24,113.75 225.77,113.53 227.30,112.69 228.83,112.64 230.36,112.52 231.89,112.49 233.42,112.37 234.95,112.37 236.48,112.33 238.01,112.33 239.54,112.33 241.07,112.33 242.60,112.33 244.13,112.33 245.66,112.33 247.19,112.06 248.71,111.29 250.24,110.71 251.77,110.54 253.30,110.18 254.83,110.16 256.36,110.11 257.89,110.09 259.42,110.09 260.95,110.09 262.48,109.92 264.01,109.75 265.54,109.70 267.07,109.65 268.60,109.61 270.13,109.05 271.66,108.67 273.19,108.09 274.72,107.73 276.25,107.46 277.77,107.34 279.30,107.20 280.83,107.17 282.36,107.05 283.89,106.69 285.42,106.69 286.95,106.69 288.48,106.67 290.01,106.64 291.54,106.64 293.07,106.45 294.60,106.40 296.13,106.38 297.66,106.35 299.19,106.31 300.72,106.31 302.25,106.31 303.78,106.31 305.31,106.31 306.83,106.31 308.36,106.31 309.89,106.31 311.42,106.23 312.95,106.16 314.48,106.16 316.01,105.73 317.54,105.70 319.07,105.68 320.60,105.61 322.13,105.39 323.66,104.86 325.19,104.77 326.72,104.77 328.25,104.77 329.78,104.77 331.31,104.77 332.84,104.77 334.37,104.77 335.89,104.77 337.42,104.77 338.95,104.77 340.48,104.77 342.01,104.77 343.54,104.77 345.07,104.74 346.60,104.60 348.13,104.57 349.66,104.57 351.19,104.57 352.72,104.57 354.25,104.48 355.78,104.48 357.31,104.09 358.84,103.73 360.37,103.73 361.90,103.73 363.43,103.73 364.95,103.73 366.48,103.68 368.01,103.68 369.54,103.63 371.07,103.46 372.60,103.32 374.13,102.67 375.66,102.65 377.19,101.66 378.72,101.08 380.25,100.65 381.78,99.28 383.31,99.06 384.84,99.01 386.37,99.01 387.90,99.01 389.43,99.01 390.96,98.96 392.49,98.84 394.01,98.84 395.54,98.84 397.07,98.84 398.60,98.84 400.13,98.84 401.66,98.79 403.19,98.75 404.72,98.75 406.25,98.75 407.78,98.70 409.31,98.70 410.84,98.50 412.37,98.41 413.90,98.41 415.43,98.41 416.96,98.41 418.49,98.41 420.02,98.41 421.55,98.41 423.07,97.88 424.60,97.32 426.13,96.87 427.66,96.24 429.19,95.52 430.72,93.81 432.25,92.75 433.78,92.00 435.31,90.78 436.84,89.81 438.37,88.17 439.90,85.82 441.43,85.12 442.96,84.11 444.49,83.24 446.02,82.95 447.55,81.84 449.08,81.65 450.61,80.33 452.13,79.12 453.66,78.40 455.19,77.56 456.72,76.40 458.25,76.06 459.78,75.89 461.31,75.73 462.84,75.58 464.37,74.67 465.90,73.63 467.43,71.99 468.96,71.51 470.49,70.67 472.02,69.30 473.55,66.24 475.08,63.93 476.61,61.35 478.14,60.80 479.67,59.67 481.19,57.38 482.72,55.98 484.25,55.21 485.78,54.05 487.31,53.45 488.84,52.61 490.37,52.22 491.90,50.92 493.43,48.97 494.96,47.12 496.49,46.57 498.02,45.60 499.55,43.87 501.08,42.57 502.61,40.64 504.14,39.66 505.67,37.68 507.20,35.06 508.73,32.82" />
    </svg>
  