
    <svg width="540" height="160" xmlns="http://www.w3.org/2000/svg">
      <style>.line{fill:none;stroke:#388bfd;stroke-width:1.5}.axis{stroke:#555;stroke-width:1;opacity:0.5}.label{fill:#999;font-family:sans-serif;font-size:10px;text-anchor:middle}</style>
      <line class="axis" x1="30" y1="30" x2="30" y2="130" />
      <line class="axis" x1="30" y1="130" x2="510" y2="130" />
      <text class="label" x="15" y="30">8,347</text>
      <text class="label" x="15" y="134">0</text>
      <text class="label" x="30" y="148">2021</text>
      <text class="label" x="510" y="148">2026</text>
      <polyline class="line" points="30.00,129.98 31.48,129.96 32.96,129.95 34.43,129.95 35.91,129.95 37.39,129.80 38.87,129.80 40.34,129.80 41.82,128.93 43.30,127.51 44.78,127.44 46.25,127.44 47.73,127.44 49.21,127.44 50.69,127.44 52.17,127.44 53.64,127.44 55.12,127.44 56.60,127.44 58.08,127.44 59.55,127.44 61.03,127.44 62.51,127.44 63.99,127.44 65.46,127.44 66.94,127.44 68.42,127.44 69.90,126.62 71.38,126.62 72.85,126.61 74.33,126.61 75.81,126.61 77.29,126.61 78.76,126.56 80.24,126.56 81.72,126.56 83.20,126.56 84.67,126.56 86.15,126.56 87.63,126.56 89.11,126.56 90.58,126.56 92.06,126.56 93.54,126.56 95.02,126.56 96.50,126.56 97.97,126.56 99.45,126.56 100.93,126.56 102.41,126.56 103.88,126.56 105.36,126.51 106.84,125.78 108.32,125.11 109.79,124.84 111.27,123.51 112.75,123.51 114.23,123.51 115.71,123.51 117.18,123.51 118.66,123.51 120.14,123.51 121.62,123.51 123.09,123.51 124.57,123.51 126.05,123.51 127.53,123.51 129.00,123.41 130.48,123.41 131.96,123.41 133.44,123.29 134.92,123.29 136.39,123.29 137.87,123.29 139.35,123.26 140.83,123.26 142.30,123.26 143.78,123.26 145.26,123.23 146.74,123.23 148.21,123.23 149.69,123.23 151.17,123.23 152.65,123.23 154.13,123.23 155.60,123.23 157.08,123.23 158.56,123.23 160.04,123.23 161.51,123.23 162.99,123.23 164.47,123.23 165.95,123.23 167.42,123.23 168.90,123.23 170.38,123.23 171.86,123.23 173.34,123.23 174.81,123.23 176.29,123.23 177.77,123.23 179.25,123.20 180.72,123.20 182.20,123.20 183.68,123.20 185.16,123.20 186.63,123.20 188.11,123.20 189.59,123.20 191.07,123.20 192.54,123.20 194.02,123.20 195.50,123.20 196.98,123.20 198.46,123.20 199.93,123.20 201.41,123.17 202.89,122.86 204.37,122.78 205.84,122.64 207.32,122.48 208.80,122.43 210.28,122.43 211.75,122.43 213.23,122.16 214.71,122.14 216.19,121.97 217.67,121.91 219.14,121.81 220.62,121.39 222.10,121.36 223.58,121.30 225.05,121.29 226.53,121.23 228.01,121.23 229.49,121.21 230.96,121.21 232.44,121.21 233.92,121.21 235.40,121.21 236.88,121.21 238.35,121.21 239.83,121.07 241.31,120.69 242.79,120.40 244.26,120.32 245.74,120.14 247.22,120.13 248.70,120.10 250.17,120.09 251.65,120.09 253.13,120.09 254.61,120.01 256.09,119.92 257.56,119.90 259.04,119.88 260.52,119.85 262.00,119.58 263.47,119.39 264.95,119.10 266.43,118.92 267.91,118.79 269.38,118.73 270.86,118.65 272.34,118.64 273.82,118.58 275.30,118.40 276.77,118.40 278.25,118.40 279.73,118.39 281.21,118.38 282.68,118.38 284.16,118.28 285.64,118.26 287.12,118.25 288.59,118.24 290.07,118.21 291.55,118.21 293.03,118.21 294.50,118.21 295.98,118.21 297.46,118.21 298.94,118.21 300.42,118.21 301.89,118.18 303.37,118.14 304.85,118.14 306.33,117.92 307.80,117.91 309.28,117.90 310.76,117.86 312.24,117.76 313.71,117.49 315.19,117.44 316.67,117.44 318.15,117.44 319.63,117.44 321.10,117.44 322.58,117.44 324.06,117.44 325.54,117.44 327.01,117.44 328.49,117.44 329.97,117.44 331.45,117.44 332.92,117.44 334.40,117.43 335.88,117.36 337.36,117.35 338.84,117.35 340.31,117.35 341.79,117.35 343.27,117.30 344.75,117.30 346.22,117.11 347.70,116.93 349.18,116.93 350.66,116.93 352.13,116.93 353.61,116.93 355.09,116.91 356.57,116.91 358.05,116.88 359.52,116.80 361.00,116.73 362.48,116.40 363.96,116.39 365.43,115.90 366.91,115.61 368.39,115.40 369.87,114.71 371.34,114.53 372.82,114.46 374.30,114.23 375.78,113.89 377.26,113.80 378.73,113.68 380.21,113.49 381.69,113.32 383.17,113.25 384.64,113.13 386.12,113.05 387.60,112.83 389.08,112.64 390.55,112.41 392.03,112.04 393.51,111.83 394.99,110.76 396.46,109.96 397.94,109.44 399.42,109.00 400.90,108.51 402.38,108.51 403.85,108.51 405.33,108.51 406.81,108.20 408.29,108.02 409.76,107.37 411.24,106.64 412.72,105.79 414.20,104.51 415.67,103.61 417.15,101.76 418.63,100.65 420.11,99.91 421.59,98.71 423.06,97.94 424.54,96.42 426.02,94.12 427.50,93.42 428.97,92.53 430.45,91.66 431.93,91.38 433.41,90.27 434.88,90.08 436.36,88.76 437.84,87.57 439.32,86.85 440.80,86.03 442.27,84.95 443.75,84.67 445.23,84.57 446.71,84.45 448.18,84.38 449.66,83.70 451.14,82.81 452.62,81.73 454.09,81.43 455.57,80.56 457.05,79.43 458.53,77.19 460.01,75.54 461.48,73.50 462.96,72.96 464.44,71.88 465.92,69.88 467.39,68.74 468.87,68.12 470.35,67.25 471.83,66.67 473.30,65.85 474.78,65.46 476.26,64.62 477.74,63.03 479.21,61.27 480.69,60.73 482.17,59.74 483.65,57.91 485.13,56.98 486.60,54.72 488.08,53.64 489.56,51.67 491.04,49.76 492.51,47.44 493.99,43.97 495.47,41.67 496.95,39.69 498.42,38.42 499.90,36.78 501.38,35.31 502.86,34.59 504.34,33.39 505.81,31.94 507.29,31.38 508.77,30.31" />
    </svg>
  