
    <svg width="540" height="160" xmlns="http://www.w3.org/2000/svg">
      <style>.line{fill:none;stroke:#388bfd;stroke-width:1.5}.axis{stroke:#555;stroke-width:1;opacity:0.5}.label{fill:#999;font-family:sans-serif;font-size:10px;text-anchor:middle}</style>
      <line class="axis" x1="30" y1="30" x2="30" y2="130" />
      <line class="axis" x1="30" y1="130" x2="510" y2="130" />
      <text class="label" x="15" y="30">9,012</text>
      <text class="label" x="15" y="134">0</text>
      <text class="label" x="30" y="148">2021</text>
      <text class="label" x="510" y="148">2026</text>
      <polyline class="line" points="30.00,129.98 31.46,129.97 32.91,129.96 34.37,129.96 35.83,129.96 37.29,129.81 38.74,129.81 40.20,129.81 41.66,129.01 43.12,127.69 44.57,127.63 46.03,127.63 47.49,127.63 48.95,127.63 50.40,127.63 51.86,127.63 53.32,127.63 54.78,127.63 56.23,127.63 57.69,127.63 59.15,127.63 60.61,127.63 62.06,127.63 63.52,127.63 64.98,127.63 66.44,127.63 67.89,127.63 69.35,126.87 70.81,126.87 72.27,126.86 73.72,126.86 75.18,126.86 76.64,126.86 78.10,126.82 79.55,126.82 81.01,126.82 82.47,126.82 83.93,126.82 85.38,126.82 86.84,126.82 88.30,126.82 89.76,126.82 91.21,126.82 92.67,126.82 94.13,126.82 95.59,126.82 97.04,126.82 98.50,126.82 99.96,126.82 101.42,126.82 102.87,126.82 104.33,126.77 105.79,126.09 107.25,125.47 108.70,125.22 110.16,123.99 111.62,123.99 113.08,123.99 114.53,123.99 115.99,123.99 117.45,123.99 118.91,123.99 120.36,123.99 121.82,123.99 123.28,123.99 124.74,123.99 126.19,123.99 127.65,123.90 129.11,123.90 130.57,123.90 132.02,123.79 133.48,123.79 134.94,123.79 136.40,123.79 137.85,123.75 139.31,123.75 140.77,123.75 142.23,123.75 143.68,123.73 145.14,123.73 146.60,123.73 148.06,123.73 149.51,123.73 150.97,123.73 152.43,123.73 153.89,123.73 155.34,123.73 156.80,123.73 158.26,123.73 159.72,123.73 161.17,123.73 162.63,123.73 164.09,123.73 165.55,123.73 167.00,123.73 168.46,123.73 169.92,123.73 171.38,123.73 172.83,123.73 174.29,123.73 175.75,123.73 177.21,123.70 178.66,123.70 180.12,123.70 181.58,123.70 183.04,123.70 184.49,123.70 185.95,123.70 187.41,123.70 188.87,123.70 190.32,123.70 191.78,123.70 193.24,123.70 194.70,123.70 196.15,123.70 197.61,123.70 199.07,123.68 200.53,123.39 201.98,123.31 203.44,123.19 204.90,123.03 206.36,122.99 207.81,122.99 209.27,122.99 210.73,122.74 212.19,122.72 213.64,122.57 215.10,122.51 216.56,122.41 218.02,122.02 219.47,122.00 220.93,121.94 222.39,121.93 223.85,121.88 225.30,121.88 226.76,121.86 228.22,121.86 229.68,121.86 231.13,121.86 232.59,121.86 234.05,121.86 235.51,121.86 236.96,121.73 238.42,121.38 239.88,121.11 241.34,121.03 242.79,120.87 244.25,120.86 245.71,120.83 247.17,120.82 248.62,120.82 250.08,120.82 251.54,120.75 253.00,120.67 254.45,120.65 255.91,120.62 257.37,120.60 258.83,120.35 260.28,120.17 261.74,119.90 263.20,119.74 264.66,119.61 266.11,119.56 267.57,119.49 269.03,119.48 270.49,119.43 271.94,119.26 273.40,119.26 274.86,119.26 276.32,119.25 277.77,119.24 279.23,119.24 280.69,119.15 282.15,119.13 283.60,119.11 285.06,119.10 286.52,119.08 287.98,119.08 289.43,119.08 290.89,119.08 292.35,119.08 293.81,119.08 295.26,119.08 296.72,119.08 298.18,119.05 299.64,119.01 301.09,119.01 302.55,118.81 304.01,118.80 305.47,118.79 306.92,118.76 308.38,118.66 309.84,118.42 311.30,118.37 312.75,118.37 314.21,118.37 315.67,118.37 317.13,118.37 318.58,118.37 320.04,118.37 321.50,118.37 322.96,118.37 324.41,118.37 325.87,118.37 327.33,118.37 328.79,118.37 330.24,118.36 331.70,118.29 333.16,118.28 334.62,118.28 336.07,118.28 337.53,118.28 338.99,118.24 340.45,118.24 341.90,118.06 343.36,117.89 344.82,117.89 346.28,117.89 347.73,117.89 349.19,117.89 350.65,117.87 352.11,117.87 353.56,117.85 355.02,117.77 356.48,117.71 357.94,117.41 359.39,117.39 360.85,116.94 362.31,116.67 363.77,116.47 365.22,115.84 366.68,115.67 368.14,115.61 369.60,115.40 371.05,115.08 372.51,115.00 373.97,114.89 375.43,114.71 376.88,114.55 378.34,114.49 379.80,114.38 381.26,114.30 382.71,114.10 384.17,113.92 385.63,113.71 387.09,113.37 388.54,113.17 390.00,112.18 391.46,111.44 392.91,110.96 394.37,110.55 395.83,110.09 397.29,110.09 398.74,110.09 400.20,110.09 401.66,109.80 403.12,109.64 404.57,109.04 406.03,108.36 407.49,107.57 408.95,106.39 410.40,105.55 411.86,103.85 413.32,102.81 414.78,102.13 416.23,101.02 417.69,100.31 419.15,98.90 420.61,96.77 422.06,96.12 423.52,95.29 424.98,94.49 426.44,94.23 427.89,93.20 429.35,93.03 430.81,91.81 432.27,90.70 433.72,90.03 435.18,89.28 436.64,88.28 438.10,88.01 439.55,87.92 441.01,87.81 442.47,87.75 443.93,87.11 445.38,86.29 446.84,85.29 448.30,85.02 449.76,84.21 451.21,83.16 452.67,81.09 454.13,79.56 455.59,77.67 457.04,77.17 458.50,76.17 459.96,74.32 461.42,73.26 462.87,72.69 464.33,71.88 465.79,71.34 467.25,70.58 468.70,70.22 470.16,69.45 471.62,67.97 473.08,66.34 474.53,65.84 475.99,64.92 477.45,63.23 478.91,62.37 480.36,60.27 481.82,59.27 483.28,57.45 484.74,55.68 486.19,53.54 487.65,50.32 489.11,48.19 490.57,46.36 492.02,45.18 493.48,43.66 494.94,42.29 496.40,41.63 497.85,40.52 499.31,39.18 500.77,38.42 502.23,37.27 503.68,36.39 505.14,35.56 506.60,34.31 508.06,32.02 509.51,30.29" />
    </svg>
  