
    <svg width="540" height="160" xmlns="http://www.w3.org/2000/svg">
      <style>.line{fill:none;stroke:#388bfd;stroke-width:1.5}.axis{stroke:#555;stroke-width:1;opacity:0.5}.label{fill:#999;font-family:sans-serif;font-size:10px;text-anchor:middle}</style>
      <line class="axis" x1="30" y1="30" x2="30" y2="130" />
      <line class="axis" x1="30" y1="130" x2="510" y2="130" />
      <text class="label" x="15" y="30">7,403</text>
      <text class="label" x="15" y="134">0</text>
      <text class="label" x="30" y="148">2021</text>
      <text class="label" x="510" y="148">2026</text>
      <polyline class="line" points="30.00,129.97 31.51,129.96 33.01,129.95 34.52,129.95 36.02,129.95 37.53,129.77 39.03,129.77 40.54,129.77 42.04,128.80 43.55,127.19 45.05,127.11 46.56,127.11 48.07,127.11 49.57,127.11 51.08,127.11 52.58,127.11 54.09,127.11 55.59,127.11 57.10,127.11 58.60,127.11 60.11,127.11 61.62,127.11 63.12,127.11 64.63,127.11 66.13,127.11 67.64,127.11 69.14,127.11 70.65,126.19 72.15,126.19 73.66,126.18 75.16,126.18 76.67,126.18 78.18,126.18 79.68,126.12 81.19,126.12 82.69,126.12 84.20,126.12 85.70,126.12 87.21,126.12 88.71,126.12 90.22,126.12 91.73,126.12 93.23,126.12 94.74,126.12 96.24,126.12 97.75,126.12 99.25,126.12 100.76,126.12 102.26,126.12 103.77,126.12 105.27,126.12 106.78,126.07 108.29,125.25 109.79,124.49 111.30,124.18 112.80,122.68 114.31,122.68 115.81,122.68 117.32,122.68 118.82,122.68 120.33,122.68 121.83,122.68 123.34,122.68 124.85,122.68 126.35,122.68 127.86,122.68 129.36,122.68 130.87,122.57 132.37,122.57 133.88,122.57 135.38,122.44 136.89,122.44 138.40,122.44 139.90,122.44 141.41,122.39 142.91,122.39 144.42,122.39 145.92,122.39 147.43,122.37 148.93,122.37 150.44,122.37 151.94,122.37 153.45,122.37 154.96,122.37 156.46,122.37 157.97,122.37 159.47,122.37 160.98,122.37 162.48,122.37 163.99,122.37 165.49,122.37 167.00,122.37 168.50,122.37 170.01,122.37 171.52,122.37 173.02,122.37 174.53,122.37 176.03,122.37 177.54,122.37 179.04,122.37 180.55,122.37 182.05,122.33 183.56,122.33 185.07,122.33 186.57,122.33 188.08,122.33 189.58,122.33 191.09,122.33 192.59,122.33 194.10,122.33 195.60,122.33 197.11,122.33 198.61,122.33 200.12,122.33 201.63,122.33 203.13,122.33 204.64,122.30 206.14,121.95 207.65,121.85 209.15,121.71 210.66,121.52 212.16,121.46 213.67,121.46 215.18,121.46 216.68,121.17 218.19,121.14 219.69,120.95 221.20,120.88 222.70,120.76 224.21,120.29 225.71,120.26 227.22,120.19 228.72,120.18 230.23,120.11 231.74,120.11 233.24,120.09 234.75,120.09 236.25,120.09 237.76,120.09 239.26,120.09 240.77,120.09 242.27,120.09 243.78,119.94 245.28,119.50 246.79,119.18 248.30,119.09 249.80,118.88 251.31,118.87 252.81,118.84 254.32,118.83 255.82,118.83 257.33,118.83 258.83,118.73 260.34,118.64 261.85,118.61 263.35,118.59 264.86,118.56 266.36,118.25 267.87,118.03 269.37,117.71 270.88,117.51 272.38,117.36 273.89,117.29 275.39,117.21 276.90,117.19 278.41,117.13 279.91,116.92 281.42,116.92 282.92,116.92 284.43,116.91 285.93,116.90 287.44,116.90 288.94,116.79 290.45,116.76 291.96,116.75 293.46,116.74 294.97,116.71 296.47,116.71 297.98,116.71 299.48,116.71 300.99,116.71 302.49,116.71 304.00,116.71 305.50,116.71 307.01,116.67 308.52,116.63 310.02,116.63 311.53,116.38 313.03,116.37 314.54,116.36 316.04,116.32 317.55,116.19 319.05,115.90 320.56,115.84 322.06,115.84 323.57,115.84 325.08,115.84 326.58,115.84 328.09,115.84 329.59,115.84 331.10,115.84 332.60,115.84 334.11,115.84 335.61,115.84 337.12,115.84 338.63,115.84 340.13,115.83 341.64,115.75 343.14,115.74 344.65,115.74 346.15,115.74 347.66,115.74 349.16,115.68 350.67,115.68 352.17,115.47 353.68,115.26 355.19,115.26 356.69,115.26 358.20,115.26 359.70,115.26 361.21,115.24 362.71,115.24 364.22,115.21 365.72,115.11 367.23,115.03 368.73,114.67 370.24,114.65 371.75,114.10 373.25,113.78 374.76,113.53 376.26,112.76 377.77,112.56 379.27,112.48 380.78,112.22 382.28,111.83 383.79,111.74 385.30,111.60 386.80,111.39 388.31,111.20 389.81,111.12 391.32,110.98 392.82,110.89 394.33,110.64 395.83,110.43 397.34,110.17 398.84,109.75 400.35,109.51 401.86,108.31 403.36,107.40 404.87,106.82 406.37,106.32 407.88,105.77 409.38,105.77 410.89,105.77 412.39,105.77 413.90,105.42 415.41,105.21 416.91,104.48 418.42,103.66 419.92,102.70 421.43,101.25 422.93,100.24 424.44,98.16 425.94,96.91 427.45,96.07 428.95,94.72 430.46,93.85 431.97,92.14 433.47,89.54 434.98,88.76 436.48,87.75 437.99,86.77 439.49,86.45 441.00,85.21 442.50,84.99 444.01,83.51 445.51,82.15 447.02,81.34 448.53,80.43 450.03,79.21 451.54,78.89 453.04,78.78 454.55,78.64 456.05,78.56 457.56,77.79 459.06,76.79 460.57,75.58 462.08,75.24 463.58,74.25 465.09,72.98 466.59,70.46 468.10,68.59 469.60,66.30 471.11,65.69 472.61,64.47 474.12,62.22 475.62,60.93 477.13,60.23 478.64,59.24 480.14,58.60 481.65,57.66 483.15,57.23 484.66,56.29 486.16,54.49 487.67,52.50 489.17,51.90 490.68,50.96 492.19,49.72 493.69,48.83 495.20,47.44 496.70,46.57 498.21,44.74 499.71,42.79 501.22,41.08 502.72,37.67 504.23,35.57 505.73,33.53 507.24,32.39 508.75,30.73" />
    </svg>
  