
    <svg width="540" height="160" xmlns="http://www.w3.org/2000/svg">
      <style>.line{fill:none;stroke:#388bfd;stroke-width:1.5}.axis{stroke:#555;stroke-width:1;opacity:0.5}.label{fill:#999;font-family:sans-serif;font-size:10px;text-anchor:middle}</style>
      <line class="axis" x1="30" y1="30" x2="30" y2="130" />
      <line class="axis" x1="30" y1="130" x2="510" y2="130" />
      <text class="label" x="15" y="30">8,340</text>
      <text class="label" x="15" y="134">0</text>
      <text class="label" x="30" y="148">2021</text>
      <text class="label" x="510" y="148">2026</text>
      <polyline class="line" points="30.00,129.98 31.48,129.96 32.96,129.95 34.44,129.95 35.92,129.95 37.40,129.80 38.88,129.80 40.35,129.80 41.83,128.93 43.31,127.51 44.79,127.43 46.27,127.43 47.75,127.43 49.23,127.43 50.71,127.43 52.19,127.43 53.67,127.43 55.15,127.43 56.63,127.43 58.10,127.43 59.58,127.43 61.06,127.43 62.54,127.43 64.02,127.43 65.50,127.43 66.98,127.43 68.46,127.43 69.94,126.62 71.42,126.62 72.90,126.61 74.38,126.61 75.86,126.61 77.33,126.61 78.81,126.56 80.29,126.56 81.77,126.56 83.25,126.56 84.73,126.56 86.21,126.56 87.69,126.56 89.17,126.56 90.65,126.56 92.13,126.56 93.61,126.56 95.08,126.56 96.56,126.56 98.04,126.56 99.52,126.56 101.00,126.56 102.48,126.56 103.96,126.56 105.44,126.51 106.92,125.78 108.40,125.11 109.88,124.83 111.36,123.50 112.84,123.50 114.31,123.50 115.79,123.50 117.27,123.50 118.75,123.50 120.23,123.50 121.71,123.50 123.19,123.50 124.67,123.50 126.15,123.50 127.63,123.50 129.11,123.41 130.59,123.41 132.06,123.41 133.54,123.29 135.02,123.29 136.50,123.29 137.98,123.29 139.46,123.25 140.94,123.25 142.42,123.25 143.90,123.25 145.38,123.23 146.86,123.23 148.34,123.23 149.82,123.23 151.29,123.23 152.77,123.23 154.25,123.23 155.73,123.23 157.21,123.23 158.69,123.23 160.17,123.23 161.65,123.23 163.13,123.23 164.61,123.23 166.09,123.23 167.57,123.23 169.04,123.23 170.52,123.23 172.00,123.23 173.48,123.23 174.96,123.23 176.44,123.23 177.92,123.23 179.40,123.19 180.88,123.19 182.36,123.19 183.84,123.19 185.32,123.19 186.80,123.19 188.27,123.19 189.75,123.19 191.23,123.19 192.71,123.19 194.19,123.19 195.67,123.19 197.15,123.19 198.63,123.19 200.11,123.19 201.59,123.17 203.07,122.85 204.55,122.77 206.02,122.64 207.50,122.47 208.98,122.42 210.46,122.42 211.94,122.42 213.42,122.16 214.90,122.13 216.38,121.97 217.86,121.91 219.34,121.80 220.82,121.38 222.30,121.35 223.78,121.29 225.25,121.28 226.73,121.22 228.21,121.22 229.69,121.20 231.17,121.20 232.65,121.20 234.13,121.20 235.61,121.20 237.09,121.20 238.57,121.20 240.05,121.07 241.53,120.68 243.00,120.40 244.48,120.31 245.96,120.13 247.44,120.12 248.92,120.10 250.40,120.08 251.88,120.08 253.36,120.08 254.84,120.00 256.32,119.92 257.80,119.89 259.28,119.87 260.76,119.84 262.23,119.57 263.71,119.38 265.19,119.09 266.67,118.91 268.15,118.78 269.63,118.72 271.11,118.65 272.59,118.63 274.07,118.57 275.55,118.39 277.03,118.39 278.51,118.39 279.98,118.38 281.46,118.37 282.94,118.37 284.42,118.27 285.90,118.25 287.38,118.24 288.86,118.23 290.34,118.20 291.82,118.20 293.30,118.20 294.78,118.20 296.26,118.20 297.73,118.20 299.21,118.20 300.69,118.20 302.17,118.17 303.65,118.13 305.13,118.13 306.61,117.91 308.09,117.90 309.57,117.89 311.05,117.85 312.53,117.75 314.01,117.48 315.49,117.43 316.96,117.43 318.44,117.43 319.92,117.43 321.40,117.43 322.88,117.43 324.36,117.43 325.84,117.43 327.32,117.43 328.80,117.43 330.28,117.43 331.76,117.43 333.24,117.43 334.71,117.42 336.19,117.35 337.67,117.34 339.15,117.34 340.63,117.34 342.11,117.34 343.59,117.29 345.07,117.29 346.55,117.10 348.03,116.92 349.51,116.92 350.99,116.92 352.47,116.92 353.94,116.92 355.42,116.89 356.90,116.89 358.38,116.87 359.86,116.79 361.34,116.71 362.82,116.39 364.30,116.38 365.78,115.89 367.26,115.60 368.74,115.38 370.22,114.70 371.69,114.52 373.17,114.45 374.65,114.22 376.13,113.87 377.61,113.79 379.09,113.67 380.57,113.48 382.05,113.31 383.53,113.24 385.01,113.12 386.49,113.03 387.97,112.82 389.45,112.63 390.92,112.40 392.40,112.03 393.88,111.81 395.36,110.74 396.84,109.94 398.32,109.42 399.80,108.98 401.28,108.49 402.76,108.49 404.24,108.49 405.72,108.49 407.20,108.18 408.67,108.00 410.15,107.35 411.63,106.62 413.11,105.77 414.59,104.48 416.07,103.59 417.55,101.74 419.03,100.62 420.51,99.88 421.99,98.68 423.47,97.91 424.95,96.39 426.43,94.09 427.90,93.39 429.38,92.49 430.86,91.63 432.34,91.34 433.82,90.24 435.30,90.05 436.78,88.73 438.26,87.53 439.74,86.81 441.22,86.00 442.70,84.92 444.18,84.63 445.65,84.53 447.13,84.41 448.61,84.34 450.09,83.66 451.57,82.77 453.05,81.69 454.53,81.39 456.01,80.52 457.49,79.39 458.97,77.15 460.45,75.49 461.93,73.45 463.41,72.91 464.88,71.83 466.36,69.83 467.84,68.69 469.32,68.07 470.80,67.19 472.28,66.62 473.76,65.79 475.24,65.41 476.72,64.57 478.20,62.97 479.68,61.21 481.16,60.67 482.63,59.68 484.11,57.85 485.59,56.92 487.07,54.65 488.55,53.57 490.03,51.61 491.51,49.69 492.99,47.37 494.47,43.90 495.95,41.59 497.43,39.62 498.91,38.35 500.39,36.70 501.86,35.23 503.34,34.51 504.82,33.31 506.30,31.86 507.78,31.29 509.26,30.23" />
    </svg>
  