
    <svg width="540" height="160" xmlns="http://www.w3.org/2000/svg">
      <style>.line{fill:none;stroke:#388bfd;stroke-width:1.5}.axis{stroke:#555;stroke-width:1;opacity:0.5}.label{fill:#999;font-family:sans-serif;font-size:10px;text-anchor:middle}</style>
      <line class="axis" x1="30" y1="30" x2="30" y2="130" />
      <line class="axis" x1="30" y1="130" x2="510" y2="130" />
      <text class="label" x="15" y="30">8,455</text>
      <text class="label" x="15" y="134">0</text>
      <text class="label" x="30" y="148">2021</text>
      <text class="label" x="510" y="148">2026</text>
      <polyline class="line" points="30.00,129.98 31.47,129.96 32.95,129.95 34.42,129.95 35.89,129.95 37.37,129.80 38.84,129.80 40.31,129.80 41.79,128.95 43.26,127.54 44.73,127.47 46.20,127.47 47.68,127.47 49.15,127.47 50.62,127.47 52.10,127.47 53.57,127.47 55.04,127.47 56.52,127.47 57.99,127.47 59.46,127.47 60.94,127.47 62.41,127.47 63.88,127.47 65.36,127.47 66.83,127.47 68.30,127.47 69.77,126.66 71.25,126.66 72.72,126.65 74.19,126.65 75.67,126.65 77.14,126.65 78.61,126.61 80.09,126.61 81.56,126.61 83.03,126.61 84.51,126.61 85.98,126.61 87.45,126.61 88.93,126.61 90.40,126.61 91.87,126.61 93.35,126.61 94.82,126.61 96.29,126.61 97.76,126.61 99.24,126.61 100.71,126.61 102.18,126.61 103.66,126.61 105.13,126.56 106.60,125.84 108.08,125.17 109.55,124.90 111.02,123.59 112.50,123.59 113.97,123.59 115.44,123.59 116.92,123.59 118.39,123.59 119.86,123.59 121.34,123.59 122.81,123.59 124.28,123.59 125.75,123.59 127.23,123.59 128.70,123.49 130.17,123.49 131.65,123.49 133.12,123.38 134.59,123.38 136.07,123.38 137.54,123.38 139.01,123.34 140.49,123.34 141.96,123.34 143.43,123.34 144.91,123.32 146.38,123.32 147.85,123.32 149.32,123.32 150.80,123.32 152.27,123.32 153.74,123.32 155.22,123.32 156.69,123.32 158.16,123.32 159.64,123.32 161.11,123.32 162.58,123.32 164.06,123.32 165.53,123.32 167.00,123.32 168.48,123.32 169.95,123.32 171.42,123.32 172.90,123.32 174.37,123.32 175.84,123.32 177.31,123.32 178.79,123.28 180.26,123.28 181.73,123.28 183.21,123.28 184.68,123.28 186.15,123.28 187.63,123.28 189.10,123.28 190.57,123.28 192.05,123.28 193.52,123.28 194.99,123.28 196.47,123.28 197.94,123.28 199.41,123.28 200.88,123.26 202.36,122.95 203.83,122.87 205.30,122.74 206.78,122.57 208.25,122.53 209.72,122.53 211.20,122.53 212.67,122.26 214.14,122.24 215.62,122.08 217.09,122.02 218.56,121.91 220.04,121.50 221.51,121.47 222.98,121.41 224.46,121.40 225.93,121.34 227.40,121.34 228.87,121.32 230.35,121.32 231.82,121.32 233.29,121.32 234.77,121.32 236.24,121.32 237.71,121.32 239.19,121.19 240.66,120.81 242.13,120.53 243.61,120.44 245.08,120.27 246.55,120.25 248.03,120.23 249.50,120.22 250.97,120.22 252.45,120.22 253.92,120.14 255.39,120.05 256.86,120.03 258.34,120.01 259.81,119.98 261.28,119.71 262.76,119.52 264.23,119.24 265.70,119.06 267.18,118.93 268.65,118.87 270.12,118.80 271.60,118.79 273.07,118.73 274.54,118.55 276.02,118.55 277.49,118.55 278.96,118.54 280.43,118.53 281.91,118.53 283.38,118.43 284.85,118.41 286.33,118.40 287.80,118.39 289.27,118.36 290.75,118.36 292.22,118.36 293.69,118.36 295.17,118.36 296.64,118.36 298.11,118.36 299.59,118.36 301.06,118.33 302.53,118.29 304.01,118.29 305.48,118.08 306.95,118.07 308.42,118.05 309.90,118.02 311.37,117.91 312.84,117.65 314.32,117.60 315.79,117.60 317.26,117.60 318.74,117.60 320.21,117.60 321.68,117.60 323.16,117.60 324.63,117.60 326.10,117.60 327.58,117.60 329.05,117.60 330.52,117.60 331.99,117.60 333.47,117.59 334.94,117.52 336.41,117.51 337.89,117.51 339.36,117.51 340.83,117.51 342.31,117.46 343.78,117.46 345.25,117.27 346.73,117.10 348.20,117.10 349.67,117.10 351.15,117.10 352.62,117.10 354.09,117.07 355.57,117.07 357.04,117.05 358.51,116.97 359.98,116.90 361.46,116.58 362.93,116.56 364.40,116.08 365.88,115.80 367.35,115.58 368.82,114.91 370.30,114.73 371.77,114.66 373.24,114.44 374.72,114.09 376.19,114.01 377.66,113.89 379.14,113.70 380.61,113.54 382.08,113.47 383.55,113.35 385.03,113.26 386.50,113.05 387.97,112.86 389.45,112.64 390.92,112.27 392.39,112.06 393.87,111.01 395.34,110.21 396.81,109.70 398.29,109.27 399.76,108.78 401.23,108.78 402.71,108.78 404.18,108.78 405.65,108.47 407.13,108.30 408.60,107.66 410.07,106.94 411.54,106.10 413.02,104.83 414.49,103.94 415.96,102.12 417.44,101.02 418.91,100.29 420.38,99.11 421.86,98.35 423.33,96.85 424.80,94.58 426.28,93.89 427.75,93.00 429.22,92.15 430.70,91.87 432.17,90.78 433.64,90.59 435.12,89.29 436.59,88.11 438.06,87.40 439.53,86.59 441.01,85.53 442.48,85.25 443.95,85.15 445.43,85.03 446.90,84.96 448.37,84.29 449.85,83.41 451.32,82.35 452.79,82.05 454.27,81.19 455.74,80.08 457.21,77.87 458.69,76.23 460.16,74.22 461.63,73.69 463.10,72.63 464.58,70.65 466.05,69.53 467.52,68.91 469.00,68.05 470.47,67.48 471.94,66.66 473.42,66.29 474.89,65.46 476.36,63.89 477.84,62.15 479.31,61.61 480.78,60.63 482.26,58.84 483.73,57.91 485.20,55.68 486.68,54.61 488.15,52.67 489.62,50.78 491.09,48.50 492.57,45.07 494.04,42.80 495.51,40.85 496.99,39.59 498.46,37.97 499.93,36.52 501.41,35.81 502.88,34.62 504.35,33.19 505.83,32.64 507.30,31.58 508.77,30.69" />
    </svg>
  