
    <svg width="540" height="160" xmlns="http://www.w3.org/2000/svg">
      <style>.line{fill:none;stroke:#388bfd;stroke-width:1.5}.axis{stroke:#555;stroke-width:1;opacity:0.5}.label{fill:#999;font-family:sans-serif;font-size:10px;text-anchor:middle}</style>
      <line class="axis" x1="30" y1="30" x2="30" y2="130" />
      <line class="axis" x1="30" y1="130" x2="510" y2="130" />
      <text class="label" x="15" y="30">7,749</text>
      <text class="label" x="15" y="134">0</text>
      <text class="label" x="30" y="148">2021</text>
      <text class="label" x="510" y="148">2026</text>
      <polyline class="line" points="30.00,129.97 31.50,129.96 32.99,129.95 34.49,129.95 35.98,129.95 37.48,129.78 38.98,129.78 40.47,129.78 41.97,128.85 43.46,127.32 44.96,127.24 46.46,127.24 47.95,127.24 49.45,127.24 50.95,127.24 52.44,127.24 53.94,127.24 55.43,127.24 56.93,127.24 58.43,127.24 59.92,127.24 61.42,127.24 62.91,127.24 64.41,127.24 65.91,127.24 67.40,127.24 68.90,127.24 70.39,126.36 71.89,126.36 73.39,126.35 74.88,126.35 76.38,126.35 77.88,126.35 79.37,126.30 80.87,126.30 82.36,126.30 83.86,126.30 85.36,126.30 86.85,126.30 88.35,126.30 89.84,126.30 91.34,126.30 92.84,126.30 94.33,126.30 95.83,126.30 97.32,126.30 98.82,126.30 100.32,126.30 101.81,126.30 103.31,126.30 104.81,126.30 106.30,126.24 107.80,125.46 109.29,124.73 110.79,124.44 112.29,123.01 113.78,123.01 115.28,123.01 116.77,123.01 118.27,123.01 119.77,123.01 121.26,123.01 122.76,123.01 124.25,123.01 125.75,123.01 127.25,123.01 128.74,123.01 130.24,122.90 131.74,122.90 133.23,122.90 134.73,122.77 136.22,122.77 137.72,122.77 139.22,122.77 140.71,122.73 142.21,122.73 143.70,122.73 145.20,122.73 146.70,122.71 148.19,122.71 149.69,122.71 151.18,122.71 152.68,122.71 154.18,122.71 155.67,122.71 157.17,122.71 158.66,122.71 160.16,122.71 161.66,122.71 163.15,122.71 164.65,122.71 166.15,122.71 167.64,122.71 169.14,122.71 170.63,122.71 172.13,122.71 173.63,122.71 175.12,122.71 176.62,122.71 178.11,122.71 179.61,122.71 181.11,122.67 182.60,122.67 184.10,122.67 185.59,122.67 187.09,122.67 188.59,122.67 190.08,122.67 191.58,122.67 193.08,122.67 194.57,122.67 196.07,122.67 197.56,122.67 199.06,122.67 200.56,122.67 202.05,122.67 203.55,122.64 205.04,122.31 206.54,122.22 208.04,122.08 209.53,121.90 211.03,121.84 212.52,121.84 214.02,121.84 215.52,121.56 217.01,121.53 218.51,121.35 220.01,121.29 221.50,121.17 223.00,120.72 224.49,120.70 225.99,120.63 227.49,120.62 228.98,120.55 230.48,120.55 231.97,120.53 233.47,120.53 234.97,120.53 236.46,120.53 237.96,120.53 239.45,120.53 240.95,120.53 242.45,120.39 243.94,119.97 245.44,119.66 246.94,119.57 248.43,119.38 249.93,119.37 251.42,119.34 252.92,119.33 254.42,119.33 255.91,119.33 257.41,119.24 258.90,119.15 260.40,119.12 261.90,119.10 263.39,119.07 264.89,118.77 266.38,118.57 267.88,118.26 269.38,118.06 270.87,117.92 272.37,117.86 273.86,117.78 275.36,117.77 276.86,117.70 278.35,117.51 279.85,117.51 281.35,117.51 282.84,117.50 284.34,117.48 285.83,117.48 287.33,117.38 288.83,117.35 290.32,117.34 291.82,117.33 293.31,117.30 294.81,117.30 296.31,117.30 297.80,117.30 299.30,117.30 300.79,117.30 302.29,117.30 303.79,117.30 305.28,117.26 306.78,117.22 308.28,117.22 309.77,116.99 311.27,116.98 312.76,116.97 314.26,116.93 315.76,116.81 317.25,116.53 318.75,116.48 320.24,116.48 321.74,116.48 323.24,116.48 324.73,116.48 326.23,116.48 327.72,116.48 329.22,116.48 330.72,116.48 332.21,116.48 333.71,116.48 335.21,116.48 336.70,116.48 338.20,116.46 339.69,116.39 341.19,116.37 342.69,116.37 344.18,116.37 345.68,116.37 347.17,116.32 348.67,116.32 350.17,116.11 351.66,115.92 353.16,115.92 354.65,115.92 356.15,115.92 357.65,115.92 359.14,115.89 360.64,115.89 362.14,115.87 363.63,115.78 365.13,115.70 366.62,115.35 368.12,115.34 369.62,114.81 371.11,114.50 372.61,114.27 374.10,113.53 375.60,113.34 377.10,113.26 378.59,113.02 380.09,112.64 381.58,112.55 383.08,112.42 384.58,112.22 386.07,112.04 387.57,111.96 389.06,111.83 390.56,111.74 392.06,111.51 393.55,111.30 395.05,111.06 396.55,110.66 398.04,110.42 399.54,109.27 401.03,108.41 402.53,107.86 404.03,107.38 405.52,106.85 407.02,106.85 408.51,106.85 410.01,106.85 411.51,106.51 413.00,106.32 414.50,105.62 415.99,104.84 417.49,103.92 418.99,102.54 420.48,101.57 421.98,99.58 423.48,98.38 424.97,97.58 426.47,96.29 427.96,95.47 429.46,93.83 430.96,91.35 432.45,90.60 433.95,89.63 435.44,88.70 436.94,88.39 438.44,87.21 439.93,87.00 441.43,85.58 442.92,84.29 444.42,83.52 445.92,82.64 447.41,81.48 448.91,81.17 450.41,81.06 451.90,80.94 453.40,80.86 454.89,80.12 456.39,79.17 457.89,78.01 459.38,77.68 460.88,76.74 462.37,75.53 463.87,73.12 465.37,71.33 466.86,69.14 468.36,68.56 469.85,67.40 471.35,65.24 472.85,64.02 474.34,63.35 475.84,62.40 477.34,61.78 478.83,60.89 480.33,60.48 481.82,59.58 483.32,57.86 484.82,55.96 486.31,55.38 487.81,54.40 489.30,52.83 490.80,51.90 492.30,50.02 493.79,49.02 495.29,47.09 496.78,45.12 498.28,43.06 499.78,39.56 501.27,37.43 502.77,35.39 504.26,34.26 505.76,32.58 507.26,31.15 508.75,30.66" />
    </svg>
  