
    <svg width="540" height="160" xmlns="http://www.w3.org/2000/svg">
      <style>.line{fill:none;stroke:#4ec9b0;stroke-width:1.5}.axis{stroke:#555;stroke-width:1;opacity:0.5}.label{fill:#999;font-family:sans-serif;font-size:10px;text-anchor:middle}</style>
      <line class="axis" x1="30" y1="30" x2="30" y2="130" />
      <line class="axis" x1="30" y1="130" x2="510" y2="130" />
      <text class="label" x="15" y="30">4,134</text>
      <text class="label" x="15" y="134">0</text>
      <text class="label" x="30" y="148">2021</text>
      <text class="label" x="510" y="148">2026</text>
      <polyline class="line" points="30.00,129.95 31.53,129.93 33.06,129.90 34.59,129.90 36.12,129.90 37.65,129.59 39.18,129.59 40.71,129.59 42.24,127.85 43.77,124.97 45.30,124.82 46.83,124.82 48.36,124.82 49.89,124.82 51.42,124.82 52.95,124.82 54.48,124.82 56.01,124.82 57.55,124.82 59.08,124.82 60.61,124.82 62.14,124.82 63.67,124.82 65.20,124.82 66.73,124.82 68.26,124.82 69.79,124.82 71.32,123.18 72.85,123.18 74.38,123.15 75.91,123.15 77.44,123.15 78.97,123.15 80.50,123.06 82.03,123.06 83.56,123.06 85.09,123.06 86.62,123.06 88.15,123.06 89.68,123.06 91.21,123.06 92.74,123.06 94.27,123.06 95.80,123.06 97.33,123.06 98.86,123.06 100.39,123.06 101.92,123.06 103.45,123.06 104.98,123.06 106.51,123.06 108.04,122.96 109.57,121.49 111.11,120.13 112.64,119.57 114.17,116.89 115.70,116.89 117.23,116.89 118.76,116.89 120.29,116.89 121.82,116.89 123.35,116.89 124.88,116.89 126.41,116.89 127.94,116.89 129.47,116.89 131.00,116.89 132.53,116.70 134.06,116.70 135.59,116.70 137.12,116.45 138.65,116.45 140.18,116.45 141.71,116.45 143.24,116.38 144.77,116.38 146.30,116.38 147.83,116.38 149.36,116.33 150.89,116.33 152.42,116.33 153.95,116.33 155.48,116.33 157.01,116.33 158.54,116.33 160.07,116.33 161.60,116.33 163.13,116.33 164.67,116.33 166.20,116.33 167.73,116.33 169.26,116.33 170.79,116.33 172.32,116.33 173.85,116.33 175.38,116.33 176.91,116.33 178.44,116.33 179.97,116.33 181.50,116.33 183.03,116.33 184.56,116.26 186.09,116.26 187.62,116.26 189.15,116.26 190.68,116.26 192.21,116.26 193.74,116.26 195.27,116.26 196.80,116.26 198.33,116.26 199.86,116.26 201.39,116.26 202.92,116.26 204.45,116.26 205.98,116.26 207.51,116.21 209.04,115.58 210.57,115.41 212.10,115.15 213.63,114.81 215.16,114.71 216.70,114.71 218.23,114.71 219.76,114.18 221.29,114.13 222.82,113.79 224.35,113.67 225.88,113.45 227.41,112.61 228.94,112.56 230.47,112.44 232.00,112.41 233.53,112.29 235.06,112.29 236.59,112.24 238.12,112.24 239.65,112.24 241.18,112.24 242.71,112.24 244.24,112.24 245.77,112.24 247.30,111.98 248.83,111.20 250.36,110.62 251.89,110.45 253.42,110.09 254.95,110.07 256.48,110.02 258.01,110.00 259.54,110.00 261.07,110.00 262.60,109.83 264.13,109.66 265.66,109.61 267.19,109.56 268.72,109.51 270.26,108.96 271.79,108.57 273.32,107.99 274.85,107.62 276.38,107.36 277.91,107.24 279.44,107.09 280.97,107.07 282.50,106.95 284.03,106.58 285.56,106.58 287.09,106.58 288.62,106.56 290.15,106.54 291.68,106.54 293.21,106.34 294.74,106.29 296.27,106.27 297.80,106.25 299.33,106.20 300.86,106.20 302.39,106.20 303.92,106.20 305.45,106.20 306.98,106.20 308.51,106.20 310.04,106.20 311.57,106.12 313.10,106.05 314.63,106.05 316.16,105.62 317.69,105.59 319.22,105.57 320.75,105.50 322.28,105.28 323.82,104.75 325.35,104.65 326.88,104.65 328.41,104.65 329.94,104.65 331.47,104.65 333.00,104.65 334.53,104.65 336.06,104.65 337.59,104.65 339.12,104.65 340.65,104.65 342.18,104.65 343.71,104.65 345.24,104.63 346.77,104.48 348.30,104.46 349.83,104.46 351.36,104.46 352.89,104.46 354.42,104.36 355.95,104.36 357.48,103.97 359.01,103.61 360.54,103.61 362.07,103.61 363.60,103.61 365.13,103.61 366.66,103.56 368.19,103.56 369.72,103.51 371.25,103.34 372.78,103.20 374.31,102.54 375.84,102.52 377.38,101.53 378.91,100.95 380.44,100.51 381.97,99.13 383.50,98.92 385.03,98.87 386.56,98.87 388.09,98.87 389.62,98.87 391.15,98.82 392.68,98.70 394.21,98.70 395.74,98.70 397.27,98.70 398.80,98.70 400.33,98.70 401.86,98.65 403.39,98.60 404.92,98.60 406.45,98.60 407.98,98.55 409.51,98.55 411.04,98.36 412.57,98.26 414.10,98.26 415.63,98.26 417.16,98.26 418.69,98.26 420.22,98.26 421.75,98.26 423.28,97.73 424.81,97.17 426.34,96.72 427.87,96.09 429.40,95.36 430.94,93.64 432.47,92.58 434.00,91.83 435.53,90.60 437.06,89.63 438.59,87.98 440.12,85.61 441.65,84.91 443.18,83.89 444.71,83.02 446.24,82.73 447.77,81.62 449.30,81.43 450.83,80.10 452.36,78.89 453.89,78.16 455.42,77.31 456.95,76.15 458.48,75.82 460.01,75.65 461.54,75.48 463.07,75.33 464.60,74.41 466.13,73.37 467.66,71.73 469.19,71.24 470.72,70.40 472.25,69.02 473.78,65.95 475.31,63.62 476.84,61.04 478.37,60.48 479.90,59.34 481.43,57.04 482.96,55.64 484.50,54.87 486.03,53.71 487.56,53.10 489.09,52.25 490.62,51.87 492.15,50.56 493.68,48.60 495.21,46.74 496.74,46.18 498.27,45.22 499.80,43.47 501.33,42.17 502.86,40.23 504.39,39.24 505.92,37.26 507.45,34.62 508.98,32.37" />
    </svg>
  