
    <svg width="540" height="160" xmlns="http://www.w3.org/2000/svg">
      <style>.line{fill:none;stroke:#388bfd;stroke-width:1.5}.axis{stroke:#555;stroke-width:1;opacity:0.5}.label{fill:#999;font-family:sans-serif;font-size:10px;text-anchor:middle}</style>
      <line class="axis" x1="30" y1="30" x2="30" y2="130" />
      <line class="axis" x1="30" y1="130" x2="510" y2="130" />
      <text class="label" x="15" y="30">8,366</text>
      <text class="label" x="15" y="134">0</text>
      <text class="label" x="30" y="148">2021</text>
      <text class="label" x="510" y="148">2026</text>
      <polyline class="line" points="30.00,129.98 31.48,129.96 32.96,129.95 34.43,129.95 35.91,129.95 37.39,129.80 38.87,129.80 40.34,129.80 41.82,128.94 43.30,127.51 44.78,127.44 46.25,127.44 47.73,127.44 49.21,127.44 50.69,127.44 52.17,127.44 53.64,127.44 55.12,127.44 56.60,127.44 58.08,127.44 59.55,127.44 61.03,127.44 62.51,127.44 63.99,127.44 65.46,127.44 66.94,127.44 68.42,127.44 69.90,126.63 71.38,126.63 72.85,126.62 74.33,126.62 75.81,126.62 77.29,126.62 78.76,126.57 80.24,126.57 81.72,126.57 83.20,126.57 84.67,126.57 86.15,126.57 87.63,126.57 89.11,126.57 90.58,126.57 92.06,126.57 93.54,126.57 95.02,126.57 96.50,126.57 97.97,126.57 99.45,126.57 100.93,126.57 102.41,126.57 103.88,126.57 105.36,126.52 106.84,125.79 108.32,125.12 109.79,124.85 111.27,123.52 112.75,123.52 114.23,123.52 115.71,123.52 117.18,123.52 118.66,123.52 120.14,123.52 121.62,123.52 123.09,123.52 124.57,123.52 126.05,123.52 127.53,123.52 129.00,123.43 130.48,123.43 131.96,123.43 133.44,123.31 134.92,123.31 136.39,123.31 137.87,123.31 139.35,123.27 140.83,123.27 142.30,123.27 143.78,123.27 145.26,123.25 146.74,123.25 148.21,123.25 149.69,123.25 151.17,123.25 152.65,123.25 154.13,123.25 155.60,123.25 157.08,123.25 158.56,123.25 160.04,123.25 161.51,123.25 162.99,123.25 164.47,123.25 165.95,123.25 167.42,123.25 168.90,123.25 170.38,123.25 171.86,123.25 173.34,123.25 174.81,123.25 176.29,123.25 177.77,123.25 179.25,123.21 180.72,123.21 182.20,123.21 183.68,123.21 185.16,123.21 186.63,123.21 188.11,123.21 189.59,123.21 191.07,123.21 192.54,123.21 194.02,123.21 195.50,123.21 196.98,123.21 198.46,123.21 199.93,123.21 201.41,123.19 202.89,122.88 204.37,122.79 205.84,122.66 207.32,122.49 208.80,122.45 210.28,122.45 211.75,122.45 213.23,122.18 214.71,122.16 216.19,121.99 217.67,121.93 219.14,121.82 220.62,121.41 222.10,121.38 223.58,121.32 225.05,121.31 226.53,121.25 228.01,121.25 229.49,121.23 230.96,121.23 232.44,121.23 233.92,121.23 235.40,121.23 236.88,121.23 238.35,121.23 239.83,121.09 241.31,120.71 242.79,120.43 244.26,120.34 245.74,120.16 247.22,120.15 248.70,120.13 250.17,120.11 251.65,120.11 253.13,120.11 254.61,120.03 256.09,119.95 257.56,119.92 259.04,119.90 260.52,119.88 262.00,119.60 263.47,119.41 264.95,119.12 266.43,118.94 267.91,118.81 269.38,118.75 270.86,118.68 272.34,118.67 273.82,118.61 275.30,118.43 276.77,118.43 278.25,118.43 279.73,118.42 281.21,118.41 282.68,118.41 284.16,118.31 285.64,118.29 287.12,118.27 288.59,118.26 290.07,118.24 291.55,118.24 293.03,118.24 294.50,118.24 295.98,118.24 297.46,118.24 298.94,118.24 300.42,118.24 301.89,118.20 303.37,118.17 304.85,118.17 306.33,117.95 307.80,117.94 309.28,117.93 310.76,117.89 312.24,117.78 313.71,117.52 315.19,117.47 316.67,117.47 318.15,117.47 319.63,117.47 321.10,117.47 322.58,117.47 324.06,117.47 325.54,117.47 327.01,117.47 328.49,117.47 329.97,117.47 331.45,117.47 332.92,117.47 334.40,117.46 335.88,117.39 337.36,117.38 338.84,117.38 340.31,117.38 341.79,117.38 343.27,117.33 344.75,117.33 346.22,117.14 347.70,116.96 349.18,116.96 350.66,116.96 352.13,116.96 353.61,116.96 355.09,116.94 356.57,116.94 358.05,116.91 359.52,116.83 361.00,116.76 362.48,116.43 363.96,116.42 365.43,115.93 366.91,115.64 368.39,115.43 369.87,114.75 371.34,114.57 372.82,114.50 374.30,114.27 375.78,113.92 377.26,113.84 378.73,113.72 380.21,113.53 381.69,113.36 383.17,113.29 384.64,113.17 386.12,113.09 387.60,112.87 389.08,112.68 390.55,112.45 392.03,112.08 393.51,111.87 394.99,110.80 396.46,110.00 397.94,109.49 399.42,109.05 400.90,108.56 402.38,108.56 403.85,108.56 405.33,108.56 406.81,108.25 408.29,108.07 409.76,107.42 411.24,106.69 412.72,105.84 414.20,104.56 415.67,103.67 417.15,101.83 418.63,100.71 420.11,99.97 421.59,98.78 423.06,98.01 424.54,96.50 426.02,94.20 427.50,93.51 428.97,92.61 430.45,91.75 431.93,91.46 433.41,90.36 434.88,90.17 436.36,88.86 437.84,87.66 439.32,86.94 440.80,86.13 442.27,85.06 443.75,84.77 445.23,84.67 446.71,84.55 448.18,84.48 449.66,83.80 451.14,82.92 452.62,81.84 454.09,81.54 455.57,80.67 457.05,79.55 458.53,77.31 460.01,75.66 461.48,73.63 462.96,73.09 464.44,72.02 465.92,70.02 467.39,68.88 468.87,68.26 470.35,67.39 471.83,66.82 473.30,65.99 474.78,65.61 476.26,64.77 477.74,63.18 479.21,61.42 480.69,60.89 482.17,59.89 483.65,58.08 485.13,57.15 486.60,54.89 488.08,53.81 489.56,51.85 491.04,49.94 492.51,47.63 493.99,44.16 495.47,41.87 496.95,39.90 498.42,38.63 499.90,36.99 501.38,35.52 502.86,34.81 504.34,33.61 505.81,32.16 507.29,31.60 508.77,30.54" />
    </svg>
  