
    <svg width="540" height="160" xmlns="http://www.w3.org/2000/svg">
      <style>.line{fill:none;stroke:#388bfd;stroke-width:1.5}.axis{stroke:#555;stroke-width:1;opacity:0.5}.label{fill:#999;font-family:sans-serif;font-size:10px;text-anchor:middle}</style>
      <line class="axis" x1="30" y1="30" x2="30" y2="130" />
      <line class="axis" x1="30" y1="130" x2="510" y2="130" />
      <text class="label" x="15" y="30">9,226</text>
      <text class="label" x="15" y="134">0</text>
      <text class="label" x="30" y="148">2021</text>
      <text class="label" x="510" y="148">2026</text>
      <polyline class="line" points="30.00,129.98 31.45,129.97 32.90,129.96 34.35,129.96 35.81,129.96 37.26,129.82 38.71,129.82 40.16,129.82 41.61,129.04 43.06,127.75 44.52,127.68 45.97,127.68 47.42,127.68 48.87,127.68 50.32,127.68 51.77,127.68 53.23,127.68 54.68,127.68 56.13,127.68 57.58,127.68 59.03,127.68 60.48,127.68 61.94,127.68 63.39,127.68 64.84,127.68 66.29,127.68 67.74,127.68 69.19,126.94 70.65,126.94 72.10,126.93 73.55,126.93 75.00,126.93 76.45,126.93 77.90,126.89 79.35,126.89 80.81,126.89 82.26,126.89 83.71,126.89 85.16,126.89 86.61,126.89 88.06,126.89 89.52,126.89 90.97,126.89 92.42,126.89 93.87,126.89 95.32,126.89 96.77,126.89 98.23,126.89 99.68,126.89 101.13,126.89 102.58,126.89 104.03,126.85 105.48,126.18 106.94,125.58 108.39,125.33 109.84,124.13 111.29,124.13 112.74,124.13 114.19,124.13 115.65,124.13 117.10,124.13 118.55,124.13 120.00,124.13 121.45,124.13 122.90,124.13 124.35,124.13 125.81,124.13 127.26,124.04 128.71,124.04 130.16,124.04 131.61,123.93 133.06,123.93 134.52,123.93 135.97,123.93 137.42,123.90 138.87,123.90 140.32,123.90 141.77,123.90 143.23,123.88 144.68,123.88 146.13,123.88 147.58,123.88 149.03,123.88 150.48,123.88 151.94,123.88 153.39,123.88 154.84,123.88 156.29,123.88 157.74,123.88 159.19,123.88 160.65,123.88 162.10,123.88 163.55,123.88 165.00,123.88 166.45,123.88 167.90,123.88 169.35,123.88 170.81,123.88 172.26,123.88 173.71,123.88 175.16,123.88 176.61,123.84 178.06,123.84 179.52,123.84 180.97,123.84 182.42,123.84 183.87,123.84 185.32,123.84 186.77,123.84 188.23,123.84 189.68,123.84 191.13,123.84 192.58,123.84 194.03,123.84 195.48,123.84 196.94,123.84 198.39,123.82 199.84,123.54 201.29,123.46 202.74,123.34 204.19,123.19 205.65,123.15 207.10,123.15 208.55,123.15 210.00,122.91 211.45,122.89 212.90,122.74 214.35,122.68 215.81,122.59 217.26,122.21 218.71,122.19 220.16,122.13 221.61,122.12 223.06,122.07 224.52,122.07 225.97,122.04 227.42,122.04 228.87,122.04 230.32,122.04 231.77,122.04 233.23,122.04 234.68,122.04 236.13,121.92 237.58,121.58 239.03,121.32 240.48,121.24 241.94,121.08 243.39,121.07 244.84,121.05 246.29,121.04 247.74,121.04 249.19,121.04 250.65,120.96 252.10,120.88 253.55,120.86 255.00,120.84 256.45,120.82 257.90,120.57 259.35,120.40 260.81,120.14 262.26,119.97 263.71,119.85 265.16,119.80 266.61,119.74 268.06,119.72 269.52,119.67 270.97,119.51 272.42,119.51 273.87,119.51 275.32,119.50 276.77,119.49 278.23,119.49 279.68,119.40 281.13,119.38 282.58,119.37 284.03,119.36 285.48,119.33 286.94,119.33 288.39,119.33 289.84,119.33 291.29,119.33 292.74,119.33 294.19,119.33 295.65,119.33 297.10,119.30 298.55,119.27 300.00,119.27 301.45,119.07 302.90,119.06 304.35,119.05 305.81,119.02 307.26,118.92 308.71,118.68 310.16,118.64 311.61,118.64 313.06,118.64 314.52,118.64 315.97,118.64 317.42,118.64 318.87,118.64 320.32,118.64 321.77,118.64 323.23,118.64 324.68,118.64 326.13,118.64 327.58,118.64 329.03,118.63 330.48,118.56 331.94,118.55 333.39,118.55 334.84,118.55 336.29,118.55 337.74,118.51 339.19,118.51 340.65,118.34 342.10,118.17 343.55,118.17 345.00,118.17 346.45,118.17 347.90,118.17 349.35,118.15 350.81,118.15 352.26,118.13 353.71,118.06 355.16,117.99 356.61,117.70 358.06,117.69 359.52,117.24 360.97,116.98 362.42,116.79 363.87,116.17 365.32,116.01 366.77,115.94 368.23,115.74 369.68,115.42 371.13,115.35 372.58,115.24 374.03,115.06 375.48,114.91 376.94,114.85 378.39,114.74 379.84,114.66 381.29,114.47 382.74,114.29 384.19,114.09 385.65,113.75 387.10,113.56 388.55,112.59 390.00,111.87 391.45,111.40 392.90,111.00 394.35,110.55 395.81,110.55 397.26,110.55 398.71,110.55 400.16,110.27 401.61,110.11 403.06,109.53 404.52,108.86 405.97,108.09 407.42,106.93 408.87,106.12 410.32,104.45 411.77,103.44 413.23,102.77 414.68,101.69 416.13,101.00 417.58,99.62 419.03,97.54 420.48,96.91 421.94,96.10 423.39,95.32 424.84,95.06 426.29,94.06 427.74,93.88 429.19,92.69 430.65,91.61 432.10,90.96 433.55,90.22 435.00,89.25 436.45,88.99 437.90,88.90 439.35,88.79 440.81,88.73 442.26,88.11 443.71,87.31 445.16,86.33 446.61,86.06 448.06,85.27 449.52,84.25 450.97,82.22 452.42,80.73 453.87,78.88 455.32,78.40 456.77,77.42 458.23,75.61 459.68,74.58 461.13,74.02 462.58,73.23 464.03,72.71 465.48,71.96 466.94,71.61 468.39,70.85 469.84,69.41 471.29,67.82 472.74,67.33 474.19,66.43 475.65,64.78 477.10,63.94 478.55,61.89 480.00,60.91 481.45,59.14 482.90,57.40 484.35,55.31 485.81,52.17 487.26,50.08 488.71,48.30 490.16,47.15 491.61,45.66 493.06,44.33 494.52,43.68 495.97,42.59 497.42,41.28 498.87,40.55 500.32,39.42 501.77,38.56 503.23,37.75 504.68,36.53 506.13,34.29 507.58,32.56 509.03,31.05" />
    </svg>
  