
    <svg width="540" height="160" xmlns="http://www.w3.org/2000/svg">
      <style>.line{fill:none;stroke:#388bfd;stroke-width:1.5}.axis{stroke:#555;stroke-width:1;opacity:0.5}.label{fill:#999;font-family:sans-serif;font-size:10px;text-anchor:middle}</style>
      <line class="axis" x1="30" y1="30" x2="30" y2="130" />
      <line class="axis" x1="30" y1="130" x2="510" y2="130" />
      <text class="label" x="15" y="30">9,424</text>
      <text class="label" x="15" y="134">0</text>
      <text class="label" x="30" y="148">2021</text>
      <text class="label" x="510" y="148">2026</text>
      <polyline class="line" points="30.00,129.98 31.44,129.97 32.87,129.96 34.31,129.96 35.74,129.96 37.18,129.82 38.61,129.82 40.05,129.82 41.49,129.06 42.92,127.79 44.36,127.73 45.79,127.73 47.23,127.73 48.66,127.73 50.10,127.73 51.54,127.73 52.97,127.73 54.41,127.73 55.84,127.73 57.28,127.73 58.71,127.73 60.15,127.73 61.59,127.73 63.02,127.73 64.46,127.73 65.89,127.73 67.33,127.73 68.76,127.01 70.20,127.01 71.64,127.00 73.07,127.00 74.51,127.00 75.94,127.00 77.38,126.95 78.81,126.95 80.25,126.95 81.68,126.95 83.12,126.95 84.56,126.95 85.99,126.95 87.43,126.95 88.86,126.95 90.30,126.95 91.73,126.95 93.17,126.95 94.61,126.95 96.04,126.95 97.48,126.95 98.91,126.95 100.35,126.95 101.78,126.95 103.22,126.91 104.66,126.26 106.09,125.67 107.53,125.43 108.96,124.25 110.40,124.25 111.83,124.25 113.27,124.25 114.71,124.25 116.14,124.25 117.58,124.25 119.01,124.25 120.45,124.25 121.88,124.25 123.32,124.25 124.76,124.25 126.19,124.16 127.63,124.16 129.06,124.16 130.50,124.06 131.93,124.06 133.37,124.06 134.81,124.06 136.24,124.03 137.68,124.03 139.11,124.03 140.55,124.03 141.98,124.00 143.42,124.00 144.86,124.00 146.29,124.00 147.73,124.00 149.16,124.00 150.60,124.00 152.03,124.00 153.47,124.00 154.91,124.00 156.34,124.00 157.78,124.00 159.21,124.00 160.65,124.00 162.08,124.00 163.52,124.00 164.96,124.00 166.39,124.00 167.83,124.00 169.26,124.00 170.70,124.00 172.13,124.00 173.57,124.00 175.00,123.97 176.44,123.97 177.88,123.97 179.31,123.97 180.75,123.97 182.18,123.97 183.62,123.97 185.05,123.97 186.49,123.97 187.93,123.97 189.36,123.97 190.80,123.97 192.23,123.97 193.67,123.97 195.10,123.97 196.54,123.95 197.98,123.68 199.41,123.60 200.85,123.48 202.28,123.34 203.72,123.29 205.15,123.29 206.59,123.29 208.03,123.06 209.46,123.04 210.90,122.89 212.33,122.84 213.77,122.74 215.20,122.37 216.64,122.35 218.08,122.30 219.51,122.29 220.95,122.23 222.38,122.23 223.82,122.21 225.25,122.21 226.69,122.21 228.13,122.21 229.56,122.21 231.00,122.21 232.43,122.21 233.87,122.09 235.30,121.76 236.74,121.50 238.18,121.43 239.61,121.27 241.05,121.26 242.48,121.24 243.92,121.22 245.35,121.22 246.79,121.22 248.23,121.15 249.66,121.08 251.10,121.05 252.53,121.03 253.97,121.01 255.40,120.77 256.84,120.60 258.28,120.34 259.71,120.18 261.15,120.07 262.58,120.01 264.02,119.95 265.45,119.94 266.89,119.89 268.33,119.73 269.76,119.73 271.20,119.73 272.63,119.72 274.07,119.71 275.50,119.71 276.94,119.62 278.37,119.60 279.81,119.59 281.25,119.58 282.68,119.56 284.12,119.56 285.55,119.56 286.99,119.56 288.42,119.56 289.86,119.56 291.30,119.56 292.73,119.56 294.17,119.53 295.60,119.49 297.04,119.49 298.47,119.30 299.91,119.29 301.35,119.28 302.78,119.25 304.22,119.16 305.65,118.92 307.09,118.88 308.52,118.88 309.96,118.88 311.40,118.88 312.83,118.88 314.27,118.88 315.70,118.88 317.14,118.88 318.57,118.88 320.01,118.88 321.45,118.88 322.88,118.88 324.32,118.88 325.75,118.87 327.19,118.81 328.62,118.79 330.06,118.79 331.50,118.79 332.93,118.79 334.37,118.75 335.80,118.75 337.24,118.58 338.67,118.42 340.11,118.42 341.55,118.42 342.98,118.42 344.42,118.42 345.85,118.40 347.29,118.40 348.72,118.38 350.16,118.31 351.60,118.24 353.03,117.96 354.47,117.95 355.90,117.51 357.34,117.26 358.77,117.06 360.21,116.46 361.65,116.30 363.08,116.24 364.52,116.04 365.95,115.73 367.39,115.65 368.82,115.55 370.26,115.38 371.69,115.23 373.13,115.17 374.57,115.06 376.00,114.99 377.44,114.79 378.87,114.62 380.31,114.42 381.74,114.09 383.18,113.90 384.62,112.96 386.05,112.25 387.49,111.79 388.92,111.40 390.36,110.96 391.79,110.96 393.23,110.96 394.67,110.96 396.10,110.69 397.54,110.53 398.97,109.96 400.41,109.31 401.84,108.55 403.28,107.42 404.72,106.62 406.15,104.99 407.59,104.00 409.02,103.34 410.46,102.28 411.89,101.60 413.33,100.26 414.77,98.22 416.20,97.60 417.64,96.81 419.07,96.04 420.51,95.79 421.94,94.81 423.38,94.64 424.82,93.48 426.25,92.42 427.69,91.78 429.12,91.06 430.56,90.10 431.99,89.85 433.43,89.76 434.87,89.66 436.30,89.59 437.74,88.99 439.17,88.20 440.61,87.25 442.04,86.98 443.48,86.21 444.92,85.21 446.35,83.23 447.79,81.76 449.22,79.96 450.66,79.48 452.09,78.53 453.53,76.75 454.97,75.74 456.40,75.19 457.84,74.42 459.27,73.91 460.71,73.18 462.14,72.84 463.58,72.09 465.01,70.68 466.45,69.12 467.89,68.65 469.32,67.77 470.76,66.15 472.19,65.32 473.63,63.32 475.06,62.36 476.50,60.62 477.94,58.93 479.37,56.88 480.81,53.80 482.24,51.76 483.68,50.01 485.11,48.89 486.55,47.43 487.99,46.13 489.42,45.49 490.86,44.43 492.29,43.15 493.73,42.43 495.16,41.32 496.60,40.48 498.04,39.69 499.47,38.49 500.91,36.30 502.34,34.55 503.78,33.08 505.21,31.86 506.65,31.41 508.09,30.84 509.52,30.37" />
    </svg>
  