
    <svg width="540" height="160" xmlns="http://www.w3.org/2000/svg">
      <style>.line{fill:none;stroke:#388bfd;stroke-width:1.5}.axis{stroke:#555;stroke-width:1;opacity:0.5}.label{fill:#999;font-family:sans-serif;font-size:10px;text-anchor:middle}</style>
      <line class="axis" x1="30" y1="30" x2="30" y2="130" />
      <line class="axis" x1="30" y1="130" x2="510" y2="130" />
      <text class="label" x="15" y="30">9,217</text>
      <text class="label" x="15" y="134">0</text>
      <text class="label" x="30" y="148">2021</text>
      <text class="label" x="510" y="148">2026</text>
      <polyline class="line" points="30.00,129.98 31.45,129.97 32.90,129.96 34.35,129.96 35.81,129.96 37.26,129.82 38.71,129.82 40.16,129.82 41.61,129.03 43.06,127.74 44.52,127.68 45.97,127.68 47.42,127.68 48.87,127.68 50.32,127.68 51.77,127.68 53.23,127.68 54.68,127.68 56.13,127.68 57.58,127.68 59.03,127.68 60.48,127.68 61.94,127.68 63.39,127.68 64.84,127.68 66.29,127.68 67.74,127.68 69.19,126.94 70.65,126.94 72.10,126.93 73.55,126.93 75.00,126.93 76.45,126.93 77.90,126.89 79.35,126.89 80.81,126.89 82.26,126.89 83.71,126.89 85.16,126.89 86.61,126.89 88.06,126.89 89.52,126.89 90.97,126.89 92.42,126.89 93.87,126.89 95.32,126.89 96.77,126.89 98.23,126.89 99.68,126.89 101.13,126.89 102.58,126.89 104.03,126.84 105.48,126.18 106.94,125.57 108.39,125.32 109.84,124.12 111.29,124.12 112.74,124.12 114.19,124.12 115.65,124.12 117.10,124.12 118.55,124.12 120.00,124.12 121.45,124.12 122.90,124.12 124.35,124.12 125.81,124.12 127.26,124.03 128.71,124.03 130.16,124.03 131.61,123.92 133.06,123.92 134.52,123.92 135.97,123.92 137.42,123.89 138.87,123.89 140.32,123.89 141.77,123.89 143.23,123.87 144.68,123.87 146.13,123.87 147.58,123.87 149.03,123.87 150.48,123.87 151.94,123.87 153.39,123.87 154.84,123.87 156.29,123.87 157.74,123.87 159.19,123.87 160.65,123.87 162.10,123.87 163.55,123.87 165.00,123.87 166.45,123.87 167.90,123.87 169.35,123.87 170.81,123.87 172.26,123.87 173.71,123.87 175.16,123.87 176.61,123.84 178.06,123.84 179.52,123.84 180.97,123.84 182.42,123.84 183.87,123.84 185.32,123.84 186.77,123.84 188.23,123.84 189.68,123.84 191.13,123.84 192.58,123.84 194.03,123.84 195.48,123.84 196.94,123.84 198.39,123.82 199.84,123.53 201.29,123.46 202.74,123.34 204.19,123.19 205.65,123.14 207.10,123.14 208.55,123.14 210.00,122.90 211.45,122.88 212.90,122.73 214.35,122.68 215.81,122.58 217.26,122.20 218.71,122.18 220.16,122.12 221.61,122.11 223.06,122.06 224.52,122.06 225.97,122.04 227.42,122.04 228.87,122.04 230.32,122.04 231.77,122.04 233.23,122.04 234.68,122.04 236.13,121.92 237.58,121.57 239.03,121.31 240.48,121.23 241.94,121.07 243.39,121.06 244.84,121.04 246.29,121.03 247.74,121.03 249.19,121.03 250.65,120.95 252.10,120.88 253.55,120.85 255.00,120.83 256.45,120.81 257.90,120.56 259.35,120.39 260.81,120.13 262.26,119.96 263.71,119.84 265.16,119.79 266.61,119.73 268.06,119.71 269.52,119.66 270.97,119.50 272.42,119.50 273.87,119.50 275.32,119.49 276.77,119.48 278.23,119.48 279.68,119.39 281.13,119.37 282.58,119.36 284.03,119.35 285.48,119.32 286.94,119.32 288.39,119.32 289.84,119.32 291.29,119.32 292.74,119.32 294.19,119.32 295.65,119.32 297.10,119.29 298.55,119.26 300.00,119.26 301.45,119.06 302.90,119.05 304.35,119.04 305.81,119.01 307.26,118.91 308.71,118.67 310.16,118.63 311.61,118.63 313.06,118.63 314.52,118.63 315.97,118.63 317.42,118.63 318.87,118.63 320.32,118.63 321.77,118.63 323.23,118.63 324.68,118.63 326.13,118.63 327.58,118.63 329.03,118.62 330.48,118.55 331.94,118.54 333.39,118.54 334.84,118.54 336.29,118.54 337.74,118.50 339.19,118.50 340.65,118.33 342.10,118.16 343.55,118.16 345.00,118.16 346.45,118.16 347.90,118.16 349.35,118.14 350.81,118.14 352.26,118.12 353.71,118.04 355.16,117.98 356.61,117.69 358.06,117.67 359.52,117.23 360.97,116.97 362.42,116.77 363.87,116.16 365.32,115.99 366.77,115.93 368.23,115.72 369.68,115.41 371.13,115.33 372.58,115.22 374.03,115.05 375.48,114.90 376.94,114.83 378.39,114.72 379.84,114.65 381.29,114.45 382.74,114.28 384.19,114.07 385.65,113.74 387.10,113.54 388.55,112.58 390.00,111.85 391.45,111.38 392.90,110.98 394.35,110.54 395.81,110.54 397.26,110.54 398.71,110.54 400.16,110.25 401.61,110.09 403.06,109.51 404.52,108.84 405.97,108.07 407.42,106.91 408.87,106.10 410.32,104.43 411.77,103.42 413.23,102.75 414.68,101.66 416.13,100.97 417.58,99.59 419.03,97.51 420.48,96.88 421.94,96.06 423.39,95.28 424.84,95.02 426.29,94.02 427.74,93.85 429.19,92.66 430.65,91.57 432.10,90.92 433.55,90.18 435.00,89.21 436.45,88.95 437.90,88.86 439.35,88.75 440.81,88.69 442.26,88.07 443.71,87.26 445.16,86.29 446.61,86.02 448.06,85.22 449.52,84.20 450.97,82.18 452.42,80.68 453.87,78.83 455.32,78.35 456.77,77.37 458.23,75.56 459.68,74.53 461.13,73.96 462.58,73.17 464.03,72.65 465.48,71.90 466.94,71.55 468.39,70.79 469.84,69.35 471.29,67.76 472.74,67.27 474.19,66.37 475.65,64.72 477.10,63.87 478.55,61.82 480.00,60.85 481.45,59.07 482.90,57.33 484.35,55.24 485.81,52.09 487.26,50.01 488.71,48.22 490.16,47.07 491.61,45.58 493.06,44.25 494.52,43.59 495.97,42.51 497.42,41.20 498.87,40.46 500.32,39.33 501.77,38.47 503.23,37.66 504.68,36.43 506.13,34.20 507.58,32.46 509.03,30.95" />
    </svg>
  