
    <svg width="540" height="160" xmlns="http://www.w3.org/2000/svg">
      <style>.line{fill:none;stroke:#388bfd;stroke-width:1.5}.axis{stroke:#555;stroke-width:1;opacity:0.5}.label{fill:#999;font-family:sans-serif;font-size:10px;text-anchor:middle}</style>
      <line class="axis" x1="30" y1="30" x2="30" y2="130" />
      <line class="axis" x1="30" y1="130" x2="510" y2="130" />
      <text class="label" x="15" y="30">7,763</text>
      <text class="label" x="15" y="134">0</text>
      <text class="label" x="30" y="148">2021</text>
      <text class="label" x="510" y="148">2026</text>
      <polyline class="line" points="30.00,129.97 31.49,129.96 32.99,129.95 34.48,129.95 35.98,129.95 37.47,129.78 38.97,129.78 40.46,129.78 41.96,128.85 43.45,127.32 44.95,127.24 46.44,127.24 47.93,127.24 49.43,127.24 50.92,127.24 52.42,127.24 53.91,127.24 55.41,127.24 56.90,127.24 58.40,127.24 59.89,127.24 61.39,127.24 62.88,127.24 64.37,127.24 65.87,127.24 67.36,127.24 68.86,127.24 70.35,126.37 71.85,126.37 73.34,126.35 74.84,126.35 76.33,126.35 77.83,126.35 79.32,126.30 80.81,126.30 82.31,126.30 83.80,126.30 85.30,126.30 86.79,126.30 88.29,126.30 89.78,126.30 91.28,126.30 92.77,126.30 94.27,126.30 95.76,126.30 97.25,126.30 98.75,126.30 100.24,126.30 101.74,126.30 103.23,126.30 104.73,126.30 106.22,126.25 107.72,125.47 109.21,124.74 110.71,124.45 112.20,123.02 113.69,123.02 115.19,123.02 116.68,123.02 118.18,123.02 119.67,123.02 121.17,123.02 122.66,123.02 124.16,123.02 125.65,123.02 127.15,123.02 128.64,123.02 130.13,122.92 131.63,122.92 133.12,122.92 134.62,122.79 136.11,122.79 137.61,122.79 139.10,122.79 140.60,122.75 142.09,122.75 143.59,122.75 145.08,122.75 146.57,122.72 148.07,122.72 149.56,122.72 151.06,122.72 152.55,122.72 154.05,122.72 155.54,122.72 157.04,122.72 158.53,122.72 160.03,122.72 161.52,122.72 163.02,122.72 164.51,122.72 166.00,122.72 167.50,122.72 168.99,122.72 170.49,122.72 171.98,122.72 173.48,122.72 174.97,122.72 176.47,122.72 177.96,122.72 179.46,122.72 180.95,122.68 182.44,122.68 183.94,122.68 185.43,122.68 186.93,122.68 188.42,122.68 189.92,122.68 191.41,122.68 192.91,122.68 194.40,122.68 195.90,122.68 197.39,122.68 198.88,122.68 200.38,122.68 201.87,122.68 203.37,122.66 204.86,122.32 206.36,122.23 207.85,122.09 209.35,121.91 210.84,121.86 212.34,121.86 213.83,121.86 215.32,121.58 216.82,121.55 218.31,121.37 219.81,121.30 221.30,121.19 222.80,120.74 224.29,120.71 225.79,120.65 227.28,120.64 228.78,120.57 230.27,120.57 231.76,120.54 233.26,120.54 234.75,120.54 236.25,120.54 237.74,120.54 239.24,120.54 240.73,120.54 242.23,120.40 243.72,119.99 245.22,119.68 246.71,119.59 248.20,119.40 249.70,119.39 251.19,119.36 252.69,119.35 254.18,119.35 255.68,119.35 257.17,119.26 258.67,119.17 260.16,119.14 261.66,119.12 263.15,119.09 264.64,118.79 266.14,118.59 267.63,118.28 269.13,118.08 270.62,117.94 272.12,117.88 273.61,117.80 275.11,117.79 276.60,117.72 278.10,117.53 279.59,117.53 281.08,117.53 282.58,117.52 284.07,117.50 285.57,117.50 287.06,117.40 288.56,117.38 290.05,117.36 291.55,117.35 293.04,117.32 294.54,117.32 296.03,117.32 297.52,117.32 299.02,117.32 300.51,117.32 302.01,117.32 303.50,117.32 305.00,117.29 306.49,117.25 307.99,117.25 309.48,117.02 310.98,117.00 312.47,116.99 313.96,116.95 315.46,116.83 316.95,116.55 318.45,116.50 319.94,116.50 321.44,116.50 322.93,116.50 324.43,116.50 325.92,116.50 327.42,116.50 328.91,116.50 330.40,116.50 331.90,116.50 333.39,116.50 334.89,116.50 336.38,116.50 337.88,116.49 339.37,116.41 340.87,116.40 342.36,116.40 343.86,116.40 345.35,116.40 346.84,116.35 348.34,116.35 349.83,116.14 351.33,115.95 352.82,115.95 354.32,115.95 355.81,115.95 357.31,115.95 358.80,115.92 360.30,115.92 361.79,115.89 363.28,115.80 364.78,115.73 366.27,115.38 367.77,115.37 369.26,114.84 370.76,114.53 372.25,114.30 373.75,113.56 375.24,113.37 376.74,113.29 378.23,113.05 379.72,112.67 381.22,112.58 382.71,112.46 384.21,112.25 385.70,112.07 387.20,111.99 388.69,111.86 390.19,111.77 391.68,111.54 393.18,111.33 394.67,111.09 396.17,110.69 397.66,110.46 399.15,109.31 400.65,108.45 402.14,107.90 403.64,107.42 405.13,106.89 406.63,106.89 408.12,106.89 409.62,106.89 411.11,106.56 412.61,106.36 414.10,105.67 415.59,104.88 417.09,103.97 418.58,102.59 420.08,101.62 421.57,99.64 423.07,98.44 424.56,97.64 426.06,96.35 427.55,95.53 429.05,93.89 430.54,91.42 432.03,90.67 433.53,89.71 435.02,88.78 436.52,88.47 438.01,87.28 439.51,87.08 441.00,85.66 442.50,84.37 443.99,83.60 445.49,82.72 446.98,81.57 448.47,81.26 449.97,81.15 451.46,81.02 452.96,80.95 454.45,80.21 455.95,79.26 457.44,78.10 458.94,77.78 460.43,76.84 461.93,75.63 463.42,73.22 464.91,71.44 466.41,69.25 467.90,68.67 469.40,67.51 470.89,65.36 472.39,64.14 473.88,63.47 475.38,62.53 476.87,61.91 478.37,61.02 479.86,60.61 481.35,59.71 482.85,57.99 484.34,56.10 485.84,55.52 487.33,54.54 488.83,52.97 490.32,52.04 491.82,50.16 493.31,49.17 494.81,47.24 496.30,45.28 497.79,43.22 499.29,39.73 500.78,37.60 502.28,35.56 503.77,34.43 505.27,32.76 506.76,31.33 508.26,30.84 509.75,30.05" />
    </svg>
  