
    <svg width="540" height="160" xmlns="http://www.w3.org/2000/svg">
      <style>.line{fill:none;stroke:#388bfd;stroke-width:1.5}.axis{stroke:#555;stroke-width:1;opacity:0.5}.label{fill:#999;font-family:sans-serif;font-size:10px;text-anchor:middle}</style>
      <line class="axis" x1="30" y1="30" x2="30" y2="130" />
      <line class="axis" x1="30" y1="130" x2="510" y2="130" />
      <text class="label" x="15" y="30">4,962</text>
      <text class="label" x="15" y="134">0</text>
      <text class="label" x="30" y="148">2021</text>
      <text class="label" x="510" y="148">2026</text>
      <polyline class="line" points="30.00,129.96 31.53,129.94 33.05,129.92 34.58,129.92 36.10,129.92 37.63,129.66 39.16,129.66 40.68,129.66 42.21,128.21 43.74,125.81 45.26,125.69 46.79,125.69 48.31,125.69 49.84,125.69 51.37,125.69 52.89,125.69 54.42,125.69 55.95,125.69 57.47,125.69 59.00,125.69 60.52,125.69 62.05,125.69 63.58,125.69 65.10,125.69 66.63,125.69 68.16,125.69 69.68,125.69 71.21,124.32 72.73,124.32 74.26,124.30 75.79,124.30 77.31,124.30 78.84,124.30 80.37,124.22 81.89,124.22 83.42,124.22 84.94,124.22 86.47,124.22 88.00,124.22 89.52,124.22 91.05,124.22 92.58,124.22 94.10,124.22 95.63,124.22 97.15,124.22 98.68,124.22 100.21,124.22 101.73,124.22 103.26,124.22 104.79,124.22 106.31,124.22 107.84,124.14 109.36,122.91 110.89,121.78 112.42,121.31 113.94,119.08 115.47,119.08 117.00,119.08 118.52,119.08 120.05,119.08 121.57,119.08 123.10,119.08 124.63,119.08 126.15,119.08 127.68,119.08 129.21,119.08 130.73,119.08 132.26,118.92 133.78,118.92 135.31,118.92 136.84,118.71 138.36,118.71 139.89,118.71 141.41,118.71 142.94,118.65 144.47,118.65 145.99,118.65 147.52,118.65 149.05,118.61 150.57,118.61 152.10,118.61 153.62,118.61 155.15,118.61 156.68,118.61 158.20,118.61 159.73,118.61 161.26,118.61 162.78,118.61 164.31,118.61 165.83,118.61 167.36,118.61 168.89,118.61 170.41,118.61 171.94,118.61 173.47,118.61 174.99,118.61 176.52,118.61 178.04,118.61 179.57,118.61 181.10,118.61 182.62,118.61 184.15,118.55 185.68,118.55 187.20,118.55 188.73,118.55 190.25,118.55 191.78,118.55 193.31,118.55 194.83,118.55 196.36,118.55 197.89,118.55 199.41,118.55 200.94,118.55 202.46,118.55 203.99,118.55 205.52,118.55 207.04,118.51 208.57,117.99 210.10,117.85 211.62,117.63 213.15,117.34 214.67,117.26 216.20,117.26 217.73,117.26 219.25,116.82 220.78,116.78 222.31,116.50 223.83,116.40 225.36,116.22 226.88,115.51 228.41,115.47 229.94,115.37 231.46,115.35 232.99,115.25 234.52,115.25 236.04,115.21 237.57,115.21 239.09,115.21 240.62,115.21 242.15,115.21 243.67,115.21 245.20,115.21 246.72,114.99 248.25,114.34 249.78,113.86 251.30,113.72 252.83,113.41 254.36,113.39 255.88,113.35 257.41,113.33 258.93,113.33 260.46,113.33 261.99,113.19 263.51,113.05 265.04,113.01 266.57,112.97 268.09,112.93 269.62,112.47 271.14,112.14 272.67,111.66 274.20,111.36 275.72,111.14 277.25,111.04 278.78,110.91 280.30,110.89 281.83,110.79 283.35,110.49 284.88,110.49 286.41,110.49 287.93,110.47 289.46,110.45 290.99,110.45 292.51,110.29 294.04,110.25 295.56,110.23 297.09,110.21 298.62,110.17 300.14,110.17 301.67,110.17 303.20,110.17 304.72,110.17 306.25,110.17 307.77,110.17 309.30,110.17 310.83,110.11 312.35,110.05 313.88,110.05 315.41,109.69 316.93,109.67 318.46,109.65 319.98,109.58 321.51,109.40 323.04,108.96 324.56,108.88 326.09,108.88 327.62,108.88 329.14,108.88 330.67,108.88 332.19,108.88 333.72,108.88 335.25,108.88 336.77,108.88 338.30,108.88 339.83,108.88 341.35,108.88 342.88,108.88 344.40,108.86 345.93,108.74 347.46,108.72 348.98,108.72 350.51,108.72 352.03,108.72 353.56,108.64 355.09,108.64 356.61,108.32 358.14,108.01 359.67,108.01 361.19,108.01 362.72,108.01 364.24,108.01 365.77,107.97 367.30,107.97 368.82,107.93 370.35,107.79 371.88,107.67 373.40,107.13 374.93,107.11 376.45,106.28 377.98,105.80 379.51,105.43 381.03,104.28 382.56,103.98 384.09,103.86 385.61,103.48 387.14,102.89 388.66,102.75 390.19,102.55 391.72,102.23 393.24,101.95 394.77,101.83 396.30,101.62 397.82,101.48 399.35,101.12 400.87,100.80 402.40,100.42 403.93,99.79 405.45,99.43 406.98,97.63 408.51,96.28 410.03,95.42 411.56,94.67 413.08,93.85 414.61,93.85 416.14,93.85 417.66,93.85 419.19,93.32 420.72,93.02 422.24,92.35 423.77,91.59 425.29,90.54 426.82,88.89 428.35,87.96 429.87,86.27 431.40,85.28 432.93,84.66 434.45,83.63 435.98,82.82 437.50,81.45 439.03,79.46 440.56,78.87 442.08,78.02 443.61,77.30 445.14,77.06 446.66,76.13 448.19,75.97 449.71,74.86 451.24,73.85 452.77,73.25 454.29,72.54 455.82,71.58 457.34,71.29 458.87,71.15 460.40,71.01 461.92,70.89 463.45,70.12 464.98,69.26 466.50,67.89 468.03,67.48 469.55,66.78 471.08,65.63 472.61,63.07 474.13,61.14 475.66,58.98 477.19,58.52 478.71,57.57 480.24,55.65 481.76,54.49 483.29,53.84 484.82,52.87 486.34,52.37 487.87,51.66 489.40,51.34 490.92,50.25 492.45,48.62 493.97,47.07 495.50,46.61 497.03,45.80 498.55,44.35 500.08,43.26 501.61,41.65 503.13,40.82 504.66,39.17 506.18,36.97 507.71,35.10 509.24,31.13" />
    </svg>
  