
    <svg width="540" height="160" xmlns="http://www.w3.org/2000/svg">
      <style>.line{fill:none;stroke:#388bfd;stroke-width:1.5}.axis{stroke:#555;stroke-width:1;opacity:0.5}.label{fill:#999;font-family:sans-serif;font-size:10px;text-anchor:middle}</style>
      <line class="axis" x1="30" y1="30" x2="30" y2="130" />
      <line class="axis" x1="30" y1="130" x2="510" y2="130" />
      <text class="label" x="15" y="30">4,232</text>
      <text class="label" x="15" y="134">0</text>
      <text class="label" x="30" y="148">2021</text>
      <text class="label" x="510" y="148">2026</text>
      <polyline class="line" points="30.00,129.95 31.53,129.93 33.06,129.91 34.59,129.91 36.11,129.91 37.64,129.60 39.17,129.60 40.70,129.60 42.23,127.90 43.76,125.09 45.29,124.94 46.82,124.94 48.34,124.94 49.87,124.94 51.40,124.94 52.93,124.94 54.46,124.94 55.99,124.94 57.52,124.94 59.04,124.94 60.57,124.94 62.10,124.94 63.63,124.94 65.16,124.94 66.69,124.94 68.22,124.94 69.75,124.94 71.27,123.34 72.80,123.34 74.33,123.31 75.86,123.31 77.39,123.31 78.92,123.31 80.45,123.22 81.97,123.22 83.50,123.22 85.03,123.22 86.56,123.22 88.09,123.22 89.62,123.22 91.15,123.22 92.68,123.22 94.20,123.22 95.73,123.22 97.26,123.22 98.79,123.22 100.32,123.22 101.85,123.22 103.38,123.22 104.90,123.22 106.43,123.22 107.96,123.12 109.49,121.68 111.02,120.36 112.55,119.82 114.08,117.19 115.61,117.19 117.13,117.19 118.66,117.19 120.19,117.19 121.72,117.19 123.25,117.19 124.78,117.19 126.31,117.19 127.83,117.19 129.36,117.19 130.89,117.19 132.42,117.00 133.95,117.00 135.48,117.00 137.01,116.77 138.54,116.77 140.06,116.77 141.59,116.77 143.12,116.70 144.65,116.70 146.18,116.70 147.71,116.70 149.24,116.65 150.76,116.65 152.29,116.65 153.82,116.65 155.35,116.65 156.88,116.65 158.41,116.65 159.94,116.65 161.46,116.65 162.99,116.65 164.52,116.65 166.05,116.65 167.58,116.65 169.11,116.65 170.64,116.65 172.17,116.65 173.69,116.65 175.22,116.65 176.75,116.65 178.28,116.65 179.81,116.65 181.34,116.65 182.87,116.65 184.39,116.58 185.92,116.58 187.45,116.58 188.98,116.58 190.51,116.58 192.04,116.58 193.57,116.58 195.10,116.58 196.62,116.58 198.15,116.58 199.68,116.58 201.21,116.58 202.74,116.58 204.27,116.58 205.80,116.58 207.32,116.53 208.85,115.92 210.38,115.75 211.91,115.49 213.44,115.16 214.97,115.07 216.50,115.07 218.03,115.07 219.55,114.55 221.08,114.50 222.61,114.17 224.14,114.05 225.67,113.84 227.20,113.01 228.73,112.96 230.25,112.84 231.78,112.82 233.31,112.70 234.84,112.70 236.37,112.66 237.90,112.66 239.43,112.66 240.96,112.66 242.48,112.66 244.01,112.66 245.54,112.66 247.07,112.40 248.60,111.64 250.13,111.07 251.66,110.91 253.18,110.55 254.71,110.53 256.24,110.48 257.77,110.46 259.30,110.46 260.83,110.46 262.36,110.29 263.89,110.13 265.41,110.08 266.94,110.03 268.47,109.99 270.00,109.44 271.53,109.06 273.06,108.50 274.59,108.14 276.11,107.88 277.64,107.76 279.17,107.62 280.70,107.60 282.23,107.48 283.76,107.13 285.29,107.13 286.82,107.13 288.34,107.10 289.87,107.08 291.40,107.08 292.93,106.89 294.46,106.84 295.99,106.82 297.52,106.80 299.04,106.75 300.57,106.75 302.10,106.75 303.63,106.75 305.16,106.75 306.69,106.75 308.22,106.75 309.75,106.75 311.27,106.68 312.80,106.61 314.33,106.61 315.86,106.18 317.39,106.16 318.92,106.13 320.45,106.06 321.97,105.85 323.50,105.33 325.03,105.24 326.56,105.24 328.09,105.24 329.62,105.24 331.15,105.24 332.68,105.24 334.20,105.24 335.73,105.24 337.26,105.24 338.79,105.24 340.32,105.24 341.85,105.24 343.38,105.24 344.90,105.21 346.43,105.07 347.96,105.05 349.49,105.05 351.02,105.05 352.55,105.05 354.08,104.95 355.61,104.95 357.13,104.57 358.66,104.22 360.19,104.22 361.72,104.22 363.25,104.22 364.78,104.22 366.31,104.17 367.83,104.17 369.36,104.13 370.89,103.96 372.42,103.82 373.95,103.18 375.48,103.16 377.01,102.19 378.54,101.62 380.06,101.20 381.59,99.85 383.12,99.64 384.65,99.59 386.18,99.59 387.71,99.59 389.24,99.59 390.76,99.54 392.29,99.42 393.82,99.42 395.35,99.42 396.88,99.42 398.41,99.42 399.94,99.42 401.46,99.38 402.99,99.33 404.52,99.33 406.05,99.33 407.58,99.28 409.11,99.28 410.64,99.09 412.17,99.00 413.69,99.00 415.22,99.00 416.75,99.00 418.28,99.00 419.81,99.00 421.34,99.00 422.87,98.48 424.39,97.93 425.92,97.49 427.45,96.87 428.98,96.16 430.51,94.48 432.04,93.45 433.57,92.71 435.10,91.51 436.62,90.56 438.15,88.96 439.68,86.64 441.21,85.95 442.74,84.96 444.27,84.11 445.80,83.83 447.32,82.74 448.85,82.55 450.38,81.25 451.91,80.07 453.44,79.36 454.97,78.53 456.50,77.40 458.03,77.07 459.55,76.90 461.08,76.74 462.61,76.60 464.14,75.70 465.67,74.68 467.20,73.08 468.73,72.60 470.25,71.78 471.78,70.43 473.31,67.43 474.84,65.16 476.37,62.63 477.90,62.09 479.43,60.98 480.96,58.73 482.48,57.36 484.01,56.61 485.54,55.47 487.07,54.88 488.60,54.05 490.13,53.68 491.66,52.40 493.18,50.49 494.71,48.67 496.24,48.12 497.77,47.18 499.30,45.48 500.83,44.20 502.36,42.31 503.89,41.34 505.41,39.40 506.94,36.83 508.47,34.63 510.00,30.00" />
    </svg>
  