
    <svg width="540" height="160" xmlns="http://www.w3.org/2000/svg">
      <style>.line{fill:none;stroke:#388bfd;stroke-width:1.5}.axis{stroke:#555;stroke-width:1;opacity:0.5}.label{fill:#999;font-family:sans-serif;font-size:10px;text-anchor:middle}</style>
      <line class="axis" x1="30" y1="30" x2="30" y2="130" />
      <line class="axis" x1="30" y1="130" x2="510" y2="130" />
      <text class="label" x="15" y="30">9,058</text>
      <text class="label" x="15" y="134">0</text>
      <text class="label" x="30" y="148">2021</text>
      <text class="label" x="510" y="148">2026</text>
      <polyline class="line" points="30.00,129.98 31.46,129.97 32.91,129.96 34.37,129.96 35.83,129.96 37.28,129.81 38.74,129.81 40.20,129.81 41.65,129.02 43.11,127.70 44.57,127.64 46.02,127.64 47.48,127.64 48.94,127.64 50.39,127.64 51.85,127.64 53.31,127.64 54.76,127.64 56.22,127.64 57.68,127.64 59.14,127.64 60.59,127.64 62.05,127.64 63.51,127.64 64.96,127.64 66.42,127.64 67.88,127.64 69.33,126.89 70.79,126.89 72.25,126.88 73.70,126.88 75.16,126.88 76.62,126.88 78.07,126.83 79.53,126.83 80.99,126.83 82.44,126.83 83.90,126.83 85.36,126.83 86.81,126.83 88.27,126.83 89.73,126.83 91.18,126.83 92.64,126.83 94.10,126.83 95.55,126.83 97.01,126.83 98.47,126.83 99.92,126.83 101.38,126.83 102.84,126.83 104.29,126.79 105.75,126.11 107.21,125.50 108.66,125.24 110.12,124.02 111.58,124.02 113.03,124.02 114.49,124.02 115.95,124.02 117.41,124.02 118.86,124.02 120.32,124.02 121.78,124.02 123.23,124.02 124.69,124.02 126.15,124.02 127.60,123.93 129.06,123.93 130.52,123.93 131.97,123.82 133.43,123.82 134.89,123.82 136.34,123.82 137.80,123.78 139.26,123.78 140.71,123.78 142.17,123.78 143.63,123.76 145.08,123.76 146.54,123.76 148.00,123.76 149.45,123.76 150.91,123.76 152.37,123.76 153.82,123.76 155.28,123.76 156.74,123.76 158.19,123.76 159.65,123.76 161.11,123.76 162.56,123.76 164.02,123.76 165.48,123.76 166.93,123.76 168.39,123.76 169.85,123.76 171.31,123.76 172.76,123.76 174.22,123.76 175.68,123.76 177.13,123.73 178.59,123.73 180.05,123.73 181.50,123.73 182.96,123.73 184.42,123.73 185.87,123.73 187.33,123.73 188.79,123.73 190.24,123.73 191.70,123.73 193.16,123.73 194.61,123.73 196.07,123.73 197.53,123.73 198.98,123.71 200.44,123.42 201.90,123.34 203.35,123.22 204.81,123.07 206.27,123.02 207.72,123.02 209.18,123.02 210.64,122.78 212.09,122.76 213.55,122.60 215.01,122.55 216.46,122.45 217.92,122.06 219.38,122.04 220.83,121.98 222.29,121.97 223.75,121.92 225.20,121.92 226.66,121.90 228.12,121.90 229.58,121.90 231.03,121.90 232.49,121.90 233.95,121.90 235.40,121.90 236.86,121.78 238.32,121.42 239.77,121.16 241.23,121.08 242.69,120.91 244.14,120.90 245.60,120.88 247.06,120.87 248.51,120.87 249.97,120.87 251.43,120.79 252.88,120.72 254.34,120.69 255.80,120.67 257.25,120.65 258.71,120.40 260.17,120.22 261.62,119.95 263.08,119.79 264.54,119.67 265.99,119.61 267.45,119.55 268.91,119.53 270.36,119.48 271.82,119.31 273.28,119.31 274.73,119.31 276.19,119.30 277.65,119.29 279.10,119.29 280.56,119.20 282.02,119.18 283.47,119.17 284.93,119.16 286.39,119.14 287.85,119.14 289.30,119.14 290.76,119.14 292.22,119.14 293.67,119.14 295.13,119.14 296.59,119.14 298.04,119.10 299.50,119.07 300.96,119.07 302.41,118.87 303.87,118.86 305.33,118.85 306.78,118.82 308.24,118.72 309.70,118.47 311.15,118.43 312.61,118.43 314.07,118.43 315.52,118.43 316.98,118.43 318.44,118.43 319.89,118.43 321.35,118.43 322.81,118.43 324.26,118.43 325.72,118.43 327.18,118.43 328.63,118.43 330.09,118.42 331.55,118.35 333.00,118.34 334.46,118.34 335.92,118.34 337.37,118.34 338.83,118.30 340.29,118.30 341.75,118.12 343.20,117.96 344.66,117.96 346.12,117.96 347.57,117.96 349.03,117.96 350.49,117.93 351.94,117.93 353.40,117.91 354.86,117.83 356.31,117.77 357.77,117.47 359.23,117.46 360.68,117.01 362.14,116.74 363.60,116.54 365.05,115.91 366.51,115.75 367.97,115.68 369.42,115.47 370.88,115.15 372.34,115.07 373.79,114.96 375.25,114.79 376.71,114.63 378.16,114.57 379.62,114.46 381.08,114.38 382.53,114.18 383.99,114.00 385.45,113.79 386.90,113.45 388.36,113.25 389.82,112.27 391.27,111.53 392.73,111.06 394.19,110.65 395.64,110.19 397.10,110.19 398.56,110.19 400.02,110.19 401.47,109.91 402.93,109.74 404.39,109.15 405.84,108.47 407.30,107.69 408.76,106.51 410.21,105.68 411.67,103.98 413.13,102.95 414.58,102.27 416.04,101.16 417.50,100.46 418.95,99.05 420.41,96.94 421.87,96.29 423.32,95.47 424.78,94.67 426.24,94.41 427.69,93.39 429.15,93.21 430.61,92.00 432.06,90.90 433.52,90.23 434.98,89.48 436.43,88.49 437.89,88.22 439.35,88.14 440.80,88.03 442.26,87.96 443.72,87.33 445.17,86.51 446.63,85.52 448.09,85.24 449.54,84.44 451.00,83.40 452.46,81.34 453.92,79.81 455.37,77.94 456.83,77.44 458.29,76.45 459.74,74.60 461.20,73.55 462.66,72.98 464.11,72.17 465.57,71.64 467.03,70.88 468.48,70.53 469.94,69.75 471.40,68.29 472.85,66.66 474.31,66.17 475.77,65.25 477.22,63.57 478.68,62.71 480.14,60.62 481.59,59.63 483.05,57.82 484.51,56.05 485.96,53.92 487.42,50.72 488.88,48.60 490.33,46.78 491.79,45.61 493.25,44.10 494.70,42.74 496.16,42.08 497.62,40.97 499.07,39.64 500.53,38.89 501.99,37.74 503.44,36.87 504.90,36.04 506.36,34.79 507.81,32.52 509.27,30.75" />
    </svg>
  