
    <svg width="540" height="160" xmlns="http://www.w3.org/2000/svg">
      <style>.line{fill:none;stroke:#388bfd;stroke-width:1.5}.axis{stroke:#555;stroke-width:1;opacity:0.5}.label{fill:#999;font-family:sans-serif;font-size:10px;text-anchor:middle}</style>
      <line class="axis" x1="30" y1="30" x2="30" y2="130" />
      <line class="axis" x1="30" y1="130" x2="510" y2="130" />
      <text class="label" x="15" y="30">7,482</text>
      <text class="label" x="15" y="134">0</text>
      <text class="label" x="30" y="148">2021</text>
      <text class="label" x="510" y="148">2026</text>
      <polyline class="line" points="30.00,129.97 31.50,129.96 33.00,129.95 34.50,129.95 36.00,129.95 37.50,129.77 39.00,129.77 40.49,129.77 41.99,128.81 43.49,127.22 44.99,127.14 46.49,127.14 47.99,127.14 49.49,127.14 50.99,127.14 52.49,127.14 53.99,127.14 55.49,127.14 56.99,127.14 58.49,127.14 59.98,127.14 61.48,127.14 62.98,127.14 64.48,127.14 65.98,127.14 67.48,127.14 68.98,127.14 70.48,126.23 71.98,126.23 73.48,126.22 74.98,126.22 76.48,126.22 77.98,126.22 79.47,126.16 80.97,126.16 82.47,126.16 83.97,126.16 85.47,126.16 86.97,126.16 88.47,126.16 89.97,126.16 91.47,126.16 92.97,126.16 94.47,126.16 95.97,126.16 97.46,126.16 98.96,126.16 100.46,126.16 101.96,126.16 103.46,126.16 104.96,126.16 106.46,126.11 107.96,125.30 109.46,124.55 110.96,124.24 112.46,122.76 113.96,122.76 115.46,122.76 116.95,122.76 118.45,122.76 119.95,122.76 121.45,122.76 122.95,122.76 124.45,122.76 125.95,122.76 127.45,122.76 128.95,122.76 130.45,122.65 131.95,122.65 133.45,122.65 134.95,122.52 136.44,122.52 137.94,122.52 139.44,122.52 140.94,122.48 142.44,122.48 143.94,122.48 145.44,122.48 146.94,122.45 148.44,122.45 149.94,122.45 151.44,122.45 152.94,122.45 154.44,122.45 155.93,122.45 157.43,122.45 158.93,122.45 160.43,122.45 161.93,122.45 163.43,122.45 164.93,122.45 166.43,122.45 167.93,122.45 169.43,122.45 170.93,122.45 172.43,122.45 173.93,122.45 175.42,122.45 176.92,122.45 178.42,122.45 179.92,122.45 181.42,122.41 182.92,122.41 184.42,122.41 185.92,122.41 187.42,122.41 188.92,122.41 190.42,122.41 191.92,122.41 193.41,122.41 194.91,122.41 196.41,122.41 197.91,122.41 199.41,122.41 200.91,122.41 202.41,122.41 203.91,122.38 205.41,122.03 206.91,121.94 208.41,121.79 209.91,121.61 211.41,121.55 212.90,121.55 214.40,121.55 215.90,121.26 217.40,121.23 218.90,121.05 220.40,120.98 221.90,120.86 223.40,120.39 224.90,120.36 226.40,120.30 227.90,120.28 229.40,120.22 230.90,120.22 232.39,120.19 233.89,120.19 235.39,120.19 236.89,120.19 238.39,120.19 239.89,120.19 241.39,120.19 242.89,120.04 244.39,119.62 245.89,119.29 247.39,119.20 248.89,119.00 250.39,118.99 251.88,118.96 253.38,118.95 254.88,118.95 256.38,118.95 257.88,118.85 259.38,118.76 260.88,118.73 262.38,118.71 263.88,118.68 265.38,118.37 266.88,118.16 268.38,117.84 269.88,117.64 271.37,117.49 272.87,117.42 274.37,117.34 275.87,117.33 277.37,117.26 278.87,117.06 280.37,117.06 281.87,117.06 283.37,117.05 284.87,117.04 286.37,117.04 287.87,116.93 289.36,116.90 290.86,116.89 292.36,116.88 293.86,116.85 295.36,116.85 296.86,116.85 298.36,116.85 299.86,116.85 301.36,116.85 302.86,116.85 304.36,116.85 305.86,116.81 307.36,116.77 308.85,116.77 310.35,116.53 311.85,116.51 313.35,116.50 314.85,116.46 316.35,116.34 317.85,116.05 319.35,115.99 320.85,115.99 322.35,115.99 323.85,115.99 325.35,115.99 326.85,115.99 328.34,115.99 329.84,115.99 331.34,115.99 332.84,115.99 334.34,115.99 335.84,115.99 337.34,115.99 338.84,115.98 340.34,115.90 341.84,115.89 343.34,115.89 344.84,115.89 346.34,115.89 347.83,115.83 349.33,115.83 350.83,115.62 352.33,115.42 353.83,115.42 355.33,115.42 356.83,115.42 358.33,115.42 359.83,115.39 361.33,115.39 362.83,115.36 364.33,115.27 365.83,115.19 367.32,114.83 368.82,114.82 370.32,114.27 371.82,113.95 373.32,113.71 374.82,112.95 376.32,112.75 377.82,112.67 379.32,112.41 380.82,112.02 382.32,111.93 383.82,111.80 385.31,111.58 386.81,111.40 388.31,111.32 389.81,111.18 391.31,111.09 392.81,110.85 394.31,110.63 395.81,110.38 397.31,109.97 398.81,109.72 400.31,108.54 401.81,107.64 403.31,107.06 404.80,106.57 406.30,106.02 407.80,106.02 409.30,106.02 410.80,106.02 412.30,105.67 413.80,105.47 415.30,104.75 416.80,103.94 418.30,102.99 419.80,101.56 421.30,100.56 422.80,98.50 424.29,97.25 425.79,96.43 427.29,95.09 428.79,94.23 430.29,92.54 431.79,89.97 433.29,89.20 434.79,88.19 436.29,87.23 437.79,86.91 439.29,85.68 440.79,85.47 442.29,84.00 443.78,82.66 445.28,81.86 446.78,80.95 448.28,79.75 449.78,79.43 451.28,79.32 452.78,79.18 454.28,79.10 455.78,78.34 457.28,77.35 458.78,76.15 460.28,75.82 461.78,74.84 463.27,73.58 464.77,71.09 466.27,69.24 467.77,66.97 469.27,66.37 470.77,65.16 472.27,62.93 473.77,61.66 475.27,60.97 476.77,59.99 478.27,59.35 479.77,58.43 481.26,58.00 482.76,57.06 484.26,55.29 485.76,53.32 487.26,52.72 488.76,51.80 490.26,50.57 491.76,49.69 493.26,48.31 494.76,47.46 496.26,45.64 497.76,43.71 499.26,42.02 500.75,38.65 502.25,36.56 503.75,34.54 505.25,33.42 506.75,31.78 508.25,30.43 509.75,30.00" />
    </svg>
  