
    <svg width="540" height="160" xmlns="http://www.w3.org/2000/svg">
      <style>.line{fill:none;stroke:#388bfd;stroke-width:1.5}.axis{stroke:#555;stroke-width:1;opacity:0.5}.label{fill:#999;font-family:sans-serif;font-size:10px;text-anchor:middle}</style>
      <line class="axis" x1="30" y1="30" x2="30" y2="130" />
      <line class="axis" x1="30" y1="130" x2="510" y2="130" />
      <text class="label" x="15" y="30">9,509</text>
      <text class="label" x="15" y="134">0</text>
      <text class="label" x="30" y="148">2021</text>
      <text class="label" x="510" y="148">2026</text>
      <polyline class="line" points="30.00,129.98 31.43,129.97 32.86,129.96 34.29,129.96 35.71,129.96 37.14,129.82 38.57,129.82 40.00,129.82 41.43,129.06 42.86,127.81 44.29,127.75 45.71,127.75 47.14,127.75 48.57,127.75 50.00,127.75 51.43,127.75 52.86,127.75 54.29,127.75 55.71,127.75 57.14,127.75 58.57,127.75 60.00,127.75 61.43,127.75 62.86,127.75 64.29,127.75 65.71,127.75 67.14,127.75 68.57,127.03 70.00,127.03 71.43,127.02 72.86,127.02 74.29,127.02 75.71,127.02 77.14,126.98 78.57,126.98 80.00,126.98 81.43,126.98 82.86,126.98 84.29,126.98 85.71,126.98 87.14,126.98 88.57,126.98 90.00,126.98 91.43,126.98 92.86,126.98 94.29,126.98 95.71,126.98 97.14,126.98 98.57,126.98 100.00,126.98 101.43,126.98 102.86,126.94 104.29,126.30 105.71,125.71 107.14,125.47 108.57,124.30 110.00,124.30 111.43,124.30 112.86,124.30 114.29,124.30 115.71,124.30 117.14,124.30 118.57,124.30 120.00,124.30 121.43,124.30 122.86,124.30 124.29,124.30 125.71,124.22 127.14,124.22 128.57,124.22 130.00,124.11 131.43,124.11 132.86,124.11 134.29,124.11 135.71,124.08 137.14,124.08 138.57,124.08 140.00,124.08 141.43,124.06 142.86,124.06 144.29,124.06 145.71,124.06 147.14,124.06 148.57,124.06 150.00,124.06 151.43,124.06 152.86,124.06 154.29,124.06 155.71,124.06 157.14,124.06 158.57,124.06 160.00,124.06 161.43,124.06 162.86,124.06 164.29,124.06 165.71,124.06 167.14,124.06 168.57,124.06 170.00,124.06 171.43,124.06 172.86,124.06 174.29,124.03 175.71,124.03 177.14,124.03 178.57,124.03 180.00,124.03 181.43,124.03 182.86,124.03 184.29,124.03 185.71,124.03 187.14,124.03 188.57,124.03 190.00,124.03 191.43,124.03 192.86,124.03 194.29,124.03 195.71,124.01 197.14,123.73 198.57,123.66 200.00,123.54 201.43,123.40 202.86,123.35 204.29,123.35 205.71,123.35 207.14,123.12 208.57,123.10 210.00,122.95 211.43,122.90 212.86,122.81 214.29,122.44 215.71,122.42 217.14,122.37 218.57,122.35 220.00,122.30 221.43,122.30 222.86,122.28 224.29,122.28 225.71,122.28 227.14,122.28 228.57,122.28 230.00,122.28 231.43,122.28 232.86,122.17 234.29,121.83 235.71,121.58 237.14,121.50 238.57,121.35 240.00,121.33 241.43,121.31 242.86,121.30 244.29,121.30 245.71,121.30 247.14,121.23 248.57,121.16 250.00,121.13 251.43,121.11 252.86,121.09 254.29,120.85 255.71,120.68 257.14,120.43 258.57,120.27 260.00,120.16 261.43,120.10 262.86,120.04 264.29,120.03 265.71,119.98 267.14,119.82 268.57,119.82 270.00,119.82 271.43,119.81 272.86,119.80 274.29,119.80 275.71,119.72 277.14,119.69 278.57,119.68 280.00,119.67 281.43,119.65 282.86,119.65 284.29,119.65 285.71,119.65 287.14,119.65 288.57,119.65 290.00,119.65 291.43,119.65 292.86,119.62 294.29,119.59 295.71,119.59 297.14,119.40 298.57,119.39 300.00,119.38 301.43,119.35 302.86,119.25 304.29,119.02 305.71,118.98 307.14,118.98 308.57,118.98 310.00,118.98 311.43,118.98 312.86,118.98 314.29,118.98 315.71,118.98 317.14,118.98 318.57,118.98 320.00,118.98 321.43,118.98 322.86,118.98 324.29,118.97 325.71,118.91 327.14,118.89 328.57,118.89 330.00,118.89 331.43,118.89 332.86,118.85 334.29,118.85 335.71,118.68 337.14,118.53 338.57,118.53 340.00,118.53 341.43,118.53 342.86,118.53 344.29,118.51 345.71,118.51 347.14,118.48 348.57,118.41 350.00,118.35 351.43,118.06 352.86,118.05 354.29,117.62 355.71,117.37 357.14,117.18 358.57,116.58 360.00,116.42 361.43,116.36 362.86,116.16 364.29,115.86 365.71,115.78 367.14,115.68 368.57,115.51 370.00,115.36 371.43,115.30 372.86,115.19 374.29,115.12 375.71,114.93 377.14,114.76 378.57,114.56 380.00,114.24 381.43,114.05 382.86,113.11 384.29,112.41 385.71,111.95 387.14,111.56 388.57,111.13 390.00,111.13 391.43,111.13 392.86,111.13 394.29,110.86 395.71,110.70 397.14,110.13 398.57,109.49 400.00,108.75 401.43,107.62 402.86,106.83 404.29,105.21 405.71,104.23 407.14,103.58 408.57,102.53 410.00,101.86 411.43,100.52 412.86,98.50 414.29,97.89 415.71,97.10 417.14,96.35 418.57,96.10 420.00,95.13 421.43,94.96 422.86,93.80 424.29,92.75 425.71,92.12 427.14,91.40 428.57,90.46 430.00,90.21 431.43,90.12 432.86,90.02 434.29,89.95 435.71,89.35 437.14,88.58 438.57,87.63 440.00,87.37 441.43,86.60 442.86,85.61 444.29,83.64 445.71,82.19 447.14,80.40 448.57,79.93 450.00,78.99 451.43,77.23 452.86,76.23 454.29,75.68 455.71,74.92 457.14,74.41 458.57,73.68 460.00,73.35 461.43,72.61 462.86,71.21 464.29,69.67 465.71,69.19 467.14,68.32 468.57,66.72 470.00,65.90 471.43,63.92 472.86,62.97 474.29,61.24 475.71,59.56 477.14,57.53 478.57,54.48 480.00,52.46 481.43,50.73 482.86,49.61 484.29,48.17 485.71,46.88 487.14,46.25 488.57,45.20 490.00,43.92 491.43,43.21 492.86,42.11 494.29,41.28 495.71,40.50 497.14,39.31 498.57,37.14 500.00,35.41 501.43,33.94 502.86,32.73 504.29,32.29 505.71,31.72 507.14,31.26 508.57,30.74 510.00,30.00" />
    </svg>
  