
    <svg width="540" height="160" xmlns="http://www.w3.org/2000/svg">
      <style>.line{fill:none;stroke:#388bfd;stroke-width:1.5}.axis{stroke:#555;stroke-width:1;opacity:0.5}.label{fill:#999;font-family:sans-serif;font-size:10px;text-anchor:middle}</style>
      <line class="axis" x1="30" y1="30" x2="30" y2="130" />
      <line class="axis" x1="30" y1="130" x2="510" y2="130" />
      <text class="label" x="15" y="30">5,208</text>
      <text class="label" x="15" y="134">0</text>
      <text class="label" x="30" y="148">2021</text>
      <text class="label" x="510" y="148">2026</text>
      <polyline class="line" points="30.00,129.96 31.51,129.94 33.03,129.92 34.54,129.92 36.06,129.92 37.57,129.67 39.09,129.67 40.60,129.67 42.11,128.29 43.63,126.01 45.14,125.89 46.66,125.89 48.17,125.89 49.68,125.89 51.20,125.89 52.71,125.89 54.23,125.89 55.74,125.89 57.26,125.89 58.77,125.89 60.28,125.89 61.80,125.89 63.31,125.89 64.83,125.89 66.34,125.89 67.85,125.89 69.37,125.89 70.88,124.59 72.40,124.59 73.91,124.57 75.43,124.57 76.94,124.57 78.45,124.57 79.97,124.49 81.48,124.49 83.00,124.49 84.51,124.49 86.03,124.49 87.54,124.49 89.05,124.49 90.57,124.49 92.08,124.49 93.60,124.49 95.11,124.49 96.62,124.49 98.14,124.49 99.65,124.49 101.17,124.49 102.68,124.49 104.20,124.49 105.71,124.49 107.22,124.41 108.74,123.24 110.25,122.17 111.77,121.72 113.28,119.59 114.79,119.59 116.31,119.59 117.82,119.59 119.34,119.59 120.85,119.59 122.37,119.59 123.88,119.59 125.39,119.59 126.91,119.59 128.42,119.59 129.94,119.59 131.45,119.44 132.97,119.44 134.48,119.44 135.99,119.25 137.51,119.25 139.02,119.25 140.54,119.25 142.05,119.19 143.56,119.19 145.08,119.19 146.59,119.19 148.11,119.15 149.62,119.15 151.14,119.15 152.65,119.15 154.16,119.15 155.68,119.15 157.19,119.15 158.71,119.15 160.22,119.15 161.74,119.15 163.25,119.15 164.76,119.15 166.28,119.15 167.79,119.15 169.31,119.15 170.82,119.15 172.33,119.15 173.85,119.15 175.36,119.15 176.88,119.15 178.39,119.15 179.91,119.15 181.42,119.15 182.93,119.09 184.45,119.09 185.96,119.09 187.48,119.09 188.99,119.09 190.50,119.09 192.02,119.09 193.53,119.09 195.05,119.09 196.56,119.09 198.08,119.09 199.59,119.09 201.10,119.09 202.62,119.09 204.13,119.09 205.65,119.06 207.16,118.56 208.68,118.42 210.19,118.21 211.70,117.94 213.22,117.86 214.73,117.86 216.25,117.86 217.76,117.44 219.27,117.40 220.79,117.14 222.30,117.04 223.82,116.87 225.33,116.19 226.85,116.16 228.36,116.06 229.87,116.04 231.39,115.94 232.90,115.94 234.42,115.91 235.93,115.91 237.44,115.91 238.96,115.91 240.47,115.91 241.99,115.91 243.50,115.91 245.02,115.70 246.53,115.08 248.04,114.62 249.56,114.49 251.07,114.20 252.59,114.18 254.10,114.14 255.62,114.12 257.13,114.12 258.64,114.12 260.16,113.99 261.67,113.85 263.19,113.81 264.70,113.77 266.21,113.74 267.73,113.29 269.24,112.99 270.76,112.53 272.27,112.24 273.79,112.03 275.30,111.93 276.81,111.82 278.33,111.80 279.84,111.70 281.36,111.41 282.87,111.41 284.38,111.41 285.90,111.39 287.41,111.37 288.93,111.37 290.44,111.22 291.96,111.18 293.47,111.16 294.98,111.14 296.50,111.11 298.01,111.11 299.53,111.11 301.04,111.11 302.56,111.11 304.07,111.11 305.58,111.11 307.10,111.11 308.61,111.05 310.13,110.99 311.64,110.99 313.15,110.65 314.67,110.63 316.18,110.61 317.70,110.55 319.21,110.38 320.73,109.95 322.24,109.88 323.75,109.88 325.27,109.88 326.78,109.88 328.30,109.88 329.81,109.88 331.32,109.88 332.84,109.88 334.35,109.88 335.87,109.88 337.38,109.88 338.90,109.88 340.41,109.88 341.92,109.86 343.44,109.74 344.95,109.72 346.47,109.72 347.98,109.72 349.50,109.72 351.01,109.65 352.52,109.65 354.04,109.34 355.55,109.05 357.07,109.05 358.58,109.05 360.09,109.05 361.61,109.05 363.12,109.01 364.64,109.01 366.15,108.97 367.67,108.84 369.18,108.73 370.69,108.21 372.21,108.19 373.72,107.40 375.24,106.94 376.75,106.59 378.26,105.50 379.78,105.21 381.29,105.10 382.81,104.73 384.32,104.17 385.84,104.04 387.35,103.85 388.86,103.54 390.38,103.27 391.89,103.16 393.41,102.96 394.92,102.83 396.44,102.48 397.95,102.18 399.46,101.81 400.98,101.22 402.49,100.87 404.01,99.16 405.52,97.88 407.03,97.05 408.55,96.34 410.06,95.55 411.58,95.55 413.09,95.55 414.61,95.55 416.12,95.05 417.63,94.77 419.15,94.13 420.66,93.40 422.18,92.40 423.69,90.83 425.21,89.95 426.72,88.33 428.23,87.39 429.75,86.80 431.26,85.82 432.78,85.05 434.29,83.74 435.80,81.84 437.32,81.29 438.83,80.48 440.35,79.79 441.86,79.56 443.38,78.68 444.89,78.52 446.40,77.47 447.92,76.51 449.43,75.93 450.95,75.26 452.46,74.34 453.97,74.07 455.49,73.93 457.00,73.80 458.52,73.68 460.03,72.95 461.55,72.13 463.06,70.82 464.57,70.44 466.09,69.77 467.60,68.67 469.12,66.23 470.63,64.39 472.15,62.33 473.66,61.89 475.17,60.99 476.69,59.17 478.20,58.05 479.72,57.44 481.23,56.52 482.74,56.04 484.26,55.36 485.77,55.06 487.29,54.02 488.80,52.47 490.32,50.99 491.83,50.55 493.34,49.78 494.86,48.39 496.37,47.36 497.89,45.82 499.40,45.03 500.91,43.46 502.43,41.37 503.94,39.58 505.46,35.80 506.97,33.13 508.49,31.29 510.00,30.00" />
    </svg>
  