
    <svg width="540" height="160" xmlns="http://www.w3.org/2000/svg">
      <style>.line{fill:none;stroke:#388bfd;stroke-width:1.5}.axis{stroke:#555;stroke-width:1;opacity:0.5}.label{fill:#999;font-family:sans-serif;font-size:10px;text-anchor:middle}</style>
      <line class="axis" x1="30" y1="30" x2="30" y2="130" />
      <line class="axis" x1="30" y1="130" x2="510" y2="130" />
      <text class="label" x="15" y="30">5,163</text>
      <text class="label" x="15" y="134">0</text>
      <text class="label" x="30" y="148">2021</text>
      <text class="label" x="510" y="148">2026</text>
      <polyline class="line" points="30.00,129.96 31.52,129.94 33.03,129.92 34.55,129.92 36.07,129.92 37.59,129.67 39.10,129.67 40.62,129.67 42.14,128.28 43.66,125.97 45.17,125.86 46.69,125.86 48.21,125.86 49.73,125.86 51.24,125.86 52.76,125.86 54.28,125.86 55.80,125.86 57.31,125.86 58.83,125.86 60.35,125.86 61.87,125.86 63.38,125.86 64.90,125.86 66.42,125.86 67.93,125.86 69.45,125.86 70.97,124.54 72.49,124.54 74.00,124.52 75.52,124.52 77.04,124.52 78.56,124.52 80.07,124.44 81.59,124.44 83.11,124.44 84.63,124.44 86.14,124.44 87.66,124.44 89.18,124.44 90.70,124.44 92.21,124.44 93.73,124.44 95.25,124.44 96.77,124.44 98.28,124.44 99.80,124.44 101.32,124.44 102.83,124.44 104.35,124.44 105.87,124.44 107.39,124.36 108.90,123.18 110.42,122.10 111.94,121.65 113.46,119.50 114.97,119.50 116.49,119.50 118.01,119.50 119.53,119.50 121.04,119.50 122.56,119.50 124.08,119.50 125.60,119.50 127.11,119.50 128.63,119.50 130.15,119.50 131.66,119.35 133.18,119.35 134.70,119.35 136.22,119.15 137.73,119.15 139.25,119.15 140.77,119.15 142.29,119.10 143.80,119.10 145.32,119.10 146.84,119.10 148.36,119.06 149.87,119.06 151.39,119.06 152.91,119.06 154.43,119.06 155.94,119.06 157.46,119.06 158.98,119.06 160.50,119.06 162.01,119.06 163.53,119.06 165.05,119.06 166.56,119.06 168.08,119.06 169.60,119.06 171.12,119.06 172.63,119.06 174.15,119.06 175.67,119.06 177.19,119.06 178.70,119.06 180.22,119.06 181.74,119.06 183.26,119.00 184.77,119.00 186.29,119.00 187.81,119.00 189.33,119.00 190.84,119.00 192.36,119.00 193.88,119.00 195.40,119.00 196.91,119.00 198.43,119.00 199.95,119.00 201.46,119.00 202.98,119.00 204.50,119.00 206.02,118.96 207.53,118.46 209.05,118.32 210.57,118.11 212.09,117.84 213.60,117.76 215.12,117.76 216.64,117.76 218.16,117.33 219.67,117.29 221.19,117.02 222.71,116.93 224.23,116.75 225.74,116.07 227.26,116.04 228.78,115.94 230.30,115.92 231.81,115.82 233.33,115.82 234.85,115.78 236.36,115.78 237.88,115.78 239.40,115.78 240.92,115.78 242.43,115.78 243.95,115.78 245.47,115.57 246.99,114.95 248.50,114.49 250.02,114.35 251.54,114.06 253.06,114.04 254.57,114.00 256.09,113.98 257.61,113.98 259.13,113.98 260.64,113.85 262.16,113.71 263.68,113.67 265.19,113.63 266.71,113.59 268.23,113.15 269.75,112.84 271.26,112.37 272.78,112.08 274.30,111.87 275.82,111.77 277.33,111.66 278.85,111.64 280.37,111.54 281.89,111.25 283.40,111.25 284.92,111.25 286.44,111.23 287.96,111.21 289.47,111.21 290.99,111.06 292.51,111.02 294.03,111.00 295.54,110.98 297.06,110.94 298.58,110.94 300.09,110.94 301.61,110.94 303.13,110.94 304.65,110.94 306.16,110.94 307.68,110.94 309.20,110.88 310.72,110.83 312.23,110.83 313.75,110.48 315.27,110.46 316.79,110.44 318.30,110.38 319.82,110.21 321.34,109.78 322.86,109.70 324.37,109.70 325.89,109.70 327.41,109.70 328.93,109.70 330.44,109.70 331.96,109.70 333.48,109.70 334.99,109.70 336.51,109.70 338.03,109.70 339.55,109.70 341.06,109.70 342.58,109.68 344.10,109.57 345.62,109.55 347.13,109.55 348.65,109.55 350.17,109.55 351.69,109.47 353.20,109.47 354.72,109.16 356.24,108.87 357.76,108.87 359.27,108.87 360.79,108.87 362.31,108.87 363.83,108.83 365.34,108.83 366.86,108.79 368.38,108.66 369.89,108.54 371.41,108.02 372.93,108.00 374.45,107.20 375.96,106.74 377.48,106.39 379.00,105.29 380.52,105.00 382.03,104.88 383.55,104.51 385.07,103.95 386.59,103.81 388.10,103.62 389.62,103.31 391.14,103.04 392.66,102.92 394.17,102.73 395.69,102.59 397.21,102.24 398.72,101.93 400.24,101.57 401.76,100.97 403.28,100.62 404.79,98.89 406.31,97.60 407.83,96.76 409.35,96.05 410.86,95.25 412.38,95.25 413.90,95.25 415.42,95.25 416.93,94.75 418.45,94.46 419.97,93.82 421.49,93.08 423.00,92.08 424.52,90.49 426.04,89.60 427.56,87.97 429.07,87.02 430.59,86.42 432.11,85.43 433.62,84.66 435.14,83.34 436.66,81.42 438.18,80.86 439.69,80.05 441.21,79.35 442.73,79.12 444.25,78.23 445.76,78.07 447.28,77.01 448.80,76.04 450.32,75.46 451.83,74.78 453.35,73.85 454.87,73.58 456.39,73.44 457.90,73.31 459.42,73.19 460.94,72.46 462.46,71.62 463.97,70.31 465.49,69.92 467.01,69.24 468.52,68.14 470.04,65.68 471.56,63.82 473.08,61.75 474.59,61.30 476.11,60.39 477.63,58.55 479.15,57.43 480.66,56.81 482.18,55.88 483.70,55.39 485.22,54.71 486.73,54.40 488.25,53.36 489.77,51.79 491.29,50.30 492.80,49.85 494.32,49.08 495.84,47.68 497.36,46.64 498.87,45.09 500.39,44.29 501.91,42.71 503.42,40.59 504.94,38.79 506.46,34.98 507.98,32.29 509.49,30.43" />
    </svg>
  