
    <svg width="540" height="160" xmlns="http://www.w3.org/2000/svg">
      <style>.line{fill:none;stroke:#388bfd;stroke-width:1.5}.axis{stroke:#555;stroke-width:1;opacity:0.5}.label{fill:#999;font-family:sans-serif;font-size:10px;text-anchor:middle}</style>
      <line class="axis" x1="30" y1="30" x2="30" y2="130" />
      <line class="axis" x1="30" y1="130" x2="510" y2="130" />
      <text class="label" x="15" y="30">5,192</text>
      <text class="label" x="15" y="134">0</text>
      <text class="label" x="30" y="148">2021</text>
      <text class="label" x="510" y="148">2026</text>
      <polyline class="line" points="30.00,129.96 31.52,129.94 33.03,129.92 34.55,129.92 36.06,129.92 37.58,129.67 39.09,129.67 40.61,129.67 42.13,128.29 43.64,125.99 45.16,125.88 46.67,125.88 48.19,125.88 49.71,125.88 51.22,125.88 52.74,125.88 54.25,125.88 55.77,125.88 57.28,125.88 58.80,125.88 60.32,125.88 61.83,125.88 63.35,125.88 64.86,125.88 66.38,125.88 67.89,125.88 69.41,125.88 70.93,124.57 72.44,124.57 73.96,124.55 75.47,124.55 76.99,124.55 78.51,124.55 80.02,124.47 81.54,124.47 83.05,124.47 84.57,124.47 86.08,124.47 87.60,124.47 89.12,124.47 90.63,124.47 92.15,124.47 93.66,124.47 95.18,124.47 96.69,124.47 98.21,124.47 99.73,124.47 101.24,124.47 102.76,124.47 104.27,124.47 105.79,124.47 107.31,124.40 108.82,123.22 110.34,122.14 111.85,121.70 113.37,119.56 114.88,119.56 116.40,119.56 117.92,119.56 119.43,119.56 120.95,119.56 122.46,119.56 123.98,119.56 125.49,119.56 127.01,119.56 128.53,119.56 130.04,119.56 131.56,119.41 133.07,119.41 134.59,119.41 136.11,119.21 137.62,119.21 139.14,119.21 140.65,119.21 142.17,119.16 143.68,119.16 145.20,119.16 146.72,119.16 148.23,119.12 149.75,119.12 151.26,119.12 152.78,119.12 154.29,119.12 155.81,119.12 157.33,119.12 158.84,119.12 160.36,119.12 161.87,119.12 163.39,119.12 164.91,119.12 166.42,119.12 167.94,119.12 169.45,119.12 170.97,119.12 172.48,119.12 174.00,119.12 175.52,119.12 177.03,119.12 178.55,119.12 180.06,119.12 181.58,119.12 183.09,119.06 184.61,119.06 186.13,119.06 187.64,119.06 189.16,119.06 190.67,119.06 192.19,119.06 193.71,119.06 195.22,119.06 196.74,119.06 198.25,119.06 199.77,119.06 201.28,119.06 202.80,119.06 204.32,119.06 205.83,119.02 207.35,118.52 208.86,118.39 210.38,118.17 211.89,117.90 213.41,117.83 214.93,117.83 216.44,117.83 217.96,117.40 219.47,117.37 220.99,117.10 222.51,117.00 224.02,116.83 225.54,116.15 227.05,116.11 228.57,116.02 230.08,116.00 231.60,115.90 233.12,115.90 234.63,115.86 236.15,115.86 237.66,115.86 239.18,115.86 240.69,115.86 242.21,115.86 243.73,115.86 245.24,115.65 246.76,115.03 248.27,114.57 249.79,114.44 251.31,114.15 252.82,114.13 254.34,114.09 255.85,114.07 257.37,114.07 258.88,114.07 260.40,113.94 261.92,113.80 263.43,113.76 264.95,113.72 266.46,113.69 267.98,113.24 269.49,112.94 271.01,112.47 272.53,112.18 274.04,111.97 275.56,111.88 277.07,111.76 278.59,111.74 280.11,111.64 281.62,111.36 283.14,111.36 284.65,111.36 286.17,111.34 287.68,111.32 289.20,111.32 290.72,111.16 292.23,111.12 293.75,111.11 295.26,111.09 296.78,111.05 298.29,111.05 299.81,111.05 301.33,111.05 302.84,111.05 304.36,111.05 305.87,111.05 307.39,111.05 308.91,110.99 310.42,110.93 311.94,110.93 313.45,110.59 314.97,110.57 316.48,110.55 318.00,110.49 319.52,110.32 321.03,109.89 322.55,109.82 324.06,109.82 325.58,109.82 327.09,109.82 328.61,109.82 330.13,109.82 331.64,109.82 333.16,109.82 334.67,109.82 336.19,109.82 337.71,109.82 339.22,109.82 340.74,109.82 342.25,109.80 343.77,109.68 345.28,109.66 346.80,109.66 348.32,109.66 349.83,109.66 351.35,109.58 352.86,109.58 354.38,109.28 355.89,108.99 357.41,108.99 358.93,108.99 360.44,108.99 361.96,108.99 363.47,108.95 364.99,108.95 366.51,108.91 368.02,108.78 369.54,108.66 371.05,108.14 372.57,108.12 374.08,107.33 375.60,106.87 377.12,106.52 378.63,105.42 380.15,105.13 381.66,105.02 383.18,104.65 384.69,104.09 386.21,103.96 387.73,103.77 389.24,103.46 390.76,103.19 392.27,103.07 393.79,102.88 395.31,102.75 396.82,102.40 398.34,102.09 399.85,101.73 401.37,101.13 402.88,100.78 404.40,99.07 405.92,97.78 407.43,96.95 408.95,96.24 410.46,95.45 411.98,95.45 413.49,95.45 415.01,95.45 416.53,94.95 418.04,94.66 419.56,94.02 421.07,93.29 422.59,92.29 424.11,90.71 425.62,89.82 427.14,88.20 428.65,87.26 430.17,86.66 431.68,85.68 433.20,84.91 434.72,83.60 436.23,81.69 437.75,81.14 439.26,80.33 440.78,79.63 442.29,79.40 443.81,78.52 445.33,78.36 446.84,77.30 448.36,76.34 449.87,75.76 451.39,75.09 452.91,74.16 454.42,73.89 455.94,73.76 457.45,73.62 458.97,73.51 460.48,72.78 462.00,71.95 463.52,70.64 465.03,70.25 466.55,69.58 468.06,68.48 469.58,66.04 471.09,64.19 472.61,62.13 474.13,61.68 475.64,60.78 477.16,58.95 478.67,57.83 480.19,57.21 481.71,56.29 483.22,55.81 484.74,55.13 486.25,54.83 487.77,53.79 489.28,52.23 490.80,50.74 492.32,50.30 493.83,49.53 495.35,48.14 496.86,47.10 498.38,45.56 499.89,44.77 501.41,43.19 502.93,41.09 504.44,39.30 505.96,35.51 507.47,32.83 508.99,30.98" />
    </svg>
  