
    <svg width="540" height="160" xmlns="http://www.w3.org/2000/svg">
      <style>.line{fill:none;stroke:#388bfd;stroke-width:1.5}.axis{stroke:#555;stroke-width:1;opacity:0.5}.label{fill:#999;font-family:sans-serif;font-size:10px;text-anchor:middle}</style>
      <line class="axis" x1="30" y1="30" x2="30" y2="130" />
      <line class="axis" x1="30" y1="130" x2="510" y2="130" />
      <text class="label" x="15" y="30">8,049</text>
      <text class="label" x="15" y="134">0</text>
      <text class="label" x="30" y="148">2021</text>
      <text class="label" x="510" y="148">2026</text>
      <polyline class="line" points="30.00,129.98 31.48,129.96 32.96,129.95 34.45,129.95 35.93,129.95 37.41,129.79 38.89,129.79 40.38,129.79 41.86,128.89 43.34,127.42 44.82,127.34 46.30,127.34 47.79,127.34 49.27,127.34 50.75,127.34 52.23,127.34 53.72,127.34 55.20,127.34 56.68,127.34 58.16,127.34 59.64,127.34 61.13,127.34 62.61,127.34 64.09,127.34 65.57,127.34 67.06,127.34 68.54,127.34 70.02,126.50 71.50,126.50 72.99,126.48 74.47,126.48 75.95,126.48 77.43,126.48 78.91,126.43 80.40,126.43 81.88,126.43 83.36,126.43 84.84,126.43 86.33,126.43 87.81,126.43 89.29,126.43 90.77,126.43 92.25,126.43 93.74,126.43 95.22,126.43 96.70,126.43 98.18,126.43 99.67,126.43 101.15,126.43 102.63,126.43 104.11,126.43 105.59,126.38 107.08,125.63 108.56,124.93 110.04,124.65 111.52,123.27 113.01,123.27 114.49,123.27 115.97,123.27 117.45,123.27 118.93,123.27 120.42,123.27 121.90,123.27 123.38,123.27 124.86,123.27 126.35,123.27 127.83,123.27 129.31,123.17 130.79,123.17 132.27,123.17 133.76,123.04 135.24,123.04 136.72,123.04 138.20,123.04 139.69,123.01 141.17,123.01 142.65,123.01 144.13,123.01 145.62,122.98 147.10,122.98 148.58,122.98 150.06,122.98 151.54,122.98 153.03,122.98 154.51,122.98 155.99,122.98 157.47,122.98 158.96,122.98 160.44,122.98 161.92,122.98 163.40,122.98 164.88,122.98 166.37,122.98 167.85,122.98 169.33,122.98 170.81,122.98 172.30,122.98 173.78,122.98 175.26,122.98 176.74,122.98 178.22,122.98 179.71,122.94 181.19,122.94 182.67,122.94 184.15,122.94 185.64,122.94 187.12,122.94 188.60,122.94 190.08,122.94 191.56,122.94 193.05,122.94 194.53,122.94 196.01,122.94 197.49,122.94 198.98,122.94 200.46,122.94 201.94,122.92 203.42,122.60 204.90,122.51 206.39,122.37 207.87,122.20 209.35,122.15 210.83,122.15 212.32,122.15 213.80,121.87 215.28,121.85 216.76,121.68 218.24,121.61 219.73,121.50 221.21,121.07 222.69,121.04 224.17,120.98 225.66,120.97 227.14,120.91 228.62,120.91 230.10,120.88 231.59,120.88 233.07,120.88 234.55,120.88 236.03,120.88 237.51,120.88 239.00,120.88 240.48,120.74 241.96,120.35 243.44,120.05 244.93,119.96 246.41,119.78 247.89,119.76 249.37,119.74 250.85,119.73 252.34,119.73 253.82,119.73 255.30,119.64 256.78,119.55 258.27,119.53 259.75,119.50 261.23,119.48 262.71,119.19 264.19,118.99 265.68,118.69 267.16,118.51 268.64,118.37 270.12,118.31 271.61,118.23 273.09,118.22 274.57,118.16 276.05,117.97 277.53,117.97 279.02,117.97 280.50,117.96 281.98,117.95 283.46,117.95 284.95,117.85 286.43,117.82 287.91,117.81 289.39,117.80 290.87,117.77 292.36,117.77 293.84,117.77 295.32,117.77 296.80,117.77 298.29,117.77 299.77,117.77 301.25,117.77 302.73,117.74 304.22,117.70 305.70,117.70 307.18,117.48 308.66,117.46 310.14,117.45 311.63,117.41 313.11,117.30 314.59,117.03 316.07,116.98 317.56,116.98 319.04,116.98 320.52,116.98 322.00,116.98 323.48,116.98 324.97,116.98 326.45,116.98 327.93,116.98 329.41,116.98 330.90,116.98 332.38,116.98 333.86,116.98 335.34,116.97 336.82,116.89 338.31,116.88 339.79,116.88 341.27,116.88 342.75,116.88 344.24,116.83 345.72,116.83 347.20,116.63 348.68,116.45 350.16,116.45 351.65,116.45 353.13,116.45 354.61,116.45 356.09,116.42 357.58,116.42 359.06,116.40 360.54,116.31 362.02,116.23 363.50,115.90 364.99,115.89 366.47,115.38 367.95,115.08 369.43,114.86 370.92,114.15 372.40,113.96 373.88,113.89 375.36,113.65 376.85,113.29 378.33,113.20 379.81,113.08 381.29,112.88 382.77,112.71 384.26,112.63 385.74,112.51 387.22,112.42 388.70,112.20 390.19,112.00 391.67,111.76 393.15,111.38 394.63,111.15 396.11,110.05 397.60,109.21 399.08,108.68 400.56,108.22 402.04,107.71 403.53,107.71 405.01,107.71 406.49,107.71 407.97,107.39 409.45,107.20 410.94,106.53 412.42,105.77 413.90,104.89 415.38,103.56 416.87,102.63 418.35,100.72 419.83,99.56 421.31,98.79 422.79,97.55 424.28,96.75 425.76,95.18 427.24,92.79 428.72,92.07 430.21,91.14 431.69,90.24 433.17,89.95 434.65,88.80 436.13,88.60 437.62,87.24 439.10,85.99 440.58,85.25 442.06,84.40 443.55,83.29 445.03,82.99 446.51,82.89 447.99,82.76 449.48,82.69 450.96,81.98 452.44,81.06 453.92,79.94 455.40,79.63 456.89,78.73 458.37,77.56 459.85,75.24 461.33,73.52 462.82,71.41 464.30,70.85 465.78,69.73 467.26,67.66 468.74,66.48 470.23,65.83 471.71,64.92 473.19,64.33 474.67,63.47 476.16,63.07 477.64,62.20 479.12,60.55 480.60,58.72 482.08,58.16 483.57,57.22 485.05,55.71 486.53,54.81 488.01,53.00 489.50,52.04 490.98,50.18 492.46,48.29 493.94,46.30 495.42,42.93 496.91,40.66 498.39,38.70 499.87,37.43 501.35,35.81 502.84,34.37 504.32,33.69 505.80,32.47 507.28,31.02 508.76,30.70" />
    </svg>
  