
    <svg width="540" height="160" xmlns="http://www.w3.org/2000/svg">
      <style>.line{fill:none;stroke:#388bfd;stroke-width:1.5}.axis{stroke:#555;stroke-width:1;opacity:0.5}.label{fill:#999;font-family:sans-serif;font-size:10px;text-anchor:middle}</style>
      <line class="axis" x1="30" y1="30" x2="30" y2="130" />
      <line class="axis" x1="30" y1="130" x2="510" y2="130" />
      <text class="label" x="15" y="30">9,223</text>
      <text class="label" x="15" y="134">0</text>
      <text class="label" x="30" y="148">2021</text>
      <text class="label" x="510" y="148">2026</text>
      <polyline class="line" points="30.00,129.98 31.45,129.97 32.90,129.96 34.35,129.96 35.81,129.96 37.26,129.82 38.71,129.82 40.16,129.82 41.61,129.04 43.06,127.74 44.52,127.68 45.97,127.68 47.42,127.68 48.87,127.68 50.32,127.68 51.77,127.68 53.23,127.68 54.68,127.68 56.13,127.68 57.58,127.68 59.03,127.68 60.48,127.68 61.94,127.68 63.39,127.68 64.84,127.68 66.29,127.68 67.74,127.68 69.19,126.94 70.65,126.94 72.10,126.93 73.55,126.93 75.00,126.93 76.45,126.93 77.90,126.89 79.35,126.89 80.81,126.89 82.26,126.89 83.71,126.89 85.16,126.89 86.61,126.89 88.06,126.89 89.52,126.89 90.97,126.89 92.42,126.89 93.87,126.89 95.32,126.89 96.77,126.89 98.23,126.89 99.68,126.89 101.13,126.89 102.58,126.89 104.03,126.84 105.48,126.18 106.94,125.58 108.39,125.33 109.84,124.12 111.29,124.12 112.74,124.12 114.19,124.12 115.65,124.12 117.10,124.12 118.55,124.12 120.00,124.12 121.45,124.12 122.90,124.12 124.35,124.12 125.81,124.12 127.26,124.04 128.71,124.04 130.16,124.04 131.61,123.93 133.06,123.93 134.52,123.93 135.97,123.93 137.42,123.90 138.87,123.90 140.32,123.90 141.77,123.90 143.23,123.87 144.68,123.87 146.13,123.87 147.58,123.87 149.03,123.87 150.48,123.87 151.94,123.87 153.39,123.87 154.84,123.87 156.29,123.87 157.74,123.87 159.19,123.87 160.65,123.87 162.10,123.87 163.55,123.87 165.00,123.87 166.45,123.87 167.90,123.87 169.35,123.87 170.81,123.87 172.26,123.87 173.71,123.87 175.16,123.87 176.61,123.84 178.06,123.84 179.52,123.84 180.97,123.84 182.42,123.84 183.87,123.84 185.32,123.84 186.77,123.84 188.23,123.84 189.68,123.84 191.13,123.84 192.58,123.84 194.03,123.84 195.48,123.84 196.94,123.84 198.39,123.82 199.84,123.54 201.29,123.46 202.74,123.34 204.19,123.19 205.65,123.15 207.10,123.15 208.55,123.15 210.00,122.91 211.45,122.89 212.90,122.74 214.35,122.68 215.81,122.58 217.26,122.20 218.71,122.18 220.16,122.13 221.61,122.12 223.06,122.06 224.52,122.06 225.97,122.04 227.42,122.04 228.87,122.04 230.32,122.04 231.77,122.04 233.23,122.04 234.68,122.04 236.13,121.92 237.58,121.58 239.03,121.32 240.48,121.24 241.94,121.08 243.39,121.07 244.84,121.04 246.29,121.03 247.74,121.03 249.19,121.03 250.65,120.96 252.10,120.88 253.55,120.86 255.00,120.84 256.45,120.82 257.90,120.57 259.35,120.39 260.81,120.13 262.26,119.97 263.71,119.85 265.16,119.80 266.61,119.73 268.06,119.72 269.52,119.67 270.97,119.50 272.42,119.50 273.87,119.50 275.32,119.49 276.77,119.48 278.23,119.48 279.68,119.40 281.13,119.37 282.58,119.36 284.03,119.35 285.48,119.33 286.94,119.33 288.39,119.33 289.84,119.33 291.29,119.33 292.74,119.33 294.19,119.33 295.65,119.33 297.10,119.30 298.55,119.27 300.00,119.27 301.45,119.07 302.90,119.06 304.35,119.05 305.81,119.02 307.26,118.92 308.71,118.68 310.16,118.64 311.61,118.64 313.06,118.64 314.52,118.64 315.97,118.64 317.42,118.64 318.87,118.64 320.32,118.64 321.77,118.64 323.23,118.64 324.68,118.64 326.13,118.64 327.58,118.64 329.03,118.63 330.48,118.56 331.94,118.55 333.39,118.55 334.84,118.55 336.29,118.55 337.74,118.51 339.19,118.51 340.65,118.33 342.10,118.17 343.55,118.17 345.00,118.17 346.45,118.17 347.90,118.17 349.35,118.15 350.81,118.15 352.26,118.13 353.71,118.05 355.16,117.99 356.61,117.69 358.06,117.68 359.52,117.24 360.97,116.98 362.42,116.78 363.87,116.17 365.32,116.00 366.77,115.94 368.23,115.73 369.68,115.42 371.13,115.34 372.58,115.23 374.03,115.06 375.48,114.91 376.94,114.84 378.39,114.73 379.84,114.66 381.29,114.46 382.74,114.29 384.19,114.08 385.65,113.75 387.10,113.55 388.55,112.59 390.00,111.86 391.45,111.39 392.90,110.99 394.35,110.55 395.81,110.55 397.26,110.55 398.71,110.55 400.16,110.27 401.61,110.10 403.06,109.52 404.52,108.86 405.97,108.09 407.42,106.93 408.87,106.11 410.32,104.44 411.77,103.44 413.23,102.76 414.68,101.68 416.13,100.99 417.58,99.61 419.03,97.53 420.48,96.90 421.94,96.08 423.39,95.30 424.84,95.04 426.29,94.05 427.74,93.87 429.19,92.68 430.65,91.60 432.10,90.95 433.55,90.21 435.00,89.23 436.45,88.97 437.90,88.89 439.35,88.78 440.81,88.71 442.26,88.09 443.71,87.29 445.16,86.32 446.61,86.04 448.06,85.25 449.52,84.23 450.97,82.21 452.42,80.71 453.87,78.87 455.32,78.38 456.77,77.40 458.23,75.59 459.68,74.56 461.13,74.00 462.58,73.21 464.03,72.69 465.48,71.94 466.94,71.59 468.39,70.83 469.84,69.39 471.29,67.80 472.74,67.31 474.19,66.41 475.65,64.76 477.10,63.92 478.55,61.87 480.00,60.89 481.45,59.11 482.90,57.38 484.35,55.28 485.81,52.14 487.26,50.06 488.71,48.27 490.16,47.12 491.61,45.63 493.06,44.30 494.52,43.65 495.97,42.57 497.42,41.25 498.87,40.52 500.32,39.39 501.77,38.53 503.23,37.72 504.68,36.49 506.13,34.26 507.58,32.53 509.03,31.02" />
    </svg>
  