
    <svg width="540" height="160" xmlns="http://www.w3.org/2000/svg">
      <style>.line{fill:none;stroke:#388bfd;stroke-width:1.5}.axis{stroke:#555;stroke-width:1;opacity:0.5}.label{fill:#999;font-family:sans-serif;font-size:10px;text-anchor:middle}</style>
      <line class="axis" x1="30" y1="30" x2="30" y2="130" />
      <line class="axis" x1="30" y1="130" x2="510" y2="130" />
      <text class="label" x="15" y="30">9,314</text>
      <text class="label" x="15" y="134">0</text>
      <text class="label" x="30" y="148">2021</text>
      <text class="label" x="510" y="148">2026</text>
      <polyline class="line" points="30.00,129.98 31.44,129.97 32.89,129.96 34.33,129.96 35.77,129.96 37.21,129.82 38.66,129.82 40.10,129.82 41.54,129.04 42.99,127.77 44.43,127.70 45.87,127.70 47.31,127.70 48.76,127.70 50.20,127.70 51.64,127.70 53.09,127.70 54.53,127.70 55.97,127.70 57.41,127.70 58.86,127.70 60.30,127.70 61.74,127.70 63.19,127.70 64.63,127.70 66.07,127.70 67.52,127.70 68.96,126.97 70.40,126.97 71.84,126.96 73.29,126.96 74.73,126.96 76.17,126.96 77.62,126.92 79.06,126.92 80.50,126.92 81.94,126.92 83.39,126.92 84.83,126.92 86.27,126.92 87.72,126.92 89.16,126.92 90.60,126.92 92.04,126.92 93.49,126.92 94.93,126.92 96.37,126.92 97.82,126.92 99.26,126.92 100.70,126.92 102.14,126.92 103.59,126.88 105.03,126.22 106.47,125.62 107.92,125.37 109.36,124.18 110.80,124.18 112.24,124.18 113.69,124.18 115.13,124.18 116.57,124.18 118.02,124.18 119.46,124.18 120.90,124.18 122.34,124.18 123.79,124.18 125.23,124.18 126.67,124.09 128.12,124.09 129.56,124.09 131.00,123.99 132.44,123.99 133.89,123.99 135.33,123.99 136.77,123.96 138.22,123.96 139.66,123.96 141.10,123.96 142.55,123.93 143.99,123.93 145.43,123.93 146.87,123.93 148.32,123.93 149.76,123.93 151.20,123.93 152.65,123.93 154.09,123.93 155.53,123.93 156.97,123.93 158.42,123.93 159.86,123.93 161.30,123.93 162.75,123.93 164.19,123.93 165.63,123.93 167.07,123.93 168.52,123.93 169.96,123.93 171.40,123.93 172.85,123.93 174.29,123.93 175.73,123.90 177.17,123.90 178.62,123.90 180.06,123.90 181.50,123.90 182.95,123.90 184.39,123.90 185.83,123.90 187.27,123.90 188.72,123.90 190.16,123.90 191.60,123.90 193.05,123.90 194.49,123.90 195.93,123.90 197.37,123.88 198.82,123.60 200.26,123.53 201.70,123.41 203.15,123.26 204.59,123.21 206.03,123.21 207.47,123.21 208.92,122.98 210.36,122.96 211.80,122.81 213.25,122.75 214.69,122.66 216.13,122.28 217.58,122.26 219.02,122.21 220.46,122.19 221.90,122.14 223.35,122.14 224.79,122.12 226.23,122.12 227.68,122.12 229.12,122.12 230.56,122.12 232.00,122.12 233.45,122.12 234.89,122.00 236.33,121.66 237.78,121.40 239.22,121.32 240.66,121.16 242.10,121.15 243.55,121.13 244.99,121.12 246.43,121.12 247.88,121.12 249.32,121.05 250.76,120.97 252.20,120.95 253.65,120.93 255.09,120.91 256.53,120.66 257.98,120.49 259.42,120.23 260.86,120.07 262.30,119.95 263.75,119.90 265.19,119.83 266.63,119.82 268.08,119.77 269.52,119.61 270.96,119.61 272.40,119.61 273.85,119.60 275.29,119.59 276.73,119.59 278.18,119.50 279.62,119.48 281.06,119.47 282.51,119.46 283.95,119.44 285.39,119.44 286.83,119.44 288.28,119.44 289.72,119.44 291.16,119.44 292.61,119.44 294.05,119.44 295.49,119.40 296.93,119.37 298.38,119.37 299.82,119.18 301.26,119.17 302.71,119.16 304.15,119.12 305.59,119.03 307.03,118.79 308.48,118.75 309.92,118.75 311.36,118.75 312.81,118.75 314.25,118.75 315.69,118.75 317.13,118.75 318.58,118.75 320.02,118.75 321.46,118.75 322.91,118.75 324.35,118.75 325.79,118.75 327.23,118.74 328.68,118.67 330.12,118.66 331.56,118.66 333.01,118.66 334.45,118.66 335.89,118.62 337.33,118.62 338.78,118.45 340.22,118.29 341.66,118.29 343.11,118.29 344.55,118.29 345.99,118.29 347.43,118.26 348.88,118.26 350.32,118.24 351.76,118.17 353.21,118.10 354.65,117.81 356.09,117.80 357.54,117.36 358.98,117.11 360.42,116.91 361.86,116.30 363.31,116.14 364.75,116.07 366.19,115.87 367.64,115.56 369.08,115.48 370.52,115.38 371.96,115.21 373.41,115.05 374.85,114.99 376.29,114.88 377.74,114.81 379.18,114.61 380.62,114.44 382.06,114.24 383.51,113.91 384.95,113.71 386.39,112.76 387.84,112.04 389.28,111.58 390.72,111.18 392.16,110.74 393.61,110.74 395.05,110.74 396.49,110.74 397.94,110.46 399.38,110.30 400.82,109.72 402.26,109.06 403.71,108.30 405.15,107.15 406.59,106.35 408.04,104.69 409.48,103.70 410.92,103.03 412.36,101.96 413.81,101.27 415.25,99.91 416.69,97.84 418.14,97.22 419.58,96.42 421.02,95.64 422.46,95.39 423.91,94.40 425.35,94.23 426.79,93.04 428.24,91.97 429.68,91.33 431.12,90.60 432.57,89.63 434.01,89.37 435.45,89.29 436.89,89.18 438.34,89.12 439.78,88.50 441.22,87.71 442.67,86.74 444.11,86.47 445.55,85.69 446.99,84.68 448.44,82.67 449.88,81.19 451.32,79.37 452.77,78.88 454.21,77.92 455.65,76.12 457.09,75.10 458.54,74.55 459.98,73.76 461.42,73.25 462.87,72.51 464.31,72.16 465.75,71.41 467.19,69.98 468.64,68.40 470.08,67.92 471.52,67.03 472.97,65.40 474.41,64.56 475.85,62.53 477.29,61.57 478.74,59.80 480.18,58.09 481.62,56.01 483.07,52.90 484.51,50.84 485.95,49.07 487.39,47.93 488.84,46.46 490.28,45.14 491.72,44.49 493.17,43.42 494.61,42.12 496.05,41.39 497.49,40.27 498.94,39.43 500.38,38.62 501.82,37.41 503.27,35.20 504.71,33.42 506.15,31.93 507.60,30.70 509.04,30.25" />
    </svg>
  