
    <svg width="540" height="160" xmlns="http://www.w3.org/2000/svg">
      <style>.line{fill:none;stroke:#388bfd;stroke-width:1.5}.axis{stroke:#555;stroke-width:1;opacity:0.5}.label{fill:#999;font-family:sans-serif;font-size:10px;text-anchor:middle}</style>
      <line class="axis" x1="30" y1="30" x2="30" y2="130" />
      <line class="axis" x1="30" y1="130" x2="510" y2="130" />
      <text class="label" x="15" y="30">5,104</text>
      <text class="label" x="15" y="134">0</text>
      <text class="label" x="30" y="148">2021</text>
      <text class="label" x="510" y="148">2026</text>
      <polyline class="line" points="30.00,129.96 31.52,129.94 33.04,129.92 34.56,129.92 36.08,129.92 37.60,129.67 39.12,129.67 40.64,129.67 42.16,128.26 43.69,125.92 45.21,125.81 46.73,125.81 48.25,125.81 49.77,125.81 51.29,125.81 52.81,125.81 54.33,125.81 55.85,125.81 57.37,125.81 58.89,125.81 60.41,125.81 61.93,125.81 63.45,125.81 64.97,125.81 66.49,125.81 68.01,125.81 69.54,125.81 71.06,124.47 72.58,124.47 74.10,124.46 75.62,124.46 77.14,124.46 78.66,124.46 80.18,124.38 81.70,124.38 83.22,124.38 84.74,124.38 86.26,124.38 87.78,124.38 89.30,124.38 90.82,124.38 92.34,124.38 93.86,124.38 95.39,124.38 96.91,124.38 98.43,124.38 99.95,124.38 101.47,124.38 102.99,124.38 104.51,124.38 106.03,124.38 107.55,124.30 109.07,123.10 110.59,122.01 112.11,121.56 113.63,119.38 115.15,119.38 116.67,119.38 118.19,119.38 119.71,119.38 121.24,119.38 122.76,119.38 124.28,119.38 125.80,119.38 127.32,119.38 128.84,119.38 130.36,119.38 131.88,119.22 133.40,119.22 134.92,119.22 136.44,119.03 137.96,119.03 139.48,119.03 141.00,119.03 142.52,118.97 144.04,118.97 145.56,118.97 147.09,118.97 148.61,118.93 150.13,118.93 151.65,118.93 153.17,118.93 154.69,118.93 156.21,118.93 157.73,118.93 159.25,118.93 160.77,118.93 162.29,118.93 163.81,118.93 165.33,118.93 166.85,118.93 168.37,118.93 169.89,118.93 171.41,118.93 172.94,118.93 174.46,118.93 175.98,118.93 177.50,118.93 179.02,118.93 180.54,118.93 182.06,118.93 183.58,118.87 185.10,118.87 186.62,118.87 188.14,118.87 189.66,118.87 191.18,118.87 192.70,118.87 194.22,118.87 195.74,118.87 197.27,118.87 198.79,118.87 200.31,118.87 201.83,118.87 203.35,118.87 204.87,118.87 206.39,118.83 207.91,118.32 209.43,118.19 210.95,117.97 212.47,117.70 213.99,117.62 215.51,117.62 217.03,117.62 218.55,117.19 220.07,117.15 221.59,116.87 223.12,116.78 224.64,116.60 226.16,115.91 227.68,115.87 229.20,115.78 230.72,115.76 232.24,115.66 233.76,115.66 235.28,115.62 236.80,115.62 238.32,115.62 239.84,115.62 241.36,115.62 242.88,115.62 244.40,115.62 245.92,115.40 247.44,114.78 248.97,114.31 250.49,114.17 252.01,113.88 253.53,113.86 255.05,113.82 256.57,113.80 258.09,113.80 259.61,113.80 261.13,113.66 262.65,113.52 264.17,113.48 265.69,113.44 267.21,113.41 268.73,112.95 270.25,112.64 271.77,112.17 273.29,111.88 274.82,111.66 276.34,111.56 277.86,111.45 279.38,111.43 280.90,111.33 282.42,111.03 283.94,111.03 285.46,111.03 286.98,111.01 288.50,111.00 290.02,111.00 291.54,110.84 293.06,110.80 294.58,110.78 296.10,110.76 297.62,110.72 299.14,110.72 300.67,110.72 302.19,110.72 303.71,110.72 305.23,110.72 306.75,110.72 308.27,110.72 309.79,110.66 311.31,110.60 312.83,110.60 314.35,110.25 315.87,110.23 317.39,110.21 318.91,110.15 320.43,109.98 321.95,109.55 323.47,109.47 324.99,109.47 326.52,109.47 328.04,109.47 329.56,109.47 331.08,109.47 332.60,109.47 334.12,109.47 335.64,109.47 337.16,109.47 338.68,109.47 340.20,109.47 341.72,109.47 343.24,109.45 344.76,109.33 346.28,109.31 347.80,109.31 349.32,109.31 350.84,109.31 352.37,109.23 353.89,109.23 355.41,108.92 356.93,108.62 358.45,108.62 359.97,108.62 361.49,108.62 363.01,108.62 364.53,108.59 366.05,108.59 367.57,108.55 369.09,108.41 370.61,108.29 372.13,107.76 373.65,107.74 375.17,106.94 376.69,106.47 378.22,106.12 379.74,105.00 381.26,104.71 382.78,104.59 384.30,104.22 385.82,103.65 387.34,103.51 388.86,103.32 390.38,103.00 391.90,102.73 393.42,102.61 394.94,102.41 396.46,102.28 397.98,101.92 399.50,101.61 401.02,101.24 402.54,100.63 404.07,100.28 405.59,98.53 407.11,97.22 408.63,96.38 410.15,95.65 411.67,94.85 413.19,94.85 414.71,94.85 416.23,94.85 417.75,94.34 419.27,94.05 420.79,93.40 422.31,92.66 423.83,91.64 425.35,90.03 426.87,89.13 428.39,87.48 429.92,86.52 431.44,85.92 432.96,84.92 434.48,84.13 436.00,82.80 437.52,80.86 439.04,80.29 440.56,79.47 442.08,78.77 443.60,78.53 445.12,77.63 446.64,77.47 448.16,76.39 449.68,75.42 451.20,74.83 452.72,74.14 454.24,73.20 455.77,72.93 457.29,72.79 458.81,72.65 460.33,72.54 461.85,71.79 463.37,70.95 464.89,69.62 466.41,69.22 467.93,68.54 469.45,67.42 470.97,64.93 472.49,63.05 474.01,60.96 475.53,60.51 477.05,59.58 478.57,57.72 480.10,56.59 481.62,55.96 483.14,55.02 484.66,54.53 486.18,53.84 487.70,53.53 489.22,52.47 490.74,50.89 492.26,49.38 493.78,48.93 495.30,48.14 496.82,46.73 498.34,45.67 499.86,44.11 501.38,43.30 502.90,41.70 504.42,39.56 505.95,37.74 507.47,33.88 508.99,31.16" />
    </svg>
  