
    <svg width="540" height="160" xmlns="http://www.w3.org/2000/svg">
      <style>.line{fill:none;stroke:#388bfd;stroke-width:1.5}.axis{stroke:#555;stroke-width:1;opacity:0.5}.label{fill:#999;font-family:sans-serif;font-size:10px;text-anchor:middle}</style>
      <line class="axis" x1="30" y1="30" x2="30" y2="130" />
      <line class="axis" x1="30" y1="130" x2="510" y2="130" />
      <text class="label" x="15" y="30">9,073</text>
      <text class="label" x="15" y="134">0</text>
      <text class="label" x="30" y="148">2021</text>
      <text class="label" x="510" y="148">2026</text>
      <polyline class="line" points="30.00,129.98 31.46,129.97 32.91,129.96 34.37,129.96 35.82,129.96 37.28,129.81 38.74,129.81 40.19,129.81 41.65,129.02 43.10,127.71 44.56,127.64 46.02,127.64 47.47,127.64 48.93,127.64 50.38,127.64 51.84,127.64 53.30,127.64 54.75,127.64 56.21,127.64 57.66,127.64 59.12,127.64 60.58,127.64 62.03,127.64 63.49,127.64 64.94,127.64 66.40,127.64 67.86,127.64 69.31,126.89 70.77,126.89 72.22,126.88 73.68,126.88 75.14,126.88 76.59,126.88 78.05,126.84 79.50,126.84 80.96,126.84 82.42,126.84 83.87,126.84 85.33,126.84 86.78,126.84 88.24,126.84 89.70,126.84 91.15,126.84 92.61,126.84 94.06,126.84 95.52,126.84 96.98,126.84 98.43,126.84 99.89,126.84 101.34,126.84 102.80,126.84 104.26,126.79 105.71,126.12 107.17,125.50 108.62,125.25 110.08,124.03 111.54,124.03 112.99,124.03 114.45,124.03 115.90,124.03 117.36,124.03 118.82,124.03 120.27,124.03 121.73,124.03 123.19,124.03 124.64,124.03 126.10,124.03 127.55,123.94 129.01,123.94 130.47,123.94 131.92,123.83 133.38,123.83 134.83,123.83 136.29,123.83 137.75,123.79 139.20,123.79 140.66,123.79 142.11,123.79 143.57,123.77 145.03,123.77 146.48,123.77 147.94,123.77 149.39,123.77 150.85,123.77 152.31,123.77 153.76,123.77 155.22,123.77 156.67,123.77 158.13,123.77 159.59,123.77 161.04,123.77 162.50,123.77 163.95,123.77 165.41,123.77 166.87,123.77 168.32,123.77 169.78,123.77 171.23,123.77 172.69,123.77 174.15,123.77 175.60,123.77 177.06,123.74 178.51,123.74 179.97,123.74 181.43,123.74 182.88,123.74 184.34,123.74 185.79,123.74 187.25,123.74 188.71,123.74 190.16,123.74 191.62,123.74 193.07,123.74 194.53,123.74 195.99,123.74 197.44,123.74 198.90,123.72 200.35,123.43 201.81,123.35 203.27,123.23 204.72,123.08 206.18,123.03 207.63,123.03 209.09,123.03 210.55,122.79 212.00,122.77 213.46,122.62 214.91,122.56 216.37,122.46 217.83,122.08 219.28,122.05 220.74,122.00 222.19,121.99 223.65,121.93 225.11,121.93 226.56,121.91 228.02,121.91 229.47,121.91 230.93,121.91 232.39,121.91 233.84,121.91 235.30,121.91 236.75,121.79 238.21,121.44 239.67,121.17 241.12,121.09 242.58,120.93 244.03,120.92 245.49,120.90 246.95,120.89 248.40,120.89 249.86,120.89 251.31,120.81 252.77,120.73 254.23,120.71 255.68,120.69 257.14,120.66 258.59,120.41 260.05,120.23 261.51,119.97 262.96,119.80 264.42,119.68 265.87,119.63 267.33,119.56 268.79,119.55 270.24,119.50 271.70,119.33 273.15,119.33 274.61,119.33 276.07,119.32 277.52,119.31 278.98,119.31 280.43,119.22 281.89,119.20 283.35,119.19 284.80,119.18 286.26,119.15 287.71,119.15 289.17,119.15 290.63,119.15 292.08,119.15 293.54,119.15 294.99,119.15 296.45,119.15 297.91,119.12 299.36,119.09 300.82,119.09 302.28,118.89 303.73,118.88 305.19,118.87 306.64,118.84 308.10,118.74 309.56,118.49 311.01,118.45 312.47,118.45 313.92,118.45 315.38,118.45 316.84,118.45 318.29,118.45 319.75,118.45 321.20,118.45 322.66,118.45 324.12,118.45 325.57,118.45 327.03,118.45 328.48,118.45 329.94,118.44 331.40,118.37 332.85,118.36 334.31,118.36 335.76,118.36 337.22,118.36 338.68,118.32 340.13,118.32 341.59,118.14 343.04,117.98 344.50,117.98 345.96,117.98 347.41,117.98 348.87,117.98 350.32,117.95 351.78,117.95 353.24,117.93 354.69,117.85 356.15,117.79 357.60,117.49 359.06,117.48 360.52,117.03 361.97,116.76 363.43,116.56 364.88,115.94 366.34,115.77 367.80,115.70 369.25,115.50 370.71,115.18 372.16,115.10 373.62,114.99 375.08,114.81 376.53,114.66 377.99,114.59 379.44,114.48 380.90,114.40 382.36,114.21 383.81,114.03 385.27,113.82 386.72,113.48 388.18,113.28 389.64,112.30 391.09,111.56 392.55,111.09 394.00,110.68 395.46,110.23 396.92,110.23 398.37,110.23 399.83,110.23 401.28,109.94 402.74,109.78 404.20,109.18 405.65,108.51 407.11,107.73 408.56,106.55 410.02,105.72 411.48,104.02 412.93,103.00 414.39,102.31 415.84,101.21 417.30,100.51 418.76,99.11 420.21,96.99 421.67,96.35 423.12,95.52 424.58,94.73 426.04,94.47 427.49,93.45 428.95,93.28 430.40,92.06 431.86,90.96 433.32,90.30 434.77,89.55 436.23,88.56 437.68,88.29 439.14,88.21 440.60,88.10 442.05,88.03 443.51,87.40 444.96,86.59 446.42,85.59 447.88,85.32 449.33,84.51 450.79,83.48 452.24,81.42 453.70,79.90 455.16,78.02 456.61,77.53 458.07,76.53 459.52,74.69 460.98,73.65 462.44,73.07 463.89,72.27 465.35,71.74 466.80,70.98 468.26,70.63 469.72,69.85 471.17,68.39 472.63,66.77 474.08,66.27 475.54,65.36 477.00,63.68 478.45,62.82 479.91,60.74 481.37,59.75 482.82,57.94 484.28,56.18 485.73,54.05 487.19,50.85 488.65,48.74 490.10,46.92 491.56,45.75 493.01,44.24 494.47,42.88 495.93,42.22 497.38,41.12 498.84,39.79 500.29,39.04 501.75,37.89 503.21,37.02 504.66,36.19 506.12,34.95 507.57,32.68 509.03,30.91" />
    </svg>
  