
    <svg width="540" height="160" xmlns="http://www.w3.org/2000/svg">
      <style>.line{fill:none;stroke:#388bfd;stroke-width:1.5}.axis{stroke:#555;stroke-width:1;opacity:0.5}.label{fill:#999;font-family:sans-serif;font-size:10px;text-anchor:middle}</style>
      <line class="axis" x1="30" y1="30" x2="30" y2="130" />
      <line class="axis" x1="30" y1="130" x2="510" y2="130" />
      <text class="label" x="15" y="30">5,113</text>
      <text class="label" x="15" y="134">0</text>
      <text class="label" x="30" y="148">2021</text>
      <text class="label" x="510" y="148">2026</text>
      <polyline class="line" points="30.00,129.96 31.52,129.94 33.04,129.92 34.56,129.92 36.08,129.92 37.59,129.67 39.11,129.67 40.63,129.67 42.15,128.26 43.67,125.93 45.19,125.81 46.71,125.81 48.23,125.81 49.75,125.81 51.27,125.81 52.78,125.81 54.30,125.81 55.82,125.81 57.34,125.81 58.86,125.81 60.38,125.81 61.90,125.81 63.42,125.81 64.94,125.81 66.46,125.81 67.97,125.81 69.49,125.81 71.01,124.48 72.53,124.48 74.05,124.47 75.57,124.47 77.09,124.47 78.61,124.47 80.13,124.39 81.65,124.39 83.16,124.39 84.68,124.39 86.20,124.39 87.72,124.39 89.24,124.39 90.76,124.39 92.28,124.39 93.80,124.39 95.32,124.39 96.84,124.39 98.35,124.39 99.87,124.39 101.39,124.39 102.91,124.39 104.43,124.39 105.95,124.39 107.47,124.31 108.99,123.12 110.51,122.02 112.03,121.57 113.54,119.40 115.06,119.40 116.58,119.40 118.10,119.40 119.62,119.40 121.14,119.40 122.66,119.40 124.18,119.40 125.70,119.40 127.22,119.40 128.73,119.40 130.25,119.40 131.77,119.24 133.29,119.24 134.81,119.24 136.33,119.05 137.85,119.05 139.37,119.05 140.89,119.05 142.41,118.99 143.92,118.99 145.44,118.99 146.96,118.99 148.48,118.95 150.00,118.95 151.52,118.95 153.04,118.95 154.56,118.95 156.08,118.95 157.59,118.95 159.11,118.95 160.63,118.95 162.15,118.95 163.67,118.95 165.19,118.95 166.71,118.95 168.23,118.95 169.75,118.95 171.27,118.95 172.78,118.95 174.30,118.95 175.82,118.95 177.34,118.95 178.86,118.95 180.38,118.95 181.90,118.95 183.42,118.89 184.94,118.89 186.46,118.89 187.97,118.89 189.49,118.89 191.01,118.89 192.53,118.89 194.05,118.89 195.57,118.89 197.09,118.89 198.61,118.89 200.13,118.89 201.65,118.89 203.16,118.89 204.68,118.89 206.20,118.85 207.72,118.34 209.24,118.21 210.76,117.99 212.28,117.72 213.80,117.64 215.32,117.64 216.84,117.64 218.35,117.21 219.87,117.17 221.39,116.90 222.91,116.80 224.43,116.62 225.95,115.94 227.47,115.90 228.99,115.80 230.51,115.78 232.03,115.68 233.54,115.68 235.06,115.64 236.58,115.64 238.10,115.64 239.62,115.64 241.14,115.64 242.66,115.64 244.18,115.64 245.70,115.43 247.22,114.80 248.73,114.33 250.25,114.20 251.77,113.90 253.29,113.88 254.81,113.85 256.33,113.83 257.85,113.83 259.37,113.83 260.89,113.69 262.41,113.55 263.92,113.51 265.44,113.47 266.96,113.43 268.48,112.98 270.00,112.67 271.52,112.20 273.04,111.91 274.56,111.69 276.08,111.60 277.59,111.48 279.11,111.46 280.63,111.36 282.15,111.07 283.67,111.07 285.19,111.07 286.71,111.05 288.23,111.03 289.75,111.03 291.27,110.87 292.78,110.83 294.30,110.81 295.82,110.79 297.34,110.75 298.86,110.75 300.38,110.75 301.90,110.75 303.42,110.75 304.94,110.75 306.46,110.75 307.97,110.75 309.49,110.70 311.01,110.64 312.53,110.64 314.05,110.29 315.57,110.27 317.09,110.25 318.61,110.19 320.13,110.01 321.65,109.58 323.16,109.50 324.68,109.50 326.20,109.50 327.72,109.50 329.24,109.50 330.76,109.50 332.28,109.50 333.80,109.50 335.32,109.50 336.84,109.50 338.35,109.50 339.87,109.50 341.39,109.50 342.91,109.48 344.43,109.37 345.95,109.35 347.47,109.35 348.99,109.35 350.51,109.35 352.03,109.27 353.54,109.27 355.06,108.96 356.58,108.66 358.10,108.66 359.62,108.66 361.14,108.66 362.66,108.66 364.18,108.62 365.70,108.62 367.22,108.58 368.73,108.45 370.25,108.33 371.77,107.80 373.29,107.78 374.81,106.98 376.33,106.51 377.85,106.16 379.37,105.04 380.89,104.75 382.41,104.63 383.92,104.26 385.44,103.69 386.96,103.56 388.48,103.36 390.00,103.05 391.52,102.78 393.04,102.66 394.56,102.46 396.08,102.33 397.59,101.97 399.11,101.66 400.63,101.29 402.15,100.68 403.67,100.33 405.19,98.59 406.71,97.28 408.23,96.44 409.75,95.71 411.27,94.91 412.78,94.91 414.30,94.91 415.82,94.91 417.34,94.40 418.86,94.11 420.38,93.47 421.90,92.72 423.42,91.71 424.94,90.10 426.46,89.20 427.97,87.56 429.49,86.60 431.01,85.99 432.53,85.00 434.05,84.21 435.57,82.88 437.09,80.95 438.61,80.38 440.13,79.56 441.65,78.86 443.16,78.62 444.68,77.72 446.20,77.57 447.72,76.49 449.24,75.51 450.76,74.92 452.28,74.24 453.80,73.30 455.32,73.03 456.84,72.89 458.35,72.75 459.87,72.64 461.39,71.89 462.91,71.05 464.43,69.72 465.95,69.33 467.47,68.65 468.99,67.53 470.51,65.05 472.03,63.17 473.54,61.08 475.06,60.63 476.58,59.71 478.10,57.85 479.62,56.72 481.14,56.09 482.66,55.15 484.18,54.66 485.70,53.98 487.22,53.67 488.73,52.61 490.25,51.02 491.77,49.52 493.29,49.07 494.81,48.29 496.33,46.88 497.85,45.82 499.37,44.26 500.89,43.46 502.41,41.85 503.92,39.72 505.44,37.90 506.96,34.05 508.48,31.33 510.00,30.00" />
    </svg>
  