
    <svg width="540" height="160" xmlns="http://www.w3.org/2000/svg">
      <style>.line{fill:none;stroke:#388bfd;stroke-width:1.5}.axis{stroke:#555;stroke-width:1;opacity:0.5}.label{fill:#999;font-family:sans-serif;font-size:10px;text-anchor:middle}</style>
      <line class="axis" x1="30" y1="30" x2="30" y2="130" />
      <line class="axis" x1="30" y1="130" x2="510" y2="130" />
      <text class="label" x="15" y="30">7,868</text>
      <text class="label" x="15" y="134">0</text>
      <text class="label" x="30" y="148">2021</text>
      <text class="label" x="510" y="148">2026</text>
      <polyline class="line" points="30.00,129.97 31.48,129.96 32.97,129.95 34.45,129.95 35.93,129.95 37.42,129.78 38.90,129.78 40.38,129.78 41.86,128.87 43.35,127.36 44.83,127.28 46.31,127.28 47.80,127.28 49.28,127.28 50.76,127.28 52.25,127.28 53.73,127.28 55.21,127.28 56.69,127.28 58.18,127.28 59.66,127.28 61.14,127.28 62.63,127.28 64.11,127.28 65.59,127.28 67.08,127.28 68.56,127.28 70.04,126.42 71.52,126.42 73.01,126.40 74.49,126.40 75.97,126.40 77.46,126.40 78.94,126.35 80.42,126.35 81.91,126.35 83.39,126.35 84.87,126.35 86.35,126.35 87.84,126.35 89.32,126.35 90.80,126.35 92.29,126.35 93.77,126.35 95.25,126.35 96.74,126.35 98.22,126.35 99.70,126.35 101.18,126.35 102.67,126.35 104.15,126.35 105.63,126.30 107.12,125.53 108.60,124.81 110.08,124.52 111.57,123.11 113.05,123.11 114.53,123.11 116.01,123.11 117.50,123.11 118.98,123.11 120.46,123.11 121.95,123.11 123.43,123.11 124.91,123.11 126.40,123.11 127.88,123.11 129.36,123.01 130.84,123.01 132.33,123.01 133.81,122.88 135.29,122.88 136.78,122.88 138.26,122.88 139.74,122.84 141.23,122.84 142.71,122.84 144.19,122.84 145.67,122.82 147.16,122.82 148.64,122.82 150.12,122.82 151.61,122.82 153.09,122.82 154.57,122.82 156.06,122.82 157.54,122.82 159.02,122.82 160.50,122.82 161.99,122.82 163.47,122.82 164.95,122.82 166.44,122.82 167.92,122.82 169.40,122.82 170.89,122.82 172.37,122.82 173.85,122.82 175.33,122.82 176.82,122.82 178.30,122.82 179.78,122.78 181.27,122.78 182.75,122.78 184.23,122.78 185.72,122.78 187.20,122.78 188.68,122.78 190.16,122.78 191.65,122.78 193.13,122.78 194.61,122.78 196.10,122.78 197.58,122.78 199.06,122.78 200.55,122.78 202.03,122.76 203.51,122.43 204.99,122.34 206.48,122.20 207.96,122.02 209.44,121.97 210.93,121.97 212.41,121.97 213.89,121.69 215.38,121.66 216.86,121.48 218.34,121.42 219.82,121.31 221.31,120.86 222.79,120.84 224.27,120.77 225.76,120.76 227.24,120.70 228.72,120.70 230.21,120.67 231.69,120.67 233.17,120.67 234.65,120.67 236.14,120.67 237.62,120.67 239.10,120.67 240.59,120.53 242.07,120.12 243.55,119.82 245.04,119.73 246.52,119.54 248.00,119.53 249.49,119.50 250.97,119.49 252.45,119.49 253.93,119.49 255.42,119.40 256.90,119.31 258.38,119.29 259.87,119.26 261.35,119.23 262.83,118.94 264.32,118.74 265.80,118.43 267.28,118.24 268.76,118.10 270.25,118.04 271.73,117.96 273.21,117.95 274.70,117.89 276.18,117.70 277.66,117.70 279.15,117.70 280.63,117.68 282.11,117.67 283.59,117.67 285.08,117.57 286.56,117.54 288.04,117.53 289.53,117.52 291.01,117.49 292.49,117.49 293.98,117.49 295.46,117.49 296.94,117.49 298.42,117.49 299.91,117.49 301.39,117.49 302.87,117.46 304.36,117.42 305.84,117.42 307.32,117.19 308.81,117.18 310.29,117.16 311.77,117.13 313.25,117.01 314.74,116.73 316.22,116.68 317.70,116.68 319.19,116.68 320.67,116.68 322.15,116.68 323.64,116.68 325.12,116.68 326.60,116.68 328.08,116.68 329.57,116.68 331.05,116.68 332.53,116.68 334.02,116.68 335.50,116.67 336.98,116.59 338.47,116.58 339.95,116.58 341.43,116.58 342.91,116.58 344.40,116.53 345.88,116.53 347.36,116.32 348.85,116.13 350.33,116.13 351.81,116.13 353.30,116.13 354.78,116.13 356.26,116.11 357.74,116.11 359.23,116.08 360.71,115.99 362.19,115.92 363.68,115.57 365.16,115.56 366.64,115.04 368.13,114.74 369.61,114.51 371.09,113.78 372.57,113.59 374.06,113.52 375.54,113.27 377.02,112.91 378.51,112.82 379.99,112.69 381.47,112.49 382.96,112.31 384.44,112.23 385.92,112.10 387.40,112.02 388.89,111.79 390.37,111.58 391.85,111.34 393.34,110.95 394.82,110.72 396.30,109.59 397.79,108.74 399.27,108.19 400.75,107.72 402.23,107.20 403.72,107.20 405.20,107.20 406.68,107.20 408.17,106.87 409.65,106.68 411.13,105.99 412.62,105.22 414.10,104.31 415.58,102.95 417.06,102.00 418.55,100.04 420.03,98.86 421.51,98.07 423.00,96.80 424.48,95.99 425.96,94.37 427.45,91.93 428.93,91.20 430.41,90.24 431.89,89.33 433.38,89.02 434.86,87.85 436.34,87.65 437.83,86.25 439.31,84.98 440.79,84.22 442.28,83.36 443.76,82.21 445.24,81.91 446.73,81.80 448.21,81.68 449.69,81.60 451.17,80.88 452.66,79.94 454.14,78.79 455.62,78.47 457.11,77.55 458.59,76.35 460.07,73.98 461.56,72.22 463.04,70.06 464.52,69.49 466.00,68.35 467.49,66.22 468.97,65.02 470.45,64.35 471.94,63.43 473.42,62.82 474.90,61.94 476.39,61.53 477.87,60.64 479.35,58.95 480.83,57.08 482.32,56.51 483.80,55.55 485.28,54.00 486.77,53.08 488.25,51.23 489.73,50.25 491.22,48.34 492.70,46.41 494.18,44.37 495.66,40.93 497.15,38.83 498.63,36.83 500.11,35.71 501.60,34.05 503.08,32.64 504.56,32.16 506.05,31.36 507.53,30.42 509.01,30.22" />
    </svg>
  