
    <svg width="540" height="160" xmlns="http://www.w3.org/2000/svg">
      <style>.line{fill:none;stroke:#388bfd;stroke-width:1.5}.axis{stroke:#555;stroke-width:1;opacity:0.5}.label{fill:#999;font-family:sans-serif;font-size:10px;text-anchor:middle}</style>
      <line class="axis" x1="30" y1="30" x2="30" y2="130" />
      <line class="axis" x1="30" y1="130" x2="510" y2="130" />
      <text class="label" x="15" y="30">7,425</text>
      <text class="label" x="15" y="134">0</text>
      <text class="label" x="30" y="148">2021</text>
      <text class="label" x="510" y="148">2026</text>
      <polyline class="line" points="30.00,129.97 31.51,129.96 33.01,129.95 34.52,129.95 36.02,129.95 37.53,129.77 39.03,129.77 40.54,129.77 42.04,128.80 43.55,127.20 45.05,127.12 46.56,127.12 48.07,127.12 49.57,127.12 51.08,127.12 52.58,127.12 54.09,127.12 55.59,127.12 57.10,127.12 58.60,127.12 60.11,127.12 61.62,127.12 63.12,127.12 64.63,127.12 66.13,127.12 67.64,127.12 69.14,127.12 70.65,126.20 72.15,126.20 73.66,126.19 75.16,126.19 76.67,126.19 78.18,126.19 79.68,126.13 81.19,126.13 82.69,126.13 84.20,126.13 85.70,126.13 87.21,126.13 88.71,126.13 90.22,126.13 91.73,126.13 93.23,126.13 94.74,126.13 96.24,126.13 97.75,126.13 99.25,126.13 100.76,126.13 102.26,126.13 103.77,126.13 105.27,126.13 106.78,126.08 108.29,125.26 109.79,124.51 111.30,124.20 112.80,122.70 114.31,122.70 115.81,122.70 117.32,122.70 118.82,122.70 120.33,122.70 121.83,122.70 123.34,122.70 124.85,122.70 126.35,122.70 127.86,122.70 129.36,122.70 130.87,122.59 132.37,122.59 133.88,122.59 135.38,122.46 136.89,122.46 138.40,122.46 139.90,122.46 141.41,122.42 142.91,122.42 144.42,122.42 145.92,122.42 147.43,122.39 148.93,122.39 150.44,122.39 151.94,122.39 153.45,122.39 154.96,122.39 156.46,122.39 157.97,122.39 159.47,122.39 160.98,122.39 162.48,122.39 163.99,122.39 165.49,122.39 167.00,122.39 168.50,122.39 170.01,122.39 171.52,122.39 173.02,122.39 174.53,122.39 176.03,122.39 177.54,122.39 179.04,122.39 180.55,122.39 182.05,122.35 183.56,122.35 185.07,122.35 186.57,122.35 188.08,122.35 189.58,122.35 191.09,122.35 192.59,122.35 194.10,122.35 195.60,122.35 197.11,122.35 198.61,122.35 200.12,122.35 201.63,122.35 203.13,122.35 204.64,122.32 206.14,121.97 207.65,121.88 209.15,121.73 210.66,121.54 212.16,121.49 213.67,121.49 215.18,121.49 216.68,121.19 218.19,121.16 219.69,120.98 221.20,120.91 222.70,120.79 224.21,120.32 225.71,120.29 227.22,120.22 228.72,120.21 230.23,120.14 231.74,120.14 233.24,120.11 234.75,120.11 236.25,120.11 237.76,120.11 239.26,120.11 240.77,120.11 242.27,120.11 243.78,119.97 245.28,119.54 246.79,119.21 248.30,119.12 249.80,118.92 251.31,118.90 252.81,118.88 254.32,118.86 255.82,118.86 257.33,118.86 258.83,118.77 260.34,118.67 261.85,118.65 263.35,118.62 264.86,118.59 266.36,118.28 267.87,118.07 269.37,117.74 270.88,117.54 272.38,117.39 273.89,117.33 275.39,117.25 276.90,117.23 278.41,117.16 279.91,116.96 281.42,116.96 282.92,116.96 284.43,116.95 285.93,116.94 287.44,116.94 288.94,116.83 290.45,116.80 291.96,116.79 293.46,116.77 294.97,116.75 296.47,116.75 297.98,116.75 299.48,116.75 300.99,116.75 302.49,116.75 304.00,116.75 305.50,116.75 307.01,116.71 308.52,116.67 310.02,116.67 311.53,116.42 313.03,116.41 314.54,116.40 316.04,116.36 317.55,116.24 319.05,115.94 320.56,115.89 322.06,115.89 323.57,115.89 325.08,115.89 326.58,115.89 328.09,115.89 329.59,115.89 331.10,115.89 332.60,115.89 334.11,115.89 335.61,115.89 337.12,115.89 338.63,115.89 340.13,115.87 341.64,115.79 343.14,115.78 344.65,115.78 346.15,115.78 347.66,115.78 349.16,115.72 350.67,115.72 352.17,115.51 353.68,115.31 355.19,115.31 356.69,115.31 358.20,115.31 359.70,115.31 361.21,115.28 362.71,115.28 364.22,115.25 365.72,115.16 367.23,115.08 368.73,114.71 370.24,114.70 371.75,114.15 373.25,113.82 374.76,113.58 376.26,112.81 377.77,112.61 379.27,112.53 380.78,112.28 382.28,111.89 383.79,111.79 385.30,111.66 386.80,111.44 388.31,111.25 389.81,111.17 391.32,111.04 392.82,110.94 394.33,110.70 395.83,110.48 397.34,110.23 398.84,109.81 400.35,109.57 401.86,108.37 403.36,107.47 404.87,106.89 406.37,106.39 407.88,105.84 409.38,105.84 410.89,105.84 412.39,105.84 413.90,105.49 415.41,105.29 416.91,104.56 418.42,103.74 419.92,102.78 421.43,101.34 422.93,100.33 424.44,98.26 425.94,97.00 427.45,96.17 428.95,94.82 430.46,93.96 431.97,92.25 433.47,89.66 434.98,88.88 436.48,87.87 437.99,86.90 439.49,86.58 441.00,85.34 442.50,85.12 444.01,83.64 445.51,82.30 447.02,81.49 448.53,80.57 450.03,79.36 451.54,79.04 453.04,78.93 454.55,78.79 456.05,78.71 457.56,77.95 459.06,76.95 460.57,75.74 462.08,75.40 463.58,74.42 465.09,73.15 466.59,70.63 468.10,68.77 469.60,66.48 471.11,65.88 472.61,64.67 474.12,62.42 475.62,61.14 477.13,60.44 478.64,59.45 480.14,58.81 481.65,57.88 483.15,57.45 484.66,56.51 486.16,54.71 487.67,52.73 489.17,52.13 490.68,51.20 492.19,49.96 493.69,49.07 495.20,47.68 496.70,46.82 498.21,44.99 499.71,43.05 501.22,41.34 502.72,37.95 504.23,35.85 505.73,33.81 507.24,32.68 508.75,31.02" />
    </svg>
  