
    <svg width="540" height="160" xmlns="http://www.w3.org/2000/svg">
      <style>.line{fill:none;stroke:#388bfd;stroke-width:1.5}.axis{stroke:#555;stroke-width:1;opacity:0.5}.label{fill:#999;font-family:sans-serif;font-size:10px;text-anchor:middle}</style>
      <line class="axis" x1="30" y1="30" x2="30" y2="130" />
      <line class="axis" x1="30" y1="130" x2="510" y2="130" />
      <text class="label" x="15" y="30">9,438</text>
      <text class="label" x="15" y="134">0</text>
      <text class="label" x="30" y="148">2021</text>
      <text class="label" x="510" y="148">2026</text>
      <polyline class="line" points="30.00,129.98 31.43,129.97 32.86,129.96 34.30,129.96 35.73,129.96 37.16,129.82 38.59,129.82 40.02,129.82 41.46,129.06 42.89,127.80 44.32,127.73 45.75,127.73 47.19,127.73 48.62,127.73 50.05,127.73 51.48,127.73 52.91,127.73 54.35,127.73 55.78,127.73 57.21,127.73 58.64,127.73 60.07,127.73 61.51,127.73 62.94,127.73 64.37,127.73 65.80,127.73 67.24,127.73 68.67,127.01 70.10,127.01 71.53,127.00 72.96,127.00 74.40,127.00 75.83,127.00 77.26,126.96 78.69,126.96 80.12,126.96 81.56,126.96 82.99,126.96 84.42,126.96 85.85,126.96 87.28,126.96 88.72,126.96 90.15,126.96 91.58,126.96 93.01,126.96 94.45,126.96 95.88,126.96 97.31,126.96 98.74,126.96 100.17,126.96 101.61,126.96 103.04,126.92 104.47,126.27 105.90,125.68 107.33,125.43 108.77,124.26 110.20,124.26 111.63,124.26 113.06,124.26 114.50,124.26 115.93,124.26 117.36,124.26 118.79,124.26 120.22,124.26 121.66,124.26 123.09,124.26 124.52,124.26 125.95,124.17 127.38,124.17 128.82,124.17 130.25,124.07 131.68,124.07 133.11,124.07 134.55,124.07 135.98,124.03 137.41,124.03 138.84,124.03 140.27,124.03 141.71,124.01 143.14,124.01 144.57,124.01 146.00,124.01 147.43,124.01 148.87,124.01 150.30,124.01 151.73,124.01 153.16,124.01 154.59,124.01 156.03,124.01 157.46,124.01 158.89,124.01 160.32,124.01 161.76,124.01 163.19,124.01 164.62,124.01 166.05,124.01 167.48,124.01 168.92,124.01 170.35,124.01 171.78,124.01 173.21,124.01 174.64,123.98 176.08,123.98 177.51,123.98 178.94,123.98 180.37,123.98 181.81,123.98 183.24,123.98 184.67,123.98 186.10,123.98 187.53,123.98 188.97,123.98 190.40,123.98 191.83,123.98 193.26,123.98 194.69,123.98 196.13,123.96 197.56,123.69 198.99,123.61 200.42,123.49 201.85,123.35 203.29,123.30 204.72,123.30 206.15,123.30 207.58,123.07 209.02,123.05 210.45,122.90 211.88,122.85 213.31,122.75 214.74,122.38 216.18,122.36 217.61,122.31 219.04,122.30 220.47,122.24 221.90,122.24 223.34,122.22 224.77,122.22 226.20,122.22 227.63,122.22 229.07,122.22 230.50,122.22 231.93,122.22 233.36,122.11 234.79,121.77 236.23,121.51 237.66,121.44 239.09,121.28 240.52,121.27 241.95,121.25 243.39,121.24 244.82,121.24 246.25,121.24 247.68,121.16 249.11,121.09 250.55,121.07 251.98,121.05 253.41,121.03 254.84,120.78 256.28,120.61 257.71,120.36 259.14,120.20 260.57,120.08 262.00,120.03 263.44,119.97 264.87,119.96 266.30,119.90 267.73,119.74 269.16,119.74 270.60,119.74 272.03,119.73 273.46,119.72 274.89,119.72 276.33,119.64 277.76,119.62 279.19,119.61 280.62,119.60 282.05,119.57 283.49,119.57 284.92,119.57 286.35,119.57 287.78,119.57 289.21,119.57 290.65,119.57 292.08,119.57 293.51,119.54 294.94,119.51 296.37,119.51 297.81,119.32 299.24,119.31 300.67,119.30 302.10,119.27 303.54,119.17 304.97,118.94 306.40,118.90 307.83,118.90 309.26,118.90 310.70,118.90 312.13,118.90 313.56,118.90 314.99,118.90 316.42,118.90 317.86,118.90 319.29,118.90 320.72,118.90 322.15,118.90 323.59,118.90 325.02,118.89 326.45,118.82 327.88,118.81 329.31,118.81 330.75,118.81 332.18,118.81 333.61,118.77 335.04,118.77 336.47,118.60 337.91,118.44 339.34,118.44 340.77,118.44 342.20,118.44 343.64,118.44 345.07,118.42 346.50,118.42 347.93,118.40 349.36,118.32 350.80,118.26 352.23,117.97 353.66,117.96 355.09,117.53 356.52,117.27 357.96,117.08 359.39,116.48 360.82,116.32 362.25,116.26 363.68,116.06 365.12,115.75 366.55,115.67 367.98,115.57 369.41,115.40 370.85,115.25 372.28,115.19 373.71,115.08 375.14,115.01 376.57,114.82 378.01,114.65 379.44,114.45 380.87,114.12 382.30,113.93 383.73,112.98 385.17,112.27 386.60,111.82 388.03,111.43 389.46,110.99 390.90,110.99 392.33,110.99 393.76,110.99 395.19,110.72 396.62,110.56 398.06,109.99 399.49,109.34 400.92,108.59 402.35,107.45 403.78,106.66 405.22,105.03 406.65,104.04 408.08,103.38 409.51,102.32 410.94,101.65 412.38,100.30 413.81,98.27 415.24,97.65 416.67,96.86 418.11,96.09 419.54,95.84 420.97,94.87 422.40,94.70 423.83,93.53 425.27,92.47 426.70,91.84 428.13,91.11 429.56,90.16 430.99,89.91 432.43,89.82 433.86,89.72 435.29,89.65 436.72,89.05 438.16,88.26 439.59,87.31 441.02,87.05 442.45,86.27 443.88,85.28 445.32,83.30 446.75,81.83 448.18,80.03 449.61,79.55 451.04,78.60 452.48,76.83 453.91,75.83 455.34,75.27 456.77,74.50 458.20,73.99 459.64,73.26 461.07,72.92 462.50,72.18 463.93,70.77 465.37,69.21 466.80,68.74 468.23,67.86 469.66,66.25 471.09,65.42 472.53,63.42 473.96,62.46 475.39,60.73 476.82,59.03 478.25,56.99 479.69,53.91 481.12,51.88 482.55,50.13 483.98,49.01 485.42,47.56 486.85,46.25 488.28,45.62 489.71,44.56 491.14,43.28 492.58,42.56 494.01,41.45 495.44,40.62 496.87,39.82 498.30,38.62 499.74,36.44 501.17,34.69 502.60,33.22 504.03,32.00 505.46,31.56 506.90,30.99 508.33,30.52 509.76,30.00" />
    </svg>
  