
    <svg width="540" height="160" xmlns="http://www.w3.org/2000/svg">
      <style>.line{fill:none;stroke:#388bfd;stroke-width:1.5}.axis{stroke:#555;stroke-width:1;opacity:0.5}.label{fill:#999;font-family:sans-serif;font-size:10px;text-anchor:middle}</style>
      <line class="axis" x1="30" y1="30" x2="30" y2="130" />
      <line class="axis" x1="30" y1="130" x2="510" y2="130" />
      <text class="label" x="15" y="30">5,044</text>
      <text class="label" x="15" y="134">0</text>
      <text class="label" x="30" y="148">2021</text>
      <text class="label" x="510" y="148">2026</text>
      <polyline class="line" points="30.00,129.96 31.52,129.94 33.05,129.92 34.57,129.92 36.10,129.92 37.62,129.66 39.14,129.66 40.67,129.66 42.19,128.24 43.71,125.88 45.24,125.76 46.76,125.76 48.29,125.76 49.81,125.76 51.33,125.76 52.86,125.76 54.38,125.76 55.90,125.76 57.43,125.76 58.95,125.76 60.48,125.76 62.00,125.76 63.52,125.76 65.05,125.76 66.57,125.76 68.10,125.76 69.62,125.76 71.14,124.41 72.67,124.41 74.19,124.39 75.71,124.39 77.24,124.39 78.76,124.39 80.29,124.31 81.81,124.31 83.33,124.31 84.86,124.31 86.38,124.31 87.90,124.31 89.43,124.31 90.95,124.31 92.48,124.31 94.00,124.31 95.52,124.31 97.05,124.31 98.57,124.31 100.10,124.31 101.62,124.31 103.14,124.31 104.67,124.31 106.19,124.31 107.71,124.23 109.24,123.02 110.76,121.91 112.29,121.46 113.81,119.25 115.33,119.25 116.86,119.25 118.38,119.25 119.90,119.25 121.43,119.25 122.95,119.25 124.48,119.25 126.00,119.25 127.52,119.25 129.05,119.25 130.57,119.25 132.10,119.10 133.62,119.10 135.14,119.10 136.67,118.90 138.19,118.90 139.71,118.90 141.24,118.90 142.76,118.84 144.29,118.84 145.81,118.84 147.33,118.84 148.86,118.80 150.38,118.80 151.90,118.80 153.43,118.80 154.95,118.80 156.48,118.80 158.00,118.80 159.52,118.80 161.05,118.80 162.57,118.80 164.10,118.80 165.62,118.80 167.14,118.80 168.67,118.80 170.19,118.80 171.71,118.80 173.24,118.80 174.76,118.80 176.29,118.80 177.81,118.80 179.33,118.80 180.86,118.80 182.38,118.80 183.90,118.74 185.43,118.74 186.95,118.74 188.48,118.74 190.00,118.74 191.52,118.74 193.05,118.74 194.57,118.74 196.10,118.74 197.62,118.74 199.14,118.74 200.67,118.74 202.19,118.74 203.71,118.74 205.24,118.74 206.76,118.70 208.29,118.18 209.81,118.05 211.33,117.83 212.86,117.55 214.38,117.47 215.90,117.47 217.43,117.47 218.95,117.03 220.48,116.99 222.00,116.72 223.52,116.62 225.05,116.44 226.57,115.75 228.10,115.71 229.62,115.61 231.14,115.59 232.67,115.49 234.19,115.49 235.71,115.45 237.24,115.45 238.76,115.45 240.29,115.45 241.81,115.45 243.33,115.45 244.86,115.45 246.38,115.23 247.90,114.60 249.43,114.12 250.95,113.98 252.48,113.68 254.00,113.66 255.52,113.62 257.05,113.60 258.57,113.60 260.10,113.60 261.62,113.47 263.14,113.33 264.67,113.29 266.19,113.25 267.71,113.21 269.24,112.75 270.76,112.43 272.29,111.96 273.81,111.66 275.33,111.44 276.86,111.34 278.38,111.23 279.90,111.21 281.43,111.11 282.95,110.81 284.48,110.81 286.00,110.81 287.52,110.79 289.05,110.77 290.57,110.77 292.10,110.61 293.62,110.57 295.14,110.55 296.67,110.53 298.19,110.49 299.71,110.49 301.24,110.49 302.76,110.49 304.29,110.49 305.81,110.49 307.33,110.49 308.86,110.49 310.38,110.43 311.90,110.37 313.43,110.37 314.95,110.02 316.48,110.00 318.00,109.98 319.52,109.92 321.05,109.74 322.57,109.30 324.10,109.22 325.62,109.22 327.14,109.22 328.67,109.22 330.19,109.22 331.71,109.22 333.24,109.22 334.76,109.22 336.29,109.22 337.81,109.22 339.33,109.22 340.86,109.22 342.38,109.22 343.90,109.20 345.43,109.08 346.95,109.06 348.48,109.06 350.00,109.06 351.52,109.06 353.05,108.98 354.57,108.98 356.10,108.67 357.62,108.37 359.14,108.37 360.67,108.37 362.19,108.37 363.71,108.37 365.24,108.33 366.76,108.33 368.29,108.29 369.81,108.15 371.33,108.03 372.86,107.50 374.38,107.48 375.90,106.67 377.43,106.19 378.95,105.83 380.48,104.70 382.00,104.41 383.52,104.29 385.05,103.91 386.57,103.33 388.10,103.20 389.62,103.00 391.14,102.68 392.67,102.40 394.19,102.28 395.71,102.09 397.24,101.95 398.76,101.59 400.29,101.27 401.81,100.90 403.33,100.28 404.86,99.92 406.38,98.16 407.90,96.83 409.43,95.98 410.95,95.25 412.48,94.43 414.00,94.43 415.52,94.43 417.05,94.43 418.57,93.92 420.10,93.62 421.62,92.97 423.14,92.21 424.67,91.18 426.19,89.56 427.71,88.64 429.24,86.98 430.76,86.01 432.29,85.39 433.81,84.38 435.33,83.59 436.86,82.24 438.38,80.28 439.90,79.70 441.43,78.87 442.95,78.16 444.48,77.92 446.00,77.01 447.52,76.85 449.05,75.76 450.57,74.77 452.10,74.17 453.62,73.48 455.14,72.53 456.67,72.25 458.19,72.11 459.71,71.97 461.24,71.85 462.76,71.10 464.29,70.25 465.81,68.90 467.33,68.50 468.86,67.81 470.38,66.68 471.90,64.16 473.43,62.26 474.95,60.13 476.48,59.68 478.00,58.75 479.52,56.86 481.05,55.71 482.57,55.08 484.10,54.13 485.62,53.63 487.14,52.94 488.67,52.62 490.19,51.55 491.71,49.94 493.24,48.42 494.76,47.96 496.29,47.17 497.81,45.74 499.33,44.67 500.86,43.08 502.38,42.27 503.90,40.65 505.43,38.49 506.95,36.64 508.48,32.74 510.00,30.00" />
    </svg>
  