
    <svg width="540" height="160" xmlns="http://www.w3.org/2000/svg">
      <style>.line{fill:none;stroke:#388bfd;stroke-width:1.5}.axis{stroke:#555;stroke-width:1;opacity:0.5}.label{fill:#999;font-family:sans-serif;font-size:10px;text-anchor:middle}</style>
      <line class="axis" x1="30" y1="30" x2="30" y2="130" />
      <line class="axis" x1="30" y1="130" x2="510" y2="130" />
      <text class="label" x="15" y="30">5,006</text>
      <text class="label" x="15" y="134">0</text>
      <text class="label" x="30" y="148">2021</text>
      <text class="label" x="510" y="148">2026</text>
      <polyline class="line" points="30.00,129.96 31.53,129.94 33.05,129.92 34.58,129.92 36.10,129.92 37.63,129.66 39.15,129.66 40.68,129.66 42.20,128.22 43.73,125.84 45.25,125.73 46.78,125.73 48.31,125.73 49.83,125.73 51.36,125.73 52.88,125.73 54.41,125.73 55.93,125.73 57.46,125.73 58.98,125.73 60.51,125.73 62.03,125.73 63.56,125.73 65.08,125.73 66.61,125.73 68.14,125.73 69.66,125.73 71.19,124.37 72.71,124.37 74.24,124.35 75.76,124.35 77.29,124.35 78.81,124.35 80.34,124.27 81.86,124.27 83.39,124.27 84.92,124.27 86.44,124.27 87.97,124.27 89.49,124.27 91.02,124.27 92.54,124.27 94.07,124.27 95.59,124.27 97.12,124.27 98.64,124.27 100.17,124.27 101.69,124.27 103.22,124.27 104.75,124.27 106.27,124.27 107.80,124.19 109.32,122.97 110.85,121.85 112.37,121.39 113.90,119.17 115.42,119.17 116.95,119.17 118.47,119.17 120.00,119.17 121.53,119.17 123.05,119.17 124.58,119.17 126.10,119.17 127.63,119.17 129.15,119.17 130.68,119.17 132.20,119.01 133.73,119.01 135.25,119.01 136.78,118.81 138.31,118.81 139.83,118.81 141.36,118.81 142.88,118.75 144.41,118.75 145.93,118.75 147.46,118.75 148.98,118.71 150.51,118.71 152.03,118.71 153.56,118.71 155.08,118.71 156.61,118.71 158.14,118.71 159.66,118.71 161.19,118.71 162.71,118.71 164.24,118.71 165.76,118.71 167.29,118.71 168.81,118.71 170.34,118.71 171.86,118.71 173.39,118.71 174.92,118.71 176.44,118.71 177.97,118.71 179.49,118.71 181.02,118.71 182.54,118.71 184.07,118.65 185.59,118.65 187.12,118.65 188.64,118.65 190.17,118.65 191.69,118.65 193.22,118.65 194.75,118.65 196.27,118.65 197.80,118.65 199.32,118.65 200.85,118.65 202.37,118.65 203.90,118.65 205.42,118.65 206.95,118.61 208.47,118.09 210.00,117.95 211.53,117.73 213.05,117.46 214.58,117.38 216.10,117.38 217.63,117.38 219.15,116.94 220.68,116.90 222.20,116.62 223.73,116.52 225.25,116.34 226.78,115.64 228.31,115.60 229.83,115.50 231.36,115.48 232.88,115.38 234.41,115.38 235.93,115.34 237.46,115.34 238.98,115.34 240.51,115.34 242.03,115.34 243.56,115.34 245.08,115.34 246.61,115.12 248.14,114.48 249.66,114.00 251.19,113.86 252.71,113.56 254.24,113.54 255.76,113.50 257.29,113.48 258.81,113.48 260.34,113.48 261.86,113.34 263.39,113.20 264.92,113.16 266.44,113.12 267.97,113.08 269.49,112.62 271.02,112.30 272.54,111.82 274.07,111.52 275.59,111.30 277.12,111.20 278.64,111.08 280.17,111.06 281.69,110.96 283.22,110.66 284.75,110.66 286.27,110.66 287.80,110.64 289.32,110.62 290.85,110.62 292.37,110.46 293.90,110.42 295.42,110.40 296.95,110.38 298.47,110.34 300.00,110.34 301.53,110.34 303.05,110.34 304.58,110.34 306.10,110.34 307.63,110.34 309.15,110.34 310.68,110.28 312.20,110.22 313.73,110.22 315.25,109.86 316.78,109.84 318.31,109.82 319.83,109.76 321.36,109.58 322.88,109.15 324.41,109.07 325.93,109.07 327.46,109.07 328.98,109.07 330.51,109.07 332.03,109.07 333.56,109.07 335.08,109.07 336.61,109.07 338.14,109.07 339.66,109.07 341.19,109.07 342.71,109.07 344.24,109.05 345.76,108.93 347.29,108.91 348.81,108.91 350.34,108.91 351.86,108.91 353.39,108.83 354.92,108.83 356.44,108.51 357.97,108.21 359.49,108.21 361.02,108.21 362.54,108.21 364.07,108.21 365.59,108.17 367.12,108.17 368.64,108.13 370.17,107.99 371.69,107.87 373.22,107.33 374.75,107.31 376.27,106.49 377.80,106.01 379.32,105.65 380.85,104.51 382.37,104.21 383.90,104.09 385.42,103.71 386.95,103.13 388.47,102.99 390.00,102.79 391.53,102.47 393.05,102.19 394.58,102.07 396.10,101.87 397.63,101.73 399.15,101.37 400.68,101.05 402.20,100.68 403.73,100.06 405.25,99.70 406.78,97.92 408.31,96.58 409.83,95.72 411.36,94.98 412.88,94.16 414.41,94.16 415.93,94.16 417.46,94.16 418.98,93.64 420.51,93.34 422.03,92.68 423.56,91.93 425.08,90.89 426.61,89.25 428.14,88.33 429.66,86.65 431.19,85.67 432.71,85.05 434.24,84.04 435.76,83.24 437.29,81.88 438.81,79.90 440.34,79.32 441.86,78.48 443.39,77.76 444.92,77.52 446.44,76.60 447.97,76.44 449.49,75.35 451.02,74.35 452.54,73.75 454.07,73.05 455.59,72.09 457.12,71.81 458.64,71.67 460.17,71.53 461.69,71.41 463.22,70.65 464.75,69.79 466.27,68.43 467.80,68.03 469.32,67.34 470.85,66.20 472.37,63.66 473.90,61.74 475.42,59.60 476.95,59.15 478.47,58.21 480.00,56.31 481.53,55.15 483.05,54.51 484.58,53.55 486.10,53.05 487.63,52.35 489.15,52.03 490.68,50.95 492.20,49.34 493.73,47.80 495.25,47.34 496.78,46.54 498.31,45.10 499.83,44.02 501.36,42.43 502.88,41.61 504.41,39.97 505.93,37.79 507.46,35.93 508.98,32.00" />
    </svg>
  