
    <svg width="540" height="160" xmlns="http://www.w3.org/2000/svg">
      <style>.line{fill:none;stroke:#388bfd;stroke-width:1.5}.axis{stroke:#555;stroke-width:1;opacity:0.5}.label{fill:#999;font-family:sans-serif;font-size:10px;text-anchor:middle}</style>
      <line class="axis" x1="30" y1="30" x2="30" y2="130" />
      <line class="axis" x1="30" y1="130" x2="510" y2="130" />
      <text class="label" x="15" y="30">4,224</text>
      <text class="label" x="15" y="134">0</text>
      <text class="label" x="30" y="148">2021</text>
      <text class="label" x="510" y="148">2026</text>
      <polyline class="line" points="30.00,129.95 31.53,129.93 33.06,129.91 34.59,129.91 36.11,129.91 37.64,129.60 39.17,129.60 40.70,129.60 42.23,127.89 43.76,125.08 45.29,124.93 46.82,124.93 48.34,124.93 49.87,124.93 51.40,124.93 52.93,124.93 54.46,124.93 55.99,124.93 57.52,124.93 59.04,124.93 60.57,124.93 62.10,124.93 63.63,124.93 65.16,124.93 66.69,124.93 68.22,124.93 69.75,124.93 71.27,123.32 72.80,123.32 74.33,123.30 75.86,123.30 77.39,123.30 78.92,123.30 80.45,123.21 81.97,123.21 83.50,123.21 85.03,123.21 86.56,123.21 88.09,123.21 89.62,123.21 91.15,123.21 92.68,123.21 94.20,123.21 95.73,123.21 97.26,123.21 98.79,123.21 100.32,123.21 101.85,123.21 103.38,123.21 104.90,123.21 106.43,123.21 107.96,123.11 109.49,121.67 111.02,120.34 112.55,119.80 114.08,117.17 115.61,117.17 117.13,117.17 118.66,117.17 120.19,117.17 121.72,117.17 123.25,117.17 124.78,117.17 126.31,117.17 127.83,117.17 129.36,117.17 130.89,117.17 132.42,116.98 133.95,116.98 135.48,116.98 137.01,116.74 138.54,116.74 140.06,116.74 141.59,116.74 143.12,116.67 144.65,116.67 146.18,116.67 147.71,116.67 149.24,116.62 150.76,116.62 152.29,116.62 153.82,116.62 155.35,116.62 156.88,116.62 158.41,116.62 159.94,116.62 161.46,116.62 162.99,116.62 164.52,116.62 166.05,116.62 167.58,116.62 169.11,116.62 170.64,116.62 172.17,116.62 173.69,116.62 175.22,116.62 176.75,116.62 178.28,116.62 179.81,116.62 181.34,116.62 182.87,116.62 184.39,116.55 185.92,116.55 187.45,116.55 188.98,116.55 190.51,116.55 192.04,116.55 193.57,116.55 195.10,116.55 196.62,116.55 198.15,116.55 199.68,116.55 201.21,116.55 202.74,116.55 204.27,116.55 205.80,116.55 207.32,116.51 208.85,115.89 210.38,115.72 211.91,115.46 213.44,115.13 214.97,115.04 216.50,115.04 218.03,115.04 219.55,114.52 221.08,114.47 222.61,114.14 224.14,114.02 225.67,113.81 227.20,112.98 228.73,112.93 230.25,112.81 231.78,112.79 233.31,112.67 234.84,112.67 236.37,112.62 237.90,112.62 239.43,112.62 240.96,112.62 242.48,112.62 244.01,112.62 245.54,112.62 247.07,112.36 248.60,111.61 250.13,111.04 251.66,110.87 253.18,110.52 254.71,110.49 256.24,110.45 257.77,110.42 259.30,110.42 260.83,110.42 262.36,110.26 263.89,110.09 265.41,110.04 266.94,110.00 268.47,109.95 270.00,109.40 271.53,109.02 273.06,108.46 274.59,108.10 276.11,107.84 277.64,107.72 279.17,107.58 280.70,107.56 282.23,107.44 283.76,107.08 285.29,107.08 286.82,107.08 288.34,107.06 289.87,107.04 291.40,107.04 292.93,106.85 294.46,106.80 295.99,106.78 297.52,106.75 299.04,106.70 300.57,106.70 302.10,106.70 303.63,106.70 305.16,106.70 306.69,106.70 308.22,106.70 309.75,106.70 311.27,106.63 312.80,106.56 314.33,106.56 315.86,106.14 317.39,106.11 318.92,106.09 320.45,106.02 321.97,105.80 323.50,105.28 325.03,105.19 326.56,105.19 328.09,105.19 329.62,105.19 331.15,105.19 332.68,105.19 334.20,105.19 335.73,105.19 337.26,105.19 338.79,105.19 340.32,105.19 341.85,105.19 343.38,105.19 344.90,105.17 346.43,105.02 347.96,105.00 349.49,105.00 351.02,105.00 352.55,105.00 354.08,104.91 355.61,104.91 357.13,104.53 358.66,104.17 360.19,104.17 361.72,104.17 363.25,104.17 364.78,104.17 366.31,104.12 367.83,104.12 369.36,104.08 370.89,103.91 372.42,103.77 373.95,103.13 375.48,103.11 377.01,102.14 378.54,101.57 380.06,101.14 381.59,99.79 383.12,99.58 384.65,99.53 386.18,99.53 387.71,99.53 389.24,99.53 390.76,99.48 392.29,99.37 393.82,99.37 395.35,99.37 396.88,99.37 398.41,99.37 399.94,99.37 401.46,99.32 402.99,99.27 404.52,99.27 406.05,99.27 407.58,99.22 409.11,99.22 410.64,99.03 412.17,98.94 413.69,98.94 415.22,98.94 416.75,98.94 418.28,98.94 419.81,98.94 421.34,98.94 422.87,98.42 424.39,97.87 425.92,97.42 427.45,96.81 428.98,96.10 430.51,94.42 432.04,93.38 433.57,92.64 435.10,91.43 436.62,90.49 438.15,88.88 439.68,86.56 441.21,85.87 442.74,84.88 444.27,84.02 445.80,83.74 447.32,82.65 448.85,82.46 450.38,81.16 451.91,79.98 453.44,79.27 454.97,78.44 456.50,77.30 458.03,76.97 459.55,76.80 461.08,76.64 462.61,76.50 464.14,75.60 465.67,74.58 467.20,72.97 468.73,72.50 470.25,71.67 471.78,70.32 473.31,67.31 474.84,65.04 476.37,62.50 477.90,61.96 479.43,60.85 480.96,58.60 482.48,57.23 484.01,56.47 485.54,55.33 487.07,54.74 488.60,53.91 490.13,53.53 491.66,52.25 493.18,50.34 494.71,48.51 496.24,47.97 497.77,47.02 499.30,45.32 500.83,44.04 502.36,42.14 503.89,41.17 505.41,39.23 506.94,36.65 508.47,34.45 510.00,30.00" />
    </svg>
  