
    <svg width="540" height="160" xmlns="http://www.w3.org/2000/svg">
      <style>.line{fill:none;stroke:#388bfd;stroke-width:1.5}.axis{stroke:#555;stroke-width:1;opacity:0.5}.label{fill:#999;font-family:sans-serif;font-size:10px;text-anchor:middle}</style>
      <line class="axis" x1="30" y1="30" x2="30" y2="130" />
      <line class="axis" x1="30" y1="130" x2="510" y2="130" />
      <text class="label" x="15" y="30">7,725</text>
      <text class="label" x="15" y="134">0</text>
      <text class="label" x="30" y="148">2021</text>
      <text class="label" x="510" y="148">2026</text>
      <polyline class="line" points="30.00,129.97 31.50,129.96 33.00,129.95 34.50,129.95 35.99,129.95 37.49,129.78 38.99,129.78 40.49,129.78 41.99,128.85 43.49,127.31 44.98,127.23 46.48,127.23 47.98,127.23 49.48,127.23 50.98,127.23 52.48,127.23 53.98,127.23 55.47,127.23 56.97,127.23 58.47,127.23 59.97,127.23 61.47,127.23 62.97,127.23 64.46,127.23 65.96,127.23 67.46,127.23 68.96,127.23 70.46,126.35 71.96,126.35 73.45,126.34 74.95,126.34 76.45,126.34 77.95,126.34 79.45,126.28 80.95,126.28 82.45,126.28 83.94,126.28 85.44,126.28 86.94,126.28 88.44,126.28 89.94,126.28 91.44,126.28 92.93,126.28 94.43,126.28 95.93,126.28 97.43,126.28 98.93,126.28 100.43,126.28 101.93,126.28 103.42,126.28 104.92,126.28 106.42,126.23 107.92,125.44 109.42,124.72 110.92,124.42 112.41,122.98 113.91,122.98 115.41,122.98 116.91,122.98 118.41,122.98 119.91,122.98 121.40,122.98 122.90,122.98 124.40,122.98 125.90,122.98 127.40,122.98 128.90,122.98 130.40,122.88 131.89,122.88 133.39,122.88 134.89,122.75 136.39,122.75 137.89,122.75 139.39,122.75 140.88,122.71 142.38,122.71 143.88,122.71 145.38,122.71 146.88,122.69 148.38,122.69 149.88,122.69 151.37,122.69 152.87,122.69 154.37,122.69 155.87,122.69 157.37,122.69 158.87,122.69 160.36,122.69 161.86,122.69 163.36,122.69 164.86,122.69 166.36,122.69 167.86,122.69 169.35,122.69 170.85,122.69 172.35,122.69 173.85,122.69 175.35,122.69 176.85,122.69 178.35,122.69 179.84,122.69 181.34,122.65 182.84,122.65 184.34,122.65 185.84,122.65 187.34,122.65 188.83,122.65 190.33,122.65 191.83,122.65 193.33,122.65 194.83,122.65 196.33,122.65 197.83,122.65 199.32,122.65 200.82,122.65 202.32,122.65 203.82,122.62 205.32,122.28 206.82,122.19 208.31,122.05 209.81,121.87 211.31,121.82 212.81,121.82 214.31,121.82 215.81,121.53 217.30,121.51 218.80,121.33 220.30,121.26 221.80,121.15 223.30,120.69 224.80,120.67 226.30,120.60 227.79,120.59 229.29,120.52 230.79,120.52 232.29,120.50 233.79,120.50 235.29,120.50 236.78,120.50 238.28,120.50 239.78,120.50 241.28,120.50 242.78,120.36 244.28,119.94 245.78,119.63 247.27,119.54 248.77,119.35 250.27,119.33 251.77,119.31 253.27,119.29 254.77,119.29 256.26,119.29 257.76,119.20 259.26,119.11 260.76,119.09 262.26,119.06 263.76,119.04 265.25,118.74 266.75,118.53 268.25,118.22 269.75,118.03 271.25,117.88 272.75,117.82 274.25,117.74 275.74,117.73 277.24,117.66 278.74,117.47 280.24,117.47 281.74,117.47 283.24,117.46 284.73,117.44 286.23,117.44 287.73,117.34 289.23,117.31 290.73,117.30 292.23,117.29 293.73,117.26 295.22,117.26 296.72,117.26 298.22,117.26 299.72,117.26 301.22,117.26 302.72,117.26 304.21,117.26 305.71,117.22 307.21,117.18 308.71,117.18 310.21,116.95 311.71,116.94 313.20,116.93 314.70,116.89 316.20,116.77 317.70,116.49 319.20,116.43 320.70,116.43 322.20,116.43 323.69,116.43 325.19,116.43 326.69,116.43 328.19,116.43 329.69,116.43 331.19,116.43 332.68,116.43 334.18,116.43 335.68,116.43 337.18,116.43 338.68,116.42 340.18,116.34 341.68,116.33 343.17,116.33 344.67,116.33 346.17,116.33 347.67,116.28 349.17,116.28 350.67,116.07 352.16,115.88 353.66,115.88 355.16,115.88 356.66,115.88 358.16,115.88 359.66,115.85 361.16,115.85 362.65,115.83 364.15,115.73 365.65,115.66 367.15,115.31 368.65,115.29 370.15,114.76 371.64,114.45 373.14,114.22 374.64,113.48 376.14,113.29 377.64,113.21 379.14,112.96 380.63,112.59 382.13,112.50 383.63,112.37 385.13,112.16 386.63,111.98 388.13,111.90 389.63,111.77 391.12,111.68 392.62,111.45 394.12,111.24 395.62,111.00 397.12,110.60 398.62,110.36 400.11,109.21 401.61,108.34 403.11,107.79 404.61,107.31 406.11,106.78 407.61,106.78 409.11,106.78 410.60,106.78 412.10,106.44 413.60,106.25 415.10,105.55 416.60,104.76 418.10,103.84 419.59,102.45 421.09,101.48 422.59,99.49 424.09,98.28 425.59,97.48 427.09,96.19 428.58,95.36 430.08,93.72 431.58,91.23 433.08,90.48 434.58,89.51 436.08,88.58 437.58,88.27 439.07,87.07 440.57,86.87 442.07,85.44 443.57,84.15 445.07,83.37 446.57,82.49 448.06,81.33 449.56,81.02 451.06,80.91 452.56,80.78 454.06,80.71 455.56,79.97 457.06,79.01 458.55,77.84 460.05,77.52 461.55,76.58 463.05,75.36 464.55,72.94 466.05,71.15 467.54,68.95 469.04,68.37 470.54,67.20 472.04,65.04 473.54,63.81 475.04,63.14 476.53,62.19 478.03,61.57 479.53,60.68 481.03,60.27 482.53,59.36 484.03,57.64 485.53,55.73 487.02,55.15 488.52,54.17 490.02,52.59 491.52,51.66 493.02,49.77 494.52,48.77 496.01,46.83 497.51,44.86 499.01,42.79 500.51,39.28 502.01,37.15 503.51,35.10 505.01,33.96 506.50,32.28 508.00,30.84 509.50,30.35" />
    </svg>
  