
    <svg width="540" height="160" xmlns="http://www.w3.org/2000/svg">
      <style>.line{fill:none;stroke:#388bfd;stroke-width:1.5}.axis{stroke:#555;stroke-width:1;opacity:0.5}.label{fill:#999;font-family:sans-serif;font-size:10px;text-anchor:middle}</style>
      <line class="axis" x1="30" y1="30" x2="30" y2="130" />
      <line class="axis" x1="30" y1="130" x2="510" y2="130" />
      <text class="label" x="15" y="30">8,733</text>
      <text class="label" x="15" y="134">0</text>
      <text class="label" x="30" y="148">2021</text>
      <text class="label" x="510" y="148">2026</text>
      <polyline class="line" points="30.00,129.98 31.46,129.97 32.93,129.95 34.39,129.95 35.85,129.95 37.32,129.81 38.78,129.81 40.24,129.81 41.71,128.98 43.17,127.62 44.63,127.55 46.10,127.55 47.56,127.55 49.02,127.55 50.49,127.55 51.95,127.55 53.41,127.55 54.88,127.55 56.34,127.55 57.80,127.55 59.27,127.55 60.73,127.55 62.20,127.55 63.66,127.55 65.12,127.55 66.59,127.55 68.05,127.55 69.51,126.77 70.98,126.77 72.44,126.76 73.90,126.76 75.37,126.76 76.83,126.76 78.29,126.71 79.76,126.71 81.22,126.71 82.68,126.71 84.15,126.71 85.61,126.71 87.07,126.71 88.54,126.71 90.00,126.71 91.46,126.71 92.93,126.71 94.39,126.71 95.85,126.71 97.32,126.71 98.78,126.71 100.24,126.71 101.71,126.71 103.17,126.71 104.63,126.67 106.10,125.97 107.56,125.33 109.02,125.06 110.49,123.79 111.95,123.79 113.41,123.79 114.88,123.79 116.34,123.79 117.80,123.79 119.27,123.79 120.73,123.79 122.20,123.79 123.66,123.79 125.12,123.79 126.59,123.79 128.05,123.70 129.51,123.70 130.98,123.70 132.44,123.59 133.90,123.59 135.37,123.59 136.83,123.59 138.29,123.55 139.76,123.55 141.22,123.55 142.68,123.55 144.15,123.53 145.61,123.53 147.07,123.53 148.54,123.53 150.00,123.53 151.46,123.53 152.93,123.53 154.39,123.53 155.85,123.53 157.32,123.53 158.78,123.53 160.24,123.53 161.71,123.53 163.17,123.53 164.63,123.53 166.10,123.53 167.56,123.53 169.02,123.53 170.49,123.53 171.95,123.53 173.41,123.53 174.88,123.53 176.34,123.53 177.80,123.50 179.27,123.50 180.73,123.50 182.20,123.50 183.66,123.50 185.12,123.50 186.59,123.50 188.05,123.50 189.51,123.50 190.98,123.50 192.44,123.50 193.90,123.50 195.37,123.50 196.83,123.50 198.29,123.50 199.76,123.47 201.22,123.18 202.68,123.10 204.15,122.97 205.61,122.81 207.07,122.76 208.54,122.76 210.00,122.76 211.46,122.51 212.93,122.49 214.39,122.33 215.85,122.27 217.32,122.17 218.78,121.77 220.24,121.74 221.71,121.69 223.17,121.68 224.63,121.62 226.10,121.62 227.56,121.60 229.02,121.60 230.49,121.60 231.95,121.60 233.41,121.60 234.88,121.60 236.34,121.60 237.80,121.47 239.27,121.10 240.73,120.83 242.20,120.75 243.66,120.58 245.12,120.56 246.59,120.54 248.05,120.53 249.51,120.53 250.98,120.53 252.44,120.45 253.90,120.37 255.37,120.35 256.83,120.32 258.29,120.30 259.76,120.04 261.22,119.85 262.68,119.58 264.15,119.41 265.61,119.28 267.07,119.22 268.54,119.16 270.00,119.14 271.46,119.09 272.93,118.92 274.39,118.92 275.85,118.92 277.32,118.90 278.78,118.89 280.24,118.89 281.71,118.80 283.17,118.78 284.63,118.77 286.10,118.76 287.56,118.73 289.02,118.73 290.49,118.73 291.95,118.73 293.41,118.73 294.88,118.73 296.34,118.73 297.80,118.73 299.27,118.70 300.73,118.66 302.20,118.66 303.66,118.46 305.12,118.45 306.59,118.43 308.05,118.40 309.51,118.30 310.98,118.05 312.44,118.00 313.90,118.00 315.37,118.00 316.83,118.00 318.29,118.00 319.76,118.00 321.22,118.00 322.68,118.00 324.15,118.00 325.61,118.00 327.07,118.00 328.54,118.00 330.00,118.00 331.46,117.99 332.93,117.92 334.39,117.91 335.85,117.91 337.32,117.91 338.78,117.91 340.24,117.86 341.71,117.86 343.17,117.68 344.63,117.51 346.10,117.51 347.56,117.51 349.02,117.51 350.49,117.51 351.95,117.48 353.41,117.48 354.88,117.46 356.34,117.38 357.80,117.31 359.27,117.00 360.73,116.99 362.20,116.52 363.66,116.25 365.12,116.04 366.59,115.39 368.05,115.22 369.51,115.15 370.98,114.93 372.44,114.60 373.90,114.52 375.37,114.40 376.83,114.22 378.29,114.06 379.76,113.99 381.22,113.88 382.68,113.80 384.15,113.59 385.61,113.41 387.07,113.19 388.54,112.84 390.00,112.63 391.46,111.61 392.93,110.84 394.39,110.35 395.85,109.93 397.32,109.46 398.78,109.46 400.24,109.46 401.71,109.46 403.17,109.16 404.63,108.99 406.10,108.37 407.56,107.67 409.02,106.86 410.49,105.63 411.95,104.77 413.41,103.01 414.88,101.95 416.34,101.24 417.80,100.09 419.27,99.36 420.73,97.90 422.20,95.70 423.66,95.04 425.12,94.18 426.59,93.36 428.05,93.08 429.51,92.03 430.98,91.85 432.44,90.59 433.90,89.44 435.37,88.75 436.83,87.98 438.29,86.94 439.76,86.67 441.22,86.58 442.68,86.46 444.15,86.40 445.61,85.74 447.07,84.90 448.54,83.86 450.00,83.58 451.46,82.74 452.93,81.67 454.39,79.52 455.85,77.94 457.32,76.00 458.78,75.48 460.24,74.45 461.71,72.54 463.17,71.45 464.63,70.86 466.10,70.02 467.56,69.47 469.02,68.68 470.49,68.31 471.95,67.51 473.41,65.99 474.88,64.31 476.34,63.79 477.80,62.84 479.27,61.10 480.73,60.21 482.20,58.04 483.66,57.01 485.12,55.13 486.59,53.30 488.05,51.09 489.51,47.77 490.98,45.57 492.44,43.68 493.90,42.47 495.37,40.90 496.83,39.49 498.29,38.81 499.76,37.66 501.22,36.28 502.68,35.74 504.15,34.72 505.61,33.85 507.07,32.99 508.54,31.88 510.00,30.00" />
    </svg>
  