
    <svg width="540" height="160" xmlns="http://www.w3.org/2000/svg">
      <style>.line{fill:none;stroke:#388bfd;stroke-width:1.5}.axis{stroke:#555;stroke-width:1;opacity:0.5}.label{fill:#999;font-family:sans-serif;font-size:10px;text-anchor:middle}</style>
      <line class="axis" x1="30" y1="30" x2="30" y2="130" />
      <line class="axis" x1="30" y1="130" x2="510" y2="130" />
      <text class="label" x="15" y="30">9,291</text>
      <text class="label" x="15" y="134">0</text>
      <text class="label" x="30" y="148">2021</text>
      <text class="label" x="510" y="148">2026</text>
      <polyline class="line" points="30.00,129.98 31.45,129.97 32.89,129.96 34.34,129.96 35.78,129.96 37.23,129.82 38.67,129.82 40.12,129.82 41.57,129.04 43.01,127.76 44.46,127.70 45.90,127.70 47.35,127.70 48.80,127.70 50.24,127.70 51.69,127.70 53.13,127.70 54.58,127.70 56.02,127.70 57.47,127.70 58.92,127.70 60.36,127.70 61.81,127.70 63.25,127.70 64.70,127.70 66.14,127.70 67.59,127.70 69.04,126.96 70.48,126.96 71.93,126.95 73.37,126.95 74.82,126.95 76.27,126.95 77.71,126.91 79.16,126.91 80.60,126.91 82.05,126.91 83.49,126.91 84.94,126.91 86.39,126.91 87.83,126.91 89.28,126.91 90.72,126.91 92.17,126.91 93.61,126.91 95.06,126.91 96.51,126.91 97.95,126.91 99.40,126.91 100.84,126.91 102.29,126.91 103.73,126.87 105.18,126.21 106.63,125.61 108.07,125.36 109.52,124.17 110.96,124.17 112.41,124.17 113.86,124.17 115.30,124.17 116.75,124.17 118.19,124.17 119.64,124.17 121.08,124.17 122.53,124.17 123.98,124.17 125.42,124.17 126.87,124.08 128.31,124.08 129.76,124.08 131.20,123.97 132.65,123.97 134.10,123.97 135.54,123.97 136.99,123.94 138.43,123.94 139.88,123.94 141.33,123.94 142.77,123.92 144.22,123.92 145.66,123.92 147.11,123.92 148.55,123.92 150.00,123.92 151.45,123.92 152.89,123.92 154.34,123.92 155.78,123.92 157.23,123.92 158.67,123.92 160.12,123.92 161.57,123.92 163.01,123.92 164.46,123.92 165.90,123.92 167.35,123.92 168.80,123.92 170.24,123.92 171.69,123.92 173.13,123.92 174.58,123.92 176.02,123.89 177.47,123.89 178.92,123.89 180.36,123.89 181.81,123.89 183.25,123.89 184.70,123.89 186.14,123.89 187.59,123.89 189.04,123.89 190.48,123.89 191.93,123.89 193.37,123.89 194.82,123.89 196.27,123.89 197.71,123.87 199.16,123.59 200.60,123.51 202.05,123.39 203.49,123.24 204.94,123.20 206.39,123.20 207.83,123.20 209.28,122.96 210.72,122.94 212.17,122.79 213.61,122.73 215.06,122.64 216.51,122.26 217.95,122.24 219.40,122.19 220.84,122.18 222.29,122.12 223.73,122.12 225.18,122.10 226.63,122.10 228.07,122.10 229.52,122.10 230.96,122.10 232.41,122.10 233.86,122.10 235.30,121.98 236.75,121.64 238.19,121.38 239.64,121.30 241.08,121.14 242.53,121.13 243.98,121.11 245.42,121.10 246.87,121.10 248.31,121.10 249.76,121.02 251.20,120.95 252.65,120.93 254.10,120.91 255.54,120.88 256.99,120.64 258.43,120.46 259.88,120.21 261.33,120.04 262.77,119.93 264.22,119.87 265.66,119.81 267.11,119.80 268.55,119.74 270.00,119.58 271.45,119.58 272.89,119.58 274.34,119.57 275.78,119.56 277.23,119.56 278.67,119.47 280.12,119.45 281.57,119.44 283.01,119.43 284.46,119.41 285.90,119.41 287.35,119.41 288.80,119.41 290.24,119.41 291.69,119.41 293.13,119.41 294.58,119.41 296.02,119.38 297.47,119.34 298.92,119.34 300.36,119.15 301.81,119.14 303.25,119.13 304.70,119.10 306.14,119.00 307.59,118.76 309.04,118.72 310.48,118.72 311.93,118.72 313.37,118.72 314.82,118.72 316.27,118.72 317.71,118.72 319.16,118.72 320.60,118.72 322.05,118.72 323.49,118.72 324.94,118.72 326.39,118.72 327.83,118.71 329.28,118.64 330.72,118.63 332.17,118.63 333.61,118.63 335.06,118.63 336.51,118.59 337.95,118.59 339.40,118.42 340.84,118.26 342.29,118.26 343.73,118.26 345.18,118.26 346.63,118.26 348.07,118.24 349.52,118.24 350.96,118.21 352.41,118.14 353.86,118.07 355.30,117.78 356.75,117.77 358.19,117.33 359.64,117.07 361.08,116.88 362.53,116.27 363.98,116.10 365.42,116.04 366.87,115.84 368.31,115.52 369.76,115.45 371.20,115.34 372.65,115.17 374.10,115.02 375.54,114.95 376.99,114.85 378.43,114.77 379.88,114.58 381.33,114.40 382.77,114.20 384.22,113.87 385.66,113.67 387.11,112.71 388.55,111.99 390.00,111.53 391.45,111.13 392.89,110.69 394.34,110.69 395.78,110.69 397.23,110.69 398.67,110.41 400.12,110.25 401.57,109.67 403.01,109.01 404.46,108.25 405.90,107.10 407.35,106.29 408.80,104.63 410.24,103.63 411.69,102.96 413.13,101.89 414.58,101.20 416.02,99.83 417.47,97.76 418.92,97.14 420.36,96.33 421.81,95.56 423.25,95.30 424.70,94.31 426.14,94.14 427.59,92.95 429.04,91.88 430.48,91.23 431.93,90.50 433.37,89.53 434.82,89.27 436.27,89.19 437.71,89.08 439.16,89.01 440.60,88.40 442.05,87.60 443.49,86.64 444.94,86.37 446.39,85.58 447.83,84.57 449.28,82.56 450.72,81.07 452.17,79.24 453.61,78.76 455.06,77.79 456.51,75.99 457.95,74.97 459.40,74.41 460.84,73.62 462.29,73.11 463.73,72.36 465.18,72.02 466.63,71.27 468.07,69.83 469.52,68.25 470.96,67.77 472.41,66.87 473.86,65.24 475.30,64.40 476.75,62.36 478.19,61.40 479.64,59.63 481.08,57.91 482.53,55.83 483.98,52.71 485.42,50.64 486.87,48.87 488.31,47.73 489.76,46.25 491.20,44.93 492.65,44.28 494.10,43.21 495.54,41.90 496.99,41.17 498.43,40.05 499.88,39.20 501.33,38.40 502.77,37.18 504.22,34.96 505.66,33.19 507.11,31.69 508.55,30.45 510.00,30.00" />
    </svg>
  