
    <svg width="540" height="160" xmlns="http://www.w3.org/2000/svg">
      <style>.line{fill:none;stroke:#388bfd;stroke-width:1.5}.axis{stroke:#555;stroke-width:1;opacity:0.5}.label{fill:#999;font-family:sans-serif;font-size:10px;text-anchor:middle}</style>
      <line class="axis" x1="30" y1="30" x2="30" y2="130" />
      <line class="axis" x1="30" y1="130" x2="510" y2="130" />
      <text class="label" x="15" y="30">9,129</text>
      <text class="label" x="15" y="134">0</text>
      <text class="label" x="30" y="148">2021</text>
      <text class="label" x="510" y="148">2026</text>
      <polyline class="line" points="30.00,129.98 31.45,129.97 32.91,129.96 34.36,129.96 35.82,129.96 37.27,129.81 38.73,129.81 40.18,129.81 41.64,129.03 43.09,127.72 44.55,127.66 46.00,127.66 47.45,127.66 48.91,127.66 50.36,127.66 51.82,127.66 53.27,127.66 54.73,127.66 56.18,127.66 57.64,127.66 59.09,127.66 60.55,127.66 62.00,127.66 63.45,127.66 64.91,127.66 66.36,127.66 67.82,127.66 69.27,126.91 70.73,126.91 72.18,126.90 73.64,126.90 75.09,126.90 76.55,126.90 78.00,126.86 79.45,126.86 80.91,126.86 82.36,126.86 83.82,126.86 85.27,126.86 86.73,126.86 88.18,126.86 89.64,126.86 91.09,126.86 92.55,126.86 94.00,126.86 95.45,126.86 96.91,126.86 98.36,126.86 99.82,126.86 101.27,126.86 102.73,126.86 104.18,126.81 105.64,126.14 107.09,125.53 108.55,125.28 110.00,124.06 111.45,124.06 112.91,124.06 114.36,124.06 115.82,124.06 117.27,124.06 118.73,124.06 120.18,124.06 121.64,124.06 123.09,124.06 124.55,124.06 126.00,124.06 127.45,123.98 128.91,123.98 130.36,123.98 131.82,123.87 133.27,123.87 134.73,123.87 136.18,123.87 137.64,123.83 139.09,123.83 140.55,123.83 142.00,123.83 143.45,123.81 144.91,123.81 146.36,123.81 147.82,123.81 149.27,123.81 150.73,123.81 152.18,123.81 153.64,123.81 155.09,123.81 156.55,123.81 158.00,123.81 159.45,123.81 160.91,123.81 162.36,123.81 163.82,123.81 165.27,123.81 166.73,123.81 168.18,123.81 169.64,123.81 171.09,123.81 172.55,123.81 174.00,123.81 175.45,123.81 176.91,123.78 178.36,123.78 179.82,123.78 181.27,123.78 182.73,123.78 184.18,123.78 185.64,123.78 187.09,123.78 188.55,123.78 190.00,123.78 191.45,123.78 192.91,123.78 194.36,123.78 195.82,123.78 197.27,123.78 198.73,123.76 200.18,123.47 201.64,123.39 203.09,123.27 204.55,123.12 206.00,123.08 207.45,123.08 208.91,123.08 210.36,122.84 211.82,122.81 213.27,122.66 214.73,122.61 216.18,122.51 217.64,122.12 219.09,122.10 220.55,122.05 222.00,122.04 223.45,121.98 224.91,121.98 226.36,121.96 227.82,121.96 229.27,121.96 230.73,121.96 232.18,121.96 233.64,121.96 235.09,121.96 236.55,121.84 238.00,121.49 239.45,121.23 240.91,121.15 242.36,120.98 243.82,120.97 245.27,120.95 246.73,120.94 248.18,120.94 249.64,120.94 251.09,120.86 252.55,120.79 254.00,120.77 255.45,120.74 256.91,120.72 258.36,120.47 259.82,120.29 261.27,120.03 262.73,119.87 264.18,119.75 265.64,119.69 267.09,119.63 268.55,119.62 270.00,119.56 271.45,119.40 272.91,119.40 274.36,119.40 275.82,119.39 277.27,119.37 278.73,119.37 280.18,119.29 281.64,119.26 283.09,119.25 284.55,119.24 286.00,119.22 287.45,119.22 288.91,119.22 290.36,119.22 291.82,119.22 293.27,119.22 294.73,119.22 296.18,119.22 297.64,119.19 299.09,119.16 300.55,119.16 302.00,118.96 303.45,118.95 304.91,118.94 306.36,118.90 307.82,118.80 309.27,118.56 310.73,118.52 312.18,118.52 313.64,118.52 315.09,118.52 316.55,118.52 318.00,118.52 319.45,118.52 320.91,118.52 322.36,118.52 323.82,118.52 325.27,118.52 326.73,118.52 328.18,118.52 329.64,118.51 331.09,118.44 332.55,118.43 334.00,118.43 335.45,118.43 336.91,118.43 338.36,118.39 339.82,118.39 341.27,118.21 342.73,118.05 344.18,118.05 345.64,118.05 347.09,118.05 348.55,118.05 350.00,118.03 351.45,118.03 352.91,118.01 354.36,117.93 355.82,117.86 357.27,117.57 358.73,117.56 360.18,117.11 361.64,116.84 363.09,116.65 364.55,116.02 366.00,115.86 367.45,115.79 368.91,115.58 370.36,115.27 371.82,115.19 373.27,115.08 374.73,114.91 376.18,114.75 377.64,114.69 379.09,114.58 380.55,114.50 382.00,114.30 383.45,114.13 384.91,113.92 386.36,113.58 387.82,113.38 389.27,112.41 390.73,111.67 392.18,111.20 393.64,110.80 395.09,110.35 396.55,110.35 398.00,110.35 399.45,110.35 400.91,110.06 402.36,109.90 403.82,109.31 405.27,108.64 406.73,107.86 408.18,106.69 409.64,105.87 411.09,104.18 412.55,103.16 414.00,102.48 415.45,101.39 416.91,100.69 418.36,99.30 419.82,97.19 421.27,96.56 422.73,95.74 424.18,94.95 425.64,94.68 427.09,93.68 428.55,93.50 430.00,92.30 431.45,91.20 432.91,90.54 434.36,89.80 435.82,88.81 437.27,88.55 438.73,88.46 440.18,88.35 441.64,88.29 443.09,87.66 444.55,86.85 446.00,85.87 447.45,85.59 448.91,84.79 450.36,83.76 451.82,81.71 453.27,80.20 454.73,78.34 456.18,77.85 457.64,76.86 459.09,75.03 460.55,73.99 462.00,73.42 463.45,72.62 464.91,72.10 466.36,71.34 467.82,70.99 469.27,70.22 470.73,68.77 472.18,67.16 473.64,66.66 475.09,65.75 476.55,64.09 478.00,63.23 479.45,61.16 480.91,60.18 482.36,58.38 483.82,56.63 485.27,54.52 486.73,51.34 488.18,49.24 489.64,47.43 491.09,46.27 492.55,44.77 494.00,43.42 495.45,42.76 496.91,41.67 498.36,40.34 499.82,39.60 501.27,38.46 502.73,37.59 504.18,36.77 505.64,35.53 507.09,33.28 508.55,31.52 510.00,30.00" />
    </svg>
  