
    <svg width="540" height="160" xmlns="http://www.w3.org/2000/svg">
      <style>.line{fill:none;stroke:#388bfd;stroke-width:1.5}.axis{stroke:#555;stroke-width:1;opacity:0.5}.label{fill:#999;font-family:sans-serif;font-size:10px;text-anchor:middle}</style>
      <line class="axis" x1="30" y1="30" x2="30" y2="130" />
      <line class="axis" x1="30" y1="130" x2="510" y2="130" />
      <text class="label" x="15" y="30">9,521</text>
      <text class="label" x="15" y="134">0</text>
      <text class="label" x="30" y="148">2021</text>
      <text class="label" x="510" y="148">2026</text>
      <polyline class="line" points="30.00,129.98 31.43,129.97 32.85,129.96 34.28,129.96 35.71,129.96 37.14,129.82 38.56,129.82 39.99,129.82 41.42,129.07 42.84,127.82 44.27,127.75 45.70,127.75 47.13,127.75 48.55,127.75 49.98,127.75 51.41,127.75 52.83,127.75 54.26,127.75 55.69,127.75 57.12,127.75 58.54,127.75 59.97,127.75 61.40,127.75 62.82,127.75 64.25,127.75 65.68,127.75 67.11,127.75 68.53,127.04 69.96,127.04 71.39,127.03 72.81,127.03 74.24,127.03 75.67,127.03 77.10,126.99 78.52,126.99 79.95,126.99 81.38,126.99 82.80,126.99 84.23,126.99 85.66,126.99 87.09,126.99 88.51,126.99 89.94,126.99 91.37,126.99 92.79,126.99 94.22,126.99 95.65,126.99 97.08,126.99 98.50,126.99 99.93,126.99 101.36,126.99 102.78,126.94 104.21,126.30 105.64,125.71 107.07,125.47 108.49,124.31 109.92,124.31 111.35,124.31 112.78,124.31 114.20,124.31 115.63,124.31 117.06,124.31 118.48,124.31 119.91,124.31 121.34,124.31 122.77,124.31 124.19,124.31 125.62,124.22 127.05,124.22 128.47,124.22 129.90,124.12 131.33,124.12 132.76,124.12 134.18,124.12 135.61,124.09 137.04,124.09 138.46,124.09 139.89,124.09 141.32,124.07 142.75,124.07 144.17,124.07 145.60,124.07 147.03,124.07 148.45,124.07 149.88,124.07 151.31,124.07 152.74,124.07 154.16,124.07 155.59,124.07 157.02,124.07 158.44,124.07 159.87,124.07 161.30,124.07 162.73,124.07 164.15,124.07 165.58,124.07 167.01,124.07 168.43,124.07 169.86,124.07 171.29,124.07 172.72,124.07 174.14,124.03 175.57,124.03 177.00,124.03 178.42,124.03 179.85,124.03 181.28,124.03 182.71,124.03 184.13,124.03 185.56,124.03 186.99,124.03 188.41,124.03 189.84,124.03 191.27,124.03 192.70,124.03 194.12,124.03 195.55,124.01 196.98,123.74 198.40,123.67 199.83,123.55 201.26,123.40 202.69,123.36 204.11,123.36 205.54,123.36 206.97,123.13 208.39,123.11 209.82,122.96 211.25,122.91 212.68,122.82 214.10,122.45 215.53,122.43 216.96,122.37 218.38,122.36 219.81,122.31 221.24,122.31 222.67,122.29 224.09,122.29 225.52,122.29 226.95,122.29 228.37,122.29 229.80,122.29 231.23,122.29 232.66,122.18 234.08,121.84 235.51,121.59 236.94,121.51 238.36,121.36 239.79,121.35 241.22,121.32 242.65,121.31 244.07,121.31 245.50,121.31 246.93,121.24 248.35,121.17 249.78,121.15 251.21,121.12 252.64,121.10 254.06,120.86 255.49,120.69 256.92,120.44 258.34,120.28 259.77,120.17 261.20,120.12 262.63,120.05 264.05,120.04 265.48,119.99 266.91,119.83 268.33,119.83 269.76,119.83 271.19,119.82 272.62,119.81 274.04,119.81 275.47,119.73 276.90,119.71 278.33,119.70 279.75,119.69 281.18,119.66 282.61,119.66 284.03,119.66 285.46,119.66 286.89,119.66 288.32,119.66 289.74,119.66 291.17,119.66 292.60,119.63 294.02,119.60 295.45,119.60 296.88,119.41 298.31,119.40 299.73,119.39 301.16,119.36 302.59,119.27 304.01,119.03 305.44,118.99 306.87,118.99 308.30,118.99 309.72,118.99 311.15,118.99 312.58,118.99 314.00,118.99 315.43,118.99 316.86,118.99 318.29,118.99 319.71,118.99 321.14,118.99 322.57,118.99 323.99,118.98 325.42,118.92 326.85,118.91 328.28,118.91 329.70,118.91 331.13,118.91 332.56,118.87 333.98,118.87 335.41,118.70 336.84,118.54 338.27,118.54 339.69,118.54 341.12,118.54 342.55,118.54 343.97,118.52 345.40,118.52 346.83,118.50 348.26,118.43 349.68,118.36 351.11,118.08 352.54,118.07 353.96,117.64 355.39,117.39 356.82,117.20 358.25,116.60 359.67,116.44 361.10,116.38 362.53,116.18 363.95,115.87 365.38,115.80 366.81,115.69 368.24,115.53 369.66,115.38 371.09,115.32 372.52,115.21 373.94,115.14 375.37,114.95 376.80,114.78 378.23,114.58 379.65,114.26 381.08,114.07 382.51,113.13 383.93,112.43 385.36,111.98 386.79,111.59 388.22,111.16 389.64,111.16 391.07,111.16 392.50,111.16 393.92,110.88 395.35,110.73 396.78,110.16 398.21,109.52 399.63,108.77 401.06,107.65 402.49,106.86 403.91,105.24 405.34,104.27 406.77,103.62 408.20,102.57 409.62,101.89 411.05,100.56 412.48,98.54 413.90,97.93 415.33,97.15 416.76,96.39 418.19,96.14 419.61,95.17 421.04,95.00 422.47,93.85 423.89,92.80 425.32,92.17 426.75,91.45 428.18,90.51 429.60,90.26 431.03,90.17 432.46,90.07 433.89,90.00 435.31,89.41 436.74,88.63 438.17,87.68 439.59,87.42 441.02,86.65 442.45,85.67 443.88,83.70 445.30,82.25 446.73,80.47 448.16,79.99 449.58,79.05 451.01,77.30 452.44,76.30 453.87,75.75 455.29,74.98 456.72,74.48 458.15,73.76 459.57,73.42 461.00,72.68 462.43,71.29 463.86,69.74 465.28,69.27 466.71,68.40 468.14,66.80 469.56,65.98 470.99,64.00 472.42,63.05 473.85,61.33 475.27,59.65 476.70,57.62 478.13,54.58 479.55,52.56 480.98,50.83 482.41,49.71 483.84,48.28 485.26,46.98 486.69,46.35 488.12,45.30 489.54,44.03 490.97,43.32 492.40,42.23 493.83,41.40 495.25,40.61 496.68,39.42 498.11,37.26 499.53,35.52 500.96,34.06 502.39,32.86 503.82,32.42 505.24,31.85 506.67,31.39 508.10,30.86 509.52,30.13" />
    </svg>
  