
    <svg width="540" height="160" xmlns="http://www.w3.org/2000/svg">
      <style>.line{fill:none;stroke:#388bfd;stroke-width:1.5}.axis{stroke:#555;stroke-width:1;opacity:0.5}.label{fill:#999;font-family:sans-serif;font-size:10px;text-anchor:middle}</style>
      <line class="axis" x1="30" y1="30" x2="30" y2="130" />
      <line class="axis" x1="30" y1="130" x2="510" y2="130" />
      <text class="label" x="15" y="30">8,397</text>
      <text class="label" x="15" y="134">0</text>
      <text class="label" x="30" y="148">2021</text>
      <text class="label" x="510" y="148">2026</text>
      <polyline class="line" points="30.00,129.98 31.48,129.96 32.95,129.95 34.43,129.95 35.91,129.95 37.38,129.80 38.86,129.80 40.34,129.80 41.82,128.94 43.29,127.52 44.77,127.45 46.25,127.45 47.72,127.45 49.20,127.45 50.68,127.45 52.15,127.45 53.63,127.45 55.11,127.45 56.58,127.45 58.06,127.45 59.54,127.45 61.02,127.45 62.49,127.45 63.97,127.45 65.45,127.45 66.92,127.45 68.40,127.45 69.88,126.64 71.35,126.64 72.83,126.63 74.31,126.63 75.78,126.63 77.26,126.63 78.74,126.58 80.22,126.58 81.69,126.58 83.17,126.58 84.65,126.58 86.12,126.58 87.60,126.58 89.08,126.58 90.55,126.58 92.03,126.58 93.51,126.58 94.98,126.58 96.46,126.58 97.94,126.58 99.42,126.58 100.89,126.58 102.37,126.58 103.85,126.58 105.32,126.53 106.80,125.81 108.28,125.14 109.75,124.87 111.23,123.55 112.71,123.55 114.18,123.55 115.66,123.55 117.14,123.55 118.62,123.55 120.09,123.55 121.57,123.55 123.05,123.55 124.52,123.55 126.00,123.55 127.48,123.55 128.95,123.45 130.43,123.45 131.91,123.45 133.38,123.33 134.86,123.33 136.34,123.33 137.82,123.33 139.29,123.30 140.77,123.30 142.25,123.30 143.72,123.30 145.20,123.27 146.68,123.27 148.15,123.27 149.63,123.27 151.11,123.27 152.58,123.27 154.06,123.27 155.54,123.27 157.02,123.27 158.49,123.27 159.97,123.27 161.45,123.27 162.92,123.27 164.40,123.27 165.88,123.27 167.35,123.27 168.83,123.27 170.31,123.27 171.78,123.27 173.26,123.27 174.74,123.27 176.22,123.27 177.69,123.27 179.17,123.24 180.65,123.24 182.12,123.24 183.60,123.24 185.08,123.24 186.55,123.24 188.03,123.24 189.51,123.24 190.98,123.24 192.46,123.24 193.94,123.24 195.42,123.24 196.89,123.24 198.37,123.24 199.85,123.24 201.32,123.21 202.80,122.90 204.28,122.82 205.75,122.69 207.23,122.52 208.71,122.47 210.18,122.47 211.66,122.47 213.14,122.21 214.62,122.19 216.09,122.02 217.57,121.96 219.05,121.85 220.52,121.44 222.00,121.41 223.48,121.35 224.95,121.34 226.43,121.28 227.91,121.28 229.38,121.26 230.86,121.26 232.34,121.26 233.82,121.26 235.29,121.26 236.77,121.26 238.25,121.26 239.72,121.13 241.20,120.75 242.68,120.46 244.15,120.38 245.63,120.20 247.11,120.19 248.58,120.16 250.06,120.15 251.54,120.15 253.02,120.15 254.49,120.07 255.97,119.98 257.45,119.96 258.92,119.94 260.40,119.91 261.88,119.64 263.35,119.45 264.83,119.16 266.31,118.98 267.78,118.85 269.26,118.79 270.74,118.72 272.22,118.71 273.69,118.65 275.17,118.47 276.65,118.47 278.12,118.47 279.60,118.46 281.08,118.45 282.55,118.45 284.03,118.35 285.51,118.33 286.98,118.32 288.46,118.31 289.94,118.28 291.42,118.28 292.89,118.28 294.37,118.28 295.85,118.28 297.32,118.28 298.80,118.28 300.28,118.28 301.75,118.25 303.23,118.21 304.71,118.21 306.18,118.00 307.66,117.98 309.14,117.97 310.62,117.94 312.09,117.83 313.57,117.57 315.05,117.52 316.52,117.52 318.00,117.52 319.48,117.52 320.95,117.52 322.43,117.52 323.91,117.52 325.38,117.52 326.86,117.52 328.34,117.52 329.82,117.52 331.29,117.52 332.77,117.52 334.25,117.51 335.72,117.44 337.20,117.42 338.68,117.42 340.15,117.42 341.63,117.42 343.11,117.38 344.58,117.38 346.06,117.19 347.54,117.01 349.02,117.01 350.49,117.01 351.97,117.01 353.45,117.01 354.92,116.98 356.40,116.98 357.88,116.96 359.35,116.88 360.83,116.80 362.31,116.48 363.78,116.47 365.26,115.98 366.74,115.70 368.22,115.48 369.69,114.80 371.17,114.63 372.65,114.55 374.12,114.33 375.60,113.98 377.08,113.90 378.55,113.78 380.03,113.59 381.51,113.42 382.98,113.35 384.46,113.23 385.94,113.15 387.42,112.93 388.89,112.74 390.37,112.52 391.85,112.15 393.32,111.93 394.80,110.87 396.28,110.08 397.75,109.56 399.23,109.12 400.71,108.64 402.18,108.64 403.66,108.64 405.14,108.64 406.62,108.33 408.09,108.15 409.57,107.50 411.05,106.78 412.52,105.93 414.00,104.66 415.48,103.76 416.95,101.93 418.43,100.82 419.91,100.08 421.38,98.89 422.86,98.13 424.34,96.62 425.82,94.33 427.29,93.64 428.77,92.75 430.25,91.89 431.72,91.61 433.20,90.51 434.68,90.32 436.15,89.01 437.63,87.82 439.11,87.10 440.58,86.29 442.06,85.22 443.54,84.94 445.02,84.84 446.49,84.72 447.97,84.65 449.45,83.97 450.92,83.09 452.40,82.02 453.88,81.72 455.35,80.85 456.83,79.73 458.31,77.51 459.78,75.86 461.26,73.84 462.74,73.30 464.22,72.23 465.69,70.24 467.17,69.11 468.65,68.49 470.12,67.62 471.60,67.05 473.08,66.23 474.55,65.85 476.03,65.01 477.51,63.43 478.98,61.68 480.46,61.14 481.94,60.15 483.42,58.34 484.89,57.41 486.37,55.16 487.85,54.09 489.32,52.14 490.80,50.23 492.28,47.93 493.75,44.48 495.23,42.19 496.71,40.23 498.18,38.97 499.66,37.34 501.14,35.87 502.62,35.16 504.09,33.97 505.57,32.52 507.05,31.96 508.52,30.91 510.00,30.00" />
    </svg>
  