
    <svg width="540" height="160" xmlns="http://www.w3.org/2000/svg">
      <style>.line{fill:none;stroke:#388bfd;stroke-width:1.5}.axis{stroke:#555;stroke-width:1;opacity:0.5}.label{fill:#999;font-family:sans-serif;font-size:10px;text-anchor:middle}</style>
      <line class="axis" x1="30" y1="30" x2="30" y2="130" />
      <line class="axis" x1="30" y1="130" x2="510" y2="130" />
      <text class="label" x="15" y="30">7,845</text>
      <text class="label" x="15" y="134">0</text>
      <text class="label" x="30" y="148">2021</text>
      <text class="label" x="510" y="148">2026</text>
      <polyline class="line" points="30.00,129.97 31.49,129.96 32.97,129.95 34.46,129.95 35.94,129.95 37.43,129.78 38.91,129.78 40.40,129.78 41.88,128.87 43.37,127.35 44.85,127.27 46.34,127.27 47.82,127.27 49.31,127.27 50.79,127.27 52.28,127.27 53.76,127.27 55.25,127.27 56.74,127.27 58.22,127.27 59.71,127.27 61.19,127.27 62.68,127.27 64.16,127.27 65.65,127.27 67.13,127.27 68.62,127.27 70.10,126.41 71.59,126.41 73.07,126.39 74.56,126.39 76.04,126.39 77.53,126.39 79.01,126.34 80.50,126.34 81.99,126.34 83.47,126.34 84.96,126.34 86.44,126.34 87.93,126.34 89.41,126.34 90.90,126.34 92.38,126.34 93.87,126.34 95.35,126.34 96.84,126.34 98.32,126.34 99.81,126.34 101.29,126.34 102.78,126.34 104.27,126.34 105.75,126.29 107.24,125.51 108.72,124.80 110.21,124.51 111.69,123.09 113.18,123.09 114.66,123.09 116.15,123.09 117.63,123.09 119.12,123.09 120.60,123.09 122.09,123.09 123.57,123.09 125.06,123.09 126.54,123.09 128.03,123.09 129.52,122.99 131.00,122.99 132.49,122.99 133.97,122.86 135.46,122.86 136.94,122.86 138.43,122.86 139.91,122.82 141.40,122.82 142.88,122.82 144.37,122.82 145.85,122.80 147.34,122.80 148.82,122.80 150.31,122.80 151.79,122.80 153.28,122.80 154.77,122.80 156.25,122.80 157.74,122.80 159.22,122.80 160.71,122.80 162.19,122.80 163.68,122.80 165.16,122.80 166.65,122.80 168.13,122.80 169.62,122.80 171.10,122.80 172.59,122.80 174.07,122.80 175.56,122.80 177.04,122.80 178.53,122.80 180.02,122.76 181.50,122.76 182.99,122.76 184.47,122.76 185.96,122.76 187.44,122.76 188.93,122.76 190.41,122.76 191.90,122.76 193.38,122.76 194.87,122.76 196.35,122.76 197.84,122.76 199.32,122.76 200.81,122.76 202.29,122.73 203.78,122.40 205.27,122.31 206.75,122.17 208.24,121.99 209.72,121.94 211.21,121.94 212.69,121.94 214.18,121.66 215.66,121.64 217.15,121.46 218.63,121.40 220.12,121.28 221.60,120.83 223.09,120.81 224.57,120.75 226.06,120.73 227.55,120.67 229.03,120.67 230.52,120.64 232.00,120.64 233.49,120.64 234.97,120.64 236.46,120.64 237.94,120.64 239.43,120.64 240.91,120.50 242.40,120.10 243.88,119.79 245.37,119.70 246.85,119.51 248.34,119.50 249.82,119.47 251.31,119.46 252.80,119.46 254.28,119.46 255.77,119.37 257.25,119.28 258.74,119.25 260.22,119.23 261.71,119.20 263.19,118.91 264.68,118.71 266.16,118.40 267.65,118.21 269.13,118.07 270.62,118.01 272.10,117.93 273.59,117.92 275.07,117.85 276.56,117.66 278.05,117.66 279.53,117.66 281.02,117.65 282.50,117.64 283.99,117.64 285.47,117.53 286.96,117.51 288.44,117.50 289.93,117.48 291.41,117.46 292.90,117.46 294.38,117.46 295.87,117.46 297.35,117.46 298.84,117.46 300.32,117.46 301.81,117.46 303.30,117.42 304.78,117.38 306.27,117.38 307.75,117.15 309.24,117.14 310.72,117.13 312.21,117.09 313.69,116.97 315.18,116.69 316.66,116.64 318.15,116.64 319.63,116.64 321.12,116.64 322.60,116.64 324.09,116.64 325.58,116.64 327.06,116.64 328.55,116.64 330.03,116.64 331.52,116.64 333.00,116.64 334.49,116.64 335.97,116.63 337.46,116.55 338.94,116.54 340.43,116.54 341.91,116.54 343.40,116.54 344.88,116.49 346.37,116.49 347.85,116.28 349.34,116.09 350.83,116.09 352.31,116.09 353.80,116.09 355.28,116.09 356.77,116.07 358.25,116.07 359.74,116.04 361.22,115.95 362.71,115.88 364.19,115.53 365.68,115.52 367.16,115.00 368.65,114.69 370.13,114.46 371.62,113.73 373.10,113.54 374.59,113.47 376.08,113.22 377.56,112.86 379.05,112.77 380.53,112.64 382.02,112.43 383.50,112.26 384.99,112.18 386.47,112.05 387.96,111.96 389.44,111.73 390.93,111.53 392.41,111.29 393.90,110.89 395.38,110.66 396.87,109.53 398.35,108.67 399.84,108.13 401.33,107.65 402.81,107.13 404.30,107.13 405.78,107.13 407.27,107.13 408.75,106.80 410.24,106.61 411.72,105.92 413.21,105.14 414.69,104.24 416.18,102.87 417.66,101.92 419.15,99.96 420.63,98.77 422.12,97.98 423.60,96.70 425.09,95.89 426.58,94.27 428.06,91.82 429.55,91.08 431.03,90.13 432.52,89.21 434.00,88.90 435.49,87.73 436.97,87.53 438.46,86.12 439.94,84.85 441.43,84.09 442.91,83.22 444.40,82.07 445.88,81.77 447.37,81.66 448.86,81.54 450.34,81.46 451.83,80.73 453.31,79.79 454.80,78.64 456.28,78.32 457.77,77.39 459.25,76.20 460.74,73.81 462.22,72.05 463.71,69.89 465.19,69.31 466.68,68.16 468.16,66.04 469.65,64.82 471.13,64.16 472.62,63.23 474.11,62.62 475.59,61.74 477.08,61.33 478.56,60.44 480.05,58.74 481.53,56.87 483.02,56.30 484.50,55.33 485.99,53.77 487.47,52.86 488.96,50.99 490.44,50.01 491.93,48.10 493.41,46.16 494.90,44.12 496.38,40.67 497.87,38.57 499.36,36.55 500.84,35.43 502.33,33.77 503.81,32.36 505.30,31.87 506.78,31.10 508.27,30.20 509.75,30.00" />
    </svg>
  