
    <svg width="540" height="160" xmlns="http://www.w3.org/2000/svg">
      <style>.line{fill:none;stroke:#388bfd;stroke-width:1.5}.axis{stroke:#555;stroke-width:1;opacity:0.5}.label{fill:#999;font-family:sans-serif;font-size:10px;text-anchor:middle}</style>
      <line class="axis" x1="30" y1="30" x2="30" y2="130" />
      <line class="axis" x1="30" y1="130" x2="510" y2="130" />
      <text class="label" x="15" y="30">5,163</text>
      <text class="label" x="15" y="134">0</text>
      <text class="label" x="30" y="148">2021</text>
      <text class="label" x="510" y="148">2026</text>
      <polyline class="line" points="30.00,129.96 31.52,129.94 33.04,129.92 34.55,129.92 36.07,129.92 37.59,129.67 39.11,129.67 40.63,129.67 42.15,128.28 43.66,125.97 45.18,125.86 46.70,125.86 48.22,125.86 49.74,125.86 51.25,125.86 52.77,125.86 54.29,125.86 55.81,125.86 57.33,125.86 58.85,125.86 60.36,125.86 61.88,125.86 63.40,125.86 64.92,125.86 66.44,125.86 67.95,125.86 69.47,125.86 70.99,124.54 72.51,124.54 74.03,124.52 75.55,124.52 77.06,124.52 78.58,124.52 80.10,124.44 81.62,124.44 83.14,124.44 84.65,124.44 86.17,124.44 87.69,124.44 89.21,124.44 90.73,124.44 92.25,124.44 93.76,124.44 95.28,124.44 96.80,124.44 98.32,124.44 99.84,124.44 101.35,124.44 102.87,124.44 104.39,124.44 105.91,124.44 107.43,124.36 108.95,123.18 110.46,122.10 111.98,121.65 113.50,119.50 115.02,119.50 116.54,119.50 118.05,119.50 119.57,119.50 121.09,119.50 122.61,119.50 124.13,119.50 125.65,119.50 127.16,119.50 128.68,119.50 130.20,119.50 131.72,119.35 133.24,119.35 134.75,119.35 136.27,119.15 137.79,119.15 139.31,119.15 140.83,119.15 142.35,119.10 143.86,119.10 145.38,119.10 146.90,119.10 148.42,119.06 149.94,119.06 151.45,119.06 152.97,119.06 154.49,119.06 156.01,119.06 157.53,119.06 159.05,119.06 160.56,119.06 162.08,119.06 163.60,119.06 165.12,119.06 166.64,119.06 168.15,119.06 169.67,119.06 171.19,119.06 172.71,119.06 174.23,119.06 175.75,119.06 177.26,119.06 178.78,119.06 180.30,119.06 181.82,119.06 183.34,119.00 184.86,119.00 186.37,119.00 187.89,119.00 189.41,119.00 190.93,119.00 192.45,119.00 193.96,119.00 195.48,119.00 197.00,119.00 198.52,119.00 200.04,119.00 201.56,119.00 203.07,119.00 204.59,119.00 206.11,118.96 207.63,118.46 209.15,118.32 210.66,118.11 212.18,117.84 213.70,117.76 215.22,117.76 216.74,117.76 218.26,117.33 219.77,117.29 221.29,117.02 222.81,116.93 224.33,116.75 225.85,116.07 227.36,116.04 228.88,115.94 230.40,115.92 231.92,115.82 233.44,115.82 234.96,115.78 236.47,115.78 237.99,115.78 239.51,115.78 241.03,115.78 242.55,115.78 244.06,115.78 245.58,115.57 247.10,114.95 248.62,114.49 250.14,114.35 251.66,114.06 253.17,114.04 254.69,114.00 256.21,113.98 257.73,113.98 259.25,113.98 260.76,113.85 262.28,113.71 263.80,113.67 265.32,113.63 266.84,113.59 268.36,113.15 269.87,112.84 271.39,112.37 272.91,112.08 274.43,111.87 275.95,111.77 277.46,111.66 278.98,111.64 280.50,111.54 282.02,111.25 283.54,111.25 285.06,111.25 286.57,111.23 288.09,111.21 289.61,111.21 291.13,111.06 292.65,111.02 294.16,111.00 295.68,110.98 297.20,110.94 298.72,110.94 300.24,110.94 301.76,110.94 303.27,110.94 304.79,110.94 306.31,110.94 307.83,110.94 309.35,110.88 310.86,110.83 312.38,110.83 313.90,110.48 315.42,110.46 316.94,110.44 318.46,110.38 319.97,110.21 321.49,109.78 323.01,109.70 324.53,109.70 326.05,109.70 327.56,109.70 329.08,109.70 330.60,109.70 332.12,109.70 333.64,109.70 335.16,109.70 336.67,109.70 338.19,109.70 339.71,109.70 341.23,109.70 342.75,109.68 344.26,109.57 345.78,109.55 347.30,109.55 348.82,109.55 350.34,109.55 351.86,109.47 353.37,109.47 354.89,109.16 356.41,108.87 357.93,108.87 359.45,108.87 360.96,108.87 362.48,108.87 364.00,108.83 365.52,108.83 367.04,108.79 368.56,108.66 370.07,108.54 371.59,108.02 373.11,108.00 374.63,107.20 376.15,106.74 377.66,106.39 379.18,105.29 380.70,105.00 382.22,104.88 383.74,104.51 385.26,103.95 386.77,103.81 388.29,103.62 389.81,103.31 391.33,103.04 392.85,102.92 394.36,102.73 395.88,102.59 397.40,102.24 398.92,101.93 400.44,101.57 401.96,100.97 403.47,100.62 404.99,98.89 406.51,97.60 408.03,96.76 409.55,96.05 411.06,95.25 412.58,95.25 414.10,95.25 415.62,95.25 417.14,94.75 418.66,94.46 420.17,93.82 421.69,93.08 423.21,92.08 424.73,90.49 426.25,89.60 427.76,87.97 429.28,87.02 430.80,86.42 432.32,85.43 433.84,84.66 435.36,83.34 436.87,81.42 438.39,80.86 439.91,80.05 441.43,79.35 442.95,79.12 444.46,78.23 445.98,78.07 447.50,77.01 449.02,76.04 450.54,75.46 452.06,74.78 453.57,73.85 455.09,73.58 456.61,73.44 458.13,73.31 459.65,73.19 461.16,72.46 462.68,71.62 464.20,70.31 465.72,69.92 467.24,69.24 468.76,68.14 470.27,65.68 471.79,63.82 473.31,61.75 474.83,61.30 476.35,60.39 477.87,58.55 479.38,57.43 480.90,56.81 482.42,55.88 483.94,55.39 485.46,54.71 486.97,54.40 488.49,53.36 490.01,51.79 491.53,50.30 493.05,49.85 494.57,49.08 496.08,47.68 497.60,46.64 499.12,45.09 500.64,44.29 502.16,42.71 503.67,40.59 505.19,38.79 506.71,34.98 508.23,32.29 509.75,30.43" />
    </svg>
  