
    <svg width="540" height="160" xmlns="http://www.w3.org/2000/svg">
      <style>.line{fill:none;stroke:#388bfd;stroke-width:1.5}.axis{stroke:#555;stroke-width:1;opacity:0.5}.label{fill:#999;font-family:sans-serif;font-size:10px;text-anchor:middle}</style>
      <line class="axis" x1="30" y1="30" x2="30" y2="130" />
      <line class="axis" x1="30" y1="130" x2="510" y2="130" />
      <text class="label" x="15" y="30">8,534</text>
      <text class="label" x="15" y="134">0</text>
      <text class="label" x="30" y="148">2021</text>
      <text class="label" x="510" y="148">2026</text>
      <polyline class="line" points="30.00,129.98 31.47,129.96 32.94,129.95 34.41,129.95 35.88,129.95 37.35,129.80 38.82,129.80 40.29,129.80 41.76,128.96 43.23,127.56 44.70,127.49 46.17,127.49 47.64,127.49 49.11,127.49 50.58,127.49 52.05,127.49 53.52,127.49 54.99,127.49 56.46,127.49 57.93,127.49 59.40,127.49 60.87,127.49 62.34,127.49 63.81,127.49 65.28,127.49 66.75,127.49 68.22,127.49 69.69,126.70 71.16,126.70 72.63,126.68 74.10,126.68 75.57,126.68 77.04,126.68 78.51,126.64 79.98,126.64 81.45,126.64 82.92,126.64 84.40,126.64 85.87,126.64 87.34,126.64 88.81,126.64 90.28,126.64 91.75,126.64 93.22,126.64 94.69,126.64 96.16,126.64 97.63,126.64 99.10,126.64 100.57,126.64 102.04,126.64 103.51,126.64 104.98,126.59 106.45,125.88 107.92,125.22 109.39,124.95 110.86,123.65 112.33,123.65 113.80,123.65 115.27,123.65 116.74,123.65 118.21,123.65 119.68,123.65 121.15,123.65 122.62,123.65 124.09,123.65 125.56,123.65 127.03,123.65 128.50,123.56 129.97,123.56 131.44,123.56 132.91,123.44 134.38,123.44 135.85,123.44 137.32,123.44 138.79,123.40 140.26,123.40 141.73,123.40 143.20,123.40 144.67,123.38 146.14,123.38 147.61,123.38 149.08,123.38 150.55,123.38 152.02,123.38 153.49,123.38 154.96,123.38 156.43,123.38 157.90,123.38 159.37,123.38 160.84,123.38 162.31,123.38 163.78,123.38 165.25,123.38 166.72,123.38 168.19,123.38 169.66,123.38 171.13,123.38 172.60,123.38 174.07,123.38 175.54,123.38 177.01,123.38 178.48,123.34 179.95,123.34 181.42,123.34 182.89,123.34 184.36,123.34 185.83,123.34 187.30,123.34 188.77,123.34 190.25,123.34 191.72,123.34 193.19,123.34 194.66,123.34 196.13,123.34 197.60,123.34 199.07,123.34 200.54,123.32 202.01,123.02 203.48,122.93 204.95,122.81 206.42,122.64 207.89,122.59 209.36,122.59 210.83,122.59 212.30,122.34 213.77,122.31 215.24,122.15 216.71,122.09 218.18,121.99 219.65,121.57 221.12,121.55 222.59,121.49 224.06,121.48 225.53,121.42 227.00,121.42 228.47,121.40 229.94,121.40 231.41,121.40 232.88,121.40 234.35,121.40 235.82,121.40 237.29,121.40 238.76,121.27 240.23,120.90 241.70,120.61 243.17,120.53 244.64,120.36 246.11,120.34 247.58,120.32 249.05,120.31 250.52,120.31 251.99,120.31 253.46,120.23 254.93,120.15 256.40,120.12 257.87,120.10 259.34,120.07 260.81,119.81 262.28,119.62 263.75,119.34 265.22,119.16 266.69,119.03 268.16,118.97 269.63,118.90 271.10,118.89 272.57,118.83 274.04,118.66 275.51,118.66 276.98,118.66 278.45,118.65 279.92,118.63 281.39,118.63 282.86,118.54 284.33,118.52 285.80,118.50 287.27,118.49 288.74,118.47 290.21,118.47 291.68,118.47 293.15,118.47 294.62,118.47 296.09,118.47 297.57,118.47 299.04,118.47 300.51,118.43 301.98,118.40 303.45,118.40 304.92,118.19 306.39,118.18 307.86,118.16 309.33,118.13 310.80,118.02 312.27,117.77 313.74,117.72 315.21,117.72 316.68,117.72 318.15,117.72 319.62,117.72 321.09,117.72 322.56,117.72 324.03,117.72 325.50,117.72 326.97,117.72 328.44,117.72 329.91,117.72 331.38,117.72 332.85,117.71 334.32,117.64 335.79,117.63 337.26,117.63 338.73,117.63 340.20,117.63 341.67,117.58 343.14,117.58 344.61,117.39 346.08,117.22 347.55,117.22 349.02,117.22 350.49,117.22 351.96,117.22 353.43,117.19 354.90,117.19 356.37,117.17 357.84,117.09 359.31,117.02 360.78,116.70 362.25,116.69 363.72,116.21 365.19,115.93 366.66,115.72 368.13,115.05 369.60,114.87 371.07,114.80 372.54,114.58 374.01,114.24 375.48,114.16 376.95,114.04 378.42,113.85 379.89,113.69 381.36,113.62 382.83,113.50 384.30,113.42 385.77,113.21 387.24,113.02 388.71,112.80 390.18,112.43 391.65,112.22 393.12,111.18 394.59,110.40 396.06,109.89 397.53,109.46 399.00,108.98 400.47,108.98 401.94,108.98 403.42,108.98 404.89,108.67 406.36,108.50 407.83,107.87 409.30,107.15 410.77,106.32 412.24,105.06 413.71,104.19 415.18,102.38 416.65,101.29 418.12,100.56 419.59,99.39 421.06,98.64 422.53,97.15 424.00,94.91 425.47,94.23 426.94,93.35 428.41,92.50 429.88,92.22 431.35,91.14 432.82,90.96 434.29,89.67 435.76,88.50 437.23,87.79 438.70,87.00 440.17,85.94 441.64,85.66 443.11,85.57 444.58,85.45 446.05,85.38 447.52,84.71 448.99,83.84 450.46,82.79 451.93,82.50 453.40,81.64 454.87,80.54 456.34,78.35 457.81,76.73 459.28,74.74 460.75,74.21 462.22,73.16 463.69,71.20 465.16,70.09 466.63,69.48 468.10,68.62 469.57,68.06 471.04,67.25 472.51,66.88 473.98,66.06 475.45,64.50 476.92,62.77 478.39,62.25 479.86,61.27 481.33,59.49 482.80,58.58 484.27,56.37 485.74,55.31 487.21,53.39 488.68,51.51 490.15,49.25 491.62,45.85 493.09,43.60 494.56,41.67 496.03,40.43 497.50,38.82 498.97,37.38 500.44,36.68 501.91,35.51 503.38,34.09 504.85,33.54 506.32,32.50 507.79,31.61 509.26,30.73" />
    </svg>
  