
    <svg width="540" height="160" xmlns="http://www.w3.org/2000/svg">
      <style>.line{fill:none;stroke:#388bfd;stroke-width:1.5}.axis{stroke:#555;stroke-width:1;opacity:0.5}.label{fill:#999;font-family:sans-serif;font-size:10px;text-anchor:middle}</style>
      <line class="axis" x1="30" y1="30" x2="30" y2="130" />
      <line class="axis" x1="30" y1="130" x2="510" y2="130" />
      <text class="label" x="15" y="30">8,861</text>
      <text class="label" x="15" y="134">0</text>
      <text class="label" x="30" y="148">2021</text>
      <text class="label" x="510" y="148">2026</text>
      <polyline class="line" points="30.00,129.98 31.46,129.97 32.93,129.95 34.39,129.95 35.85,129.95 37.31,129.81 38.78,129.81 40.24,129.81 41.70,129.00 43.16,127.65 44.63,127.58 46.09,127.58 47.55,127.58 49.01,127.58 50.48,127.58 51.94,127.58 53.40,127.58 54.87,127.58 56.33,127.58 57.79,127.58 59.25,127.58 60.72,127.58 62.18,127.58 63.64,127.58 65.10,127.58 66.57,127.58 68.03,127.58 69.49,126.82 70.95,126.82 72.42,126.81 73.88,126.81 75.34,126.81 76.81,126.81 78.27,126.76 79.73,126.76 81.19,126.76 82.66,126.76 84.12,126.76 85.58,126.76 87.04,126.76 88.51,126.76 89.97,126.76 91.43,126.76 92.89,126.76 94.36,126.76 95.82,126.76 97.28,126.76 98.75,126.76 100.21,126.76 101.67,126.76 103.13,126.76 104.60,126.72 106.06,126.03 107.52,125.40 108.98,125.14 110.45,123.88 111.91,123.88 113.37,123.88 114.83,123.88 116.30,123.88 117.76,123.88 119.22,123.88 120.69,123.88 122.15,123.88 123.61,123.88 125.07,123.88 126.54,123.88 128.00,123.79 129.46,123.79 130.92,123.79 132.39,123.68 133.85,123.68 135.31,123.68 136.78,123.68 138.24,123.65 139.70,123.65 141.16,123.65 142.63,123.65 144.09,123.62 145.55,123.62 147.01,123.62 148.48,123.62 149.94,123.62 151.40,123.62 152.86,123.62 154.33,123.62 155.79,123.62 157.25,123.62 158.72,123.62 160.18,123.62 161.64,123.62 163.10,123.62 164.57,123.62 166.03,123.62 167.49,123.62 168.95,123.62 170.42,123.62 171.88,123.62 173.34,123.62 174.80,123.62 176.27,123.62 177.73,123.59 179.19,123.59 180.66,123.59 182.12,123.59 183.58,123.59 185.04,123.59 186.51,123.59 187.97,123.59 189.43,123.59 190.89,123.59 192.36,123.59 193.82,123.59 195.28,123.59 196.74,123.59 198.21,123.59 199.67,123.57 201.13,123.27 202.60,123.19 204.06,123.07 205.52,122.91 206.98,122.87 208.45,122.87 209.91,122.87 211.37,122.62 212.83,122.60 214.30,122.44 215.76,122.38 217.22,122.28 218.68,121.89 220.15,121.86 221.61,121.81 223.07,121.80 224.54,121.74 226.00,121.74 227.46,121.72 228.92,121.72 230.39,121.72 231.85,121.72 233.31,121.72 234.77,121.72 236.24,121.72 237.70,121.59 239.16,121.23 240.62,120.96 242.09,120.88 243.55,120.71 245.01,120.70 246.48,120.68 247.94,120.67 249.40,120.67 250.86,120.67 252.33,120.59 253.79,120.51 255.25,120.49 256.71,120.46 258.18,120.44 259.64,120.18 261.10,120.00 262.56,119.73 264.03,119.56 265.49,119.44 266.95,119.38 268.42,119.31 269.88,119.30 271.34,119.25 272.80,119.08 274.27,119.08 275.73,119.08 277.19,119.06 278.65,119.05 280.12,119.05 281.58,118.96 283.04,118.94 284.50,118.93 285.97,118.92 287.43,118.90 288.89,118.90 290.36,118.90 291.82,118.90 293.28,118.90 294.74,118.90 296.21,118.90 297.67,118.90 299.13,118.86 300.59,118.83 302.06,118.83 303.52,118.62 304.98,118.61 306.44,118.60 307.91,118.57 309.37,118.47 310.83,118.22 312.30,118.17 313.76,118.17 315.22,118.17 316.68,118.17 318.15,118.17 319.61,118.17 321.07,118.17 322.53,118.17 324.00,118.17 325.46,118.17 326.92,118.17 328.38,118.17 329.85,118.17 331.31,118.16 332.77,118.09 334.24,118.08 335.70,118.08 337.16,118.08 338.62,118.08 340.09,118.04 341.55,118.04 343.01,117.86 344.47,117.69 345.94,117.69 347.40,117.69 348.86,117.69 350.33,117.69 351.79,117.67 353.25,117.67 354.71,117.64 356.18,117.56 357.64,117.50 359.10,117.19 360.56,117.18 362.03,116.72 363.49,116.45 364.95,116.24 366.41,115.60 367.88,115.43 369.34,115.36 370.80,115.15 372.27,114.82 373.73,114.74 375.19,114.63 376.65,114.45 378.12,114.29 379.58,114.22 381.04,114.11 382.50,114.03 383.97,113.83 385.43,113.65 386.89,113.43 388.35,113.08 389.82,112.88 391.28,111.88 392.74,111.12 394.21,110.63 395.67,110.22 397.13,109.75 398.59,109.75 400.06,109.75 401.52,109.75 402.98,109.46 404.44,109.29 405.91,108.68 407.37,107.99 408.83,107.19 410.29,105.98 411.76,105.14 413.22,103.40 414.68,102.35 416.15,101.65 417.61,100.52 419.07,99.80 420.53,98.37 422.00,96.20 423.46,95.55 424.92,94.70 426.38,93.89 427.85,93.62 429.31,92.58 430.77,92.40 432.23,91.16 433.70,90.03 435.16,89.35 436.62,88.58 438.09,87.57 439.55,87.30 441.01,87.21 442.47,87.09 443.94,87.03 445.40,86.38 446.86,85.55 448.32,84.53 449.79,84.25 451.25,83.43 452.71,82.36 454.17,80.25 455.64,78.70 457.10,76.78 458.56,76.27 460.03,75.25 461.49,73.37 462.95,72.30 464.41,71.71 465.88,70.89 467.34,70.35 468.80,69.57 470.26,69.21 471.73,68.42 473.19,66.91 474.65,65.26 476.11,64.75 477.58,63.81 479.04,62.10 480.50,61.22 481.97,59.08 483.43,58.07 484.89,56.22 486.35,54.41 487.82,52.23 489.28,48.96 490.74,46.79 492.20,44.93 493.67,43.73 495.13,42.19 496.59,40.80 498.05,40.12 499.52,38.99 500.98,37.63 502.44,36.86 503.91,35.69 505.37,34.80 506.83,33.95 508.29,32.67 509.76,30.35" />
    </svg>
  