
    <svg width="540" height="160" xmlns="http://www.w3.org/2000/svg">
      <style>.line{fill:none;stroke:#388bfd;stroke-width:1.5}.axis{stroke:#555;stroke-width:1;opacity:0.5}.label{fill:#999;font-family:sans-serif;font-size:10px;text-anchor:middle}</style>
      <line class="axis" x1="30" y1="30" x2="30" y2="130" />
      <line class="axis" x1="30" y1="130" x2="510" y2="130" />
      <text class="label" x="15" y="30">9,476</text>
      <text class="label" x="15" y="134">0</text>
      <text class="label" x="30" y="148">2021</text>
      <text class="label" x="510" y="148">2026</text>
      <polyline class="line" points="30.00,129.98 31.43,129.97 32.86,129.96 34.29,129.96 35.73,129.96 37.16,129.82 38.59,129.82 40.02,129.82 41.45,129.06 42.88,127.80 44.31,127.74 45.75,127.74 47.18,127.74 48.61,127.74 50.04,127.74 51.47,127.74 52.90,127.74 54.33,127.74 55.77,127.74 57.20,127.74 58.63,127.74 60.06,127.74 61.49,127.74 62.92,127.74 64.35,127.74 65.79,127.74 67.22,127.74 68.65,127.02 70.08,127.02 71.51,127.01 72.94,127.01 74.37,127.01 75.81,127.01 77.24,126.97 78.67,126.97 80.10,126.97 81.53,126.97 82.96,126.97 84.39,126.97 85.83,126.97 87.26,126.97 88.69,126.97 90.12,126.97 91.55,126.97 92.98,126.97 94.41,126.97 95.84,126.97 97.28,126.97 98.71,126.97 100.14,126.97 101.57,126.97 103.00,126.93 104.43,126.29 105.86,125.69 107.30,125.45 108.73,124.28 110.16,124.28 111.59,124.28 113.02,124.28 114.45,124.28 115.88,124.28 117.32,124.28 118.75,124.28 120.18,124.28 121.61,124.28 123.04,124.28 124.47,124.28 125.90,124.20 127.34,124.20 128.77,124.20 130.20,124.09 131.63,124.09 133.06,124.09 134.49,124.09 135.92,124.06 137.36,124.06 138.79,124.06 140.22,124.06 141.65,124.04 143.08,124.04 144.51,124.04 145.94,124.04 147.38,124.04 148.81,124.04 150.24,124.04 151.67,124.04 153.10,124.04 154.53,124.04 155.96,124.04 157.40,124.04 158.83,124.04 160.26,124.04 161.69,124.04 163.12,124.04 164.55,124.04 165.98,124.04 167.42,124.04 168.85,124.04 170.28,124.04 171.71,124.04 173.14,124.04 174.57,124.01 176.00,124.01 177.44,124.01 178.87,124.01 180.30,124.01 181.73,124.01 183.16,124.01 184.59,124.01 186.02,124.01 187.46,124.01 188.89,124.01 190.32,124.01 191.75,124.01 193.18,124.01 194.61,124.01 196.04,123.98 197.48,123.71 198.91,123.64 200.34,123.52 201.77,123.37 203.20,123.33 204.63,123.33 206.06,123.33 207.50,123.10 208.93,123.08 210.36,122.93 211.79,122.88 213.22,122.78 214.65,122.41 216.08,122.39 217.51,122.34 218.95,122.33 220.38,122.28 221.81,122.28 223.24,122.25 224.67,122.25 226.10,122.25 227.53,122.25 228.97,122.25 230.40,122.25 231.83,122.25 233.26,122.14 234.69,121.80 236.12,121.55 237.55,121.47 238.99,121.31 240.42,121.30 241.85,121.28 243.28,121.27 244.71,121.27 246.14,121.27 247.57,121.20 249.01,121.12 250.44,121.10 251.87,121.08 253.30,121.06 254.73,120.82 256.16,120.65 257.59,120.40 259.03,120.24 260.46,120.12 261.89,120.07 263.32,120.01 264.75,120.00 266.18,119.94 267.61,119.78 269.05,119.78 270.48,119.78 271.91,119.77 273.34,119.76 274.77,119.76 276.20,119.68 277.63,119.66 279.07,119.65 280.50,119.64 281.93,119.62 283.36,119.62 284.79,119.62 286.22,119.62 287.65,119.62 289.09,119.62 290.52,119.62 291.95,119.62 293.38,119.58 294.81,119.55 296.24,119.55 297.67,119.36 299.11,119.35 300.54,119.34 301.97,119.31 303.40,119.21 304.83,118.98 306.26,118.94 307.69,118.94 309.13,118.94 310.56,118.94 311.99,118.94 313.42,118.94 314.85,118.94 316.28,118.94 317.71,118.94 319.15,118.94 320.58,118.94 322.01,118.94 323.44,118.94 324.87,118.93 326.30,118.87 327.73,118.86 329.17,118.86 330.60,118.86 332.03,118.86 333.46,118.81 334.89,118.81 336.32,118.64 337.75,118.49 339.18,118.49 340.62,118.49 342.05,118.49 343.48,118.49 344.91,118.47 346.34,118.47 347.77,118.44 349.20,118.37 350.64,118.31 352.07,118.02 353.50,118.01 354.93,117.58 356.36,117.33 357.79,117.14 359.22,116.53 360.66,116.38 362.09,116.31 363.52,116.11 364.95,115.81 366.38,115.73 367.81,115.63 369.24,115.46 370.68,115.31 372.11,115.25 373.54,115.14 374.97,115.07 376.40,114.88 377.83,114.71 379.26,114.51 380.70,114.18 382.13,113.99 383.56,113.05 384.99,112.34 386.42,111.89 387.85,111.50 389.28,111.07 390.72,111.07 392.15,111.07 393.58,111.07 395.01,110.79 396.44,110.64 397.87,110.07 399.30,109.42 400.74,108.67 402.17,107.54 403.60,106.75 405.03,105.13 406.46,104.15 407.89,103.49 409.32,102.44 410.76,101.76 412.19,100.42 413.62,98.39 415.05,97.78 416.48,96.99 417.91,96.23 419.34,95.98 420.78,95.01 422.21,94.84 423.64,93.68 425.07,92.62 426.50,91.99 427.93,91.27 429.36,90.32 430.80,90.07 432.23,89.98 433.66,89.88 435.09,89.81 436.52,89.21 437.95,88.43 439.38,87.48 440.82,87.22 442.25,86.45 443.68,85.46 445.11,83.48 446.54,82.03 447.97,80.23 449.40,79.76 450.83,78.81 452.27,77.05 453.70,76.04 455.13,75.49 456.56,74.72 457.99,74.22 459.42,73.49 460.85,73.15 462.29,72.41 463.72,71.01 465.15,69.46 466.58,68.98 468.01,68.11 469.44,66.50 470.87,65.68 472.31,63.69 473.74,62.74 475.17,61.00 476.60,59.32 478.03,57.28 479.46,54.22 480.89,52.19 482.33,50.45 483.76,49.33 485.19,47.89 486.62,46.59 488.05,45.96 489.48,44.90 490.91,43.62 492.35,42.91 493.78,41.81 495.21,40.98 496.64,40.18 498.07,38.99 499.50,36.82 500.93,35.08 502.37,33.61 503.80,32.40 505.23,31.95 506.66,31.38 508.09,30.92 509.52,30.39" />
    </svg>
  