
    <svg width="540" height="160" xmlns="http://www.w3.org/2000/svg">
      <style>.line{fill:none;stroke:#388bfd;stroke-width:1.5}.axis{stroke:#555;stroke-width:1;opacity:0.5}.label{fill:#999;font-family:sans-serif;font-size:10px;text-anchor:middle}</style>
      <line class="axis" x1="30" y1="30" x2="30" y2="130" />
      <line class="axis" x1="30" y1="130" x2="510" y2="130" />
      <text class="label" x="15" y="30">9,404</text>
      <text class="label" x="15" y="134">0</text>
      <text class="label" x="30" y="148">2021</text>
      <text class="label" x="510" y="148">2026</text>
      <polyline class="line" points="30.00,129.98 31.44,129.97 32.87,129.96 34.31,129.96 35.74,129.96 37.18,129.82 38.61,129.82 40.05,129.82 41.49,129.05 42.92,127.79 44.36,127.72 45.79,127.72 47.23,127.72 48.66,127.72 50.10,127.72 51.54,127.72 52.97,127.72 54.41,127.72 55.84,127.72 57.28,127.72 58.71,127.72 60.15,127.72 61.59,127.72 63.02,127.72 64.46,127.72 65.89,127.72 67.33,127.72 68.76,127.00 70.20,127.00 71.64,126.99 73.07,126.99 74.51,126.99 75.94,126.99 77.38,126.95 78.81,126.95 80.25,126.95 81.68,126.95 83.12,126.95 84.56,126.95 85.99,126.95 87.43,126.95 88.86,126.95 90.30,126.95 91.73,126.95 93.17,126.95 94.61,126.95 96.04,126.95 97.48,126.95 98.91,126.95 100.35,126.95 101.78,126.95 103.22,126.91 104.66,126.26 106.09,125.66 107.53,125.42 108.96,124.24 110.40,124.24 111.83,124.24 113.27,124.24 114.71,124.24 116.14,124.24 117.58,124.24 119.01,124.24 120.45,124.24 121.88,124.24 123.32,124.24 124.76,124.24 126.19,124.15 127.63,124.15 129.06,124.15 130.50,124.05 131.93,124.05 133.37,124.05 134.81,124.05 136.24,124.01 137.68,124.01 139.11,124.01 140.55,124.01 141.98,123.99 143.42,123.99 144.86,123.99 146.29,123.99 147.73,123.99 149.16,123.99 150.60,123.99 152.03,123.99 153.47,123.99 154.91,123.99 156.34,123.99 157.78,123.99 159.21,123.99 160.65,123.99 162.08,123.99 163.52,123.99 164.96,123.99 166.39,123.99 167.83,123.99 169.26,123.99 170.70,123.99 172.13,123.99 173.57,123.99 175.00,123.96 176.44,123.96 177.88,123.96 179.31,123.96 180.75,123.96 182.18,123.96 183.62,123.96 185.05,123.96 186.49,123.96 187.93,123.96 189.36,123.96 190.80,123.96 192.23,123.96 193.67,123.96 195.10,123.96 196.54,123.94 197.98,123.66 199.41,123.59 200.85,123.47 202.28,123.32 203.72,123.28 205.15,123.28 206.59,123.28 208.03,123.05 209.46,123.02 210.90,122.88 212.33,122.82 213.77,122.73 215.20,122.35 216.64,122.33 218.08,122.28 219.51,122.27 220.95,122.22 222.38,122.22 223.82,122.19 225.25,122.19 226.69,122.19 228.13,122.19 229.56,122.19 231.00,122.19 232.43,122.19 233.87,122.08 235.30,121.74 236.74,121.48 238.18,121.41 239.61,121.25 241.05,121.24 242.48,121.22 243.92,121.21 245.35,121.21 246.79,121.21 248.23,121.13 249.66,121.06 251.10,121.04 252.53,121.01 253.97,120.99 255.40,120.75 256.84,120.58 258.28,120.32 259.71,120.16 261.15,120.05 262.58,119.99 264.02,119.93 265.45,119.92 266.89,119.87 268.33,119.71 269.76,119.71 271.20,119.71 272.63,119.70 274.07,119.69 275.50,119.69 276.94,119.60 278.37,119.58 279.81,119.57 281.25,119.56 282.68,119.54 284.12,119.54 285.55,119.54 286.99,119.54 288.42,119.54 289.86,119.54 291.30,119.54 292.73,119.54 294.17,119.50 295.60,119.47 297.04,119.47 298.47,119.28 299.91,119.27 301.35,119.26 302.78,119.23 304.22,119.13 305.65,118.90 307.09,118.86 308.52,118.86 309.96,118.86 311.40,118.86 312.83,118.86 314.27,118.86 315.70,118.86 317.14,118.86 318.57,118.86 320.01,118.86 321.45,118.86 322.88,118.86 324.32,118.86 325.75,118.85 327.19,118.78 328.62,118.77 330.06,118.77 331.50,118.77 332.93,118.77 334.37,118.73 335.80,118.73 337.24,118.56 338.67,118.40 340.11,118.40 341.55,118.40 342.98,118.40 344.42,118.40 345.85,118.38 347.29,118.38 348.72,118.36 350.16,118.28 351.60,118.22 353.03,117.93 354.47,117.92 355.90,117.48 357.34,117.23 358.77,117.04 360.21,116.43 361.65,116.27 363.08,116.21 364.52,116.01 365.95,115.70 367.39,115.62 368.82,115.52 370.26,115.35 371.69,115.20 373.13,115.13 374.57,115.03 376.00,114.95 377.44,114.76 378.87,114.59 380.31,114.39 381.74,114.06 383.18,113.87 384.62,112.92 386.05,112.21 387.49,111.75 388.92,111.36 390.36,110.92 391.79,110.92 393.23,110.92 394.67,110.92 396.10,110.65 397.54,110.49 398.97,109.91 400.41,109.26 401.84,108.51 403.28,107.37 404.72,106.57 406.15,104.94 407.59,103.95 409.02,103.29 410.46,102.22 411.89,101.54 413.33,100.19 414.77,98.15 416.20,97.54 417.64,96.74 419.07,95.97 420.51,95.72 421.94,94.74 423.38,94.57 424.82,93.40 426.25,92.34 427.69,91.70 429.12,90.97 430.56,90.02 431.99,89.76 433.43,89.68 434.87,89.57 436.30,89.51 437.74,88.90 439.17,88.11 440.61,87.16 442.04,86.89 443.48,86.11 444.92,85.11 446.35,83.13 447.79,81.66 449.22,79.85 450.66,79.37 452.09,78.42 453.53,76.64 454.97,75.63 456.40,75.08 457.84,74.30 459.27,73.79 460.71,73.06 462.14,72.72 463.58,71.97 465.01,70.56 466.45,68.99 467.89,68.52 469.32,67.63 470.76,66.02 472.19,65.19 473.63,63.18 475.06,62.22 476.50,60.48 477.94,58.77 479.37,56.72 480.81,53.64 482.24,51.60 483.68,49.84 485.11,48.72 486.55,47.26 487.99,45.95 489.42,45.31 490.86,44.25 492.29,42.96 493.73,42.24 495.16,41.13 496.60,40.29 498.04,39.50 499.47,38.29 500.91,36.10 502.34,34.35 503.78,32.87 505.21,31.65 506.65,31.20 508.09,30.63 509.52,30.16" />
    </svg>
  