
    <svg width="540" height="160" xmlns="http://www.w3.org/2000/svg">
      <style>.line{fill:none;stroke:#388bfd;stroke-width:1.5}.axis{stroke:#555;stroke-width:1;opacity:0.5}.label{fill:#999;font-family:sans-serif;font-size:10px;text-anchor:middle}</style>
      <line class="axis" x1="30" y1="30" x2="30" y2="130" />
      <line class="axis" x1="30" y1="130" x2="510" y2="130" />
      <text class="label" x="15" y="30">4,157</text>
      <text class="label" x="15" y="134">0</text>
      <text class="label" x="30" y="148">2021</text>
      <text class="label" x="510" y="148">2026</text>
      <polyline class="line" points="30.00,129.95 31.53,129.93 33.06,129.90 34.59,129.90 36.12,129.90 37.65,129.59 39.18,129.59 40.71,129.59 42.24,127.86 43.77,125.00 45.29,124.85 46.82,124.85 48.35,124.85 49.88,124.85 51.41,124.85 52.94,124.85 54.47,124.85 56.00,124.85 57.53,124.85 59.06,124.85 60.59,124.85 62.12,124.85 63.65,124.85 65.18,124.85 66.71,124.85 68.24,124.85 69.77,124.85 71.30,123.22 72.83,123.22 74.35,123.19 75.88,123.19 77.41,123.19 78.94,123.19 80.47,123.10 82.00,123.10 83.53,123.10 85.06,123.10 86.59,123.10 88.12,123.10 89.65,123.10 91.18,123.10 92.71,123.10 94.24,123.10 95.77,123.10 97.30,123.10 98.83,123.10 100.36,123.10 101.89,123.10 103.41,123.10 104.94,123.10 106.47,123.10 108.00,123.00 109.53,121.53 111.06,120.19 112.59,119.63 114.12,116.96 115.65,116.96 117.18,116.96 118.71,116.96 120.24,116.96 121.77,116.96 123.30,116.96 124.83,116.96 126.36,116.96 127.89,116.96 129.42,116.96 130.95,116.96 132.47,116.77 134.00,116.77 135.53,116.77 137.06,116.53 138.59,116.53 140.12,116.53 141.65,116.53 143.18,116.46 144.71,116.46 146.24,116.46 147.77,116.46 149.30,116.41 150.83,116.41 152.36,116.41 153.89,116.41 155.42,116.41 156.95,116.41 158.48,116.41 160.01,116.41 161.53,116.41 163.06,116.41 164.59,116.41 166.12,116.41 167.65,116.41 169.18,116.41 170.71,116.41 172.24,116.41 173.77,116.41 175.30,116.41 176.83,116.41 178.36,116.41 179.89,116.41 181.42,116.41 182.95,116.41 184.48,116.34 186.01,116.34 187.54,116.34 189.07,116.34 190.59,116.34 192.12,116.34 193.65,116.34 195.18,116.34 196.71,116.34 198.24,116.34 199.77,116.34 201.30,116.34 202.83,116.34 204.36,116.34 205.89,116.34 207.42,116.29 208.95,115.66 210.48,115.49 212.01,115.23 213.54,114.89 215.07,114.80 216.60,114.80 218.13,114.80 219.65,114.27 221.18,114.22 222.71,113.88 224.24,113.76 225.77,113.55 227.30,112.70 228.83,112.66 230.36,112.54 231.89,112.51 233.42,112.39 234.95,112.39 236.48,112.34 238.01,112.34 239.54,112.34 241.07,112.34 242.60,112.34 244.13,112.34 245.66,112.34 247.19,112.08 248.71,111.31 250.24,110.73 251.77,110.56 253.30,110.20 254.83,110.18 256.36,110.13 257.89,110.11 259.42,110.11 260.95,110.11 262.48,109.94 264.01,109.77 265.54,109.72 267.07,109.67 268.60,109.62 270.13,109.07 271.66,108.69 273.19,108.11 274.72,107.75 276.25,107.48 277.77,107.36 279.30,107.22 280.83,107.20 282.36,107.07 283.89,106.71 285.42,106.71 286.95,106.71 288.48,106.69 290.01,106.67 291.54,106.67 293.07,106.47 294.60,106.43 296.13,106.40 297.66,106.38 299.19,106.33 300.72,106.33 302.25,106.33 303.78,106.33 305.31,106.33 306.83,106.33 308.36,106.33 309.89,106.33 311.42,106.26 312.95,106.18 314.48,106.18 316.01,105.75 317.54,105.73 319.07,105.70 320.60,105.63 322.13,105.41 323.66,104.89 325.19,104.79 326.72,104.79 328.25,104.79 329.78,104.79 331.31,104.79 332.84,104.79 334.37,104.79 335.89,104.79 337.42,104.79 338.95,104.79 340.48,104.79 342.01,104.79 343.54,104.79 345.07,104.77 346.60,104.62 348.13,104.60 349.66,104.60 351.19,104.60 352.72,104.60 354.25,104.50 355.78,104.50 357.31,104.12 358.84,103.76 360.37,103.76 361.90,103.76 363.43,103.76 364.95,103.76 366.48,103.71 368.01,103.71 369.54,103.66 371.07,103.49 372.60,103.35 374.13,102.70 375.66,102.67 377.19,101.69 378.72,101.11 380.25,100.68 381.78,99.30 383.31,99.09 384.84,99.04 386.37,99.04 387.90,99.04 389.43,99.04 390.96,98.99 392.49,98.87 394.01,98.87 395.54,98.87 397.07,98.87 398.60,98.87 400.13,98.87 401.66,98.82 403.19,98.78 404.72,98.78 406.25,98.78 407.78,98.73 409.31,98.73 410.84,98.54 412.37,98.44 413.90,98.44 415.43,98.44 416.96,98.44 418.49,98.44 420.02,98.44 421.55,98.44 423.07,97.91 424.60,97.36 426.13,96.90 427.66,96.27 429.19,95.55 430.72,93.84 432.25,92.79 433.78,92.04 435.31,90.81 436.84,89.85 438.37,88.22 439.90,85.86 441.43,85.16 442.96,84.15 444.49,83.28 446.02,82.99 447.55,81.89 449.08,81.70 450.61,80.37 452.13,79.17 453.66,78.45 455.19,77.61 456.72,76.45 458.25,76.11 459.78,75.95 461.31,75.78 462.84,75.63 464.37,74.72 465.90,73.69 467.43,72.05 468.96,71.57 470.49,70.73 472.02,69.36 473.55,66.30 475.08,63.99 476.61,61.42 478.14,60.86 479.67,59.73 481.19,57.45 482.72,56.05 484.25,55.28 485.78,54.13 487.31,53.53 488.84,52.68 490.37,52.30 491.90,51.00 493.43,49.05 494.96,47.20 496.49,46.65 498.02,45.68 499.55,43.95 501.08,42.65 502.61,40.73 504.14,39.74 505.67,37.77 507.20,35.15 508.73,32.91" />
    </svg>
  