
    <svg width="540" height="160" xmlns="http://www.w3.org/2000/svg">
      <style>.line{fill:none;stroke:#388bfd;stroke-width:1.5}.axis{stroke:#555;stroke-width:1;opacity:0.5}.label{fill:#999;font-family:sans-serif;font-size:10px;text-anchor:middle}</style>
      <line class="axis" x1="30" y1="30" x2="30" y2="130" />
      <line class="axis" x1="30" y1="130" x2="510" y2="130" />
      <text class="label" x="15" y="30">9,175</text>
      <text class="label" x="15" y="134">0</text>
      <text class="label" x="30" y="148">2021</text>
      <text class="label" x="510" y="148">2026</text>
      <polyline class="line" points="30.00,129.98 31.45,129.97 32.91,129.96 34.36,129.96 35.81,129.96 37.27,129.81 38.72,129.81 40.17,129.81 41.62,129.03 43.08,127.73 44.53,127.67 45.98,127.67 47.44,127.67 48.89,127.67 50.34,127.67 51.80,127.67 53.25,127.67 54.70,127.67 56.16,127.67 57.61,127.67 59.06,127.67 60.51,127.67 61.97,127.67 63.42,127.67 64.87,127.67 66.33,127.67 67.78,127.67 69.23,126.93 70.69,126.93 72.14,126.92 73.59,126.92 75.05,126.92 76.50,126.92 77.95,126.87 79.40,126.87 80.86,126.87 82.31,126.87 83.76,126.87 85.22,126.87 86.67,126.87 88.12,126.87 89.58,126.87 91.03,126.87 92.48,126.87 93.94,126.87 95.39,126.87 96.84,126.87 98.29,126.87 99.75,126.87 101.20,126.87 102.65,126.87 104.11,126.83 105.56,126.16 107.01,125.55 108.47,125.30 109.92,124.09 111.37,124.09 112.83,124.09 114.28,124.09 115.73,124.09 117.18,124.09 118.64,124.09 120.09,124.09 121.54,124.09 123.00,124.09 124.45,124.09 125.90,124.09 127.36,124.01 128.81,124.01 130.26,124.01 131.72,123.90 133.17,123.90 134.62,123.90 136.07,123.90 137.53,123.86 138.98,123.86 140.43,123.86 141.89,123.86 143.34,123.84 144.79,123.84 146.25,123.84 147.70,123.84 149.15,123.84 150.61,123.84 152.06,123.84 153.51,123.84 154.96,123.84 156.42,123.84 157.87,123.84 159.32,123.84 160.78,123.84 162.23,123.84 163.68,123.84 165.14,123.84 166.59,123.84 168.04,123.84 169.50,123.84 170.95,123.84 172.40,123.84 173.85,123.84 175.31,123.84 176.76,123.81 178.21,123.81 179.67,123.81 181.12,123.81 182.57,123.81 184.03,123.81 185.48,123.81 186.93,123.81 188.39,123.81 189.84,123.81 191.29,123.81 192.74,123.81 194.20,123.81 195.65,123.81 197.10,123.81 198.56,123.79 200.01,123.50 201.46,123.43 202.92,123.31 204.37,123.16 205.82,123.11 207.28,123.11 208.73,123.11 210.18,122.87 211.63,122.85 213.09,122.70 214.54,122.64 215.99,122.54 217.45,122.16 218.90,122.14 220.35,122.09 221.81,122.08 223.26,122.02 224.71,122.02 226.17,122.00 227.62,122.00 229.07,122.00 230.52,122.00 231.98,122.00 233.43,122.00 234.88,122.00 236.34,121.88 237.79,121.53 239.24,121.27 240.70,121.19 242.15,121.03 243.60,121.02 245.06,121.00 246.51,120.99 247.96,120.99 249.41,120.99 250.87,120.91 252.32,120.83 253.77,120.81 255.23,120.79 256.68,120.77 258.13,120.52 259.59,120.34 261.04,120.08 262.49,119.92 263.95,119.80 265.40,119.74 266.85,119.68 268.30,119.67 269.76,119.61 271.21,119.45 272.66,119.45 274.12,119.45 275.57,119.44 277.02,119.43 278.48,119.43 279.93,119.34 281.38,119.32 282.84,119.31 284.29,119.30 285.74,119.28 287.19,119.28 288.65,119.28 290.10,119.28 291.55,119.28 293.01,119.28 294.46,119.28 295.91,119.28 297.37,119.24 298.82,119.21 300.27,119.21 301.73,119.01 303.18,119.00 304.63,118.99 306.08,118.96 307.54,118.86 308.99,118.62 310.44,118.58 311.90,118.58 313.35,118.58 314.80,118.58 316.26,118.58 317.71,118.58 319.16,118.58 320.62,118.58 322.07,118.58 323.52,118.58 324.97,118.58 326.43,118.58 327.88,118.58 329.33,118.57 330.79,118.50 332.24,118.49 333.69,118.49 335.15,118.49 336.60,118.49 338.05,118.45 339.51,118.45 340.96,118.27 342.41,118.11 343.86,118.11 345.32,118.11 346.77,118.11 348.22,118.11 349.68,118.09 351.13,118.09 352.58,118.07 354.04,117.99 355.49,117.92 356.94,117.63 358.40,117.62 359.85,117.17 361.30,116.91 362.75,116.71 364.21,116.09 365.66,115.93 367.11,115.86 368.57,115.66 370.02,115.34 371.47,115.26 372.93,115.16 374.38,114.98 375.83,114.83 377.29,114.76 378.74,114.65 380.19,114.58 381.64,114.38 383.10,114.21 384.55,114.00 386.00,113.66 387.46,113.47 388.91,112.50 390.36,111.77 391.82,111.30 393.27,110.89 394.72,110.45 396.18,110.45 397.63,110.45 399.08,110.45 400.53,110.16 401.99,110.00 403.44,109.41 404.89,108.75 406.35,107.97 407.80,106.81 409.25,105.99 410.71,104.31 412.16,103.30 413.61,102.62 415.07,101.53 416.52,100.83 417.97,99.45 419.42,97.36 420.88,96.72 422.33,95.91 423.78,95.12 425.24,94.86 426.69,93.86 428.14,93.68 429.60,92.49 431.05,91.40 432.50,90.74 433.96,90.00 435.41,89.02 436.86,88.76 438.31,88.67 439.77,88.56 441.22,88.50 442.67,87.87 444.13,87.07 445.58,86.09 447.03,85.81 448.49,85.02 449.94,83.99 451.39,81.96 452.85,80.45 454.30,78.60 455.75,78.11 457.20,77.13 458.66,75.31 460.11,74.27 461.56,73.71 463.02,72.91 464.47,72.39 465.92,71.63 467.38,71.29 468.83,70.52 470.28,69.07 471.74,67.47 473.19,66.98 474.64,66.08 476.09,64.42 477.55,63.57 479.00,61.51 480.45,60.53 481.91,58.74 483.36,57.00 484.81,54.89 486.27,51.73 487.72,49.64 489.17,47.84 490.63,46.69 492.08,45.19 493.53,43.85 494.98,43.20 496.44,42.11 497.89,40.79 499.34,40.05 500.80,38.92 502.25,38.05 503.70,37.24 505.16,36.01 506.61,33.76 508.06,32.02 509.52,30.50" />
    </svg>
  