
    <svg width="540" height="160" xmlns="http://www.w3.org/2000/svg">
      <style>.line{fill:none;stroke:#388bfd;stroke-width:1.5}.axis{stroke:#555;stroke-width:1;opacity:0.5}.label{fill:#999;font-family:sans-serif;font-size:10px;text-anchor:middle}</style>
      <line class="axis" x1="30" y1="30" x2="30" y2="130" />
      <line class="axis" x1="30" y1="130" x2="510" y2="130" />
      <text class="label" x="15" y="30">8,662</text>
      <text class="label" x="15" y="134">0</text>
      <text class="label" x="30" y="148">2021</text>
      <text class="label" x="510" y="148">2026</text>
      <polyline class="line" points="30.00,129.98 31.46,129.97 32.93,129.95 34.39,129.95 35.86,129.95 37.32,129.80 38.79,129.80 40.25,129.80 41.72,128.97 43.18,127.60 44.65,127.53 46.11,127.53 47.58,127.53 49.04,127.53 50.51,127.53 51.97,127.53 53.44,127.53 54.90,127.53 56.37,127.53 57.83,127.53 59.30,127.53 60.76,127.53 62.23,127.53 63.69,127.53 65.16,127.53 66.62,127.53 68.09,127.53 69.55,126.74 71.02,126.74 72.48,126.73 73.95,126.73 75.41,126.73 76.88,126.73 78.34,126.69 79.81,126.69 81.27,126.69 82.74,126.69 84.20,126.69 85.67,126.69 87.13,126.69 88.60,126.69 90.06,126.69 91.53,126.69 92.99,126.69 94.46,126.69 95.92,126.69 97.39,126.69 98.85,126.69 100.32,126.69 101.78,126.69 103.25,126.69 104.71,126.64 106.17,125.94 107.64,125.29 109.10,125.02 110.57,123.74 112.03,123.74 113.50,123.74 114.96,123.74 116.43,123.74 117.89,123.74 119.36,123.74 120.82,123.74 122.29,123.74 123.75,123.74 125.22,123.74 126.68,123.74 128.15,123.65 129.61,123.65 131.08,123.65 132.54,123.53 134.01,123.53 135.47,123.53 136.94,123.53 138.40,123.50 139.87,123.50 141.33,123.50 142.80,123.50 144.26,123.48 145.73,123.48 147.19,123.48 148.66,123.48 150.12,123.48 151.59,123.48 153.05,123.48 154.52,123.48 155.98,123.48 157.45,123.48 158.91,123.48 160.38,123.48 161.84,123.48 163.31,123.48 164.77,123.48 166.24,123.48 167.70,123.48 169.17,123.48 170.63,123.48 172.10,123.48 173.56,123.48 175.03,123.48 176.49,123.48 177.96,123.44 179.42,123.44 180.89,123.44 182.35,123.44 183.81,123.44 185.28,123.44 186.74,123.44 188.21,123.44 189.67,123.44 191.14,123.44 192.60,123.44 194.07,123.44 195.53,123.44 197.00,123.44 198.46,123.44 199.93,123.42 201.39,123.12 202.86,123.04 204.32,122.91 205.79,122.75 207.25,122.70 208.72,122.70 210.18,122.70 211.65,122.45 213.11,122.43 214.58,122.27 216.04,122.21 217.51,122.10 218.97,121.70 220.44,121.68 221.90,121.62 223.37,121.61 224.83,121.55 226.30,121.55 227.76,121.53 229.23,121.53 230.69,121.53 232.16,121.53 233.62,121.53 235.09,121.53 236.55,121.53 238.02,121.40 239.48,121.03 240.95,120.75 242.41,120.67 243.88,120.50 245.34,120.49 246.81,120.46 248.27,120.45 249.74,120.45 251.20,120.45 252.67,120.37 254.13,120.29 255.60,120.27 257.06,120.24 258.52,120.22 259.99,119.96 261.45,119.77 262.92,119.49 264.38,119.32 265.85,119.19 267.31,119.14 268.78,119.07 270.24,119.06 271.71,119.00 273.17,118.82 274.64,118.82 276.10,118.82 277.57,118.81 279.03,118.80 280.50,118.80 281.96,118.71 283.43,118.69 284.89,118.67 286.36,118.66 287.82,118.64 289.29,118.64 290.75,118.64 292.22,118.64 293.68,118.64 295.15,118.64 296.61,118.64 298.08,118.64 299.54,118.61 301.01,118.57 302.47,118.57 303.94,118.36 305.40,118.35 306.87,118.34 308.33,118.31 309.80,118.20 311.26,117.95 312.73,117.90 314.19,117.90 315.66,117.90 317.12,117.90 318.59,117.90 320.05,117.90 321.52,117.90 322.98,117.90 324.45,117.90 325.91,117.90 327.38,117.90 328.84,117.90 330.31,117.90 331.77,117.89 333.23,117.82 334.70,117.81 336.16,117.81 337.63,117.81 339.09,117.81 340.56,117.76 342.02,117.76 343.49,117.58 344.95,117.40 346.42,117.40 347.88,117.40 349.35,117.40 350.81,117.40 352.28,117.38 353.74,117.38 355.21,117.36 356.67,117.28 358.14,117.21 359.60,116.90 361.07,116.89 362.53,116.41 364.00,116.13 365.46,115.93 366.93,115.27 368.39,115.10 369.86,115.03 371.32,114.81 372.79,114.47 374.25,114.39 375.72,114.28 377.18,114.09 378.65,113.93 380.11,113.86 381.58,113.75 383.04,113.66 384.51,113.46 385.97,113.27 387.44,113.05 388.90,112.69 390.37,112.49 391.83,111.46 393.30,110.69 394.76,110.19 396.23,109.76 397.69,109.29 399.16,109.29 400.62,109.29 402.09,109.29 403.55,108.99 405.02,108.82 406.48,108.19 407.95,107.49 409.41,106.67 410.87,105.43 412.34,104.57 413.80,102.79 415.27,101.72 416.73,101.00 418.20,99.85 419.66,99.11 421.13,97.64 422.59,95.42 424.06,94.75 425.52,93.89 426.99,93.06 428.45,92.78 429.92,91.72 431.38,91.53 432.85,90.26 434.31,89.11 435.78,88.42 437.24,87.63 438.71,86.59 440.17,86.31 441.64,86.22 443.10,86.11 444.57,86.04 446.03,85.38 447.50,84.53 448.96,83.49 450.43,83.20 451.89,82.36 453.36,81.27 454.82,79.11 456.29,77.52 457.75,75.56 459.22,75.04 460.68,74.00 462.15,72.07 463.61,70.97 465.08,70.37 466.54,69.53 468.01,68.97 469.47,68.18 470.94,67.81 472.40,67.00 473.87,65.47 475.33,63.77 476.80,63.25 478.26,62.29 479.73,60.54 481.19,59.64 482.66,57.45 484.12,56.41 485.58,54.52 487.05,52.67 488.51,50.45 489.98,47.10 491.44,44.88 492.91,42.98 494.37,41.75 495.84,40.17 497.30,38.75 498.77,38.06 500.23,36.90 501.70,35.51 503.16,34.96 504.63,33.94 506.09,33.06 507.56,32.19 509.02,31.07" />
    </svg>
  