
    <svg width="540" height="160" xmlns="http://www.w3.org/2000/svg">
      <style>.line{fill:none;stroke:#388bfd;stroke-width:1.5}.axis{stroke:#555;stroke-width:1;opacity:0.5}.label{fill:#999;font-family:sans-serif;font-size:10px;text-anchor:middle}</style>
      <line class="axis" x1="30" y1="30" x2="30" y2="130" />
      <line class="axis" x1="30" y1="130" x2="510" y2="130" />
      <text class="label" x="15" y="30">8,647</text>
      <text class="label" x="15" y="134">0</text>
      <text class="label" x="30" y="148">2021</text>
      <text class="label" x="510" y="148">2026</text>
      <polyline class="line" points="30.00,129.98 31.46,129.97 32.93,129.95 34.39,129.95 35.86,129.95 37.32,129.80 38.79,129.80 40.25,129.80 41.72,128.97 43.18,127.59 44.65,127.53 46.11,127.53 47.58,127.53 49.04,127.53 50.51,127.53 51.97,127.53 53.44,127.53 54.90,127.53 56.37,127.53 57.83,127.53 59.30,127.53 60.76,127.53 62.23,127.53 63.69,127.53 65.16,127.53 66.62,127.53 68.09,127.53 69.55,126.74 71.02,126.74 72.48,126.73 73.95,126.73 75.41,126.73 76.88,126.73 78.34,126.68 79.81,126.68 81.27,126.68 82.74,126.68 84.20,126.68 85.67,126.68 87.13,126.68 88.60,126.68 90.06,126.68 91.53,126.68 92.99,126.68 94.46,126.68 95.92,126.68 97.39,126.68 98.85,126.68 100.32,126.68 101.78,126.68 103.25,126.68 104.71,126.63 106.17,125.93 107.64,125.28 109.10,125.02 110.57,123.73 112.03,123.73 113.50,123.73 114.96,123.73 116.43,123.73 117.89,123.73 119.36,123.73 120.82,123.73 122.29,123.73 123.75,123.73 125.22,123.73 126.68,123.73 128.15,123.64 129.61,123.64 131.08,123.64 132.54,123.52 134.01,123.52 135.47,123.52 136.94,123.52 138.40,123.49 139.87,123.49 141.33,123.49 142.80,123.49 144.26,123.47 145.73,123.47 147.19,123.47 148.66,123.47 150.12,123.47 151.59,123.47 153.05,123.47 154.52,123.47 155.98,123.47 157.45,123.47 158.91,123.47 160.38,123.47 161.84,123.47 163.31,123.47 164.77,123.47 166.24,123.47 167.70,123.47 169.17,123.47 170.63,123.47 172.10,123.47 173.56,123.47 175.03,123.47 176.49,123.47 177.96,123.43 179.42,123.43 180.89,123.43 182.35,123.43 183.81,123.43 185.28,123.43 186.74,123.43 188.21,123.43 189.67,123.43 191.14,123.43 192.60,123.43 194.07,123.43 195.53,123.43 197.00,123.43 198.46,123.43 199.93,123.41 201.39,123.11 202.86,123.03 204.32,122.90 205.79,122.74 207.25,122.69 208.72,122.69 210.18,122.69 211.65,122.44 213.11,122.41 214.58,122.25 216.04,122.19 217.51,122.09 218.97,121.68 220.44,121.66 221.90,121.60 223.37,121.59 224.83,121.53 226.30,121.53 227.76,121.51 229.23,121.51 230.69,121.51 232.16,121.51 233.62,121.51 235.09,121.51 236.55,121.51 238.02,121.38 239.48,121.01 240.95,120.74 242.41,120.66 243.88,120.48 245.34,120.47 246.81,120.45 248.27,120.44 249.74,120.44 251.20,120.44 252.67,120.36 254.13,120.27 255.60,120.25 257.06,120.23 258.52,120.20 259.99,119.94 261.45,119.75 262.92,119.48 264.38,119.30 265.85,119.18 267.31,119.12 268.78,119.05 270.24,119.04 271.71,118.98 273.17,118.81 274.64,118.81 276.10,118.81 277.57,118.79 279.03,118.78 280.50,118.78 281.96,118.69 283.43,118.67 284.89,118.66 286.36,118.64 287.82,118.62 289.29,118.62 290.75,118.62 292.22,118.62 293.68,118.62 295.15,118.62 296.61,118.62 298.08,118.62 299.54,118.59 301.01,118.55 302.47,118.55 303.94,118.34 305.40,118.33 306.87,118.32 308.33,118.28 309.80,118.18 311.26,117.93 312.73,117.88 314.19,117.88 315.66,117.88 317.12,117.88 318.59,117.88 320.05,117.88 321.52,117.88 322.98,117.88 324.45,117.88 325.91,117.88 327.38,117.88 328.84,117.88 330.31,117.88 331.77,117.87 333.23,117.80 334.70,117.79 336.16,117.79 337.63,117.79 339.09,117.79 340.56,117.74 342.02,117.74 343.49,117.56 344.95,117.38 346.42,117.38 347.88,117.38 349.35,117.38 350.81,117.38 352.28,117.36 353.74,117.36 355.21,117.34 356.67,117.26 358.14,117.19 359.60,116.87 361.07,116.86 362.53,116.39 364.00,116.11 365.46,115.90 366.93,115.24 368.39,115.07 369.86,115.00 371.32,114.78 372.79,114.45 374.25,114.36 375.72,114.25 377.18,114.06 378.65,113.90 380.11,113.83 381.58,113.72 383.04,113.64 384.51,113.43 385.97,113.24 387.44,113.02 388.90,112.66 390.37,112.46 391.83,111.43 393.30,110.65 394.76,110.15 396.23,109.73 397.69,109.25 399.16,109.25 400.62,109.25 402.09,109.25 403.55,108.95 405.02,108.78 406.48,108.15 407.95,107.45 409.41,106.63 410.87,105.39 412.34,104.52 413.80,102.74 415.27,101.67 416.73,100.95 418.20,99.79 419.66,99.05 421.13,97.58 422.59,95.36 424.06,94.69 425.52,93.83 426.99,92.99 428.45,92.72 429.92,91.65 431.38,91.47 432.85,90.19 434.31,89.04 435.78,88.34 437.24,87.56 438.71,86.52 440.17,86.24 441.64,86.15 443.10,86.03 444.57,85.96 446.03,85.30 447.50,84.45 448.96,83.41 450.43,83.12 451.89,82.27 453.36,81.19 454.82,79.02 456.29,77.43 457.75,75.46 459.22,74.94 460.68,73.90 462.15,71.97 463.61,70.87 465.08,70.27 466.54,69.42 468.01,68.87 469.47,68.07 470.94,67.70 472.40,66.89 473.87,65.35 475.33,63.65 476.80,63.13 478.26,62.17 479.73,60.42 481.19,59.51 482.66,57.33 484.12,56.29 485.58,54.39 487.05,52.54 488.51,50.31 489.98,46.95 491.44,44.73 492.91,42.83 494.37,41.60 495.84,40.02 497.30,38.59 498.77,37.90 500.23,36.74 501.70,35.34 503.16,34.80 504.63,33.77 506.09,32.89 507.56,32.02 509.02,30.90" />
    </svg>
  