
    <svg width="540" height="160" xmlns="http://www.w3.org/2000/svg">
      <style>.line{fill:none;stroke:#388bfd;stroke-width:1.5}.axis{stroke:#555;stroke-width:1;opacity:0.5}.label{fill:#999;font-family:sans-serif;font-size:10px;text-anchor:middle}</style>
      <line class="axis" x1="30" y1="30" x2="30" y2="130" />
      <line class="axis" x1="30" y1="130" x2="510" y2="130" />
      <text class="label" x="15" y="30">5,209</text>
      <text class="label" x="15" y="134">0</text>
      <text class="label" x="30" y="148">2021</text>
      <text class="label" x="510" y="148">2026</text>
      <polyline class="line" points="30.00,129.96 31.51,129.94 33.03,129.92 34.54,129.92 36.05,129.92 37.56,129.67 39.08,129.67 40.59,129.67 42.10,128.29 43.61,126.01 45.13,125.89 46.64,125.89 48.15,125.89 49.66,125.89 51.18,125.89 52.69,125.89 54.20,125.89 55.71,125.89 57.23,125.89 58.74,125.89 60.25,125.89 61.76,125.89 63.28,125.89 64.79,125.89 66.30,125.89 67.82,125.89 69.33,125.89 70.84,124.59 72.35,124.59 73.87,124.57 75.38,124.57 76.89,124.57 78.40,124.57 79.92,124.49 81.43,124.49 82.94,124.49 84.45,124.49 85.97,124.49 87.48,124.49 88.99,124.49 90.50,124.49 92.02,124.49 93.53,124.49 95.04,124.49 96.55,124.49 98.07,124.49 99.58,124.49 101.09,124.49 102.61,124.49 104.12,124.49 105.63,124.49 107.14,124.41 108.66,123.24 110.17,122.17 111.68,121.73 113.19,119.59 114.71,119.59 116.22,119.59 117.73,119.59 119.24,119.59 120.76,119.59 122.27,119.59 123.78,119.59 125.29,119.59 126.81,119.59 128.32,119.59 129.83,119.59 131.34,119.44 132.86,119.44 134.37,119.44 135.88,119.25 137.39,119.25 138.91,119.25 140.42,119.25 141.93,119.19 143.45,119.19 144.96,119.19 146.47,119.19 147.98,119.15 149.50,119.15 151.01,119.15 152.52,119.15 154.03,119.15 155.55,119.15 157.06,119.15 158.57,119.15 160.08,119.15 161.60,119.15 163.11,119.15 164.62,119.15 166.13,119.15 167.65,119.15 169.16,119.15 170.67,119.15 172.18,119.15 173.70,119.15 175.21,119.15 176.72,119.15 178.24,119.15 179.75,119.15 181.26,119.15 182.77,119.10 184.29,119.10 185.80,119.10 187.31,119.10 188.82,119.10 190.34,119.10 191.85,119.10 193.36,119.10 194.87,119.10 196.39,119.10 197.90,119.10 199.41,119.10 200.92,119.10 202.44,119.10 203.95,119.10 205.46,119.06 206.97,118.56 208.49,118.42 210.00,118.21 211.51,117.94 213.03,117.87 214.54,117.87 216.05,117.87 217.56,117.44 219.08,117.41 220.59,117.14 222.10,117.04 223.61,116.87 225.13,116.20 226.64,116.16 228.15,116.06 229.66,116.04 231.18,115.95 232.69,115.95 234.20,115.91 235.71,115.91 237.23,115.91 238.74,115.91 240.25,115.91 241.76,115.91 243.28,115.91 244.79,115.70 246.30,115.08 247.82,114.62 249.33,114.49 250.84,114.20 252.35,114.18 253.87,114.14 255.38,114.12 256.89,114.12 258.40,114.12 259.92,113.99 261.43,113.85 262.94,113.82 264.45,113.78 265.97,113.74 267.48,113.30 268.99,112.99 270.50,112.53 272.02,112.24 273.53,112.03 275.04,111.94 276.55,111.82 278.07,111.80 279.58,111.70 281.09,111.42 282.61,111.42 284.12,111.42 285.63,111.40 287.14,111.38 288.66,111.38 290.17,111.22 291.68,111.19 293.19,111.17 294.71,111.15 296.22,111.11 297.73,111.11 299.24,111.11 300.76,111.11 302.27,111.11 303.78,111.11 305.29,111.11 306.81,111.11 308.32,111.05 309.83,110.99 311.34,110.99 312.86,110.65 314.37,110.63 315.88,110.61 317.39,110.55 318.91,110.38 320.42,109.96 321.93,109.88 323.45,109.88 324.96,109.88 326.47,109.88 327.98,109.88 329.50,109.88 331.01,109.88 332.52,109.88 334.03,109.88 335.55,109.88 337.06,109.88 338.57,109.88 340.08,109.88 341.60,109.86 343.11,109.75 344.62,109.73 346.13,109.73 347.65,109.73 349.16,109.73 350.67,109.65 352.18,109.65 353.70,109.34 355.21,109.06 356.72,109.06 358.24,109.06 359.75,109.06 361.26,109.06 362.77,109.02 364.29,109.02 365.80,108.98 367.31,108.84 368.82,108.73 370.34,108.21 371.85,108.19 373.36,107.40 374.87,106.94 376.39,106.60 377.90,105.50 379.41,105.22 380.92,105.10 382.44,104.74 383.95,104.18 385.46,104.04 386.97,103.85 388.49,103.55 390.00,103.28 391.51,103.16 393.03,102.97 394.54,102.84 396.05,102.49 397.56,102.18 399.08,101.82 400.59,101.22 402.10,100.88 403.61,99.17 405.13,97.88 406.64,97.06 408.15,96.35 409.66,95.56 411.18,95.56 412.69,95.56 414.20,95.56 415.71,95.06 417.23,94.77 418.74,94.14 420.25,93.41 421.76,92.41 423.28,90.84 424.79,89.95 426.30,88.34 427.82,87.40 429.33,86.81 430.84,85.83 432.35,85.06 433.87,83.75 435.38,81.85 436.89,81.30 438.40,80.49 439.92,79.80 441.43,79.57 442.94,78.68 444.45,78.53 445.97,77.48 447.48,76.52 448.99,75.94 450.50,75.27 452.02,74.35 453.53,74.08 455.04,73.94 456.55,73.81 458.07,73.69 459.58,72.96 461.09,72.14 462.61,70.83 464.12,70.45 465.63,69.78 467.14,68.68 468.66,66.24 470.17,64.40 471.68,62.35 473.19,61.91 474.71,61.00 476.22,59.18 477.73,58.07 479.24,57.45 480.76,56.53 482.27,56.05 483.78,55.38 485.29,55.07 486.81,54.04 488.32,52.48 489.83,51.00 491.34,50.56 492.86,49.79 494.37,48.41 495.88,47.37 497.39,45.84 498.91,45.05 500.42,43.48 501.93,41.38 503.45,39.60 504.96,35.82 506.47,33.15 507.98,31.31 509.50,30.00" />
    </svg>
  