
    <svg width="540" height="160" xmlns="http://www.w3.org/2000/svg">
      <style>.line{fill:none;stroke:#388bfd;stroke-width:1.5}.axis{stroke:#555;stroke-width:1;opacity:0.5}.label{fill:#999;font-family:sans-serif;font-size:10px;text-anchor:middle}</style>
      <line class="axis" x1="30" y1="30" x2="30" y2="130" />
      <line class="axis" x1="30" y1="130" x2="510" y2="130" />
      <text class="label" x="15" y="30">9,424</text>
      <text class="label" x="15" y="134">0</text>
      <text class="label" x="30" y="148">2021</text>
      <text class="label" x="510" y="148">2026</text>
      <polyline class="line" points="30.00,129.98 31.43,129.97 32.87,129.96 34.30,129.96 35.73,129.96 37.17,129.82 38.60,129.82 40.03,129.82 41.47,129.06 42.90,127.79 44.34,127.73 45.77,127.73 47.20,127.73 48.64,127.73 50.07,127.73 51.50,127.73 52.94,127.73 54.37,127.73 55.80,127.73 57.24,127.73 58.67,127.73 60.10,127.73 61.54,127.73 62.97,127.73 64.41,127.73 65.84,127.73 67.27,127.73 68.71,127.01 70.14,127.01 71.57,127.00 73.01,127.00 74.44,127.00 75.87,127.00 77.31,126.95 78.74,126.95 80.17,126.95 81.61,126.95 83.04,126.95 84.47,126.95 85.91,126.95 87.34,126.95 88.78,126.95 90.21,126.95 91.64,126.95 93.08,126.95 94.51,126.95 95.94,126.95 97.38,126.95 98.81,126.95 100.24,126.95 101.68,126.95 103.11,126.91 104.54,126.26 105.98,125.67 107.41,125.43 108.85,124.25 110.28,124.25 111.71,124.25 113.15,124.25 114.58,124.25 116.01,124.25 117.45,124.25 118.88,124.25 120.31,124.25 121.75,124.25 123.18,124.25 124.61,124.25 126.05,124.16 127.48,124.16 128.91,124.16 130.35,124.06 131.78,124.06 133.22,124.06 134.65,124.06 136.08,124.03 137.52,124.03 138.95,124.03 140.38,124.03 141.82,124.00 143.25,124.00 144.68,124.00 146.12,124.00 147.55,124.00 148.98,124.00 150.42,124.00 151.85,124.00 153.29,124.00 154.72,124.00 156.15,124.00 157.59,124.00 159.02,124.00 160.45,124.00 161.89,124.00 163.32,124.00 164.75,124.00 166.19,124.00 167.62,124.00 169.05,124.00 170.49,124.00 171.92,124.00 173.35,124.00 174.79,123.97 176.22,123.97 177.66,123.97 179.09,123.97 180.52,123.97 181.96,123.97 183.39,123.97 184.82,123.97 186.26,123.97 187.69,123.97 189.12,123.97 190.56,123.97 191.99,123.97 193.42,123.97 194.86,123.97 196.29,123.95 197.73,123.68 199.16,123.60 200.59,123.48 202.03,123.34 203.46,123.29 204.89,123.29 206.33,123.29 207.76,123.06 209.19,123.04 210.63,122.89 212.06,122.84 213.49,122.74 214.93,122.37 216.36,122.35 217.79,122.30 219.23,122.29 220.66,122.23 222.10,122.23 223.53,122.21 224.96,122.21 226.40,122.21 227.83,122.21 229.26,122.21 230.70,122.21 232.13,122.21 233.56,122.09 235.00,121.76 236.43,121.50 237.86,121.43 239.30,121.27 240.73,121.26 242.17,121.24 243.60,121.22 245.03,121.22 246.47,121.22 247.90,121.15 249.33,121.08 250.77,121.05 252.20,121.03 253.63,121.01 255.07,120.77 256.50,120.60 257.93,120.34 259.37,120.18 260.80,120.07 262.23,120.01 263.67,119.95 265.10,119.94 266.54,119.89 267.97,119.73 269.40,119.73 270.84,119.73 272.27,119.72 273.70,119.71 275.14,119.71 276.57,119.62 278.00,119.60 279.44,119.59 280.87,119.58 282.30,119.56 283.74,119.56 285.17,119.56 286.61,119.56 288.04,119.56 289.47,119.56 290.91,119.56 292.34,119.56 293.77,119.53 295.21,119.49 296.64,119.49 298.07,119.30 299.51,119.29 300.94,119.28 302.37,119.25 303.81,119.16 305.24,118.92 306.67,118.88 308.11,118.88 309.54,118.88 310.98,118.88 312.41,118.88 313.84,118.88 315.28,118.88 316.71,118.88 318.14,118.88 319.58,118.88 321.01,118.88 322.44,118.88 323.88,118.88 325.31,118.87 326.74,118.81 328.18,118.79 329.61,118.79 331.05,118.79 332.48,118.79 333.91,118.75 335.35,118.75 336.78,118.58 338.21,118.42 339.65,118.42 341.08,118.42 342.51,118.42 343.95,118.42 345.38,118.40 346.81,118.40 348.25,118.38 349.68,118.31 351.11,118.24 352.55,117.96 353.98,117.95 355.42,117.51 356.85,117.26 358.28,117.06 359.72,116.46 361.15,116.30 362.58,116.24 364.02,116.04 365.45,115.73 366.88,115.65 368.32,115.55 369.75,115.38 371.18,115.23 372.62,115.17 374.05,115.06 375.49,114.99 376.92,114.79 378.35,114.62 379.79,114.42 381.22,114.09 382.65,113.90 384.09,112.96 385.52,112.25 386.95,111.79 388.39,111.40 389.82,110.96 391.25,110.96 392.69,110.96 394.12,110.96 395.56,110.69 396.99,110.53 398.42,109.96 399.86,109.31 401.29,108.55 402.72,107.42 404.16,106.62 405.59,104.99 407.02,104.00 408.46,103.34 409.89,102.28 411.32,101.60 412.76,100.26 414.19,98.22 415.62,97.60 417.06,96.81 418.49,96.04 419.93,95.79 421.36,94.81 422.79,94.64 424.23,93.48 425.66,92.42 427.09,91.78 428.53,91.06 429.96,90.10 431.39,89.85 432.83,89.76 434.26,89.66 435.69,89.59 437.13,88.99 438.56,88.20 440.00,87.25 441.43,86.98 442.86,86.21 444.30,85.21 445.73,83.23 447.16,81.76 448.60,79.96 450.03,79.48 451.46,78.53 452.90,76.75 454.33,75.74 455.76,75.19 457.20,74.42 458.63,73.91 460.06,73.18 461.50,72.84 462.93,72.09 464.37,70.68 465.80,69.12 467.23,68.65 468.67,67.77 470.10,66.15 471.53,65.32 472.97,63.32 474.40,62.36 475.83,60.62 477.27,58.93 478.70,56.88 480.13,53.80 481.57,51.76 483.00,50.01 484.44,48.89 485.87,47.43 487.30,46.13 488.74,45.49 490.17,44.43 491.60,43.15 493.04,42.43 494.47,41.32 495.90,40.48 497.34,39.69 498.77,38.49 500.20,36.30 501.64,34.55 503.07,33.08 504.50,31.86 505.94,31.41 507.37,30.84 508.81,30.37" />
    </svg>
  