
    <svg width="540" height="160" xmlns="http://www.w3.org/2000/svg">
      <style>.line{fill:none;stroke:#388bfd;stroke-width:1.5}.axis{stroke:#555;stroke-width:1;opacity:0.5}.label{fill:#999;font-family:sans-serif;font-size:10px;text-anchor:middle}</style>
      <line class="axis" x1="30" y1="30" x2="30" y2="130" />
      <line class="axis" x1="30" y1="130" x2="510" y2="130" />
      <text class="label" x="15" y="30">8,576</text>
      <text class="label" x="15" y="134">0</text>
      <text class="label" x="30" y="148">2021</text>
      <text class="label" x="510" y="148">2026</text>
      <polyline class="line" points="30.00,129.98 31.47,129.97 32.93,129.95 34.40,129.95 35.87,129.95 37.34,129.80 38.80,129.80 40.27,129.80 41.74,128.96 43.20,127.57 44.67,127.50 46.14,127.50 47.61,127.50 49.07,127.50 50.54,127.50 52.01,127.50 53.47,127.50 54.94,127.50 56.41,127.50 57.88,127.50 59.34,127.50 60.81,127.50 62.28,127.50 63.74,127.50 65.21,127.50 66.68,127.50 68.15,127.50 69.61,126.71 71.08,126.71 72.55,126.70 74.01,126.70 75.48,126.70 76.95,126.70 78.42,126.65 79.88,126.65 81.35,126.65 82.82,126.65 84.28,126.65 85.75,126.65 87.22,126.65 88.69,126.65 90.15,126.65 91.62,126.65 93.09,126.65 94.55,126.65 96.02,126.65 97.49,126.65 98.96,126.65 100.42,126.65 101.89,126.65 103.36,126.65 104.82,126.61 106.29,125.90 107.76,125.24 109.23,124.97 110.69,123.68 112.16,123.68 113.63,123.68 115.09,123.68 116.56,123.68 118.03,123.68 119.50,123.68 120.96,123.68 122.43,123.68 123.90,123.68 125.36,123.68 126.83,123.68 128.30,123.59 129.77,123.59 131.23,123.59 132.70,123.47 134.17,123.47 135.63,123.47 137.10,123.47 138.57,123.44 140.04,123.44 141.50,123.44 142.97,123.44 144.44,123.41 145.90,123.41 147.37,123.41 148.84,123.41 150.31,123.41 151.77,123.41 153.24,123.41 154.71,123.41 156.17,123.41 157.64,123.41 159.11,123.41 160.58,123.41 162.04,123.41 163.51,123.41 164.98,123.41 166.44,123.41 167.91,123.41 169.38,123.41 170.85,123.41 172.31,123.41 173.78,123.41 175.25,123.41 176.71,123.41 178.18,123.38 179.65,123.38 181.12,123.38 182.58,123.38 184.05,123.38 185.52,123.38 186.98,123.38 188.45,123.38 189.92,123.38 191.39,123.38 192.85,123.38 194.32,123.38 195.79,123.38 197.25,123.38 198.72,123.38 200.19,123.35 201.66,123.05 203.12,122.97 204.59,122.84 206.06,122.68 207.52,122.63 208.99,122.63 210.46,122.63 211.93,122.37 213.39,122.35 214.86,122.19 216.33,122.13 217.79,122.02 219.26,121.62 220.73,121.59 222.20,121.53 223.66,121.52 225.13,121.46 226.60,121.46 228.06,121.44 229.53,121.44 231.00,121.44 232.47,121.44 233.93,121.44 235.40,121.44 236.87,121.44 238.33,121.31 239.80,120.94 241.27,120.66 242.74,120.58 244.20,120.40 245.67,120.39 247.14,120.37 248.60,120.36 250.07,120.36 251.54,120.36 253.01,120.28 254.47,120.19 255.94,120.17 257.41,120.15 258.87,120.12 260.34,119.86 261.81,119.67 263.28,119.39 264.74,119.21 266.21,119.09 267.68,119.03 269.14,118.96 270.61,118.95 272.08,118.89 273.55,118.71 275.01,118.71 276.48,118.71 277.95,118.70 279.41,118.69 280.88,118.69 282.35,118.60 283.82,118.57 285.28,118.56 286.75,118.55 288.22,118.53 289.68,118.53 291.15,118.53 292.62,118.53 294.09,118.53 295.55,118.53 297.02,118.53 298.49,118.53 299.95,118.49 301.42,118.46 302.89,118.46 304.36,118.25 305.82,118.23 307.29,118.22 308.76,118.19 310.22,118.08 311.69,117.83 313.16,117.78 314.63,117.78 316.09,117.78 317.56,117.78 319.03,117.78 320.49,117.78 321.96,117.78 323.43,117.78 324.90,117.78 326.36,117.78 327.83,117.78 329.30,117.78 330.76,117.78 332.23,117.77 333.70,117.70 335.17,117.69 336.63,117.69 338.10,117.69 339.57,117.69 341.03,117.64 342.50,117.64 343.97,117.45 345.44,117.28 346.90,117.28 348.37,117.28 349.84,117.28 351.30,117.28 352.77,117.26 354.24,117.26 355.71,117.23 357.17,117.15 358.64,117.08 360.11,116.77 361.57,116.75 363.04,116.28 364.51,116.00 365.98,115.79 367.44,115.12 368.91,114.95 370.38,114.88 371.84,114.65 373.31,114.32 374.78,114.24 376.25,114.12 377.71,113.93 379.18,113.77 380.65,113.70 382.11,113.58 383.58,113.50 385.05,113.29 386.52,113.10 387.98,112.88 389.45,112.52 390.92,112.31 392.38,111.27 393.85,110.49 395.32,109.99 396.79,109.56 398.25,109.08 399.72,109.08 401.19,109.08 402.65,109.08 404.12,108.78 405.59,108.60 407.06,107.97 408.52,107.26 409.99,106.43 411.46,105.19 412.92,104.31 414.39,102.52 415.86,101.43 417.33,100.71 418.79,99.54 420.26,98.80 421.73,97.32 423.19,95.08 424.66,94.40 426.13,93.53 427.60,92.69 429.06,92.41 430.53,91.33 432.00,91.15 433.46,89.86 434.93,88.70 436.40,88.00 437.87,87.21 439.33,86.16 440.80,85.88 442.27,85.78 443.73,85.67 445.20,85.60 446.67,84.93 448.14,84.07 449.60,83.02 451.07,82.73 452.54,81.88 454.00,80.78 455.47,78.60 456.94,76.99 458.41,75.01 459.87,74.48 461.34,73.44 462.81,71.49 464.27,70.38 465.74,69.77 467.21,68.92 468.68,68.36 470.14,67.56 471.61,67.19 473.08,66.37 474.54,64.82 476.01,63.10 477.48,62.58 478.95,61.61 480.41,59.84 481.88,58.93 483.35,56.73 484.81,55.68 486.28,53.76 487.75,51.90 489.22,49.65 490.68,46.27 492.15,44.03 493.62,42.10 495.08,40.87 496.55,39.27 498.02,37.84 499.49,37.14 500.95,35.97 502.42,34.56 503.89,34.01 505.35,32.97 506.82,32.09 508.29,31.21 509.76,30.08" />
    </svg>
  