
    <svg width="540" height="160" xmlns="http://www.w3.org/2000/svg">
      <style>.line{fill:none;stroke:#388bfd;stroke-width:1.5}.axis{stroke:#555;stroke-width:1;opacity:0.5}.label{fill:#999;font-family:sans-serif;font-size:10px;text-anchor:middle}</style>
      <line class="axis" x1="30" y1="30" x2="30" y2="130" />
      <line class="axis" x1="30" y1="130" x2="510" y2="130" />
      <text class="label" x="15" y="30">11,159</text>
      <text class="label" x="15" y="134">0</text>
      <text class="label" x="30" y="148">2021</text>
      <text class="label" x="510" y="148">2026</text>
      <polyline class="line" points="30.00,129.98 31.40,129.97 32.80,129.96 34.20,129.96 35.61,129.96 37.01,129.85 38.41,129.85 39.81,129.85 41.21,129.20 42.61,128.14 44.01,128.08 45.42,128.08 46.82,128.08 48.22,128.08 49.62,128.08 51.02,128.08 52.42,128.08 53.82,128.08 55.23,128.08 56.63,128.08 58.03,128.08 59.43,128.08 60.83,128.08 62.23,128.08 63.64,128.08 65.04,128.08 66.44,128.08 67.84,127.47 69.24,127.47 70.64,127.46 72.04,127.46 73.45,127.46 74.85,127.46 76.25,127.43 77.65,127.43 79.05,127.43 80.45,127.43 81.85,127.43 83.26,127.43 84.66,127.43 86.06,127.43 87.46,127.43 88.86,127.43 90.26,127.43 91.66,127.43 93.07,127.43 94.47,127.43 95.87,127.43 97.27,127.43 98.67,127.43 100.07,127.43 101.47,127.39 102.88,126.85 104.28,126.34 105.68,126.14 107.08,125.14 108.48,125.14 109.88,125.14 111.28,125.14 112.69,125.14 114.09,125.14 115.49,125.14 116.89,125.14 118.29,125.14 119.69,125.14 121.09,125.14 122.50,125.14 123.90,125.07 125.30,125.07 126.70,125.07 128.10,124.98 129.50,124.98 130.91,124.98 132.31,124.98 133.71,124.95 135.11,124.95 136.51,124.95 137.91,124.95 139.31,124.94 140.72,124.94 142.12,124.94 143.52,124.94 144.92,124.94 146.32,124.94 147.72,124.94 149.12,124.94 150.53,124.94 151.93,124.94 153.33,124.94 154.73,124.94 156.13,124.94 157.53,124.94 158.93,124.94 160.34,124.94 161.74,124.94 163.14,124.94 164.54,124.94 165.94,124.94 167.34,124.94 168.74,124.94 170.15,124.94 171.55,124.91 172.95,124.91 174.35,124.91 175.75,124.91 177.15,124.91 178.55,124.91 179.96,124.91 181.36,124.91 182.76,124.91 184.16,124.91 185.56,124.91 186.96,124.91 188.36,124.91 189.77,124.91 191.17,124.91 192.57,124.89 193.97,124.66 195.37,124.60 196.77,124.50 198.18,124.37 199.58,124.34 200.98,124.34 202.38,124.34 203.78,124.14 205.18,124.12 206.58,124.00 207.99,123.95 209.39,123.87 210.79,123.56 212.19,123.54 213.59,123.49 214.99,123.49 216.39,123.44 217.80,123.44 219.20,123.42 220.60,123.42 222.00,123.42 223.40,123.42 224.80,123.42 226.20,123.42 227.61,123.42 229.01,123.32 230.41,123.04 231.81,122.82 233.21,122.76 234.61,122.62 236.01,122.62 237.42,122.60 238.82,122.59 240.22,122.59 241.62,122.59 243.02,122.53 244.42,122.46 245.82,122.45 247.23,122.43 248.63,122.41 250.03,122.20 251.43,122.06 252.83,121.85 254.23,121.71 255.64,121.61 257.04,121.57 258.44,121.51 259.84,121.50 261.24,121.46 262.64,121.33 264.04,121.33 265.45,121.33 266.85,121.32 268.25,121.31 269.65,121.31 271.05,121.24 272.45,121.22 273.85,121.21 275.26,121.20 276.66,121.18 278.06,121.18 279.46,121.18 280.86,121.18 282.26,121.18 283.66,121.18 285.07,121.18 286.47,121.18 287.87,121.16 289.27,121.13 290.67,121.13 292.07,120.97 293.47,120.96 294.88,120.95 296.28,120.92 297.68,120.84 299.08,120.64 300.48,120.61 301.88,120.61 303.28,120.61 304.69,120.61 306.09,120.61 307.49,120.61 308.89,120.61 310.29,120.61 311.69,120.61 313.09,120.61 314.50,120.61 315.90,120.61 317.30,120.61 318.70,120.60 320.10,120.55 321.50,120.54 322.91,120.54 324.31,120.54 325.71,120.54 327.11,120.50 328.51,120.50 329.91,120.36 331.31,120.22 332.72,120.22 334.12,120.22 335.52,120.22 336.92,120.22 338.32,120.21 339.72,120.21 341.12,120.19 342.53,120.12 343.93,120.07 345.33,119.83 346.73,119.82 348.13,119.45 349.53,119.24 350.93,119.08 352.34,118.57 353.74,118.43 355.14,118.38 356.54,118.21 357.94,117.95 359.34,117.88 360.74,117.79 362.15,117.65 363.55,117.53 364.95,117.47 366.35,117.38 367.75,117.32 369.15,117.16 370.55,117.01 371.96,116.84 373.36,116.57 374.76,116.41 376.16,115.61 377.56,115.01 378.96,114.62 380.36,114.29 381.77,113.92 383.17,113.92 384.57,113.92 385.97,113.92 387.37,113.69 388.77,113.56 390.18,113.07 391.58,112.53 392.98,111.89 394.38,110.93 395.78,110.26 397.18,108.88 398.58,108.04 399.99,107.49 401.39,106.59 402.79,106.02 404.19,104.88 405.59,103.16 406.99,102.64 408.39,101.97 409.80,101.32 411.20,101.11 412.60,100.28 414.00,100.14 415.40,99.15 416.80,98.26 418.20,97.72 419.61,97.11 421.01,96.31 422.41,96.09 423.81,96.02 425.21,95.93 426.61,95.88 428.01,95.36 429.42,94.70 430.82,93.89 432.22,93.67 433.62,93.02 435.02,92.17 436.42,90.50 437.82,89.26 439.23,87.74 440.63,87.33 442.03,86.53 443.43,85.03 444.83,84.18 446.23,83.71 447.64,83.06 449.04,82.63 450.44,82.01 451.84,81.73 453.24,81.10 454.64,79.91 456.04,78.59 457.45,78.19 458.85,77.44 460.25,76.08 461.65,75.38 463.05,73.69 464.45,72.88 465.85,71.41 467.26,69.98 468.66,68.25 470.06,65.65 471.46,63.77 472.86,62.29 474.26,61.21 475.66,59.98 477.07,58.84 478.47,58.15 479.87,56.94 481.27,55.47 482.67,54.77 484.07,53.35 485.47,51.36 486.88,49.48 488.28,48.25 489.68,46.18 491.08,44.50 492.48,43.02 493.88,41.70 495.28,41.00 496.69,39.53 498.09,38.35 499.49,37.03 500.89,34.95 502.29,33.93 503.69,32.77 505.09,32.06 506.50,32.06 507.90,31.20 509.30,30.43" />
    </svg>
  