
    <svg width="540" height="160" xmlns="http://www.w3.org/2000/svg">
      <style>.line{fill:none;stroke:#388bfd;stroke-width:1.5}.axis{stroke:#555;stroke-width:1;opacity:0.5}.label{fill:#999;font-family:sans-serif;font-size:10px;text-anchor:middle}</style>
      <line class="axis" x1="30" y1="30" x2="30" y2="130" />
      <line class="axis" x1="30" y1="130" x2="510" y2="130" />
      <text class="label" x="15" y="30">5,093</text>
      <text class="label" x="15" y="134">0</text>
      <text class="label" x="30" y="148">2021</text>
      <text class="label" x="510" y="148">2026</text>
      <polyline class="line" points="30.00,129.96 31.52,129.94 33.04,129.92 34.57,129.92 36.09,129.92 37.61,129.67 39.13,129.67 40.66,129.67 42.18,128.25 43.70,125.92 45.22,125.80 46.74,125.80 48.27,125.80 49.79,125.80 51.31,125.80 52.83,125.80 54.36,125.80 55.88,125.80 57.40,125.80 58.92,125.80 60.44,125.80 61.97,125.80 63.49,125.80 65.01,125.80 66.53,125.80 68.05,125.80 69.58,125.80 71.10,124.46 72.62,124.46 74.14,124.44 75.67,124.44 77.19,124.44 78.71,124.44 80.23,124.36 81.75,124.36 83.28,124.36 84.80,124.36 86.32,124.36 87.84,124.36 89.37,124.36 90.89,124.36 92.41,124.36 93.93,124.36 95.45,124.36 96.98,124.36 98.50,124.36 100.02,124.36 101.54,124.36 103.07,124.36 104.59,124.36 106.11,124.36 107.63,124.29 109.15,123.09 110.68,121.99 112.20,121.54 113.72,119.36 115.24,119.36 116.77,119.36 118.29,119.36 119.81,119.36 121.33,119.36 122.85,119.36 124.38,119.36 125.90,119.36 127.42,119.36 128.94,119.36 130.47,119.36 131.99,119.20 133.51,119.20 135.03,119.20 136.55,119.00 138.08,119.00 139.60,119.00 141.12,119.00 142.64,118.95 144.16,118.95 145.69,118.95 147.21,118.95 148.73,118.91 150.25,118.91 151.78,118.91 153.30,118.91 154.82,118.91 156.34,118.91 157.86,118.91 159.39,118.91 160.91,118.91 162.43,118.91 163.95,118.91 165.48,118.91 167.00,118.91 168.52,118.91 170.04,118.91 171.56,118.91 173.09,118.91 174.61,118.91 176.13,118.91 177.65,118.91 179.18,118.91 180.70,118.91 182.22,118.91 183.74,118.85 185.26,118.85 186.79,118.85 188.31,118.85 189.83,118.85 191.35,118.85 192.88,118.85 194.40,118.85 195.92,118.85 197.44,118.85 198.96,118.85 200.49,118.85 202.01,118.85 203.53,118.85 205.05,118.85 206.58,118.81 208.10,118.30 209.62,118.16 211.14,117.94 212.66,117.67 214.19,117.59 215.71,117.59 217.23,117.59 218.75,117.16 220.27,117.12 221.80,116.84 223.32,116.75 224.84,116.57 226.36,115.88 227.89,115.84 229.41,115.75 230.93,115.73 232.45,115.63 233.97,115.63 235.50,115.59 237.02,115.59 238.54,115.59 240.06,115.59 241.59,115.59 243.11,115.59 244.63,115.59 246.15,115.37 247.67,114.74 249.20,114.27 250.72,114.14 252.24,113.84 253.76,113.82 255.29,113.78 256.81,113.76 258.33,113.76 259.85,113.76 261.37,113.62 262.90,113.49 264.42,113.45 265.94,113.41 267.46,113.37 268.99,112.92 270.51,112.60 272.03,112.13 273.55,111.84 275.07,111.62 276.60,111.52 278.12,111.41 279.64,111.39 281.16,111.29 282.68,110.99 284.21,110.99 285.73,110.99 287.25,110.97 288.77,110.95 290.30,110.95 291.82,110.80 293.34,110.76 294.86,110.74 296.38,110.72 297.91,110.68 299.43,110.68 300.95,110.68 302.47,110.68 304.00,110.68 305.52,110.68 307.04,110.68 308.56,110.68 310.08,110.62 311.61,110.56 313.13,110.56 314.65,110.21 316.17,110.19 317.70,110.17 319.22,110.11 320.74,109.93 322.26,109.50 323.78,109.42 325.31,109.42 326.83,109.42 328.35,109.42 329.87,109.42 331.40,109.42 332.92,109.42 334.44,109.42 335.96,109.42 337.48,109.42 339.01,109.42 340.53,109.42 342.05,109.42 343.57,109.40 345.10,109.29 346.62,109.27 348.14,109.27 349.66,109.27 351.18,109.27 352.71,109.19 354.23,109.19 355.75,108.87 357.27,108.58 358.79,108.58 360.32,108.58 361.84,108.58 363.36,108.58 364.88,108.54 366.41,108.54 367.93,108.50 369.45,108.36 370.97,108.24 372.49,107.71 374.02,107.69 375.54,106.89 377.06,106.42 378.58,106.07 380.11,104.95 381.63,104.65 383.15,104.53 384.67,104.16 386.19,103.59 387.72,103.45 389.24,103.26 390.76,102.94 392.28,102.67 393.81,102.55 395.33,102.35 396.85,102.22 398.37,101.86 399.89,101.55 401.42,101.18 402.94,100.57 404.46,100.21 405.98,98.47 407.51,97.15 409.03,96.31 410.55,95.58 412.07,94.78 413.59,94.78 415.12,94.78 416.64,94.78 418.16,94.26 419.68,93.97 421.21,93.32 422.73,92.58 424.25,91.56 425.77,89.95 427.29,89.04 428.82,87.39 430.34,86.43 431.86,85.82 433.38,84.82 434.90,84.03 436.43,82.70 437.95,80.76 439.47,80.19 440.99,79.36 442.52,78.66 444.04,78.42 445.56,77.52 447.08,77.36 448.60,76.28 450.13,75.30 451.65,74.71 453.17,74.02 454.69,73.08 456.22,72.80 457.74,72.67 459.26,72.53 460.78,72.41 462.30,71.67 463.83,70.82 465.35,69.49 466.87,69.09 468.39,68.41 469.92,67.29 471.44,64.79 472.96,62.91 474.48,60.81 476.00,60.36 477.53,59.43 479.05,57.57 480.57,56.43 482.09,55.80 483.62,54.86 485.14,54.37 486.66,53.68 488.18,53.37 489.70,52.31 491.23,50.71 492.75,49.20 494.27,48.75 495.79,47.97 497.32,46.55 498.84,45.49 500.36,43.92 501.88,43.12 503.40,41.51 504.93,39.37 506.45,37.54 507.97,33.67 509.49,30.94" />
    </svg>
  