
    <svg width="540" height="160" xmlns="http://www.w3.org/2000/svg">
      <style>.line{fill:none;stroke:#388bfd;stroke-width:1.5}.axis{stroke:#555;stroke-width:1;opacity:0.5}.label{fill:#999;font-family:sans-serif;font-size:10px;text-anchor:middle}</style>
      <line class="axis" x1="30" y1="30" x2="30" y2="130" />
      <line class="axis" x1="30" y1="130" x2="510" y2="130" />
      <text class="label" x="15" y="30">8,467</text>
      <text class="label" x="15" y="134">0</text>
      <text class="label" x="30" y="148">2021</text>
      <text class="label" x="510" y="148">2026</text>
      <polyline class="line" points="30.00,129.98 31.47,129.96 32.94,129.95 34.42,129.95 35.89,129.95 37.36,129.80 38.83,129.80 40.31,129.80 41.78,128.95 43.25,127.54 44.72,127.47 46.20,127.47 47.67,127.47 49.14,127.47 50.61,127.47 52.09,127.47 53.56,127.47 55.03,127.47 56.50,127.47 57.98,127.47 59.45,127.47 60.92,127.47 62.39,127.47 63.87,127.47 65.34,127.47 66.81,127.47 68.28,127.47 69.75,126.67 71.23,126.67 72.70,126.66 74.17,126.66 75.64,126.66 77.12,126.66 78.59,126.61 80.06,126.61 81.53,126.61 83.01,126.61 84.48,126.61 85.95,126.61 87.42,126.61 88.90,126.61 90.37,126.61 91.84,126.61 93.31,126.61 94.79,126.61 96.26,126.61 97.73,126.61 99.20,126.61 100.67,126.61 102.15,126.61 103.62,126.61 105.09,126.56 106.56,125.84 108.04,125.18 109.51,124.91 110.98,123.60 112.45,123.60 113.93,123.60 115.40,123.60 116.87,123.60 118.34,123.60 119.82,123.60 121.29,123.60 122.76,123.60 124.23,123.60 125.71,123.60 127.18,123.60 128.65,123.50 130.12,123.50 131.60,123.50 133.07,123.39 134.54,123.39 136.01,123.39 137.48,123.39 138.96,123.35 140.43,123.35 141.90,123.35 143.37,123.35 144.85,123.33 146.32,123.33 147.79,123.33 149.26,123.33 150.74,123.33 152.21,123.33 153.68,123.33 155.15,123.33 156.63,123.33 158.10,123.33 159.57,123.33 161.04,123.33 162.52,123.33 163.99,123.33 165.46,123.33 166.93,123.33 168.40,123.33 169.88,123.33 171.35,123.33 172.82,123.33 174.29,123.33 175.77,123.33 177.24,123.33 178.71,123.29 180.18,123.29 181.66,123.29 183.13,123.29 184.60,123.29 186.07,123.29 187.55,123.29 189.02,123.29 190.49,123.29 191.96,123.29 193.44,123.29 194.91,123.29 196.38,123.29 197.85,123.29 199.33,123.29 200.80,123.27 202.27,122.96 203.74,122.88 205.21,122.75 206.69,122.58 208.16,122.54 209.63,122.54 211.10,122.54 212.58,122.28 214.05,122.25 215.52,122.09 216.99,122.03 218.47,121.92 219.94,121.51 221.41,121.48 222.88,121.43 224.36,121.41 225.83,121.35 227.30,121.35 228.77,121.33 230.25,121.33 231.72,121.33 233.19,121.33 234.66,121.33 236.13,121.33 237.61,121.33 239.08,121.20 240.55,120.82 242.02,120.54 243.50,120.46 244.97,120.28 246.44,120.27 247.91,120.24 249.39,120.23 250.86,120.23 252.33,120.23 253.80,120.15 255.28,120.07 256.75,120.04 258.22,120.02 259.69,120.00 261.17,119.72 262.64,119.54 264.11,119.25 265.58,119.08 267.06,118.95 268.53,118.89 270.00,118.82 271.47,118.80 272.94,118.74 274.42,118.57 275.89,118.57 277.36,118.57 278.83,118.56 280.31,118.54 281.78,118.54 283.25,118.45 284.72,118.43 286.20,118.41 287.67,118.40 289.14,118.38 290.61,118.38 292.09,118.38 293.56,118.38 295.03,118.38 296.50,118.38 297.98,118.38 299.45,118.38 300.92,118.34 302.39,118.31 303.87,118.31 305.34,118.09 306.81,118.08 308.28,118.07 309.75,118.04 311.23,117.93 312.70,117.67 314.17,117.62 315.64,117.62 317.12,117.62 318.59,117.62 320.06,117.62 321.53,117.62 323.01,117.62 324.48,117.62 325.95,117.62 327.42,117.62 328.90,117.62 330.37,117.62 331.84,117.62 333.31,117.61 334.79,117.54 336.26,117.53 337.73,117.53 339.20,117.53 340.67,117.53 342.15,117.48 343.62,117.48 345.09,117.29 346.56,117.11 348.04,117.11 349.51,117.11 350.98,117.11 352.45,117.11 353.93,117.09 355.40,117.09 356.87,117.07 358.34,116.98 359.82,116.91 361.29,116.60 362.76,116.58 364.23,116.10 365.71,115.82 367.18,115.60 368.65,114.93 370.12,114.75 371.60,114.68 373.07,114.46 374.54,114.11 376.01,114.03 377.48,113.91 378.96,113.73 380.43,113.56 381.90,113.49 383.37,113.37 384.85,113.29 386.32,113.08 387.79,112.89 389.26,112.66 390.74,112.30 392.21,112.08 393.68,111.03 395.15,110.24 396.63,109.73 398.10,109.30 399.57,108.81 401.04,108.81 402.52,108.81 403.99,108.81 405.46,108.50 406.93,108.33 408.40,107.69 409.88,106.97 411.35,106.13 412.82,104.87 414.29,103.98 415.77,102.16 417.24,101.06 418.71,100.33 420.18,99.15 421.66,98.39 423.13,96.90 424.60,94.63 426.07,93.94 427.55,93.06 429.02,92.21 430.49,91.92 431.96,90.84 433.44,90.65 434.91,89.35 436.38,88.17 437.85,87.46 439.33,86.66 440.80,85.59 442.27,85.31 443.74,85.21 445.21,85.10 446.69,85.03 448.16,84.35 449.63,83.48 451.10,82.42 452.58,82.12 454.05,81.26 455.52,80.15 456.99,77.94 458.47,76.31 459.94,74.30 461.41,73.77 462.88,72.71 464.36,70.73 465.83,69.61 467.30,69.00 468.77,68.14 470.25,67.57 471.72,66.75 473.19,66.38 474.66,65.55 476.13,63.98 477.61,62.24 479.08,61.71 480.55,60.73 482.02,58.94 483.50,58.01 484.97,55.78 486.44,54.72 487.91,52.78 489.39,50.89 490.86,48.61 492.33,45.19 493.80,42.92 495.28,40.97 496.75,39.72 498.22,38.10 499.69,36.65 501.17,35.94 502.64,34.76 504.11,33.33 505.58,32.78 507.06,31.72 508.53,30.83 510.00,30.00" />
    </svg>
  