
    <svg width="540" height="160" xmlns="http://www.w3.org/2000/svg">
      <style>.line{fill:none;stroke:#388bfd;stroke-width:1.5}.axis{stroke:#555;stroke-width:1;opacity:0.5}.label{fill:#999;font-family:sans-serif;font-size:10px;text-anchor:middle}</style>
      <line class="axis" x1="30" y1="30" x2="30" y2="130" />
      <line class="axis" x1="30" y1="130" x2="510" y2="130" />
      <text class="label" x="15" y="30">9,464</text>
      <text class="label" x="15" y="134">0</text>
      <text class="label" x="30" y="148">2021</text>
      <text class="label" x="510" y="148">2026</text>
      <polyline class="line" points="30.00,129.98 31.43,129.97 32.86,129.96 34.29,129.96 35.73,129.96 37.16,129.82 38.59,129.82 40.02,129.82 41.45,129.06 42.88,127.80 44.31,127.74 45.75,127.74 47.18,127.74 48.61,127.74 50.04,127.74 51.47,127.74 52.90,127.74 54.33,127.74 55.77,127.74 57.20,127.74 58.63,127.74 60.06,127.74 61.49,127.74 62.92,127.74 64.35,127.74 65.79,127.74 67.22,127.74 68.65,127.02 70.08,127.02 71.51,127.01 72.94,127.01 74.37,127.01 75.81,127.01 77.24,126.97 78.67,126.97 80.10,126.97 81.53,126.97 82.96,126.97 84.39,126.97 85.83,126.97 87.26,126.97 88.69,126.97 90.12,126.97 91.55,126.97 92.98,126.97 94.41,126.97 95.84,126.97 97.28,126.97 98.71,126.97 100.14,126.97 101.57,126.97 103.00,126.93 104.43,126.28 105.86,125.69 107.30,125.45 108.73,124.27 110.16,124.27 111.59,124.27 113.02,124.27 114.45,124.27 115.88,124.27 117.32,124.27 118.75,124.27 120.18,124.27 121.61,124.27 123.04,124.27 124.47,124.27 125.90,124.19 127.34,124.19 128.77,124.19 130.20,124.08 131.63,124.08 133.06,124.08 134.49,124.08 135.92,124.05 137.36,124.05 138.79,124.05 140.22,124.05 141.65,124.03 143.08,124.03 144.51,124.03 145.94,124.03 147.38,124.03 148.81,124.03 150.24,124.03 151.67,124.03 153.10,124.03 154.53,124.03 155.96,124.03 157.40,124.03 158.83,124.03 160.26,124.03 161.69,124.03 163.12,124.03 164.55,124.03 165.98,124.03 167.42,124.03 168.85,124.03 170.28,124.03 171.71,124.03 173.14,124.03 174.57,124.00 176.00,124.00 177.44,124.00 178.87,124.00 180.30,124.00 181.73,124.00 183.16,124.00 184.59,124.00 186.02,124.00 187.46,124.00 188.89,124.00 190.32,124.00 191.75,124.00 193.18,124.00 194.61,124.00 196.04,123.98 197.48,123.70 198.91,123.63 200.34,123.51 201.77,123.36 203.20,123.32 204.63,123.32 206.06,123.32 207.50,123.09 208.93,123.07 210.36,122.92 211.79,122.87 213.22,122.77 214.65,122.40 216.08,122.38 217.51,122.33 218.95,122.32 220.38,122.27 221.81,122.27 223.24,122.24 224.67,122.24 226.10,122.24 227.53,122.24 228.97,122.24 230.40,122.24 231.83,122.24 233.26,122.13 234.69,121.79 236.12,121.54 237.55,121.46 238.99,121.30 240.42,121.29 241.85,121.27 243.28,121.26 244.71,121.26 246.14,121.26 247.57,121.19 249.01,121.11 250.44,121.09 251.87,121.07 253.30,121.05 254.73,120.81 256.16,120.64 257.59,120.38 259.03,120.23 260.46,120.11 261.89,120.06 263.32,119.99 264.75,119.98 266.18,119.93 267.61,119.77 269.05,119.77 270.48,119.77 271.91,119.76 273.34,119.75 274.77,119.75 276.20,119.67 277.63,119.64 279.07,119.63 280.50,119.62 281.93,119.60 283.36,119.60 284.79,119.60 286.22,119.60 287.65,119.60 289.09,119.60 290.52,119.60 291.95,119.60 293.38,119.57 294.81,119.54 296.24,119.54 297.67,119.35 299.11,119.34 300.54,119.33 301.97,119.30 303.40,119.20 304.83,118.97 306.26,118.93 307.69,118.93 309.13,118.93 310.56,118.93 311.99,118.93 313.42,118.93 314.85,118.93 316.28,118.93 317.71,118.93 319.15,118.93 320.58,118.93 322.01,118.93 323.44,118.93 324.87,118.92 326.30,118.85 327.73,118.84 329.17,118.84 330.60,118.84 332.03,118.84 333.46,118.80 334.89,118.80 336.32,118.63 337.75,118.47 339.18,118.47 340.62,118.47 342.05,118.47 343.48,118.47 344.91,118.45 346.34,118.45 347.77,118.43 349.20,118.36 350.64,118.29 352.07,118.01 353.50,118.00 354.93,117.56 356.36,117.31 357.79,117.12 359.22,116.52 360.66,116.36 362.09,116.30 363.52,116.09 364.95,115.79 366.38,115.71 367.81,115.61 369.24,115.44 370.68,115.29 372.11,115.23 373.54,115.12 374.97,115.05 376.40,114.86 377.83,114.69 379.26,114.49 380.70,114.16 382.13,113.97 383.56,113.03 384.99,112.32 386.42,111.87 387.85,111.48 389.28,111.04 390.72,111.04 392.15,111.04 393.58,111.04 395.01,110.77 396.44,110.61 397.87,110.04 399.30,109.40 400.74,108.65 402.17,107.51 403.60,106.72 405.03,105.10 406.46,104.11 407.89,103.46 409.32,102.40 410.76,101.72 412.19,100.38 413.62,98.35 415.05,97.74 416.48,96.95 417.91,96.19 419.34,95.93 420.78,94.96 422.21,94.79 423.64,93.63 425.07,92.57 426.50,91.94 427.93,91.22 429.36,90.27 430.80,90.02 432.23,89.93 433.66,89.83 435.09,89.76 436.52,89.16 437.95,88.38 439.38,87.43 440.82,87.16 442.25,86.39 443.68,85.40 445.11,83.42 446.54,81.97 447.97,80.17 449.40,79.69 450.83,78.74 452.27,76.98 453.70,75.97 455.13,75.42 456.56,74.65 457.99,74.15 459.42,73.42 460.85,73.08 462.29,72.34 463.72,70.93 465.15,69.38 466.58,68.91 468.01,68.03 469.44,66.42 470.87,65.60 472.31,63.60 473.74,62.65 475.17,60.92 476.60,59.23 478.03,57.19 479.46,54.12 480.89,52.09 482.33,50.35 483.76,49.23 485.19,47.78 486.62,46.48 488.05,45.85 489.48,44.79 490.91,43.51 492.35,42.80 493.78,41.70 495.21,40.86 496.64,40.07 498.07,38.88 499.50,36.70 500.93,34.96 502.37,33.49 503.80,32.27 505.23,31.83 506.66,31.26 508.09,30.79 509.52,30.26" />
    </svg>
  