
    <svg width="540" height="160" xmlns="http://www.w3.org/2000/svg">
      <style>.line{fill:none;stroke:#388bfd;stroke-width:1.5}.axis{stroke:#555;stroke-width:1;opacity:0.5}.label{fill:#999;font-family:sans-serif;font-size:10px;text-anchor:middle}</style>
      <line class="axis" x1="30" y1="30" x2="30" y2="130" />
      <line class="axis" x1="30" y1="130" x2="510" y2="130" />
      <text class="label" x="15" y="30">8,479</text>
      <text class="label" x="15" y="134">0</text>
      <text class="label" x="30" y="148">2021</text>
      <text class="label" x="510" y="148">2026</text>
      <polyline class="line" points="30.00,129.98 31.47,129.96 32.94,129.95 34.41,129.95 35.89,129.95 37.36,129.80 38.83,129.80 40.30,129.80 41.77,128.95 43.24,127.55 44.72,127.48 46.19,127.48 47.66,127.48 49.13,127.48 50.60,127.48 52.07,127.48 53.55,127.48 55.02,127.48 56.49,127.48 57.96,127.48 59.43,127.48 60.90,127.48 62.38,127.48 63.85,127.48 65.32,127.48 66.79,127.48 68.26,127.48 69.73,126.67 71.21,126.67 72.68,126.66 74.15,126.66 75.62,126.66 77.09,126.66 78.56,126.62 80.04,126.62 81.51,126.62 82.98,126.62 84.45,126.62 85.92,126.62 87.39,126.62 88.87,126.62 90.34,126.62 91.81,126.62 93.28,126.62 94.75,126.62 96.22,126.62 97.70,126.62 99.17,126.62 100.64,126.62 102.11,126.62 103.58,126.62 105.05,126.57 106.53,125.85 108.00,125.19 109.47,124.92 110.94,123.61 112.41,123.61 113.88,123.61 115.36,123.61 116.83,123.61 118.30,123.61 119.77,123.61 121.24,123.61 122.71,123.61 124.18,123.61 125.66,123.61 127.13,123.61 128.60,123.51 130.07,123.51 131.54,123.51 133.01,123.40 134.49,123.40 135.96,123.40 137.43,123.40 138.90,123.36 140.37,123.36 141.84,123.36 143.32,123.36 144.79,123.34 146.26,123.34 147.73,123.34 149.20,123.34 150.67,123.34 152.15,123.34 153.62,123.34 155.09,123.34 156.56,123.34 158.03,123.34 159.50,123.34 160.98,123.34 162.45,123.34 163.92,123.34 165.39,123.34 166.86,123.34 168.33,123.34 169.81,123.34 171.28,123.34 172.75,123.34 174.22,123.34 175.69,123.34 177.16,123.34 178.64,123.30 180.11,123.30 181.58,123.30 183.05,123.30 184.52,123.30 185.99,123.30 187.47,123.30 188.94,123.30 190.41,123.30 191.88,123.30 193.35,123.30 194.82,123.30 196.30,123.30 197.77,123.30 199.24,123.30 200.71,123.28 202.18,122.97 203.65,122.89 205.13,122.76 206.60,122.59 208.07,122.55 209.54,122.55 211.01,122.55 212.48,122.29 213.96,122.26 215.43,122.10 216.90,122.04 218.37,121.93 219.84,121.52 221.31,121.50 222.78,121.44 224.26,121.43 225.73,121.37 227.20,121.37 228.67,121.34 230.14,121.34 231.61,121.34 233.09,121.34 234.56,121.34 236.03,121.34 237.50,121.34 238.97,121.21 240.44,120.84 241.92,120.55 243.39,120.47 244.86,120.29 246.33,120.28 247.80,120.26 249.27,120.25 250.75,120.25 252.22,120.25 253.69,120.16 255.16,120.08 256.63,120.06 258.10,120.03 259.58,120.01 261.05,119.74 262.52,119.55 263.99,119.27 265.46,119.09 266.93,118.96 268.41,118.90 269.88,118.83 271.35,118.82 272.82,118.76 274.29,118.58 275.76,118.58 277.24,118.58 278.71,118.57 280.18,118.56 281.65,118.56 283.12,118.47 284.59,118.44 286.07,118.43 287.54,118.42 289.01,118.39 290.48,118.39 291.95,118.39 293.42,118.39 294.90,118.39 296.37,118.39 297.84,118.39 299.31,118.39 300.78,118.36 302.25,118.32 303.73,118.32 305.20,118.11 306.67,118.10 308.14,118.09 309.61,118.05 311.08,117.95 312.55,117.69 314.03,117.64 315.50,117.64 316.97,117.64 318.44,117.64 319.91,117.64 321.38,117.64 322.86,117.64 324.33,117.64 325.80,117.64 327.27,117.64 328.74,117.64 330.21,117.64 331.69,117.64 333.16,117.63 334.63,117.56 336.10,117.55 337.57,117.55 339.04,117.55 340.52,117.55 341.99,117.50 343.46,117.50 344.93,117.31 346.40,117.13 347.87,117.13 349.35,117.13 350.82,117.13 352.29,117.13 353.76,117.11 355.23,117.11 356.70,117.09 358.18,117.00 359.65,116.93 361.12,116.61 362.59,116.60 364.06,116.12 365.53,115.84 367.01,115.62 368.48,114.95 369.95,114.77 371.42,114.70 372.89,114.48 374.36,114.14 375.84,114.05 377.31,113.94 378.78,113.75 380.25,113.58 381.72,113.51 383.19,113.39 384.67,113.31 386.14,113.10 387.61,112.91 389.08,112.69 390.55,112.32 392.02,112.11 393.50,111.06 394.97,110.27 396.44,109.76 397.91,109.33 399.38,108.84 400.85,108.84 402.32,108.84 403.80,108.84 405.27,108.54 406.74,108.36 408.21,107.72 409.68,107.00 411.15,106.16 412.63,104.90 414.10,104.02 415.57,102.20 417.04,101.11 418.51,100.37 419.98,99.19 421.46,98.44 422.93,96.94 424.40,94.68 425.87,93.99 427.34,93.11 428.81,92.26 430.29,91.98 431.76,90.89 433.23,90.70 434.70,89.41 436.17,88.23 437.64,87.52 439.12,86.72 440.59,85.66 442.06,85.37 443.53,85.28 445.00,85.16 446.47,85.09 447.95,84.42 449.42,83.54 450.89,82.48 452.36,82.19 453.83,81.33 455.30,80.22 456.78,78.01 458.25,76.39 459.72,74.38 461.19,73.85 462.66,72.79 464.13,70.82 465.61,69.70 467.08,69.08 468.55,68.22 470.02,67.66 471.49,66.84 472.96,66.47 474.44,65.64 475.91,64.07 477.38,62.34 478.85,61.81 480.32,60.83 481.79,59.04 483.27,58.12 484.74,55.89 486.21,54.83 487.68,52.89 489.15,51.00 490.62,48.73 492.10,45.31 493.57,43.04 495.04,41.10 496.51,39.85 497.98,38.23 499.45,36.78 500.92,36.07 502.40,34.89 503.87,33.47 505.34,32.91 506.81,31.86 508.28,30.97 509.75,30.08" />
    </svg>
  