
    <svg width="540" height="160" xmlns="http://www.w3.org/2000/svg">
      <style>.line{fill:none;stroke:#388bfd;stroke-width:1.5}.axis{stroke:#555;stroke-width:1;opacity:0.5}.label{fill:#999;font-family:sans-serif;font-size:10px;text-anchor:middle}</style>
      <line class="axis" x1="30" y1="30" x2="30" y2="130" />
      <line class="axis" x1="30" y1="130" x2="510" y2="130" />
      <text class="label" x="15" y="30">7,349</text>
      <text class="label" x="15" y="134">0</text>
      <text class="label" x="30" y="148">2021</text>
      <text class="label" x="510" y="148">2026</text>
      <polyline class="line" points="30.00,129.97 31.51,129.96 33.02,129.95 34.53,129.95 36.03,129.95 37.54,129.77 39.05,129.77 40.56,129.77 42.07,128.79 43.58,127.17 45.09,127.09 46.60,127.09 48.10,127.09 49.61,127.09 51.12,127.09 52.63,127.09 54.14,127.09 55.65,127.09 57.16,127.09 58.66,127.09 60.17,127.09 61.68,127.09 63.19,127.09 64.70,127.09 66.21,127.09 67.72,127.09 69.22,127.09 70.73,126.16 72.24,126.16 73.75,126.15 75.26,126.15 76.77,126.15 78.28,126.15 79.79,126.09 81.29,126.09 82.80,126.09 84.31,126.09 85.82,126.09 87.33,126.09 88.84,126.09 90.35,126.09 91.85,126.09 93.36,126.09 94.87,126.09 96.38,126.09 97.89,126.09 99.40,126.09 100.91,126.09 102.41,126.09 103.92,126.09 105.43,126.09 106.94,126.04 108.45,125.21 109.96,124.45 111.47,124.14 112.98,122.62 114.48,122.62 115.99,122.62 117.50,122.62 119.01,122.62 120.52,122.62 122.03,122.62 123.54,122.62 125.04,122.62 126.55,122.62 128.06,122.62 129.57,122.62 131.08,122.52 132.59,122.52 134.10,122.52 135.61,122.38 137.11,122.38 138.62,122.38 140.13,122.38 141.64,122.34 143.15,122.34 144.66,122.34 146.17,122.34 147.67,122.31 149.18,122.31 150.69,122.31 152.20,122.31 153.71,122.31 155.22,122.31 156.73,122.31 158.23,122.31 159.74,122.31 161.25,122.31 162.76,122.31 164.27,122.31 165.78,122.31 167.29,122.31 168.80,122.31 170.30,122.31 171.81,122.31 173.32,122.31 174.83,122.31 176.34,122.31 177.85,122.31 179.36,122.31 180.86,122.31 182.37,122.27 183.88,122.27 185.39,122.27 186.90,122.27 188.41,122.27 189.92,122.27 191.42,122.27 192.93,122.27 194.44,122.27 195.95,122.27 197.46,122.27 198.97,122.27 200.48,122.27 201.99,122.27 203.49,122.27 205.00,122.24 206.51,121.89 208.02,121.79 209.53,121.65 211.04,121.45 212.55,121.40 214.05,121.40 215.56,121.40 217.07,121.10 218.58,121.07 220.09,120.88 221.60,120.82 223.11,120.69 224.61,120.22 226.12,120.19 227.63,120.12 229.14,120.11 230.65,120.04 232.16,120.04 233.67,120.01 235.18,120.01 236.68,120.01 238.19,120.01 239.70,120.01 241.21,120.01 242.72,120.01 244.23,119.86 245.74,119.43 247.24,119.10 248.75,119.01 250.26,118.80 251.77,118.79 253.28,118.76 254.79,118.75 256.30,118.75 257.81,118.75 259.31,118.65 260.82,118.56 262.33,118.53 263.84,118.50 265.35,118.47 266.86,118.16 268.37,117.94 269.87,117.62 271.38,117.41 272.89,117.26 274.40,117.20 275.91,117.11 277.42,117.10 278.93,117.03 280.43,116.83 281.94,116.83 283.45,116.83 284.96,116.81 286.47,116.80 287.98,116.80 289.49,116.69 291.00,116.66 292.50,116.65 294.01,116.64 295.52,116.61 297.03,116.61 298.54,116.61 300.05,116.61 301.56,116.61 303.06,116.61 304.57,116.61 306.08,116.61 307.59,116.57 309.10,116.53 310.61,116.53 312.12,116.28 313.62,116.27 315.13,116.26 316.64,116.22 318.15,116.09 319.66,115.79 321.17,115.74 322.68,115.74 324.19,115.74 325.69,115.74 327.20,115.74 328.71,115.74 330.22,115.74 331.73,115.74 333.24,115.74 334.75,115.74 336.25,115.74 337.76,115.74 339.27,115.74 340.78,115.73 342.29,115.64 343.80,115.63 345.31,115.63 346.82,115.63 348.32,115.63 349.83,115.58 351.34,115.58 352.85,115.36 354.36,115.15 355.87,115.15 357.38,115.15 358.88,115.15 360.39,115.15 361.90,115.13 363.41,115.13 364.92,115.10 366.43,115.00 367.94,114.92 369.44,114.56 370.95,114.54 372.46,113.98 373.97,113.66 375.48,113.41 376.99,112.64 378.50,112.43 380.01,112.35 381.51,112.09 383.02,111.70 384.53,111.60 386.04,111.47 387.55,111.25 389.06,111.06 390.57,110.98 392.07,110.84 393.58,110.75 395.09,110.50 396.60,110.28 398.11,110.02 399.62,109.60 401.13,109.36 402.63,108.15 404.14,107.23 405.65,106.65 407.16,106.15 408.67,105.59 410.18,105.59 411.69,105.59 413.20,105.59 414.70,105.23 416.21,105.03 417.72,104.30 419.23,103.47 420.74,102.50 422.25,101.04 423.76,100.02 425.26,97.93 426.77,96.66 428.28,95.82 429.79,94.46 431.30,93.59 432.81,91.86 434.32,89.25 435.83,88.46 437.33,87.44 438.84,86.46 440.35,86.13 441.86,84.88 443.37,84.66 444.88,83.16 446.39,81.80 447.89,80.99 449.40,80.06 450.91,78.84 452.42,78.51 453.93,78.40 455.44,78.27 456.95,78.18 458.45,77.41 459.96,76.40 461.47,75.18 462.98,74.84 464.49,73.84 466.00,72.56 467.51,70.02 469.02,68.14 470.52,65.83 472.03,65.22 473.54,63.99 475.05,61.72 476.56,60.43 478.07,59.72 479.58,58.72 481.08,58.07 482.59,57.13 484.10,56.70 485.61,55.74 487.12,53.94 488.63,51.93 490.14,51.32 491.64,50.38 493.15,49.13 494.66,48.23 496.17,46.83 497.68,45.96 499.19,44.11 500.70,42.15 502.21,40.42 503.71,36.99 505.22,34.87 506.73,32.82 508.24,31.67 509.75,30.00" />
    </svg>
  