
    <svg width="540" height="160" xmlns="http://www.w3.org/2000/svg">
      <style>.line{fill:none;stroke:#388bfd;stroke-width:1.5}.axis{stroke:#555;stroke-width:1;opacity:0.5}.label{fill:#999;font-family:sans-serif;font-size:10px;text-anchor:middle}</style>
      <line class="axis" x1="30" y1="30" x2="30" y2="130" />
      <line class="axis" x1="30" y1="130" x2="510" y2="130" />
      <text class="label" x="15" y="30">7,807</text>
      <text class="label" x="15" y="134">0</text>
      <text class="label" x="30" y="148">2021</text>
      <text class="label" x="510" y="148">2026</text>
      <polyline class="line" points="30.00,129.97 31.49,129.96 32.98,129.95 34.47,129.95 35.97,129.95 37.46,129.78 38.95,129.78 40.44,129.78 41.93,128.86 43.42,127.34 44.91,127.26 46.41,127.26 47.90,127.26 49.39,127.26 50.88,127.26 52.37,127.26 53.86,127.26 55.35,127.26 56.85,127.26 58.34,127.26 59.83,127.26 61.32,127.26 62.81,127.26 64.30,127.26 65.79,127.26 67.29,127.26 68.78,127.26 70.27,126.39 71.76,126.39 73.25,126.38 74.74,126.38 76.24,126.38 77.73,126.38 79.22,126.32 80.71,126.32 82.20,126.32 83.69,126.32 85.18,126.32 86.68,126.32 88.17,126.32 89.66,126.32 91.15,126.32 92.64,126.32 94.13,126.32 95.62,126.32 97.12,126.32 98.61,126.32 100.10,126.32 101.59,126.32 103.08,126.32 104.57,126.32 106.06,126.27 107.56,125.49 109.05,124.77 110.54,124.48 112.03,123.06 113.52,123.06 115.01,123.06 116.50,123.06 118.00,123.06 119.49,123.06 120.98,123.06 122.47,123.06 123.96,123.06 125.45,123.06 126.94,123.06 128.44,123.06 129.93,122.96 131.42,122.96 132.91,122.96 134.40,122.83 135.89,122.83 137.38,122.83 138.88,122.83 140.37,122.79 141.86,122.79 143.35,122.79 144.84,122.79 146.33,122.76 147.82,122.76 149.32,122.76 150.81,122.76 152.30,122.76 153.79,122.76 155.28,122.76 156.77,122.76 158.27,122.76 159.76,122.76 161.25,122.76 162.74,122.76 164.23,122.76 165.72,122.76 167.21,122.76 168.71,122.76 170.20,122.76 171.69,122.76 173.18,122.76 174.67,122.76 176.16,122.76 177.65,122.76 179.15,122.76 180.64,122.72 182.13,122.72 183.62,122.72 185.11,122.72 186.60,122.72 188.09,122.72 189.59,122.72 191.08,122.72 192.57,122.72 194.06,122.72 195.55,122.72 197.04,122.72 198.53,122.72 200.03,122.72 201.52,122.72 203.01,122.70 204.50,122.37 205.99,122.28 207.48,122.14 208.97,121.96 210.47,121.90 211.96,121.90 213.45,121.90 214.94,121.62 216.43,121.60 217.92,121.42 219.41,121.35 220.91,121.24 222.40,120.79 223.89,120.76 225.38,120.70 226.87,120.69 228.36,120.62 229.85,120.62 231.35,120.60 232.84,120.60 234.33,120.60 235.82,120.60 237.31,120.60 238.80,120.60 240.30,120.60 241.79,120.46 243.28,120.05 244.77,119.74 246.26,119.65 247.75,119.46 249.24,119.45 250.74,119.42 252.23,119.41 253.72,119.41 255.21,119.41 256.70,119.32 258.19,119.23 259.68,119.20 261.18,119.18 262.67,119.15 264.16,118.86 265.65,118.65 267.14,118.34 268.63,118.15 270.12,118.01 271.62,117.95 273.11,117.87 274.60,117.86 276.09,117.79 277.58,117.60 279.07,117.60 280.56,117.60 282.06,117.59 283.55,117.58 285.04,117.58 286.53,117.47 288.02,117.45 289.51,117.43 291.00,117.42 292.50,117.40 293.99,117.40 295.48,117.40 296.97,117.40 298.46,117.40 299.95,117.40 301.44,117.40 302.94,117.40 304.43,117.36 305.92,117.32 307.41,117.32 308.90,117.09 310.39,117.08 311.89,117.06 313.38,117.02 314.87,116.91 316.36,116.63 317.85,116.58 319.34,116.58 320.83,116.58 322.33,116.58 323.82,116.58 325.31,116.58 326.80,116.58 328.29,116.58 329.78,116.58 331.27,116.58 332.77,116.58 334.26,116.58 335.75,116.58 337.24,116.56 338.73,116.49 340.22,116.47 341.71,116.47 343.21,116.47 344.70,116.47 346.19,116.42 347.68,116.42 349.17,116.22 350.66,116.03 352.15,116.03 353.65,116.03 355.14,116.03 356.63,116.03 358.12,116.00 359.61,116.00 361.10,115.97 362.59,115.88 364.09,115.81 365.58,115.46 367.07,115.45 368.56,114.92 370.05,114.62 371.54,114.39 373.03,113.66 374.53,113.46 376.02,113.39 377.51,113.14 379.00,112.77 380.49,112.68 381.98,112.55 383.47,112.35 384.97,112.17 386.46,112.09 387.95,111.96 389.44,111.88 390.93,111.64 392.42,111.44 393.92,111.20 395.41,110.80 396.90,110.57 398.39,109.43 399.88,108.57 401.37,108.02 402.86,107.55 404.36,107.02 405.85,107.02 407.34,107.02 408.83,107.02 410.32,106.69 411.81,106.50 413.30,105.80 414.80,105.02 416.29,104.11 417.78,102.74 419.27,101.78 420.76,99.81 422.25,98.62 423.74,97.82 425.24,96.54 426.73,95.72 428.22,94.10 429.71,91.64 431.20,90.89 432.69,89.93 434.18,89.01 435.68,88.70 437.17,87.53 438.66,87.32 440.15,85.91 441.64,84.63 443.13,83.86 444.62,82.99 446.12,81.84 447.61,81.53 449.10,81.43 450.59,81.30 452.08,81.22 453.57,80.49 455.06,79.55 456.56,78.39 458.05,78.07 459.54,77.14 461.03,75.93 462.52,73.54 464.01,71.77 465.50,69.59 467.00,69.02 468.49,67.86 469.98,65.72 471.47,64.51 472.96,63.84 474.45,62.91 475.95,62.29 477.44,61.41 478.93,61.00 480.42,60.10 481.91,58.40 483.40,56.51 484.89,55.94 486.39,54.96 487.88,53.40 489.37,52.48 490.86,50.61 492.35,49.62 493.84,47.70 495.33,45.76 496.83,43.71 498.32,40.23 499.81,38.12 501.30,36.10 502.79,34.97 504.28,33.30 505.77,31.88 507.27,31.40 508.76,30.61" />
    </svg>
  