
    <svg width="540" height="160" xmlns="http://www.w3.org/2000/svg">
      <style>.line{fill:none;stroke:#388bfd;stroke-width:1.5}.axis{stroke:#555;stroke-width:1;opacity:0.5}.label{fill:#999;font-family:sans-serif;font-size:10px;text-anchor:middle}</style>
      <line class="axis" x1="30" y1="30" x2="30" y2="130" />
      <line class="axis" x1="30" y1="130" x2="510" y2="130" />
      <text class="label" x="15" y="30">9,497</text>
      <text class="label" x="15" y="134">0</text>
      <text class="label" x="30" y="148">2021</text>
      <text class="label" x="510" y="148">2026</text>
      <polyline class="line" points="30.00,129.98 31.43,129.97 32.86,129.96 34.29,129.96 35.72,129.96 37.15,129.82 38.58,129.82 40.01,129.82 41.45,129.06 42.88,127.81 44.31,127.75 45.74,127.75 47.17,127.75 48.60,127.75 50.03,127.75 51.46,127.75 52.89,127.75 54.32,127.75 55.75,127.75 57.18,127.75 58.61,127.75 60.04,127.75 61.48,127.75 62.91,127.75 64.34,127.75 65.77,127.75 67.20,127.75 68.63,127.03 70.06,127.03 71.49,127.02 72.92,127.02 74.35,127.02 75.78,127.02 77.21,126.98 78.64,126.98 80.07,126.98 81.51,126.98 82.94,126.98 84.37,126.98 85.80,126.98 87.23,126.98 88.66,126.98 90.09,126.98 91.52,126.98 92.95,126.98 94.38,126.98 95.81,126.98 97.24,126.98 98.67,126.98 100.10,126.98 101.54,126.98 102.97,126.94 104.40,126.29 105.83,125.70 107.26,125.46 108.69,124.29 110.12,124.29 111.55,124.29 112.98,124.29 114.41,124.29 115.84,124.29 117.27,124.29 118.70,124.29 120.13,124.29 121.56,124.29 123.00,124.29 124.43,124.29 125.86,124.21 127.29,124.21 128.72,124.21 130.15,124.10 131.58,124.10 133.01,124.10 134.44,124.10 135.87,124.07 137.30,124.07 138.73,124.07 140.16,124.07 141.59,124.05 143.03,124.05 144.46,124.05 145.89,124.05 147.32,124.05 148.75,124.05 150.18,124.05 151.61,124.05 153.04,124.05 154.47,124.05 155.90,124.05 157.33,124.05 158.76,124.05 160.19,124.05 161.62,124.05 163.06,124.05 164.49,124.05 165.92,124.05 167.35,124.05 168.78,124.05 170.21,124.05 171.64,124.05 173.07,124.05 174.50,124.02 175.93,124.02 177.36,124.02 178.79,124.02 180.22,124.02 181.65,124.02 183.08,124.02 184.52,124.02 185.95,124.02 187.38,124.02 188.81,124.02 190.24,124.02 191.67,124.02 193.10,124.02 194.53,124.02 195.96,124.00 197.39,123.72 198.82,123.65 200.25,123.53 201.68,123.39 203.11,123.35 204.55,123.35 205.98,123.35 207.41,123.11 208.84,123.09 210.27,122.95 211.70,122.89 213.13,122.80 214.56,122.43 215.99,122.41 217.42,122.36 218.85,122.34 220.28,122.29 221.71,122.29 223.14,122.27 224.58,122.27 226.01,122.27 227.44,122.27 228.87,122.27 230.30,122.27 231.73,122.27 233.16,122.16 234.59,121.82 236.02,121.57 237.45,121.49 238.88,121.33 240.31,121.32 241.74,121.30 243.17,121.29 244.61,121.29 246.04,121.29 247.47,121.22 248.90,121.14 250.33,121.12 251.76,121.10 253.19,121.08 254.62,120.84 256.05,120.67 257.48,120.42 258.91,120.26 260.34,120.14 261.77,120.09 263.20,120.03 264.63,120.02 266.07,119.97 267.50,119.81 268.93,119.81 270.36,119.81 271.79,119.80 273.22,119.79 274.65,119.79 276.08,119.70 277.51,119.68 278.94,119.67 280.37,119.66 281.80,119.64 283.23,119.64 284.66,119.64 286.10,119.64 287.53,119.64 288.96,119.64 290.39,119.64 291.82,119.64 293.25,119.61 294.68,119.58 296.11,119.58 297.54,119.39 298.97,119.38 300.40,119.37 301.83,119.33 303.26,119.24 304.69,119.01 306.13,118.96 307.56,118.96 308.99,118.96 310.42,118.96 311.85,118.96 313.28,118.96 314.71,118.96 316.14,118.96 317.57,118.96 319.00,118.96 320.43,118.96 321.86,118.96 323.29,118.96 324.72,118.95 326.15,118.89 327.59,118.88 329.02,118.88 330.45,118.88 331.88,118.88 333.31,118.84 334.74,118.84 336.17,118.67 337.60,118.51 339.03,118.51 340.46,118.51 341.89,118.51 343.32,118.51 344.75,118.49 346.18,118.49 347.62,118.47 349.05,118.40 350.48,118.33 351.91,118.05 353.34,118.04 354.77,117.61 356.20,117.35 357.63,117.16 359.06,116.56 360.49,116.41 361.92,116.34 363.35,116.14 364.78,115.84 366.21,115.76 367.65,115.66 369.08,115.49 370.51,115.34 371.94,115.28 373.37,115.17 374.80,115.10 376.23,114.91 377.66,114.74 379.09,114.54 380.52,114.22 381.95,114.03 383.38,113.09 384.81,112.38 386.24,111.93 387.68,111.54 389.11,111.11 390.54,111.11 391.97,111.11 393.40,111.11 394.83,110.84 396.26,110.68 397.69,110.11 399.12,109.47 400.55,108.72 401.98,107.59 403.41,106.80 404.84,105.18 406.27,104.20 407.70,103.55 409.14,102.50 410.57,101.82 412.00,100.49 413.43,98.46 414.86,97.85 416.29,97.06 417.72,96.31 419.15,96.05 420.58,95.08 422.01,94.92 423.44,93.76 424.87,92.70 426.30,92.07 427.73,91.36 429.17,90.41 430.60,90.16 432.03,90.07 433.46,89.97 434.89,89.90 436.32,89.30 437.75,88.52 439.18,87.58 440.61,87.31 442.04,86.54 443.47,85.55 444.90,83.59 446.33,82.13 447.76,80.34 449.20,79.87 450.63,78.92 452.06,77.16 453.49,76.16 454.92,75.61 456.35,74.85 457.78,74.34 459.21,73.61 460.64,73.28 462.07,72.54 463.50,71.14 464.93,69.59 466.36,69.12 467.79,68.24 469.23,66.64 470.66,65.82 472.09,63.83 473.52,62.88 474.95,61.16 476.38,59.47 477.81,57.44 479.24,54.39 480.67,52.36 482.10,50.63 483.53,49.51 484.96,48.07 486.39,46.77 487.82,46.14 489.25,45.09 490.69,43.81 492.12,43.10 493.55,42.00 494.98,41.17 496.41,40.38 497.84,39.19 499.27,37.02 500.70,35.29 502.13,33.82 503.56,32.61 504.99,32.17 506.42,31.60 507.85,31.14 509.28,30.61" />
    </svg>
  