
    <svg width="540" height="160" xmlns="http://www.w3.org/2000/svg">
      <style>.line{fill:none;stroke:#388bfd;stroke-width:1.5}.axis{stroke:#555;stroke-width:1;opacity:0.5}.label{fill:#999;font-family:sans-serif;font-size:10px;text-anchor:middle}</style>
      <line class="axis" x1="30" y1="30" x2="30" y2="130" />
      <line class="axis" x1="30" y1="130" x2="510" y2="130" />
      <text class="label" x="15" y="30">4,236</text>
      <text class="label" x="15" y="134">0</text>
      <text class="label" x="30" y="148">2021</text>
      <text class="label" x="510" y="148">2026</text>
      <polyline class="line" points="30.00,129.95 31.53,129.93 33.06,129.91 34.58,129.91 36.11,129.91 37.64,129.60 39.17,129.60 40.69,129.60 42.22,127.90 43.75,125.09 45.28,124.95 46.81,124.95 48.33,124.95 49.86,124.95 51.39,124.95 52.92,124.95 54.45,124.95 55.97,124.95 57.50,124.95 59.03,124.95 60.56,124.95 62.08,124.95 63.61,124.95 65.14,124.95 66.67,124.95 68.20,124.95 69.72,124.95 71.25,123.34 72.78,123.34 74.31,123.32 75.84,123.32 77.36,123.32 78.89,123.32 80.42,123.22 81.95,123.22 83.47,123.22 85.00,123.22 86.53,123.22 88.06,123.22 89.59,123.22 91.11,123.22 92.64,123.22 94.17,123.22 95.70,123.22 97.23,123.22 98.75,123.22 100.28,123.22 101.81,123.22 103.34,123.22 104.86,123.22 106.39,123.22 107.92,123.13 109.45,121.69 110.98,120.37 112.50,119.83 114.03,117.20 115.56,117.20 117.09,117.20 118.62,117.20 120.14,117.20 121.67,117.20 123.20,117.20 124.73,117.20 126.25,117.20 127.78,117.20 129.31,117.20 130.84,117.20 132.37,117.02 133.89,117.02 135.42,117.02 136.95,116.78 138.48,116.78 140.01,116.78 141.53,116.78 143.06,116.71 144.59,116.71 146.12,116.71 147.64,116.71 149.17,116.66 150.70,116.66 152.23,116.66 153.76,116.66 155.28,116.66 156.81,116.66 158.34,116.66 159.87,116.66 161.40,116.66 162.92,116.66 164.45,116.66 165.98,116.66 167.51,116.66 169.03,116.66 170.56,116.66 172.09,116.66 173.62,116.66 175.15,116.66 176.67,116.66 178.20,116.66 179.73,116.66 181.26,116.66 182.79,116.66 184.31,116.59 185.84,116.59 187.37,116.59 188.90,116.59 190.42,116.59 191.95,116.59 193.48,116.59 195.01,116.59 196.54,116.59 198.06,116.59 199.59,116.59 201.12,116.59 202.65,116.59 204.18,116.59 205.70,116.59 207.23,116.54 208.76,115.93 210.29,115.76 211.81,115.51 213.34,115.17 214.87,115.08 216.40,115.08 217.93,115.08 219.45,114.56 220.98,114.51 222.51,114.18 224.04,114.07 225.56,113.85 227.09,113.03 228.62,112.98 230.15,112.86 231.68,112.84 233.20,112.72 234.73,112.72 236.26,112.67 237.79,112.67 239.32,112.67 240.84,112.67 242.37,112.67 243.90,112.67 245.43,112.67 246.95,112.41 248.48,111.66 250.01,111.09 251.54,110.93 253.07,110.57 254.59,110.55 256.12,110.50 257.65,110.48 259.18,110.48 260.71,110.48 262.23,110.31 263.76,110.15 265.29,110.10 266.82,110.05 268.34,110.00 269.87,109.46 271.40,109.08 272.93,108.52 274.46,108.16 275.98,107.90 277.51,107.79 279.04,107.64 280.57,107.62 282.10,107.50 283.62,107.15 285.15,107.15 286.68,107.15 288.21,107.12 289.73,107.10 291.26,107.10 292.79,106.91 294.32,106.86 295.85,106.84 297.37,106.82 298.90,106.77 300.43,106.77 301.96,106.77 303.49,106.77 305.01,106.77 306.54,106.77 308.07,106.77 309.60,106.77 311.12,106.70 312.65,106.63 314.18,106.63 315.71,106.20 317.24,106.18 318.76,106.16 320.29,106.09 321.82,105.87 323.35,105.35 324.88,105.26 326.40,105.26 327.93,105.26 329.46,105.26 330.99,105.26 332.51,105.26 334.04,105.26 335.57,105.26 337.10,105.26 338.63,105.26 340.15,105.26 341.68,105.26 343.21,105.26 344.74,105.24 346.27,105.09 347.79,105.07 349.32,105.07 350.85,105.07 352.38,105.07 353.90,104.98 355.43,104.98 356.96,104.60 358.49,104.24 360.02,104.24 361.54,104.24 363.07,104.24 364.60,104.24 366.13,104.20 367.66,104.20 369.18,104.15 370.71,103.98 372.24,103.84 373.77,103.21 375.29,103.18 376.82,102.21 378.35,101.65 379.88,101.22 381.41,99.88 382.93,99.66 384.46,99.62 385.99,99.62 387.52,99.62 389.05,99.62 390.57,99.57 392.10,99.45 393.63,99.45 395.16,99.45 396.68,99.45 398.21,99.45 399.74,99.45 401.27,99.41 402.80,99.36 404.32,99.36 405.85,99.36 407.38,99.31 408.91,99.31 410.44,99.12 411.96,99.03 413.49,99.03 415.02,99.03 416.55,99.03 418.07,99.03 419.60,99.03 421.13,99.03 422.66,98.51 424.19,97.97 425.71,97.52 427.24,96.90 428.77,96.19 430.30,94.52 431.82,93.48 433.35,92.75 434.88,91.54 436.41,90.60 437.94,88.99 439.46,86.68 440.99,86.00 442.52,85.00 444.05,84.15 445.58,83.87 447.10,82.79 448.63,82.60 450.16,81.30 451.69,80.12 453.21,79.41 454.74,78.58 456.27,77.45 457.80,77.12 459.33,76.95 460.85,76.79 462.38,76.65 463.91,75.75 465.44,74.74 466.97,73.13 468.49,72.66 470.02,71.83 471.55,70.49 473.08,67.49 474.60,65.22 476.13,62.70 477.66,62.15 479.19,61.04 480.72,58.80 482.24,57.43 483.77,56.68 485.30,55.54 486.83,54.95 488.36,54.13 489.88,53.75 491.41,52.47 492.94,50.56 494.47,48.74 495.99,48.20 497.52,47.26 499.05,45.56 500.58,44.28 502.11,42.39 503.63,41.43 505.16,39.49 506.69,36.92 508.22,34.72 509.75,30.07" />
    </svg>
  