
    <svg width="540" height="160" xmlns="http://www.w3.org/2000/svg">
      <style>.line{fill:none;stroke:#388bfd;stroke-width:1.5}.axis{stroke:#555;stroke-width:1;opacity:0.5}.label{fill:#999;font-family:sans-serif;font-size:10px;text-anchor:middle}</style>
      <line class="axis" x1="30" y1="30" x2="30" y2="130" />
      <line class="axis" x1="30" y1="130" x2="510" y2="130" />
      <text class="label" x="15" y="30">8,635</text>
      <text class="label" x="15" y="134">0</text>
      <text class="label" x="30" y="148">2021</text>
      <text class="label" x="510" y="148">2026</text>
      <polyline class="line" points="30.00,129.98 31.46,129.97 32.93,129.95 34.39,129.95 35.86,129.95 37.32,129.80 38.79,129.80 40.25,129.80 41.72,128.97 43.18,127.59 44.65,127.52 46.11,127.52 47.58,127.52 49.04,127.52 50.51,127.52 51.97,127.52 53.44,127.52 54.90,127.52 56.37,127.52 57.83,127.52 59.30,127.52 60.76,127.52 62.23,127.52 63.69,127.52 65.16,127.52 66.62,127.52 68.09,127.52 69.55,126.73 71.02,126.73 72.48,126.72 73.95,126.72 75.41,126.72 76.88,126.72 78.34,126.68 79.81,126.68 81.27,126.68 82.74,126.68 84.20,126.68 85.67,126.68 87.13,126.68 88.60,126.68 90.06,126.68 91.53,126.68 92.99,126.68 94.46,126.68 95.92,126.68 97.39,126.68 98.85,126.68 100.32,126.68 101.78,126.68 103.25,126.68 104.71,126.63 106.17,125.92 107.64,125.28 109.10,125.01 110.57,123.72 112.03,123.72 113.50,123.72 114.96,123.72 116.43,123.72 117.89,123.72 119.36,123.72 120.82,123.72 122.29,123.72 123.75,123.72 125.22,123.72 126.68,123.72 128.15,123.63 129.61,123.63 131.08,123.63 132.54,123.51 134.01,123.51 135.47,123.51 136.94,123.51 138.40,123.48 139.87,123.48 141.33,123.48 142.80,123.48 144.26,123.46 145.73,123.46 147.19,123.46 148.66,123.46 150.12,123.46 151.59,123.46 153.05,123.46 154.52,123.46 155.98,123.46 157.45,123.46 158.91,123.46 160.38,123.46 161.84,123.46 163.31,123.46 164.77,123.46 166.24,123.46 167.70,123.46 169.17,123.46 170.63,123.46 172.10,123.46 173.56,123.46 175.03,123.46 176.49,123.46 177.96,123.42 179.42,123.42 180.89,123.42 182.35,123.42 183.81,123.42 185.28,123.42 186.74,123.42 188.21,123.42 189.67,123.42 191.14,123.42 192.60,123.42 194.07,123.42 195.53,123.42 197.00,123.42 198.46,123.42 199.93,123.40 201.39,123.10 202.86,123.02 204.32,122.89 205.79,122.73 207.25,122.68 208.72,122.68 210.18,122.68 211.65,122.43 213.11,122.40 214.58,122.24 216.04,122.18 217.51,122.08 218.97,121.67 220.44,121.65 221.90,121.59 223.37,121.58 224.83,121.52 226.30,121.52 227.76,121.50 229.23,121.50 230.69,121.50 232.16,121.50 233.62,121.50 235.09,121.50 236.55,121.50 238.02,121.37 239.48,121.00 240.95,120.72 242.41,120.64 243.88,120.47 245.34,120.46 246.81,120.43 248.27,120.42 249.74,120.42 251.20,120.42 252.67,120.34 254.13,120.26 255.60,120.24 257.06,120.21 258.52,120.19 259.99,119.92 261.45,119.74 262.92,119.46 264.38,119.29 265.85,119.16 267.31,119.10 268.78,119.03 270.24,119.02 271.71,118.96 273.17,118.79 274.64,118.79 276.10,118.79 277.57,118.78 279.03,118.77 280.50,118.77 281.96,118.67 283.43,118.65 284.89,118.64 286.36,118.63 287.82,118.60 289.29,118.60 290.75,118.60 292.22,118.60 293.68,118.60 295.15,118.60 296.61,118.60 298.08,118.60 299.54,118.57 301.01,118.54 302.47,118.54 303.94,118.33 305.40,118.31 306.87,118.30 308.33,118.27 309.80,118.16 311.26,117.91 312.73,117.86 314.19,117.86 315.66,117.86 317.12,117.86 318.59,117.86 320.05,117.86 321.52,117.86 322.98,117.86 324.45,117.86 325.91,117.86 327.38,117.86 328.84,117.86 330.31,117.86 331.77,117.85 333.23,117.78 334.70,117.77 336.16,117.77 337.63,117.77 339.09,117.77 340.56,117.72 342.02,117.72 343.49,117.54 344.95,117.37 346.42,117.37 347.88,117.37 349.35,117.37 350.81,117.37 352.28,117.34 353.74,117.34 355.21,117.32 356.67,117.24 358.14,117.17 359.60,116.86 361.07,116.84 362.53,116.37 364.00,116.09 365.46,115.88 366.93,115.22 368.39,115.05 369.86,114.98 371.32,114.76 372.79,114.42 374.25,114.34 375.72,114.23 377.18,114.04 378.65,113.88 380.11,113.81 381.58,113.69 383.04,113.61 384.51,113.40 385.97,113.22 387.44,113.00 388.90,112.64 390.37,112.43 391.83,111.40 393.30,110.63 394.76,110.13 396.23,109.70 397.69,109.22 399.16,109.22 400.62,109.22 402.09,109.22 403.55,108.92 405.02,108.75 406.48,108.12 407.95,107.42 409.41,106.60 410.87,105.36 412.34,104.49 413.80,102.70 415.27,101.63 416.73,100.91 418.20,99.75 419.66,99.01 421.13,97.54 422.59,95.32 424.06,94.64 425.52,93.78 426.99,92.94 428.45,92.66 429.92,91.60 431.38,91.41 432.85,90.14 434.31,88.98 435.78,88.29 437.24,87.50 438.71,86.46 440.17,86.18 441.64,86.09 443.10,85.97 444.57,85.90 446.03,85.24 447.50,84.38 448.96,83.34 450.43,83.05 451.89,82.21 453.36,81.12 454.82,78.95 456.29,77.35 457.75,75.39 459.22,74.86 460.68,73.82 462.15,71.89 463.61,70.79 465.08,70.19 466.54,69.34 468.01,68.78 469.47,67.98 470.94,67.61 472.40,66.80 473.87,65.26 475.33,63.56 476.80,63.04 478.26,62.08 479.73,60.32 481.19,59.42 482.66,57.23 484.12,56.18 485.58,54.28 487.05,52.43 488.51,50.20 489.98,46.84 491.44,44.61 492.91,42.70 494.37,41.48 495.84,39.89 497.30,38.47 498.77,37.77 500.23,36.61 501.70,35.21 503.16,34.67 504.63,33.64 506.09,32.76 507.56,31.89 509.02,30.76" />
    </svg>
  