
    <svg width="540" height="160" xmlns="http://www.w3.org/2000/svg">
      <style>.line{fill:none;stroke:#388bfd;stroke-width:1.5}.axis{stroke:#555;stroke-width:1;opacity:0.5}.label{fill:#999;font-family:sans-serif;font-size:10px;text-anchor:middle}</style>
      <line class="axis" x1="30" y1="30" x2="30" y2="130" />
      <line class="axis" x1="30" y1="130" x2="510" y2="130" />
      <text class="label" x="15" y="30">7,792</text>
      <text class="label" x="15" y="134">0</text>
      <text class="label" x="30" y="148">2021</text>
      <text class="label" x="510" y="148">2026</text>
      <polyline class="line" points="30.00,129.97 31.49,129.96 32.99,129.95 34.48,129.95 35.97,129.95 37.47,129.78 38.96,129.78 40.45,129.78 41.94,128.86 43.44,127.33 44.93,127.25 46.42,127.25 47.92,127.25 49.41,127.25 50.90,127.25 52.40,127.25 53.89,127.25 55.38,127.25 56.87,127.25 58.37,127.25 59.86,127.25 61.35,127.25 62.85,127.25 64.34,127.25 65.83,127.25 67.33,127.25 68.82,127.25 70.31,126.38 71.80,126.38 73.30,126.37 74.79,126.37 76.28,126.37 77.78,126.37 79.27,126.32 80.76,126.32 82.26,126.32 83.75,126.32 85.24,126.32 86.73,126.32 88.23,126.32 89.72,126.32 91.21,126.32 92.71,126.32 94.20,126.32 95.69,126.32 97.19,126.32 98.68,126.32 100.17,126.32 101.66,126.32 103.16,126.32 104.65,126.32 106.14,126.27 107.64,125.48 109.13,124.76 110.62,124.47 112.12,123.04 113.61,123.04 115.10,123.04 116.59,123.04 118.09,123.04 119.58,123.04 121.07,123.04 122.57,123.04 124.06,123.04 125.55,123.04 127.05,123.04 128.54,123.04 130.03,122.94 131.52,122.94 133.02,122.94 134.51,122.81 136.00,122.81 137.50,122.81 138.99,122.81 140.48,122.77 141.98,122.77 143.47,122.77 144.96,122.77 146.45,122.75 147.95,122.75 149.44,122.75 150.93,122.75 152.43,122.75 153.92,122.75 155.41,122.75 156.91,122.75 158.40,122.75 159.89,122.75 161.38,122.75 162.88,122.75 164.37,122.75 165.86,122.75 167.36,122.75 168.85,122.75 170.34,122.75 171.84,122.75 173.33,122.75 174.82,122.75 176.31,122.75 177.81,122.75 179.30,122.75 180.79,122.71 182.29,122.71 183.78,122.71 185.27,122.71 186.77,122.71 188.26,122.71 189.75,122.71 191.24,122.71 192.74,122.71 194.23,122.71 195.72,122.71 197.22,122.71 198.71,122.71 200.20,122.71 201.70,122.71 203.19,122.68 204.68,122.35 206.17,122.26 207.67,122.12 209.16,121.94 210.65,121.89 212.15,121.89 213.64,121.89 215.13,121.61 216.63,121.58 218.12,121.40 219.61,121.34 221.10,121.22 222.60,120.77 224.09,120.75 225.58,120.68 227.08,120.67 228.57,120.61 230.06,120.61 231.56,120.58 233.05,120.58 234.54,120.58 236.03,120.58 237.53,120.58 239.02,120.58 240.51,120.58 242.01,120.44 243.50,120.03 244.99,119.72 246.49,119.63 247.98,119.44 249.47,119.43 250.96,119.40 252.46,119.39 253.95,119.39 255.44,119.39 256.94,119.30 258.43,119.21 259.92,119.18 261.42,119.16 262.91,119.13 264.40,118.83 265.89,118.63 267.39,118.32 268.88,118.13 270.37,117.99 271.87,117.92 273.36,117.85 274.85,117.83 276.35,117.77 277.84,117.58 279.33,117.58 280.82,117.58 282.32,117.56 283.81,117.55 285.30,117.55 286.80,117.45 288.29,117.42 289.78,117.41 291.28,117.40 292.77,117.37 294.26,117.37 295.75,117.37 297.25,117.37 298.74,117.37 300.23,117.37 301.73,117.37 303.22,117.37 304.71,117.33 306.21,117.29 307.70,117.29 309.19,117.06 310.68,117.05 312.18,117.04 313.67,117.00 315.16,116.88 316.66,116.60 318.15,116.55 319.64,116.55 321.14,116.55 322.63,116.55 324.12,116.55 325.61,116.55 327.11,116.55 328.60,116.55 330.09,116.55 331.59,116.55 333.08,116.55 334.57,116.55 336.07,116.55 337.56,116.54 339.05,116.46 340.54,116.45 342.04,116.45 343.53,116.45 345.02,116.45 346.52,116.40 348.01,116.40 349.50,116.19 351.00,116.00 352.49,116.00 353.98,116.00 355.47,116.00 356.97,116.00 358.46,115.97 359.95,115.97 361.45,115.95 362.94,115.86 364.43,115.78 365.93,115.43 367.42,115.42 368.91,114.89 370.40,114.59 371.90,114.36 373.39,113.62 374.88,113.43 376.38,113.35 377.87,113.11 379.36,112.74 380.86,112.65 382.35,112.52 383.84,112.32 385.33,112.14 386.83,112.06 388.32,111.93 389.81,111.84 391.31,111.61 392.80,111.40 394.29,111.16 395.79,110.76 397.28,110.53 398.77,109.39 400.26,108.53 401.76,107.98 403.25,107.50 404.74,106.98 406.24,106.98 407.73,106.98 409.22,106.98 410.72,106.64 412.21,106.45 413.70,105.76 415.19,104.97 416.69,104.06 418.18,102.69 419.67,101.73 421.17,99.75 422.66,98.56 424.15,97.76 425.65,96.48 427.14,95.66 428.63,94.03 430.12,91.56 431.62,90.82 433.11,89.86 434.60,88.93 436.10,88.62 437.59,87.44 439.08,87.24 440.58,85.83 442.07,84.54 443.56,83.77 445.05,82.90 446.55,81.75 448.04,81.44 449.53,81.33 451.03,81.21 452.52,81.13 454.01,80.40 455.51,79.45 457.00,78.29 458.49,77.97 459.98,77.04 461.48,75.83 462.97,73.43 464.46,71.66 465.96,69.48 467.45,68.90 468.94,67.74 470.44,65.60 471.93,64.38 473.42,63.71 474.91,62.78 476.41,62.16 477.90,61.28 479.39,60.86 480.89,59.97 482.38,58.26 483.87,56.37 485.37,55.80 486.86,54.82 488.35,53.25 489.84,52.33 491.34,50.46 492.83,49.47 494.32,47.54 495.82,45.59 497.31,43.54 498.80,40.06 500.30,37.94 501.79,35.92 503.28,34.79 504.77,33.12 506.27,31.69 507.76,31.21 509.25,30.42" />
    </svg>
  