
    <svg width="540" height="160" xmlns="http://www.w3.org/2000/svg">
      <style>.line{fill:none;stroke:#388bfd;stroke-width:1.5}.axis{stroke:#555;stroke-width:1;opacity:0.5}.label{fill:#999;font-family:sans-serif;font-size:10px;text-anchor:middle}</style>
      <line class="axis" x1="30" y1="30" x2="30" y2="130" />
      <line class="axis" x1="30" y1="130" x2="510" y2="130" />
      <text class="label" x="15" y="30">8,050</text>
      <text class="label" x="15" y="134">0</text>
      <text class="label" x="30" y="148">2021</text>
      <text class="label" x="510" y="148">2026</text>
      <polyline class="line" points="30.00,129.98 31.48,129.96 32.96,129.95 34.44,129.95 35.93,129.95 37.41,129.79 38.89,129.79 40.37,129.79 41.85,128.89 43.33,127.42 44.81,127.34 46.30,127.34 47.78,127.34 49.26,127.34 50.74,127.34 52.22,127.34 53.70,127.34 55.19,127.34 56.67,127.34 58.15,127.34 59.63,127.34 61.11,127.34 62.59,127.34 64.07,127.34 65.56,127.34 67.04,127.34 68.52,127.34 70.00,126.50 71.48,126.50 72.96,126.48 74.44,126.48 75.93,126.48 77.41,126.48 78.89,126.43 80.37,126.43 81.85,126.43 83.33,126.43 84.81,126.43 86.30,126.43 87.78,126.43 89.26,126.43 90.74,126.43 92.22,126.43 93.70,126.43 95.19,126.43 96.67,126.43 98.15,126.43 99.63,126.43 101.11,126.43 102.59,126.43 104.07,126.43 105.56,126.39 107.04,125.63 108.52,124.93 110.00,124.65 111.48,123.27 112.96,123.27 114.44,123.27 115.93,123.27 117.41,123.27 118.89,123.27 120.37,123.27 121.85,123.27 123.33,123.27 124.81,123.27 126.30,123.27 127.78,123.27 129.26,123.17 130.74,123.17 132.22,123.17 133.70,123.04 135.19,123.04 136.67,123.04 138.15,123.04 139.63,123.01 141.11,123.01 142.59,123.01 144.07,123.01 145.56,122.98 147.04,122.98 148.52,122.98 150.00,122.98 151.48,122.98 152.96,122.98 154.44,122.98 155.93,122.98 157.41,122.98 158.89,122.98 160.37,122.98 161.85,122.98 163.33,122.98 164.81,122.98 166.30,122.98 167.78,122.98 169.26,122.98 170.74,122.98 172.22,122.98 173.70,122.98 175.19,122.98 176.67,122.98 178.15,122.98 179.63,122.94 181.11,122.94 182.59,122.94 184.07,122.94 185.56,122.94 187.04,122.94 188.52,122.94 190.00,122.94 191.48,122.94 192.96,122.94 194.44,122.94 195.93,122.94 197.41,122.94 198.89,122.94 200.37,122.94 201.85,122.92 203.33,122.60 204.81,122.51 206.30,122.37 207.78,122.20 209.26,122.15 210.74,122.15 212.22,122.15 213.70,121.88 215.19,121.85 216.67,121.68 218.15,121.61 219.63,121.50 221.11,121.07 222.59,121.04 224.07,120.98 225.56,120.97 227.04,120.91 228.52,120.91 230.00,120.88 231.48,120.88 232.96,120.88 234.44,120.88 235.93,120.88 237.41,120.88 238.89,120.88 240.37,120.75 241.85,120.35 243.33,120.05 244.81,119.96 246.30,119.78 247.78,119.76 249.26,119.74 250.74,119.73 252.22,119.73 253.70,119.73 255.19,119.64 256.67,119.55 258.15,119.53 259.63,119.50 261.11,119.48 262.59,119.19 264.07,118.99 265.56,118.70 267.04,118.51 268.52,118.37 270.00,118.31 271.48,118.24 272.96,118.22 274.44,118.16 275.93,117.98 277.41,117.98 278.89,117.98 280.37,117.96 281.85,117.95 283.33,117.95 284.81,117.85 286.30,117.83 287.78,117.81 289.26,117.80 290.74,117.78 292.22,117.78 293.70,117.78 295.19,117.78 296.67,117.78 298.15,117.78 299.63,117.78 301.11,117.78 302.59,117.74 304.07,117.70 305.56,117.70 307.04,117.48 308.52,117.47 310.00,117.45 311.48,117.42 312.96,117.30 314.44,117.03 315.93,116.98 317.41,116.98 318.89,116.98 320.37,116.98 321.85,116.98 323.33,116.98 324.81,116.98 326.30,116.98 327.78,116.98 329.26,116.98 330.74,116.98 332.22,116.98 333.70,116.98 335.19,116.97 336.67,116.89 338.15,116.88 339.63,116.88 341.11,116.88 342.59,116.88 344.07,116.83 345.56,116.83 347.04,116.63 348.52,116.45 350.00,116.45 351.48,116.45 352.96,116.45 354.44,116.45 355.93,116.42 357.41,116.42 358.89,116.40 360.37,116.31 361.85,116.24 363.33,115.90 364.81,115.89 366.30,115.38 367.78,115.08 369.26,114.86 370.74,114.15 372.22,113.96 373.70,113.89 375.19,113.65 376.67,113.29 378.15,113.20 379.63,113.08 381.11,112.88 382.59,112.71 384.07,112.63 385.56,112.51 387.04,112.42 388.52,112.20 390.00,112.00 391.48,111.76 392.96,111.38 394.44,111.16 395.93,110.05 397.41,109.22 398.89,108.68 400.37,108.22 401.85,107.71 403.33,107.71 404.81,107.71 406.30,107.71 407.78,107.39 409.26,107.20 410.74,106.53 412.22,105.78 413.70,104.89 415.19,103.57 416.67,102.63 418.15,100.72 419.63,99.57 421.11,98.80 422.59,97.55 424.07,96.76 425.56,95.18 427.04,92.80 428.52,92.07 430.00,91.14 431.48,90.25 432.96,89.95 434.44,88.81 435.93,88.61 437.41,87.24 438.89,86.00 440.37,85.25 441.85,84.41 443.33,83.29 444.81,82.99 446.30,82.89 447.78,82.77 449.26,82.70 450.74,81.99 452.22,81.07 453.70,79.95 455.19,79.64 456.67,78.73 458.15,77.57 459.63,75.24 461.11,73.53 462.59,71.42 464.07,70.86 465.56,69.74 467.04,67.66 468.52,66.48 470.00,65.84 471.48,64.93 472.96,64.34 474.44,63.48 475.93,63.08 477.41,62.21 478.89,60.56 480.37,58.73 481.85,58.17 483.33,57.23 484.81,55.71 486.30,54.82 487.78,53.01 489.26,52.05 490.74,50.19 492.22,48.30 493.70,46.31 495.19,42.94 496.67,40.67 498.15,38.71 499.63,37.44 501.11,35.83 502.59,34.39 504.07,33.70 505.56,32.48 507.04,31.03 508.52,30.71 510.00,30.00" />
    </svg>
  