
    <svg width="540" height="160" xmlns="http://www.w3.org/2000/svg">
      <style>.line{fill:none;stroke:#388bfd;stroke-width:1.5}.axis{stroke:#555;stroke-width:1;opacity:0.5}.label{fill:#999;font-family:sans-serif;font-size:10px;text-anchor:middle}</style>
      <line class="axis" x1="30" y1="30" x2="30" y2="130" />
      <line class="axis" x1="30" y1="130" x2="510" y2="130" />
      <text class="label" x="15" y="30">5,165</text>
      <text class="label" x="15" y="134">0</text>
      <text class="label" x="30" y="148">2021</text>
      <text class="label" x="510" y="148">2026</text>
      <polyline class="line" points="30.00,129.96 31.52,129.94 33.03,129.92 34.55,129.92 36.07,129.92 37.59,129.67 39.10,129.67 40.62,129.67 42.14,128.28 43.66,125.97 45.17,125.86 46.69,125.86 48.21,125.86 49.73,125.86 51.24,125.86 52.76,125.86 54.28,125.86 55.80,125.86 57.31,125.86 58.83,125.86 60.35,125.86 61.87,125.86 63.38,125.86 64.90,125.86 66.42,125.86 67.93,125.86 69.45,125.86 70.97,124.54 72.49,124.54 74.00,124.52 75.52,124.52 77.04,124.52 78.56,124.52 80.07,124.44 81.59,124.44 83.11,124.44 84.63,124.44 86.14,124.44 87.66,124.44 89.18,124.44 90.70,124.44 92.21,124.44 93.73,124.44 95.25,124.44 96.77,124.44 98.28,124.44 99.80,124.44 101.32,124.44 102.83,124.44 104.35,124.44 105.87,124.44 107.39,124.37 108.90,123.18 110.42,122.10 111.94,121.66 113.46,119.51 114.97,119.51 116.49,119.51 118.01,119.51 119.53,119.51 121.04,119.51 122.56,119.51 124.08,119.51 125.60,119.51 127.11,119.51 128.63,119.51 130.15,119.51 131.66,119.35 133.18,119.35 134.70,119.35 136.22,119.16 137.73,119.16 139.25,119.16 140.77,119.16 142.29,119.10 143.80,119.10 145.32,119.10 146.84,119.10 148.36,119.06 149.87,119.06 151.39,119.06 152.91,119.06 154.43,119.06 155.94,119.06 157.46,119.06 158.98,119.06 160.50,119.06 162.01,119.06 163.53,119.06 165.05,119.06 166.56,119.06 168.08,119.06 169.60,119.06 171.12,119.06 172.63,119.06 174.15,119.06 175.67,119.06 177.19,119.06 178.70,119.06 180.22,119.06 181.74,119.06 183.26,119.00 184.77,119.00 186.29,119.00 187.81,119.00 189.33,119.00 190.84,119.00 192.36,119.00 193.88,119.00 195.40,119.00 196.91,119.00 198.43,119.00 199.95,119.00 201.46,119.00 202.98,119.00 204.50,119.00 206.02,118.96 207.53,118.46 209.05,118.33 210.57,118.11 212.09,117.84 213.60,117.76 215.12,117.76 216.64,117.76 218.16,117.34 219.67,117.30 221.19,117.03 222.71,116.93 224.23,116.76 225.74,116.08 227.26,116.04 228.78,115.94 230.30,115.92 231.81,115.83 233.33,115.83 234.85,115.79 236.36,115.79 237.88,115.79 239.40,115.79 240.92,115.79 242.43,115.79 243.95,115.79 245.47,115.58 246.99,114.96 248.50,114.49 250.02,114.36 251.54,114.07 253.06,114.05 254.57,114.01 256.09,113.99 257.61,113.99 259.13,113.99 260.64,113.85 262.16,113.72 263.68,113.68 265.19,113.64 266.71,113.60 268.23,113.16 269.75,112.85 271.26,112.38 272.78,112.09 274.30,111.88 275.82,111.78 277.33,111.67 278.85,111.65 280.37,111.55 281.89,111.26 283.40,111.26 284.92,111.26 286.44,111.24 287.96,111.22 289.47,111.22 290.99,111.06 292.51,111.03 294.03,111.01 295.54,110.99 297.06,110.95 298.58,110.95 300.09,110.95 301.61,110.95 303.13,110.95 304.65,110.95 306.16,110.95 307.68,110.95 309.20,110.89 310.72,110.83 312.23,110.83 313.75,110.48 315.27,110.46 316.79,110.45 318.30,110.39 319.82,110.21 321.34,109.79 322.86,109.71 324.37,109.71 325.89,109.71 327.41,109.71 328.93,109.71 330.44,109.71 331.96,109.71 333.48,109.71 334.99,109.71 336.51,109.71 338.03,109.71 339.55,109.71 341.06,109.71 342.58,109.69 344.10,109.57 345.62,109.55 347.13,109.55 348.65,109.55 350.17,109.55 351.69,109.48 353.20,109.48 354.72,109.17 356.24,108.88 357.76,108.88 359.27,108.88 360.79,108.88 362.31,108.88 363.83,108.84 365.34,108.84 366.86,108.80 368.38,108.66 369.89,108.55 371.41,108.03 372.93,108.01 374.45,107.21 375.96,106.75 377.48,106.40 379.00,105.30 380.52,105.00 382.03,104.89 383.55,104.52 385.07,103.96 386.59,103.82 388.10,103.63 389.62,103.32 391.14,103.05 392.66,102.93 394.17,102.74 395.69,102.60 397.21,102.26 398.72,101.95 400.24,101.58 401.76,100.98 403.28,100.63 404.79,98.91 406.31,97.61 407.83,96.78 409.35,96.06 410.86,95.27 412.38,95.27 413.90,95.27 415.42,95.27 416.93,94.76 418.45,94.47 419.97,93.83 421.49,93.10 423.00,92.09 424.52,90.50 426.04,89.61 427.56,87.99 429.07,87.04 430.59,86.44 432.11,85.45 433.62,84.68 435.14,83.36 436.66,81.44 438.18,80.88 439.69,80.07 441.21,79.37 442.73,79.14 444.25,78.25 445.76,78.09 447.28,77.03 448.80,76.06 450.32,75.48 451.83,74.80 453.35,73.87 454.87,73.60 456.39,73.47 457.90,73.33 459.42,73.21 460.94,72.48 462.46,71.65 463.97,70.33 465.49,69.94 467.01,69.26 468.52,68.16 470.04,65.70 471.56,63.84 473.08,61.77 474.59,61.33 476.11,60.42 477.63,58.58 479.15,57.45 480.66,56.83 482.18,55.91 483.70,55.42 485.22,54.74 486.73,54.43 488.25,53.39 489.77,51.82 491.29,50.33 492.80,49.88 494.32,49.11 495.84,47.72 497.36,46.67 498.87,45.12 500.39,44.33 501.91,42.74 503.42,40.63 504.94,38.83 506.46,35.01 507.98,32.32 509.49,30.46" />
    </svg>
  