
    <svg width="540" height="160" xmlns="http://www.w3.org/2000/svg">
      <style>.line{fill:none;stroke:#388bfd;stroke-width:1.5}.axis{stroke:#555;stroke-width:1;opacity:0.5}.label{fill:#999;font-family:sans-serif;font-size:10px;text-anchor:middle}</style>
      <line class="axis" x1="30" y1="30" x2="30" y2="130" />
      <line class="axis" x1="30" y1="130" x2="510" y2="130" />
      <text class="label" x="15" y="30">4,150</text>
      <text class="label" x="15" y="134">0</text>
      <text class="label" x="30" y="148">2021</text>
      <text class="label" x="510" y="148">2026</text>
      <polyline class="line" points="30.00,129.95 31.53,129.93 33.06,129.90 34.59,129.90 36.12,129.90 37.65,129.59 39.18,129.59 40.71,129.59 42.24,127.86 43.77,124.99 45.30,124.84 46.83,124.84 48.36,124.84 49.89,124.84 51.42,124.84 52.95,124.84 54.48,124.84 56.01,124.84 57.55,124.84 59.08,124.84 60.61,124.84 62.14,124.84 63.67,124.84 65.20,124.84 66.73,124.84 68.26,124.84 69.79,124.84 71.32,123.20 72.85,123.20 74.38,123.18 75.91,123.18 77.44,123.18 78.97,123.18 80.50,123.08 82.03,123.08 83.56,123.08 85.09,123.08 86.62,123.08 88.15,123.08 89.68,123.08 91.21,123.08 92.74,123.08 94.27,123.08 95.80,123.08 97.33,123.08 98.86,123.08 100.39,123.08 101.92,123.08 103.45,123.08 104.98,123.08 106.51,123.08 108.04,122.99 109.57,121.52 111.11,120.17 112.64,119.61 114.17,116.94 115.70,116.94 117.23,116.94 118.76,116.94 120.29,116.94 121.82,116.94 123.35,116.94 124.88,116.94 126.41,116.94 127.94,116.94 129.47,116.94 131.00,116.94 132.53,116.75 134.06,116.75 135.59,116.75 137.12,116.51 138.65,116.51 140.18,116.51 141.71,116.51 143.24,116.43 144.77,116.43 146.30,116.43 147.83,116.43 149.36,116.39 150.89,116.39 152.42,116.39 153.95,116.39 155.48,116.39 157.01,116.39 158.54,116.39 160.07,116.39 161.60,116.39 163.13,116.39 164.67,116.39 166.20,116.39 167.73,116.39 169.26,116.39 170.79,116.39 172.32,116.39 173.85,116.39 175.38,116.39 176.91,116.39 178.44,116.39 179.97,116.39 181.50,116.39 183.03,116.39 184.56,116.31 186.09,116.31 187.62,116.31 189.15,116.31 190.68,116.31 192.21,116.31 193.74,116.31 195.27,116.31 196.80,116.31 198.33,116.31 199.86,116.31 201.39,116.31 202.92,116.31 204.45,116.31 205.98,116.31 207.51,116.27 209.04,115.64 210.57,115.47 212.10,115.20 213.63,114.87 215.16,114.77 216.70,114.77 218.23,114.77 219.76,114.24 221.29,114.19 222.82,113.86 224.35,113.73 225.88,113.52 227.41,112.67 228.94,112.63 230.47,112.51 232.00,112.48 233.53,112.36 235.06,112.36 236.59,112.31 238.12,112.31 239.65,112.31 241.18,112.31 242.71,112.31 244.24,112.31 245.77,112.31 247.30,112.05 248.83,111.28 250.36,110.70 251.89,110.53 253.42,110.17 254.95,110.14 256.48,110.10 258.01,110.07 259.54,110.07 261.07,110.07 262.60,109.90 264.13,109.73 265.66,109.69 267.19,109.64 268.72,109.59 270.26,109.04 271.79,108.65 273.32,108.07 274.85,107.71 276.38,107.45 277.91,107.33 279.44,107.18 280.97,107.16 282.50,107.04 284.03,106.67 285.56,106.67 287.09,106.67 288.62,106.65 290.15,106.63 291.68,106.63 293.21,106.43 294.74,106.39 296.27,106.36 297.80,106.34 299.33,106.29 300.86,106.29 302.39,106.29 303.92,106.29 305.45,106.29 306.98,106.29 308.51,106.29 310.04,106.29 311.57,106.22 313.10,106.14 314.63,106.14 316.16,105.71 317.69,105.69 319.22,105.66 320.75,105.59 322.28,105.37 323.82,104.84 325.35,104.75 326.88,104.75 328.41,104.75 329.94,104.75 331.47,104.75 333.00,104.75 334.53,104.75 336.06,104.75 337.59,104.75 339.12,104.75 340.65,104.75 342.18,104.75 343.71,104.75 345.24,104.72 346.77,104.58 348.30,104.55 349.83,104.55 351.36,104.55 352.89,104.55 354.42,104.46 355.95,104.46 357.48,104.07 359.01,103.71 360.54,103.71 362.07,103.71 363.60,103.71 365.13,103.71 366.66,103.66 368.19,103.66 369.72,103.61 371.25,103.45 372.78,103.30 374.31,102.65 375.84,102.63 377.38,101.64 378.91,101.06 380.44,100.63 381.97,99.25 383.50,99.04 385.03,98.99 386.56,98.99 388.09,98.99 389.62,98.99 391.15,98.94 392.68,98.82 394.21,98.82 395.74,98.82 397.27,98.82 398.80,98.82 400.33,98.82 401.86,98.77 403.39,98.72 404.92,98.72 406.45,98.72 407.98,98.67 409.51,98.67 411.04,98.48 412.57,98.39 414.10,98.39 415.63,98.39 417.16,98.39 418.69,98.39 420.22,98.39 421.75,98.39 423.28,97.86 424.81,97.30 426.34,96.84 427.87,96.22 429.40,95.49 430.94,93.78 432.47,92.72 434.00,91.98 435.53,90.75 437.06,89.78 438.59,88.14 440.12,85.78 441.65,85.08 443.18,84.07 444.71,83.20 446.24,82.92 447.77,81.81 449.30,81.61 450.83,80.29 452.36,79.08 453.89,78.36 455.42,77.52 456.95,76.36 458.48,76.02 460.01,75.86 461.54,75.69 463.07,75.54 464.60,74.63 466.13,73.59 467.66,71.95 469.19,71.47 470.72,70.63 472.25,69.25 473.78,66.19 475.31,63.88 476.84,61.30 478.37,60.75 479.90,59.61 481.43,57.33 482.96,55.93 484.50,55.16 486.03,54.00 487.56,53.40 489.09,52.55 490.62,52.17 492.15,50.87 493.68,48.92 495.21,47.06 496.74,46.51 498.27,45.54 499.80,43.81 501.33,42.51 502.86,40.58 504.39,39.59 505.92,37.61 507.45,34.99 508.98,32.75" />
    </svg>
  