
    <svg width="540" height="160" xmlns="http://www.w3.org/2000/svg">
      <style>.line{fill:none;stroke:#388bfd;stroke-width:1.5}.axis{stroke:#555;stroke-width:1;opacity:0.5}.label{fill:#999;font-family:sans-serif;font-size:10px;text-anchor:middle}</style>
      <line class="axis" x1="30" y1="30" x2="30" y2="130" />
      <line class="axis" x1="30" y1="130" x2="510" y2="130" />
      <text class="label" x="15" y="30">8,384</text>
      <text class="label" x="15" y="134">0</text>
      <text class="label" x="30" y="148">2021</text>
      <text class="label" x="510" y="148">2026</text>
      <polyline class="line" points="30.00,129.98 31.48,129.96 32.95,129.95 34.43,129.95 35.91,129.95 37.38,129.80 38.86,129.80 40.34,129.80 41.82,128.94 43.29,127.52 44.77,127.45 46.25,127.45 47.72,127.45 49.20,127.45 50.68,127.45 52.15,127.45 53.63,127.45 55.11,127.45 56.58,127.45 58.06,127.45 59.54,127.45 61.02,127.45 62.49,127.45 63.97,127.45 65.45,127.45 66.92,127.45 68.40,127.45 69.88,126.64 71.35,126.64 72.83,126.62 74.31,126.62 75.78,126.62 77.26,126.62 78.74,126.58 80.22,126.58 81.69,126.58 83.17,126.58 84.65,126.58 86.12,126.58 87.60,126.58 89.08,126.58 90.55,126.58 92.03,126.58 93.51,126.58 94.98,126.58 96.46,126.58 97.94,126.58 99.42,126.58 100.89,126.58 102.37,126.58 103.85,126.58 105.32,126.53 106.80,125.80 108.28,125.13 109.75,124.86 111.23,123.54 112.71,123.54 114.18,123.54 115.66,123.54 117.14,123.54 118.62,123.54 120.09,123.54 121.57,123.54 123.05,123.54 124.52,123.54 126.00,123.54 127.48,123.54 128.95,123.44 130.43,123.44 131.91,123.44 133.38,123.32 134.86,123.32 136.34,123.32 137.82,123.32 139.29,123.28 140.77,123.28 142.25,123.28 143.72,123.28 145.20,123.26 146.68,123.26 148.15,123.26 149.63,123.26 151.11,123.26 152.58,123.26 154.06,123.26 155.54,123.26 157.02,123.26 158.49,123.26 159.97,123.26 161.45,123.26 162.92,123.26 164.40,123.26 165.88,123.26 167.35,123.26 168.83,123.26 170.31,123.26 171.78,123.26 173.26,123.26 174.74,123.26 176.22,123.26 177.69,123.26 179.17,123.23 180.65,123.23 182.12,123.23 183.60,123.23 185.08,123.23 186.55,123.23 188.03,123.23 189.51,123.23 190.98,123.23 192.46,123.23 193.94,123.23 195.42,123.23 196.89,123.23 198.37,123.23 199.85,123.23 201.32,123.20 202.80,122.89 204.28,122.81 205.75,122.68 207.23,122.51 208.71,122.46 210.18,122.46 211.66,122.46 213.14,122.20 214.62,122.18 216.09,122.01 217.57,121.95 219.05,121.84 220.52,121.42 222.00,121.40 223.48,121.34 224.95,121.33 226.43,121.27 227.91,121.27 229.38,121.25 230.86,121.25 232.34,121.25 233.82,121.25 235.29,121.25 236.77,121.25 238.25,121.25 239.72,121.11 241.20,120.73 242.68,120.45 244.15,120.36 245.63,120.18 247.11,120.17 248.58,120.15 250.06,120.14 251.54,120.14 253.02,120.14 254.49,120.05 255.97,119.97 257.45,119.95 258.92,119.92 260.40,119.90 261.88,119.62 263.35,119.43 264.83,119.15 266.31,118.97 267.78,118.84 269.26,118.78 270.74,118.70 272.22,118.69 273.69,118.63 275.17,118.45 276.65,118.45 278.12,118.45 279.60,118.44 281.08,118.43 282.55,118.43 284.03,118.33 285.51,118.31 286.98,118.30 288.46,118.29 289.94,118.26 291.42,118.26 292.89,118.26 294.37,118.26 295.85,118.26 297.32,118.26 298.80,118.26 300.28,118.26 301.75,118.23 303.23,118.19 304.71,118.19 306.18,117.98 307.66,117.97 309.14,117.95 310.62,117.92 312.09,117.81 313.57,117.55 315.05,117.50 316.52,117.50 318.00,117.50 319.48,117.50 320.95,117.50 322.43,117.50 323.91,117.50 325.38,117.50 326.86,117.50 328.34,117.50 329.82,117.50 331.29,117.50 332.77,117.50 334.25,117.49 335.72,117.42 337.20,117.40 338.68,117.40 340.15,117.40 341.63,117.40 343.11,117.36 344.58,117.36 346.06,117.17 347.54,116.99 349.02,116.99 350.49,116.99 351.97,116.99 353.45,116.99 354.92,116.96 356.40,116.96 357.88,116.94 359.35,116.86 360.83,116.78 362.31,116.46 363.78,116.45 365.26,115.96 366.74,115.68 368.22,115.46 369.69,114.78 371.17,114.60 372.65,114.53 374.12,114.30 375.60,113.96 377.08,113.87 378.55,113.75 380.03,113.56 381.51,113.40 382.98,113.33 384.46,113.21 385.94,113.12 387.42,112.91 388.89,112.72 390.37,112.49 391.85,112.12 393.32,111.91 394.80,110.84 396.28,110.05 397.75,109.53 399.23,109.09 400.71,108.60 402.18,108.60 403.66,108.60 405.14,108.60 406.62,108.29 408.09,108.11 409.57,107.47 411.05,106.74 412.52,105.89 414.00,104.62 415.48,103.72 416.95,101.89 418.43,100.78 419.91,100.04 421.38,98.85 422.86,98.08 424.34,96.57 425.82,94.28 427.29,93.59 428.77,92.69 430.25,91.83 431.72,91.55 433.20,90.45 434.68,90.26 436.15,88.95 437.63,87.75 439.11,87.04 440.58,86.23 442.06,85.15 443.54,84.87 445.02,84.77 446.49,84.65 447.97,84.58 449.45,83.90 450.92,83.02 452.40,81.94 453.88,81.65 455.35,80.78 456.83,79.65 458.31,77.42 459.78,75.78 461.26,73.75 462.74,73.21 464.22,72.14 465.69,70.15 467.17,69.01 468.65,68.39 470.12,67.52 471.60,66.95 473.08,66.13 474.55,65.75 476.03,64.91 477.51,63.33 478.98,61.57 480.46,61.04 481.94,60.05 483.42,58.23 484.89,57.30 486.37,55.05 487.85,53.97 489.32,52.02 490.80,50.11 492.28,47.81 493.75,44.35 495.23,42.06 496.71,40.09 498.18,38.83 499.66,37.19 501.14,35.73 502.62,35.01 504.09,33.82 505.57,32.37 507.05,31.81 508.52,30.75 510.00,30.00" />
    </svg>
  