
    <svg width="540" height="160" xmlns="http://www.w3.org/2000/svg">
      <style>.line{fill:none;stroke:#388bfd;stroke-width:1.5}.axis{stroke:#555;stroke-width:1;opacity:0.5}.label{fill:#999;font-family:sans-serif;font-size:10px;text-anchor:middle}</style>
      <line class="axis" x1="30" y1="30" x2="30" y2="130" />
      <line class="axis" x1="30" y1="130" x2="510" y2="130" />
      <text class="label" x="15" y="30">5,250</text>
      <text class="label" x="15" y="134">0</text>
      <text class="label" x="30" y="148">2021</text>
      <text class="label" x="510" y="148">2026</text>
      <polyline class="line" points="30.00,129.96 31.51,129.94 33.02,129.92 34.53,129.92 36.04,129.92 37.56,129.68 39.07,129.68 40.58,129.68 42.09,128.30 43.60,126.04 45.11,125.92 46.62,125.92 48.13,125.92 49.64,125.92 51.15,125.92 52.67,125.92 54.18,125.92 55.69,125.92 57.20,125.92 58.71,125.92 60.22,125.92 61.73,125.92 63.24,125.92 64.75,125.92 66.26,125.92 67.78,125.92 69.29,125.92 70.80,124.63 72.31,124.63 73.82,124.61 75.33,124.61 76.84,124.61 78.35,124.61 79.86,124.53 81.37,124.53 82.89,124.53 84.40,124.53 85.91,124.53 87.42,124.53 88.93,124.53 90.44,124.53 91.95,124.53 93.46,124.53 94.97,124.53 96.48,124.53 98.00,124.53 99.51,124.53 101.02,124.53 102.53,124.53 104.04,124.53 105.55,124.53 107.06,124.46 108.57,123.30 110.08,122.23 111.59,121.79 113.11,119.68 114.62,119.68 116.13,119.68 117.64,119.68 119.15,119.68 120.66,119.68 122.17,119.68 123.68,119.68 125.19,119.68 126.71,119.68 128.22,119.68 129.73,119.68 131.24,119.52 132.75,119.52 134.26,119.52 135.77,119.33 137.28,119.33 138.79,119.33 140.30,119.33 141.82,119.28 143.33,119.28 144.84,119.28 146.35,119.28 147.86,119.24 149.37,119.24 150.88,119.24 152.39,119.24 153.90,119.24 155.41,119.24 156.93,119.24 158.44,119.24 159.95,119.24 161.46,119.24 162.97,119.24 164.48,119.24 165.99,119.24 167.50,119.24 169.01,119.24 170.52,119.24 172.04,119.24 173.55,119.24 175.06,119.24 176.57,119.24 178.08,119.24 179.59,119.24 181.10,119.24 182.61,119.18 184.12,119.18 185.63,119.18 187.15,119.18 188.66,119.18 190.17,119.18 191.68,119.18 193.19,119.18 194.70,119.18 196.21,119.18 197.72,119.18 199.23,119.18 200.75,119.18 202.26,119.18 203.77,119.18 205.28,119.14 206.79,118.65 208.30,118.51 209.81,118.30 211.32,118.04 212.83,117.96 214.34,117.96 215.86,117.96 217.37,117.54 218.88,117.50 220.39,117.24 221.90,117.14 223.41,116.97 224.92,116.30 226.43,116.27 227.94,116.17 229.45,116.15 230.97,116.06 232.48,116.06 233.99,116.02 235.50,116.02 237.01,116.02 238.52,116.02 240.03,116.02 241.54,116.02 243.05,116.02 244.56,115.81 246.08,115.20 247.59,114.74 249.10,114.61 250.61,114.32 252.12,114.30 253.63,114.27 255.14,114.25 256.65,114.25 258.16,114.25 259.67,114.11 261.19,113.98 262.70,113.94 264.21,113.90 265.72,113.87 267.23,113.43 268.74,113.12 270.25,112.67 271.76,112.38 273.27,112.17 274.78,112.08 276.30,111.96 277.81,111.94 279.32,111.85 280.83,111.56 282.34,111.56 283.85,111.56 285.36,111.54 286.87,111.52 288.38,111.52 289.90,111.37 291.41,111.33 292.92,111.31 294.43,111.30 295.94,111.26 297.45,111.26 298.96,111.26 300.47,111.26 301.98,111.26 303.49,111.26 305.01,111.26 306.52,111.26 308.03,111.20 309.54,111.14 311.05,111.14 312.56,110.80 314.07,110.78 315.58,110.76 317.09,110.70 318.60,110.53 320.12,110.11 321.63,110.04 323.14,110.04 324.65,110.04 326.16,110.04 327.67,110.04 329.18,110.04 330.69,110.04 332.20,110.04 333.71,110.04 335.23,110.04 336.74,110.04 338.25,110.04 339.76,110.04 341.27,110.02 342.78,109.90 344.29,109.89 345.80,109.89 347.31,109.89 348.82,109.89 350.34,109.81 351.85,109.81 353.36,109.50 354.87,109.22 356.38,109.22 357.89,109.22 359.40,109.22 360.91,109.22 362.42,109.18 363.93,109.18 365.45,109.14 366.96,109.01 368.47,108.90 369.98,108.38 371.49,108.36 373.00,107.58 374.51,107.12 376.02,106.78 377.53,105.70 379.05,105.41 380.56,105.30 382.07,104.93 383.58,104.38 385.09,104.25 386.60,104.06 388.11,103.75 389.62,103.49 391.13,103.37 392.64,103.18 394.16,103.05 395.67,102.70 397.18,102.40 398.69,102.04 400.20,101.45 401.71,101.10 403.22,99.41 404.73,98.13 406.24,97.31 407.75,96.61 409.27,95.83 410.78,95.83 412.29,95.83 413.80,95.83 415.31,95.33 416.82,95.05 418.33,94.42 419.84,93.70 421.35,92.70 422.86,91.14 424.38,90.27 425.89,88.67 427.40,87.73 428.91,87.14 430.42,86.17 431.93,85.41 433.44,84.11 434.95,82.23 436.46,81.68 437.97,80.88 439.49,80.19 441.00,79.96 442.51,79.09 444.02,78.93 445.53,77.89 447.04,76.93 448.55,76.36 450.06,75.70 451.57,74.78 453.08,74.51 454.60,74.38 456.11,74.25 457.62,74.13 459.13,73.41 460.64,72.59 462.15,71.30 463.66,70.91 465.17,70.25 466.68,69.16 468.20,66.74 469.71,64.91 471.22,62.88 472.73,62.44 474.24,61.54 475.75,59.73 477.26,58.63 478.77,58.02 480.28,57.10 481.79,56.63 483.31,55.96 484.82,55.66 486.33,54.63 487.84,53.09 489.35,51.62 490.86,51.18 492.37,50.42 493.88,49.05 495.39,48.02 496.90,46.50 498.42,45.71 499.93,44.15 501.44,42.08 502.95,40.30 504.46,36.55 505.97,33.90 507.48,32.02 508.99,30.72" />
    </svg>
  