
    <svg width="540" height="160" xmlns="http://www.w3.org/2000/svg">
      <style>.line{fill:none;stroke:#388bfd;stroke-width:1.5}.axis{stroke:#555;stroke-width:1;opacity:0.5}.label{fill:#999;font-family:sans-serif;font-size:10px;text-anchor:middle}</style>
      <line class="axis" x1="30" y1="30" x2="30" y2="130" />
      <line class="axis" x1="30" y1="130" x2="510" y2="130" />
      <text class="label" x="15" y="30">9,279</text>
      <text class="label" x="15" y="134">0</text>
      <text class="label" x="30" y="148">2021</text>
      <text class="label" x="510" y="148">2026</text>
      <polyline class="line" points="30.00,129.98 31.45,129.97 32.89,129.96 34.34,129.96 35.79,129.96 37.23,129.82 38.68,129.82 40.13,129.82 41.57,129.04 43.02,127.76 44.47,127.69 45.91,127.69 47.36,127.69 48.80,127.69 50.25,127.69 51.70,127.69 53.14,127.69 54.59,127.69 56.04,127.69 57.48,127.69 58.93,127.69 60.38,127.69 61.82,127.69 63.27,127.69 64.72,127.69 66.16,127.69 67.61,127.69 69.06,126.96 70.50,126.96 71.95,126.95 73.40,126.95 74.84,126.95 76.29,126.95 77.73,126.91 79.18,126.91 80.63,126.91 82.07,126.91 83.52,126.91 84.97,126.91 86.41,126.91 87.86,126.91 89.31,126.91 90.75,126.91 92.20,126.91 93.65,126.91 95.09,126.91 96.54,126.91 97.99,126.91 99.43,126.91 100.88,126.91 102.33,126.91 103.77,126.86 105.22,126.21 106.66,125.60 108.11,125.36 109.56,124.16 111.00,124.16 112.45,124.16 113.90,124.16 115.34,124.16 116.79,124.16 118.24,124.16 119.68,124.16 121.13,124.16 122.58,124.16 124.02,124.16 125.47,124.16 126.92,124.07 128.36,124.07 129.81,124.07 131.26,123.96 132.70,123.96 134.15,123.96 135.60,123.96 137.04,123.93 138.49,123.93 139.93,123.93 141.38,123.93 142.83,123.91 144.27,123.91 145.72,123.91 147.17,123.91 148.61,123.91 150.06,123.91 151.51,123.91 152.95,123.91 154.40,123.91 155.85,123.91 157.29,123.91 158.74,123.91 160.19,123.91 161.63,123.91 163.08,123.91 164.53,123.91 165.97,123.91 167.42,123.91 168.86,123.91 170.31,123.91 171.76,123.91 173.20,123.91 174.65,123.91 176.10,123.88 177.54,123.88 178.99,123.88 180.44,123.88 181.88,123.88 183.33,123.88 184.78,123.88 186.22,123.88 187.67,123.88 189.12,123.88 190.56,123.88 192.01,123.88 193.46,123.88 194.90,123.88 196.35,123.88 197.80,123.86 199.24,123.58 200.69,123.50 202.13,123.38 203.58,123.23 205.03,123.19 206.47,123.19 207.92,123.19 209.37,122.95 210.81,122.93 212.26,122.78 213.71,122.73 215.15,122.63 216.60,122.25 218.05,122.23 219.49,122.18 220.94,122.17 222.39,122.11 223.83,122.11 225.28,122.09 226.73,122.09 228.17,122.09 229.62,122.09 231.06,122.09 232.51,122.09 233.96,122.09 235.40,121.97 236.85,121.63 238.30,121.37 239.74,121.29 241.19,121.13 242.64,121.12 244.08,121.10 245.53,121.09 246.98,121.09 248.42,121.09 249.87,121.01 251.32,120.94 252.76,120.91 254.21,120.89 255.66,120.87 257.10,120.62 258.55,120.45 259.99,120.19 261.44,120.03 262.89,119.91 264.33,119.86 265.78,119.79 267.23,119.78 268.67,119.73 270.12,119.57 271.57,119.57 273.01,119.57 274.46,119.56 275.91,119.55 277.35,119.55 278.80,119.46 280.25,119.44 281.69,119.43 283.14,119.42 284.59,119.40 286.03,119.40 287.48,119.40 288.93,119.40 290.37,119.40 291.82,119.40 293.26,119.40 294.71,119.40 296.16,119.36 297.60,119.33 299.05,119.33 300.50,119.14 301.94,119.13 303.39,119.12 304.84,119.08 306.28,118.99 307.73,118.75 309.18,118.71 310.62,118.71 312.07,118.71 313.52,118.71 314.96,118.71 316.41,118.71 317.86,118.71 319.30,118.71 320.75,118.71 322.19,118.71 323.64,118.71 325.09,118.71 326.53,118.71 327.98,118.69 329.43,118.63 330.87,118.62 332.32,118.62 333.77,118.62 335.21,118.62 336.66,118.58 338.11,118.58 339.55,118.40 341.00,118.24 342.45,118.24 343.89,118.24 345.34,118.24 346.79,118.24 348.23,118.22 349.68,118.22 351.13,118.20 352.57,118.12 354.02,118.06 355.46,117.77 356.91,117.76 358.36,117.32 359.80,117.06 361.25,116.86 362.70,116.25 364.14,116.09 365.59,116.02 367.04,115.82 368.48,115.50 369.93,115.43 371.38,115.32 372.82,115.15 374.27,115.00 375.72,114.93 377.16,114.83 378.61,114.75 380.06,114.56 381.50,114.38 382.95,114.18 384.39,113.85 385.84,113.65 387.29,112.69 388.73,111.97 390.18,111.51 391.63,111.11 393.07,110.67 394.52,110.67 395.97,110.67 397.41,110.67 398.86,110.39 400.31,110.22 401.75,109.64 403.20,108.98 404.65,108.22 406.09,107.07 407.54,106.26 408.99,104.60 410.43,103.60 411.88,102.93 413.32,101.85 414.77,101.16 416.22,99.79 417.66,97.72 419.11,97.10 420.56,96.29 422.00,95.51 423.45,95.25 424.90,94.26 426.34,94.09 427.79,92.91 429.24,91.83 430.68,91.18 432.13,90.45 433.58,89.48 435.02,89.22 436.47,89.13 437.92,89.03 439.36,88.96 440.81,88.35 442.26,87.55 443.70,86.58 445.15,86.31 446.59,85.52 448.04,84.51 449.49,82.49 450.93,81.01 452.38,79.18 453.83,78.69 455.27,77.72 456.72,75.92 458.17,74.90 459.61,74.34 461.06,73.55 462.51,73.03 463.95,72.29 465.40,71.94 466.85,71.19 468.29,69.76 469.74,68.17 471.19,67.69 472.63,66.79 474.08,65.15 475.52,64.31 476.97,62.28 478.42,61.31 479.86,59.54 481.31,57.82 482.76,55.74 484.20,52.61 485.65,50.54 487.10,48.76 488.54,47.62 489.99,46.14 491.44,44.82 492.88,44.17 494.33,43.09 495.78,41.79 497.22,41.06 498.67,39.94 500.12,39.09 501.56,38.28 503.01,37.06 504.46,34.84 505.90,33.06 507.35,31.56 508.79,30.32" />
    </svg>
  