
    <svg width="540" height="160" xmlns="http://www.w3.org/2000/svg">
      <style>.line{fill:none;stroke:#388bfd;stroke-width:1.5}.axis{stroke:#555;stroke-width:1;opacity:0.5}.label{fill:#999;font-family:sans-serif;font-size:10px;text-anchor:middle}</style>
      <line class="axis" x1="30" y1="30" x2="30" y2="130" />
      <line class="axis" x1="30" y1="130" x2="510" y2="130" />
      <text class="label" x="15" y="30">8,579</text>
      <text class="label" x="15" y="134">0</text>
      <text class="label" x="30" y="148">2021</text>
      <text class="label" x="510" y="148">2026</text>
      <polyline class="line" points="30.00,129.98 31.47,129.97 32.93,129.95 34.40,129.95 35.87,129.95 37.33,129.80 38.80,129.80 40.26,129.80 41.73,128.96 43.20,127.58 44.66,127.51 46.13,127.51 47.60,127.51 49.06,127.51 50.53,127.51 52.00,127.51 53.46,127.51 54.93,127.51 56.40,127.51 57.86,127.51 59.33,127.51 60.79,127.51 62.26,127.51 63.73,127.51 65.19,127.51 66.66,127.51 68.13,127.51 69.59,126.71 71.06,126.71 72.53,126.70 73.99,126.70 75.46,126.70 76.92,126.70 78.39,126.65 79.86,126.65 81.32,126.65 82.79,126.65 84.26,126.65 85.72,126.65 87.19,126.65 88.66,126.65 90.12,126.65 91.59,126.65 93.05,126.65 94.52,126.65 95.99,126.65 97.45,126.65 98.92,126.65 100.39,126.65 101.85,126.65 103.32,126.65 104.79,126.61 106.25,125.90 107.72,125.24 109.19,124.98 110.65,123.68 112.12,123.68 113.58,123.68 115.05,123.68 116.52,123.68 117.98,123.68 119.45,123.68 120.92,123.68 122.38,123.68 123.85,123.68 125.32,123.68 126.78,123.68 128.25,123.59 129.71,123.59 131.18,123.59 132.65,123.47 134.11,123.47 135.58,123.47 137.05,123.47 138.51,123.44 139.98,123.44 141.45,123.44 142.91,123.44 144.38,123.41 145.85,123.41 147.31,123.41 148.78,123.41 150.24,123.41 151.71,123.41 153.18,123.41 154.64,123.41 156.11,123.41 157.58,123.41 159.04,123.41 160.51,123.41 161.98,123.41 163.44,123.41 164.91,123.41 166.37,123.41 167.84,123.41 169.31,123.41 170.77,123.41 172.24,123.41 173.71,123.41 175.17,123.41 176.64,123.41 178.11,123.38 179.57,123.38 181.04,123.38 182.51,123.38 183.97,123.38 185.44,123.38 186.90,123.38 188.37,123.38 189.84,123.38 191.30,123.38 192.77,123.38 194.24,123.38 195.70,123.38 197.17,123.38 198.64,123.38 200.10,123.36 201.57,123.05 203.03,122.97 204.50,122.84 205.97,122.68 207.43,122.63 208.90,122.63 210.37,122.63 211.83,122.38 213.30,122.35 214.77,122.19 216.23,122.13 217.70,122.03 219.16,121.62 220.63,121.60 222.10,121.54 223.56,121.53 225.03,121.47 226.50,121.47 227.96,121.44 229.43,121.44 230.90,121.44 232.36,121.44 233.83,121.44 235.30,121.44 236.76,121.44 238.23,121.32 239.69,120.94 241.16,120.66 242.63,120.58 244.09,120.41 245.56,120.40 247.03,120.37 248.49,120.36 249.96,120.36 251.43,120.36 252.89,120.28 254.36,120.20 255.82,120.17 257.29,120.15 258.76,120.13 260.22,119.86 261.69,119.67 263.16,119.39 264.62,119.22 266.09,119.09 267.56,119.03 269.02,118.96 270.49,118.95 271.96,118.89 273.42,118.72 274.89,118.72 276.35,118.72 277.82,118.70 279.29,118.69 280.75,118.69 282.22,118.60 283.69,118.58 285.15,118.57 286.62,118.55 288.09,118.53 289.55,118.53 291.02,118.53 292.48,118.53 293.95,118.53 295.42,118.53 296.88,118.53 298.35,118.53 299.82,118.50 301.28,118.46 302.75,118.46 304.22,118.25 305.68,118.24 307.15,118.23 308.62,118.19 310.08,118.09 311.55,117.83 313.01,117.78 314.48,117.78 315.95,117.78 317.41,117.78 318.88,117.78 320.35,117.78 321.81,117.78 323.28,117.78 324.75,117.78 326.21,117.78 327.68,117.78 329.14,117.78 330.61,117.78 332.08,117.77 333.54,117.70 335.01,117.69 336.48,117.69 337.94,117.69 339.41,117.69 340.88,117.64 342.34,117.64 343.81,117.46 345.27,117.28 346.74,117.28 348.21,117.28 349.67,117.28 351.14,117.28 352.61,117.26 354.07,117.26 355.54,117.24 357.01,117.15 358.47,117.08 359.94,116.77 361.41,116.76 362.87,116.28 364.34,116.00 365.80,115.79 367.27,115.13 368.74,114.95 370.20,114.88 371.67,114.66 373.14,114.32 374.60,114.24 376.07,114.12 377.54,113.94 379.00,113.77 380.47,113.70 381.93,113.59 383.40,113.51 384.87,113.30 386.33,113.11 387.80,112.89 389.27,112.53 390.73,112.32 392.20,111.28 393.67,110.50 395.13,110.00 396.60,109.57 398.07,109.09 399.53,109.09 401.00,109.09 402.46,109.09 403.93,108.79 405.40,108.61 406.86,107.98 408.33,107.27 409.80,106.44 411.26,105.20 412.73,104.32 414.20,102.53 415.66,101.44 417.13,100.72 418.59,99.55 420.06,98.81 421.53,97.33 422.99,95.09 424.46,94.41 425.93,93.54 427.39,92.70 428.86,92.42 430.33,91.35 431.79,91.16 433.26,89.88 434.73,88.71 436.19,88.01 437.66,87.22 439.12,86.17 440.59,85.89 442.06,85.80 443.52,85.68 444.99,85.61 446.46,84.95 447.92,84.09 449.39,83.04 450.86,82.75 452.32,81.89 453.79,80.80 455.25,78.62 456.72,77.01 458.19,75.03 459.65,74.50 461.12,73.45 462.59,71.51 464.05,70.40 465.52,69.79 466.99,68.94 468.45,68.38 469.92,67.58 471.38,67.21 472.85,66.39 474.32,64.84 475.78,63.13 477.25,62.60 478.72,61.64 480.18,59.86 481.65,58.95 483.12,56.75 484.58,55.70 486.05,53.79 487.52,51.93 488.98,49.68 490.45,46.30 491.91,44.06 493.38,42.13 494.85,40.90 496.31,39.30 497.78,37.87 499.25,37.17 500.71,36.00 502.18,34.59 503.65,34.04 505.11,33.01 506.58,32.12 508.04,31.25 509.51,30.12" />
    </svg>
  