
    <svg width="540" height="160" xmlns="http://www.w3.org/2000/svg">
      <style>.line{fill:none;stroke:#388bfd;stroke-width:1.5}.axis{stroke:#555;stroke-width:1;opacity:0.5}.label{fill:#999;font-family:sans-serif;font-size:10px;text-anchor:middle}</style>
      <line class="axis" x1="30" y1="30" x2="30" y2="130" />
      <line class="axis" x1="30" y1="130" x2="510" y2="130" />
      <text class="label" x="15" y="30">8,738</text>
      <text class="label" x="15" y="134">0</text>
      <text class="label" x="30" y="148">2021</text>
      <text class="label" x="510" y="148">2026</text>
      <polyline class="line" points="30.00,129.98 31.46,129.97 32.93,129.95 34.39,129.95 35.85,129.95 37.32,129.81 38.78,129.81 40.24,129.81 41.71,128.98 43.17,127.62 44.63,127.55 46.10,127.55 47.56,127.55 49.02,127.55 50.49,127.55 51.95,127.55 53.41,127.55 54.88,127.55 56.34,127.55 57.80,127.55 59.27,127.55 60.73,127.55 62.20,127.55 63.66,127.55 65.12,127.55 66.59,127.55 68.05,127.55 69.51,126.77 70.98,126.77 72.44,126.76 73.90,126.76 75.37,126.76 76.83,126.76 78.29,126.72 79.76,126.72 81.22,126.72 82.68,126.72 84.15,126.72 85.61,126.72 87.07,126.72 88.54,126.72 90.00,126.72 91.46,126.72 92.93,126.72 94.39,126.72 95.85,126.72 97.32,126.72 98.78,126.72 100.24,126.72 101.71,126.72 103.17,126.72 104.63,126.67 106.10,125.97 107.56,125.33 109.02,125.07 110.49,123.80 111.95,123.80 113.41,123.80 114.88,123.80 116.34,123.80 117.80,123.80 119.27,123.80 120.73,123.80 122.20,123.80 123.66,123.80 125.12,123.80 126.59,123.80 128.05,123.71 129.51,123.71 130.98,123.71 132.44,123.59 133.90,123.59 135.37,123.59 136.83,123.59 138.29,123.56 139.76,123.56 141.22,123.56 142.68,123.56 144.15,123.53 145.61,123.53 147.07,123.53 148.54,123.53 150.00,123.53 151.46,123.53 152.93,123.53 154.39,123.53 155.85,123.53 157.32,123.53 158.78,123.53 160.24,123.53 161.71,123.53 163.17,123.53 164.63,123.53 166.10,123.53 167.56,123.53 169.02,123.53 170.49,123.53 171.95,123.53 173.41,123.53 174.88,123.53 176.34,123.53 177.80,123.50 179.27,123.50 180.73,123.50 182.20,123.50 183.66,123.50 185.12,123.50 186.59,123.50 188.05,123.50 189.51,123.50 190.98,123.50 192.44,123.50 193.90,123.50 195.37,123.50 196.83,123.50 198.29,123.50 199.76,123.48 201.22,123.18 202.68,123.10 204.15,122.97 205.61,122.81 207.07,122.77 208.54,122.77 210.00,122.77 211.46,122.52 212.93,122.49 214.39,122.33 215.85,122.28 217.32,122.17 218.78,121.77 220.24,121.75 221.71,121.69 223.17,121.68 224.63,121.62 226.10,121.62 227.56,121.60 229.02,121.60 230.49,121.60 231.95,121.60 233.41,121.60 234.88,121.60 236.34,121.60 237.80,121.47 239.27,121.11 240.73,120.83 242.20,120.75 243.66,120.58 245.12,120.57 246.59,120.55 248.05,120.54 249.51,120.54 250.98,120.54 252.44,120.46 253.90,120.38 255.37,120.35 256.83,120.33 258.29,120.31 259.76,120.04 261.22,119.86 262.68,119.59 264.15,119.41 265.61,119.29 267.07,119.23 268.54,119.16 270.00,119.15 271.46,119.09 272.93,118.92 274.39,118.92 275.85,118.92 277.32,118.91 278.78,118.90 280.24,118.90 281.71,118.81 283.17,118.78 284.63,118.77 286.10,118.76 287.56,118.74 289.02,118.74 290.49,118.74 291.95,118.74 293.41,118.74 294.88,118.74 296.34,118.74 297.80,118.74 299.27,118.70 300.73,118.67 302.20,118.67 303.66,118.46 305.12,118.45 306.59,118.44 308.05,118.41 309.51,118.30 310.98,118.05 312.44,118.01 313.90,118.01 315.37,118.01 316.83,118.01 318.29,118.01 319.76,118.01 321.22,118.01 322.68,118.01 324.15,118.01 325.61,118.01 327.07,118.01 328.54,118.01 330.00,118.01 331.46,117.99 332.93,117.93 334.39,117.91 335.85,117.91 337.32,117.91 338.78,117.91 340.24,117.87 341.71,117.87 343.17,117.69 344.63,117.51 346.10,117.51 347.56,117.51 349.02,117.51 350.49,117.51 351.95,117.49 353.41,117.49 354.88,117.47 356.34,117.39 357.80,117.32 359.27,117.01 360.73,117.00 362.20,116.53 363.66,116.26 365.12,116.05 366.59,115.40 368.05,115.23 369.51,115.16 370.98,114.94 372.44,114.61 373.90,114.53 375.37,114.41 376.83,114.23 378.29,114.07 379.76,114.00 381.22,113.89 382.68,113.81 384.15,113.60 385.61,113.42 387.07,113.20 388.54,112.85 390.00,112.64 391.46,111.62 392.93,110.85 394.39,110.36 395.85,109.94 397.32,109.47 398.78,109.47 400.24,109.47 401.71,109.47 403.17,109.17 404.63,109.00 406.10,108.38 407.56,107.68 409.02,106.87 410.49,105.65 411.95,104.79 413.41,103.03 414.88,101.96 416.34,101.25 417.80,100.11 419.27,99.38 420.73,97.92 422.20,95.72 423.66,95.06 425.12,94.20 426.59,93.38 428.05,93.10 429.51,92.05 430.98,91.87 432.44,90.61 433.90,89.46 435.37,88.78 436.83,88.00 438.29,86.97 439.76,86.69 441.22,86.60 442.68,86.49 444.15,86.42 445.61,85.77 447.07,84.92 448.54,83.89 450.00,83.60 451.46,82.77 452.93,81.69 454.39,79.55 455.85,77.97 457.32,76.03 458.78,75.51 460.24,74.48 461.71,72.57 463.17,71.49 464.63,70.89 466.10,70.05 467.56,69.51 469.02,68.72 470.49,68.35 471.95,67.55 473.41,66.03 474.88,64.34 476.34,63.83 477.80,62.88 479.27,61.14 480.73,60.25 482.20,58.08 483.66,57.05 485.12,55.18 486.59,53.35 488.05,51.14 489.51,47.82 490.98,45.62 492.44,43.73 493.90,42.52 495.37,40.95 496.83,39.54 498.29,38.86 499.76,37.71 501.22,36.33 502.68,35.79 504.15,34.77 505.61,33.90 507.07,33.04 508.54,31.93 510.00,30.00" />
    </svg>
  