
    <svg width="540" height="160" xmlns="http://www.w3.org/2000/svg">
      <style>.line{fill:none;stroke:#388bfd;stroke-width:1.5}.axis{stroke:#555;stroke-width:1;opacity:0.5}.label{fill:#999;font-family:sans-serif;font-size:10px;text-anchor:middle}</style>
      <line class="axis" x1="30" y1="30" x2="30" y2="130" />
      <line class="axis" x1="30" y1="130" x2="510" y2="130" />
      <text class="label" x="15" y="30">9,455</text>
      <text class="label" x="15" y="134">0</text>
      <text class="label" x="30" y="148">2021</text>
      <text class="label" x="510" y="148">2026</text>
      <polyline class="line" points="30.00,129.98 31.43,129.97 32.86,129.96 34.29,129.96 35.73,129.96 37.16,129.82 38.59,129.82 40.02,129.82 41.45,129.06 42.88,127.80 44.31,127.74 45.75,127.74 47.18,127.74 48.61,127.74 50.04,127.74 51.47,127.74 52.90,127.74 54.33,127.74 55.77,127.74 57.20,127.74 58.63,127.74 60.06,127.74 61.49,127.74 62.92,127.74 64.35,127.74 65.79,127.74 67.22,127.74 68.65,127.02 70.08,127.02 71.51,127.01 72.94,127.01 74.37,127.01 75.81,127.01 77.24,126.96 78.67,126.96 80.10,126.96 81.53,126.96 82.96,126.96 84.39,126.96 85.83,126.96 87.26,126.96 88.69,126.96 90.12,126.96 91.55,126.96 92.98,126.96 94.41,126.96 95.84,126.96 97.28,126.96 98.71,126.96 100.14,126.96 101.57,126.96 103.00,126.92 104.43,126.28 105.86,125.68 107.30,125.44 108.73,124.27 110.16,124.27 111.59,124.27 113.02,124.27 114.45,124.27 115.88,124.27 117.32,124.27 118.75,124.27 120.18,124.27 121.61,124.27 123.04,124.27 124.47,124.27 125.90,124.18 127.34,124.18 128.77,124.18 130.20,124.08 131.63,124.08 133.06,124.08 134.49,124.08 135.92,124.05 137.36,124.05 138.79,124.05 140.22,124.05 141.65,124.02 143.08,124.02 144.51,124.02 145.94,124.02 147.38,124.02 148.81,124.02 150.24,124.02 151.67,124.02 153.10,124.02 154.53,124.02 155.96,124.02 157.40,124.02 158.83,124.02 160.26,124.02 161.69,124.02 163.12,124.02 164.55,124.02 165.98,124.02 167.42,124.02 168.85,124.02 170.28,124.02 171.71,124.02 173.14,124.02 174.57,123.99 176.00,123.99 177.44,123.99 178.87,123.99 180.30,123.99 181.73,123.99 183.16,123.99 184.59,123.99 186.02,123.99 187.46,123.99 188.89,123.99 190.32,123.99 191.75,123.99 193.18,123.99 194.61,123.99 196.04,123.97 197.48,123.70 198.91,123.62 200.34,123.51 201.77,123.36 203.20,123.32 204.63,123.32 206.06,123.32 207.50,123.08 208.93,123.06 210.36,122.91 211.79,122.86 213.22,122.77 214.65,122.40 216.08,122.37 217.51,122.32 218.95,122.31 220.38,122.26 221.81,122.26 223.24,122.24 224.67,122.24 226.10,122.24 227.53,122.24 228.97,122.24 230.40,122.24 231.83,122.24 233.26,122.12 234.69,121.78 236.12,121.53 237.55,121.45 238.99,121.30 240.42,121.29 241.85,121.26 243.28,121.25 244.71,121.25 246.14,121.25 247.57,121.18 249.01,121.11 250.44,121.08 251.87,121.06 253.30,121.04 254.73,120.80 256.16,120.63 257.59,120.38 259.03,120.22 260.46,120.10 261.89,120.05 263.32,119.98 264.75,119.97 266.18,119.92 267.61,119.76 269.05,119.76 270.48,119.76 271.91,119.75 273.34,119.74 274.77,119.74 276.20,119.66 277.63,119.64 279.07,119.62 280.50,119.61 281.93,119.59 283.36,119.59 284.79,119.59 286.22,119.59 287.65,119.59 289.09,119.59 290.52,119.59 291.95,119.59 293.38,119.56 294.81,119.53 296.24,119.53 297.67,119.34 299.11,119.33 300.54,119.32 301.97,119.29 303.40,119.19 304.83,118.96 306.26,118.92 307.69,118.92 309.13,118.92 310.56,118.92 311.99,118.92 313.42,118.92 314.85,118.92 316.28,118.92 317.71,118.92 319.15,118.92 320.58,118.92 322.01,118.92 323.44,118.92 324.87,118.91 326.30,118.84 327.73,118.83 329.17,118.83 330.60,118.83 332.03,118.83 333.46,118.79 334.89,118.79 336.32,118.62 337.75,118.46 339.18,118.46 340.62,118.46 342.05,118.46 343.48,118.46 344.91,118.44 346.34,118.44 347.77,118.42 349.20,118.34 350.64,118.28 352.07,118.00 353.50,117.99 354.93,117.55 356.36,117.30 357.79,117.11 359.22,116.50 360.66,116.35 362.09,116.28 363.52,116.08 364.95,115.77 366.38,115.70 367.81,115.59 369.24,115.43 370.68,115.28 372.11,115.21 373.54,115.11 374.97,115.03 376.40,114.84 377.83,114.67 379.26,114.47 380.70,114.15 382.13,113.96 383.56,113.01 384.99,112.31 386.42,111.85 387.85,111.46 389.28,111.03 390.72,111.03 392.15,111.03 393.58,111.03 395.01,110.75 396.44,110.59 397.87,110.02 399.30,109.38 400.74,108.63 402.17,107.49 403.60,106.70 405.03,105.07 406.46,104.09 407.89,103.43 409.32,102.37 410.76,101.70 412.19,100.35 413.62,98.32 415.05,97.71 416.48,96.92 417.91,96.16 419.34,95.90 420.78,94.93 422.21,94.76 423.64,93.60 425.07,92.54 426.50,91.90 427.93,91.18 429.36,90.23 430.80,89.98 432.23,89.89 433.66,89.79 435.09,89.73 436.52,89.12 437.95,88.34 439.38,87.39 440.82,87.12 442.25,86.35 443.68,85.36 445.11,83.38 446.54,81.92 447.97,80.12 449.40,79.65 450.83,78.69 452.27,76.93 453.70,75.92 455.13,75.37 456.56,74.60 457.99,74.09 459.42,73.36 460.85,73.02 462.29,72.28 463.72,70.88 465.15,69.32 466.58,68.85 468.01,67.97 469.44,66.36 470.87,65.54 472.31,63.54 473.74,62.59 475.17,60.85 476.60,59.16 478.03,57.12 479.46,54.05 480.89,52.02 482.33,50.27 483.76,49.15 485.19,47.70 486.62,46.40 488.05,45.77 489.48,44.71 490.91,43.43 492.35,42.71 493.78,41.61 495.21,40.78 496.64,39.98 498.07,38.79 499.50,36.61 500.93,34.87 502.37,33.40 503.80,32.18 505.23,31.73 506.66,31.16 508.09,30.70 509.52,30.17" />
    </svg>
  