
    <svg width="540" height="160" xmlns="http://www.w3.org/2000/svg">
      <style>.line{fill:none;stroke:#388bfd;stroke-width:1.5}.axis{stroke:#555;stroke-width:1;opacity:0.5}.label{fill:#999;font-family:sans-serif;font-size:10px;text-anchor:middle}</style>
      <line class="axis" x1="30" y1="30" x2="30" y2="130" />
      <line class="axis" x1="30" y1="130" x2="510" y2="130" />
      <text class="label" x="15" y="30">8,458</text>
      <text class="label" x="15" y="134">0</text>
      <text class="label" x="30" y="148">2021</text>
      <text class="label" x="510" y="148">2026</text>
      <polyline class="line" points="30.00,129.98 31.47,129.96 32.95,129.95 34.42,129.95 35.89,129.95 37.37,129.80 38.84,129.80 40.31,129.80 41.79,128.95 43.26,127.54 44.73,127.47 46.20,127.47 47.68,127.47 49.15,127.47 50.62,127.47 52.10,127.47 53.57,127.47 55.04,127.47 56.52,127.47 57.99,127.47 59.46,127.47 60.94,127.47 62.41,127.47 63.88,127.47 65.36,127.47 66.83,127.47 68.30,127.47 69.77,126.67 71.25,126.67 72.72,126.65 74.19,126.65 75.67,126.65 77.14,126.65 78.61,126.61 80.09,126.61 81.56,126.61 83.03,126.61 84.51,126.61 85.98,126.61 87.45,126.61 88.93,126.61 90.40,126.61 91.87,126.61 93.35,126.61 94.82,126.61 96.29,126.61 97.76,126.61 99.24,126.61 100.71,126.61 102.18,126.61 103.66,126.61 105.13,126.56 106.60,125.84 108.08,125.18 109.55,124.90 111.02,123.59 112.50,123.59 113.97,123.59 115.44,123.59 116.92,123.59 118.39,123.59 119.86,123.59 121.34,123.59 122.81,123.59 124.28,123.59 125.75,123.59 127.23,123.59 128.70,123.50 130.17,123.50 131.65,123.50 133.12,123.38 134.59,123.38 136.07,123.38 137.54,123.38 139.01,123.34 140.49,123.34 141.96,123.34 143.43,123.34 144.91,123.32 146.38,123.32 147.85,123.32 149.32,123.32 150.80,123.32 152.27,123.32 153.74,123.32 155.22,123.32 156.69,123.32 158.16,123.32 159.64,123.32 161.11,123.32 162.58,123.32 164.06,123.32 165.53,123.32 167.00,123.32 168.48,123.32 169.95,123.32 171.42,123.32 172.90,123.32 174.37,123.32 175.84,123.32 177.31,123.32 178.79,123.28 180.26,123.28 181.73,123.28 183.21,123.28 184.68,123.28 186.15,123.28 187.63,123.28 189.10,123.28 190.57,123.28 192.05,123.28 193.52,123.28 194.99,123.28 196.47,123.28 197.94,123.28 199.41,123.28 200.88,123.26 202.36,122.95 203.83,122.87 205.30,122.74 206.78,122.58 208.25,122.53 209.72,122.53 211.20,122.53 212.67,122.27 214.14,122.24 215.62,122.08 217.09,122.02 218.56,121.91 220.04,121.50 221.51,121.48 222.98,121.42 224.46,121.40 225.93,121.35 227.40,121.35 228.87,121.32 230.35,121.32 231.82,121.32 233.29,121.32 234.77,121.32 236.24,121.32 237.71,121.32 239.19,121.19 240.66,120.81 242.13,120.53 243.61,120.45 245.08,120.27 246.55,120.26 248.03,120.23 249.50,120.22 250.97,120.22 252.45,120.22 253.92,120.14 255.39,120.06 256.86,120.03 258.34,120.01 259.81,119.99 261.28,119.71 262.76,119.52 264.23,119.24 265.70,119.06 267.18,118.93 268.65,118.87 270.12,118.80 271.60,118.79 273.07,118.73 274.54,118.56 276.02,118.56 277.49,118.56 278.96,118.54 280.43,118.53 281.91,118.53 283.38,118.44 284.85,118.41 286.33,118.40 287.80,118.39 289.27,118.37 290.75,118.37 292.22,118.37 293.69,118.37 295.17,118.37 296.64,118.37 298.11,118.37 299.59,118.37 301.06,118.33 302.53,118.30 304.01,118.30 305.48,118.08 306.95,118.07 308.42,118.06 309.90,118.02 311.37,117.92 312.84,117.66 314.32,117.61 315.79,117.61 317.26,117.61 318.74,117.61 320.21,117.61 321.68,117.61 323.16,117.61 324.63,117.61 326.10,117.61 327.58,117.61 329.05,117.61 330.52,117.61 331.99,117.61 333.47,117.60 334.94,117.53 336.41,117.51 337.89,117.51 339.36,117.51 340.83,117.51 342.31,117.47 343.78,117.47 345.25,117.28 346.73,117.10 348.20,117.10 349.67,117.10 351.15,117.10 352.62,117.10 354.09,117.08 355.57,117.08 357.04,117.05 358.51,116.97 359.98,116.90 361.46,116.58 362.93,116.57 364.40,116.08 365.88,115.80 367.35,115.59 368.82,114.91 370.30,114.74 371.77,114.67 373.24,114.44 374.72,114.10 376.19,114.02 377.66,113.90 379.14,113.71 380.61,113.54 382.08,113.47 383.55,113.35 385.03,113.27 386.50,113.06 387.97,112.87 389.45,112.64 390.92,112.28 392.39,112.06 393.87,111.01 395.34,110.22 396.81,109.71 398.29,109.27 399.76,108.79 401.23,108.79 402.71,108.79 404.18,108.79 405.65,108.48 407.13,108.30 408.60,107.67 410.07,106.94 411.54,106.11 413.02,104.84 414.49,103.95 415.96,102.13 417.44,101.03 418.91,100.30 420.38,99.12 421.86,98.36 423.33,96.86 424.80,94.59 426.28,93.90 427.75,93.02 429.22,92.17 430.70,91.88 432.17,90.79 433.64,90.61 435.12,89.30 436.59,88.12 438.06,87.41 439.53,86.61 441.01,85.55 442.48,85.26 443.95,85.17 445.43,85.05 446.90,84.98 448.37,84.30 449.85,83.43 451.32,82.36 452.79,82.07 454.27,81.21 455.74,80.09 457.21,77.88 458.69,76.25 460.16,74.24 461.63,73.71 463.10,72.65 464.58,70.67 466.05,69.55 467.52,68.93 469.00,68.07 470.47,67.50 471.94,66.69 473.42,66.31 474.89,65.48 476.36,63.91 477.84,62.17 479.31,61.64 480.78,60.66 482.26,58.86 483.73,57.94 485.20,55.70 486.68,54.64 488.15,52.70 489.62,50.81 491.09,48.53 492.57,45.10 494.04,42.83 495.51,40.88 496.99,39.62 498.46,38.00 499.93,36.55 501.41,35.84 502.88,34.66 504.35,33.23 505.83,32.67 507.30,31.62 508.77,30.72" />
    </svg>
  