
    <svg width="540" height="160" xmlns="http://www.w3.org/2000/svg">
      <style>.line{fill:none;stroke:#388bfd;stroke-width:1.5}.axis{stroke:#555;stroke-width:1;opacity:0.5}.label{fill:#999;font-family:sans-serif;font-size:10px;text-anchor:middle}</style>
      <line class="axis" x1="30" y1="30" x2="30" y2="130" />
      <line class="axis" x1="30" y1="130" x2="510" y2="130" />
      <text class="label" x="15" y="30">8,490</text>
      <text class="label" x="15" y="134">0</text>
      <text class="label" x="30" y="148">2021</text>
      <text class="label" x="510" y="148">2026</text>
      <polyline class="line" points="30.00,129.98 31.47,129.96 32.94,129.95 34.41,129.95 35.89,129.95 37.36,129.80 38.83,129.80 40.30,129.80 41.77,128.95 43.24,127.55 44.72,127.48 46.19,127.48 47.66,127.48 49.13,127.48 50.60,127.48 52.07,127.48 53.55,127.48 55.02,127.48 56.49,127.48 57.96,127.48 59.43,127.48 60.90,127.48 62.38,127.48 63.85,127.48 65.32,127.48 66.79,127.48 68.26,127.48 69.73,126.68 71.21,126.68 72.68,126.67 74.15,126.67 75.62,126.67 77.09,126.67 78.56,126.62 80.04,126.62 81.51,126.62 82.98,126.62 84.45,126.62 85.92,126.62 87.39,126.62 88.87,126.62 90.34,126.62 91.81,126.62 93.28,126.62 94.75,126.62 96.22,126.62 97.70,126.62 99.17,126.62 100.64,126.62 102.11,126.62 103.58,126.62 105.05,126.57 106.53,125.85 108.00,125.19 109.47,124.92 110.94,123.62 112.41,123.62 113.88,123.62 115.36,123.62 116.83,123.62 118.30,123.62 119.77,123.62 121.24,123.62 122.71,123.62 124.18,123.62 125.66,123.62 127.13,123.62 128.60,123.52 130.07,123.52 131.54,123.52 133.01,123.40 134.49,123.40 135.96,123.40 137.43,123.40 138.90,123.37 140.37,123.37 141.84,123.37 143.32,123.37 144.79,123.35 146.26,123.35 147.73,123.35 149.20,123.35 150.67,123.35 152.15,123.35 153.62,123.35 155.09,123.35 156.56,123.35 158.03,123.35 159.50,123.35 160.98,123.35 162.45,123.35 163.92,123.35 165.39,123.35 166.86,123.35 168.33,123.35 169.81,123.35 171.28,123.35 172.75,123.35 174.22,123.35 175.69,123.35 177.16,123.35 178.64,123.31 180.11,123.31 181.58,123.31 183.05,123.31 184.52,123.31 185.99,123.31 187.47,123.31 188.94,123.31 190.41,123.31 191.88,123.31 193.35,123.31 194.82,123.31 196.30,123.31 197.77,123.31 199.24,123.31 200.71,123.29 202.18,122.98 203.65,122.90 205.13,122.77 206.60,122.60 208.07,122.56 209.54,122.56 211.01,122.56 212.48,122.30 213.96,122.27 215.43,122.11 216.90,122.05 218.37,121.94 219.84,121.53 221.31,121.51 222.78,121.45 224.26,121.44 225.73,121.38 227.20,121.38 228.67,121.35 230.14,121.35 231.61,121.35 233.09,121.35 234.56,121.35 236.03,121.35 237.50,121.35 238.97,121.22 240.44,120.85 241.92,120.57 243.39,120.48 244.86,120.31 246.33,120.29 247.80,120.27 249.27,120.26 250.75,120.26 252.22,120.26 253.69,120.18 255.16,120.09 256.63,120.07 258.10,120.05 259.58,120.02 261.05,119.75 262.52,119.56 263.99,119.28 265.46,119.10 266.93,118.98 268.41,118.92 269.88,118.85 271.35,118.83 272.82,118.78 274.29,118.60 275.76,118.60 277.24,118.60 278.71,118.59 280.18,118.57 281.65,118.57 283.12,118.48 284.59,118.46 286.07,118.45 287.54,118.43 289.01,118.41 290.48,118.41 291.95,118.41 293.42,118.41 294.90,118.41 296.37,118.41 297.84,118.41 299.31,118.41 300.78,118.37 302.25,118.34 303.73,118.34 305.20,118.13 306.67,118.12 308.14,118.10 309.61,118.07 311.08,117.96 312.55,117.70 314.03,117.66 315.50,117.66 316.97,117.66 318.44,117.66 319.91,117.66 321.38,117.66 322.86,117.66 324.33,117.66 325.80,117.66 327.27,117.66 328.74,117.66 330.21,117.66 331.69,117.66 333.16,117.64 334.63,117.57 336.10,117.56 337.57,117.56 339.04,117.56 340.52,117.56 341.99,117.51 343.46,117.51 344.93,117.33 346.40,117.15 347.87,117.15 349.35,117.15 350.82,117.15 352.29,117.15 353.76,117.13 355.23,117.13 356.70,117.10 358.18,117.02 359.65,116.95 361.12,116.63 362.59,116.62 364.06,116.14 365.53,115.85 367.01,115.64 368.48,114.97 369.95,114.79 371.42,114.72 372.89,114.50 374.36,114.16 375.84,114.08 377.31,113.96 378.78,113.77 380.25,113.60 381.72,113.53 383.19,113.42 384.67,113.33 386.14,113.12 387.61,112.93 389.08,112.71 390.55,112.34 392.02,112.13 393.50,111.08 394.97,110.29 396.44,109.79 397.91,109.35 399.38,108.87 400.85,108.87 402.32,108.87 403.80,108.87 405.27,108.56 406.74,108.39 408.21,107.75 409.68,107.03 411.15,106.20 412.63,104.94 414.10,104.05 415.57,102.24 417.04,101.14 418.51,100.41 419.98,99.23 421.46,98.48 422.93,96.98 424.40,94.72 425.87,94.04 427.34,93.16 428.81,92.31 430.29,92.03 431.76,90.94 433.23,90.75 434.70,89.46 436.17,88.28 437.64,87.57 439.12,86.77 440.59,85.71 442.06,85.43 443.53,85.34 445.00,85.22 446.47,85.15 447.95,84.48 449.42,83.60 450.89,82.54 452.36,82.25 453.83,81.39 455.30,80.28 456.78,78.08 458.25,76.45 459.72,74.45 461.19,73.92 462.66,72.86 464.13,70.90 465.61,69.78 467.08,69.16 468.55,68.30 470.02,67.74 471.49,66.93 472.96,66.55 474.44,65.72 475.91,64.16 477.38,62.43 478.85,61.90 480.32,60.92 481.79,59.13 483.27,58.21 484.74,55.98 486.21,54.92 487.68,52.99 489.15,51.11 490.62,48.83 492.10,45.42 493.57,43.16 495.04,41.21 496.51,39.96 497.98,38.35 499.45,36.90 500.92,36.20 502.40,35.02 503.87,33.59 505.34,33.04 506.81,31.99 508.28,31.10 509.75,30.21" />
    </svg>
  