
    <svg width="540" height="160" xmlns="http://www.w3.org/2000/svg">
      <style>.line{fill:none;stroke:#388bfd;stroke-width:1.5}.axis{stroke:#555;stroke-width:1;opacity:0.5}.label{fill:#999;font-family:sans-serif;font-size:10px;text-anchor:middle}</style>
      <line class="axis" x1="30" y1="30" x2="30" y2="130" />
      <line class="axis" x1="30" y1="130" x2="510" y2="130" />
      <text class="label" x="15" y="30">7,463</text>
      <text class="label" x="15" y="134">0</text>
      <text class="label" x="30" y="148">2021</text>
      <text class="label" x="510" y="148">2026</text>
      <polyline class="line" points="30.00,129.97 31.50,129.96 33.00,129.95 34.50,129.95 36.00,129.95 37.50,129.77 39.00,129.77 40.51,129.77 42.01,128.81 43.51,127.21 45.01,127.13 46.51,127.13 48.01,127.13 49.51,127.13 51.01,127.13 52.51,127.13 54.01,127.13 55.51,127.13 57.01,127.13 58.51,127.13 60.02,127.13 61.52,127.13 63.02,127.13 64.52,127.13 66.02,127.13 67.52,127.13 69.02,127.13 70.52,126.22 72.02,126.22 73.52,126.21 75.02,126.21 76.52,126.21 78.03,126.21 79.53,126.15 81.03,126.15 82.53,126.15 84.03,126.15 85.53,126.15 87.03,126.15 88.53,126.15 90.03,126.15 91.53,126.15 93.03,126.15 94.53,126.15 96.03,126.15 97.54,126.15 99.04,126.15 100.54,126.15 102.04,126.15 103.54,126.15 105.04,126.15 106.54,126.10 108.04,125.28 109.54,124.53 111.04,124.22 112.54,122.74 114.04,122.74 115.54,122.74 117.05,122.74 118.55,122.74 120.05,122.74 121.55,122.74 123.05,122.74 124.55,122.74 126.05,122.74 127.55,122.74 129.05,122.74 130.55,122.63 132.05,122.63 133.55,122.63 135.05,122.50 136.56,122.50 138.06,122.50 139.56,122.50 141.06,122.46 142.56,122.46 144.06,122.46 145.56,122.46 147.06,122.43 148.56,122.43 150.06,122.43 151.56,122.43 153.06,122.43 154.56,122.43 156.07,122.43 157.57,122.43 159.07,122.43 160.57,122.43 162.07,122.43 163.57,122.43 165.07,122.43 166.57,122.43 168.07,122.43 169.57,122.43 171.07,122.43 172.57,122.43 174.08,122.43 175.58,122.43 177.08,122.43 178.58,122.43 180.08,122.43 181.58,122.39 183.08,122.39 184.58,122.39 186.08,122.39 187.58,122.39 189.08,122.39 190.58,122.39 192.08,122.39 193.59,122.39 195.09,122.39 196.59,122.39 198.09,122.39 199.59,122.39 201.09,122.39 202.59,122.39 204.09,122.36 205.59,122.01 207.09,121.92 208.59,121.77 210.09,121.59 211.59,121.53 213.10,121.53 214.60,121.53 216.10,121.24 217.60,121.21 219.10,121.02 220.60,120.96 222.10,120.83 223.60,120.37 225.10,120.34 226.60,120.27 228.10,120.26 229.60,120.19 231.10,120.19 232.61,120.16 234.11,120.16 235.61,120.16 237.11,120.16 238.61,120.16 240.11,120.16 241.61,120.16 243.11,120.02 244.61,119.59 246.11,119.27 247.61,119.17 249.11,118.97 250.61,118.96 252.12,118.93 253.62,118.92 255.12,118.92 256.62,118.92 258.12,118.82 259.62,118.73 261.12,118.70 262.62,118.68 264.12,118.65 265.62,118.34 267.12,118.13 268.62,117.81 270.13,117.61 271.63,117.46 273.13,117.39 274.63,117.31 276.13,117.30 277.63,117.23 279.13,117.03 280.63,117.03 282.13,117.03 283.63,117.02 285.13,117.00 286.63,117.00 288.13,116.90 289.64,116.87 291.14,116.86 292.64,116.84 294.14,116.81 295.64,116.81 297.14,116.81 298.64,116.81 300.14,116.81 301.64,116.81 303.14,116.81 304.64,116.81 306.14,116.77 307.64,116.73 309.15,116.73 310.65,116.49 312.15,116.48 313.65,116.47 315.15,116.43 316.65,116.31 318.15,116.01 319.65,115.96 321.15,115.96 322.65,115.96 324.15,115.96 325.65,115.96 327.15,115.96 328.66,115.96 330.16,115.96 331.66,115.96 333.16,115.96 334.66,115.96 336.16,115.96 337.66,115.96 339.16,115.94 340.66,115.86 342.16,115.85 343.66,115.85 345.16,115.85 346.66,115.85 348.17,115.80 349.67,115.80 351.17,115.58 352.67,115.38 354.17,115.38 355.67,115.38 357.17,115.38 358.67,115.38 360.17,115.35 361.67,115.35 363.17,115.33 364.67,115.23 366.18,115.15 367.68,114.79 369.18,114.78 370.68,114.23 372.18,113.91 373.68,113.67 375.18,112.90 376.68,112.70 378.18,112.62 379.68,112.37 381.18,111.98 382.68,111.88 384.18,111.75 385.69,111.54 387.19,111.35 388.69,111.27 390.19,111.13 391.69,111.04 393.19,110.80 394.69,110.58 396.19,110.33 397.69,109.91 399.19,109.67 400.69,108.48 402.19,107.58 403.69,107.01 405.20,106.51 406.70,105.96 408.20,105.96 409.70,105.96 411.20,105.96 412.70,105.61 414.20,105.41 415.70,104.69 417.20,103.87 418.70,102.92 420.20,101.49 421.70,100.48 423.20,98.42 424.71,97.17 426.21,96.34 427.71,95.00 429.21,94.14 430.71,92.44 432.21,89.87 433.71,89.09 435.21,88.09 436.71,87.12 438.21,86.80 439.71,85.57 441.21,85.35 442.71,83.88 444.22,82.54 445.72,81.74 447.22,80.82 448.72,79.62 450.22,79.30 451.72,79.19 453.22,79.06 454.72,78.97 456.22,78.21 457.72,77.22 459.22,76.01 460.72,75.68 462.23,74.70 463.73,73.44 465.23,70.94 466.73,69.09 468.23,66.81 469.73,66.21 471.23,65.00 472.73,62.76 474.23,61.49 475.73,60.79 477.23,59.81 478.73,59.17 480.23,58.25 481.74,57.82 483.24,56.88 484.74,55.10 486.24,53.13 487.74,52.52 489.24,51.60 490.74,50.37 492.24,49.48 493.74,48.10 495.24,47.25 496.74,45.42 498.24,43.49 499.74,41.79 501.25,38.41 502.75,36.32 504.25,34.30 505.75,33.18 507.25,31.53 508.75,30.17" />
    </svg>
  