
    <svg width="540" height="160" xmlns="http://www.w3.org/2000/svg">
      <style>.line{fill:none;stroke:#388bfd;stroke-width:1.5}.axis{stroke:#555;stroke-width:1;opacity:0.5}.label{fill:#999;font-family:sans-serif;font-size:10px;text-anchor:middle}</style>
      <line class="axis" x1="30" y1="30" x2="30" y2="130" />
      <line class="axis" x1="30" y1="130" x2="510" y2="130" />
      <text class="label" x="15" y="30">9,319</text>
      <text class="label" x="15" y="134">0</text>
      <text class="label" x="30" y="148">2021</text>
      <text class="label" x="510" y="148">2026</text>
      <polyline class="line" points="30.00,129.98 31.44,129.97 32.89,129.96 34.33,129.96 35.77,129.96 37.21,129.82 38.66,129.82 40.10,129.82 41.54,129.04 42.99,127.77 44.43,127.70 45.87,127.70 47.31,127.70 48.76,127.70 50.20,127.70 51.64,127.70 53.09,127.70 54.53,127.70 55.97,127.70 57.41,127.70 58.86,127.70 60.30,127.70 61.74,127.70 63.19,127.70 64.63,127.70 66.07,127.70 67.52,127.70 68.96,126.97 70.40,126.97 71.84,126.96 73.29,126.96 74.73,126.96 76.17,126.96 77.62,126.92 79.06,126.92 80.50,126.92 81.94,126.92 83.39,126.92 84.83,126.92 86.27,126.92 87.72,126.92 89.16,126.92 90.60,126.92 92.04,126.92 93.49,126.92 94.93,126.92 96.37,126.92 97.82,126.92 99.26,126.92 100.70,126.92 102.14,126.92 103.59,126.88 105.03,126.22 106.47,125.62 107.92,125.38 109.36,124.18 110.80,124.18 112.24,124.18 113.69,124.18 115.13,124.18 116.57,124.18 118.02,124.18 119.46,124.18 120.90,124.18 122.34,124.18 123.79,124.18 125.23,124.18 126.67,124.10 128.12,124.10 129.56,124.10 131.00,123.99 132.44,123.99 133.89,123.99 135.33,123.99 136.77,123.96 138.22,123.96 139.66,123.96 141.10,123.96 142.55,123.94 143.99,123.94 145.43,123.94 146.87,123.94 148.32,123.94 149.76,123.94 151.20,123.94 152.65,123.94 154.09,123.94 155.53,123.94 156.97,123.94 158.42,123.94 159.86,123.94 161.30,123.94 162.75,123.94 164.19,123.94 165.63,123.94 167.07,123.94 168.52,123.94 169.96,123.94 171.40,123.94 172.85,123.94 174.29,123.94 175.73,123.90 177.17,123.90 178.62,123.90 180.06,123.90 181.50,123.90 182.95,123.90 184.39,123.90 185.83,123.90 187.27,123.90 188.72,123.90 190.16,123.90 191.60,123.90 193.05,123.90 194.49,123.90 195.93,123.90 197.37,123.88 198.82,123.60 200.26,123.53 201.70,123.41 203.15,123.26 204.59,123.22 206.03,123.22 207.47,123.22 208.92,122.98 210.36,122.96 211.80,122.81 213.25,122.76 214.69,122.66 216.13,122.28 217.58,122.26 219.02,122.21 220.46,122.20 221.90,122.15 223.35,122.15 224.79,122.12 226.23,122.12 227.68,122.12 229.12,122.12 230.56,122.12 232.00,122.12 233.45,122.12 234.89,122.01 236.33,121.66 237.78,121.40 239.22,121.33 240.66,121.17 242.10,121.16 243.55,121.14 244.99,121.13 246.43,121.13 247.88,121.13 249.32,121.05 250.76,120.98 252.20,120.95 253.65,120.93 255.09,120.91 256.53,120.66 257.98,120.49 259.42,120.24 260.86,120.07 262.30,119.96 263.75,119.90 265.19,119.84 266.63,119.83 268.08,119.77 269.52,119.61 270.96,119.61 272.40,119.61 273.85,119.60 275.29,119.59 276.73,119.59 278.18,119.51 279.62,119.48 281.06,119.47 282.51,119.46 283.95,119.44 285.39,119.44 286.83,119.44 288.28,119.44 289.72,119.44 291.16,119.44 292.61,119.44 294.05,119.44 295.49,119.41 296.93,119.38 298.38,119.38 299.82,119.18 301.26,119.17 302.71,119.16 304.15,119.13 305.59,119.03 307.03,118.80 308.48,118.75 309.92,118.75 311.36,118.75 312.81,118.75 314.25,118.75 315.69,118.75 317.13,118.75 318.58,118.75 320.02,118.75 321.46,118.75 322.91,118.75 324.35,118.75 325.79,118.75 327.23,118.74 328.68,118.68 330.12,118.67 331.56,118.67 333.01,118.67 334.45,118.67 335.89,118.63 337.33,118.63 338.78,118.45 340.22,118.29 341.66,118.29 343.11,118.29 344.55,118.29 345.99,118.29 347.43,118.27 348.88,118.27 350.32,118.25 351.76,118.17 353.21,118.11 354.65,117.82 356.09,117.81 357.54,117.37 358.98,117.11 360.42,116.92 361.86,116.31 363.31,116.15 364.75,116.08 366.19,115.88 367.64,115.57 369.08,115.49 370.52,115.38 371.96,115.21 373.41,115.06 374.85,115.00 376.29,114.89 377.74,114.82 379.18,114.62 380.62,114.45 382.06,114.25 383.51,113.91 384.95,113.72 386.39,112.77 387.84,112.05 389.28,111.59 390.72,111.19 392.16,110.75 393.61,110.75 395.05,110.75 396.49,110.75 397.94,110.47 399.38,110.31 400.82,109.73 402.26,109.08 403.71,108.31 405.15,107.16 406.59,106.36 408.04,104.71 409.48,103.71 410.92,103.04 412.36,101.97 413.81,101.28 415.25,99.92 416.69,97.86 418.14,97.24 419.58,96.43 421.02,95.66 422.46,95.40 423.91,94.42 425.35,94.25 426.79,93.06 428.24,91.99 429.68,91.35 431.12,90.62 432.57,89.65 434.01,89.39 435.45,89.31 436.89,89.20 438.34,89.14 439.78,88.53 441.22,87.73 442.67,86.77 444.11,86.50 445.55,85.71 446.99,84.71 448.44,82.70 449.88,81.22 451.32,79.39 452.77,78.91 454.21,77.95 455.65,76.15 457.09,75.13 458.54,74.58 459.98,73.79 461.42,73.28 462.87,72.54 464.31,72.19 465.75,71.44 467.19,70.02 468.64,68.44 470.08,67.95 471.52,67.06 472.97,65.43 474.41,64.60 475.85,62.57 477.29,61.60 478.74,59.84 480.18,58.13 481.62,56.05 483.07,52.94 484.51,50.88 485.95,49.11 487.39,47.97 488.84,46.50 490.28,45.18 491.72,44.54 493.17,43.47 494.61,42.17 496.05,41.44 497.49,40.32 498.94,39.48 500.38,38.67 501.82,37.46 503.27,35.25 504.71,33.48 506.15,31.99 507.60,30.75 509.04,30.30" />
    </svg>
  