
    <svg width="540" height="160" xmlns="http://www.w3.org/2000/svg">
      <style>.line{fill:none;stroke:#388bfd;stroke-width:1.5}.axis{stroke:#555;stroke-width:1;opacity:0.5}.label{fill:#999;font-family:sans-serif;font-size:10px;text-anchor:middle}</style>
      <line class="axis" x1="30" y1="30" x2="30" y2="130" />
      <line class="axis" x1="30" y1="130" x2="510" y2="130" />
      <text class="label" x="15" y="30">7,353</text>
      <text class="label" x="15" y="134">0</text>
      <text class="label" x="30" y="148">2021</text>
      <text class="label" x="510" y="148">2026</text>
      <polyline class="line" points="30.00,129.97 31.51,129.96 33.02,129.95 34.53,129.95 36.03,129.95 37.54,129.77 39.05,129.77 40.56,129.77 42.07,128.79 43.58,127.17 45.09,127.09 46.60,127.09 48.10,127.09 49.61,127.09 51.12,127.09 52.63,127.09 54.14,127.09 55.65,127.09 57.16,127.09 58.66,127.09 60.17,127.09 61.68,127.09 63.19,127.09 64.70,127.09 66.21,127.09 67.72,127.09 69.22,127.09 70.73,126.16 72.24,126.16 73.75,126.15 75.26,126.15 76.77,126.15 78.28,126.15 79.79,126.10 81.29,126.10 82.80,126.10 84.31,126.10 85.82,126.10 87.33,126.10 88.84,126.10 90.35,126.10 91.85,126.10 93.36,126.10 94.87,126.10 96.38,126.10 97.89,126.10 99.40,126.10 100.91,126.10 102.41,126.10 103.92,126.10 105.43,126.10 106.94,126.04 108.45,125.21 109.96,124.45 111.47,124.14 112.98,122.63 114.48,122.63 115.99,122.63 117.50,122.63 119.01,122.63 120.52,122.63 122.03,122.63 123.54,122.63 125.04,122.63 126.55,122.63 128.06,122.63 129.57,122.63 131.08,122.52 132.59,122.52 134.10,122.52 135.61,122.38 137.11,122.38 138.62,122.38 140.13,122.38 141.64,122.34 143.15,122.34 144.66,122.34 146.17,122.34 147.67,122.32 149.18,122.32 150.69,122.32 152.20,122.32 153.71,122.32 155.22,122.32 156.73,122.32 158.23,122.32 159.74,122.32 161.25,122.32 162.76,122.32 164.27,122.32 165.78,122.32 167.29,122.32 168.80,122.32 170.30,122.32 171.81,122.32 173.32,122.32 174.83,122.32 176.34,122.32 177.85,122.32 179.36,122.32 180.86,122.32 182.37,122.28 183.88,122.28 185.39,122.28 186.90,122.28 188.41,122.28 189.92,122.28 191.42,122.28 192.93,122.28 194.44,122.28 195.95,122.28 197.46,122.28 198.97,122.28 200.48,122.28 201.99,122.28 203.49,122.28 205.00,122.25 206.51,121.89 208.02,121.80 209.53,121.65 211.04,121.46 212.55,121.40 214.05,121.40 215.56,121.40 217.07,121.11 218.58,121.08 220.09,120.89 221.60,120.82 223.11,120.70 224.61,120.22 226.12,120.19 227.63,120.13 229.14,120.11 230.65,120.04 232.16,120.04 233.67,120.02 235.18,120.02 236.68,120.02 238.19,120.02 239.70,120.02 241.21,120.02 242.72,120.02 244.23,119.87 245.74,119.43 247.24,119.11 248.75,119.01 250.26,118.81 251.77,118.79 253.28,118.77 254.79,118.75 256.30,118.75 257.81,118.75 259.31,118.66 260.82,118.56 262.33,118.54 263.84,118.51 265.35,118.48 266.86,118.17 268.37,117.95 269.87,117.62 271.38,117.42 272.89,117.27 274.40,117.20 275.91,117.12 277.42,117.11 278.93,117.04 280.43,116.84 281.94,116.84 283.45,116.84 284.96,116.82 286.47,116.81 287.98,116.81 289.49,116.70 291.00,116.67 292.50,116.66 294.01,116.64 295.52,116.62 297.03,116.62 298.54,116.62 300.05,116.62 301.56,116.62 303.06,116.62 304.57,116.62 306.08,116.62 307.59,116.58 309.10,116.54 310.61,116.54 312.12,116.29 313.62,116.28 315.13,116.26 316.64,116.22 318.15,116.10 319.66,115.80 321.17,115.75 322.68,115.75 324.19,115.75 325.69,115.75 327.20,115.75 328.71,115.75 330.22,115.75 331.73,115.75 333.24,115.75 334.75,115.75 336.25,115.75 337.76,115.75 339.27,115.75 340.78,115.73 342.29,115.65 343.80,115.64 345.31,115.64 346.82,115.64 348.32,115.64 349.83,115.58 351.34,115.58 352.85,115.37 354.36,115.16 355.87,115.16 357.38,115.16 358.88,115.16 360.39,115.16 361.90,115.14 363.41,115.14 364.92,115.11 366.43,115.01 367.94,114.93 369.44,114.56 370.95,114.55 372.46,113.99 373.97,113.67 375.48,113.42 376.99,112.65 378.50,112.44 380.01,112.36 381.51,112.10 383.02,111.71 384.53,111.61 386.04,111.48 387.55,111.26 389.06,111.07 390.57,110.99 392.07,110.85 393.58,110.76 395.09,110.51 396.60,110.29 398.11,110.04 399.62,109.61 401.13,109.37 402.63,108.16 404.14,107.25 405.65,106.66 407.16,106.16 408.67,105.60 410.18,105.60 411.69,105.60 413.20,105.60 414.70,105.25 416.21,105.04 417.72,104.31 419.23,103.48 420.74,102.51 422.25,101.06 423.76,100.04 425.26,97.95 426.77,96.68 428.28,95.84 429.79,94.48 431.30,93.61 432.81,91.88 434.32,89.27 435.83,88.48 437.33,87.46 438.84,86.48 440.35,86.15 441.86,84.90 443.37,84.69 444.88,83.19 446.39,81.83 447.89,81.01 449.40,80.09 450.91,78.86 452.42,78.54 453.93,78.43 455.44,78.29 456.95,78.21 458.45,77.44 459.96,76.43 461.47,75.21 462.98,74.87 464.49,73.87 466.00,72.59 467.51,70.05 469.02,68.17 470.52,65.86 472.03,65.25 473.54,64.03 475.05,61.76 476.56,60.46 478.07,59.76 479.58,58.76 481.08,58.11 482.59,57.17 484.10,56.74 485.61,55.79 487.12,53.98 488.63,51.98 490.14,51.37 491.64,50.43 493.15,49.18 494.66,48.28 496.17,46.88 497.68,46.01 499.19,44.16 500.70,42.20 502.21,40.47 503.71,37.04 505.22,34.92 506.73,32.87 508.24,31.73 509.75,30.05" />
    </svg>
  