
    <svg width="540" height="160" xmlns="http://www.w3.org/2000/svg">
      <style>.line{fill:none;stroke:#388bfd;stroke-width:1.5}.axis{stroke:#555;stroke-width:1;opacity:0.5}.label{fill:#999;font-family:sans-serif;font-size:10px;text-anchor:middle}</style>
      <line class="axis" x1="30" y1="30" x2="30" y2="130" />
      <line class="axis" x1="30" y1="130" x2="510" y2="130" />
      <text class="label" x="15" y="30">7,447</text>
      <text class="label" x="15" y="134">0</text>
      <text class="label" x="30" y="148">2021</text>
      <text class="label" x="510" y="148">2026</text>
      <polyline class="line" points="30.00,129.97 31.50,129.96 33.01,129.95 34.51,129.95 36.02,129.95 37.52,129.77 39.03,129.77 40.53,129.77 42.04,128.80 43.54,127.21 45.05,127.13 46.55,127.13 48.06,127.13 49.56,127.13 51.07,127.13 52.57,127.13 54.08,127.13 55.58,127.13 57.08,127.13 58.59,127.13 60.09,127.13 61.60,127.13 63.10,127.13 64.61,127.13 66.11,127.13 67.62,127.13 69.12,127.13 70.63,126.21 72.13,126.21 73.64,126.20 75.14,126.20 76.65,126.20 78.15,126.20 79.66,126.15 81.16,126.15 82.66,126.15 84.17,126.15 85.67,126.15 87.18,126.15 88.68,126.15 90.19,126.15 91.69,126.15 93.20,126.15 94.70,126.15 96.21,126.15 97.71,126.15 99.22,126.15 100.72,126.15 102.23,126.15 103.73,126.15 105.24,126.15 106.74,126.09 108.24,125.27 109.75,124.52 111.25,124.21 112.76,122.72 114.26,122.72 115.77,122.72 117.27,122.72 118.78,122.72 120.28,122.72 121.79,122.72 123.29,122.72 124.80,122.72 126.30,122.72 127.81,122.72 129.31,122.72 130.82,122.61 132.32,122.61 133.82,122.61 135.33,122.48 136.83,122.48 138.34,122.48 139.84,122.48 141.35,122.44 142.85,122.44 144.36,122.44 145.86,122.44 147.37,122.41 148.87,122.41 150.38,122.41 151.88,122.41 153.39,122.41 154.89,122.41 156.39,122.41 157.90,122.41 159.40,122.41 160.91,122.41 162.41,122.41 163.92,122.41 165.42,122.41 166.93,122.41 168.43,122.41 169.94,122.41 171.44,122.41 172.95,122.41 174.45,122.41 175.96,122.41 177.46,122.41 178.97,122.41 180.47,122.41 181.97,122.37 183.48,122.37 184.98,122.37 186.49,122.37 187.99,122.37 189.50,122.37 191.00,122.37 192.51,122.37 194.01,122.37 195.52,122.37 197.02,122.37 198.53,122.37 200.03,122.37 201.54,122.37 203.04,122.37 204.55,122.35 206.05,122.00 207.55,121.90 209.06,121.76 210.56,121.57 212.07,121.51 213.57,121.51 215.08,121.51 216.58,121.22 218.09,121.19 219.59,121.00 221.10,120.94 222.60,120.82 224.11,120.35 225.61,120.32 227.12,120.25 228.62,120.24 230.13,120.17 231.63,120.17 233.13,120.14 234.64,120.14 236.14,120.14 237.65,120.14 239.15,120.14 240.66,120.14 242.16,120.14 243.67,120.00 245.17,119.57 246.68,119.24 248.18,119.15 249.69,118.95 251.19,118.94 252.70,118.91 254.20,118.89 255.71,118.89 257.21,118.89 258.71,118.80 260.22,118.71 261.72,118.68 263.23,118.65 264.73,118.63 266.24,118.32 267.74,118.10 269.25,117.78 270.75,117.58 272.26,117.43 273.76,117.36 275.27,117.28 276.77,117.27 278.28,117.20 279.78,117.00 281.29,117.00 282.79,117.00 284.29,116.99 285.80,116.97 287.30,116.97 288.81,116.87 290.31,116.84 291.82,116.83 293.32,116.81 294.83,116.79 296.33,116.79 297.84,116.79 299.34,116.79 300.85,116.79 302.35,116.79 303.86,116.79 305.36,116.79 306.87,116.75 308.37,116.71 309.87,116.71 311.38,116.46 312.88,116.45 314.39,116.44 315.89,116.40 317.40,116.28 318.90,115.98 320.41,115.93 321.91,115.93 323.42,115.93 324.92,115.93 326.43,115.93 327.93,115.93 329.44,115.93 330.94,115.93 332.45,115.93 333.95,115.93 335.45,115.93 336.96,115.93 338.46,115.93 339.97,115.91 341.47,115.83 342.98,115.82 344.48,115.82 345.99,115.82 347.49,115.82 349.00,115.77 350.50,115.77 352.01,115.55 353.51,115.35 355.02,115.35 356.52,115.35 358.03,115.35 359.53,115.35 361.03,115.32 362.54,115.32 364.04,115.30 365.55,115.20 367.05,115.12 368.56,114.76 370.06,114.75 371.57,114.19 373.07,113.87 374.58,113.63 376.08,112.87 377.59,112.66 379.09,112.58 380.60,112.33 382.10,111.94 383.61,111.85 385.11,111.71 386.61,111.50 388.12,111.31 389.62,111.23 391.13,111.09 392.63,111.00 394.14,110.76 395.64,110.54 397.15,110.29 398.65,109.87 400.16,109.63 401.66,108.43 403.17,107.53 404.67,106.96 406.18,106.46 407.68,105.91 409.18,105.91 410.69,105.91 412.19,105.91 413.70,105.56 415.20,105.36 416.71,104.63 418.21,103.81 419.72,102.86 421.22,101.42 422.73,100.42 424.23,98.35 425.74,97.10 427.24,96.27 428.75,94.93 430.25,94.07 431.76,92.36 433.26,89.78 434.76,89.00 436.27,88.00 437.77,87.03 439.28,86.71 440.78,85.47 442.29,85.26 443.79,83.78 445.30,82.44 446.80,81.63 448.31,80.72 449.81,79.51 451.32,79.19 452.82,79.08 454.33,78.95 455.83,78.87 457.34,78.10 458.84,77.11 460.34,75.90 461.85,75.56 463.35,74.58 464.86,73.32 466.36,70.81 467.87,68.96 469.37,66.67 470.88,66.07 472.38,64.86 473.89,62.62 475.39,61.34 476.90,60.64 478.40,59.66 479.91,59.02 481.41,58.09 482.92,57.66 484.42,56.72 485.92,54.94 487.43,52.96 488.93,52.36 490.44,51.43 491.94,50.20 493.45,49.31 494.95,47.93 496.46,47.07 497.96,45.24 499.47,43.31 500.97,41.60 502.48,38.22 503.98,36.12 505.49,34.10 506.99,32.97 508.50,31.32 510.00,30.00" />
    </svg>
  