
    <svg width="540" height="160" xmlns="http://www.w3.org/2000/svg">
      <style>.line{fill:none;stroke:#388bfd;stroke-width:1.5}.axis{stroke:#555;stroke-width:1;opacity:0.5}.label{fill:#999;font-family:sans-serif;font-size:10px;text-anchor:middle}</style>
      <line class="axis" x1="30" y1="30" x2="30" y2="130" />
      <line class="axis" x1="30" y1="130" x2="510" y2="130" />
      <text class="label" x="15" y="30">9,515</text>
      <text class="label" x="15" y="134">0</text>
      <text class="label" x="30" y="148">2021</text>
      <text class="label" x="510" y="148">2026</text>
      <polyline class="line" points="30.00,129.98 31.43,129.97 32.86,129.96 34.28,129.96 35.71,129.96 37.14,129.82 38.57,129.82 40.00,129.82 41.42,129.06 42.85,127.81 44.28,127.75 45.71,127.75 47.13,127.75 48.56,127.75 49.99,127.75 51.42,127.75 52.85,127.75 54.27,127.75 55.70,127.75 57.13,127.75 58.56,127.75 59.99,127.75 61.41,127.75 62.84,127.75 64.27,127.75 65.70,127.75 67.12,127.75 68.55,127.04 69.98,127.04 71.41,127.03 72.84,127.03 74.26,127.03 75.69,127.03 77.12,126.98 78.55,126.98 79.98,126.98 81.40,126.98 82.83,126.98 84.26,126.98 85.69,126.98 87.11,126.98 88.54,126.98 89.97,126.98 91.40,126.98 92.83,126.98 94.25,126.98 95.68,126.98 97.11,126.98 98.54,126.98 99.97,126.98 101.39,126.98 102.82,126.94 104.25,126.30 105.68,125.71 107.10,125.47 108.53,124.30 109.96,124.30 111.39,124.30 112.82,124.30 114.24,124.30 115.67,124.30 117.10,124.30 118.53,124.30 119.96,124.30 121.38,124.30 122.81,124.30 124.24,124.30 125.67,124.22 127.09,124.22 128.52,124.22 129.95,124.11 131.38,124.11 132.81,124.11 134.23,124.11 135.66,124.08 137.09,124.08 138.52,124.08 139.95,124.08 141.37,124.06 142.80,124.06 144.23,124.06 145.66,124.06 147.08,124.06 148.51,124.06 149.94,124.06 151.37,124.06 152.80,124.06 154.22,124.06 155.65,124.06 157.08,124.06 158.51,124.06 159.94,124.06 161.36,124.06 162.79,124.06 164.22,124.06 165.65,124.06 167.07,124.06 168.50,124.06 169.93,124.06 171.36,124.06 172.79,124.06 174.21,124.03 175.64,124.03 177.07,124.03 178.50,124.03 179.93,124.03 181.35,124.03 182.78,124.03 184.21,124.03 185.64,124.03 187.06,124.03 188.49,124.03 189.92,124.03 191.35,124.03 192.78,124.03 194.20,124.03 195.63,124.01 197.06,123.74 198.49,123.66 199.92,123.55 201.34,123.40 202.77,123.36 204.20,123.36 205.63,123.36 207.06,123.13 208.48,123.11 209.91,122.96 211.34,122.91 212.77,122.81 214.19,122.44 215.62,122.42 217.05,122.37 218.48,122.36 219.91,122.31 221.33,122.31 222.76,122.29 224.19,122.29 225.62,122.29 227.05,122.29 228.47,122.29 229.90,122.29 231.33,122.29 232.76,122.17 234.18,121.83 235.61,121.58 237.04,121.51 238.47,121.35 239.90,121.34 241.32,121.32 242.75,121.31 244.18,121.31 245.61,121.31 247.04,121.23 248.46,121.16 249.89,121.14 251.32,121.12 252.75,121.10 254.17,120.86 255.60,120.69 257.03,120.44 258.46,120.28 259.89,120.16 261.31,120.11 262.74,120.05 264.17,120.04 265.60,119.98 267.03,119.83 268.45,119.83 269.88,119.83 271.31,119.82 272.74,119.81 274.16,119.81 275.59,119.72 277.02,119.70 278.45,119.69 279.88,119.68 281.30,119.66 282.73,119.66 284.16,119.66 285.59,119.66 287.02,119.66 288.44,119.66 289.87,119.66 291.30,119.66 292.73,119.63 294.15,119.60 295.58,119.60 297.01,119.41 298.44,119.40 299.87,119.39 301.29,119.35 302.72,119.26 304.15,119.03 305.58,118.99 307.01,118.99 308.43,118.99 309.86,118.99 311.29,118.99 312.72,118.99 314.14,118.99 315.57,118.99 317.00,118.99 318.43,118.99 319.86,118.99 321.28,118.99 322.71,118.99 324.14,118.98 325.57,118.91 327.00,118.90 328.42,118.90 329.85,118.90 331.28,118.90 332.71,118.86 334.13,118.86 335.56,118.69 336.99,118.53 338.42,118.53 339.85,118.53 341.27,118.53 342.70,118.53 344.13,118.51 345.56,118.51 346.99,118.49 348.41,118.42 349.84,118.36 351.27,118.07 352.70,118.06 354.12,117.63 355.55,117.38 356.98,117.19 358.41,116.59 359.84,116.43 361.26,116.37 362.69,116.17 364.12,115.86 365.55,115.79 366.98,115.69 368.40,115.52 369.83,115.37 371.26,115.31 372.69,115.20 374.12,115.13 375.54,114.94 376.97,114.77 378.40,114.57 379.83,114.25 381.25,114.06 382.68,113.12 384.11,112.42 385.54,111.97 386.97,111.58 388.39,111.15 389.82,111.15 391.25,111.15 392.68,111.15 394.11,110.87 395.53,110.71 396.96,110.15 398.39,109.51 399.82,108.76 401.24,107.64 402.67,106.85 404.10,105.23 405.53,104.25 406.96,103.60 408.38,102.55 409.81,101.88 411.24,100.54 412.67,98.52 414.10,97.91 415.52,97.13 416.95,96.37 418.38,96.12 419.81,95.15 421.23,94.98 422.66,93.83 424.09,92.77 425.52,92.14 426.95,91.43 428.37,90.48 429.80,90.23 431.23,90.15 432.66,90.04 434.09,89.98 435.51,89.38 436.94,88.60 438.37,87.66 439.80,87.39 441.22,86.63 442.65,85.64 444.08,83.67 445.51,82.22 446.94,80.44 448.36,79.96 449.79,79.02 451.22,77.26 452.65,76.26 454.08,75.72 455.50,74.95 456.93,74.45 458.36,73.72 459.79,73.38 461.21,72.65 462.64,71.25 464.07,69.71 465.50,69.23 466.93,68.36 468.35,66.76 469.78,65.94 471.21,63.96 472.64,63.01 474.07,61.29 475.49,59.61 476.92,57.58 478.35,54.53 479.78,52.51 481.20,50.78 482.63,49.66 484.06,48.22 485.49,46.93 486.92,46.30 488.34,45.25 489.77,43.98 491.20,43.26 492.63,42.17 494.06,41.34 495.48,40.55 496.91,39.36 498.34,37.20 499.77,35.47 501.19,34.00 502.62,32.80 504.05,32.35 505.48,31.79 506.91,31.32 508.33,30.80 509.76,30.06" />
    </svg>
  