
    <svg width="540" height="160" xmlns="http://www.w3.org/2000/svg">
      <style>.line{fill:none;stroke:#388bfd;stroke-width:1.5}.axis{stroke:#555;stroke-width:1;opacity:0.5}.label{fill:#999;font-family:sans-serif;font-size:10px;text-anchor:middle}</style>
      <line class="axis" x1="30" y1="30" x2="30" y2="130" />
      <line class="axis" x1="30" y1="130" x2="510" y2="130" />
      <text class="label" x="15" y="30">7,388</text>
      <text class="label" x="15" y="134">0</text>
      <text class="label" x="30" y="148">2021</text>
      <text class="label" x="510" y="148">2026</text>
      <polyline class="line" points="30.00,129.97 31.51,129.96 33.02,129.95 34.52,129.95 36.03,129.95 37.54,129.77 39.05,129.77 40.55,129.77 42.06,128.80 43.57,127.18 45.08,127.10 46.59,127.10 48.09,127.10 49.60,127.10 51.11,127.10 52.62,127.10 54.13,127.10 55.63,127.10 57.14,127.10 58.65,127.10 60.16,127.10 61.66,127.10 63.17,127.10 64.68,127.10 66.19,127.10 67.70,127.10 69.20,127.10 70.71,126.18 72.22,126.18 73.73,126.17 75.24,126.17 76.74,126.17 78.25,126.17 79.76,126.12 81.27,126.12 82.77,126.12 84.28,126.12 85.79,126.12 87.30,126.12 88.81,126.12 90.31,126.12 91.82,126.12 93.33,126.12 94.84,126.12 96.35,126.12 97.85,126.12 99.36,126.12 100.87,126.12 102.38,126.12 103.88,126.12 105.39,126.12 106.90,126.06 108.41,125.24 109.92,124.48 111.42,124.17 112.93,122.66 114.44,122.66 115.95,122.66 117.46,122.66 118.96,122.66 120.47,122.66 121.98,122.66 123.49,122.66 124.99,122.66 126.50,122.66 128.01,122.66 129.52,122.66 131.03,122.56 132.53,122.56 134.04,122.56 135.55,122.42 137.06,122.42 138.57,122.42 140.07,122.42 141.58,122.38 143.09,122.38 144.60,122.38 146.10,122.38 147.61,122.35 149.12,122.35 150.63,122.35 152.14,122.35 153.64,122.35 155.15,122.35 156.66,122.35 158.17,122.35 159.68,122.35 161.18,122.35 162.69,122.35 164.20,122.35 165.71,122.35 167.21,122.35 168.72,122.35 170.23,122.35 171.74,122.35 173.25,122.35 174.75,122.35 176.26,122.35 177.77,122.35 179.28,122.35 180.79,122.35 182.29,122.31 183.80,122.31 185.31,122.31 186.82,122.31 188.32,122.31 189.83,122.31 191.34,122.31 192.85,122.31 194.36,122.31 195.86,122.31 197.37,122.31 198.88,122.31 200.39,122.31 201.90,122.31 203.40,122.31 204.91,122.28 206.42,121.93 207.93,121.84 209.43,121.69 210.94,121.50 212.45,121.45 213.96,121.45 215.47,121.45 216.97,121.15 218.48,121.12 219.99,120.93 221.50,120.86 223.01,120.74 224.51,120.27 226.02,120.24 227.53,120.17 229.04,120.16 230.54,120.09 232.05,120.09 233.56,120.06 235.07,120.06 236.58,120.06 238.08,120.06 239.59,120.06 241.10,120.06 242.61,120.06 244.12,119.92 245.62,119.48 247.13,119.16 248.64,119.06 250.15,118.86 251.65,118.85 253.16,118.82 254.67,118.81 256.18,118.81 257.69,118.81 259.19,118.71 260.70,118.62 262.21,118.59 263.72,118.56 265.23,118.54 266.73,118.22 268.24,118.01 269.75,117.68 271.26,117.48 272.76,117.33 274.27,117.26 275.78,117.18 277.29,117.17 278.80,117.10 280.30,116.90 281.81,116.90 283.32,116.90 284.83,116.88 286.34,116.87 287.84,116.87 289.35,116.76 290.86,116.74 292.37,116.72 293.87,116.71 295.38,116.68 296.89,116.68 298.40,116.68 299.91,116.68 301.41,116.68 302.92,116.68 304.43,116.68 305.94,116.68 307.45,116.64 308.95,116.60 310.46,116.60 311.97,116.36 313.48,116.34 314.98,116.33 316.49,116.29 318.00,116.17 319.51,115.87 321.02,115.81 322.52,115.81 324.03,115.81 325.54,115.81 327.05,115.81 328.55,115.81 330.06,115.81 331.57,115.81 333.08,115.81 334.59,115.81 336.09,115.81 337.60,115.81 339.11,115.81 340.62,115.80 342.13,115.72 343.63,115.71 345.14,115.71 346.65,115.71 348.16,115.71 349.66,115.65 351.17,115.65 352.68,115.44 354.19,115.23 355.70,115.23 357.20,115.23 358.71,115.23 360.22,115.23 361.73,115.21 363.24,115.21 364.74,115.18 366.25,115.08 367.76,115.00 369.27,114.64 370.77,114.62 372.28,114.07 373.79,113.74 375.30,113.50 376.81,112.73 378.31,112.53 379.82,112.44 381.33,112.19 382.84,111.79 384.35,111.70 385.85,111.56 387.36,111.35 388.87,111.16 390.38,111.08 391.88,110.94 393.39,110.85 394.90,110.60 396.41,110.39 397.92,110.13 399.42,109.71 400.93,109.47 402.44,108.26 403.95,107.36 405.46,106.77 406.96,106.27 408.47,105.72 409.98,105.72 411.49,105.72 412.99,105.72 414.50,105.37 416.01,105.16 417.52,104.43 419.03,103.61 420.53,102.64 422.04,101.20 423.55,100.18 425.06,98.10 426.57,96.84 428.07,96.00 429.58,94.65 431.09,93.78 432.60,92.06 434.10,89.46 435.61,88.68 437.12,87.66 438.63,86.69 440.14,86.36 441.64,85.12 443.15,84.90 444.66,83.41 446.17,82.06 447.68,81.25 449.18,80.32 450.69,79.11 452.20,78.78 453.71,78.67 455.21,78.54 456.72,78.46 458.23,77.69 459.74,76.68 461.25,75.47 462.75,75.13 464.26,74.14 465.77,72.87 467.28,70.34 468.79,68.47 470.29,66.17 471.80,65.56 473.31,64.34 474.82,62.08 476.32,60.79 477.83,60.09 479.34,59.10 480.85,58.45 482.36,57.52 483.86,57.08 485.37,56.14 486.88,54.34 488.39,52.35 489.90,51.74 491.40,50.80 492.91,49.56 494.42,48.67 495.93,47.27 497.43,46.40 498.94,44.56 500.45,42.62 501.96,40.90 503.47,37.49 504.97,35.37 506.48,33.33 507.99,32.19 509.50,30.53" />
    </svg>
  