
    <svg width="540" height="160" xmlns="http://www.w3.org/2000/svg">
      <style>.line{fill:none;stroke:#388bfd;stroke-width:1.5}.axis{stroke:#555;stroke-width:1;opacity:0.5}.label{fill:#999;font-family:sans-serif;font-size:10px;text-anchor:middle}</style>
      <line class="axis" x1="30" y1="30" x2="30" y2="130" />
      <line class="axis" x1="30" y1="130" x2="510" y2="130" />
      <text class="label" x="15" y="30">7,452</text>
      <text class="label" x="15" y="134">0</text>
      <text class="label" x="30" y="148">2021</text>
      <text class="label" x="510" y="148">2026</text>
      <polyline class="line" points="30.00,129.97 31.50,129.96 33.00,129.95 34.50,129.95 36.00,129.95 37.50,129.77 39.00,129.77 40.51,129.77 42.01,128.81 43.51,127.21 45.01,127.13 46.51,127.13 48.01,127.13 49.51,127.13 51.01,127.13 52.51,127.13 54.01,127.13 55.51,127.13 57.01,127.13 58.51,127.13 60.02,127.13 61.52,127.13 63.02,127.13 64.52,127.13 66.02,127.13 67.52,127.13 69.02,127.13 70.52,126.22 72.02,126.22 73.52,126.20 75.02,126.20 76.52,126.20 78.03,126.20 79.53,126.15 81.03,126.15 82.53,126.15 84.03,126.15 85.53,126.15 87.03,126.15 88.53,126.15 90.03,126.15 91.53,126.15 93.03,126.15 94.53,126.15 96.03,126.15 97.54,126.15 99.04,126.15 100.54,126.15 102.04,126.15 103.54,126.15 105.04,126.15 106.54,126.10 108.04,125.28 109.54,124.52 111.04,124.22 112.54,122.73 114.04,122.73 115.54,122.73 117.05,122.73 118.55,122.73 120.05,122.73 121.55,122.73 123.05,122.73 124.55,122.73 126.05,122.73 127.55,122.73 129.05,122.73 130.55,122.62 132.05,122.62 133.55,122.62 135.05,122.49 136.56,122.49 138.06,122.49 139.56,122.49 141.06,122.44 142.56,122.44 144.06,122.44 145.56,122.44 147.06,122.42 148.56,122.42 150.06,122.42 151.56,122.42 153.06,122.42 154.56,122.42 156.07,122.42 157.57,122.42 159.07,122.42 160.57,122.42 162.07,122.42 163.57,122.42 165.07,122.42 166.57,122.42 168.07,122.42 169.57,122.42 171.07,122.42 172.57,122.42 174.08,122.42 175.58,122.42 177.08,122.42 178.58,122.42 180.08,122.42 181.58,122.38 183.08,122.38 184.58,122.38 186.08,122.38 187.58,122.38 189.08,122.38 190.58,122.38 192.08,122.38 193.59,122.38 195.09,122.38 196.59,122.38 198.09,122.38 199.59,122.38 201.09,122.38 202.59,122.38 204.09,122.35 205.59,122.00 207.09,121.91 208.59,121.76 210.09,121.57 211.59,121.52 213.10,121.52 214.60,121.52 216.10,121.22 217.60,121.20 219.10,121.01 220.60,120.94 222.10,120.82 223.60,120.35 225.10,120.32 226.60,120.26 228.10,120.24 229.60,120.18 231.10,120.18 232.61,120.15 234.11,120.15 235.61,120.15 237.11,120.15 238.61,120.15 240.11,120.15 241.61,120.15 243.11,120.00 244.61,119.57 246.11,119.25 247.61,119.16 249.11,118.96 250.61,118.94 252.12,118.92 253.62,118.90 255.12,118.90 256.62,118.90 258.12,118.81 259.62,118.71 261.12,118.69 262.62,118.66 264.12,118.63 265.62,118.33 267.12,118.11 268.62,117.79 270.13,117.59 271.63,117.44 273.13,117.37 274.63,117.29 276.13,117.28 277.63,117.21 279.13,117.01 280.63,117.01 282.13,117.01 283.63,117.00 285.13,116.98 286.63,116.98 288.13,116.88 289.64,116.85 291.14,116.84 292.64,116.82 294.14,116.80 295.64,116.80 297.14,116.80 298.64,116.80 300.14,116.80 301.64,116.80 303.14,116.80 304.64,116.80 306.14,116.76 307.64,116.71 309.15,116.71 310.65,116.47 312.15,116.46 313.65,116.45 315.15,116.41 316.65,116.29 318.15,115.99 319.65,115.94 321.15,115.94 322.65,115.94 324.15,115.94 325.65,115.94 327.15,115.94 328.66,115.94 330.16,115.94 331.66,115.94 333.16,115.94 334.66,115.94 336.16,115.94 337.66,115.94 339.16,115.92 340.66,115.84 342.16,115.83 343.66,115.83 345.16,115.83 346.66,115.83 348.17,115.78 349.67,115.78 351.17,115.56 352.67,115.36 354.17,115.36 355.67,115.36 357.17,115.36 358.67,115.36 360.17,115.33 361.67,115.33 363.17,115.31 364.67,115.21 366.18,115.13 367.68,114.77 369.18,114.76 370.68,114.21 372.18,113.88 373.68,113.64 375.18,112.88 376.68,112.68 378.18,112.60 379.68,112.34 381.18,111.95 382.68,111.86 384.18,111.72 385.69,111.51 387.19,111.32 388.69,111.24 390.19,111.11 391.69,111.01 393.19,110.77 394.69,110.56 396.19,110.30 397.69,109.88 399.19,109.64 400.69,108.45 402.19,107.55 403.69,106.97 405.20,106.48 406.70,105.93 408.20,105.93 409.70,105.93 411.20,105.93 412.70,105.58 414.20,105.38 415.70,104.65 417.20,103.83 418.70,102.88 420.20,101.44 421.70,100.44 423.20,98.37 424.71,97.12 426.21,96.29 427.71,94.95 429.21,94.09 430.71,92.39 432.21,89.81 433.71,89.03 435.21,88.02 436.71,87.06 438.21,86.74 439.71,85.50 441.21,85.29 442.71,83.81 444.22,82.47 445.72,81.66 447.22,80.75 448.72,79.54 450.22,79.22 451.72,79.11 453.22,78.98 454.72,78.90 456.22,78.13 457.72,77.14 459.22,75.93 460.72,75.60 462.23,74.62 463.73,73.36 465.23,70.85 466.73,69.00 468.23,66.71 469.73,66.11 471.23,64.90 472.73,62.66 474.23,61.39 475.73,60.69 477.23,59.71 478.73,59.07 480.23,58.14 481.74,57.71 483.24,56.77 484.74,54.99 486.24,53.01 487.74,52.41 489.24,51.48 490.74,50.25 492.24,49.36 493.74,47.98 495.24,47.12 496.74,45.30 498.24,43.37 499.74,41.66 501.25,38.28 502.75,36.19 504.25,34.16 505.75,33.03 507.25,31.38 508.75,30.03" />
    </svg>
  