
    <svg width="540" height="160" xmlns="http://www.w3.org/2000/svg">
      <style>.line{fill:none;stroke:#388bfd;stroke-width:1.5}.axis{stroke:#555;stroke-width:1;opacity:0.5}.label{fill:#999;font-family:sans-serif;font-size:10px;text-anchor:middle}</style>
      <line class="axis" x1="30" y1="30" x2="30" y2="130" />
      <line class="axis" x1="30" y1="130" x2="510" y2="130" />
      <text class="label" x="15" y="30">4,930</text>
      <text class="label" x="15" y="134">0</text>
      <text class="label" x="30" y="148">2021</text>
      <text class="label" x="510" y="148">2026</text>
      <polyline class="line" points="30.00,129.96 31.53,129.94 33.06,129.92 34.58,129.92 36.11,129.92 37.64,129.66 39.17,129.66 40.69,129.66 42.22,128.19 43.75,125.78 45.28,125.66 46.81,125.66 48.33,125.66 49.86,125.66 51.39,125.66 52.92,125.66 54.45,125.66 55.97,125.66 57.50,125.66 59.03,125.66 60.56,125.66 62.08,125.66 63.61,125.66 65.14,125.66 66.67,125.66 68.20,125.66 69.72,125.66 71.25,124.28 72.78,124.28 74.31,124.26 75.84,124.26 77.36,124.26 78.89,124.26 80.42,124.18 81.95,124.18 83.47,124.18 85.00,124.18 86.53,124.18 88.06,124.18 89.59,124.18 91.11,124.18 92.64,124.18 94.17,124.18 95.70,124.18 97.23,124.18 98.75,124.18 100.28,124.18 101.81,124.18 103.34,124.18 104.86,124.18 106.39,124.18 107.92,124.10 109.45,122.86 110.98,121.72 112.50,121.26 114.03,119.01 115.56,119.01 117.09,119.01 118.62,119.01 120.14,119.01 121.67,119.01 123.20,119.01 124.73,119.01 126.25,119.01 127.78,119.01 129.31,119.01 130.84,119.01 132.37,118.84 133.89,118.84 135.42,118.84 136.95,118.64 138.48,118.64 140.01,118.64 141.53,118.64 143.06,118.58 144.59,118.58 146.12,118.58 147.64,118.58 149.17,118.54 150.70,118.54 152.23,118.54 153.76,118.54 155.28,118.54 156.81,118.54 158.34,118.54 159.87,118.54 161.40,118.54 162.92,118.54 164.45,118.54 165.98,118.54 167.51,118.54 169.03,118.54 170.56,118.54 172.09,118.54 173.62,118.54 175.15,118.54 176.67,118.54 178.20,118.54 179.73,118.54 181.26,118.54 182.79,118.54 184.31,118.48 185.84,118.48 187.37,118.48 188.90,118.48 190.42,118.48 191.95,118.48 193.48,118.48 195.01,118.48 196.54,118.48 198.06,118.48 199.59,118.48 201.12,118.48 202.65,118.48 204.18,118.48 205.70,118.48 207.23,118.44 208.76,117.91 210.29,117.77 211.81,117.55 213.34,117.26 214.87,117.18 216.40,117.18 217.93,117.18 219.45,116.73 220.98,116.69 222.51,116.41 224.04,116.31 225.56,116.13 227.09,115.42 228.62,115.38 230.15,115.27 231.68,115.25 233.20,115.15 234.73,115.15 236.26,115.11 237.79,115.11 239.32,115.11 240.84,115.11 242.37,115.11 243.90,115.11 245.43,115.11 246.95,114.89 248.48,114.24 250.01,113.75 251.54,113.61 253.07,113.31 254.59,113.29 256.12,113.25 257.65,113.23 259.18,113.23 260.71,113.23 262.23,113.08 263.76,112.94 265.29,112.90 266.82,112.86 268.34,112.82 269.87,112.35 271.40,112.03 272.93,111.54 274.46,111.24 275.98,111.01 277.51,110.91 279.04,110.79 280.57,110.77 282.10,110.67 283.62,110.37 285.15,110.37 286.68,110.37 288.21,110.34 289.73,110.32 291.26,110.32 292.79,110.16 294.32,110.12 295.85,110.10 297.37,110.08 298.90,110.04 300.43,110.04 301.96,110.04 303.49,110.04 305.01,110.04 306.54,110.04 308.07,110.04 309.60,110.04 311.12,109.98 312.65,109.92 314.18,109.92 315.71,109.55 317.24,109.53 318.76,109.51 320.29,109.45 321.82,109.27 323.35,108.82 324.88,108.74 326.40,108.74 327.93,108.74 329.46,108.74 330.99,108.74 332.51,108.74 334.04,108.74 335.57,108.74 337.10,108.74 338.63,108.74 340.15,108.74 341.68,108.74 343.21,108.74 344.74,108.72 346.27,108.60 347.79,108.58 349.32,108.58 350.85,108.58 352.38,108.58 353.90,108.50 355.43,108.50 356.96,108.17 358.49,107.87 360.02,107.87 361.54,107.87 363.07,107.87 364.60,107.87 366.13,107.83 367.66,107.83 369.18,107.79 370.71,107.65 372.24,107.53 373.77,106.98 375.29,106.96 376.82,106.13 378.35,105.64 379.88,105.27 381.41,104.12 382.93,103.81 384.46,103.69 385.99,103.31 387.52,102.72 389.05,102.58 390.57,102.37 392.10,102.05 393.63,101.76 395.16,101.64 396.68,101.44 398.21,101.30 399.74,100.93 401.27,100.61 402.80,100.22 404.32,99.59 405.85,99.23 407.38,97.42 408.91,96.06 410.44,95.19 411.96,94.44 413.49,93.61 415.02,93.61 416.55,93.61 418.07,93.61 419.60,93.08 421.13,92.78 422.66,92.11 424.19,91.34 425.71,90.28 427.24,88.62 428.77,87.69 430.30,85.98 431.82,84.99 433.35,84.36 434.88,83.33 436.41,82.52 437.94,81.14 439.46,79.13 440.99,78.54 442.52,77.69 444.05,76.96 445.58,76.71 447.10,75.78 448.63,75.62 450.16,74.50 451.69,73.49 453.21,72.88 454.74,72.17 456.27,71.20 457.80,70.91 459.33,70.77 460.85,70.63 462.38,70.51 463.91,69.74 465.44,68.86 466.97,67.48 468.49,67.08 470.02,66.37 471.55,65.21 473.08,62.64 474.60,60.69 476.13,58.52 477.66,58.05 479.19,57.10 480.72,55.17 482.24,54.00 483.77,53.35 485.30,52.37 486.83,51.87 488.36,51.16 489.88,50.83 491.41,49.74 492.94,48.09 494.47,46.53 495.99,46.06 497.52,45.25 499.05,43.79 500.58,42.70 502.11,41.08 503.63,40.24 505.16,38.58 506.69,36.37 508.22,34.48 509.75,30.49" />
    </svg>
  