
    <svg width="540" height="160" xmlns="http://www.w3.org/2000/svg">
      <style>.line{fill:none;stroke:#388bfd;stroke-width:1.5}.axis{stroke:#555;stroke-width:1;opacity:0.5}.label{fill:#999;font-family:sans-serif;font-size:10px;text-anchor:middle}</style>
      <line class="axis" x1="30" y1="30" x2="30" y2="130" />
      <line class="axis" x1="30" y1="130" x2="510" y2="130" />
      <text class="label" x="15" y="30">5,204</text>
      <text class="label" x="15" y="134">0</text>
      <text class="label" x="30" y="148">2021</text>
      <text class="label" x="510" y="148">2026</text>
      <polyline class="line" points="30.00,129.96 31.51,129.94 33.03,129.92 34.54,129.92 36.06,129.92 37.57,129.67 39.09,129.67 40.60,129.67 42.12,128.29 43.63,126.00 45.15,125.89 46.66,125.89 48.18,125.89 49.69,125.89 51.21,125.89 52.72,125.89 54.24,125.89 55.75,125.89 57.27,125.89 58.78,125.89 60.30,125.89 61.81,125.89 63.33,125.89 64.84,125.89 66.36,125.89 67.87,125.89 69.39,125.89 70.90,124.58 72.42,124.58 73.93,124.56 75.45,124.56 76.96,124.56 78.48,124.56 79.99,124.49 81.51,124.49 83.02,124.49 84.54,124.49 86.05,124.49 87.57,124.49 89.08,124.49 90.60,124.49 92.11,124.49 93.63,124.49 95.14,124.49 96.66,124.49 98.17,124.49 99.69,124.49 101.20,124.49 102.72,124.49 104.23,124.49 105.75,124.49 107.26,124.41 108.78,123.24 110.29,122.16 111.81,121.72 113.32,119.58 114.84,119.58 116.35,119.58 117.87,119.58 119.38,119.58 120.90,119.58 122.41,119.58 123.93,119.58 125.44,119.58 126.96,119.58 128.47,119.58 129.99,119.58 131.50,119.43 133.02,119.43 134.53,119.43 136.05,119.24 137.56,119.24 139.08,119.24 140.59,119.24 142.11,119.18 143.62,119.18 145.14,119.18 146.65,119.18 148.17,119.14 149.68,119.14 151.20,119.14 152.71,119.14 154.23,119.14 155.74,119.14 157.26,119.14 158.77,119.14 160.29,119.14 161.80,119.14 163.32,119.14 164.83,119.14 166.35,119.14 167.86,119.14 169.38,119.14 170.89,119.14 172.41,119.14 173.92,119.14 175.44,119.14 176.95,119.14 178.47,119.14 179.98,119.14 181.50,119.14 183.01,119.09 184.53,119.09 186.04,119.09 187.56,119.09 189.07,119.09 190.59,119.09 192.10,119.09 193.62,119.09 195.13,119.09 196.65,119.09 198.16,119.09 199.68,119.09 201.19,119.09 202.71,119.09 204.22,119.09 205.74,119.05 207.25,118.55 208.77,118.41 210.28,118.20 211.80,117.93 213.31,117.86 214.83,117.86 216.34,117.86 217.86,117.43 219.37,117.39 220.89,117.13 222.40,117.03 223.92,116.86 225.43,116.18 226.95,116.15 228.46,116.05 229.98,116.03 231.49,115.93 233.01,115.93 234.52,115.90 236.04,115.90 237.55,115.90 239.07,115.90 240.58,115.90 242.10,115.90 243.61,115.90 245.13,115.68 246.64,115.07 248.16,114.61 249.67,114.47 251.19,114.19 252.70,114.17 254.22,114.13 255.73,114.11 257.25,114.11 258.76,114.11 260.28,113.97 261.79,113.84 263.31,113.80 264.82,113.76 266.34,113.72 267.85,113.28 269.37,112.97 270.88,112.51 272.40,112.23 273.91,112.01 275.43,111.92 276.94,111.80 278.46,111.78 279.97,111.69 281.49,111.40 283.00,111.40 284.52,111.40 286.03,111.38 287.55,111.36 289.06,111.36 290.58,111.21 292.09,111.17 293.61,111.15 295.12,111.13 296.64,111.09 298.15,111.09 299.67,111.09 301.18,111.09 302.70,111.09 304.21,111.09 305.73,111.09 307.24,111.09 308.76,111.03 310.27,110.98 311.79,110.98 313.30,110.63 314.82,110.61 316.33,110.59 317.85,110.53 319.36,110.36 320.88,109.94 322.39,109.86 323.91,109.86 325.42,109.86 326.94,109.86 328.45,109.86 329.97,109.86 331.48,109.86 333.00,109.86 334.51,109.86 336.03,109.86 337.54,109.86 339.06,109.86 340.57,109.86 342.09,109.84 343.60,109.73 345.12,109.71 346.63,109.71 348.15,109.71 349.66,109.71 351.18,109.63 352.69,109.63 354.21,109.32 355.72,109.04 357.24,109.04 358.75,109.04 360.27,109.04 361.78,109.04 363.30,109.00 364.81,109.00 366.33,108.96 367.84,108.82 369.36,108.71 370.87,108.19 372.39,108.17 373.90,107.38 375.42,106.92 376.93,106.58 378.45,105.48 379.96,105.19 381.48,105.08 382.99,104.71 384.51,104.15 386.02,104.02 387.54,103.83 389.05,103.52 390.57,103.25 392.08,103.14 393.60,102.94 395.11,102.81 396.63,102.46 398.14,102.16 399.66,101.79 401.17,101.20 402.69,100.85 404.20,99.14 405.72,97.85 407.23,97.03 408.75,96.31 410.26,95.53 411.78,95.53 413.29,95.53 414.81,95.53 416.32,95.03 417.84,94.74 419.35,94.10 420.87,93.37 422.38,92.38 423.90,90.80 425.41,89.92 426.93,88.30 428.44,87.36 429.96,86.76 431.47,85.78 432.99,85.02 434.50,83.71 436.02,81.81 437.53,81.25 439.05,80.44 440.56,79.75 442.08,79.52 443.59,78.64 445.11,78.48 446.62,77.43 448.14,76.46 449.65,75.89 451.17,75.22 452.68,74.29 454.20,74.02 455.71,73.89 457.23,73.75 458.74,73.64 460.26,72.91 461.77,72.08 463.29,70.78 464.80,70.39 466.32,69.72 467.83,68.62 469.35,66.18 470.86,64.34 472.38,62.28 473.89,61.84 475.41,60.94 476.92,59.11 478.44,58.00 479.95,57.38 481.47,56.46 482.98,55.98 484.50,55.31 486.01,55.00 487.53,53.96 489.04,52.41 490.56,50.93 492.07,50.48 493.59,49.72 495.10,48.33 496.62,47.29 498.13,45.76 499.65,44.97 501.16,43.39 502.68,41.30 504.19,39.51 505.71,35.73 507.22,33.06 508.74,31.21" />
    </svg>
  