
    <svg width="540" height="160" xmlns="http://www.w3.org/2000/svg">
      <style>.line{fill:none;stroke:#388bfd;stroke-width:1.5}.axis{stroke:#555;stroke-width:1;opacity:0.5}.label{fill:#999;font-family:sans-serif;font-size:10px;text-anchor:middle}</style>
      <line class="axis" x1="30" y1="30" x2="30" y2="130" />
      <line class="axis" x1="30" y1="130" x2="510" y2="130" />
      <text class="label" x="15" y="30">9,253</text>
      <text class="label" x="15" y="134">0</text>
      <text class="label" x="30" y="148">2021</text>
      <text class="label" x="510" y="148">2026</text>
      <polyline class="line" points="30.00,129.98 31.45,129.97 32.89,129.96 34.34,129.96 35.79,129.96 37.24,129.82 38.68,129.82 40.13,129.82 41.58,129.04 43.03,127.75 44.47,127.69 45.92,127.69 47.37,127.69 48.81,127.69 50.26,127.69 51.71,127.69 53.16,127.69 54.60,127.69 56.05,127.69 57.50,127.69 58.94,127.69 60.39,127.69 61.84,127.69 63.29,127.69 64.73,127.69 66.18,127.69 67.63,127.69 69.08,126.95 70.52,126.95 71.97,126.94 73.42,126.94 74.86,126.94 76.31,126.94 77.76,126.90 79.21,126.90 80.65,126.90 82.10,126.90 83.55,126.90 84.99,126.90 86.44,126.90 87.89,126.90 89.34,126.90 90.78,126.90 92.23,126.90 93.68,126.90 95.13,126.90 96.57,126.90 98.02,126.90 99.47,126.90 100.91,126.90 102.36,126.90 103.81,126.86 105.26,126.20 106.70,125.59 108.15,125.34 109.60,124.14 111.05,124.14 112.49,124.14 113.94,124.14 115.39,124.14 116.83,124.14 118.28,124.14 119.73,124.14 121.18,124.14 122.62,124.14 124.07,124.14 125.52,124.14 126.96,124.06 128.41,124.06 129.86,124.06 131.31,123.95 132.75,123.95 134.20,123.95 135.65,123.95 137.10,123.92 138.54,123.92 139.99,123.92 141.44,123.92 142.88,123.89 144.33,123.89 145.78,123.89 147.23,123.89 148.67,123.89 150.12,123.89 151.57,123.89 153.02,123.89 154.46,123.89 155.91,123.89 157.36,123.89 158.80,123.89 160.25,123.89 161.70,123.89 163.15,123.89 164.59,123.89 166.04,123.89 167.49,123.89 168.93,123.89 170.38,123.89 171.83,123.89 173.28,123.89 174.72,123.89 176.17,123.86 177.62,123.86 179.07,123.86 180.51,123.86 181.96,123.86 183.41,123.86 184.85,123.86 186.30,123.86 187.75,123.86 189.20,123.86 190.64,123.86 192.09,123.86 193.54,123.86 194.98,123.86 196.43,123.86 197.88,123.84 199.33,123.56 200.77,123.48 202.22,123.36 203.67,123.21 205.12,123.17 206.56,123.17 208.01,123.17 209.46,122.93 210.90,122.91 212.35,122.76 213.80,122.71 215.25,122.61 216.69,122.23 218.14,122.21 219.59,122.15 221.04,122.14 222.48,122.09 223.93,122.09 225.38,122.07 226.82,122.07 228.27,122.07 229.72,122.07 231.17,122.07 232.61,122.07 234.06,122.07 235.51,121.95 236.95,121.60 238.40,121.34 239.85,121.27 241.30,121.11 242.74,121.09 244.19,121.07 245.64,121.06 247.09,121.06 248.53,121.06 249.98,120.99 251.43,120.91 252.87,120.89 254.32,120.87 255.77,120.85 257.22,120.60 258.66,120.42 260.11,120.17 261.56,120.00 263.01,119.88 264.45,119.83 265.90,119.77 267.35,119.75 268.79,119.70 270.24,119.54 271.69,119.54 273.14,119.54 274.58,119.53 276.03,119.52 277.48,119.52 278.92,119.43 280.37,119.41 281.82,119.40 283.27,119.39 284.71,119.37 286.16,119.37 287.61,119.37 289.06,119.37 290.50,119.37 291.95,119.37 293.40,119.37 294.84,119.37 296.29,119.33 297.74,119.30 299.19,119.30 300.63,119.11 302.08,119.10 303.53,119.08 304.97,119.05 306.42,118.95 307.87,118.72 309.32,118.67 310.76,118.67 312.21,118.67 313.66,118.67 315.11,118.67 316.55,118.67 318.00,118.67 319.45,118.67 320.89,118.67 322.34,118.67 323.79,118.67 325.24,118.67 326.68,118.67 328.13,118.66 329.58,118.60 331.03,118.59 332.47,118.59 333.92,118.59 335.37,118.59 336.81,118.54 338.26,118.54 339.71,118.37 341.16,118.21 342.60,118.21 344.05,118.21 345.50,118.21 346.94,118.21 348.39,118.19 349.84,118.19 351.29,118.17 352.73,118.09 354.18,118.03 355.63,117.73 357.08,117.72 358.52,117.28 359.97,117.02 361.42,116.83 362.86,116.21 364.31,116.05 365.76,115.98 367.21,115.78 368.65,115.46 370.10,115.39 371.55,115.28 372.99,115.11 374.44,114.96 375.89,114.89 377.34,114.78 378.78,114.71 380.23,114.51 381.68,114.34 383.13,114.13 384.57,113.80 386.02,113.61 387.47,112.64 388.91,111.92 390.36,111.45 391.81,111.05 393.26,110.61 394.70,110.61 396.15,110.61 397.60,110.61 399.05,110.33 400.49,110.17 401.94,109.58 403.39,108.93 404.83,108.16 406.28,107.00 407.73,106.19 409.18,104.53 410.62,103.52 412.07,102.85 413.52,101.77 414.96,101.08 416.41,99.71 417.86,97.63 419.31,97.01 420.75,96.19 422.20,95.42 423.65,95.16 425.10,94.16 426.54,93.99 427.99,92.80 429.44,91.72 430.88,91.07 432.33,90.34 433.78,89.36 435.23,89.11 436.67,89.02 438.12,88.91 439.57,88.85 441.02,88.23 442.46,87.43 443.91,86.46 445.36,86.19 446.80,85.40 448.25,84.38 449.70,82.36 451.15,80.87 452.59,79.03 454.04,78.55 455.49,77.57 456.93,75.77 458.38,74.74 459.83,74.18 461.28,73.39 462.72,72.87 464.17,72.13 465.62,71.78 467.07,71.02 468.51,69.59 469.96,68.00 471.41,67.51 472.85,66.62 474.30,64.97 475.75,64.13 477.20,62.09 478.64,61.11 480.09,59.34 481.54,57.61 482.98,55.53 484.43,52.39 485.88,50.32 487.33,48.53 488.77,47.39 490.22,45.91 491.67,44.58 493.12,43.93 494.56,42.85 496.01,41.54 497.46,40.81 498.90,39.68 500.35,38.83 501.80,38.02 503.25,36.80 504.69,34.57 506.14,32.84 507.59,31.34 509.04,30.11" />
    </svg>
  