
    <svg width="540" height="160" xmlns="http://www.w3.org/2000/svg">
      <style>.line{fill:none;stroke:#388bfd;stroke-width:1.5}.axis{stroke:#555;stroke-width:1;opacity:0.5}.label{fill:#999;font-family:sans-serif;font-size:10px;text-anchor:middle}</style>
      <line class="axis" x1="30" y1="30" x2="30" y2="130" />
      <line class="axis" x1="30" y1="130" x2="510" y2="130" />
      <text class="label" x="15" y="30">7,845</text>
      <text class="label" x="15" y="134">0</text>
      <text class="label" x="30" y="148">2021</text>
      <text class="label" x="510" y="148">2026</text>
      <polyline class="line" points="30.00,129.97 31.49,129.96 32.97,129.95 34.46,129.95 35.94,129.95 37.43,129.78 38.92,129.78 40.40,129.78 41.89,128.87 43.37,127.35 44.86,127.27 46.35,127.27 47.83,127.27 49.32,127.27 50.80,127.27 52.29,127.27 53.78,127.27 55.26,127.27 56.75,127.27 58.24,127.27 59.72,127.27 61.21,127.27 62.69,127.27 64.18,127.27 65.67,127.27 67.15,127.27 68.64,127.27 70.12,126.41 71.61,126.41 73.10,126.39 74.58,126.39 76.07,126.39 77.55,126.39 79.04,126.34 80.53,126.34 82.01,126.34 83.50,126.34 84.98,126.34 86.47,126.34 87.96,126.34 89.44,126.34 90.93,126.34 92.41,126.34 93.90,126.34 95.39,126.34 96.87,126.34 98.36,126.34 99.85,126.34 101.33,126.34 102.82,126.34 104.30,126.34 105.79,126.29 107.28,125.51 108.76,124.80 110.25,124.51 111.73,123.09 113.22,123.09 114.71,123.09 116.19,123.09 117.68,123.09 119.16,123.09 120.65,123.09 122.14,123.09 123.62,123.09 125.11,123.09 126.59,123.09 128.08,123.09 129.57,122.99 131.05,122.99 132.54,122.99 134.02,122.86 135.51,122.86 137.00,122.86 138.48,122.86 139.97,122.82 141.46,122.82 142.94,122.82 144.43,122.82 145.91,122.80 147.40,122.80 148.89,122.80 150.37,122.80 151.86,122.80 153.34,122.80 154.83,122.80 156.32,122.80 157.80,122.80 159.29,122.80 160.77,122.80 162.26,122.80 163.75,122.80 165.23,122.80 166.72,122.80 168.20,122.80 169.69,122.80 171.18,122.80 172.66,122.80 174.15,122.80 175.63,122.80 177.12,122.80 178.61,122.80 180.09,122.76 181.58,122.76 183.07,122.76 184.55,122.76 186.04,122.76 187.52,122.76 189.01,122.76 190.50,122.76 191.98,122.76 193.47,122.76 194.95,122.76 196.44,122.76 197.93,122.76 199.41,122.76 200.90,122.76 202.38,122.73 203.87,122.40 205.36,122.31 206.84,122.17 208.33,121.99 209.81,121.94 211.30,121.94 212.79,121.94 214.27,121.66 215.76,121.64 217.24,121.46 218.73,121.40 220.22,121.28 221.70,120.83 223.19,120.81 224.67,120.75 226.16,120.73 227.65,120.67 229.13,120.67 230.62,120.64 232.11,120.64 233.59,120.64 235.08,120.64 236.56,120.64 238.05,120.64 239.54,120.64 241.02,120.50 242.51,120.10 243.99,119.79 245.48,119.70 246.97,119.51 248.45,119.50 249.94,119.47 251.42,119.46 252.91,119.46 254.40,119.46 255.88,119.37 257.37,119.28 258.85,119.25 260.34,119.23 261.83,119.20 263.31,118.91 264.80,118.71 266.28,118.40 267.77,118.21 269.26,118.07 270.74,118.01 272.23,117.93 273.72,117.92 275.20,117.85 276.69,117.66 278.17,117.66 279.66,117.66 281.15,117.65 282.63,117.64 284.12,117.64 285.60,117.53 287.09,117.51 288.58,117.50 290.06,117.48 291.55,117.46 293.03,117.46 294.52,117.46 296.01,117.46 297.49,117.46 298.98,117.46 300.46,117.46 301.95,117.46 303.44,117.42 304.92,117.38 306.41,117.38 307.89,117.15 309.38,117.14 310.87,117.13 312.35,117.09 313.84,116.97 315.33,116.69 316.81,116.64 318.30,116.64 319.78,116.64 321.27,116.64 322.76,116.64 324.24,116.64 325.73,116.64 327.21,116.64 328.70,116.64 330.19,116.64 331.67,116.64 333.16,116.64 334.64,116.64 336.13,116.63 337.62,116.55 339.10,116.54 340.59,116.54 342.07,116.54 343.56,116.54 345.05,116.49 346.53,116.49 348.02,116.28 349.50,116.09 350.99,116.09 352.48,116.09 353.96,116.09 355.45,116.09 356.93,116.07 358.42,116.07 359.91,116.04 361.39,115.95 362.88,115.88 364.37,115.53 365.85,115.52 367.34,115.00 368.82,114.69 370.31,114.46 371.80,113.73 373.28,113.54 374.77,113.47 376.25,113.22 377.74,112.86 379.23,112.77 380.71,112.64 382.20,112.43 383.68,112.26 385.17,112.18 386.66,112.05 388.14,111.96 389.63,111.73 391.11,111.53 392.60,111.29 394.09,110.89 395.57,110.66 397.06,109.53 398.54,108.67 400.03,108.13 401.52,107.65 403.00,107.13 404.49,107.13 405.98,107.13 407.46,107.13 408.95,106.80 410.43,106.61 411.92,105.92 413.41,105.14 414.89,104.24 416.38,102.87 417.86,101.92 419.35,99.96 420.84,98.77 422.32,97.98 423.81,96.70 425.29,95.89 426.78,94.27 428.27,91.82 429.75,91.08 431.24,90.13 432.72,89.21 434.21,88.90 435.70,87.73 437.18,87.53 438.67,86.12 440.15,84.85 441.64,84.09 443.13,83.22 444.61,82.07 446.10,81.77 447.59,81.66 449.07,81.54 450.56,81.46 452.04,80.73 453.53,79.79 455.02,78.64 456.50,78.32 457.99,77.39 459.47,76.20 460.96,73.81 462.45,72.05 463.93,69.89 465.42,69.31 466.90,68.16 468.39,66.04 469.88,64.82 471.36,64.16 472.85,63.23 474.33,62.62 475.82,61.74 477.31,61.33 478.79,60.44 480.28,58.74 481.76,56.87 483.25,56.30 484.74,55.33 486.22,53.77 487.71,52.86 489.20,50.99 490.68,50.01 492.17,48.10 493.65,46.16 495.14,44.12 496.63,40.67 498.11,38.57 499.60,36.55 501.08,35.43 502.57,33.77 504.06,32.36 505.54,31.87 507.03,31.10 508.51,30.20 510.00,30.00" />
    </svg>
  