
    <svg width="540" height="160" xmlns="http://www.w3.org/2000/svg">
      <style>.line{fill:none;stroke:#388bfd;stroke-width:1.5}.axis{stroke:#555;stroke-width:1;opacity:0.5}.label{fill:#999;font-family:sans-serif;font-size:10px;text-anchor:middle}</style>
      <line class="axis" x1="30" y1="30" x2="30" y2="130" />
      <line class="axis" x1="30" y1="130" x2="510" y2="130" />
      <text class="label" x="15" y="30">7,829</text>
      <text class="label" x="15" y="134">0</text>
      <text class="label" x="30" y="148">2021</text>
      <text class="label" x="510" y="148">2026</text>
      <polyline class="line" points="30.00,129.97 31.49,129.96 32.98,129.95 34.47,129.95 35.97,129.95 37.46,129.78 38.95,129.78 40.44,129.78 41.93,128.86 43.42,127.34 44.91,127.27 46.41,127.27 47.90,127.27 49.39,127.27 50.88,127.27 52.37,127.27 53.86,127.27 55.35,127.27 56.85,127.27 58.34,127.27 59.83,127.27 61.32,127.27 62.81,127.27 64.30,127.27 65.79,127.27 67.29,127.27 68.78,127.27 70.27,126.40 71.76,126.40 73.25,126.39 74.74,126.39 76.24,126.39 77.73,126.39 79.22,126.33 80.71,126.33 82.20,126.33 83.69,126.33 85.18,126.33 86.68,126.33 88.17,126.33 89.66,126.33 91.15,126.33 92.64,126.33 94.13,126.33 95.62,126.33 97.12,126.33 98.61,126.33 100.10,126.33 101.59,126.33 103.08,126.33 104.57,126.33 106.06,126.28 107.56,125.50 109.05,124.79 110.54,124.49 112.03,123.08 113.52,123.08 115.01,123.08 116.50,123.08 118.00,123.08 119.49,123.08 120.98,123.08 122.47,123.08 123.96,123.08 125.45,123.08 126.94,123.08 128.44,123.08 129.93,122.97 131.42,122.97 132.91,122.97 134.40,122.85 135.89,122.85 137.38,122.85 138.88,122.85 140.37,122.81 141.86,122.81 143.35,122.81 144.84,122.81 146.33,122.78 147.82,122.78 149.32,122.78 150.81,122.78 152.30,122.78 153.79,122.78 155.28,122.78 156.77,122.78 158.27,122.78 159.76,122.78 161.25,122.78 162.74,122.78 164.23,122.78 165.72,122.78 167.21,122.78 168.71,122.78 170.20,122.78 171.69,122.78 173.18,122.78 174.67,122.78 176.16,122.78 177.65,122.78 179.15,122.78 180.64,122.74 182.13,122.74 183.62,122.74 185.11,122.74 186.60,122.74 188.09,122.74 189.59,122.74 191.08,122.74 192.57,122.74 194.06,122.74 195.55,122.74 197.04,122.74 198.53,122.74 200.03,122.74 201.52,122.74 203.01,122.72 204.50,122.39 205.99,122.30 207.48,122.16 208.97,121.98 210.47,121.93 211.96,121.93 213.45,121.93 214.94,121.65 216.43,121.62 217.92,121.44 219.41,121.38 220.91,121.26 222.40,120.82 223.89,120.79 225.38,120.73 226.87,120.71 228.36,120.65 229.85,120.65 231.35,120.62 232.84,120.62 234.33,120.62 235.82,120.62 237.31,120.62 238.80,120.62 240.30,120.62 241.79,120.48 243.28,120.08 244.77,119.77 246.26,119.68 247.75,119.49 249.24,119.48 250.74,119.45 252.23,119.44 253.72,119.44 255.21,119.44 256.70,119.35 258.19,119.26 259.68,119.23 261.18,119.21 262.67,119.18 264.16,118.89 265.65,118.68 267.14,118.38 268.63,118.18 270.12,118.04 271.62,117.98 273.11,117.90 274.60,117.89 276.09,117.83 277.58,117.64 279.07,117.64 280.56,117.64 282.06,117.62 283.55,117.61 285.04,117.61 286.53,117.51 288.02,117.48 289.51,117.47 291.00,117.46 292.50,117.43 293.99,117.43 295.48,117.43 296.97,117.43 298.46,117.43 299.95,117.43 301.44,117.43 302.94,117.43 304.43,117.39 305.92,117.35 307.41,117.35 308.90,117.12 310.39,117.11 311.89,117.10 313.38,117.06 314.87,116.95 316.36,116.66 317.85,116.61 319.34,116.61 320.83,116.61 322.33,116.61 323.82,116.61 325.31,116.61 326.80,116.61 328.29,116.61 329.78,116.61 331.27,116.61 332.77,116.61 334.26,116.61 335.75,116.61 337.24,116.60 338.73,116.52 340.22,116.51 341.71,116.51 343.21,116.51 344.70,116.51 346.19,116.46 347.68,116.46 349.17,116.26 350.66,116.06 352.15,116.06 353.65,116.06 355.14,116.06 356.63,116.06 358.12,116.04 359.61,116.04 361.10,116.01 362.59,115.92 364.09,115.85 365.58,115.50 367.07,115.49 368.56,114.97 370.05,114.66 371.54,114.43 373.03,113.70 374.53,113.51 376.02,113.43 377.51,113.19 379.00,112.82 380.49,112.73 381.98,112.60 383.47,112.40 384.97,112.22 386.46,112.14 387.95,112.02 389.44,111.93 390.93,111.70 392.42,111.49 393.92,111.25 395.41,110.85 396.90,110.62 398.39,109.49 399.88,108.63 401.37,108.08 402.86,107.61 404.36,107.09 405.85,107.09 407.34,107.09 408.83,107.09 410.32,106.75 411.81,106.56 413.30,105.87 414.80,105.09 416.29,104.19 417.78,102.82 419.27,101.86 420.76,99.89 422.25,98.71 423.74,97.91 425.24,96.64 426.73,95.82 428.22,94.20 429.71,91.74 431.20,91.00 432.69,90.05 434.18,89.13 435.68,88.82 437.17,87.64 438.66,87.44 440.15,86.04 441.64,84.76 443.13,83.99 444.62,83.12 446.12,81.97 447.61,81.67 449.10,81.56 450.59,81.44 452.08,81.36 453.57,80.63 455.06,79.69 456.56,78.54 458.05,78.22 459.54,77.29 461.03,76.09 462.52,73.70 464.01,71.93 465.50,69.76 467.00,69.19 468.49,68.04 469.98,65.90 471.47,64.69 472.96,64.03 474.45,63.09 475.95,62.48 477.44,61.60 478.93,61.19 480.42,60.30 481.91,58.60 483.40,56.72 484.89,56.15 486.39,55.18 487.88,53.62 489.37,52.70 490.86,50.83 492.35,49.85 493.84,47.93 495.33,45.99 496.83,43.95 498.32,40.49 499.81,38.38 501.30,36.36 502.79,35.24 504.28,33.58 505.77,32.16 507.27,31.67 508.76,30.89" />
    </svg>
  