
    <svg width="540" height="160" xmlns="http://www.w3.org/2000/svg">
      <style>.line{fill:none;stroke:#388bfd;stroke-width:1.5}.axis{stroke:#555;stroke-width:1;opacity:0.5}.label{fill:#999;font-family:sans-serif;font-size:10px;text-anchor:middle}</style>
      <line class="axis" x1="30" y1="30" x2="30" y2="130" />
      <line class="axis" x1="30" y1="130" x2="510" y2="130" />
      <text class="label" x="15" y="30">7,371</text>
      <text class="label" x="15" y="134">0</text>
      <text class="label" x="30" y="148">2021</text>
      <text class="label" x="510" y="148">2026</text>
      <polyline class="line" points="30.00,129.97 31.51,129.96 33.02,129.95 34.52,129.95 36.03,129.95 37.54,129.77 39.05,129.77 40.55,129.77 42.06,128.79 43.57,127.18 45.08,127.10 46.59,127.10 48.09,127.10 49.60,127.10 51.11,127.10 52.62,127.10 54.13,127.10 55.63,127.10 57.14,127.10 58.65,127.10 60.16,127.10 61.66,127.10 63.17,127.10 64.68,127.10 66.19,127.10 67.70,127.10 69.20,127.10 70.71,126.17 72.22,126.17 73.73,126.16 75.24,126.16 76.74,126.16 78.25,126.16 79.76,126.11 81.27,126.11 82.77,126.11 84.28,126.11 85.79,126.11 87.30,126.11 88.81,126.11 90.31,126.11 91.82,126.11 93.33,126.11 94.84,126.11 96.35,126.11 97.85,126.11 99.36,126.11 100.87,126.11 102.38,126.11 103.88,126.11 105.39,126.11 106.90,126.05 108.41,125.22 109.92,124.46 111.42,124.15 112.93,122.65 114.44,122.65 115.95,122.65 117.46,122.65 118.96,122.65 120.47,122.65 121.98,122.65 123.49,122.65 124.99,122.65 126.50,122.65 128.01,122.65 129.52,122.65 131.03,122.54 132.53,122.54 134.04,122.54 135.55,122.40 137.06,122.40 138.57,122.40 140.07,122.40 141.58,122.36 143.09,122.36 144.60,122.36 146.10,122.36 147.61,122.33 149.12,122.33 150.63,122.33 152.14,122.33 153.64,122.33 155.15,122.33 156.66,122.33 158.17,122.33 159.68,122.33 161.18,122.33 162.69,122.33 164.20,122.33 165.71,122.33 167.21,122.33 168.72,122.33 170.23,122.33 171.74,122.33 173.25,122.33 174.75,122.33 176.26,122.33 177.77,122.33 179.28,122.33 180.79,122.33 182.29,122.29 183.80,122.29 185.31,122.29 186.82,122.29 188.32,122.29 189.83,122.29 191.34,122.29 192.85,122.29 194.36,122.29 195.86,122.29 197.37,122.29 198.88,122.29 200.39,122.29 201.90,122.29 203.40,122.29 204.91,122.27 206.42,121.91 207.93,121.82 209.43,121.67 210.94,121.48 212.45,121.43 213.96,121.43 215.47,121.43 216.97,121.13 218.48,121.10 219.99,120.91 221.50,120.84 223.01,120.72 224.51,120.25 226.02,120.22 227.53,120.15 229.04,120.14 230.54,120.07 232.05,120.07 233.56,120.04 235.07,120.04 236.58,120.04 238.08,120.04 239.59,120.04 241.10,120.04 242.61,120.04 244.12,119.89 245.62,119.46 247.13,119.13 248.64,119.04 250.15,118.83 251.65,118.82 253.16,118.79 254.67,118.78 256.18,118.78 257.69,118.78 259.19,118.69 260.70,118.59 262.21,118.56 263.72,118.54 265.23,118.51 266.73,118.20 268.24,117.98 269.75,117.65 271.26,117.45 272.76,117.30 274.27,117.23 275.78,117.15 277.29,117.14 278.80,117.07 280.30,116.87 281.81,116.87 283.32,116.87 284.83,116.85 286.34,116.84 287.84,116.84 289.35,116.73 290.86,116.70 292.37,116.69 293.87,116.68 295.38,116.65 296.89,116.65 298.40,116.65 299.91,116.65 301.41,116.65 302.92,116.65 304.43,116.65 305.94,116.65 307.45,116.61 308.95,116.57 310.46,116.57 311.97,116.32 313.48,116.31 314.98,116.30 316.49,116.26 318.00,116.13 319.51,115.84 321.02,115.78 322.52,115.78 324.03,115.78 325.54,115.78 327.05,115.78 328.55,115.78 330.06,115.78 331.57,115.78 333.08,115.78 334.59,115.78 336.09,115.78 337.60,115.78 339.11,115.78 340.62,115.77 342.13,115.69 343.63,115.67 345.14,115.67 346.65,115.67 348.16,115.67 349.66,115.62 351.17,115.62 352.68,115.40 354.19,115.20 355.70,115.20 357.20,115.20 358.71,115.20 360.22,115.20 361.73,115.17 363.24,115.17 364.74,115.14 366.25,115.05 367.76,114.97 369.27,114.60 370.77,114.59 372.28,114.03 373.79,113.71 375.30,113.46 376.81,112.69 378.31,112.49 379.82,112.40 381.33,112.15 382.84,111.75 384.35,111.66 385.85,111.52 387.36,111.31 388.87,111.12 390.38,111.03 391.88,110.90 393.39,110.80 394.90,110.56 396.41,110.34 397.92,110.08 399.42,109.66 400.93,109.42 402.44,108.21 403.95,107.30 405.46,106.72 406.96,106.22 408.47,105.66 409.98,105.66 411.49,105.66 412.99,105.66 414.50,105.31 416.01,105.11 417.52,104.37 419.03,103.54 420.53,102.58 422.04,101.13 423.55,100.11 425.06,98.02 426.57,96.76 428.07,95.92 429.58,94.56 431.09,93.70 432.60,91.97 434.10,89.37 435.61,88.58 437.12,87.56 438.63,86.59 440.14,86.26 441.64,85.01 443.15,84.80 444.66,83.30 446.17,81.95 447.68,81.13 449.18,80.21 450.69,78.99 452.20,78.66 453.71,78.56 455.21,78.42 456.72,78.34 458.23,77.56 459.74,76.56 461.25,75.34 462.75,75.00 464.26,74.01 465.77,72.74 467.28,70.20 468.79,68.33 470.29,66.02 471.80,65.41 473.31,64.19 474.82,61.92 476.32,60.63 477.83,59.93 479.34,58.94 480.85,58.29 482.36,57.35 483.86,56.92 485.37,55.97 486.88,54.16 488.39,52.17 489.90,51.56 491.40,50.62 492.91,49.37 494.42,48.48 495.93,47.08 497.43,46.21 498.94,44.37 500.45,42.41 501.96,40.69 503.47,37.27 504.97,35.16 506.48,33.11 507.99,31.97 509.50,30.30" />
    </svg>
  