
    <svg width="540" height="160" xmlns="http://www.w3.org/2000/svg">
      <style>.line{fill:none;stroke:#388bfd;stroke-width:1.5}.axis{stroke:#555;stroke-width:1;opacity:0.5}.label{fill:#999;font-family:sans-serif;font-size:10px;text-anchor:middle}</style>
      <line class="axis" x1="30" y1="30" x2="30" y2="130" />
      <line class="axis" x1="30" y1="130" x2="510" y2="130" />
      <text class="label" x="15" y="30">9,376</text>
      <text class="label" x="15" y="134">0</text>
      <text class="label" x="30" y="148">2021</text>
      <text class="label" x="510" y="148">2026</text>
      <polyline class="line" points="30.00,129.98 31.44,129.97 32.88,129.96 34.31,129.96 35.75,129.96 37.19,129.82 38.63,129.82 40.06,129.82 41.50,129.05 42.94,127.78 44.38,127.72 45.82,127.72 47.25,127.72 48.69,127.72 50.13,127.72 51.57,127.72 53.01,127.72 54.44,127.72 55.88,127.72 57.32,127.72 58.76,127.72 60.19,127.72 61.63,127.72 63.07,127.72 64.51,127.72 65.95,127.72 67.38,127.72 68.82,126.99 70.26,126.99 71.70,126.98 73.14,126.98 74.57,126.98 76.01,126.98 77.45,126.94 78.89,126.94 80.32,126.94 81.76,126.94 83.20,126.94 84.64,126.94 86.08,126.94 87.51,126.94 88.95,126.94 90.39,126.94 91.83,126.94 93.27,126.94 94.70,126.94 96.14,126.94 97.58,126.94 99.02,126.94 100.45,126.94 101.89,126.94 103.33,126.90 104.77,126.25 106.21,125.65 107.64,125.40 109.08,124.22 110.52,124.22 111.96,124.22 113.39,124.22 114.83,124.22 116.27,124.22 117.71,124.22 119.15,124.22 120.58,124.22 122.02,124.22 123.46,124.22 124.90,124.22 126.34,124.13 127.77,124.13 129.21,124.13 130.65,124.03 132.09,124.03 133.52,124.03 134.96,124.03 136.40,124.00 137.84,124.00 139.28,124.00 140.71,124.00 142.15,123.97 143.59,123.97 145.03,123.97 146.47,123.97 147.90,123.97 149.34,123.97 150.78,123.97 152.22,123.97 153.65,123.97 155.09,123.97 156.53,123.97 157.97,123.97 159.41,123.97 160.84,123.97 162.28,123.97 163.72,123.97 165.16,123.97 166.60,123.97 168.03,123.97 169.47,123.97 170.91,123.97 172.35,123.97 173.78,123.97 175.22,123.94 176.66,123.94 178.10,123.94 179.54,123.94 180.97,123.94 182.41,123.94 183.85,123.94 185.29,123.94 186.72,123.94 188.16,123.94 189.60,123.94 191.04,123.94 192.48,123.94 193.91,123.94 195.35,123.94 196.79,123.92 198.23,123.64 199.67,123.57 201.10,123.45 202.54,123.30 203.98,123.26 205.42,123.26 206.85,123.26 208.29,123.02 209.73,123.00 211.17,122.85 212.61,122.80 214.04,122.70 215.48,122.33 216.92,122.31 218.36,122.26 219.80,122.25 221.23,122.19 222.67,122.19 224.11,122.17 225.55,122.17 226.98,122.17 228.42,122.17 229.86,122.17 231.30,122.17 232.74,122.17 234.17,122.05 235.61,121.71 237.05,121.46 238.49,121.38 239.93,121.22 241.36,121.21 242.80,121.19 244.24,121.18 245.68,121.18 247.11,121.18 248.55,121.10 249.99,121.03 251.43,121.01 252.87,120.99 254.30,120.97 255.74,120.72 257.18,120.55 258.62,120.29 260.05,120.13 261.49,120.02 262.93,119.96 264.37,119.90 265.81,119.89 267.24,119.84 268.68,119.68 270.12,119.68 271.56,119.68 273.00,119.67 274.43,119.65 275.87,119.65 277.31,119.57 278.75,119.55 280.18,119.54 281.62,119.53 283.06,119.51 284.50,119.51 285.94,119.51 287.37,119.51 288.81,119.51 290.25,119.51 291.69,119.51 293.13,119.51 294.56,119.47 296.00,119.44 297.44,119.44 298.88,119.25 300.31,119.24 301.75,119.23 303.19,119.20 304.63,119.10 306.07,118.87 307.50,118.82 308.94,118.82 310.38,118.82 311.82,118.82 313.26,118.82 314.69,118.82 316.13,118.82 317.57,118.82 319.01,118.82 320.44,118.82 321.88,118.82 323.32,118.82 324.76,118.82 326.20,118.81 327.63,118.75 329.07,118.74 330.51,118.74 331.95,118.74 333.38,118.74 334.82,118.69 336.26,118.69 337.70,118.52 339.14,118.36 340.57,118.36 342.01,118.36 343.45,118.36 344.89,118.36 346.33,118.34 347.76,118.34 349.20,118.32 350.64,118.25 352.08,118.18 353.51,117.89 354.95,117.88 356.39,117.45 357.83,117.19 359.27,117.00 360.70,116.39 362.14,116.23 363.58,116.17 365.02,115.96 366.46,115.65 367.89,115.58 369.33,115.47 370.77,115.30 372.21,115.15 373.64,115.09 375.08,114.98 376.52,114.91 377.96,114.72 379.40,114.55 380.83,114.34 382.27,114.01 383.71,113.82 385.15,112.87 386.59,112.16 388.02,111.70 389.46,111.30 390.90,110.87 392.34,110.87 393.77,110.87 395.21,110.87 396.65,110.59 398.09,110.43 399.53,109.85 400.96,109.20 402.40,108.44 403.84,107.30 405.28,106.50 406.71,104.86 408.15,103.87 409.59,103.21 411.03,102.14 412.47,101.46 413.90,100.10 415.34,98.06 416.78,97.44 418.22,96.64 419.66,95.87 421.09,95.61 422.53,94.63 423.97,94.46 425.41,93.29 426.84,92.22 428.28,91.58 429.72,90.86 431.16,89.90 432.60,89.64 434.03,89.56 435.47,89.45 436.91,89.39 438.35,88.78 439.79,87.99 441.22,87.03 442.66,86.76 444.10,85.98 445.54,84.98 446.97,82.99 448.41,81.51 449.85,79.70 451.29,79.22 452.73,78.26 454.16,76.48 455.60,75.47 457.04,74.91 458.48,74.13 459.92,73.62 461.35,72.89 462.79,72.54 464.23,71.80 465.67,70.38 467.10,68.81 468.54,68.33 469.98,67.45 471.42,65.83 472.86,64.99 474.29,62.98 475.73,62.02 477.17,60.27 478.61,58.56 480.04,56.50 481.48,53.41 482.92,51.36 484.36,49.60 485.80,48.47 487.23,47.01 488.67,45.70 490.11,45.06 491.55,43.99 492.99,42.70 494.42,41.98 495.86,40.87 497.30,40.03 498.74,39.23 500.17,38.02 501.61,35.82 503.05,34.06 504.49,32.58 505.93,31.35 507.36,30.91 508.80,30.33" />
    </svg>
  