
    <svg width="540" height="160" xmlns="http://www.w3.org/2000/svg">
      <style>.line{fill:none;stroke:#388bfd;stroke-width:1.5}.axis{stroke:#555;stroke-width:1;opacity:0.5}.label{fill:#999;font-family:sans-serif;font-size:10px;text-anchor:middle}</style>
      <line class="axis" x1="30" y1="30" x2="30" y2="130" />
      <line class="axis" x1="30" y1="130" x2="510" y2="130" />
      <text class="label" x="15" y="30">9,414</text>
      <text class="label" x="15" y="134">0</text>
      <text class="label" x="30" y="148">2021</text>
      <text class="label" x="510" y="148">2026</text>
      <polyline class="line" points="30.00,129.98 31.44,129.97 32.87,129.96 34.31,129.96 35.74,129.96 37.18,129.82 38.61,129.82 40.05,129.82 41.49,129.05 42.92,127.79 44.36,127.73 45.79,127.73 47.23,127.73 48.66,127.73 50.10,127.73 51.54,127.73 52.97,127.73 54.41,127.73 55.84,127.73 57.28,127.73 58.71,127.73 60.15,127.73 61.59,127.73 63.02,127.73 64.46,127.73 65.89,127.73 67.33,127.73 68.76,127.00 70.20,127.00 71.64,126.99 73.07,126.99 74.51,126.99 75.94,126.99 77.38,126.95 78.81,126.95 80.25,126.95 81.68,126.95 83.12,126.95 84.56,126.95 85.99,126.95 87.43,126.95 88.86,126.95 90.30,126.95 91.73,126.95 93.17,126.95 94.61,126.95 96.04,126.95 97.48,126.95 98.91,126.95 100.35,126.95 101.78,126.95 103.22,126.91 104.66,126.26 106.09,125.67 107.53,125.42 108.96,124.24 110.40,124.24 111.83,124.24 113.27,124.24 114.71,124.24 116.14,124.24 117.58,124.24 119.01,124.24 120.45,124.24 121.88,124.24 123.32,124.24 124.76,124.24 126.19,124.16 127.63,124.16 129.06,124.16 130.50,124.05 131.93,124.05 133.37,124.05 134.81,124.05 136.24,124.02 137.68,124.02 139.11,124.02 140.55,124.02 141.98,124.00 143.42,124.00 144.86,124.00 146.29,124.00 147.73,124.00 149.16,124.00 150.60,124.00 152.03,124.00 153.47,124.00 154.91,124.00 156.34,124.00 157.78,124.00 159.21,124.00 160.65,124.00 162.08,124.00 163.52,124.00 164.96,124.00 166.39,124.00 167.83,124.00 169.26,124.00 170.70,124.00 172.13,124.00 173.57,124.00 175.00,123.97 176.44,123.97 177.88,123.97 179.31,123.97 180.75,123.97 182.18,123.97 183.62,123.97 185.05,123.97 186.49,123.97 187.93,123.97 189.36,123.97 190.80,123.97 192.23,123.97 193.67,123.97 195.10,123.97 196.54,123.95 197.98,123.67 199.41,123.59 200.85,123.48 202.28,123.33 203.72,123.29 205.15,123.29 206.59,123.29 208.03,123.05 209.46,123.03 210.90,122.88 212.33,122.83 213.77,122.73 215.20,122.36 216.64,122.34 218.08,122.29 219.51,122.28 220.95,122.22 222.38,122.22 223.82,122.20 225.25,122.20 226.69,122.20 228.13,122.20 229.56,122.20 231.00,122.20 232.43,122.20 233.87,122.09 235.30,121.75 236.74,121.49 238.18,121.42 239.61,121.26 241.05,121.25 242.48,121.23 243.92,121.22 245.35,121.22 246.79,121.22 248.23,121.14 249.66,121.07 251.10,121.05 252.53,121.02 253.97,121.00 255.40,120.76 256.84,120.59 258.28,120.33 259.71,120.17 261.15,120.06 262.58,120.00 264.02,119.94 265.45,119.93 266.89,119.88 268.33,119.72 269.76,119.72 271.20,119.72 272.63,119.71 274.07,119.70 275.50,119.70 276.94,119.61 278.37,119.59 279.81,119.58 281.25,119.57 282.68,119.55 284.12,119.55 285.55,119.55 286.99,119.55 288.42,119.55 289.86,119.55 291.30,119.55 292.73,119.55 294.17,119.52 295.60,119.48 297.04,119.48 298.47,119.29 299.91,119.28 301.35,119.27 302.78,119.24 304.22,119.14 305.65,118.91 307.09,118.87 308.52,118.87 309.96,118.87 311.40,118.87 312.83,118.87 314.27,118.87 315.70,118.87 317.14,118.87 318.57,118.87 320.01,118.87 321.45,118.87 322.88,118.87 324.32,118.87 325.75,118.86 327.19,118.79 328.62,118.78 330.06,118.78 331.50,118.78 332.93,118.78 334.37,118.74 335.80,118.74 337.24,118.57 338.67,118.41 340.11,118.41 341.55,118.41 342.98,118.41 344.42,118.41 345.85,118.39 347.29,118.39 348.72,118.37 350.16,118.29 351.60,118.23 353.03,117.94 354.47,117.93 355.90,117.50 357.34,117.24 358.77,117.05 360.21,116.45 361.65,116.29 363.08,116.22 364.52,116.02 365.95,115.71 367.39,115.64 368.82,115.53 370.26,115.36 371.69,115.21 373.13,115.15 374.57,115.04 376.00,114.97 377.44,114.78 378.87,114.61 380.31,114.41 381.74,114.08 383.18,113.89 384.62,112.94 386.05,112.23 387.49,111.77 388.92,111.38 390.36,110.94 391.79,110.94 393.23,110.94 394.67,110.94 396.10,110.67 397.54,110.51 398.97,109.93 400.41,109.29 401.84,108.53 403.28,107.40 404.72,106.60 406.15,104.96 407.59,103.97 409.02,103.32 410.46,102.25 411.89,101.57 413.33,100.23 414.77,98.19 416.20,97.57 417.64,96.77 419.07,96.01 420.51,95.75 421.94,94.78 423.38,94.61 424.82,93.44 426.25,92.38 427.69,91.74 429.12,91.02 430.56,90.06 431.99,89.80 433.43,89.72 434.87,89.61 436.30,89.55 437.74,88.94 439.17,88.16 440.61,87.20 442.04,86.94 443.48,86.16 444.92,85.16 446.35,83.18 447.79,81.71 449.22,79.90 450.66,79.43 452.09,78.47 453.53,76.70 454.97,75.69 456.40,75.13 457.84,74.36 459.27,73.85 460.71,73.12 462.14,72.78 463.58,72.03 465.01,70.62 466.45,69.06 467.89,68.58 469.32,67.70 470.76,66.08 472.19,65.26 473.63,63.25 475.06,62.29 476.50,60.55 477.94,58.85 479.37,56.80 480.81,53.72 482.24,51.68 483.68,49.93 485.11,48.80 486.55,47.35 487.99,46.04 489.42,45.40 490.86,44.34 492.29,43.06 493.73,42.33 495.16,41.23 496.60,40.39 498.04,39.59 499.47,38.39 500.91,36.20 502.34,34.45 503.78,32.97 505.21,31.75 506.65,31.31 508.09,30.73 509.52,30.27" />
    </svg>
  