
    <svg width="540" height="160" xmlns="http://www.w3.org/2000/svg">
      <style>.line{fill:none;stroke:#388bfd;stroke-width:1.5}.axis{stroke:#555;stroke-width:1;opacity:0.5}.label{fill:#999;font-family:sans-serif;font-size:10px;text-anchor:middle}</style>
      <line class="axis" x1="30" y1="30" x2="30" y2="130" />
      <line class="axis" x1="30" y1="130" x2="510" y2="130" />
      <text class="label" x="15" y="30">8,618</text>
      <text class="label" x="15" y="134">0</text>
      <text class="label" x="30" y="148">2021</text>
      <text class="label" x="510" y="148">2026</text>
      <polyline class="line" points="30.00,129.98 31.47,129.97 32.93,129.95 34.40,129.95 35.86,129.95 37.33,129.80 38.79,129.80 40.26,129.80 41.73,128.97 43.19,127.59 44.66,127.52 46.12,127.52 47.59,127.52 49.05,127.52 50.52,127.52 51.98,127.52 53.45,127.52 54.92,127.52 56.38,127.52 57.85,127.52 59.31,127.52 60.78,127.52 62.24,127.52 63.71,127.52 65.18,127.52 66.64,127.52 68.11,127.52 69.57,126.73 71.04,126.73 72.50,126.72 73.97,126.72 75.44,126.72 76.90,126.72 78.37,126.67 79.83,126.67 81.30,126.67 82.76,126.67 84.23,126.67 85.69,126.67 87.16,126.67 88.63,126.67 90.09,126.67 91.56,126.67 93.02,126.67 94.49,126.67 95.95,126.67 97.42,126.67 98.89,126.67 100.35,126.67 101.82,126.67 103.28,126.67 104.75,126.62 106.21,125.92 107.68,125.27 109.15,125.00 110.61,123.71 112.08,123.71 113.54,123.71 115.01,123.71 116.47,123.71 117.94,123.71 119.40,123.71 120.87,123.71 122.34,123.71 123.80,123.71 125.27,123.71 126.73,123.71 128.20,123.62 129.66,123.62 131.13,123.62 132.60,123.50 134.06,123.50 135.53,123.50 136.99,123.50 138.46,123.47 139.92,123.47 141.39,123.47 142.85,123.47 144.32,123.44 145.79,123.44 147.25,123.44 148.72,123.44 150.18,123.44 151.65,123.44 153.11,123.44 154.58,123.44 156.05,123.44 157.51,123.44 158.98,123.44 160.44,123.44 161.91,123.44 163.37,123.44 164.84,123.44 166.31,123.44 167.77,123.44 169.24,123.44 170.70,123.44 172.17,123.44 173.63,123.44 175.10,123.44 176.56,123.44 178.03,123.41 179.50,123.41 180.96,123.41 182.43,123.41 183.89,123.41 185.36,123.41 186.82,123.41 188.29,123.41 189.76,123.41 191.22,123.41 192.69,123.41 194.15,123.41 195.62,123.41 197.08,123.41 198.55,123.41 200.02,123.39 201.48,123.08 202.95,123.00 204.41,122.88 205.88,122.71 207.34,122.67 208.81,122.67 210.27,122.67 211.74,122.41 213.21,122.39 214.67,122.23 216.14,122.17 217.60,122.06 219.07,121.66 220.53,121.63 222.00,121.58 223.47,121.56 224.93,121.51 226.40,121.51 227.86,121.48 229.33,121.48 230.79,121.48 232.26,121.48 233.73,121.48 235.19,121.48 236.66,121.48 238.12,121.36 239.59,120.98 241.05,120.71 242.52,120.62 243.98,120.45 245.45,120.44 246.92,120.42 248.38,120.40 249.85,120.40 251.31,120.40 252.78,120.32 254.24,120.24 255.71,120.22 257.18,120.19 258.64,120.17 260.11,119.90 261.57,119.72 263.04,119.44 264.50,119.27 265.97,119.14 267.44,119.08 268.90,119.01 270.37,119.00 271.83,118.94 273.30,118.77 274.76,118.77 276.23,118.77 277.69,118.76 279.16,118.74 280.63,118.74 282.09,118.65 283.56,118.63 285.02,118.62 286.49,118.61 287.95,118.58 289.42,118.58 290.89,118.58 292.35,118.58 293.82,118.58 295.28,118.58 296.75,118.58 298.21,118.58 299.68,118.55 301.15,118.51 302.61,118.51 304.08,118.30 305.54,118.29 307.01,118.28 308.47,118.25 309.94,118.14 311.40,117.89 312.87,117.84 314.34,117.84 315.80,117.84 317.27,117.84 318.73,117.84 320.20,117.84 321.66,117.84 323.13,117.84 324.60,117.84 326.06,117.84 327.53,117.84 328.99,117.84 330.46,117.84 331.92,117.83 333.39,117.76 334.85,117.75 336.32,117.75 337.79,117.75 339.25,117.75 340.72,117.70 342.18,117.70 343.65,117.51 345.11,117.34 346.58,117.34 348.05,117.34 349.51,117.34 350.98,117.34 352.44,117.32 353.91,117.32 355.37,117.29 356.84,117.21 358.31,117.14 359.77,116.83 361.24,116.82 362.70,116.34 364.17,116.06 365.63,115.86 367.10,115.19 368.56,115.02 370.03,114.95 371.50,114.73 372.96,114.39 374.43,114.31 375.89,114.20 377.36,114.01 378.82,113.85 380.29,113.78 381.76,113.66 383.22,113.58 384.69,113.37 386.15,113.19 387.62,112.97 389.08,112.61 390.55,112.40 392.02,111.36 393.48,110.59 394.95,110.09 396.41,109.66 397.88,109.18 399.34,109.18 400.81,109.18 402.27,109.18 403.74,108.88 405.21,108.71 406.67,108.08 408.14,107.37 409.60,106.55 411.07,105.31 412.53,104.44 414.00,102.65 415.47,101.57 416.93,100.85 418.40,99.69 419.86,98.95 421.33,97.48 422.79,95.25 424.26,94.57 425.73,93.70 427.19,92.87 428.66,92.59 430.12,91.52 431.59,91.34 433.05,90.06 434.52,88.90 435.98,88.20 437.45,87.41 438.92,86.37 440.38,86.09 441.85,86.00 443.31,85.88 444.78,85.81 446.24,85.15 447.71,84.29 449.18,83.25 450.64,82.96 452.11,82.11 453.57,81.02 455.04,78.85 456.50,77.25 457.97,75.28 459.44,74.76 460.90,73.71 462.37,71.77 463.83,70.67 465.30,70.07 466.76,69.22 468.23,68.66 469.69,67.86 471.16,67.49 472.63,66.68 474.09,65.14 475.56,63.43 477.02,62.91 478.49,61.94 479.95,60.18 481.42,59.28 482.89,57.08 484.35,56.04 485.82,54.14 487.28,52.28 488.75,50.04 490.21,46.67 491.68,44.45 493.15,42.53 494.61,41.30 496.08,39.71 497.54,38.28 499.01,37.59 500.47,36.43 501.94,35.02 503.40,34.48 504.87,33.45 506.34,32.56 507.80,31.69 509.27,30.57" />
    </svg>
  