
    <svg width="540" height="160" xmlns="http://www.w3.org/2000/svg">
      <style>.line{fill:none;stroke:#388bfd;stroke-width:1.5}.axis{stroke:#555;stroke-width:1;opacity:0.5}.label{fill:#999;font-family:sans-serif;font-size:10px;text-anchor:middle}</style>
      <line class="axis" x1="30" y1="30" x2="30" y2="130" />
      <line class="axis" x1="30" y1="130" x2="510" y2="130" />
      <text class="label" x="15" y="30">7,378</text>
      <text class="label" x="15" y="134">0</text>
      <text class="label" x="30" y="148">2021</text>
      <text class="label" x="510" y="148">2026</text>
      <polyline class="line" points="30.00,129.97 31.51,129.96 33.02,129.95 34.52,129.95 36.03,129.95 37.54,129.77 39.05,129.77 40.55,129.77 42.06,128.79 43.57,127.18 45.08,127.10 46.59,127.10 48.09,127.10 49.60,127.10 51.11,127.10 52.62,127.10 54.13,127.10 55.63,127.10 57.14,127.10 58.65,127.10 60.16,127.10 61.66,127.10 63.17,127.10 64.68,127.10 66.19,127.10 67.70,127.10 69.20,127.10 70.71,126.18 72.22,126.18 73.73,126.16 75.24,126.16 76.74,126.16 78.25,126.16 79.76,126.11 81.27,126.11 82.77,126.11 84.28,126.11 85.79,126.11 87.30,126.11 88.81,126.11 90.31,126.11 91.82,126.11 93.33,126.11 94.84,126.11 96.35,126.11 97.85,126.11 99.36,126.11 100.87,126.11 102.38,126.11 103.88,126.11 105.39,126.11 106.90,126.06 108.41,125.23 109.92,124.47 111.42,124.16 112.93,122.65 114.44,122.65 115.95,122.65 117.46,122.65 118.96,122.65 120.47,122.65 121.98,122.65 123.49,122.65 124.99,122.65 126.50,122.65 128.01,122.65 129.52,122.65 131.03,122.55 132.53,122.55 134.04,122.55 135.55,122.41 137.06,122.41 138.57,122.41 140.07,122.41 141.58,122.37 143.09,122.37 144.60,122.37 146.10,122.37 147.61,122.34 149.12,122.34 150.63,122.34 152.14,122.34 153.64,122.34 155.15,122.34 156.66,122.34 158.17,122.34 159.68,122.34 161.18,122.34 162.69,122.34 164.20,122.34 165.71,122.34 167.21,122.34 168.72,122.34 170.23,122.34 171.74,122.34 173.25,122.34 174.75,122.34 176.26,122.34 177.77,122.34 179.28,122.34 180.79,122.34 182.29,122.30 183.80,122.30 185.31,122.30 186.82,122.30 188.32,122.30 189.83,122.30 191.34,122.30 192.85,122.30 194.36,122.30 195.86,122.30 197.37,122.30 198.88,122.30 200.39,122.30 201.90,122.30 203.40,122.30 204.91,122.27 206.42,121.92 207.93,121.83 209.43,121.68 210.94,121.49 212.45,121.43 213.96,121.43 215.47,121.43 216.97,121.14 218.48,121.11 219.99,120.92 221.50,120.85 223.01,120.73 224.51,120.25 226.02,120.23 227.53,120.16 229.04,120.15 230.54,120.08 232.05,120.08 233.56,120.05 235.07,120.05 236.58,120.05 238.08,120.05 239.59,120.05 241.10,120.05 242.61,120.05 244.12,119.90 245.62,119.47 247.13,119.14 248.64,119.05 250.15,118.85 251.65,118.83 253.16,118.80 254.67,118.79 256.18,118.79 257.69,118.79 259.19,118.70 260.70,118.60 262.21,118.57 263.72,118.55 265.23,118.52 266.73,118.21 268.24,117.99 269.75,117.67 271.26,117.46 272.76,117.31 274.27,117.25 275.78,117.16 277.29,117.15 278.80,117.08 280.30,116.88 281.81,116.88 283.32,116.88 284.83,116.87 286.34,116.85 287.84,116.85 289.35,116.74 290.86,116.72 292.37,116.70 293.87,116.69 295.38,116.66 296.89,116.66 298.40,116.66 299.91,116.66 301.41,116.66 302.92,116.66 304.43,116.66 305.94,116.66 307.45,116.62 308.95,116.58 310.46,116.58 311.97,116.34 313.48,116.32 314.98,116.31 316.49,116.27 318.00,116.15 319.51,115.85 321.02,115.80 322.52,115.80 324.03,115.80 325.54,115.80 327.05,115.80 328.55,115.80 330.06,115.80 331.57,115.80 333.08,115.80 334.59,115.80 336.09,115.80 337.60,115.80 339.11,115.80 340.62,115.78 342.13,115.70 343.63,115.69 345.14,115.69 346.65,115.69 348.16,115.69 349.66,115.63 351.17,115.63 352.68,115.42 354.19,115.21 355.70,115.21 357.20,115.21 358.71,115.21 360.22,115.21 361.73,115.19 363.24,115.19 364.74,115.16 366.25,115.06 367.76,114.98 369.27,114.62 370.77,114.60 372.28,114.05 373.79,113.72 375.30,113.48 376.81,112.71 378.31,112.50 379.82,112.42 381.33,112.16 382.84,111.77 384.35,111.68 385.85,111.54 387.36,111.32 388.87,111.13 390.38,111.05 391.88,110.92 393.39,110.82 394.90,110.58 396.41,110.36 397.92,110.10 399.42,109.68 400.93,109.44 402.44,108.23 403.95,107.32 405.46,106.74 406.96,106.24 408.47,105.68 409.98,105.68 411.49,105.68 412.99,105.68 414.50,105.33 416.01,105.13 417.52,104.40 419.03,103.57 420.53,102.61 422.04,101.16 423.55,100.14 425.06,98.05 426.57,96.79 428.07,95.95 429.58,94.60 431.09,93.73 432.60,92.01 434.10,89.41 435.61,88.62 437.12,87.60 438.63,86.63 440.14,86.30 441.64,85.06 443.15,84.84 444.66,83.35 446.17,81.99 447.68,81.18 449.18,80.26 450.69,79.04 452.20,78.71 453.71,78.60 455.21,78.47 456.72,78.39 458.23,77.61 459.74,76.61 461.25,75.39 462.75,75.05 464.26,74.06 465.77,72.79 467.28,70.25 468.79,68.38 470.29,66.08 471.80,65.47 473.31,64.25 474.82,61.99 476.32,60.70 477.83,59.99 479.34,59.01 480.85,58.35 482.36,57.42 483.86,56.99 485.37,56.04 486.88,54.23 488.39,52.24 489.90,51.63 491.40,50.70 492.91,49.45 494.42,48.56 495.93,47.16 497.43,46.29 498.94,44.45 500.45,42.50 501.96,40.78 503.47,37.36 504.97,35.25 506.48,33.20 507.99,32.06 509.50,30.39" />
    </svg>
  