
    <svg width="540" height="160" xmlns="http://www.w3.org/2000/svg">
      <style>.line{fill:none;stroke:#388bfd;stroke-width:1.5}.axis{stroke:#555;stroke-width:1;opacity:0.5}.label{fill:#999;font-family:sans-serif;font-size:10px;text-anchor:middle}</style>
      <line class="axis" x1="30" y1="30" x2="30" y2="130" />
      <line class="axis" x1="30" y1="130" x2="510" y2="130" />
      <text class="label" x="15" y="30">8,070</text>
      <text class="label" x="15" y="134">0</text>
      <text class="label" x="30" y="148">2021</text>
      <text class="label" x="510" y="148">2026</text>
      <polyline class="line" points="30.00,129.98 31.48,129.96 32.96,129.95 34.44,129.95 35.92,129.95 37.40,129.79 38.88,129.79 40.35,129.79 41.83,128.90 43.31,127.42 44.79,127.35 46.27,127.35 47.75,127.35 49.23,127.35 50.71,127.35 52.19,127.35 53.67,127.35 55.15,127.35 56.63,127.35 58.10,127.35 59.58,127.35 61.06,127.35 62.54,127.35 64.02,127.35 65.50,127.35 66.98,127.35 68.46,127.35 69.94,126.51 71.42,126.51 72.90,126.49 74.38,126.49 75.86,126.49 77.33,126.49 78.81,126.44 80.29,126.44 81.77,126.44 83.25,126.44 84.73,126.44 86.21,126.44 87.69,126.44 89.17,126.44 90.65,126.44 92.13,126.44 93.61,126.44 95.08,126.44 96.56,126.44 98.04,126.44 99.52,126.44 101.00,126.44 102.48,126.44 103.96,126.44 105.44,126.39 106.92,125.64 108.40,124.94 109.88,124.66 111.36,123.28 112.84,123.28 114.31,123.28 115.79,123.28 117.27,123.28 118.75,123.28 120.23,123.28 121.71,123.28 123.19,123.28 124.67,123.28 126.15,123.28 127.63,123.28 129.11,123.18 130.59,123.18 132.06,123.18 133.54,123.06 135.02,123.06 136.50,123.06 137.98,123.06 139.46,123.02 140.94,123.02 142.42,123.02 143.90,123.02 145.38,123.00 146.86,123.00 148.34,123.00 149.82,123.00 151.29,123.00 152.77,123.00 154.25,123.00 155.73,123.00 157.21,123.00 158.69,123.00 160.17,123.00 161.65,123.00 163.13,123.00 164.61,123.00 166.09,123.00 167.57,123.00 169.04,123.00 170.52,123.00 172.00,123.00 173.48,123.00 174.96,123.00 176.44,123.00 177.92,123.00 179.40,122.96 180.88,122.96 182.36,122.96 183.84,122.96 185.32,122.96 186.80,122.96 188.27,122.96 189.75,122.96 191.23,122.96 192.71,122.96 194.19,122.96 195.67,122.96 197.15,122.96 198.63,122.96 200.11,122.96 201.59,122.94 203.07,122.61 204.55,122.53 206.02,122.39 207.50,122.22 208.98,122.17 210.46,122.17 211.94,122.17 213.42,121.90 214.90,121.87 216.38,121.70 217.86,121.64 219.34,121.52 220.82,121.09 222.30,121.07 223.78,121.00 225.25,120.99 226.73,120.93 228.21,120.93 229.69,120.90 231.17,120.90 232.65,120.90 234.13,120.90 235.61,120.90 237.09,120.90 238.57,120.90 240.05,120.77 241.53,120.37 243.00,120.07 244.48,119.99 245.96,119.80 247.44,119.79 248.92,119.76 250.40,119.75 251.88,119.75 253.36,119.75 254.84,119.67 256.32,119.58 257.80,119.55 259.28,119.53 260.76,119.50 262.23,119.22 263.71,119.02 265.19,118.72 266.67,118.54 268.15,118.40 269.63,118.34 271.11,118.27 272.59,118.25 274.07,118.19 275.55,118.00 277.03,118.00 278.51,118.00 279.98,117.99 281.46,117.98 282.94,117.98 284.42,117.88 285.90,117.86 287.38,117.84 288.86,117.83 290.34,117.81 291.82,117.81 293.30,117.81 294.78,117.81 296.26,117.81 297.73,117.81 299.21,117.81 300.69,117.81 302.17,117.77 303.65,117.73 305.13,117.73 306.61,117.51 308.09,117.50 309.57,117.48 311.05,117.45 312.53,117.34 314.01,117.06 315.49,117.01 316.96,117.01 318.44,117.01 319.92,117.01 321.40,117.01 322.88,117.01 324.36,117.01 325.84,117.01 327.32,117.01 328.80,117.01 330.28,117.01 331.76,117.01 333.24,117.01 334.71,117.00 336.19,116.93 337.67,116.91 339.15,116.91 340.63,116.91 342.11,116.91 343.59,116.86 345.07,116.86 346.55,116.67 348.03,116.48 349.51,116.48 350.99,116.48 352.47,116.48 353.94,116.48 355.42,116.46 356.90,116.46 358.38,116.43 359.86,116.34 361.34,116.27 362.82,115.94 364.30,115.92 365.78,115.42 367.26,115.12 368.74,114.89 370.22,114.19 371.69,114.00 373.17,113.93 374.65,113.69 376.13,113.33 377.61,113.25 379.09,113.12 380.57,112.92 382.05,112.75 383.53,112.68 385.01,112.55 386.49,112.47 387.97,112.24 389.45,112.04 390.92,111.81 392.40,111.43 393.88,111.20 395.36,110.10 396.84,109.27 398.32,108.74 399.80,108.28 401.28,107.77 402.76,107.77 404.24,107.77 405.72,107.77 407.20,107.45 408.67,107.26 410.15,106.59 411.63,105.84 413.11,104.96 414.59,103.63 416.07,102.70 417.55,100.79 419.03,99.64 420.51,98.87 421.99,97.63 423.47,96.84 424.95,95.27 426.43,92.89 427.90,92.17 429.38,91.24 430.86,90.35 432.34,90.05 433.82,88.91 435.30,88.71 436.78,87.35 438.26,86.11 439.74,85.37 441.22,84.52 442.70,83.41 444.18,83.11 445.65,83.01 447.13,82.89 448.61,82.81 450.09,82.11 451.57,81.19 453.05,80.07 454.53,79.76 456.01,78.86 457.49,77.70 458.97,75.38 460.45,73.67 461.93,71.56 463.41,71.00 464.88,69.89 466.36,67.82 467.84,66.64 469.32,66.00 470.80,65.09 472.28,64.50 473.76,63.64 475.24,63.25 476.72,62.38 478.20,60.73 479.68,58.91 481.16,58.35 482.63,57.41 484.11,55.90 485.59,55.01 487.07,53.20 488.55,52.24 490.03,50.38 491.51,48.50 492.99,46.52 494.47,43.16 495.95,40.89 497.43,38.93 498.91,37.67 500.39,36.06 501.86,34.62 503.34,33.94 504.82,32.73 506.30,31.28 507.78,30.95 509.26,30.04" />
    </svg>
  