
    <svg width="540" height="160" xmlns="http://www.w3.org/2000/svg">
      <style>.line{fill:none;stroke:#388bfd;stroke-width:1.5}.axis{stroke:#555;stroke-width:1;opacity:0.5}.label{fill:#999;font-family:sans-serif;font-size:10px;text-anchor:middle}</style>
      <line class="axis" x1="30" y1="30" x2="30" y2="130" />
      <line class="axis" x1="30" y1="130" x2="510" y2="130" />
      <text class="label" x="15" y="30">8,040</text>
      <text class="label" x="15" y="134">0</text>
      <text class="label" x="30" y="148">2021</text>
      <text class="label" x="510" y="148">2026</text>
      <polyline class="line" points="30.00,129.98 31.48,129.96 32.97,129.95 34.45,129.95 35.93,129.95 37.42,129.79 38.90,129.79 40.38,129.79 41.86,128.89 43.35,127.41 44.83,127.34 46.31,127.34 47.80,127.34 49.28,127.34 50.76,127.34 52.25,127.34 53.73,127.34 55.21,127.34 56.69,127.34 58.18,127.34 59.66,127.34 61.14,127.34 62.63,127.34 64.11,127.34 65.59,127.34 67.08,127.34 68.56,127.34 70.04,126.49 71.52,126.49 73.01,126.48 74.49,126.48 75.97,126.48 77.46,126.48 78.94,126.43 80.42,126.43 81.91,126.43 83.39,126.43 84.87,126.43 86.35,126.43 87.84,126.43 89.32,126.43 90.80,126.43 92.29,126.43 93.77,126.43 95.25,126.43 96.74,126.43 98.22,126.43 99.70,126.43 101.18,126.43 102.67,126.43 104.15,126.43 105.63,126.38 107.12,125.62 108.60,124.93 110.08,124.64 111.57,123.26 113.05,123.26 114.53,123.26 116.01,123.26 117.50,123.26 118.98,123.26 120.46,123.26 121.95,123.26 123.43,123.26 124.91,123.26 126.40,123.26 127.88,123.26 129.36,123.16 130.84,123.16 132.33,123.16 133.81,123.03 135.29,123.03 136.78,123.03 138.26,123.03 139.74,123.00 141.23,123.00 142.71,123.00 144.19,123.00 145.67,122.97 147.16,122.97 148.64,122.97 150.12,122.97 151.61,122.97 153.09,122.97 154.57,122.97 156.06,122.97 157.54,122.97 159.02,122.97 160.50,122.97 161.99,122.97 163.47,122.97 164.95,122.97 166.44,122.97 167.92,122.97 169.40,122.97 170.89,122.97 172.37,122.97 173.85,122.97 175.33,122.97 176.82,122.97 178.30,122.97 179.78,122.94 181.27,122.94 182.75,122.94 184.23,122.94 185.72,122.94 187.20,122.94 188.68,122.94 190.16,122.94 191.65,122.94 193.13,122.94 194.61,122.94 196.10,122.94 197.58,122.94 199.06,122.94 200.55,122.94 202.03,122.91 203.51,122.59 204.99,122.50 206.48,122.36 207.96,122.19 209.44,122.14 210.93,122.14 212.41,122.14 213.89,121.87 215.38,121.84 216.86,121.67 218.34,121.60 219.82,121.49 221.31,121.06 222.79,121.03 224.27,120.97 225.76,120.96 227.24,120.90 228.72,120.90 230.21,120.87 231.69,120.87 233.17,120.87 234.65,120.87 236.14,120.87 237.62,120.87 239.10,120.87 240.59,120.73 242.07,120.34 243.55,120.04 245.04,119.95 246.52,119.76 248.00,119.75 249.49,119.73 250.97,119.71 252.45,119.71 253.93,119.71 255.42,119.63 256.90,119.54 258.38,119.51 259.87,119.49 261.35,119.47 262.83,119.18 264.32,118.98 265.80,118.68 267.28,118.50 268.76,118.36 270.25,118.30 271.73,118.22 273.21,118.21 274.70,118.15 276.18,117.96 277.66,117.96 279.15,117.96 280.63,117.95 282.11,117.94 283.59,117.94 285.08,117.84 286.56,117.81 288.04,117.80 289.53,117.79 291.01,117.76 292.49,117.76 293.98,117.76 295.46,117.76 296.94,117.76 298.42,117.76 299.91,117.76 301.39,117.76 302.87,117.72 304.36,117.69 305.84,117.69 307.32,117.46 308.81,117.45 310.29,117.44 311.77,117.40 313.25,117.29 314.74,117.01 316.22,116.97 317.70,116.97 319.19,116.97 320.67,116.97 322.15,116.97 323.64,116.97 325.12,116.97 326.60,116.97 328.08,116.97 329.57,116.97 331.05,116.97 332.53,116.97 334.02,116.97 335.50,116.95 336.98,116.88 338.47,116.87 339.95,116.87 341.43,116.87 342.91,116.87 344.40,116.82 345.88,116.82 347.36,116.62 348.85,116.43 350.33,116.43 351.81,116.43 353.30,116.43 354.78,116.43 356.26,116.41 357.74,116.41 359.23,116.38 360.71,116.29 362.19,116.22 363.68,115.88 365.16,115.87 366.64,115.36 368.13,115.06 369.61,114.84 371.09,114.13 372.57,113.94 374.06,113.87 375.54,113.63 377.02,113.27 378.51,113.18 379.99,113.06 381.47,112.86 382.96,112.69 384.44,112.61 385.92,112.49 387.40,112.40 388.89,112.18 390.37,111.98 391.85,111.74 393.34,111.36 394.82,111.13 396.30,110.02 397.79,109.19 399.27,108.66 400.75,108.20 402.23,107.69 403.72,107.69 405.20,107.69 406.68,107.69 408.17,107.36 409.65,107.18 411.13,106.50 412.62,105.75 414.10,104.86 415.58,103.53 417.06,102.60 418.55,100.68 420.03,99.53 421.51,98.76 423.00,97.51 424.48,96.72 425.96,95.14 427.45,92.75 428.93,92.03 430.41,91.09 431.89,90.20 433.38,89.90 434.86,88.76 436.34,88.56 437.83,87.19 439.31,85.95 440.79,85.20 442.28,84.35 443.76,83.23 445.24,82.94 446.73,82.84 448.21,82.71 449.69,82.64 451.17,81.93 452.66,81.01 454.14,79.89 455.62,79.58 457.11,78.67 458.59,77.50 460.07,75.17 461.56,73.46 463.04,71.34 464.52,70.78 466.00,69.66 467.49,67.59 468.97,66.41 470.45,65.76 471.94,64.85 473.42,64.25 474.90,63.40 476.39,63.00 477.87,62.13 479.35,60.47 480.83,58.64 482.32,58.08 483.80,57.14 485.28,55.62 486.77,54.73 488.25,52.91 489.73,51.95 491.22,50.09 492.70,48.20 494.18,46.21 495.66,42.84 497.15,40.56 498.63,38.59 500.11,37.33 501.60,35.71 503.08,34.27 504.56,33.58 506.05,32.36 507.53,30.91 509.01,30.58" />
    </svg>
  