
    <svg width="540" height="160" xmlns="http://www.w3.org/2000/svg">
      <style>.line{fill:none;stroke:#388bfd;stroke-width:1.5}.axis{stroke:#555;stroke-width:1;opacity:0.5}.label{fill:#999;font-family:sans-serif;font-size:10px;text-anchor:middle}</style>
      <line class="axis" x1="30" y1="30" x2="30" y2="130" />
      <line class="axis" x1="30" y1="130" x2="510" y2="130" />
      <text class="label" x="15" y="30">8,911</text>
      <text class="label" x="15" y="134">0</text>
      <text class="label" x="30" y="148">2021</text>
      <text class="label" x="510" y="148">2026</text>
      <polyline class="line" points="30.00,129.98 31.46,129.97 32.92,129.96 34.38,129.96 35.84,129.96 37.31,129.81 38.77,129.81 40.23,129.81 41.69,129.00 43.15,127.67 44.61,127.60 46.07,127.60 47.53,127.60 49.00,127.60 50.46,127.60 51.92,127.60 53.38,127.60 54.84,127.60 56.30,127.60 57.76,127.60 59.22,127.60 60.68,127.60 62.15,127.60 63.61,127.60 65.07,127.60 66.53,127.60 67.99,127.60 69.45,126.84 70.91,126.84 72.37,126.82 73.84,126.82 75.30,126.82 76.76,126.82 78.22,126.78 79.68,126.78 81.14,126.78 82.60,126.78 84.06,126.78 85.53,126.78 86.99,126.78 88.45,126.78 89.91,126.78 91.37,126.78 92.83,126.78 94.29,126.78 95.75,126.78 97.21,126.78 98.68,126.78 100.14,126.78 101.60,126.78 103.06,126.78 104.52,126.73 105.98,126.05 107.44,125.42 108.90,125.16 110.37,123.92 111.83,123.92 113.29,123.92 114.75,123.92 116.21,123.92 117.67,123.92 119.13,123.92 120.59,123.92 122.05,123.92 123.52,123.92 124.98,123.92 126.44,123.92 127.90,123.83 129.36,123.83 130.82,123.83 132.28,123.72 133.74,123.72 135.21,123.72 136.67,123.72 138.13,123.68 139.59,123.68 141.05,123.68 142.51,123.68 143.97,123.66 145.43,123.66 146.89,123.66 148.36,123.66 149.82,123.66 151.28,123.66 152.74,123.66 154.20,123.66 155.66,123.66 157.12,123.66 158.58,123.66 160.05,123.66 161.51,123.66 162.97,123.66 164.43,123.66 165.89,123.66 167.35,123.66 168.81,123.66 170.27,123.66 171.74,123.66 173.20,123.66 174.66,123.66 176.12,123.66 177.58,123.63 179.04,123.63 180.50,123.63 181.96,123.63 183.42,123.63 184.89,123.63 186.35,123.63 187.81,123.63 189.27,123.63 190.73,123.63 192.19,123.63 193.65,123.63 195.11,123.63 196.58,123.63 198.04,123.63 199.50,123.60 200.96,123.31 202.42,123.23 203.88,123.11 205.34,122.95 206.80,122.91 208.26,122.91 209.73,122.91 211.19,122.66 212.65,122.64 214.11,122.48 215.57,122.43 217.03,122.32 218.49,121.93 219.95,121.91 221.42,121.85 222.88,121.84 224.34,121.79 225.80,121.79 227.26,121.76 228.72,121.76 230.18,121.76 231.64,121.76 233.11,121.76 234.57,121.76 236.03,121.76 237.49,121.64 238.95,121.28 240.41,121.01 241.87,120.93 243.33,120.76 244.79,120.75 246.26,120.73 247.72,120.72 249.18,120.72 250.64,120.72 252.10,120.64 253.56,120.56 255.02,120.54 256.48,120.52 257.95,120.49 259.41,120.24 260.87,120.06 262.33,119.79 263.79,119.62 265.25,119.50 266.71,119.44 268.17,119.37 269.63,119.36 271.10,119.31 272.56,119.14 274.02,119.14 275.48,119.14 276.94,119.13 278.40,119.11 279.86,119.11 281.32,119.02 282.79,119.00 284.25,118.99 285.71,118.98 287.17,118.96 288.63,118.96 290.09,118.96 291.55,118.96 293.01,118.96 294.47,118.96 295.94,118.96 297.40,118.96 298.86,118.92 300.32,118.89 301.78,118.89 303.24,118.69 304.70,118.68 306.16,118.67 307.63,118.63 309.09,118.53 310.55,118.28 312.01,118.24 313.47,118.24 314.93,118.24 316.39,118.24 317.85,118.24 319.32,118.24 320.78,118.24 322.24,118.24 323.70,118.24 325.16,118.24 326.62,118.24 328.08,118.24 329.54,118.24 331.00,118.23 332.47,118.16 333.93,118.15 335.39,118.15 336.85,118.15 338.31,118.15 339.77,118.10 341.23,118.10 342.69,117.93 344.16,117.76 345.62,117.76 347.08,117.76 348.54,117.76 350.00,117.76 351.46,117.73 352.92,117.73 354.38,117.71 355.84,117.63 357.31,117.57 358.77,117.26 360.23,117.25 361.69,116.79 363.15,116.52 364.61,116.32 366.07,115.68 367.53,115.51 369.00,115.44 370.46,115.23 371.92,114.91 373.38,114.83 374.84,114.72 376.30,114.54 377.76,114.38 379.22,114.31 380.68,114.20 382.15,114.12 383.61,113.92 385.07,113.74 386.53,113.53 387.99,113.18 389.45,112.98 390.91,111.98 392.37,111.23 393.84,110.74 395.30,110.33 396.76,109.87 398.22,109.87 399.68,109.87 401.14,109.87 402.60,109.58 404.06,109.41 405.53,108.80 406.99,108.12 408.45,107.32 409.91,106.12 411.37,105.28 412.83,103.55 414.29,102.51 415.75,101.81 417.21,100.69 418.68,99.97 420.14,98.54 421.60,96.39 423.06,95.74 424.52,94.90 425.98,94.09 427.44,93.82 428.90,92.79 430.37,92.61 431.83,91.37 433.29,90.25 434.75,89.58 436.21,88.81 437.67,87.80 439.13,87.54 440.59,87.45 442.05,87.33 443.52,87.27 444.98,86.63 446.44,85.80 447.90,84.79 449.36,84.51 450.82,83.69 452.28,82.63 453.74,80.53 455.21,78.98 456.67,77.08 458.13,76.57 459.59,75.56 461.05,73.69 462.51,72.62 463.97,72.04 465.43,71.22 466.89,70.68 468.36,69.91 469.82,69.55 471.28,68.76 472.74,67.27 474.20,65.62 475.66,65.11 477.12,64.18 478.58,62.48 480.05,61.60 481.51,59.48 482.97,58.47 484.43,56.63 485.89,54.83 487.35,52.67 488.81,49.41 490.27,47.26 491.74,45.41 493.20,44.22 494.66,42.68 496.12,41.30 497.58,40.63 499.04,39.51 500.50,38.15 501.96,37.38 503.42,36.22 504.89,35.33 506.35,34.49 507.81,33.22 509.27,30.91" />
    </svg>
  