
    <svg width="540" height="160" xmlns="http://www.w3.org/2000/svg">
      <style>.line{fill:none;stroke:#388bfd;stroke-width:1.5}.axis{stroke:#555;stroke-width:1;opacity:0.5}.label{fill:#999;font-family:sans-serif;font-size:10px;text-anchor:middle}</style>
      <line class="axis" x1="30" y1="30" x2="30" y2="130" />
      <line class="axis" x1="30" y1="130" x2="510" y2="130" />
      <text class="label" x="15" y="30">8,067</text>
      <text class="label" x="15" y="134">0</text>
      <text class="label" x="30" y="148">2021</text>
      <text class="label" x="510" y="148">2026</text>
      <polyline class="line" points="30.00,129.98 31.48,129.96 32.96,129.95 34.44,129.95 35.93,129.95 37.41,129.79 38.89,129.79 40.37,129.79 41.85,128.90 43.33,127.42 44.81,127.35 46.30,127.35 47.78,127.35 49.26,127.35 50.74,127.35 52.22,127.35 53.70,127.35 55.19,127.35 56.67,127.35 58.15,127.35 59.63,127.35 61.11,127.35 62.59,127.35 64.07,127.35 65.56,127.35 67.04,127.35 68.52,127.35 70.00,126.50 71.48,126.50 72.96,126.49 74.44,126.49 75.93,126.49 77.41,126.49 78.89,126.44 80.37,126.44 81.85,126.44 83.33,126.44 84.81,126.44 86.30,126.44 87.78,126.44 89.26,126.44 90.74,126.44 92.22,126.44 93.70,126.44 95.19,126.44 96.67,126.44 98.15,126.44 99.63,126.44 101.11,126.44 102.59,126.44 104.07,126.44 105.56,126.39 107.04,125.64 108.52,124.94 110.00,124.66 111.48,123.28 112.96,123.28 114.44,123.28 115.93,123.28 117.41,123.28 118.89,123.28 120.37,123.28 121.85,123.28 123.33,123.28 124.81,123.28 126.30,123.28 127.78,123.28 129.26,123.18 130.74,123.18 132.22,123.18 133.70,123.06 135.19,123.06 136.67,123.06 138.15,123.06 139.63,123.02 141.11,123.02 142.59,123.02 144.07,123.02 145.56,123.00 147.04,123.00 148.52,123.00 150.00,123.00 151.48,123.00 152.96,123.00 154.44,123.00 155.93,123.00 157.41,123.00 158.89,123.00 160.37,123.00 161.85,123.00 163.33,123.00 164.81,123.00 166.30,123.00 167.78,123.00 169.26,123.00 170.74,123.00 172.22,123.00 173.70,123.00 175.19,123.00 176.67,123.00 178.15,123.00 179.63,122.96 181.11,122.96 182.59,122.96 184.07,122.96 185.56,122.96 187.04,122.96 188.52,122.96 190.00,122.96 191.48,122.96 192.96,122.96 194.44,122.96 195.93,122.96 197.41,122.96 198.89,122.96 200.37,122.96 201.85,122.93 203.33,122.61 204.81,122.53 206.30,122.39 207.78,122.22 209.26,122.17 210.74,122.17 212.22,122.17 213.70,121.89 215.19,121.87 216.67,121.69 218.15,121.63 219.63,121.52 221.11,121.09 222.59,121.06 224.07,121.00 225.56,120.99 227.04,120.93 228.52,120.93 230.00,120.90 231.48,120.90 232.96,120.90 234.44,120.90 235.93,120.90 237.41,120.90 238.89,120.90 240.37,120.76 241.85,120.37 243.33,120.07 244.81,119.98 246.30,119.80 247.78,119.79 249.26,119.76 250.74,119.75 252.22,119.75 253.70,119.75 255.19,119.66 256.67,119.57 258.15,119.55 259.63,119.53 261.11,119.50 262.59,119.22 264.07,119.02 265.56,118.72 267.04,118.53 268.52,118.40 270.00,118.34 271.48,118.26 272.96,118.25 274.44,118.19 275.93,118.00 277.41,118.00 278.89,118.00 280.37,117.99 281.85,117.98 283.33,117.98 284.81,117.88 286.30,117.85 287.78,117.84 289.26,117.83 290.74,117.80 292.22,117.80 293.70,117.80 295.19,117.80 296.67,117.80 298.15,117.80 299.63,117.80 301.11,117.80 302.59,117.76 304.07,117.73 305.56,117.73 307.04,117.50 308.52,117.49 310.00,117.48 311.48,117.44 312.96,117.33 314.44,117.06 315.93,117.01 317.41,117.01 318.89,117.01 320.37,117.01 321.85,117.01 323.33,117.01 324.81,117.01 326.30,117.01 327.78,117.01 329.26,117.01 330.74,117.01 332.22,117.01 333.70,117.01 335.19,117.00 336.67,116.92 338.15,116.91 339.63,116.91 341.11,116.91 342.59,116.91 344.07,116.86 345.56,116.86 347.04,116.66 348.52,116.48 350.00,116.48 351.48,116.48 352.96,116.48 354.44,116.48 355.93,116.45 357.41,116.45 358.89,116.43 360.37,116.34 361.85,116.27 363.33,115.93 364.81,115.92 366.30,115.41 367.78,115.11 369.26,114.89 370.74,114.18 372.22,114.00 373.70,113.92 375.19,113.69 376.67,113.33 378.15,113.24 379.63,113.12 381.11,112.92 382.59,112.74 384.07,112.67 385.56,112.55 387.04,112.46 388.52,112.24 390.00,112.04 391.48,111.80 392.96,111.42 394.44,111.19 395.93,110.09 397.41,109.26 398.89,108.73 400.37,108.27 401.85,107.76 403.33,107.76 404.81,107.76 406.30,107.76 407.78,107.44 409.26,107.25 410.74,106.58 412.22,105.83 413.70,104.95 415.19,103.62 416.67,102.69 418.15,100.78 419.63,99.63 421.11,98.86 422.59,97.62 424.07,96.83 425.56,95.25 427.04,92.87 428.52,92.15 430.00,91.22 431.48,90.33 432.96,90.03 434.44,88.89 435.93,88.70 437.41,87.33 438.89,86.09 440.37,85.35 441.85,84.51 443.33,83.39 444.81,83.09 446.30,82.99 447.78,82.87 449.26,82.80 450.74,82.09 452.22,81.17 453.70,80.06 455.19,79.75 456.67,78.84 458.15,77.68 459.63,75.36 461.11,73.65 462.59,71.54 464.07,70.98 465.56,69.87 467.04,67.80 468.52,66.62 470.00,65.97 471.48,65.07 472.96,64.47 474.44,63.62 475.93,63.22 477.41,62.35 478.89,60.71 480.37,58.88 481.85,58.33 483.33,57.38 484.81,55.87 486.30,54.98 487.78,53.17 489.26,52.21 490.74,50.35 492.22,48.47 493.70,46.49 495.19,43.13 496.67,40.86 498.15,38.90 499.63,37.64 501.11,36.02 502.59,34.59 504.07,33.90 505.56,32.69 507.04,31.24 508.52,30.92 510.00,30.00" />
    </svg>
  